<?xml version="1.0" encoding="utf-8"?>
<!-- Generator: Adobe Illustrator 24.0.0, SVG Export Plug-In . SVG Version: 6.00 Build 0)  -->
<svg version="1.1" id="archives_text.svg" xmlns="http://www.w3.org/2000/svg" xmlns:xlink="http://www.w3.org/1999/xlink" x="0px"
	 y="0px" width="177.6px" height="18.2px" viewBox="0 0 177.6 18.2" style="enable-background:new 0 0 177.6 18.2;"
	 xml:space="preserve">
<style type="text/css">
	.st0{fill:#5C1801;}
</style>
<g>
	<path class="st0" d="M7.7,8.8c-0.5,0.3-1,0.5-1.5,0.7C5.7,8.9,5,8,4.4,7.5C6.3,6.9,8,5.9,9.3,4.7H5V2.4h6.7V0.6h2.6v1.9h6.9v2.3
		h-3.9c1.5,1,3.1,2,4,2.8l-1.7,1.9c-0.3-0.3-0.8-0.7-1.3-1.1v5.9H7.7V8.8z M5.1,14.9h16.1v2.3H5.1V14.9z M18.2,8.1
		c-1.1-0.9-2.5-1.8-3.8-2.7v2.2h-2.6V5.5c-0.8,1-1.8,1.9-3,2.7H18.2z M15.7,9.8h-5.4v0.6h5.4V9.8z M15.7,12h-5.4v0.6h5.4V12z"/>
	<path class="st0" d="M30.6,8c-0.1,0.2-0.2,0.3-0.3,0.5h8.1v9.2h-2.6v-0.6H30v0.6h-2.5v-5.6c-0.8,0.7-1.6,1.4-2.6,1.9
		c-0.4-0.6-1.1-1.6-1.6-2.1c1.8-0.9,3.2-2.3,4.2-4H24V6h4.7c0.1-0.1,0.1-0.3,0.2-0.5h-3.7V3.6h4.3l0.1-0.5c-1.4,0-2.8,0-4.1,0
		c0-0.6-0.3-1.4-0.5-1.9c4.4,0,9.5-0.2,12.6-0.6l1.5,1.9c-2,0.3-4.3,0.5-6.7,0.6l-0.2,0.6h6.8v1.9h-7.5L31.5,6h8.6v2H30.6z
		 M35.8,10.5H30V11h5.8V10.5z M30,13.1h5.8v-0.5H30V13.1z M35.8,15.2v-0.5H30v0.5H35.8z"/>
	<path class="st0" d="M52.3,15h6.4v2.3H43.3V15h6.2v-1.7h-4.4V11h4.4V9.3H46V7.7c-0.7,0.5-1.5,0.9-2.2,1.2c-0.4-0.6-1-1.6-1.6-2.1
		C44,6.2,46,5,47.6,3.6h-1.9V1.2h6.6c1.5,2.2,4.3,4.3,7.5,5.4C59.2,7.2,58.4,8.3,58,9c-0.8-0.4-1.5-0.8-2.2-1.2v1.5h-3.5V11h4.5v2.3
		h-4.5V15z M50.9,3.6C49.8,4.8,48.5,6,47,7h7.7C53.2,6,52,4.8,50.9,3.6L50.9,3.6z"/>
	<path class="st0" d="M70.2,5.1c-0.3,0.8-0.7,1.6-1,2.2h1.9v2.4h-9.6V7.3h2.1c-0.2-0.7-0.5-1.5-0.8-2.2l1.4-0.3h-2.2V2.5h3.2
		c-0.2-0.5-0.3-1-0.5-1.4L67,0.4c0.3,0.6,0.6,1.5,0.8,2.1h2.9v2.3h-1.8L70.2,5.1z M62.2,10.8h8.3v6.9h-2.6v-0.7h-3.3v0.8h-2.5V10.8z
		 M64.7,13.1v1.6h3.3v-1.6H64.7z M65.1,4.8c0.4,0.7,0.7,1.6,0.9,2.3L65,7.3h1.7c0.3-0.8,0.6-1.7,0.8-2.5H65.1z M78.5,2.4
		c-0.6,1.8-1.3,3.9-1.9,5.4c1.4,1.6,1.5,3,1.5,4.2c0,1.4-0.3,2.3-1,2.8c-0.4,0.3-0.8,0.4-1.3,0.5c-0.4,0.1-0.8,0.1-1.3,0.1
		c0-0.7-0.2-1.7-0.6-2.4c0.3,0,0.6,0,0.8,0c0.2,0,0.4-0.1,0.6-0.2c0.3-0.2,0.4-0.5,0.4-1.1c0-0.9-0.3-2.2-1.6-3.5
		c0.4-1.2,0.9-3,1.3-4.4h-1.5v13.8h-2.3V1.4h4.7l0.4-0.1L78.5,2.4z"/>
	<path class="st0" d="M90.5,12.6c0.2,1.1,0.4,2.4,0.4,3.3L89,16.3c0-0.9-0.1-2.3-0.3-3.3c-0.2,1.6-0.5,3.1-1.4,4.1l-1.9-1
		c0.5-0.6,0.9-1.5,1.1-2.5c-2.1,0.5-4.3,1-6.1,1.4l-0.5-2.5c0.7-0.1,1.5-0.3,2.4-0.4V9h-1.8V6.6h1.8V4h-1.9V1.5h6.3V4h-1.9v2.6h1.7
		V9h-1.7v2.6l1.5-0.3l0.2,2.1c0.1-0.4,0.1-0.8,0.2-1.2l2,0.5l0,0.2L90.5,12.6z M97.3,9.5c0,0,0,0.6,0,0.9c-0.2,4.1-0.3,5.8-0.8,6.4
		c-0.4,0.5-0.8,0.7-1.4,0.8c-0.5,0.1-1.2,0.1-2,0.1c0-0.7-0.3-1.7-0.6-2.3c0.6,0.1,1.1,0.1,1.4,0.1c0.2,0,0.4-0.1,0.6-0.2
		c0.1-0.2,0.2-0.5,0.3-1.2l-1.2,0.5c-0.1-0.6-0.5-1.4-0.8-2.1l1.4-0.5c0.3,0.4,0.6,1,0.8,1.5c0.1-0.5,0.1-1,0.1-1.7h-7.6V1.2h9.6
		v2.2h-3.2V4h2.5v2h-2.5v0.7h2.5v2h-2.5v0.8H97.3z M89.6,3.4V4h1.7V3.4H89.6z M91.3,6h-1.7v0.7h1.7V6z M89.6,9.5h1.7V8.7h-1.7V9.5z
		 M92.3,12.4c0.3,0.9,0.6,2,0.7,2.8l-1.7,0.5c-0.1-0.8-0.3-1.9-0.6-2.8L92.3,12.4z"/>
	<path class="st0" d="M105.2,5.9h3v2.4h-3V9c0.9,0.7,2.5,2,3,2.4l-1.5,2.3c-0.4-0.5-0.9-1.1-1.5-1.7v5.8h-2.6v-5.6
		c-0.7,1.4-1.5,2.6-2.3,3.5c-0.3-0.8-0.9-1.9-1.3-2.6c1.2-1.2,2.4-3,3.2-4.7h-2.7V5.9h3.2V4.1c-0.9,0.2-1.8,0.3-2.7,0.5
		c-0.1-0.6-0.5-1.5-0.8-2c2.6-0.4,5.4-1.1,7.1-1.9l1.8,2c-0.9,0.4-1.9,0.7-2.9,0.9V5.9z M111.6,13H109V2.8h2.6V13z M115.5,0.9v13.6
		c0,1.5-0.3,2.2-1.1,2.6c-0.8,0.4-2.1,0.5-3.8,0.5c-0.1-0.8-0.5-2-0.9-2.7c1.1,0.1,2.3,0.1,2.7,0.1c0.3,0,0.5-0.1,0.5-0.5V0.9H115.5
		z"/>
	<path class="st0" d="M131.8,7.6c0,0.3,0,0.6,0,0.9c0.7,3.4,1.6,5.5,3.6,7.2c-0.6,0.5-1.3,1.3-1.6,2c-1.3-1.3-2.2-2.7-2.8-4.4
		c-0.6,1.5-1.4,3.1-2.8,4.4c-0.2-0.3-0.5-0.8-0.9-1.2c-0.5,0.1-1.3,0.1-2.1,0.1H122c-2.6,0-3.5-1-3.5-3.9V3.4H118V1.2h9.2v2.2h-6.4
		v9.6c0,1.2,0.2,1.6,1.1,1.6h3.4c0.6,0,1.4-0.1,1.9-0.2l0.1,0.5c1.9-2.4,2.2-5.4,2.2-7.3V6.6c-0.3,0.8-0.7,1.5-1.1,2
		c-0.4-0.4-1.5-1.1-2-1.4c1.2-1.5,1.9-4.1,2.2-6.8l2.4,0.4c-0.1,0.7-0.2,1.4-0.4,2.1h2.9l0.4-0.1l1.7,0.5c-0.4,1.9-1,4-1.6,5.5
		l-1.9-0.6c0.3-0.7,0.5-1.8,0.8-2.8h-2.8c-0.1,0.2-0.1,0.5-0.2,0.7h2.1V7.6z M121.1,9.1h2.8v4.6h-2.8V9.1z M121.7,4.1h4.5v4.2h-4.5
		V4.1z M122.3,12.2h0.5v-1.6h-0.5V12.2z M123.6,6.9h0.7V5.6h-0.7V6.9z M124.3,9.1h2.9v4.6h-2.9V9.1z M125.5,12.2h0.5v-1.6h-0.5V12.2
		z"/>
	<path class="st0" d="M141.7,8.9c-0.3,1.7-0.7,3.5-1.2,4.9c0.3,0.2,0.6,0.4,1,0.6c1.2,0.7,3,0.8,5.1,0.8c2,0,5.4-0.2,7.4-0.5
		c-0.3,0.7-0.7,1.9-0.7,2.6c-1.5,0.1-4.7,0.2-6.8,0.2c-2.4,0-3.9-0.2-5.3-0.9c-0.8-0.4-1.4-1-1.8-1c-0.3,0-0.9,1.3-1.2,2.2l-1.6-2.4
		c0.6-0.8,1.3-1.3,1.9-1.6c0.3-0.8,0.5-1.9,0.7-2.9h-2c0.3-1.1,0.7-2.4,1-3.8H137V4.7h3.9c-0.3,1.3-0.6,2.7-1,3.9h0.5l0.3-0.1
		L141.7,8.9z M138.7,4.4c-0.2-0.8-0.6-2.2-0.9-3.2l2-0.6c0.3,1,0.7,2.2,1,3.1L138.7,4.4z M142.7,5h-1.4V2.9h2
		c-0.1-0.6-0.3-1.2-0.4-1.7l2.3-0.4c0.2,0.6,0.5,1.5,0.6,2.1h1.5v1c0.6-1,1.1-2.3,1.4-3.4l2.2,0.6c-0.1,0.4-0.3,0.8-0.4,1.2h3.2v2.1
		h-4.1c-0.1,0.3-0.3,0.6-0.4,0.8h2.9l0.4-0.1l1.4,1c-0.5,0.7-1.2,1.4-1.9,2.1v0.5h1.9v2h-1.9v1.6c0,1-0.1,1.6-0.8,1.9
		c-0.6,0.3-1.4,0.4-2.4,0.4c-0.1-0.6-0.4-1.5-0.7-2.1c0.6,0,1.3,0,1.5,0c0.2,0,0.3-0.1,0.3-0.2v-1.6H148v-2h1.8V7.7
		c0.2-0.2,0.5-0.4,0.7-0.7h-2.1V5.5c-0.3-0.3-0.6-0.5-1-0.8V5h-2.6v1h2.8c0,0,0,0.6,0,0.8c-0.1,4.7-0.2,6.5-0.6,7.1
		c-0.3,0.5-0.6,0.6-1.1,0.7c-0.4,0.1-1,0.1-1.6,0.1c0-0.6-0.2-1.4-0.5-2c-0.3,0.6-0.7,1.2-1.2,1.7c-0.3-0.5-1-1.2-1.5-1.5
		c1.4-1.7,1.6-4.3,1.6-6.1V5z M144.8,8.1c-0.1,1.5-0.3,3.2-1,4.6c0.3,0,0.6,0,0.8,0s0.3-0.1,0.5-0.3c0.2-0.3,0.3-1.4,0.3-4.4H144.8z
		"/>
	<path class="st0" d="M172.6,8.6c-0.5,1.8-1.3,3.6-2.3,5.1c0.2,0.5,0.4,0.8,0.6,0.8c0.2,0,0.4-0.8,0.5-2.2c0.4,0.5,1.4,1.2,1.8,1.5
		c-0.5,3.1-1.5,3.8-2.3,3.7c-0.9,0-1.6-0.6-2.2-1.7c-0.5,0.5-0.9,0.9-1.4,1.3c-0.3-0.4-0.8-0.9-1.3-1.3v0.9
		c-2.6,0.2-5.5,0.4-7.5,0.5l-0.2-1.9c0.5,0,1.1-0.1,1.8-0.1c-0.1-0.4-0.2-0.7-0.3-1.1l1.7-0.3c0.2,0.4,0.3,0.9,0.4,1.2l0.8-0.1
		c0.2-0.5,0.5-0.9,0.6-1.3l2.1,0.3c-0.2,0.3-0.4,0.6-0.6,0.9L166,15v0.1c0.7-0.5,1.3-1.1,1.9-1.8c-0.3-1.5-0.6-3.3-0.7-5.5l-0.9,0.1
		L165.9,6c-0.1,0.3-0.1,0.5-0.2,0.7l-1.8-0.3c0.1-0.4,0.2-0.8,0.2-1.3h-1.8v0.5l1.4-0.1l0.2,1.3l-1.6,0.1c0,0.3,0.1,0.5,0.4,0.5h1.1
		c0.4,0,1.1,0,1.4-0.1c0,0.5,0.1,0.9,0.1,1.4c-0.3,0.1-0.9,0.1-1.4,0.1h-1.9c-1.4,0-1.8-0.6-1.8-1.7l-1.4,0.1l-0.2-1.3l1.6-0.1V5.1
		h-1.6v3.2c0,2.6-0.2,6.7-1.5,9.2c-0.3-0.4-1.3-1.2-1.7-1.4c1-2.3,1.1-5.5,1.1-7.9V3.5h3.3V0.6h2.4v0.8h3.7V3h-3.7v0.5h2.4l0.3-0.1
		l1.5,0.2c-0.1,0.6-0.3,1.4-0.4,2l0.9-0.1c-0.1-1.5-0.1-3.1-0.1-4.9h2.4c0,1.6,0,3.1,0.1,4.6l3.3-0.5l0.3,2.3l-3.5,0.5
		c0.1,1,0.2,2,0.3,2.8c0.4-0.9,0.7-1.8,1-2.7L172.6,8.6z M166,10.6h-7.1V9h7.1V10.6z M159.2,13.9v-2.9h6.4v2.9H159.2z M161.1,12.7
		h2.5v-0.6h-2.5V12.7z M170.7,4.7c-0.3-0.8-0.9-2-1.4-3l1.9-0.9c0.5,0.9,1.2,2.1,1.5,2.8L170.7,4.7z"/>
</g>
</svg>
