<svg id="archives_title.svg" data-name="archives/title.svg" xmlns="http://www.w3.org/2000/svg" width="497.626" height="46.15" viewBox="0 0 497.626 46.15">
  <defs>
    <style>
      .cls-1 {
        fill: #5c1801;
        fill-rule: evenodd;
      }
    </style>
  </defs>
  <path id="GAME_ARCHIVES" data-name="GAME ARCHIVES" class="cls-1" d="M395.1,6379.96H368.7v9.06h13.26c-1.38,4.56-5.34,7.14-10.62,7.14-7.5,0-12.179-5.94-12.179-13.32,0-7.14,4.979-12.9,12.119-12.9a10.9,10.9,0,0,1,9.78,5.76h12.719c-2.52-8.94-12.179-15.72-22.2-15.72-12.9,0-23.759,9.42-23.759,22.86a23.254,23.254,0,0,0,23.579,23.28c14.939,0,23.7-11.7,23.7-23.64v-2.52Zm43.7,25.26-17.64-44.4h-8.939l-17.82,44.4h12.18l2.34-6.42h15.419l2.16,6.42h12.3Zm-17.46-15.42h-9.3l4.559-15.18,0.18,0.06Zm67.883,15.42v-44.4H474.579l-8.7,29.22h-0.12l-8.82-29.22H442.36v44.4H452.8l-0.36-33.66,9.6,33.66h7.5l9.479-33.36,0.12,0.12-0.359,33.24h10.439Zm32.581,0v-9.96H508v-7.62h13.38v-9.96H508v-6.9h13.8v-9.96H497.14v44.4H521.8Zm66.478,0-17.639-44.4H561.7l-17.819,44.4h12.18l2.34-6.42h15.419l2.16,6.42h12.3Zm-17.459-15.42h-9.3l4.56-15.18,0.18,0.06Zm55.223,15.42-12.059-15.12c6.84-1.2,11.039-6.96,11.039-13.98,0-6.3-3.359-11.52-8.159-13.68-2.34-1.02-5.88-1.62-10.5-1.62H591.843v44.4H602.7v-14.34h0.12l10.26,14.34h12.959ZM602.7,6383.14v-12.36h4.32c4.26,0,7.14,2.16,7.14,6,0,4.26-2.76,6.36-7.26,6.36h-4.2Zm71.333-5.46c-0.78-4.56-3.3-8.64-7.5-12.24a22.547,22.547,0,0,0-15.479-5.46c-12.72,0-22.859,10.62-22.859,22.38,0,6.72,2.04,12.36,6.84,17.04a23.411,23.411,0,0,0,39-10.8h-11.88c-2.339,4.98-6.179,7.5-10.679,7.5-7.02,0-11.94-6-11.94-13.2,0-6.9,4.8-12.96,11.88-12.96a11.6,11.6,0,0,1,10.739,7.74h11.88Zm42.527,27.54v-44.4H705.223v16.68H690.7v-16.68H679.364v44.4H690.7v-17.76h14.52v17.76h11.339Zm19.195,0v-44.4H724.418v44.4h11.339Zm30.144,0,14.879-44.4h-11.7l-9,31.14h-0.12l-8.94-31.14H739.382l14.819,44.4h11.7Zm43.265,0v-9.96h-13.8v-7.62h13.38v-9.96h-13.38v-6.9h13.8v-9.96H784.507v44.4h24.659Zm35.91-31.44c-0.06-5.94-2.34-9.48-7.08-11.94a16.884,16.884,0,0,0-7.86-1.86c-8.16,0-15.479,5.52-15.479,13.08,0,5.76,3.3,9.6,10.559,12.54,4.02,1.62,8.94,3.18,8.94,6.72a4.238,4.238,0,0,1-4.26,4.26c-2.82,0-4.62-2.4-4.68-6.06H813.937v0.96c0,9.54,6.36,14.58,16.019,14.58,9.6,0,15.48-5.04,15.48-13.62,0-5.82-2.46-9.36-12.24-13.56-4.86-2.1-7.26-3.3-7.26-5.94a3.7,3.7,0,0,1,3.9-3.48c2.22,0,3.54,1.14,4.02,4.32h11.22Z" transform="translate(-347.812 -6359.97)"/>
</svg>
