<svg width="142" height="130" viewBox="0 0 142 130" fill="none" xmlns="http://www.w3.org/2000/svg">
<mask id="mask0_15_168" style="mask-type:luminance" maskUnits="userSpaceOnUse" x="0" y="0" width="142" height="130">
<path d="M94.0701 0.25C79.7301 15.56 0.530212 117.73 0.530212 117.73L8.38019 129.7L141.41 54.55L94.0701 0.25Z" fill="white"/>
</mask>
<g mask="url(#mask0_15_168)">
<path d="M40.0701 126.96C42.8201 126.48 45.4402 128.31 45.9302 131.07C46.4102 133.82 44.5801 136.44 41.8301 136.92C39.0801 137.41 36.4501 135.57 35.9701 132.82C35.4801 130.07 37.3101 127.45 40.0701 126.96Z" fill="#E59816"/>
<path d="M24.0102 123.28C26.7902 123.03 29.2402 125.08 29.5002 127.86C29.7402 130.64 27.6902 133.1 24.9102 133.35C22.1302 133.59 19.6802 131.54 19.4302 128.76C19.1802 125.99 21.2302 123.53 24.0102 123.28Z" fill="#E59816"/>
<path d="M5.38024 117.93C8.16024 117.68 10.6102 119.73 10.8602 122.52C11.1102 125.3 9.05026 127.75 6.28026 128C3.50026 128.24 1.04028 126.19 0.800281 123.41C0.540281 120.63 2.60024 118.17 5.38024 117.93Z" fill="#E59816"/>
<path d="M101.86 125.04C104.61 124.55 107.24 126.39 107.72 129.14C108.21 131.89 106.37 134.51 103.62 135C100.87 135.48 98.2502 133.65 97.7602 130.91C97.2802 128.15 99.1102 125.52 101.86 125.04Z" fill="#E59816"/>
<path d="M82.6202 120.38C85.3702 119.89 87.9902 121.73 88.4702 124.48C88.9602 127.22 87.1202 129.85 84.3702 130.34C81.6202 130.83 79.0002 128.99 78.5202 126.23C78.0402 123.48 79.8702 120.86 82.6202 120.38Z" fill="#E59816"/>
<path d="M65.3602 115.55C68.1102 115.06 70.7302 116.9 71.2202 119.65C71.7002 122.4 69.8702 125.02 67.1102 125.51C64.3702 126 61.7402 124.16 61.2602 121.41C60.7802 118.65 62.6102 116.03 65.3602 115.55Z" fill="#E59816"/>
<path d="M46.7102 111.09C49.4602 110.61 52.0902 112.45 52.5702 115.19C53.0502 117.94 51.2202 120.56 48.4702 121.05C45.7102 121.53 43.0902 119.69 42.6102 116.95C42.1202 114.2 43.9602 111.58 46.7102 111.09Z" fill="#E59816"/>
<path d="M30.6502 107.41C33.4302 107.16 35.8802 109.22 36.1402 111.99C36.3802 114.78 34.3402 117.23 31.5502 117.48C28.7602 117.73 26.3101 115.67 26.0701 112.9C25.8201 110.11 27.8702 107.66 30.6502 107.41Z" fill="#E59816"/>
<path d="M12.0203 102.06C14.8003 101.81 17.2502 103.86 17.5002 106.64C17.7502 109.42 15.6903 111.88 12.9203 112.13C10.1403 112.37 7.68017 110.32 7.44017 107.54C7.18017 104.76 9.24025 102.3 12.0203 102.06Z" fill="#E59816"/>
<path d="M108.5 109.17C111.25 108.68 113.88 110.51 114.36 113.27C114.84 116.02 113.01 118.64 110.26 119.12C107.51 119.61 104.89 117.77 104.4 115.02C103.92 112.28 105.75 109.65 108.5 109.17Z" fill="#E59816"/>
<path d="M89.2602 104.51C92.0102 104.02 94.6301 105.86 95.1101 108.61C95.5901 111.35 93.7602 113.98 91.0102 114.47C88.2602 114.96 85.6402 113.12 85.1502 110.36C84.6802 107.61 86.5102 104.99 89.2602 104.51Z" fill="#E59816"/>
<path d="M72.0102 99.6798C74.7602 99.1898 77.3802 101.03 77.8702 103.78C78.3502 106.54 76.5202 109.15 73.7702 109.64C71.0202 110.13 68.3902 108.29 67.9202 105.54C67.4202 102.78 69.2502 100.16 72.0102 99.6798Z" fill="#E59816"/>
<path d="M53.3401 95.22C56.0901 94.74 58.7201 96.5701 59.2001 99.3201C59.6801 102.07 57.8501 104.69 55.1001 105.18C52.3401 105.67 49.7201 103.83 49.2401 101.08C48.7601 98.3301 50.6001 95.71 53.3401 95.22Z" fill="#E59816"/>
<path d="M37.2903 91.5399C40.0803 91.2999 42.5203 93.3398 42.7803 96.1298C43.0203 98.9098 40.9702 101.37 38.1902 101.61C35.4102 101.86 32.9602 99.7999 32.7002 97.0299C32.4602 94.2399 34.5103 91.7899 37.2903 91.5399Z" fill="#E59816"/>
<path d="M18.6603 86.1898C21.4403 85.9398 23.8902 87.9899 24.1402 90.7699C24.3902 93.5499 22.3303 96.0099 19.5503 96.2599C16.7703 96.4999 14.3102 94.4498 14.0702 91.6698C13.8202 88.8798 15.8803 86.4298 18.6603 86.1898Z" fill="#E59816"/>
<path d="M3.75014 81.48C6.03014 83.09 6.56008 86.25 4.94008 88.53C3.32008 90.8 0.160154 91.34 -2.10985 89.72C-4.38985 88.1 -4.91991 84.9399 -3.29991 82.6699C-1.67991 80.3999 1.48014 79.86 3.75014 81.48Z" fill="#E59816"/>
<path d="M115.14 93.3C117.89 92.81 120.52 94.6498 121 97.3998C121.49 100.15 119.65 102.77 116.9 103.25C114.15 103.74 111.52 101.9 111.04 99.1598C110.56 96.4098 112.39 93.78 115.14 93.3Z" fill="#E59816"/>
<path d="M95.9002 88.6398C98.6502 88.1498 101.27 89.9899 101.76 92.7399C102.24 95.4899 100.41 98.11 97.6502 98.59C94.9002 99.08 92.2803 97.2399 91.8003 94.4899C91.3103 91.7499 93.1502 89.1198 95.9002 88.6398Z" fill="#E59816"/>
<path d="M78.6402 83.81C81.3902 83.32 84.0102 85.1598 84.5002 87.8998C84.9902 90.6598 83.1502 93.2799 80.4002 93.7599C77.6502 94.2499 75.0202 92.4098 74.5502 89.6598C74.0602 86.9098 75.8902 84.29 78.6402 83.81Z" fill="#E59816"/>
<path d="M59.9802 79.3501C62.7302 78.8701 65.3602 80.7099 65.8402 83.4499C66.3302 86.1999 64.4902 88.82 61.7502 89.3C59.0002 89.79 56.3703 87.9499 55.8903 85.2099C55.4003 82.4599 57.2402 79.8301 59.9802 79.3501Z" fill="#E59816"/>
<path d="M43.9302 75.6698C46.7102 75.4198 49.1702 77.4699 49.4202 80.2599C49.6602 83.0399 47.6201 85.4999 44.8301 85.7399C42.0501 85.9899 39.6002 83.9298 39.3502 81.1598C39.1002 78.3698 41.1502 75.9198 43.9302 75.6698Z" fill="#E59816"/>
<path d="M25.3002 70.32C28.0802 70.07 30.5302 72.1198 30.7802 74.8998C31.0402 77.6798 28.9701 80.1398 26.1901 80.3898C23.4201 80.6398 20.9602 78.5799 20.7102 75.7999C20.4602 73.0099 22.5102 70.56 25.3002 70.32Z" fill="#E59816"/>
<path d="M10.3902 65.6101C12.6602 67.2201 13.2001 70.3799 11.5801 72.6599C9.9601 74.9299 6.80017 75.4701 4.53017 73.8501C2.25017 72.2301 1.72011 69.0701 3.34011 66.8001C4.96011 64.5301 8.12015 63.9901 10.3902 65.6101Z" fill="#E59816"/>
<path d="M121.78 77.4298C124.53 76.9398 127.15 78.7799 127.64 81.5299C128.12 84.2799 126.29 86.8998 123.54 87.3798C120.79 87.8598 118.16 86.0299 117.68 83.2799C117.2 80.5399 119.03 77.9098 121.78 77.4298Z" fill="#E59816"/>
<path d="M102.54 72.7599C105.29 72.2699 107.91 74.11 108.39 76.86C108.88 79.6 107.05 82.2299 104.29 82.7199C101.54 83.2099 98.9201 81.37 98.4401 78.62C97.9601 75.87 99.7902 73.2499 102.54 72.7599Z" fill="#E59816"/>
<path d="M85.2902 67.9298C88.0402 67.4398 90.6602 69.2799 91.1502 72.0299C91.6402 74.7799 89.8003 77.3998 87.0503 77.8898C84.3003 78.3798 81.6801 76.54 81.1901 73.79C80.7101 71.04 82.5402 68.4198 85.2902 67.9298Z" fill="#E59816"/>
<path d="M66.6302 63.4799C69.3802 62.9899 72.0102 64.83 72.4902 67.58C72.9802 70.33 71.1403 72.9498 68.4002 73.4298C65.6502 73.9198 63.0203 72.08 62.5303 69.33C62.0403 66.59 63.8802 63.9599 66.6302 63.4799Z" fill="#E59816"/>
<path d="M50.5801 59.7999C53.3601 59.5499 55.8103 61.5998 56.0603 64.3798C56.3003 67.1598 54.2502 69.62 51.4702 69.87C48.6902 70.11 46.2402 68.0599 45.9902 65.2799C45.7402 62.4999 47.7901 60.0499 50.5801 59.7999Z" fill="#E59816"/>
<path d="M31.9402 54.44C34.7202 54.19 37.1803 56.2501 37.4303 59.0301C37.6803 61.8101 35.6202 64.2701 32.8402 64.5101C30.0602 64.7601 27.6002 62.7 27.3602 59.92C27.1002 57.14 29.1602 54.69 31.9402 54.44Z" fill="#E59816"/>
<path d="M17.0302 49.7401C19.3002 51.3501 19.8401 54.5101 18.2201 56.7801C16.6001 59.0601 13.4402 59.5901 11.1702 57.9801C8.9002 56.3601 8.36014 53.2001 9.98014 50.9301C11.6101 48.6501 14.7602 48.1201 17.0302 49.7401Z" fill="#E59816"/>
<path d="M128.42 61.56C131.17 61.07 133.8 62.9098 134.28 65.6598C134.76 68.4098 132.92 71.0299 130.18 71.5099C127.43 71.9999 124.81 70.1598 124.32 67.4098C123.84 64.6698 125.67 62.04 128.42 61.56Z" fill="#E59816"/>
<path d="M109.19 56.89C111.94 56.4 114.56 58.2501 115.04 60.9901C115.52 63.7401 113.69 66.3602 110.94 66.8502C108.19 67.3402 105.57 65.5001 105.09 62.7501C104.59 60.0001 106.43 57.38 109.19 56.89Z" fill="#E59816"/>
<path d="M91.9202 52.06C94.6702 51.57 97.2902 53.4098 97.7802 56.1598C98.2602 58.9098 96.4202 61.5299 93.6802 62.0199C90.9302 62.5099 88.3101 60.6698 87.8301 57.9198C87.3501 55.1698 89.1702 52.54 91.9202 52.06Z" fill="#E59816"/>
<path d="M73.2702 47.61C76.0302 47.12 78.6502 48.9599 79.1302 51.7099C79.6202 54.4599 77.7802 57.08 75.0302 57.57C72.2802 58.05 69.6503 56.2199 69.1703 53.4699C68.6903 50.7199 70.5202 48.09 73.2702 47.61Z" fill="#E59816"/>
<path d="M57.2202 43.9298C60.0002 43.6798 62.4502 45.7299 62.7002 48.5199C62.9502 51.2999 60.9002 53.7499 58.1102 54.0099C55.3302 54.2599 52.8702 52.1998 52.6202 49.4198C52.3802 46.6298 54.4302 44.1798 57.2202 43.9298Z" fill="#E59816"/>
<path d="M38.5801 38.57C41.3601 38.32 43.8202 40.3698 44.0602 43.1598C44.3102 45.9398 42.2501 48.3998 39.4701 48.6498C36.7001 48.8898 34.2401 46.8399 33.9901 44.0599C33.7301 41.2699 35.8001 38.82 38.5801 38.57Z" fill="#E59816"/>
<path d="M23.6702 33.87C25.9402 35.49 26.4802 38.6398 24.8602 40.9198C23.2402 43.1898 20.0803 43.73 17.8103 42.12C15.5403 40.49 15.0102 37.33 16.6202 35.07C18.2402 32.79 21.4002 32.25 23.6702 33.87Z" fill="#E59816"/>
<path d="M135.06 45.6899C137.81 45.1999 140.44 47.04 140.92 49.79C141.4 52.54 139.57 55.1598 136.82 55.6398C134.07 56.1198 131.45 54.29 130.97 51.54C130.48 48.8 132.31 46.1699 135.06 45.6899Z" fill="#E59816"/>
<path d="M115.83 41.0199C118.57 40.5299 121.19 42.37 121.68 45.12C122.16 47.87 120.33 50.4899 117.57 50.9799C114.82 51.4699 112.2 49.6298 111.72 46.8798C111.24 44.1298 113.07 41.5099 115.83 41.0199Z" fill="#E59816"/>
<path d="M98.5701 36.1899C101.31 35.6999 103.94 37.54 104.42 40.29C104.91 43.04 103.07 45.6598 100.32 46.1498C97.5701 46.6398 94.9501 44.8 94.4601 42.04C93.9801 39.3 95.8201 36.6699 98.5701 36.1899Z" fill="#E59816"/>
<path d="M79.9102 31.7399C82.6602 31.2499 85.2902 33.09 85.7702 35.84C86.2602 38.58 84.4203 41.2099 81.6703 41.6999C78.9203 42.1799 76.2903 40.35 75.8103 37.59C75.3303 34.85 77.1602 32.2199 79.9102 31.7399Z" fill="#E59816"/>
<path d="M63.8502 28.0599C66.6302 27.8199 69.0902 29.8598 69.3402 32.6498C69.5902 35.4298 67.5402 37.8798 64.7502 38.1398C61.9702 38.3798 59.5102 36.3299 59.2602 33.5499C59.0202 30.7599 61.0702 28.3099 63.8502 28.0599Z" fill="#E59816"/>
<path d="M45.2202 22.6998C48.0102 22.4498 50.4602 24.4999 50.7002 27.2799C50.9502 30.0599 48.9002 32.5099 46.1102 32.7599C43.3302 33.0099 40.8702 30.9498 40.6302 28.1798C40.3802 25.3998 42.4402 22.9498 45.2202 22.6998Z" fill="#E59816"/>
<path d="M30.3102 18.0001C32.5902 19.6101 33.1202 22.7702 31.5002 25.0502C29.8802 27.3202 26.7301 27.8601 24.4501 26.2401C22.1701 24.6201 21.6402 21.4601 23.2602 19.1901C24.8802 16.9101 28.0402 16.3801 30.3102 18.0001Z" fill="#E59816"/>
<path d="M141.7 29.8101C144.45 29.3301 147.07 31.1599 147.56 33.9099C148.04 36.6599 146.21 39.2801 143.46 39.7701C140.71 40.25 138.09 38.42 137.6 35.67C137.12 32.93 138.95 30.3001 141.7 29.8101Z" fill="#E59816"/>
<path d="M122.47 25.1598C125.22 24.6698 127.84 26.5099 128.33 29.2599C128.81 32.0099 126.98 34.63 124.22 35.12C121.47 35.6 118.85 33.7699 118.37 31.0099C117.88 28.2599 119.71 25.6298 122.47 25.1598Z" fill="#E59816"/>
<path d="M105.21 20.32C107.95 19.83 110.58 21.6698 111.06 24.4198C111.55 27.1698 109.71 29.79 106.96 30.28C104.21 30.76 101.59 28.9299 101.11 26.1799C100.63 23.4299 102.46 20.81 105.21 20.32Z" fill="#E59816"/>
<path d="M86.5503 15.87C89.3103 15.38 91.9302 17.2199 92.4102 19.9699C92.9002 22.7199 91.0603 25.34 88.3103 25.83C85.5603 26.32 82.9302 24.4799 82.4502 21.7299C81.9702 18.9699 83.8003 16.35 86.5503 15.87Z" fill="#E59816"/>
<path d="M70.4902 12.19C73.2802 11.94 75.7302 14.0001 75.9802 16.7801C76.2302 19.5601 74.1803 22.0101 71.3903 22.2701C68.6103 22.5201 66.1503 20.46 65.9003 17.68C65.6603 14.89 67.7102 12.43 70.4902 12.19Z" fill="#E59816"/>
<path d="M51.8602 6.82997C54.6402 6.57997 57.1002 8.62981 57.3402 11.4198C57.5902 14.1998 55.5402 16.6598 52.7502 16.8998C49.9702 17.1498 47.5102 15.09 47.2702 12.32C47.0202 9.52996 49.0802 7.07997 51.8602 6.82997Z" fill="#E59816"/>
<path d="M36.9501 2.12992C39.2301 3.74992 39.7502 6.89997 38.1402 9.17997C36.5202 11.45 33.3601 11.9902 31.0901 10.3702C28.8101 8.75015 28.2802 5.59011 29.9002 3.32011C31.5202 1.04011 34.6801 0.50992 36.9501 2.12992Z" fill="#E59816"/>
<path d="M129.45 11.04C132.2 10.55 134.82 12.3898 135.31 15.1398C135.79 17.8898 133.96 20.5099 131.21 20.9999C128.46 21.4899 125.84 19.6498 125.36 16.8998C124.86 14.1498 126.69 11.52 129.45 11.04Z" fill="#E59816"/>
<path d="M112.19 6.20988C114.94 5.71988 117.56 7.55998 118.05 10.31C118.54 13.06 116.7 15.6798 113.95 16.1598C111.2 16.6498 108.58 14.81 108.09 12.06C107.61 9.30998 109.44 6.68988 112.19 6.20988Z" fill="#E59816"/>
<path d="M93.5302 1.75002C96.2902 1.27002 98.9102 3.10012 99.4002 5.85012C99.8802 8.60012 98.0502 11.23 95.3002 11.71C92.5502 12.2 89.9201 10.3601 89.4401 7.61013C88.9501 4.86013 90.7802 2.24002 93.5302 1.75002Z" fill="#E59816"/>
<path d="M77.4802 -1.93004C80.2602 -2.17004 82.7202 -0.130197 82.9602 2.6598C83.2102 5.4398 81.1602 7.89978 78.3702 8.13978C75.5902 8.38978 73.1302 6.32994 72.8902 3.54994C72.6402 0.76994 74.7002 -1.68004 77.4802 -1.93004Z" fill="#E59816"/>
<path d="M58.8402 -7.29015C61.6202 -7.54015 64.0802 -5.49007 64.3202 -2.70007C64.5702 0.0799341 62.5102 2.53992 59.7302 2.77991C56.9402 3.02991 54.5002 0.969836 54.2502 -1.80016C54.0102 -4.58016 56.0602 -7.04015 58.8402 -7.29015Z" fill="#E59816"/>
</g>
</svg>
