<svg width="160" height="92" viewBox="0 0 160 92" fill="none" xmlns="http://www.w3.org/2000/svg">
<mask id="mask0_15_325" style="mask-type:luminance" maskUnits="userSpaceOnUse" x="0" y="0" width="160" height="92">
<path d="M159.36 21.49C138.32 16.78 6.48029 0 6.48029 0L0.000183105 13.22L136.01 91.76L159.36 21.49Z" fill="white"/>
</mask>
<g mask="url(#mask0_15_325)">
<path d="M19.4627 -15.1419L14.2704 -11.902L91.5522 111.947L96.7445 108.708L19.4627 -15.1419Z" fill="#0569AA"/>
<path d="M63.1302 121.84L-14.1398 -1.99976L-8.94977 -5.23975L68.3401 118.6L63.1302 121.84Z" fill="#0569AA"/>
<path d="M33.5964 -20.0212L28.3957 -16.776L105.677 107.073L110.878 103.828L33.5964 -20.0212Z" fill="#0569AA"/>
<path d="M77.2902 116.91L0.0202026 -6.9397L5.22015 -10.1797L82.5002 113.66L77.2902 116.91Z" fill="#0569AA"/>
<path d="M47.7723 -24.9778L42.5716 -21.7325L119.853 102.117L125.054 98.8716L47.7723 -24.9778Z" fill="#0569AA"/>
<path d="M76.1139 -34.8901L70.9047 -31.6395L148.187 92.2099L153.396 88.9594L76.1139 -34.8901Z" fill="#0569AA"/>
<path d="M61.9672 -29.976L56.758 -26.7255L134.04 97.124L139.249 93.8734L61.9672 -29.976Z" fill="#0569AA"/>
<path d="M90.0021 -39.8456L84.8021 -36.6003L162.084 87.2345L167.284 83.9892L90.0021 -39.8456Z" fill="#0569AA"/>
<path d="M176.43 82.3102L99.1602 -41.5199L104.35 -44.7699L181.64 79.0802L176.43 82.3102Z" fill="#0569AA"/>
<path d="M190.59 77.3799L113.32 -46.47L118.51 -49.72L195.8 74.1399L190.59 77.3799Z" fill="#0569AA"/>
</g>
</svg>
