<svg width="41" height="41" viewBox="0 0 41 41" fill="none" xmlns="http://www.w3.org/2000/svg">
<path d="M20.54 40.5701C31.4807 40.5701 40.35 31.7008 40.35 20.76C40.35 9.81925 31.4807 0.949951 20.54 0.949951C9.59922 0.949951 0.72998 9.81925 0.72998 20.76C0.72998 31.7008 9.59922 40.5701 20.54 40.5701Z" fill="#0569AA"/>
<path d="M23.99 34.8899C21.94 34.8899 20.92 33.8701 20.92 31.8201V28.01H15.15H11.78C11.06 28.01 10.48 27.7901 10.04 27.3401C9.59998 26.8901 9.37 26.3201 9.37 25.6001V24.3799C9.37 23.7099 9.52998 23.1499 9.84998 22.6799L18.1 8.77002C18.67 7.83002 19.49 7.36011 20.58 7.36011H24.65C25.36 7.36011 25.94 7.58003 26.39 8.03003C26.83 8.47003 27.06 9.05002 27.06 9.77002V23.02H27.65C29.3 23.02 30.13 23.85 30.13 25.5C30.13 27.18 29.3 28.02 27.65 28.02H27.06V31.8301C27.06 33.8701 26.04 34.8899 23.99 34.8899ZM15.67 23.02H20.92V18.99C20.92 18.05 20.96 17.0299 21.03 15.9199C21.05 15.4799 21.08 14.84 21.1 14C21.15 13.48 21.17 13.1099 21.17 12.8899H21.02C20.21 14.6899 19.47 16.2601 18.8 17.5901L15.67 23.02Z" fill="white"/>
</svg>
