<svg width="129" height="143" viewBox="0 0 129 143" fill="none" xmlns="http://www.w3.org/2000/svg">
<mask id="mask0_17_4972" style="mask-type:luminance" maskUnits="userSpaceOnUse" x="24" y="0" width="105" height="106">
<path d="M76.83 105.01C105.643 105.01 129 81.6528 129 52.8401C129 24.0274 105.643 0.669922 76.83 0.669922C48.0173 0.669922 24.66 24.0274 24.66 52.8401C24.66 81.6528 48.0173 105.01 76.83 105.01Z" fill="white"/>
</mask>
<g mask="url(#mask0_17_4972)">
<path d="M80.78 2.67993C82.1441 2.67993 83.25 1.5741 83.25 0.209961C83.25 -1.15418 82.1441 -2.26001 80.78 -2.26001C79.4159 -2.26001 78.31 -1.15418 78.31 0.209961C78.31 1.5741 79.4159 2.67993 80.78 2.67993Z" fill="#E59816"/>
<path d="M92.42 4.98999C93.7842 4.98999 94.89 3.88416 94.89 2.52002C94.89 1.15588 93.7842 0.0500488 92.42 0.0500488C91.0559 0.0500488 89.95 1.15588 89.95 2.52002C89.95 3.88416 91.0559 4.98999 92.42 4.98999Z" fill="#E59816"/>
<path d="M104.06 7.29004C105.424 7.29004 106.53 6.18421 106.53 4.82007C106.53 3.45592 105.424 2.3501 104.06 2.3501C102.696 2.3501 101.59 3.45592 101.59 4.82007C101.59 6.18421 102.696 7.29004 104.06 7.29004Z" fill="#E59816"/>
<path d="M115.69 9.59009C117.054 9.59009 118.16 8.48426 118.16 7.12012C118.16 5.75597 117.054 4.6499 115.69 4.6499C114.326 4.6499 113.22 5.75597 113.22 7.12012C113.22 8.48426 114.326 9.59009 115.69 9.59009Z" fill="#E59816"/>
<path d="M127.33 11.8899C128.694 11.8899 129.8 10.7841 129.8 9.41992C129.8 8.05578 128.694 6.94995 127.33 6.94995C125.966 6.94995 124.86 8.05578 124.86 9.41992C124.86 10.7841 125.966 11.8899 127.33 11.8899Z" fill="#E59816"/>
<path d="M31.86 5.42993C33.2242 5.42993 34.33 4.3241 34.33 2.95996C34.33 1.59582 33.2242 0.48999 31.86 0.48999C30.4959 0.48999 29.39 1.59582 29.39 2.95996C29.39 4.3241 30.4959 5.42993 31.86 5.42993Z" fill="#E59816"/>
<path d="M43.5 7.73999C44.8642 7.73999 45.97 6.63416 45.97 5.27002C45.97 3.90588 44.8642 2.80005 43.5 2.80005C42.1359 2.80005 41.03 3.90588 41.03 5.27002C41.03 6.63416 42.1359 7.73999 43.5 7.73999Z" fill="#E59816"/>
<path d="M55.14 10.04C56.5042 10.04 57.61 8.93421 57.61 7.57007C57.61 6.20592 56.5042 5.1001 55.14 5.1001C53.7759 5.1001 52.67 6.20592 52.67 7.57007C52.67 8.93421 53.7759 10.04 55.14 10.04Z" fill="#E59816"/>
<path d="M66.7701 12.3401C68.1342 12.3401 69.24 11.2343 69.24 9.87012C69.24 8.50597 68.1342 7.3999 66.7701 7.3999C65.4059 7.3999 64.3 8.50597 64.3 9.87012C64.3 11.2343 65.4059 12.3401 66.7701 12.3401Z" fill="#E59816"/>
<path d="M78.41 14.6399C79.7741 14.6399 80.88 13.5341 80.88 12.1699C80.88 10.8058 79.7741 9.69995 78.41 9.69995C77.0459 9.69995 75.94 10.8058 75.94 12.1699C75.94 13.5341 77.0459 14.6399 78.41 14.6399Z" fill="#E59816"/>
<path d="M90.05 16.9399C91.4142 16.9399 92.5201 15.8341 92.5201 14.47C92.5201 13.1058 91.4142 12 90.05 12C88.6859 12 87.58 13.1058 87.58 14.47C87.58 15.8341 88.6859 16.9399 90.05 16.9399Z" fill="#E59816"/>
<path d="M101.69 19.25C103.054 19.25 104.16 18.1442 104.16 16.78C104.16 15.4159 103.054 14.3101 101.69 14.3101C100.326 14.3101 99.22 15.4159 99.22 16.78C99.22 18.1442 100.326 19.25 101.69 19.25Z" fill="#E59816"/>
<path d="M113.33 21.55C114.694 21.55 115.8 20.4442 115.8 19.0801C115.8 17.7159 114.694 16.6101 113.33 16.6101C111.966 16.6101 110.86 17.7159 110.86 19.0801C110.86 20.4442 111.966 21.55 113.33 21.55Z" fill="#E59816"/>
<path d="M124.97 23.8501C126.334 23.8501 127.44 22.744 127.44 21.3799C127.44 20.0157 126.334 18.9099 124.97 18.9099C123.606 18.9099 122.5 20.0157 122.5 21.3799C122.5 22.744 123.606 23.8501 124.97 23.8501Z" fill="#E59816"/>
<path d="M29.49 17.3899C30.8542 17.3899 31.9601 16.2841 31.9601 14.9199C31.9601 13.5558 30.8542 12.45 29.49 12.45C28.1259 12.45 27.0201 13.5558 27.0201 14.9199C27.0201 16.2841 28.1259 17.3899 29.49 17.3899Z" fill="#E59816"/>
<path d="M41.13 19.6899C42.4942 19.6899 43.6 18.5841 43.6 17.22C43.6 15.8558 42.4942 14.75 41.13 14.75C39.7659 14.75 38.66 15.8558 38.66 17.22C38.66 18.5841 39.7659 19.6899 41.13 19.6899Z" fill="#E59816"/>
<path d="M52.7701 22C54.1342 22 55.24 20.8942 55.24 19.53C55.24 18.1659 54.1342 17.0601 52.7701 17.0601C51.4059 17.0601 50.3 18.1659 50.3 19.53C50.3 20.8942 51.4059 22 52.7701 22Z" fill="#E59816"/>
<path d="M64.41 24.3C65.7741 24.3 66.88 23.1942 66.88 21.8301C66.88 20.4659 65.7741 19.3601 64.41 19.3601C63.0459 19.3601 61.94 20.4659 61.94 21.8301C61.94 23.1942 63.0459 24.3 64.41 24.3Z" fill="#E59816"/>
<path d="M76.05 26.6001C77.4142 26.6001 78.5201 25.494 78.5201 24.1299C78.5201 22.7657 77.4142 21.6599 76.05 21.6599C74.6859 21.6599 73.58 22.7657 73.58 24.1299C73.58 25.494 74.6859 26.6001 76.05 26.6001Z" fill="#E59816"/>
<path d="M87.69 28.8999C89.0542 28.8999 90.16 27.7941 90.16 26.4299C90.16 25.0658 89.0542 23.96 87.69 23.96C86.3259 23.96 85.22 25.0658 85.22 26.4299C85.22 27.7941 86.3259 28.8999 87.69 28.8999Z" fill="#E59816"/>
<path d="M99.33 31.2C100.694 31.2 101.8 30.0941 101.8 28.73C101.8 27.3658 100.694 26.26 99.33 26.26C97.9659 26.26 96.86 27.3658 96.86 28.73C96.86 30.0941 97.9659 31.2 99.33 31.2Z" fill="#E59816"/>
<path d="M110.96 33.51C112.324 33.51 113.43 32.4042 113.43 31.04C113.43 29.6759 112.324 28.5701 110.96 28.5701C109.596 28.5701 108.49 29.6759 108.49 31.04C108.49 32.4042 109.596 33.51 110.96 33.51Z" fill="#E59816"/>
<path d="M122.6 35.8101C123.964 35.8101 125.07 34.7042 125.07 33.3401C125.07 31.9759 123.964 30.8701 122.6 30.8701C121.236 30.8701 120.13 31.9759 120.13 33.3401C120.13 34.7042 121.236 35.8101 122.6 35.8101Z" fill="#E59816"/>
<path d="M27.13 29.3501C28.4942 29.3501 29.6 28.244 29.6 26.8799C29.6 25.5157 28.4942 24.4099 27.13 24.4099C25.7659 24.4099 24.66 25.5157 24.66 26.8799C24.66 28.244 25.7659 29.3501 27.13 29.3501Z" fill="#E59816"/>
<path d="M38.7701 31.6499C40.1342 31.6499 41.24 30.5441 41.24 29.1799C41.24 27.8158 40.1342 26.71 38.7701 26.71C37.4059 26.71 36.3 27.8158 36.3 29.1799C36.3 30.5441 37.4059 31.6499 38.7701 31.6499Z" fill="#E59816"/>
<path d="M50.41 33.95C51.7741 33.95 52.88 32.8441 52.88 31.48C52.88 30.1158 51.7741 29.01 50.41 29.01C49.0459 29.01 47.94 30.1158 47.94 31.48C47.94 32.8441 49.0459 33.95 50.41 33.95Z" fill="#E59816"/>
<path d="M62.04 36.26C63.4042 36.26 64.51 35.1542 64.51 33.79C64.51 32.4259 63.4042 31.3201 62.04 31.3201C60.6759 31.3201 59.57 32.4259 59.57 33.79C59.57 35.1542 60.6759 36.26 62.04 36.26Z" fill="#E59816"/>
<path d="M73.68 38.5601C75.0442 38.5601 76.1501 37.4542 76.1501 36.0901C76.1501 34.7259 75.0442 33.6201 73.68 33.6201C72.3159 33.6201 71.2101 34.7259 71.2101 36.0901C71.2101 37.4542 72.3159 38.5601 73.68 38.5601Z" fill="#E59816"/>
<path d="M85.32 40.8601C86.6842 40.8601 87.79 39.754 87.79 38.3899C87.79 37.0257 86.6842 35.9199 85.32 35.9199C83.9559 35.9199 82.85 37.0257 82.85 38.3899C82.85 39.754 83.9559 40.8601 85.32 40.8601Z" fill="#E59816"/>
<path d="M96.9601 43.1599C98.3242 43.1599 99.43 42.0541 99.43 40.6899C99.43 39.3258 98.3242 38.22 96.9601 38.22C95.5959 38.22 94.49 39.3258 94.49 40.6899C94.49 42.0541 95.5959 43.1599 96.9601 43.1599Z" fill="#E59816"/>
<path d="M108.6 45.47C109.964 45.47 111.07 44.3641 111.07 43C111.07 41.6359 109.964 40.53 108.6 40.53C107.236 40.53 106.13 41.6359 106.13 43C106.13 44.3641 107.236 45.47 108.6 45.47Z" fill="#E59816"/>
<path d="M120.24 47.77C121.604 47.77 122.71 46.6642 122.71 45.3C122.71 43.9359 121.604 42.8301 120.24 42.8301C118.876 42.8301 117.77 43.9359 117.77 45.3C117.77 46.6642 118.876 47.77 120.24 47.77Z" fill="#E59816"/>
<path d="M24.76 41.3101C26.1242 41.3101 27.23 40.2042 27.23 38.8401C27.23 37.4759 26.1242 36.3701 24.76 36.3701C23.3959 36.3701 22.29 37.4759 22.29 38.8401C22.29 40.2042 23.3959 41.3101 24.76 41.3101Z" fill="#E59816"/>
<path d="M36.4001 43.6101C37.7642 43.6101 38.87 42.504 38.87 41.1399C38.87 39.7757 37.7642 38.6699 36.4001 38.6699C35.0359 38.6699 33.93 39.7757 33.93 41.1399C33.93 42.504 35.0359 43.6101 36.4001 43.6101Z" fill="#E59816"/>
<path d="M48.04 45.9099C49.4042 45.9099 50.51 44.8041 50.51 43.4399C50.51 42.0758 49.4042 40.97 48.04 40.97C46.6759 40.97 45.57 42.0758 45.57 43.4399C45.57 44.8041 46.6759 45.9099 48.04 45.9099Z" fill="#E59816"/>
<path d="M59.68 48.21C61.0442 48.21 62.1501 47.1041 62.1501 45.74C62.1501 44.3758 61.0442 43.27 59.68 43.27C58.3159 43.27 57.2101 44.3758 57.2101 45.74C57.2101 47.1041 58.3159 48.21 59.68 48.21Z" fill="#E59816"/>
<path d="M71.32 50.52C72.6842 50.52 73.79 49.4142 73.79 48.05C73.79 46.6859 72.6842 45.5801 71.32 45.5801C69.9559 45.5801 68.85 46.6859 68.85 48.05C68.85 49.4142 69.9559 50.52 71.32 50.52Z" fill="#E59816"/>
<path d="M82.9601 52.8201C84.3242 52.8201 85.43 51.7142 85.43 50.3501C85.43 48.986 84.3242 47.8799 82.9601 47.8799C81.5959 47.8799 80.49 48.986 80.49 50.3501C80.49 51.7142 81.5959 52.8201 82.9601 52.8201Z" fill="#E59816"/>
<path d="M94.5901 55.1201C95.9542 55.1201 97.06 54.014 97.06 52.6499C97.06 51.2858 95.9542 50.1799 94.5901 50.1799C93.2259 50.1799 92.12 51.2858 92.12 52.6499C92.12 54.014 93.2259 55.1201 94.5901 55.1201Z" fill="#E59816"/>
<path d="M106.23 57.4199C107.594 57.4199 108.7 56.3141 108.7 54.95C108.7 53.5858 107.594 52.48 106.23 52.48C104.866 52.48 103.76 53.5858 103.76 54.95C103.76 56.3141 104.866 57.4199 106.23 57.4199Z" fill="#E59816"/>
<path d="M117.87 59.73C119.234 59.73 120.34 58.6242 120.34 57.26C120.34 55.8959 119.234 54.79 117.87 54.79C116.506 54.79 115.4 55.8959 115.4 57.26C115.4 58.6242 116.506 59.73 117.87 59.73Z" fill="#E59816"/>
<path d="M129.51 62.03C130.874 62.03 131.98 60.9242 131.98 59.5601C131.98 58.1959 130.874 57.0901 129.51 57.0901C128.146 57.0901 127.04 58.1959 127.04 59.5601C127.04 60.9242 128.146 62.03 129.51 62.03Z" fill="#E59816"/>
<path d="M22.4001 53.27C23.7642 53.27 24.87 52.1642 24.87 50.8C24.87 49.4359 23.7642 48.3301 22.4001 48.3301C21.0359 48.3301 19.93 49.4359 19.93 50.8C19.93 52.1642 21.0359 53.27 22.4001 53.27Z" fill="#E59816"/>
<path d="M34.04 55.5701C35.4042 55.5701 36.51 54.4642 36.51 53.1001C36.51 51.736 35.4042 50.6299 34.04 50.6299C32.6759 50.6299 31.57 51.736 31.57 53.1001C31.57 54.4642 32.6759 55.5701 34.04 55.5701Z" fill="#E59816"/>
<path d="M45.68 57.8701C47.0442 57.8701 48.1501 56.764 48.1501 55.3999C48.1501 54.0358 47.0442 52.9299 45.68 52.9299C44.3159 52.9299 43.2101 54.0358 43.2101 55.3999C43.2101 56.764 44.3159 57.8701 45.68 57.8701Z" fill="#E59816"/>
<path d="M57.31 60.1699C58.6742 60.1699 59.78 59.0641 59.78 57.7C59.78 56.3358 58.6742 55.23 57.31 55.23C55.9459 55.23 54.8401 56.3358 54.8401 57.7C54.8401 59.0641 55.9459 60.1699 57.31 60.1699Z" fill="#E59816"/>
<path d="M68.95 62.48C70.3142 62.48 71.42 61.3742 71.42 60.01C71.42 58.6459 70.3142 57.54 68.95 57.54C67.5859 57.54 66.48 58.6459 66.48 60.01C66.48 61.3742 67.5859 62.48 68.95 62.48Z" fill="#E59816"/>
<path d="M80.5901 64.78C81.9542 64.78 83.06 63.6742 83.06 62.3101C83.06 60.9459 81.9542 59.8401 80.5901 59.8401C79.2259 59.8401 78.12 60.9459 78.12 62.3101C78.12 63.6742 79.2259 64.78 80.5901 64.78Z" fill="#E59816"/>
<path d="M92.23 67.0801C93.5942 67.0801 94.7 65.9743 94.7 64.6101C94.7 63.246 93.5942 62.1399 92.23 62.1399C90.8659 62.1399 89.76 63.246 89.76 64.6101C89.76 65.9743 90.8659 67.0801 92.23 67.0801Z" fill="#E59816"/>
<path d="M103.87 69.3799C105.234 69.3799 106.34 68.2741 106.34 66.9099C106.34 65.5458 105.234 64.4399 103.87 64.4399C102.506 64.4399 101.4 65.5458 101.4 66.9099C101.4 68.2741 102.506 69.3799 103.87 69.3799Z" fill="#E59816"/>
<path d="M115.51 71.6799C116.874 71.6799 117.98 70.5741 117.98 69.21C117.98 67.8458 116.874 66.74 115.51 66.74C114.146 66.74 113.04 67.8458 113.04 69.21C113.04 70.5741 114.146 71.6799 115.51 71.6799Z" fill="#E59816"/>
<path d="M127.15 73.99C128.514 73.99 129.62 72.8842 129.62 71.52C129.62 70.1559 128.514 69.05 127.15 69.05C125.786 69.05 124.68 70.1559 124.68 71.52C124.68 72.8842 125.786 73.99 127.15 73.99Z" fill="#E59816"/>
<path d="M31.67 67.53C33.0342 67.53 34.14 66.4242 34.14 65.0601C34.14 63.6959 33.0342 62.5901 31.67 62.5901C30.3059 62.5901 29.2 63.6959 29.2 65.0601C29.2 66.4242 30.3059 67.53 31.67 67.53Z" fill="#E59816"/>
<path d="M43.31 69.8301C44.6742 69.8301 45.78 68.7243 45.78 67.3601C45.78 65.996 44.6742 64.8899 43.31 64.8899C41.9459 64.8899 40.8401 65.996 40.8401 67.3601C40.8401 68.7243 41.9459 69.8301 43.31 69.8301Z" fill="#E59816"/>
<path d="M54.95 72.1299C56.3142 72.1299 57.42 71.0241 57.42 69.6599C57.42 68.2958 56.3142 67.1899 54.95 67.1899C53.5859 67.1899 52.48 68.2958 52.48 69.6599C52.48 71.0241 53.5859 72.1299 54.95 72.1299Z" fill="#E59816"/>
<path d="M66.5901 74.4299C67.9542 74.4299 69.06 73.3241 69.06 71.96C69.06 70.5958 67.9542 69.49 66.5901 69.49C65.2259 69.49 64.12 70.5958 64.12 71.96C64.12 73.3241 65.2259 74.4299 66.5901 74.4299Z" fill="#E59816"/>
<path d="M78.23 76.74C79.5942 76.74 80.7 75.6342 80.7 74.27C80.7 72.9059 79.5942 71.8 78.23 71.8C76.8659 71.8 75.76 72.9059 75.76 74.27C75.76 75.6342 76.8659 76.74 78.23 76.74Z" fill="#E59816"/>
<path d="M89.86 79.04C91.2242 79.04 92.33 77.9342 92.33 76.5701C92.33 75.2059 91.2242 74.1001 89.86 74.1001C88.4959 74.1001 87.39 75.2059 87.39 76.5701C87.39 77.9342 88.4959 79.04 89.86 79.04Z" fill="#E59816"/>
<path d="M101.5 81.3401C102.864 81.3401 103.97 80.2343 103.97 78.8701C103.97 77.506 102.864 76.3999 101.5 76.3999C100.136 76.3999 99.03 77.506 99.03 78.8701C99.03 80.2343 100.136 81.3401 101.5 81.3401Z" fill="#E59816"/>
<path d="M113.14 83.6399C114.504 83.6399 115.61 82.5341 115.61 81.1699C115.61 79.8058 114.504 78.7 113.14 78.7C111.776 78.7 110.67 79.8058 110.67 81.1699C110.67 82.5341 111.776 83.6399 113.14 83.6399Z" fill="#E59816"/>
<path d="M124.78 85.9399C126.144 85.9399 127.25 84.8341 127.25 83.47C127.25 82.1058 126.144 81 124.78 81C123.416 81 122.31 82.1058 122.31 83.47C122.31 84.8341 123.416 85.9399 124.78 85.9399Z" fill="#E59816"/>
<path d="M29.31 79.49C30.6742 79.49 31.78 78.3842 31.78 77.02C31.78 75.6559 30.6742 74.55 29.31 74.55C27.9459 74.55 26.8401 75.6559 26.8401 77.02C26.8401 78.3842 27.9459 79.49 29.31 79.49Z" fill="#E59816"/>
<path d="M40.94 81.79C42.3042 81.79 43.41 80.6842 43.41 79.3201C43.41 77.9559 42.3042 76.8501 40.94 76.8501C39.5759 76.8501 38.47 77.9559 38.47 79.3201C38.47 80.6842 39.5759 81.79 40.94 81.79Z" fill="#E59816"/>
<path d="M52.58 84.0901C53.9442 84.0901 55.05 82.9843 55.05 81.6201C55.05 80.256 53.9442 79.1499 52.58 79.1499C51.2159 79.1499 50.11 80.256 50.11 81.6201C50.11 82.9843 51.2159 84.0901 52.58 84.0901Z" fill="#E59816"/>
<path d="M64.22 86.3899C65.5841 86.3899 66.69 85.2841 66.69 83.9199C66.69 82.5558 65.5841 81.45 64.22 81.45C62.8559 81.45 61.75 82.5558 61.75 83.9199C61.75 85.2841 62.8559 86.3899 64.22 86.3899Z" fill="#E59816"/>
<path d="M75.86 88.6899C77.2242 88.6899 78.33 87.5841 78.33 86.22C78.33 84.8558 77.2242 83.75 75.86 83.75C74.4959 83.75 73.39 84.8558 73.39 86.22C73.39 87.5841 74.4959 88.6899 75.86 88.6899Z" fill="#E59816"/>
<path d="M87.5 91C88.8642 91 89.97 89.8942 89.97 88.53C89.97 87.1659 88.8642 86.0601 87.5 86.0601C86.1359 86.0601 85.03 87.1659 85.03 88.53C85.03 89.8942 86.1359 91 87.5 91Z" fill="#E59816"/>
<path d="M99.14 93.3C100.504 93.3 101.61 92.1942 101.61 90.8301C101.61 89.4659 100.504 88.3601 99.14 88.3601C97.7759 88.3601 96.67 89.4659 96.67 90.8301C96.67 92.1942 97.7759 93.3 99.14 93.3Z" fill="#E59816"/>
<path d="M110.78 95.6001C112.144 95.6001 113.25 94.494 113.25 93.1299C113.25 91.7657 112.144 90.6599 110.78 90.6599C109.416 90.6599 108.31 91.7657 108.31 93.1299C108.31 94.494 109.416 95.6001 110.78 95.6001Z" fill="#E59816"/>
<path d="M122.41 97.8999C123.774 97.8999 124.88 96.7941 124.88 95.4299C124.88 94.0658 123.774 92.96 122.41 92.96C121.046 92.96 119.94 94.0658 119.94 95.4299C119.94 96.7941 121.046 97.8999 122.41 97.8999Z" fill="#E59816"/>
<path d="M26.94 91.4399C28.3042 91.4399 29.41 90.3341 29.41 88.97C29.41 87.6058 28.3042 86.5 26.94 86.5C25.5759 86.5 24.47 87.6058 24.47 88.97C24.47 90.3341 25.5759 91.4399 26.94 91.4399Z" fill="#E59816"/>
<path d="M38.58 93.75C39.9442 93.75 41.05 92.6442 41.05 91.28C41.05 89.9159 39.9442 88.8101 38.58 88.8101C37.2159 88.8101 36.11 89.9159 36.11 91.28C36.11 92.6442 37.2159 93.75 38.58 93.75Z" fill="#E59816"/>
<path d="M50.22 96.05C51.5841 96.05 52.69 94.9442 52.69 93.5801C52.69 92.2159 51.5841 91.1101 50.22 91.1101C48.8559 91.1101 47.75 92.2159 47.75 93.5801C47.75 94.9442 48.8559 96.05 50.22 96.05Z" fill="#E59816"/>
<path d="M61.86 98.3501C63.2242 98.3501 64.33 97.244 64.33 95.8799C64.33 94.5157 63.2242 93.4099 61.86 93.4099C60.4959 93.4099 59.39 94.5157 59.39 95.8799C59.39 97.244 60.4959 98.3501 61.86 98.3501Z" fill="#E59816"/>
<path d="M73.49 100.65C74.8542 100.65 75.9601 99.5441 75.9601 98.1799C75.9601 96.8158 74.8542 95.71 73.49 95.71C72.1259 95.71 71.0201 96.8158 71.0201 98.1799C71.0201 99.5441 72.1259 100.65 73.49 100.65Z" fill="#E59816"/>
<path d="M85.13 102.95C86.4942 102.95 87.6 101.844 87.6 100.48C87.6 99.1158 86.4942 98.01 85.13 98.01C83.7659 98.01 82.66 99.1158 82.66 100.48C82.66 101.844 83.7659 102.95 85.13 102.95Z" fill="#E59816"/>
<path d="M96.7701 105.26C98.1342 105.26 99.24 104.154 99.24 102.79C99.24 101.426 98.1342 100.32 96.7701 100.32C95.4059 100.32 94.3 101.426 94.3 102.79C94.3 104.154 95.4059 105.26 96.7701 105.26Z" fill="#E59816"/>
<path d="M108.41 107.56C109.774 107.56 110.88 106.454 110.88 105.09C110.88 103.726 109.774 102.62 108.41 102.62C107.046 102.62 105.94 103.726 105.94 105.09C105.94 106.454 107.046 107.56 108.41 107.56Z" fill="#E59816"/>
<path d="M120.05 109.86C121.414 109.86 122.52 108.754 122.52 107.39C122.52 106.026 121.414 104.92 120.05 104.92C118.686 104.92 117.58 106.026 117.58 107.39C117.58 108.754 118.686 109.86 120.05 109.86Z" fill="#E59816"/>
<path d="M24.58 103.4C25.9442 103.4 27.05 102.294 27.05 100.93C27.05 99.5658 25.9442 98.46 24.58 98.46C23.2159 98.46 22.11 99.5658 22.11 100.93C22.11 102.294 23.2159 103.4 24.58 103.4Z" fill="#E59816"/>
<path d="M36.2101 105.7C37.5742 105.7 38.68 104.594 38.68 103.23C38.68 101.866 37.5742 100.76 36.2101 100.76C34.8459 100.76 33.74 101.866 33.74 103.23C33.74 104.594 34.8459 105.7 36.2101 105.7Z" fill="#E59816"/>
<path d="M47.85 108.01C49.2141 108.01 50.32 106.904 50.32 105.54C50.32 104.176 49.2141 103.07 47.85 103.07C46.4859 103.07 45.38 104.176 45.38 105.54C45.38 106.904 46.4859 108.01 47.85 108.01Z" fill="#E59816"/>
</g>
<path d="M112.76 122.46C112.76 127.44 108.72 131.48 103.74 131.48H9.22998C4.21998 131.48 0.150024 127.42 0.150024 122.4V61.2599C0.150024 60.2199 0.66002 59.2398 1.52002 58.6398L54.63 21.7299C55.72 20.9699 57.18 20.9699 58.27 21.7299L111.38 58.6398C112.24 59.2398 112.75 60.2199 112.75 61.2599V122.46H112.76Z" fill="white"/>
<path d="M56.46 96.8701C56.96 96.8701 57.4599 96.75 57.91 96.52L99.04 75.46C100.61 74.66 101.23 72.7299 100.43 71.1699C99.63 69.5999 97.71 68.98 96.14 69.78L85.06 75.45C85.04 75.46 85.01 75.4499 85.01 75.4199V70.3799C85.01 65.2999 80.89 61.1799 75.81 61.1799H36.27C31.19 61.1799 27.07 65.2999 27.07 70.3799V75C27.07 75.02 27.05 75.04 27.02 75.03L16.77 69.78C15.2 68.98 13.28 69.5999 12.48 71.1699C11.68 72.7399 12.3 74.66 13.87 75.46L55 96.52C55.46 96.75 55.96 96.8701 56.46 96.8701ZM33.46 70.3799C33.46 68.8199 34.7199 67.5601 36.2799 67.5601H75.82C77.38 67.5601 78.64 68.8199 78.64 70.3799V78.72C78.64 78.73 78.63 78.74 78.62 78.75L56.48 90.0801C56.47 90.0801 56.46 90.0801 56.45 90.0801L33.48 78.3201C33.47 78.3101 33.46 78.3 33.46 78.29V70.3799Z" fill="#0569AA"/>
<path d="M111.53 114.37C112.27 113.79 112.76 112.89 112.76 111.87V61.27C112.76 60.2299 112.25 59.2498 111.39 58.6498L58.28 21.7399C57.19 20.9799 55.73 20.9799 54.64 21.7399L1.52997 58.6498C0.669968 59.2498 0.159973 60.2299 0.159973 61.27V122.28C0.159973 127.36 4.27999 131.48 9.35999 131.48H68.68C70.42 131.48 72 130.17 72.08 128.43C72.16 126.6 70.7 125.1 68.89 125.1H9.35999C7.79999 125.1 6.53998 123.84 6.53998 122.28V62.9499C6.53998 62.9399 6.54999 62.9299 6.54999 62.9199L56.44 28.2499C56.45 28.2399 56.46 28.2399 56.48 28.2499L106.37 62.9199C106.38 62.9299 106.38 62.9399 106.38 62.9499V111.87C106.38 113.11 107.1 114.18 108.14 114.7" fill="#0569AA"/>
<path d="M12.43 122.24H37.96C37.99 122.24 38 122.21 37.98 122.19L9.45001 93.6598C9.43001 93.6398 9.40002 93.6498 9.40002 93.6798V119.21C9.40002 120.88 10.76 122.24 12.43 122.24Z" fill="#E59816"/>
<path d="M109.57 82.0801V122.32C109.57 125.63 106.89 128.32 103.57 128.32H64.99" stroke="#0569AA" stroke-width="6.4" stroke-miterlimit="10" stroke-linecap="round" stroke-linejoin="round"/>
<path d="M107.1 139.14C117.124 139.14 125.25 131.014 125.25 120.99C125.25 110.966 117.124 102.84 107.1 102.84C97.076 102.84 88.95 110.966 88.95 120.99C88.95 131.014 97.076 139.14 107.1 139.14Z" fill="white" stroke="#0569AA" stroke-width="6.4" stroke-miterlimit="10" stroke-linecap="round" stroke-linejoin="round"/>
<path d="M110.76 129.35C110.76 130.27 110.41 131.03 109.7 131.64C108.98 132.25 108.15 132.56 107.21 132.56C106.27 132.56 105.46 132.26 104.78 131.64C104.07 131.03 103.72 130.27 103.72 129.35C103.72 128.42 104.07 127.65 104.78 127.06C105.47 126.47 106.28 126.17 107.21 126.17C108.14 126.17 108.97 126.47 109.7 127.06C110.41 127.67 110.76 128.43 110.76 129.35ZM110.45 113.64C110.45 113.77 110.44 114.08 110.42 114.56L109.82 122.28C109.72 123.67 108.83 124.37 107.13 124.37C105.57 124.37 104.74 123.67 104.64 122.28L104.1 114.56C104.06 114.05 104.04 113.72 104.04 113.59C104.04 112.67 104.34 111.95 104.96 111.42C105.57 110.89 106.34 110.62 107.28 110.62C108.2 110.62 108.95 110.9 109.54 111.45C110.14 112.01 110.45 112.75 110.45 113.64Z" fill="#0569AA"/>
</svg>
