<svg width="725" height="92" viewBox="0 0 725 92" fill="none" xmlns="http://www.w3.org/2000/svg">
<path d="M47.5196 32.5594V34.1524L57.3459 43.9787H58.9293L47.5196 32.5594Z" fill="#E59816"/>
<path d="M39.5837 31.5519H39.6797C40.1787 31.5519 40.6105 31.4944 41.0231 31.408L32.0604 22.4453H30.4674L39.5741 31.5519H39.5837Z" fill="#E59816"/>
<path d="M47.5196 27.2336V28.8266L62.6717 43.9787H64.2647L47.5196 27.2336Z" fill="#E59816"/>
<path d="M20.4492 7.08191L29.4502 16.083H31.0336L22.0325 7.08191H20.4492Z" fill="#E59816"/>
<path d="M41.3494 22.6565L43.9787 25.2858C43.614 23.8944 42.7408 23.0211 41.3494 22.6565Z" fill="#E59816"/>
<path d="M47.5196 16.582V18.1654L58.1904 28.8362V27.2432L47.5196 16.582Z" fill="#E59816"/>
<path d="M39.6892 15.6704C40.0634 15.5168 40.3897 15.3153 40.668 15.0658L32.6841 7.08191H31.0912L39.6797 15.6704H39.6892Z" fill="#E59816"/>
<path d="M43.3645 29.9974C43.5852 29.6903 43.7772 29.3545 43.9115 28.9514L37.4054 22.4453H35.8124L43.3645 29.9974Z" fill="#E59816"/>
<path d="M34.776 16.083H36.369L27.3583 7.08191H25.7749L34.776 16.083Z" fill="#E59816"/>
<path d="M47.5292 37.9044C47.5484 38.5857 47.654 39.2095 47.8267 39.7948L51.7035 43.6716C52.2888 43.854 52.9126 43.9499 53.5939 43.9691L47.5292 37.9044Z" fill="#E59816"/>
<path d="M16.937 46.1955C17.2345 45.9556 17.5128 45.7157 17.8006 45.4662L10.6516 38.3171C10.3734 38.5666 10.0951 38.8065 9.79758 39.056L16.9466 46.2051L16.937 46.1955Z" fill="#E59816"/>
<path d="M19.7487 43.6813C20.0173 43.4126 20.2764 43.144 20.5355 42.8753L13.2905 35.6302C13.0506 35.9181 12.8011 36.1964 12.542 36.4747L19.7487 43.6813Z" fill="#E59816"/>
<path d="M31.2831 58.9582L22.1861 49.8516H20.5931L29.6998 58.9582H31.2831Z" fill="#E59816"/>
<path d="M24.8538 59.4381C25.1417 59.1982 25.5255 59.0446 25.9957 58.9871L17.1194 50.1107C16.7163 50.2259 16.3325 50.3698 15.9774 50.5521L24.8538 59.4285V59.4381Z" fill="#E59816"/>
<path d="M35.0255 58.9582H36.6089L27.5118 49.8516H25.9189L35.0255 58.9582Z" fill="#E59816"/>
<path d="M12.7723 56.4248V58.0082L27.6078 72.8532H29.2007L12.7723 56.4248Z" fill="#E59816"/>
<path d="M22.2916 40.8985C22.5315 40.601 22.7618 40.3131 22.9921 40.0157L15.4784 32.502C15.2865 32.8378 15.085 33.1641 14.8738 33.4903L22.2916 40.9081V40.8985Z" fill="#E59816"/>
<path d="M32.8377 49.8516H31.2543L40.3513 58.9582H41.9443L32.8377 49.8516Z" fill="#E59816"/>
<path d="M36.7624 64.4375H35.1791L43.5948 72.8532H44.0938H45.1878L36.7624 64.4375Z" fill="#E59816"/>
<path d="M18.5395 5.17239C18.6451 4.61582 18.6451 4.10723 18.5971 3.63702L15.3921 0.431946C15.1426 0.355178 14.9122 0.278408 14.6339 0.220832C14.2117 0.124872 13.8087 0.0672878 13.4248 0.0480957L18.5491 5.17239H18.5395Z" fill="#E59816"/>
<path d="M17.4552 87.7463L12.9547 83.2457C13.2041 84.3877 13.732 85.3664 14.538 86.1629C15.3441 86.969 16.3133 87.4872 17.4552 87.7463Z" fill="#E59816"/>
<path d="M12.7723 77.7375V79.3209L21.3704 87.9285H22.9633L12.7723 77.7375Z" fill="#E59816"/>
<path d="M61.6162 78.6301H60.0232L69.3218 87.9287H69.6384C70.0511 87.9287 70.4445 87.8999 70.8283 87.8423L61.6162 78.6301Z" fill="#E59816"/>
<path d="M7.82083 51.4732L1.91924 45.5717C1.74651 46.0227 1.67935 46.4833 1.69855 46.9343L6.28542 51.5212C6.77482 51.5692 7.28345 51.5596 7.82083 51.4636V51.4732Z" fill="#E59816"/>
<path d="M12.7723 72.4023V73.9953L26.7058 87.9287H28.2891L12.7723 72.4023Z" fill="#E59816"/>
<path d="M72.8723 25.9479V27.5408L84.2245 38.8929C84.2916 38.4899 84.3204 38.0677 84.3204 37.6263V37.4056L72.8723 25.9575V25.9479Z" fill="#E59816"/>
<path d="M72.8723 31.2736V31.3504C72.8723 31.8494 72.7859 32.2716 72.6228 32.6075L82.3916 42.3762C82.4491 42.3187 82.5068 42.2707 82.5643 42.2131C82.7755 42.002 82.9674 41.7717 83.1401 41.5318L72.8723 31.264V31.2736Z" fill="#E59816"/>
<path d="M64.1591 75.8376V76.2791C64.1591 76.6629 64.1112 76.9988 64.0152 77.2866L73.5057 86.7771C73.7648 86.5948 74.0142 86.3933 74.2349 86.163C74.2733 86.1246 74.3117 86.0766 74.3501 86.0382L64.1591 75.8376Z" fill="#E59816"/>
<path d="M69.6385 49.8516H68.5445L76.0006 57.3077V56.2137C76.0006 56.041 75.991 55.8683 75.9814 55.6955L70.1566 49.8708C69.9839 49.8612 69.8208 49.8516 69.6385 49.8516Z" fill="#E59816"/>
<path d="M62.4894 17.1578H64.0824L53.805 6.88049C53.2964 6.88049 52.8166 6.93806 52.356 7.02443L62.4894 17.1578Z" fill="#E59816"/>
<path d="M58.3823 18.3766C58.5359 17.9927 58.7662 17.7049 59.0924 17.5033L49.7843 8.19519C49.6115 8.33913 49.4388 8.48307 49.2757 8.64621C49.1702 8.75176 49.0742 8.86691 48.9782 8.97247L58.3823 18.3766Z" fill="#E59816"/>
<path d="M41.8771 12.5229C41.9155 12.2254 41.9443 11.9183 41.9443 11.5825C41.9443 11.3617 41.9155 11.1602 41.9059 10.9587L38.0675 7.1203C37.866 7.10111 37.6645 7.08191 37.4438 7.08191H36.4362L41.8867 12.5325L41.8771 12.5229Z" fill="#E59816"/>
<path d="M58.1904 23.5104V21.9175L47.7307 11.4578C47.6251 11.8992 47.558 12.3598 47.5388 12.8588L58.1904 23.5104Z" fill="#E59816"/>
<path d="M59.1308 6.88049H57.5475L67.8248 17.1578H69.4082L59.1308 6.88049Z" fill="#E59816"/>
<path d="M24.1245 64.0346V62.4416L13.9622 52.2794C13.7319 52.5961 13.5304 52.9223 13.3673 53.2774L24.1245 64.0346Z" fill="#E59816"/>
<path d="M34.2579 31.5519H35.8508L8.22381 3.92493C8.22381 3.92493 8.18543 4.0017 8.17584 4.04968C8.04149 4.38554 7.89756 4.7214 7.76321 5.04766L34.2675 31.5519H34.2579Z" fill="#E59816"/>
<path d="M29.3927 21.3513C29.3927 21.0826 29.4119 20.8043 29.4119 20.4876V19.7871L10.4021 0.777344C10.0951 0.978861 9.81677 1.22836 9.55768 1.51624L29.4023 21.3608L29.3927 21.3513Z" fill="#E59816"/>
<path d="M7.61927 31.5518H9.21224L1.17076 23.5104C0.892473 23.7695 0.671752 24.0765 0.499023 24.422L7.62887 31.5518H7.61927Z" fill="#E59816"/>
<path d="M12.7723 67.0764V68.6694L32.0316 87.9286H33.6149L12.7723 67.0764Z" fill="#E59816"/>
<path d="M56.2904 78.6301H54.6974L63.996 87.9287H65.589L56.2904 78.6301Z" fill="#E59816"/>
<path d="M58.0752 64.4375H56.4823L75.7032 83.6584C75.8279 83.2361 75.9143 82.7947 75.9527 82.3245L58.0656 64.4375H58.0752Z" fill="#E59816"/>
<path d="M63.4106 64.4375H61.8177L76.0006 78.6204V77.0275L63.4106 64.4375Z" fill="#E59816"/>
<path d="M54.1504 49.8516H52.5575L61.6642 58.9582H61.8081C63.3723 58.9582 64.1591 59.7451 64.1591 61.3092V61.4532L76.0006 73.2947V71.7017L54.1504 49.8516Z" fill="#E59816"/>
<path d="M40.3034 78.6301H38.7201L48.0186 87.9287H49.6019L40.3034 78.6301Z" fill="#E59816"/>
<path d="M34.9776 78.6301H33.3846L42.6831 87.9287H44.2761L34.9776 78.6301Z" fill="#E59816"/>
<path d="M50.955 78.6301H49.3716L58.6702 87.9287H60.2536L50.955 78.6301Z" fill="#E59816"/>
<path d="M59.4762 49.8516H57.8929L76.0006 67.9593V66.3759L59.4762 49.8516Z" fill="#E59816"/>
<path d="M45.6291 78.6301H44.0458L53.3444 87.9287H54.9277L45.6291 78.6301Z" fill="#E59816"/>
<path d="M64.4566 6.88049H62.8733L84.3204 28.3276V26.7443L64.4566 6.88049Z" fill="#E59816"/>
<path d="M75.1178 6.88049H73.5248L84.3204 17.676V16.0831L75.1178 6.88049Z" fill="#E59816"/>
<path d="M29.6518 78.6301H28.0588L37.3574 87.9287H38.9503L29.6518 78.6301Z" fill="#E59816"/>
<path d="M64.8021 49.8516H63.2187L76.0006 62.6335V61.0405L64.8021 49.8516Z" fill="#E59816"/>
<path d="M81.2017 7.63855C80.5204 7.2739 79.7623 7.04359 78.9178 6.94763L84.2628 12.2926C84.1669 11.4482 83.9366 10.6901 83.5719 10.0088L81.2017 7.63855Z" fill="#E59816"/>
<path d="M69.792 6.88049H68.1991L84.3204 23.0018V21.4089L69.792 6.88049Z" fill="#E59816"/>
<path d="M64.6389 33.7014H63.0556L73.3329 43.9788H74.9163L64.6389 33.7014Z" fill="#E59816"/>
<path d="M47.5196 21.908V23.4913L67.9975 43.9789H69.5905L47.5196 21.908Z" fill="#E59816"/>
<path d="M69.9647 33.7015H68.3718L78.6203 43.95C79.1001 43.9117 79.5416 43.8349 79.9734 43.7101L69.9551 33.6919L69.9647 33.7015Z" fill="#E59816"/>
<path d="M72.8723 20.6124V22.2054L84.3204 33.6534V32.0701L72.8723 20.6124Z" fill="#E59816"/>
<path d="M28.9321 31.5519H30.525L18.4532 19.4801V20.2958C18.4532 20.5741 18.4532 20.8235 18.4436 21.0539L28.9417 31.5519H28.9321Z" fill="#E59816"/>
<path d="M36.5801 49.8516L45.6772 58.9582H47.2701L38.1634 49.8516H36.5801Z" fill="#E59816"/>
<path d="M26.1108 64.4375H24.5275L32.9432 72.8532H34.5265L26.1108 64.4375Z" fill="#E59816"/>
<path d="M38.3362 46.2818C38.6433 46.0995 38.9599 45.8884 39.2766 45.6389L16.0926 22.4548H14.4996L38.3362 46.2914V46.2818Z" fill="#E59816"/>
<path d="M43.4989 49.8516H41.9059L51.0126 58.9582H52.5959L43.4989 49.8516Z" fill="#E59816"/>
<path d="M48.8247 49.8516H47.2318L56.3384 58.9582H57.9217L48.8247 49.8516Z" fill="#E59816"/>
<path d="M24.1244 74.6958V73.1028L12.7723 61.7507V63.3341L24.1244 74.6958Z" fill="#E59816"/>
<path d="M52.7495 64.4375H51.1661L59.5819 72.8532H61.1652L52.7495 64.4375Z" fill="#E59816"/>
<path d="M31.4366 64.4375H29.8532L38.269 72.8532H39.8524L31.4366 64.4375Z" fill="#E59816"/>
<path d="M47.4236 64.4375H45.8307L54.256 72.8532H55.8394L47.4236 64.4375Z" fill="#E59816"/>
<path d="M42.0978 64.4375H40.5049L48.9206 72.8532H50.5136L42.0978 64.4375Z" fill="#E59816"/>
<path d="M29.8437 32.4635L41.1958 43.8156C41.4645 43.4989 41.7044 43.2015 41.8867 42.9232L33.519 34.5554C32.2331 33.8261 31.0048 33.1352 29.8437 32.4731V32.4635Z" fill="#E59816"/>
<path d="M13.8759 48.4601C14.1926 48.249 14.5092 48.0283 14.8163 47.8076L7.63847 40.6298C7.38897 40.8025 7.15865 40.9752 6.89955 41.1383C6.82279 41.1767 6.75563 41.2151 6.67886 41.2535L13.8855 48.4601H13.8759Z" fill="#E59816"/>
<path d="M10.5845 50.5042C10.7572 50.4178 10.9299 50.3411 11.1026 50.2451C11.2753 50.1395 11.4289 50.034 11.6016 49.9284L4.34703 42.6738C4.03036 42.9137 3.73285 43.144 3.47375 43.3935L10.5748 50.4946L10.5845 50.5042Z" fill="#E59816"/>
<path d="M14.538 31.5519L5.43139 22.4453H4.45258C4.25106 22.4453 4.06871 22.4741 3.88638 22.4837L12.9547 31.5519H14.5476H14.538Z" fill="#E59816"/>
<path d="M1.40104 30.6595C2.01519 31.1393 2.83083 31.4272 3.83842 31.5039L0 27.6655C0.0863644 28.6827 0.374269 29.4984 0.863667 30.1125L1.41065 30.6595H1.40104Z" fill="#E59816"/>
<path d="M11.4289 19.3745C11.64 19.0771 11.8607 18.7508 12.0718 18.4341L4.7117 11.074C4.51019 11.4002 4.30866 11.7361 4.10715 12.0528L11.4289 19.3745Z" fill="#E59816"/>
<path d="M2.29346 19.9983C2.82124 20.3054 3.3874 20.6412 3.96316 20.9771L0.719696 17.7336C0.719696 17.82 0.719696 17.9064 0.719696 17.9927C0.854041 18.8756 1.37223 19.5473 2.28386 19.9983H2.29346Z" fill="#E59816"/>
<path d="M13.5209 16.1407C13.5209 16.1407 13.54 16.1023 13.5496 16.0831H15.0466L6.58289 7.61938C6.41016 7.97444 6.23744 8.3295 6.05511 8.67496L13.5209 16.1407Z" fill="#E59816"/>
<path d="M30.1124 43.3839C31.168 44.1707 32.1084 44.8904 32.9336 45.543C33.6917 46.1571 34.4114 46.541 35.0831 46.7617L10.7668 22.4453H10.7188C9.79755 22.4453 9.5193 22.1382 9.85517 21.5337L2.58135 14.2599C2.35105 14.567 2.12076 14.8548 1.88086 15.1523L30.1124 43.3839Z" fill="#E59816"/>
<path d="M160.705 62.7677H159.592C159.409 62.7677 159.237 62.7582 159.083 62.7294L167.537 71.1835H169.13L160.714 62.7677H160.705Z" fill="#E59816"/>
<path d="M166.031 62.7678H164.438L172.853 71.1931H174.446L166.031 62.7678Z" fill="#E59816"/>
<path d="M158.632 50.0435H157.337V48.748L141.868 33.2792C141.628 33.5671 141.388 33.8645 141.148 34.1428L164.687 57.6819H166.155V59.1501L178.189 71.1835H179.782L158.642 50.0435H158.632Z" fill="#E59816"/>
<path d="M138.855 26.5236C139.2 26.3988 139.555 26.2069 139.901 25.9766L130.266 16.3422C130.266 16.3422 130.18 16.4189 130.132 16.4669C129.902 16.7068 129.7 16.9467 129.508 17.177L138.855 26.5236Z" fill="#E59816"/>
<path d="M141.82 24.1726C142.079 23.8463 142.28 23.52 142.434 23.2034L134.229 14.9987C133.663 14.8548 133.116 14.826 132.579 14.9412L141.81 24.1726H141.82Z" fill="#E59816"/>
<path d="M147.261 59.9849V61.5682L156.876 71.193H158.459L147.261 59.9849Z" fill="#E59816"/>
<path d="M141.82 56.137C141.839 55.4269 141.686 54.7456 141.369 54.093L138.413 51.1374C137.751 50.8112 137.108 50.696 136.494 50.8112L141.82 56.137Z" fill="#E59816"/>
<path d="M140.342 59.9849C140.544 59.6203 140.736 59.2844 140.908 58.9678L134.249 52.3081C134.028 52.5768 133.807 52.8935 133.586 53.2389L140.342 59.9945V59.9849Z" fill="#E59816"/>
<path d="M147.28 65.3301C147.318 66.0498 147.453 66.7023 147.673 67.3069L151.138 70.771C151.742 70.9917 152.404 71.1261 153.114 71.1645L147.28 65.3301Z" fill="#E59816"/>
<path d="M150.149 20.2477C149.977 20.6027 149.794 20.9482 149.621 21.3033L161.041 32.7225H162.634L150.159 20.2477H150.149Z" fill="#E59816"/>
<path d="M147.261 54.6591V56.2424L162.202 71.193H163.795L147.261 54.6591Z" fill="#E59816"/>
<path d="M157.337 34.3539V32.761L148.336 23.7599C148.144 24.1053 147.942 24.4316 147.75 24.7675L157.337 34.3539Z" fill="#E59816"/>
<path d="M159.534 24.3068H158.709C158.795 24.1437 158.882 23.9422 158.978 23.7503L151.781 16.5532C151.627 16.9275 151.464 17.3017 151.31 17.6664L178.793 45.1494H180.386L159.534 24.2972V24.3068Z" fill="#E59816"/>
<path d="M166.146 36.254V37.5207H165.829L176.03 47.7213V46.138L166.146 36.254Z" fill="#E59816"/>
<path d="M164.86 24.307H163.267L176.03 37.0697V35.4768L164.86 24.307Z" fill="#E59816"/>
<path d="M167.825 21.9462C167.672 22.3684 167.537 22.7522 167.403 23.1073L177.018 32.7225H178.611L167.835 21.9462H167.825Z" fill="#E59816"/>
<path d="M160.81 16.5149C160.561 16.0831 160.196 15.7281 159.736 15.4402L160.81 16.5149Z" fill="#E59816"/>
<path d="M144.2 30.2853C143.979 30.5924 143.749 30.8994 143.518 31.1969L157.471 45.1495H159.064L144.2 30.2853Z" fill="#E59816"/>
<path d="M134.297 43.2878C134.623 43.1247 134.92 42.904 135.208 42.6161L125.276 32.6842L124.509 33.5095L134.297 43.2974V43.2878Z" fill="#E59816"/>
<path d="M146.359 27.1185C146.157 27.4448 145.937 27.7615 145.725 28.0781L162.806 45.1591H164.399L146.359 27.1185Z" fill="#E59816"/>
<path d="M162.087 37.5205H161.741H160.503L180.665 57.6818H182.248L162.087 37.5205Z" fill="#E59816"/>
<path d="M131.005 23.0305C131.744 23.5199 132.435 24.0189 133.097 24.5083L128.481 19.8926C128.577 21.0345 129.412 22.0805 131.005 23.0305Z" fill="#E59816"/>
<path d="M111.333 77.3441V78.9275L119.643 87.2376H121.236L111.333 77.3441Z" fill="#E59816"/>
<path d="M171.903 15.373C171.52 15.4978 171.184 15.6897 170.867 15.92L177.959 23.0115C178.122 22.6852 178.237 22.4165 178.294 22.2534C178.352 22.1383 178.4 22.0231 178.448 21.908L171.913 15.373H171.903Z" fill="#E59816"/>
<path d="M122.618 15.6225C122.666 15.1331 122.801 14.7396 123.021 14.4325L113.368 4.77893C113.281 4.8557 113.185 4.93247 113.099 5.01883C112.917 5.20116 112.753 5.39308 112.6 5.5946L122.618 15.6129V15.6225Z" fill="#E59816"/>
<path d="M138.576 36.9064L145.706 44.0363C145.917 43.7964 146.167 43.5085 146.436 43.1822L139.354 36.1003C139.095 36.369 138.845 36.6569 138.576 36.916V36.9064Z" fill="#E59816"/>
<path d="M168.583 13.636H170.176L159.793 3.2627H158.21L168.583 13.636Z" fill="#E59816"/>
<path d="M163.536 3.2627L173.909 13.636H175.502L165.129 3.2627H163.536Z" fill="#E59816"/>
<path d="M157.932 13.636H159.515L149.142 3.2627H147.558L157.932 13.636Z" fill="#E59816"/>
<path d="M111.333 72.0088V73.6017L124.979 87.2377H126.562L111.333 72.0088Z" fill="#E59816"/>
<path d="M163.257 13.636H164.841L154.467 3.2627H152.884L163.257 13.636Z" fill="#E59816"/>
<path d="M111.333 66.683V68.2759L130.305 87.2377H131.888L111.333 66.683Z" fill="#E59816"/>
<path d="M122.589 20.9195V19.3266L111.458 8.19519C111.381 8.6462 111.333 9.11641 111.333 9.6154V9.65379L122.589 20.9099V20.9195Z" fill="#E59816"/>
<path d="M175.684 15.4114L179.148 18.8755C179.072 17.1579 177.92 16.0063 175.684 15.4114Z" fill="#E59816"/>
<path d="M166.146 46.9055V48.4985L176.03 58.3824V57.6819H176.922L166.146 46.9055Z" fill="#E59816"/>
<path d="M132.176 55.5612C131.984 55.8682 131.782 56.1849 131.562 56.5304L138.432 63.4011C138.624 63.0461 138.816 62.7102 138.999 62.3839L132.176 55.5612Z" fill="#E59816"/>
<path d="M136.974 40.6297L137.713 39.7853L129.086 31.1584C128.558 31.0625 128.05 31.0913 127.56 31.216L136.983 40.6393L136.974 40.6297Z" fill="#E59816"/>
<path d="M147.261 43.9979V45.5909L159.352 57.6819H160.935L147.261 43.9979Z" fill="#E59816"/>
<path d="M157.337 60.5223V59.4092L147.251 49.3237V50.9167L157.365 61.0309C157.346 60.8678 157.327 60.7046 157.327 60.5223H157.337Z" fill="#E59816"/>
<path d="M141.945 44.0076C142.089 44.1899 142.223 44.3722 142.367 44.5641C142.597 44.9384 142.875 45.1687 143.211 45.2742L141.945 44.0076Z" fill="#E59816"/>
<path d="M126.14 65.5122C126.054 66.088 126.092 66.6541 126.255 67.2107L130.535 71.4906C131.12 71.6825 131.686 71.7113 132.233 71.5961L126.15 65.5122H126.14Z" fill="#E59816"/>
<path d="M163.958 50.0435H162.375L183.515 71.1931H185.108L176.682 62.7678H176.03V62.1153L163.958 50.0435Z" fill="#E59816"/>
<path d="M130.074 58.7855C129.892 59.0446 129.681 59.3613 129.431 59.7355L136.532 66.8366C136.724 66.4911 136.916 66.1457 137.099 65.8194L130.074 58.7951V58.7855Z" fill="#E59816"/>
<path d="M127.954 61.9905C127.704 62.3647 127.483 62.6718 127.301 62.9213L134.498 70.1183C134.728 69.8496 134.959 69.5522 135.179 69.2163L127.954 61.9905Z" fill="#E59816"/>
<path d="M187.612 37.9908L188.783 39.1616C188.514 38.653 188.121 38.2595 187.612 37.9908Z" fill="#E59816"/>
<path d="M178.074 37.5205H176.481L184.119 45.159H185.434C185.53 45.159 185.607 45.1494 185.693 45.1398L178.074 37.5205Z" fill="#E59816"/>
<path d="M187.343 62.7678H185.751L192.42 69.4371C192.612 69.1012 192.736 68.6982 192.832 68.2568L187.343 62.7678Z" fill="#E59816"/>
<path d="M182.018 62.7678H180.425L188.841 71.1836C189.368 71.1836 189.829 71.1164 190.251 71.0108L182.018 62.7774V62.7678Z" fill="#E59816"/>
<path d="M179.945 50.0435H178.352L185.952 57.6435C186.441 57.6051 186.883 57.5092 187.257 57.3652L179.935 50.0435H179.945Z" fill="#E59816"/>
<path d="M185.271 50.0435H183.678L189.032 55.398C189.157 54.9854 189.224 54.5248 189.234 54.0066L185.271 50.0435Z" fill="#E59816"/>
<path d="M190.683 76.7684H189.09L195.999 83.6775C196.095 83.2457 196.153 82.7755 196.172 82.2573L190.673 76.7588L190.683 76.7684Z" fill="#E59816"/>
<path d="M164.044 76.7684H162.451L172.93 87.2377H174.514L164.044 76.7684Z" fill="#E59816"/>
<path d="M169.37 76.7684H167.777L178.256 87.2377H179.839L169.37 76.7684Z" fill="#E59816"/>
<path d="M180.022 76.7684H178.438L188.908 87.2377H190.501L180.022 76.7684Z" fill="#E59816"/>
<path d="M174.696 76.7684H173.113L183.582 87.2377H185.175L174.696 76.7684Z" fill="#E59816"/>
<path d="M185.357 76.7684H183.764L193.706 86.7099C194.07 86.5468 194.397 86.3357 194.675 86.0958L185.348 76.7684H185.357Z" fill="#E59816"/>
<path d="M111.612 82.9482C111.89 83.927 112.389 84.7715 113.099 85.4816C113.809 86.1917 114.653 86.6907 115.632 86.969L111.612 82.9482Z" fill="#E59816"/>
<path d="M181.106 3.2627H179.513L189.8 13.5497C190.261 13.4825 190.673 13.3577 191.048 13.2138L181.096 3.2627H181.106Z" fill="#E59816"/>
<path d="M186.441 3.2627H184.849L193.072 11.4865C193.264 11.1506 193.399 10.7572 193.514 10.335L186.441 3.2627Z" fill="#E59816"/>
<path d="M183.399 37.5206H181.807L188.37 44.0843C188.62 43.806 188.821 43.4797 188.965 43.0863L183.39 37.511L183.399 37.5206Z" fill="#E59816"/>
<path d="M193.523 6.61175C193.111 4.94204 192.065 3.90567 190.405 3.49304L193.523 6.61175Z" fill="#E59816"/>
<path d="M175.78 3.2627H174.197L184.57 13.636H186.154L175.78 3.2627Z" fill="#E59816"/>
<path d="M158.719 76.7684H157.126L167.595 87.2377H169.188L158.719 76.7684Z" fill="#E59816"/>
<path d="M170.454 3.2627H168.862L179.244 13.636H180.828L170.454 3.2627Z" fill="#E59816"/>
<path d="M180.837 24.307H179.244L187.651 32.7131C188.169 32.7035 188.629 32.6364 189.052 32.5212L180.837 24.307Z" fill="#E59816"/>
<path d="M168.804 19.1826L182.344 32.7226H183.937L169.226 18.0118C169.063 18.3669 168.929 18.7603 168.814 19.1826H168.804Z" fill="#E59816"/>
<path d="M186.173 24.307H184.58L191.182 30.9091C191.364 30.5636 191.499 30.1606 191.575 29.7192L186.163 24.307H186.173Z" fill="#E59816"/>
<path d="M122.589 42.2323V40.649L111.333 29.3928V30.9762L122.589 42.2323Z" fill="#E59816"/>
<path d="M122.589 47.558V45.9747L111.333 34.7185V36.3019L122.589 47.558Z" fill="#E59816"/>
<path d="M153.383 76.7684H151.8L162.269 87.2377H163.862L153.383 76.7684Z" fill="#E59816"/>
<path d="M125.958 13.6361H127.551L117.196 3.28198C116.707 3.31077 116.246 3.37794 115.815 3.4931L125.967 13.6457L125.958 13.6361Z" fill="#E59816"/>
<path d="M152.596 13.636H152.932C152.903 13.7128 152.865 13.7895 152.836 13.8759L160.158 21.1977C160.311 20.8522 160.475 20.478 160.647 20.0941L154.218 13.6648L154.103 13.636H154.18L143.806 3.2627H142.213L152.587 13.636H152.596Z" fill="#E59816"/>
<path d="M123.108 37.4151C124.518 38.1923 125.9 39.0464 127.263 39.9868L122.705 35.4287L122.589 35.5534V35.3135L111.333 24.0574V25.6503L123.098 37.4151H123.108Z" fill="#E59816"/>
<path d="M122.589 26.2453V24.6619L111.333 13.4058V14.9891L122.589 26.2453Z" fill="#E59816"/>
<path d="M131.293 13.636H132.876L122.503 3.2627H120.91L131.293 13.636Z" fill="#E59816"/>
<path d="M141.945 13.636H143.538L133.155 3.2627H131.571L141.945 13.636Z" fill="#E59816"/>
<path d="M147.27 13.636H148.863L138.49 3.2627H136.897L147.27 13.636Z" fill="#E59816"/>
<path d="M136.619 13.636H137.761H138.202L127.829 3.2627H126.245L136.619 13.636Z" fill="#E59816"/>
<path d="M122.589 31.5807V29.9877L111.333 18.7316V20.3245L122.589 31.5807Z" fill="#E59816"/>
<path d="M132.07 76.7684H130.487L140.956 87.2377H142.549L132.07 76.7684Z" fill="#E59816"/>
<path d="M126.745 76.7684H125.161L135.63 87.2377H137.223L126.745 76.7684Z" fill="#E59816"/>
<path d="M137.406 76.7684H135.813L146.282 87.2377H147.875L137.406 76.7684Z" fill="#E59816"/>
<path d="M142.731 76.7684H141.139L151.617 87.2377H153.201L142.731 76.7684Z" fill="#E59816"/>
<path d="M148.057 76.7684H146.474L156.943 87.2377H158.536L148.057 76.7684Z" fill="#E59816"/>
<path d="M122.589 63.5451V61.9522L111.333 50.696V52.289L122.589 63.5451Z" fill="#E59816"/>
<path d="M122.589 58.2193V56.6264L111.333 45.3702V46.9632L122.589 58.2193Z" fill="#E59816"/>
<path d="M122.589 52.8934V51.3005L111.333 40.0443V41.6373L122.589 52.8934Z" fill="#E59816"/>
<path d="M122.589 74.1967V72.6133L111.333 61.3572V62.9405L122.589 74.1967Z" fill="#E59816"/>
<path d="M122.589 68.8709V67.2875L111.333 56.0314V57.6147L122.589 68.8709Z" fill="#E59816"/>
<path d="M256.281 24.8535C256.109 25.2086 255.946 25.5828 255.773 25.9283L274.178 44.3335C273.881 43.5274 273.583 42.7117 273.305 41.8673L256.291 24.8535H256.281Z" fill="#E59816"/>
<path d="M257.922 21.1783C257.769 21.5526 257.615 21.9364 257.462 22.3011L271.597 36.4361C271.395 35.7164 271.194 34.987 270.992 34.2481L257.922 21.1783Z" fill="#E59816"/>
<path d="M276.807 50.715L254.477 28.385C254.295 28.7305 254.113 29.0759 253.921 29.4118L278.362 53.8433C277.834 52.8357 277.316 51.7897 276.817 50.715H276.807Z" fill="#E59816"/>
<path d="M238.183 33.4037V34.987L249.439 46.2432V44.6598L238.183 33.4037Z" fill="#E59816"/>
<path d="M238.183 22.7426V24.3355L249.439 35.5917V33.9987L238.183 22.7426Z" fill="#E59816"/>
<path d="M270.301 28.2219L259.429 17.3496C259.285 17.7335 259.151 18.1365 259.007 18.5203L269.754 29.2679C269.677 28.9128 269.591 28.577 269.505 28.2219H270.301Z" fill="#E59816"/>
<path d="M250.37 34.9294C250.15 35.2365 249.938 35.5532 249.708 35.8603L258.508 44.6598C258.7 44.4103 258.92 44.1033 259.17 43.7386L250.361 34.9294H250.37Z" fill="#E59816"/>
<path d="M252.51 31.7437C252.309 32.0699 252.107 32.4058 251.906 32.7224L260.686 41.5028C260.936 41.1286 261.147 40.8119 261.319 40.5528L252.51 31.7437Z" fill="#E59816"/>
<path d="M230.459 21.9269V20.334L221.851 11.7263C221.496 11.899 221.179 12.1101 220.901 12.3596L230.459 21.9173V21.9269Z" fill="#E59816"/>
<path d="M249.439 30.2657V28.6728L238.183 17.4166V19.0096L249.439 30.2657Z" fill="#E59816"/>
<path d="M230.459 27.2622V25.6692L219.596 14.8065C219.5 15.2383 219.442 15.7085 219.423 16.2171L230.459 27.2526V27.2622Z" fill="#E59816"/>
<path d="M249.439 24.9304V23.3471L238.183 12.0909V13.6743L249.439 24.9304Z" fill="#E59816"/>
<path d="M249.439 14.2788V12.6859L239.105 2.35095C238.893 2.66762 238.701 3.01307 238.567 3.40651L249.439 14.2788Z" fill="#E59816"/>
<path d="M249.439 8.95308V7.36014L242.492 0.412598C242.031 0.47977 241.609 0.594924 241.225 0.729269L249.439 8.94348V8.95308Z" fill="#E59816"/>
<path d="M248.94 3.11858C248.489 2.04382 247.731 1.27613 246.657 0.834717L248.94 3.11858Z" fill="#E59816"/>
<path d="M249.439 19.6046V18.0213L238.183 6.76514V8.34849L249.439 19.6046Z" fill="#E59816"/>
<path d="M264.246 48.8054C264.534 49.6402 264.822 50.4655 265.119 51.262L301.105 87.2471C301.249 87.0936 301.383 86.9304 301.517 86.7481C301.623 86.6138 301.709 86.489 301.805 86.3547L264.246 48.7958V48.8054Z" fill="#E59816"/>
<path d="M272.364 15.8909C272.489 15.4879 272.623 15.0849 272.748 14.6914L263.114 5.05701C263.018 5.36408 262.931 5.67116 262.855 6.00702C262.826 6.11258 262.797 6.19894 262.778 6.30449L272.364 15.8909Z" fill="#E59816"/>
<path d="M230.459 16.6011V16.5723C230.459 15.9198 230.382 15.3536 230.267 14.8162L226.726 11.2753C226.188 11.1602 225.622 11.0834 224.97 11.0834C224.96 11.0834 224.95 11.0834 224.941 11.0834L230.449 16.5915L230.459 16.6011Z" fill="#E59816"/>
<path d="M273.593 11.7935C273.708 11.3808 273.823 10.9586 273.938 10.546L265.129 1.73682C264.851 1.96712 264.592 2.2454 264.352 2.55247L273.593 11.7935Z" fill="#E59816"/>
<path d="M286.279 28.2217L275.224 17.1575H273.631L284.695 28.2217H286.279Z" fill="#E59816"/>
<path d="M274.687 7.5521C274.792 7.0627 274.85 6.59249 274.879 6.15107L269.428 0.700529C268.852 0.623761 268.315 0.614157 267.806 0.662137L274.696 7.5521H274.687Z" fill="#E59816"/>
<path d="M214.923 63.4202C214.865 63.9192 214.875 64.4661 214.971 65.0611L221.218 71.3081C221.64 71.2601 222.081 71.1738 222.542 71.0394L214.923 63.4202Z" fill="#E59816"/>
<path d="M230.459 32.588V30.9951L219.394 19.9404V21.5238L230.459 32.588Z" fill="#E59816"/>
<path d="M270.56 65.7806C270.301 66.0589 270.052 66.3276 269.793 66.5963L288.006 84.8096C289.455 85.9419 290.952 87.0167 292.506 88.0243C292.718 88.1394 292.929 88.2546 293.13 88.3505L270.56 65.7806Z" fill="#E59816"/>
<path d="M274.044 28.2219H275.637L260.782 13.3672C260.657 13.7702 260.542 14.1828 260.408 14.5763L274.044 28.2123V28.2219Z" fill="#E59816"/>
<path d="M238.183 54.7164V55.0427L237.166 55.2826L249.439 67.5559V65.9726L238.183 54.7164Z" fill="#E59816"/>
<path d="M249.439 72.8817V71.2983L234.153 56.0118L232.877 56.3189L249.439 72.8817Z" fill="#E59816"/>
<path d="M238.183 44.0553V45.6482L249.439 56.9044V55.3115L238.183 44.0553Z" fill="#E59816"/>
<path d="M238.183 28.0778V29.6707L254.919 46.4062C255.111 46.4254 255.312 46.4446 255.514 46.435C255.811 46.4158 256.099 46.3582 256.377 46.2719L238.193 28.0873L238.183 28.0778Z" fill="#E59816"/>
<path d="M238.183 49.3811V50.974L249.439 62.2302V61.4049V60.6469L238.183 49.3811Z" fill="#E59816"/>
<path d="M238.183 38.7296V40.3225L249.439 51.5787V49.9858L238.183 38.7296Z" fill="#E59816"/>
<path d="M279.37 28.2219H280.962L262.001 9.26013C261.886 9.67276 261.79 10.1046 261.665 10.5172L279.37 28.2219Z" fill="#E59816"/>
<path d="M255.648 77.4976C255.312 77.6895 254.976 77.891 254.631 78.0733L263.517 86.9593C263.843 86.7577 264.169 86.5562 264.496 86.3451L255.648 77.4976Z" fill="#E59816"/>
<path d="M280.991 49.573C280.828 49.9376 280.655 50.3023 280.483 50.6574L288.985 59.1594C289.167 58.814 289.34 58.4589 289.522 58.1039L280.991 49.573Z" fill="#E59816"/>
<path d="M279.245 53.1427C279.062 53.4882 278.89 53.8432 278.698 54.1887L287.094 62.5852C287.286 62.2494 287.488 61.9231 287.68 61.5776L279.245 53.1427Z" fill="#E59816"/>
<path d="M282.584 45.8306C282.431 46.2145 282.277 46.5791 282.124 46.9534L290.75 55.5802C290.914 55.2156 291.077 54.8509 291.249 54.4863L282.584 45.821V45.8306Z" fill="#E59816"/>
<path d="M283.995 41.9154C283.86 42.3088 283.726 42.7119 283.592 43.0957L292.372 51.8761C292.526 51.5019 292.679 51.1276 292.833 50.7534L283.995 41.9154Z" fill="#E59816"/>
<path d="M285.261 37.8562C285.146 38.2688 285.031 38.6911 284.906 39.0941L293.869 48.0568C294.013 47.673 294.157 47.2795 294.291 46.8957L285.261 37.8658V37.8562Z" fill="#E59816"/>
<path d="M295.808 75.0313C291.988 72.2101 288.572 68.9186 285.569 65.1186C285.607 65.0514 285.655 64.9843 285.693 64.9171L261.847 41.0709C262.058 41.8194 262.269 42.5679 262.481 43.2972L303.11 83.9268C303.264 83.4662 303.34 83.0152 303.36 82.5834L295.808 75.0313Z" fill="#E59816"/>
<path d="M267.921 68.4581C267.653 68.7172 267.384 68.9859 267.115 69.2354L275.474 77.5935C275.742 77.3248 276.011 77.0657 276.27 76.797L267.921 68.4485V68.4581Z" fill="#E59816"/>
<path d="M267.662 57.5474C268.113 58.5645 268.584 59.5625 269.054 60.5317L297.756 89.2335C298.178 89.1567 298.581 89.032 298.965 88.8592L267.662 57.557V57.5474Z" fill="#E59816"/>
<path d="M296.537 17.1575H294.944L304.07 26.2833C304.281 25.9666 304.463 25.6212 304.597 25.2182L296.537 17.1575Z" fill="#E59816"/>
<path d="M265.11 70.9818C264.822 71.2217 264.534 71.4616 264.237 71.7015L272.719 80.1844C273.007 79.9349 273.276 79.6758 273.554 79.4263L265.11 70.9818Z" fill="#E59816"/>
<path d="M291.211 17.1575H289.618L300.615 28.1545C301.095 28.1066 301.546 28.0202 301.939 27.8859L291.211 17.1575Z" fill="#E59816"/>
<path d="M302.534 17.839C301.92 17.5127 301.181 17.3016 300.327 17.2249L304.866 21.7638C304.77 20.9001 304.559 20.1612 304.233 19.5471L302.534 17.8486V17.839Z" fill="#E59816"/>
<path d="M287.382 29.3157C287.286 29.7571 287.19 30.1889 287.104 30.6207L296.518 40.0345C296.633 39.6218 296.758 39.2188 296.873 38.8062L287.382 29.3157Z" fill="#E59816"/>
<path d="M286.384 33.6532C286.279 34.0754 286.173 34.5073 286.068 34.9199L295.251 44.1033C295.385 43.7098 295.51 43.2972 295.635 42.9038L286.384 33.6532Z" fill="#E59816"/>
<path d="M285.876 17.1575H284.283L298.706 31.5803C298.802 31.1485 298.897 30.7167 298.993 30.2849L285.866 17.1575H285.876Z" fill="#E59816"/>
<path d="M280.55 17.1575H278.957L297.66 35.8602C297.765 35.4379 297.871 35.0157 297.986 34.5935L280.55 17.1575Z" fill="#E59816"/>
<path d="M229.47 68.8995C229.854 68.7747 230.257 68.6404 230.67 68.5061L219.394 57.2307V58.8236L229.47 68.8995Z" fill="#E59816"/>
<path d="M225.43 70.1854C225.814 70.0702 226.217 69.9455 226.639 69.8111L217.139 60.311C216.784 60.503 216.477 60.7237 216.208 60.9636L225.44 70.195L225.43 70.1854Z" fill="#E59816"/>
<path d="M230.459 37.9138V36.3305L219.394 25.2662V26.8496L230.459 37.9138Z" fill="#E59816"/>
<path d="M237.531 66.2988C237.761 66.2317 237.991 66.1549 238.193 66.0973V66.961L249.449 78.2171V76.6242L219.404 46.579V48.1719L237.54 66.3084L237.531 66.2988Z" fill="#E59816"/>
<path d="M233.481 67.5849C233.903 67.4505 234.306 67.3162 234.681 67.201L219.394 51.9146V53.5075L233.481 67.5945V67.5849Z" fill="#E59816"/>
<path d="M230.459 53.901V52.308L219.394 41.2438V42.8367L230.459 53.901Z" fill="#E59816"/>
<path d="M230.459 43.2396V41.6563L219.394 30.592V32.185L230.459 43.2396Z" fill="#E59816"/>
<path d="M230.459 48.5654V46.9821L219.394 35.9178V37.5108L230.459 48.5654Z" fill="#E59816"/>
<path d="M238.183 70.6938V72.2868L249.439 83.5429V81.95L238.183 70.6938Z" fill="#E59816"/>
<path d="M251.224 83.7349C251.733 84.4738 252.146 85.1167 252.472 85.6733C253.383 87.4389 254.669 88.5233 256.339 88.9551C256.377 88.9647 256.425 88.9743 256.464 88.9839L251.224 83.7445V83.7349Z" fill="#E59816"/>
<path d="M252.146 79.3303C252.03 79.3879 251.915 79.4551 251.79 79.5126C251.503 79.647 251.244 79.7238 251.004 79.7813L259.995 88.7728C260.369 88.6577 260.753 88.5137 261.147 88.3314L252.146 79.3303Z" fill="#E59816"/>
<path d="M258.978 75.5016C258.652 75.7127 258.335 75.9142 258.009 76.1157L266.741 84.8481C267.058 84.6274 267.355 84.4067 267.662 84.186L258.978 75.5016Z" fill="#E59816"/>
<path d="M238.183 81.355V82.9479L246.014 90.7783C246.426 90.6631 246.81 90.5192 247.146 90.3273L238.174 81.355H238.183Z" fill="#E59816"/>
<path d="M238.27 86.7672C238.615 89.195 240.016 90.5864 242.454 90.9511L238.27 86.7672Z" fill="#E59816"/>
<path d="M262.135 73.3329C261.828 73.5536 261.511 73.7743 261.204 73.995L269.793 82.5835C270.09 82.3532 270.397 82.1229 270.685 81.8926L262.125 73.3329H262.135Z" fill="#E59816"/>
<path d="M238.183 76.0294V77.6224L248.902 88.3411C249.065 87.9765 249.19 87.5735 249.276 87.1224L238.183 76.0294Z" fill="#E59816"/>
<path d="M371.242 28.03C370.868 28.174 370.494 28.3275 370.119 28.5002L379.274 37.6549C379.552 37.6357 379.821 37.6165 380.099 37.6165C380.358 37.6165 380.598 37.6357 380.848 37.6453L371.232 28.03H371.242Z" fill="#E59816"/>
<path d="M372.01 41.0423C372.134 40.9175 372.25 40.7736 372.374 40.6488C372.518 40.5145 372.672 40.3897 372.825 40.265L364.563 32.0028C364.275 32.2427 363.997 32.4826 363.709 32.7417L372.01 41.0423Z" fill="#E59816"/>
<path d="M375.061 38.7583C375.426 38.5759 375.8 38.4224 376.174 38.288L367.663 29.7764C367.336 29.9779 367.01 30.1794 366.693 30.3905L375.061 38.7583Z" fill="#E59816"/>
<path d="M369.822 44.1801C369.995 43.8251 370.186 43.4892 370.388 43.1629L361.828 34.6033C361.579 34.8816 361.329 35.1598 361.089 35.4477L369.822 44.1801Z" fill="#E59816"/>
<path d="M381.155 59.246L371.664 49.7555H370.071L379.562 59.246H381.155Z" fill="#E59816"/>
<path d="M368.459 48.1336C368.555 47.7018 368.661 47.27 368.776 46.8669L359.477 37.5684C359.257 37.885 359.055 38.2017 358.844 38.528L368.459 48.1432V48.1336Z" fill="#E59816"/>
<path d="M374.236 59.2458H375.829L357.5 40.9174C357.328 41.2724 357.155 41.6371 356.992 42.0017L374.236 59.2458Z" fill="#E59816"/>
<path d="M390.338 47.1165C390.405 47.6634 390.444 48.2392 390.463 48.8342L400.606 58.9772C400.903 58.862 401.182 58.7085 401.45 58.5166C401.508 58.4782 401.546 58.4302 401.604 58.3822L390.338 47.1165Z" fill="#E59816"/>
<path d="M388.832 72.2484C388.409 72.3636 387.987 72.4787 387.555 72.5555L395.789 80.7889C396.144 80.6258 396.499 80.4722 396.854 80.2899C396.854 80.2899 396.854 80.2899 396.863 80.2899L388.832 72.258V72.2484Z" fill="#E59816"/>
<path d="M355.927 65.9918C356.215 66.8747 356.541 67.7287 356.905 68.554L370.129 81.7773C370.945 82.1324 371.789 82.449 372.653 82.7177L355.927 65.9918Z" fill="#E59816"/>
<path d="M354.564 59.3034C354.622 59.9176 354.698 60.5221 354.794 61.1171L377.431 83.7541C378.007 83.8309 378.593 83.8789 379.188 83.9173L354.564 59.2938V59.3034Z" fill="#E59816"/>
<path d="M354.401 53.8049C354.382 54.3135 354.372 54.8221 354.372 55.3307C354.372 55.3403 354.372 55.3499 354.372 55.3595L382.978 83.9653C383.477 83.9461 383.966 83.9077 384.465 83.8693L354.401 53.8049Z" fill="#E59816"/>
<path d="M393.399 30.4578L397.621 34.68C397.43 34.4209 397.247 34.1523 397.046 33.9028C395.942 32.5785 394.724 31.4366 393.399 30.4578Z" fill="#E59816"/>
<path d="M382.316 49.7555H380.723L390.223 59.246H391.806L382.316 49.7555Z" fill="#E59816"/>
<path d="M375.407 26.8593C374.965 26.936 374.524 27.032 374.092 27.1375L386.26 39.3053C386.884 39.7371 387.45 40.2457 387.939 40.8407C388.064 40.9942 388.179 41.167 388.294 41.3397L402.698 55.7433C402.736 55.2156 402.755 54.7166 402.775 54.2368L375.397 26.8593H375.407Z" fill="#E59816"/>
<path d="M387.642 49.7555H386.058L395.549 59.246H397.142L387.642 49.7555Z" fill="#E59816"/>
<path d="M386.423 27.2143C385.78 27.0512 385.108 26.9168 384.427 26.8113L401.949 44.3337C401.786 43.5948 401.604 42.8846 401.393 42.1841L386.423 27.2143Z" fill="#E59816"/>
<path d="M380.339 26.4658C380.195 26.4658 380.061 26.4658 379.917 26.4658C379.533 26.4658 379.149 26.4754 378.775 26.4946L402.755 50.4751C402.727 49.8897 402.679 49.3236 402.631 48.7574L380.349 26.4754L380.339 26.4658Z" fill="#E59816"/>
<path d="M378.046 72.1236C376.942 71.759 375.934 71.2696 374.994 70.665L387.747 83.4182C388.189 83.3318 388.62 83.2454 389.052 83.1399L378.046 72.1332V72.1236Z" fill="#E59816"/>
<path d="M370.839 66.5003C370.244 65.5695 369.755 64.5523 369.361 63.4296L354.9 48.9684C354.823 49.4194 354.756 49.88 354.689 50.3502L370.839 66.5003Z" fill="#E59816"/>
<path d="M368.91 59.2459H370.503L355.965 44.7079C355.831 45.1109 355.716 45.514 355.6 45.9266L368.92 59.2459H368.91Z" fill="#E59816"/>
<path d="M376.99 49.7555H375.397L384.897 59.246H385.204H386.48L376.99 49.7555Z" fill="#E59816"/>
<path d="M392.756 70.8475C392.382 70.9531 391.998 71.097 391.595 71.2794L398.763 78.4476C398.975 78.0829 399.109 77.6895 399.176 77.2673L392.756 70.8475Z" fill="#E59816"/>
<path d="M384.168 72.9202C383.957 72.9202 383.746 72.949 383.535 72.949C383.208 72.949 382.892 72.9298 382.575 72.9106L391.96 82.2956C392.353 82.1612 392.747 82.0365 393.14 81.8925L384.158 72.9106L384.168 72.9202Z" fill="#E59816"/>
<path d="M483.247 46.5216H481.654L491.25 56.1176H492.382C492.555 56.1176 492.718 56.1272 492.872 56.1464L483.247 46.5216Z" fill="#E59816"/>
<path d="M481.405 40.9462H482.988L459.295 17.244V18.837L481.405 40.9462Z" fill="#E59816"/>
<path d="M459.103 59.6776V61.261L470.062 72.2292V71.1929H470.609L459.103 59.6776Z" fill="#E59816"/>
<path d="M470.743 24.9593V23.3664L459.295 11.9183V13.5017L470.743 24.9593Z" fill="#E59816"/>
<path d="M472.835 21.7158C473.277 21.6294 473.718 21.5334 474.15 21.4471L459.295 6.59241V8.18535L472.835 21.7254V21.7158Z" fill="#E59816"/>
<path d="M454.171 51.0028C454.42 50.7053 454.632 50.3887 454.785 50.0336L447.521 42.7694C447.243 42.8366 446.945 42.9134 446.619 42.9997C446.494 43.0285 446.379 43.0573 446.254 43.0957L454.161 51.0028H454.171Z" fill="#E59816"/>
<path d="M477.221 20.7754C477.653 20.6795 478.094 20.5835 478.516 20.4876L460.101 2.07275C459.9 2.39902 459.746 2.78286 459.621 3.1859L477.221 20.785V20.7754Z" fill="#E59816"/>
<path d="M477.844 30.4674H477.297C476.923 30.4674 476.578 30.4674 476.242 30.4578L486.73 40.9462H488.323L477.854 30.477L477.844 30.4674Z" fill="#E59816"/>
<path d="M483.18 30.4673H481.587L492.056 40.9462H493.649L483.18 30.4673Z" fill="#E59816"/>
<path d="M455.179 46.6847C455.063 45.8402 454.862 45.1301 454.603 44.516L452.444 42.3568C451.916 42.1649 451.302 42.0882 450.63 42.1265L455.188 46.6847H455.179Z" fill="#E59816"/>
<path d="M472.164 62.0863H470.58L479.677 71.1929H481.27L472.164 62.0863Z" fill="#E59816"/>
<path d="M477.499 62.0863H475.906L485.013 71.1929H486.596L477.499 62.0863Z" fill="#E59816"/>
<path d="M472.586 46.5216H471.002L480.589 56.1176H482.182L472.586 46.5216Z" fill="#E59816"/>
<path d="M470.743 8.97229V7.37934L463.364 0C462.923 0.0863644 462.51 0.211103 462.145 0.36464L470.753 8.97229H470.743Z" fill="#E59816"/>
<path d="M459.103 54.3423V55.9352L474.352 71.1929H475.944L459.103 54.3423Z" fill="#E59816"/>
<path d="M470.59 56.7701C470.839 56.4918 471.185 56.3095 471.617 56.2039L462.529 47.1165C462.174 47.2796 461.848 47.4811 461.531 47.7114L470.59 56.7701Z" fill="#E59816"/>
<path d="M459.804 49.7266C459.622 50.0817 459.468 50.4655 459.362 50.8686L470.062 61.5681V59.9752L459.804 49.717V49.7266Z" fill="#E59816"/>
<path d="M432.964 35.1311L450.755 52.9221C450.899 52.8742 451.052 52.8358 451.177 52.7974C451.455 52.7206 451.705 52.6247 451.945 52.5287L432.964 33.5477V35.1407V35.1311Z" fill="#E59816"/>
<path d="M482.825 62.0863H482.393H481.232L490.338 71.1929H491.922L482.825 62.0863Z" fill="#E59816"/>
<path d="M423.915 83.092C423.771 83.5046 423.704 83.9748 423.723 84.4834L429.931 90.692C430.45 90.74 430.997 90.7688 431.582 90.7496L423.915 83.0824V83.092Z" fill="#E59816"/>
<path d="M426.918 80.7699C426.477 80.8754 426.083 81.0098 425.738 81.1729L435.008 90.4427C435.478 90.3755 435.929 90.2987 436.361 90.2028L426.918 80.7603V80.7699Z" fill="#E59816"/>
<path d="M431.841 80.3668C431.649 80.4244 431.438 80.4724 431.198 80.482H430.363L439.22 89.3295C439.537 89.1952 439.834 89.0512 440.103 88.8977C440.161 88.8689 440.209 88.8209 440.266 88.7921L431.841 80.3668Z" fill="#E59816"/>
<path d="M432.964 76.1637V77.7566L442.281 87.0744C442.521 86.7769 442.742 86.4698 442.934 86.1436L432.964 76.1733V76.1637Z" fill="#E59816"/>
<path d="M501.691 22.3396C501.489 22.5123 501.288 22.7138 501.096 22.9345C501.038 23.0017 500.98 23.0785 500.913 23.1553L509.396 31.6382C509.435 31.5038 509.473 31.3887 509.511 31.2543C509.569 30.928 509.598 30.6018 509.626 30.2851L501.691 22.3492V22.3396Z" fill="#E59816"/>
<path d="M432.964 70.8379V72.4308L443.922 83.3895C444.009 82.9673 444.076 82.5067 444.133 82.0173L432.964 70.8475V70.8379Z" fill="#E59816"/>
<path d="M504.33 21.2456L509.626 26.5426C509.588 26.2547 509.559 25.9573 509.502 25.6694C509.406 25.2376 509.281 24.8441 509.147 24.4699L506.22 21.5431C505.558 21.3224 504.924 21.2168 504.33 21.2456Z" fill="#E59816"/>
<path d="M488.15 62.0863H486.558L506.105 81.6334C506.153 81.2976 506.172 80.9521 506.172 80.5875V80.1173L488.141 62.0863H488.15Z" fill="#E59816"/>
<path d="M494.724 73.9853V75.2904C494.724 75.3863 494.714 75.4631 494.705 75.5495L504.368 85.2127C504.368 85.2127 504.397 85.1839 504.416 85.1743C504.675 84.9152 504.896 84.6369 505.097 84.349L494.724 73.9757V73.9853Z" fill="#E59816"/>
<path d="M470.475 3.36824C470.014 1.66014 468.93 0.575797 467.212 0.105591L470.475 3.36824Z" fill="#E59816"/>
<path d="M489.993 17.5607C490.406 17.4456 490.818 17.3208 491.231 17.2057L483.17 9.14502C482.777 9.26977 482.364 9.39452 481.961 9.51926L490.003 17.5607H489.993Z" fill="#E59816"/>
<path d="M485.8 18.7026C486.222 18.5874 486.634 18.4819 487.047 18.3667L479.063 10.3828C478.66 10.498 478.247 10.6227 477.835 10.7379L485.79 18.693L485.8 18.7026Z" fill="#E59816"/>
<path d="M494.1 16.3419C494.503 16.2172 494.916 16.0924 495.319 15.9677L487.162 7.81104C486.769 7.94538 486.385 8.08931 485.982 8.22366L494.1 16.3419Z" fill="#E59816"/>
<path d="M426.784 59.3226L420.566 53.1044C420.594 53.6705 420.671 54.2655 420.834 54.9372C420.834 54.9468 420.834 54.9564 420.834 54.966L425.268 59.3994C425.738 59.4282 426.246 59.3994 426.774 59.3226H426.784Z" fill="#E59816"/>
<path d="M481.539 19.7678C481.971 19.6623 482.393 19.5567 482.815 19.4608L474.918 11.5632C474.505 11.6784 474.092 11.7935 473.67 11.8991L481.539 19.7678Z" fill="#E59816"/>
<path d="M498.13 15.0466C498.265 14.9986 498.409 14.9602 498.543 14.9122C498.802 14.8163 499.042 14.7203 499.282 14.6148L491.049 6.38135C490.674 6.52529 490.281 6.66924 489.897 6.82277L498.13 15.0562V15.0466Z" fill="#E59816"/>
<path d="M429.807 58.6126L431.064 58.2767L422.139 49.3524C421.813 49.5827 421.535 49.8322 421.314 50.1105L429.816 58.6126H429.807Z" fill="#E59816"/>
<path d="M444.316 30.4962V28.9129L432.964 17.5511V18.1365H431.956L444.316 30.4962Z" fill="#E59816"/>
<path d="M465.667 46.5216L475.263 56.1176H476.856L467.26 46.5216H465.667Z" fill="#E59816"/>
<path d="M482.402 77.6511H480.81L490.108 86.9497H491.701L482.402 77.6511Z" fill="#E59816"/>
<path d="M487.728 77.6511H486.145L495.444 86.9497H497.027L487.728 77.6511Z" fill="#E59816"/>
<path d="M493.006 77.5935C492.814 77.6223 492.603 77.6511 492.382 77.6511H491.471L500.712 86.8921C501.172 86.8441 501.614 86.7481 502.026 86.6234L492.997 77.5935H493.006Z" fill="#E59816"/>
<path d="M493.476 62.0863H491.893L506.181 76.3748V74.7819L493.476 62.0863Z" fill="#E59816"/>
<path d="M459.103 70.3295V71.9224L474.131 86.9498H475.714L459.103 70.3295Z" fill="#E59816"/>
<path d="M494.695 57.9697C494.714 58.1232 494.724 58.2864 494.724 58.4591V59.5914L506.172 71.0395V69.4465L494.685 57.9601L494.695 57.9697Z" fill="#E59816"/>
<path d="M477.077 77.6511H475.484L484.782 86.9497H486.375L477.077 77.6511Z" fill="#E59816"/>
<path d="M459.103 75.655V77.248L468.795 86.9496H470.388L459.103 75.655Z" fill="#E59816"/>
<path d="M471.665 77.5648C470.83 77.3824 470.321 76.8834 470.148 76.0486L459.103 65.0035V66.5965L479.457 86.9497H481.05L471.665 77.5648Z" fill="#E59816"/>
<path d="M499.224 46.5216H497.641L506.181 55.0621V53.4787L499.224 46.5216Z" fill="#E59816"/>
<path d="M498.111 29.4213C497.833 29.6612 497.507 29.8532 497.113 30.0067L505.481 38.3744C505.769 38.1345 506.038 37.885 506.306 37.6068L498.111 29.4117V29.4213Z" fill="#E59816"/>
<path d="M499.493 25.4774C499.33 25.8325 499.186 26.2163 499.052 26.6193L507.861 35.4285C508.043 35.0927 508.225 34.7472 508.398 34.3729L499.503 25.4774H499.493Z" fill="#E59816"/>
<path d="M495.04 5.03784C494.618 5.08582 494.186 5.18177 493.735 5.32571L501.556 13.1465C501.854 12.8394 502.046 12.5132 502.17 12.1677L495.04 5.03784Z" fill="#E59816"/>
<path d="M493.831 30.4673H492.238L501.911 40.1401C502.334 40.0249 502.717 39.881 503.101 39.737L493.831 30.4673Z" fill="#E59816"/>
<path d="M459.113 81.0002C459.142 81.7008 459.267 82.3533 459.468 82.9482L463.095 86.5756C463.69 86.7771 464.343 86.9018 465.043 86.9306L459.113 81.0002Z" fill="#E59816"/>
<path d="M493.899 46.5216H492.315L506.181 60.3879V58.8045L493.899 46.5216Z" fill="#E59816"/>
<path d="M488.506 30.4674H486.913L497.305 40.8599C497.814 40.8311 498.294 40.7831 498.764 40.7255L488.496 30.4578L488.506 30.4674Z" fill="#E59816"/>
<path d="M488.573 46.5216H486.98L506.181 65.7233V64.1303L488.573 46.5216Z" fill="#E59816"/>
<path d="M472.183 40.7928L459.334 27.9437C459.362 28.5387 459.401 29.1048 459.449 29.6518L470.407 40.6105C470.974 40.6777 471.559 40.7448 472.173 40.7928H472.183Z" fill="#E59816"/>
<path d="M444.316 9.18335V7.59041L436.764 0.0383301C436.332 0.13429 435.939 0.268633 435.574 0.441362L444.306 9.17376L444.316 9.18335Z" fill="#E59816"/>
<path d="M444.105 3.64649C443.663 1.6889 442.464 0.489391 440.506 0.0479736L444.105 3.64649Z" fill="#E59816"/>
<path d="M444.316 14.5188V12.9259L433.664 2.27429C433.482 2.61975 433.338 3.00359 433.232 3.42581L444.325 14.5188H444.316Z" fill="#E59816"/>
<path d="M452.396 27.9147C452.703 27.694 452.962 27.4253 453.192 27.1279L432.964 6.89941V8.49236L452.396 27.9243V27.9147Z" fill="#E59816"/>
<path d="M454.152 24.3451C454.181 24.0764 454.209 23.8173 454.209 23.5199C454.209 23.2512 454.181 23.0113 454.161 22.7618L449.584 18.1845C449.335 18.1653 449.095 18.1365 448.826 18.1365H447.943L454.152 24.3451Z" fill="#E59816"/>
<path d="M465.581 39.5163L460.476 34.4113C461.032 35.889 461.771 37.0694 462.731 37.9138C463.45 38.5567 464.42 39.0845 465.59 39.5163H465.581Z" fill="#E59816"/>
<path d="M459.295 24.1628L476.069 40.9366C476.127 40.9366 476.165 40.9366 476.223 40.9366H477.662L459.295 22.5698V24.1628Z" fill="#E59816"/>
<path d="M448.049 28.9033H448.816C449.085 28.9033 449.335 28.8745 449.584 28.8553L432.954 12.2253V13.8183L448.039 28.9033H448.049Z" fill="#E59816"/>
<path d="M477.912 46.5216H476.328L485.915 56.1176H487.508L477.912 46.5216Z" fill="#E59816"/>
<path d="M444.316 57.1348V55.5515L432.964 44.1993V45.7827L444.316 57.1348Z" fill="#E59816"/>
<path d="M444.316 67.7959V66.203L426.074 47.9609C425.594 48.0665 425.162 48.172 424.778 48.2584L444.316 67.7959Z" fill="#E59816"/>
<path d="M444.316 35.822V34.2386L428.223 18.1365H426.63L444.316 35.822Z" fill="#E59816"/>
<path d="M444.316 62.4702V60.8773L430.382 46.9438C429.941 47.0494 429.509 47.155 429.097 47.2509L444.306 62.4606L444.316 62.4702Z" fill="#E59816"/>
<path d="M432.964 65.5122V67.0956L444.316 78.4477V76.8643L432.964 65.5122Z" fill="#E59816"/>
<path d="M432.964 60.1766V61.7696L444.316 73.1217V71.5288L432.964 60.1766Z" fill="#E59816"/>
<path d="M446.629 54.1217C446.83 54.0737 447.031 54.0162 447.252 53.9586C447.473 53.8914 447.665 53.8338 447.876 53.7763L432.964 38.864V40.4569L446.629 54.1217Z" fill="#E59816"/>
<path d="M432.071 28.9032H432.964V29.7956L444.316 41.1477V39.5548L423.483 18.7218C423.128 18.8945 422.802 19.0961 422.523 19.3551L432.062 28.8936L432.071 28.9032Z" fill="#E59816"/>
<path d="M426.745 28.9033H428.338L421.228 21.7926C421.132 22.2244 421.074 22.6946 421.055 23.2128L426.755 28.9129L426.745 28.9033Z" fill="#E59816"/>
<path d="M576.204 28.2029C575.897 28.4332 575.57 28.6539 575.244 28.8746L582.393 36.0236C582.71 35.7933 583.017 35.5534 583.314 35.3231L576.194 28.2029H576.204Z" fill="#E59816"/>
<path d="M564.765 12.9357C564.66 12.12 564.42 11.4195 564.026 10.8437C563.316 9.80737 562.232 9.17403 560.764 8.94373L564.756 12.9357H564.765Z" fill="#E59816"/>
<path d="M564.074 17.7048C564.19 17.3882 564.314 17.0715 564.42 16.7644C564.449 16.6685 564.458 16.5725 564.477 16.4765L556.829 8.82849H555.208L564.074 17.6952V17.7048Z" fill="#E59816"/>
<path d="M550.208 3.84815C549.891 2.60066 548.999 1.69863 547.521 1.16125L550.208 3.84815Z" fill="#E59816"/>
<path d="M549.757 8.83808L562.501 21.5816C562.673 21.2074 562.836 20.8235 563 20.4493L551.379 8.82849H549.757V8.83808Z" fill="#E59816"/>
<path d="M591.337 43.3358V44.9672L602.295 55.9258V55.8203H603.812L591.337 43.3358Z" fill="#E59816"/>
<path d="M578.277 26.4565L585.387 33.5672C585.666 33.3081 585.934 33.0298 586.203 32.7515L579.083 25.6312C578.823 25.9095 578.555 26.1878 578.277 26.4565Z" fill="#E59816"/>
<path d="M549.517 8.60771C549.671 8.13751 549.805 7.71527 549.911 7.3794L543.405 0.873291C543.002 0.988443 542.608 1.14199 542.263 1.3627L549.517 8.6173V8.60771Z" fill="#E59816"/>
<path d="M588.573 46.0323H586.951L602.295 61.386V59.7547L588.573 46.0323Z" fill="#E59816"/>
<path d="M587.038 44.5066L580.877 38.346L579.284 38.0101C579.553 37.8566 579.802 37.6935 580.061 37.5399L572.807 30.2853C572.49 30.4485 572.173 30.6116 571.838 30.7651V29.8823C571.838 29.6616 571.809 29.4697 571.79 29.2681L567.366 24.8444C567.164 24.8252 566.963 24.7964 566.752 24.7964H565.696L586.692 45.7925C586.779 45.4663 586.894 45.044 587.028 44.5066H587.038Z" fill="#E59816"/>
<path d="M557.06 48.8728H558.681L549.344 39.5359V40.649H548.836L557.06 48.8728Z" fill="#E59816"/>
<path d="M579.898 64.6295H578.42C578.373 64.6295 578.334 64.6295 578.286 64.6295L588.266 74.5997H589.888L579.908 64.6199L579.898 64.6295Z" fill="#E59816"/>
<path d="M571.857 57.5859V56.5975L549.344 34.0852V35.7069L573.709 60.0713C574.688 60.5415 575.59 61.0117 576.367 61.5011C576.616 61.6546 576.866 61.7602 577.115 61.8466L572.231 56.9622C572.106 57.1637 571.991 57.3844 571.857 57.5859Z" fill="#E59816"/>
<path d="M557.856 33.3081H559.488L550.966 24.7964H549.344L557.856 33.3081Z" fill="#E59816"/>
<path d="M584.428 74.619L575.244 65.4355C574.918 65.6467 574.64 65.9154 574.409 66.2224L582.806 74.619H584.428Z" fill="#E59816"/>
<path d="M562.462 52.6536V54.2753L571.857 63.6698V62.0481L562.462 52.6536Z" fill="#E59816"/>
<path d="M574.16 53.4405C573.987 53.8051 573.795 54.1602 573.613 54.5153L580.34 61.2421C580.637 61.0214 580.887 60.7335 581.136 60.4072L574.16 53.4309V53.4405Z" fill="#E59816"/>
<path d="M553.106 17.6473H554.037C553.989 17.8008 553.912 18.0503 553.816 18.367L571.847 36.3979V34.7762L561.867 24.7963H560.984C561.09 24.5948 561.176 24.4029 561.272 24.2014L540.526 3.45471C540.353 3.80977 540.2 4.2032 540.075 4.62543L553.106 17.6569V17.6473Z" fill="#E59816"/>
<path d="M588.017 30.7362C588.256 30.4388 588.487 30.1221 588.717 29.815L581.386 22.4836C581.194 22.8291 580.983 23.1746 580.771 23.5008L588.017 30.7458V30.7362Z" fill="#E59816"/>
<path d="M571.857 69.13V67.4987L561.349 57.0006H559.727L571.857 69.13Z" fill="#E59816"/>
<path d="M590.905 4.73096H589.283L598.774 14.2214H600.405L590.905 4.73096Z" fill="#E59816"/>
<path d="M546.149 48.8728H547.771L528.828 29.9302C529.058 30.8994 529.615 31.7726 530.555 32.5307C532.187 33.8358 533.521 35.0065 534.567 36.0525V37.2904L546.149 48.8728Z" fill="#E59816"/>
<path d="M531.774 76.5093C531.659 76.9315 531.534 77.3537 531.4 77.7664L538.693 85.0594C538.846 84.6755 539 84.2821 539.144 83.8886L531.765 76.5093H531.774Z" fill="#E59816"/>
<path d="M584.159 14.3463C584.073 14.8069 583.986 15.2579 583.881 15.6994L591.999 23.8176C592.152 23.4338 592.296 23.0403 592.44 22.6373L584.159 14.3559V14.3463Z" fill="#E59816"/>
<path d="M533.578 67.4124C533.511 67.8922 533.453 68.3719 533.377 68.8422L541.303 76.7685C541.409 76.3367 541.505 75.8857 541.6 75.4442L533.578 67.4219V67.4124Z" fill="#E59816"/>
<path d="M532.82 72.1047C532.734 72.5653 532.638 73.0068 532.542 73.4482L540.132 81.0386C540.257 80.626 540.391 80.223 540.516 79.8008L532.82 72.1047Z" fill="#E59816"/>
<path d="M554.382 82.7563C554.104 83.0442 553.893 83.38 553.759 83.7543L560.86 90.8554C560.936 90.8554 561.013 90.8554 561.09 90.8554C561.531 90.8266 561.954 90.7882 562.376 90.7402L554.382 82.7467V82.7563Z" fill="#E59816"/>
<path d="M605.644 4.73096L615.922 15.0083C615.931 14.4422 615.941 13.9048 615.922 13.3866L607.266 4.73096H605.635H605.644Z" fill="#E59816"/>
<path d="M562.462 69.0148V70.6365L571.857 80.031C571.857 80.031 571.857 79.9447 571.857 79.8967V78.4093L562.462 69.0148Z" fill="#E59816"/>
<path d="M615.336 8.96278C615.125 8.23348 614.857 7.60014 614.53 7.07236C613.763 5.85366 612.659 5.11476 611.22 4.84607L615.336 8.96278Z" fill="#E59816"/>
<path d="M604.934 24.2109C604.838 24.7099 604.733 25.1513 604.618 25.516L612.602 33.4999C612.659 33.4327 612.717 33.3752 612.774 33.308C612.947 33.1065 613.11 32.8474 613.273 32.5499L604.934 24.2109Z" fill="#E59816"/>
<path d="M530.402 80.5973C530.258 80.9619 530.114 81.317 529.96 81.6625C529.941 81.6912 529.941 81.72 529.922 81.7488L536.774 88.6004C537.014 88.3317 537.244 88.0246 537.465 87.6696L530.402 80.6069V80.5973Z" fill="#E59816"/>
<path d="M596.173 37.2712C595.665 37.3096 595.194 37.3768 594.763 37.4919L602.295 45.0248V43.4031L596.173 37.2808V37.2712Z" fill="#E59816"/>
<path d="M583.046 18.6837C582.911 19.0963 582.768 19.4898 582.614 19.8736L590.243 27.5025C590.435 27.157 590.636 26.8116 590.819 26.4565L583.046 18.6837Z" fill="#E59816"/>
<path d="M593.371 19.7296C593.486 19.3074 593.601 18.8756 593.707 18.4438L580.004 4.7406H578.382L593.381 19.7392L593.371 19.7296Z" fill="#E59816"/>
<path d="M596.384 32.022C596.413 32.1659 596.423 32.2715 596.423 32.329C596.538 33.0967 596.758 33.7685 597.075 34.3442L598.764 36.0331C599.417 36.4074 600.194 36.6569 601.125 36.7624L596.384 32.022Z" fill="#E59816"/>
<path d="M571.857 52.7591V51.1374L561.368 40.6489H559.747L571.857 52.7591Z" fill="#E59816"/>
<path d="M582.412 14.2216H584.034L575.187 5.37402C574.841 5.57554 574.563 5.83464 574.313 6.13212L582.403 14.2216H582.412Z" fill="#E59816"/>
<path d="M578.027 14.2214H578.584L573.354 8.99158C573.354 9.13552 573.325 9.26986 573.325 9.4234C573.325 9.88401 573.363 10.2966 573.431 10.6901L576.866 14.1255C577.221 14.183 577.605 14.2118 578.017 14.2118L578.027 14.2214Z" fill="#E59816"/>
<path d="M556.983 54.2465V52.6248L545.007 40.6489H543.865V39.507L530.191 25.8326C530.018 26.0725 529.855 26.322 529.673 26.5619C529.605 26.6387 529.567 26.7155 529.51 26.7922L556.973 54.2561L556.983 54.2465Z" fill="#E59816"/>
<path d="M594.369 15.277C594.436 14.9316 594.503 14.5861 594.561 14.2214H594.945L585.454 4.73096H583.833L594.379 15.277H594.369Z" fill="#E59816"/>
<path d="M596.586 28.4044L604.944 36.7626C605.481 36.7242 605.971 36.6762 606.422 36.609L597.728 27.915C597.258 28.011 596.883 28.1741 596.586 28.4044Z" fill="#E59816"/>
<path d="M591.337 59.7068V61.3285L604.618 74.619H606.249L591.337 59.7068Z" fill="#E59816"/>
<path d="M612.621 64.6294H610.999L618.35 71.98C618.503 71.5865 618.609 71.1547 618.666 70.6749L612.621 64.6294Z" fill="#E59816"/>
<path d="M590.809 64.6294H589.178L602.295 77.7472V76.1255L590.809 64.6294Z" fill="#E59816"/>
<path d="M578.075 40.9945C577.989 41.4551 577.893 41.8965 577.797 42.3379L591.279 55.8204H591.337V55.878L610.078 74.619H611.7L578.075 40.9945Z" fill="#E59816"/>
<path d="M607.17 64.6294H605.549L615.356 74.4365C615.797 74.3406 616.21 74.2062 616.565 74.0143L607.18 64.6294H607.17Z" fill="#E59816"/>
<path d="M585.349 64.6294H583.727L602.295 83.2073V81.576L585.349 64.6294Z" fill="#E59816"/>
<path d="M591.567 87.2089C591.999 88.9841 593.112 90.0877 594.887 90.5291L591.567 87.2089Z" fill="#E59816"/>
<path d="M578.967 74.6188L573.45 69.1011C573.44 69.2738 573.411 69.4369 573.411 69.6193C573.411 70.0223 573.44 70.4061 573.488 70.7708L577.259 74.542C577.614 74.59 577.998 74.6188 578.411 74.6188H578.967Z" fill="#E59816"/>
<path d="M549.344 50.4465V52.0683L571.857 74.5806V72.9588L549.344 50.4465Z" fill="#E59816"/>
<path d="M591.337 81.5282V83.1499L598.726 90.5389C599.167 90.4333 599.561 90.2894 599.916 90.1071L591.337 81.5282Z" fill="#E59816"/>
<path d="M591.337 76.0679V77.6896L601.758 88.1109C601.921 87.7367 602.056 87.324 602.142 86.873L591.337 76.0679Z" fill="#E59816"/>
<path d="M596.365 4.73096H594.743L604.378 14.3654C604.752 14.4901 605.04 14.7012 605.232 15.0083C605.289 15.1043 605.328 15.2386 605.376 15.3634L615.116 25.1033C615.173 24.6427 615.241 24.1533 615.289 23.6543L596.365 4.73096Z" fill="#E59816"/>
<path d="M601.816 4.73096H600.194L615.624 20.1614C615.663 19.672 615.701 19.1634 615.74 18.6452L601.825 4.73096H601.816Z" fill="#E59816"/>
<path d="M605.539 19.3553C605.501 19.8831 605.453 20.3725 605.405 20.8427L614.271 29.7095C614.377 29.2968 614.473 28.8554 614.569 28.3852L605.539 19.3553Z" fill="#E59816"/>
<path d="M529.087 84.7332C529.078 86.3165 529.893 87.6408 531.534 88.7059C532.523 89.3776 533.405 89.7423 534.173 89.8191L529.087 84.7332Z" fill="#E59816"/>
<path d="M604.934 46.0323H603.313L613.033 55.7531C613.513 55.6955 613.945 55.5804 614.329 55.4269L604.934 46.0323Z" fill="#E59816"/>
<path d="M610.394 46.0324H608.773L616.334 53.5941C616.517 53.2295 616.651 52.8264 616.737 52.3658L610.394 46.0228V46.0324Z" fill="#E59816"/>
<path d="M602.862 27.5887C602.459 27.7423 601.998 27.8191 601.47 27.8286L609.464 35.8221C609.838 35.659 610.193 35.4671 610.529 35.2656L602.862 27.5983V27.5887Z" fill="#E59816"/>
<path d="M592.411 38.9698C592.172 39.2769 591.97 39.6127 591.817 39.9966L607.64 55.8205H609.272L592.411 38.9602V38.9698Z" fill="#E59816"/>
<path d="M614.866 46.6752L616.248 48.057C615.922 47.4716 615.461 47.011 614.866 46.6752Z" fill="#E59816"/>
<path d="M546.945 33.3079H548.567L534.355 19.0962C534.164 19.4512 533.972 19.7967 533.78 20.1518L546.936 33.3079H546.945Z" fill="#E59816"/>
<path d="M543.28 24.1917C543.472 23.7983 543.654 23.4336 543.808 23.0978L536.14 15.4305C535.968 15.8048 535.805 16.1886 535.632 16.5533L543.27 24.1917H543.28Z" fill="#E59816"/>
<path d="M547.656 17.6473H549.287L539.173 7.53308C539.038 7.94571 538.904 8.34875 538.77 8.75178L547.656 17.6377V17.6473Z" fill="#E59816"/>
<path d="M545.036 20.4876C545.218 20.1229 545.41 19.7583 545.573 19.3936L537.752 11.5729C537.599 11.9663 537.445 12.3501 537.292 12.734L545.036 20.478V20.4876Z" fill="#E59816"/>
<path d="M562.462 36.2827V37.0312V37.914L571.857 47.3086V45.6772L562.462 36.2827Z" fill="#E59816"/>
<path d="M552.348 22.3397L571.857 41.8485V40.2172L552.799 21.1594C552.646 21.5721 552.492 21.9655 552.348 22.3301V22.3397Z" fill="#E59816"/>
<path d="M556.983 37.8854V36.2541L545.516 24.7964H543.884L556.983 37.8854Z" fill="#E59816"/>
<path d="M543.865 35.6781V34.0468L532.379 22.5603C532.168 22.8962 531.956 23.2224 531.745 23.5583L543.865 35.6781Z" fill="#E59816"/>
<path d="M575.762 49.5828C575.618 49.9858 575.465 50.3696 575.311 50.7631L582.432 57.8833C582.614 57.4803 582.787 57.1061 582.931 56.7606L575.762 49.5924V49.5828Z" fill="#E59816"/>
<path d="M577.058 45.4277C576.943 45.8596 576.837 46.2914 576.712 46.704L585.829 55.8202H587.46L577.067 45.4277H577.058Z" fill="#E59816"/>
<path d="M562.462 74.4655V76.0872L571.281 84.906C571.396 84.5029 571.502 84.0615 571.579 83.5817L562.462 74.4655Z" fill="#E59816"/>
<path d="M557.424 65.6083H559.056L549.344 55.8971V57.0006H548.817L557.424 65.6083Z" fill="#E59816"/>
<path d="M558.47 81.3938C557.943 81.4226 557.453 81.4706 557.002 81.5569L565.591 90.1454C566.022 90.0302 566.435 89.8959 566.819 89.752L558.461 81.3938H558.47Z" fill="#E59816"/>
<path d="M554.785 88.6195C555.054 88.965 555.361 89.2816 555.707 89.5407L554.785 88.6195Z" fill="#E59816"/>
<path d="M562.433 79.8968C562.395 80.4054 562.232 80.7796 561.934 81.0195L569.266 88.3509C569.554 88.0918 569.813 87.8135 570.053 87.5065L562.433 79.8872V79.8968Z" fill="#E59816"/>
<path d="M542.243 72.2391C542.32 71.7785 542.397 71.3083 542.474 70.8477L534.116 62.4895C534.077 62.9981 534.029 63.4875 533.981 63.9769L542.243 72.2391Z" fill="#E59816"/>
<path d="M542.944 67.489C543.002 67.0092 543.069 66.5294 543.117 66.04L534.413 57.3364C534.394 57.8642 534.365 58.3728 534.336 58.891L542.934 67.489H542.944Z" fill="#E59816"/>
<path d="M551.974 65.6082H553.596L544.978 56.991H543.76C543.788 56.6647 543.808 56.2713 543.817 55.8299L534.557 46.5697V48.1914L551.964 65.5986L551.974 65.6082Z" fill="#E59816"/>
<path d="M543.865 52.0396V50.4178L534.567 41.1193V42.741L543.865 52.0396Z" fill="#E59816"/>
<path d="M546.514 65.6083H548.145L534.557 52.0203C534.557 52.5576 534.547 53.095 534.538 53.6324L546.523 65.6178L546.514 65.6083Z" fill="#E59816"/>
<path d="M665.716 59.5433H667.299L657.713 49.9473H656.12L665.716 59.5433Z" fill="#E59816"/>
<path d="M672.634 59.5433L663.038 49.9473H661.445L671.042 59.5433H672.634Z" fill="#E59816"/>
<path d="M675.484 62.3934C674.976 62.2591 674.429 62.2399 673.843 62.3454L679.918 68.4197C679.476 67.3834 679.035 66.4046 678.584 65.4929L675.484 62.3934Z" fill="#E59816"/>
<path d="M665.236 64.3893V62.7964L652.387 49.9473H650.794L665.236 64.3893Z" fill="#E59816"/>
<path d="M671.166 63.4105C670.83 63.6312 670.533 63.8711 670.283 64.1206L680.897 74.7338C680.897 74.7338 680.964 74.6571 680.983 74.6187C681.175 74.3116 681.28 73.9566 681.338 73.5919L671.166 63.4201V63.4105Z" fill="#E59816"/>
<path d="M683.075 27.3679C682.94 27.7613 682.806 28.1643 682.672 28.5482L691.683 37.5589C691.836 37.1846 691.98 36.8008 692.134 36.4169L683.075 27.3583V27.3679Z" fill="#E59816"/>
<path d="M664.267 31.4461H665.85L654.373 19.9692V21.5526L664.267 31.4461Z" fill="#E59816"/>
<path d="M667.606 45.4468H669.189L659.795 36.0522H659.651H658.212L667.606 45.4468Z" fill="#E59816"/>
<path d="M674.515 45.4468L665.121 36.0522H663.537L672.932 45.4468H674.515Z" fill="#E59816"/>
<path d="M658.931 31.4462H659.651H660.524L651.13 22.0516H649.537L658.931 31.4462Z" fill="#E59816"/>
<path d="M662.28 45.4468H663.864L654.469 36.0522H652.876L662.28 45.4468Z" fill="#E59816"/>
<path d="M676.242 22.1188L679.956 25.8325C679.697 23.6158 678.459 22.3779 676.242 22.1188Z" fill="#E59816"/>
<path d="M674.237 77.1233L672.193 75.0793C672.711 76.1157 673.393 76.797 674.237 77.1233Z" fill="#E59816"/>
<path d="M674.189 36.0522L679.428 41.2917V41.2437C680.215 41.7619 680.801 42.1937 681.194 42.52C682.01 43.2109 682.845 43.6907 683.679 43.9594L675.782 36.0619H674.189V36.0522Z" fill="#E59816"/>
<path d="M678.939 30.141C679.189 29.8628 679.39 29.5365 679.553 29.1623L672.433 22.042H670.84L678.929 30.1314L678.939 30.141Z" fill="#E59816"/>
<path d="M674.918 31.4462H675.312C675.705 31.4462 676.079 31.4174 676.425 31.3694L667.107 22.0516H665.514L674.909 31.4462H674.918Z" fill="#E59816"/>
<path d="M679.995 34.9294C679.822 35.2845 679.64 35.6396 679.457 35.985L687.278 43.8058C687.643 43.6618 687.978 43.4699 688.305 43.2396L679.995 34.9294Z" fill="#E59816"/>
<path d="M694.331 54.6013C694.216 55.0139 694.101 55.417 693.966 55.8296L701.269 63.1322C701.384 62.71 701.499 62.2973 701.605 61.8751L694.331 54.6013Z" fill="#E59816"/>
<path d="M673.69 49.9473H672.097L681.156 59.0059C681.511 58.8332 681.837 58.6317 682.106 58.363L673.69 49.9473Z" fill="#E59816"/>
<path d="M679.169 44.7655L670.447 36.0427H668.854L678.19 45.3797C678.632 45.2933 678.958 45.0822 679.16 44.7559L679.169 44.7655Z" fill="#E59816"/>
<path d="M668.364 49.9473H666.781L676.367 59.5433H677.96L668.364 49.9473Z" fill="#E59816"/>
<path d="M700.367 65.9726L693.016 58.6221C692.873 59.0059 692.728 59.3898 692.575 59.7736L699.945 67.1434C700.089 66.7499 700.233 66.3661 700.367 65.9822V65.9726Z" fill="#E59816"/>
<path d="M656.945 45.4468H658.538L649.143 36.0522H647.55L656.945 45.4468Z" fill="#E59816"/>
<path d="M636.563 76.7491C636.361 77.133 636.198 77.4976 636.073 77.8527L641.716 83.4952C642.148 83.4472 642.551 83.3224 642.944 83.1305L636.563 76.7491Z" fill="#E59816"/>
<path d="M640.564 59.5433H640.66L635.776 54.6589C635.776 54.6589 635.776 54.7165 635.776 54.7453C635.776 55.3786 635.853 55.9352 635.987 56.4438L638.876 59.3322C639.384 59.457 639.941 59.5433 640.574 59.5433H640.564Z" fill="#E59816"/>
<path d="M644.403 59.5434H645.996L637.331 50.8782C637.033 51.1085 636.764 51.3772 636.553 51.6938L644.403 59.5434Z" fill="#E59816"/>
<path d="M649.729 59.5433H651.322L641.726 49.9473H640.564C640.421 49.9473 640.296 49.9665 640.161 49.9761L649.729 59.5433Z" fill="#E59816"/>
<path d="M654.469 78.6779V80.0021C654.469 80.0885 654.45 80.1557 654.44 80.2324L662.722 88.5138C663.019 88.2739 663.288 88.0052 663.518 87.7173L654.479 78.6779H654.469Z" fill="#E59816"/>
<path d="M713.226 36.1961C713.158 36.6375 713.091 37.1077 713.024 37.5876L720.528 45.0916C720.816 44.8901 721.075 44.6118 721.286 44.2568L713.216 36.1865L713.226 36.1961Z" fill="#E59816"/>
<path d="M643.99 31.4461H644.537L639.327 26.2355C639.317 26.4082 639.288 26.5617 639.288 26.7441C639.288 27.1471 639.317 27.5213 639.365 27.8668L642.868 31.3693C643.213 31.4173 643.587 31.4461 643.99 31.4461Z" fill="#E59816"/>
<path d="M696.577 42.4527L711.124 57.0003C710.961 56.5109 710.798 56.0311 710.644 55.5225C710.558 55.2442 710.491 54.9755 710.414 54.6972L696.672 40.9557C696.644 41.4547 696.625 41.9537 696.586 42.4527H696.577Z" fill="#E59816"/>
<path d="M654.469 68.0167V69.6097L665.236 80.3764C665.236 80.3764 665.236 80.3284 665.236 80.2997V78.7931L654.469 68.0263V68.0167Z" fill="#E59816"/>
<path d="M680.35 77.9198C680.091 78.1981 679.831 78.486 679.611 78.7738L687.527 86.6906C687.662 86.585 687.796 86.4795 687.94 86.3643C688.084 86.2204 688.218 86.0764 688.362 85.9325L680.35 77.9198Z" fill="#E59816"/>
<path d="M682.154 12.043C682.134 11.3233 682.039 10.6899 681.847 10.143L679.591 7.88789C679.044 7.69597 678.411 7.6 677.691 7.58081L682.154 12.043Z" fill="#E59816"/>
<path d="M669.257 66.8268C669.295 67.4793 669.468 68.1894 669.804 68.9571L677.73 76.8834C677.903 76.8163 678.075 76.7491 678.248 76.6723C678.459 76.5859 678.632 76.49 678.824 76.394L669.257 66.8268Z" fill="#E59816"/>
<path d="M707.909 32.4728V30.8799L687.249 10.2196C687.172 10.6706 687.086 11.1216 687.009 11.5726L707.909 32.4728Z" fill="#E59816"/>
<path d="M681.635 31.2543C681.482 31.6381 681.328 32.0028 681.165 32.377L690.032 41.2438C690.032 41.2438 690.07 41.1766 690.09 41.1478C690.243 40.8311 690.387 40.4857 690.531 40.1594L681.626 31.2543H681.635Z" fill="#E59816"/>
<path d="M699.705 17.3593H698.121L708.687 27.9245H710.28L699.705 17.3593Z" fill="#E59816"/>
<path d="M678.546 49.9472H677.432L683.267 55.7816C683.305 55.4553 683.334 55.1099 683.334 54.7356C683.334 54.5533 683.315 54.3998 683.296 54.2271L679.045 49.976C678.872 49.9664 678.718 49.9376 678.536 49.9376L678.546 49.9472Z" fill="#E59816"/>
<path d="M699.331 7.91666C699.379 7.60959 699.436 7.30252 699.484 6.98585C699.503 6.82271 699.503 6.67876 699.513 6.52523L693.343 0.35498C692.844 0.35498 692.373 0.422155 691.932 0.537308L699.321 7.92625L699.331 7.91666Z" fill="#E59816"/>
<path d="M649.873 17.0618H651.466L641.975 7.57129H641.745C641.294 7.57129 640.881 7.60967 640.488 7.67685L649.873 17.0618Z" fill="#E59816"/>
<path d="M697.642 16.8793C697.728 16.4763 697.824 16.0444 697.93 15.5742L687.998 5.64233C687.988 5.7287 687.959 5.81507 687.95 5.90143C687.892 6.27568 687.835 6.64032 687.777 7.00497L697.651 16.8793H697.642Z" fill="#E59816"/>
<path d="M698.534 12.4461C698.611 12.0142 698.697 11.5728 698.784 11.1026L689.629 1.948C689.38 2.22628 689.149 2.52376 688.948 2.85962L698.534 12.4461Z" fill="#E59816"/>
<path d="M648.28 31.4461H649.873L641.14 22.7137C640.814 22.9153 640.536 23.1744 640.296 23.4622L648.289 31.4557L648.28 31.4461Z" fill="#E59816"/>
<path d="M695.118 51.6458L702.267 58.7948C702.324 58.4877 702.382 58.1807 702.43 57.8736C702.497 58.3054 702.574 58.7372 702.651 59.1787L724.885 81.4127C724.856 81.1728 724.808 80.9329 724.75 80.6834C724.568 80.0884 724.309 79.5031 724.002 78.9369L695.406 50.3407C695.31 50.7725 695.223 51.2043 695.118 51.6362V51.6458Z" fill="#E59816"/>
<path d="M703.745 64.0151C703.946 64.7636 704.167 65.5025 704.407 66.2606L723.896 85.7501C724.108 85.4143 724.299 85.0688 724.453 84.7137L703.745 64.0055V64.0151Z" fill="#E59816"/>
<path d="M691.481 62.4031C691.318 62.7677 691.145 63.1228 690.972 63.4778L698.39 70.8956C698.553 70.5309 698.726 70.1663 698.88 69.8016L691.481 62.4031Z" fill="#E59816"/>
<path d="M687.71 69.293C687.499 69.6096 687.288 69.9359 687.076 70.243L694.705 77.8718C694.907 77.5456 695.099 77.2097 695.3 76.8834L687.71 69.293Z" fill="#E59816"/>
<path d="M706.576 72.1717C706.969 73.1409 707.382 74.0813 707.813 74.9929L721.142 88.3218C721.488 88.1779 721.824 87.986 722.14 87.7365L706.566 72.1621L706.576 72.1717Z" fill="#E59816"/>
<path d="M713.35 84.2819C713.869 84.9632 714.406 85.6253 714.953 86.2586C715.548 86.8152 716.133 87.2566 716.69 87.6213L713.35 84.2819Z" fill="#E59816"/>
<path d="M689.696 65.9536C689.504 66.2991 689.322 66.6445 689.13 66.9804L696.634 74.4845C696.816 74.139 696.999 73.7936 697.181 73.4385L689.696 65.9536Z" fill="#E59816"/>
<path d="M654.469 73.3425V74.9355L664.737 85.2032C664.842 84.8002 664.938 84.3684 665.006 83.8886L654.469 73.3521V73.3425Z" fill="#E59816"/>
<path d="M651.753 81.288C651.235 81.3168 650.775 81.3743 650.343 81.4703L659.114 90.2411C659.517 90.1163 659.92 89.982 660.294 89.8284L651.753 81.288Z" fill="#E59816"/>
<path d="M685.483 72.4021C685.253 72.6996 685.004 72.9779 684.764 73.2657L692.537 81.0385C692.757 80.7315 692.978 80.4244 693.199 80.1173L685.483 72.4021Z" fill="#E59816"/>
<path d="M678.306 81.2017C678.152 81.6335 678.056 82.0653 678.008 82.4875L683.996 88.4755C684.39 88.3891 684.793 88.2643 685.205 88.0916L678.315 81.2017H678.306Z" fill="#E59816"/>
<path d="M683.017 75.2616C682.758 75.5399 682.509 75.8086 682.24 76.0773L690.157 83.994C690.406 83.7157 690.656 83.4374 690.896 83.1495L683.017 75.2712V75.2616Z" fill="#E59816"/>
<path d="M654.469 62.6908V64.2741L665.236 75.0409V73.4575L654.469 62.6908Z" fill="#E59816"/>
<path d="M696.212 45.821C696.145 46.2817 696.087 46.7423 696.01 47.2125L714.895 66.0975C714.377 65.1091 713.897 64.0919 713.427 63.0459L696.212 45.8306V45.821Z" fill="#E59816"/>
<path d="M713.801 31.4462C713.763 31.8876 713.715 32.3674 713.648 32.8856L722.169 41.4069C722.256 40.9846 722.351 40.5432 722.438 40.0922L713.792 31.4462H713.801Z" fill="#E59816"/>
<path d="M705.031 17.3593H703.438L723.033 36.9544C723.11 36.5225 723.186 36.0619 723.273 35.6013L705.031 17.3593Z" fill="#E59816"/>
<path d="M715.692 17.3593H714.099L724.501 27.7614C724.568 27.3103 724.635 26.8401 724.702 26.3699L715.692 17.3593Z" fill="#E59816"/>
<path d="M721.334 17.6661C720.768 17.4934 720.135 17.3878 719.444 17.3687L725 22.9248C724.971 22.2339 724.866 21.6005 724.683 21.0247L721.325 17.6661H721.334Z" fill="#E59816"/>
<path d="M710.366 17.3593H708.773L723.81 32.3962C723.877 31.9548 723.954 31.4846 724.021 31.024L710.366 17.3688V17.3593Z" fill="#E59816"/>
<path d="M684.342 23.2991C684.226 23.7117 684.102 24.1243 683.977 24.5274L693.151 33.7012C693.285 33.3077 693.429 32.9143 693.563 32.5209L684.342 23.2991Z" fill="#E59816"/>
<path d="M696.749 35.7068V37.2997L709.167 49.717C709.032 49.0549 708.898 48.4024 708.783 47.7498L696.74 35.7068H696.749Z" fill="#E59816"/>
<path d="M712.621 40.927C712.659 42.8366 713.888 44.1801 716.325 44.9573C716.488 45.0053 716.623 45.0341 716.776 45.0821L712.621 40.927Z" fill="#E59816"/>
<path d="M686.414 14.7107C686.328 15.1521 686.232 15.5839 686.136 16.0253L707.909 37.7988V36.2058L686.414 14.7107Z" fill="#E59816"/>
<path d="M696.749 30.3809V31.9738L708.188 43.4123C708.13 42.8269 708.082 42.2512 708.044 41.6754L696.759 30.3905L696.749 30.3809Z" fill="#E59816"/>
<path d="M665.14 21.6679V20.0749L652.627 7.57129H651.034L665.14 21.6679Z" fill="#E59816"/>
<path d="M669.593 31.4462H671.176L647.301 7.57129H645.708L669.593 31.4462Z" fill="#E59816"/>
<path d="M647.963 82.8329C647.733 83.1496 647.56 83.5046 647.454 83.9172L654.594 91.0567C655.093 91.0183 655.553 90.9607 656.024 90.8936L647.953 82.8329H647.963Z" fill="#E59816"/>
<path d="M644.547 17.0616H646.14L638.05 8.97217C637.81 9.26005 637.609 9.58632 637.455 9.97016L644.556 17.0712L644.547 17.0616Z" fill="#E59816"/>
<path d="M640.737 16.9945L637.12 13.3768C637.417 15.5167 638.626 16.7259 640.737 16.9945Z" fill="#E59816"/>
<path d="M685.445 19.0769C685.34 19.5087 685.234 19.931 685.128 20.3532L694.456 29.6805C694.581 29.2775 694.705 28.8745 694.821 28.4618L685.436 19.0769H685.445Z" fill="#E59816"/>
<path d="M671.185 17.0617H672.778L656.695 0.97876C656.35 1.16108 656.033 1.3722 655.765 1.6313L671.195 17.0617H671.185Z" fill="#E59816"/>
<path d="M668.604 7.57129H667.011L676.502 17.0618H677.452C677.663 17.0618 677.845 17.033 678.047 17.0234L668.594 7.57129H668.604Z" fill="#E59816"/>
<path d="M655.198 31.4462L645.794 22.0516H644.211L653.605 31.4462H655.198Z" fill="#E59816"/>
<path d="M680.801 16.0158C681.079 15.7663 681.328 15.488 681.52 15.1522L673.94 7.57129H672.347L680.801 16.0254V16.0158Z" fill="#E59816"/>
<path d="M665.13 5.68089C665.13 5.00916 665.044 4.4238 664.919 3.87683L661.58 0.537408C661.033 0.412659 660.447 0.326294 659.776 0.326294L665.13 5.68089Z" fill="#E59816"/>
<path d="M665.86 17.0617H667.453L654.527 4.13586C654.44 4.57728 654.383 5.05708 654.383 5.57527L665.86 17.0521V17.0617Z" fill="#E59816"/>
<path d="M651.619 45.4468H653.212L643.865 36.1002C643.376 36.1482 642.925 36.2154 642.522 36.3497L651.619 45.4468Z" fill="#E59816"/>
<path d="M648.145 73.9373C648.289 73.5438 648.424 73.1504 648.558 72.7666L640.862 65.0706C640.718 65.4448 640.593 65.8478 640.497 66.2988L648.145 73.9469V73.9373Z" fill="#E59816"/>
<path d="M648.433 88.6193C648.798 89.1854 649.268 89.646 649.825 90.0107L648.433 88.6193Z" fill="#E59816"/>
<path d="M647.32 62.4604L650.017 65.1569C649.709 63.8615 648.817 62.9594 647.32 62.4604Z" fill="#E59816"/>
<path d="M644.873 81.3168C644.969 81.1728 645.075 81.0385 645.17 80.8754C645.266 80.6834 645.343 80.4915 645.439 80.2996L638.271 73.1313C638.117 73.5056 637.964 73.8894 637.801 74.2541L644.863 81.3168H644.873Z" fill="#E59816"/>
<path d="M646.629 77.7471C646.792 77.3728 646.936 76.9986 647.09 76.6243L639.682 69.2162C639.557 69.6288 639.422 70.0127 639.288 70.4061L646.629 77.7471Z" fill="#E59816"/>
<path d="M646.293 45.4467H647.886L640.478 38.0386C640.296 38.384 640.161 38.7775 640.065 39.2093L646.303 45.4467H646.293Z" fill="#E59816"/>
<path d="M642.033 44.9286L640.392 43.2877C640.747 44.0266 641.294 44.5736 642.033 44.9286Z" fill="#E59816"/>
<path d="M649.441 69.9071C649.556 69.4848 649.661 69.0626 649.767 68.65L643.434 62.307C643.059 62.4414 642.704 62.6141 642.397 62.854L649.45 69.9071H649.441Z" fill="#E59816"/>
<path d="M665.236 68.1318L647.051 49.9473H645.468L665.236 69.7151V68.1318Z" fill="#E59816"/>
</svg>
