<svg width="164" height="165" viewBox="0 0 164 165" fill="none" xmlns="http://www.w3.org/2000/svg">
<path d="M86.1537 165C129.147 165 164 130.229 164 87.3374C164 44.4456 129.147 9.67487 86.1537 9.67487C43.1604 9.67487 8.3075 44.4456 8.3075 87.3374C8.3075 130.229 43.1604 165 86.1537 165Z" fill="#F9D44F" fill-opacity="0.6"/>
<path d="M77.8463 155.325C120.84 155.325 155.693 120.554 155.693 77.6626C155.693 34.7707 120.84 0 77.8463 0C34.853 0 0 34.7707 0 77.6626C0 120.554 34.853 155.325 77.8463 155.325Z" fill="white"/>
<path d="M32.0869 115.23C31.1146 115.23 30.6285 114.754 30.6285 113.801V107.172H22.3722C21.7837 107.172 21.306 106.993 20.9393 106.628C20.5725 106.262 20.3934 105.785 20.3934 105.198V93.3107C20.3934 92.7236 20.5725 92.2471 20.9393 91.8812C21.306 91.5153 21.7837 91.3366 22.3722 91.3366H30.6285V88.7839C30.6285 87.8309 31.1146 87.3544 32.0869 87.3544C33.0422 87.3544 33.5199 87.8309 33.5199 88.7839V91.3366H38.791H42.0832C42.6717 91.3366 43.1494 91.5153 43.5161 91.8812C43.8829 92.2471 44.062 92.7236 44.062 93.3107V105.198C44.062 105.785 43.8829 106.262 43.5161 106.628C43.1494 106.993 42.6717 107.172 42.0832 107.172H33.5199V113.801C33.5114 114.754 33.0422 115.23 32.0869 115.23ZM23.1569 97.8461H26.8756H30.6199V94.051H23.8904C23.4042 94.051 23.1569 94.2978 23.1569 94.7828V97.8461ZM23.8904 104.475H30.6199V100.458H26.8756H23.1569V103.743C23.1569 104.228 23.4042 104.475 23.8904 104.475ZM33.5114 97.8461H37.3154H41.1535V94.7743C41.1535 94.2893 40.9062 94.0425 40.42 94.0425H33.5028V97.8461H33.5114ZM33.5114 104.475H40.4285C40.9147 104.475 41.1621 104.228 41.1621 103.743V100.458H37.3239H33.5199V104.475H33.5114Z" fill="#0569AA"/>
<path d="M56.8473 115.145C55.9773 115.145 55.5338 114.711 55.5338 113.835V109.274H51.9686C51.1753 109.274 50.783 108.865 50.783 108.057C50.783 107.266 51.1753 106.874 51.9686 106.874H55.5338V104.015H51.7298C50.9195 104.015 50.5101 103.607 50.5101 102.798C50.5101 101.99 50.9195 101.582 51.7298 101.582H53.1627C53.0774 100.952 52.8556 100.135 52.4889 99.1225C52.3439 98.7822 52.3353 98.4759 52.4547 98.2291C52.5741 97.9738 52.813 97.7951 53.1541 97.7015L53.2479 97.6675H51.2095C50.4163 97.6675 50.0239 97.259 50.0239 96.4507C50.0239 95.6593 50.4163 95.2679 51.2095 95.2679H52.7618H55.5338V92.6216H52.2757C51.4824 92.6216 51.0901 92.2301 51.0901 91.4388C51.0901 90.6474 51.4824 90.256 52.2757 90.256H55.5338V88.7074C55.5338 87.8395 55.9688 87.397 56.8473 87.397C57.7173 87.397 58.1608 87.831 58.1608 88.7074V90.256H61.146C61.9392 90.256 62.3316 90.6474 62.3316 91.4388C62.3316 92.2301 61.9392 92.6216 61.146 92.6216H58.1608V95.2679H62.2463C63.0395 95.2679 63.4318 95.6593 63.4318 96.4507C63.4318 97.259 63.0395 97.6675 62.2463 97.6675H60.6343L61.3678 97.8462C61.7345 97.9483 61.8454 98.1865 61.7004 98.5779C61.1887 99.8713 60.7537 100.875 60.387 101.59H61.8454C62.6557 101.59 63.0651 101.999 63.0651 102.807C63.0651 103.615 62.6557 104.024 61.8454 104.024H58.1608V106.883H61.4787C62.2719 106.883 62.6642 107.274 62.6642 108.066C62.6642 108.874 62.2719 109.282 61.4787 109.282H58.1608V113.843C58.1608 114.703 57.7258 115.145 56.8473 115.145ZM54.4421 101.59H59.2526L58.647 101.437C58.3655 101.335 58.2717 101.173 58.374 100.952C58.8772 99.6756 59.244 98.5779 59.4743 97.6675H56.8558H54.2629C54.732 98.6375 55.0732 99.5905 55.295 100.527C55.3376 100.748 55.2865 100.961 55.1415 101.148C54.9965 101.343 54.7917 101.48 54.5359 101.556L54.4421 101.59ZM74.9805 114.439C73.9058 113.648 72.9079 112.72 71.9952 111.639C71.3214 112.533 70.6135 113.324 69.8629 114.013C69.4194 114.396 68.9247 114.567 68.4044 114.533C67.8756 114.49 67.4065 114.252 67.0056 113.801C66.9885 113.784 66.9459 113.75 66.9032 113.707C66.8521 113.665 66.818 113.639 66.8009 113.614V113.979C66.8009 114.813 66.383 115.222 65.5557 115.222C64.7027 115.222 64.2763 114.805 64.2763 113.979V90.6389C64.2763 90.0518 64.4554 89.5753 64.8221 89.2094C65.1889 88.8435 65.6665 88.6648 66.255 88.6648H70.2723H74.2896C74.8781 88.6648 75.3557 88.8435 75.7225 89.2094C76.0892 89.5753 76.2684 90.0518 76.2684 90.6389V94.4085C76.2684 95.0977 76.1745 95.6168 75.9954 95.9571C75.7907 96.3656 75.4325 96.6549 74.9293 96.8421C74.3834 97.0633 73.2831 97.1995 71.637 97.2335C70.6391 97.2335 70.0335 96.9102 69.8117 96.2635C69.4876 95.2935 70.042 94.8254 71.4834 94.868C72.379 94.868 72.9079 94.8594 73.0699 94.8339C73.2917 94.8169 73.4452 94.7744 73.5305 94.7148C73.6072 94.6553 73.6499 94.5446 73.6499 94.383V91.8898C73.6499 91.4048 73.4026 91.158 72.9164 91.158H67.5259C67.0397 91.158 66.7924 91.4048 66.7924 91.8898V98.9438H74.8355C75.4837 98.9438 75.9698 99.1481 76.2854 99.548C76.601 99.9564 76.6863 100.518 76.5413 101.25C75.9357 104.245 74.9378 106.951 73.5561 109.367C74.4858 110.44 75.4666 111.333 76.4816 112.039C77.0275 112.363 77.343 112.686 77.4283 113.009C77.5307 113.358 77.3857 113.758 77.0019 114.226C76.4219 114.898 75.7481 114.966 74.9805 114.439ZM67.3639 112.678C68.4215 111.844 69.4279 110.772 70.3832 109.453C68.9417 107.223 67.7391 104.492 66.7924 101.25V107.181V112.38C66.7838 112.839 66.9715 112.941 67.3639 112.678ZM71.8076 107.087C72.6008 105.564 73.2575 103.854 73.7863 101.948C73.9057 101.48 73.7266 101.25 73.2405 101.25H71.5346H69.1294C69.7947 103.318 70.6902 105.266 71.8076 107.087Z" fill="#0569AA"/>
<path d="M82.8358 114.379C82.0853 113.486 82.4435 112.635 83.902 111.827C86.6399 110.023 88.559 107.487 89.6592 104.228C90.3672 102.041 90.8192 98.9864 90.9983 95.0807H83.4159C82.5203 95.0807 82.0768 94.6212 82.0768 93.7107C82.0768 92.8173 82.5203 92.3748 83.4159 92.3748H93.958V88.6393C93.958 87.6863 94.4356 87.2098 95.3909 87.2098C96.3462 87.2098 96.8238 87.6863 96.8238 88.6393V92.3748H107.605C108.5 92.3748 108.944 92.8173 108.944 93.7107C108.944 94.6212 108.5 95.0807 107.605 95.0807H101.515L94.1115 95.1147V95.1743C93.9921 97.1399 93.8642 98.612 93.7448 99.582H103.46C104.133 99.582 104.611 99.8373 104.892 100.339C105.217 100.926 105.327 101.922 105.225 103.318C104.961 106.704 104.654 109.206 104.312 110.823C103.988 112.363 103.57 113.409 103.067 113.954C102.7 114.362 102.282 114.643 101.822 114.805C101.413 114.966 100.875 115.077 100.193 115.128C99.5105 115.179 98.3761 115.188 96.7982 115.145C95.6809 115.128 95.0242 114.643 94.8195 113.69V113.656L94.7853 113.597C94.3588 112.746 94.7 112.363 95.8174 112.439C97.2759 112.499 98.4103 112.533 99.1949 112.533C99.8432 112.533 100.321 112.405 100.628 112.141C101.378 111.512 101.958 108.67 102.368 103.598C102.385 103.071 102.351 102.705 102.248 102.501C102.163 102.339 101.993 102.254 101.728 102.254H93.2927C92.7468 104.892 91.8939 107.147 90.7339 109.027C89.3948 111.274 87.5696 113.111 85.2496 114.524C84.2261 115.103 83.4244 115.052 82.8358 114.379Z" fill="#0569AA"/>
<path d="M118.147 115.205C117.251 115.205 116.808 114.762 116.808 113.869V99.3692C116.603 99.6756 116.347 100.024 116.049 100.433C115.605 100.977 115.204 101.25 114.846 101.241C114.488 101.233 114.147 100.918 113.823 100.314C113.601 99.9053 113.498 99.5479 113.516 99.2331C113.533 98.9183 113.695 98.5779 114.002 98.212C116.091 95.6167 117.831 92.4684 119.213 88.7584C119.52 87.9075 120.109 87.6012 120.979 87.8479C121.874 88.1287 122.164 88.6988 121.866 89.5497C121.234 91.1495 120.441 92.9193 119.486 94.8679V105.053V113.869C119.486 114.754 119.034 115.205 118.147 115.205ZM121.371 114.413C120.663 113.46 121.047 112.788 122.531 112.405C123.827 111.997 124.945 111.503 125.883 110.916C124.604 110.006 123.571 109.07 122.778 108.117C122.207 107.325 122.394 106.772 123.324 106.449C124.015 106.202 124.561 106.347 124.97 106.874C125.738 107.725 126.727 108.508 127.921 109.214C128.791 108.219 129.38 106.968 129.687 105.445H124.783C124.194 105.445 123.716 105.266 123.35 104.9C122.983 104.534 122.804 104.058 122.804 103.471V95.6933C122.804 95.1062 122.983 94.6297 123.35 94.2638C123.716 93.8979 124.194 93.7192 124.783 93.7192H129.96V91.4728H123.409C122.599 91.4728 122.19 91.0558 122.19 90.2305C122.19 89.4221 122.599 89.0137 123.409 89.0137H131.359H139.342C140.152 89.0137 140.562 89.4221 140.562 90.2305C140.562 91.0644 140.152 91.4728 139.342 91.4728H132.732V93.7192H137.696C138.284 93.7192 138.762 93.8979 139.129 94.2638C139.496 94.6297 139.675 95.1062 139.675 95.6933V103.471C139.675 104.058 139.496 104.534 139.129 104.9C138.762 105.266 138.284 105.445 137.696 105.445H132.425C132.101 107.351 131.41 108.985 130.352 110.337C132.664 111.248 135.521 111.878 138.916 112.218C140.562 112.363 141.014 113.001 140.289 114.133C139.905 114.737 139.265 114.992 138.37 114.89C134.387 114.447 131.06 113.579 128.373 112.303C127.077 113.299 125.431 114.15 123.435 114.856C122.531 115.171 121.84 115.017 121.371 114.413ZM125.422 98.5779H129.96V95.8464H127.674H126.147C125.661 95.8464 125.414 96.0933 125.414 96.5783V98.5779H125.422ZM126.156 103.317H129.934C129.951 103.011 129.968 102.535 129.968 101.888V100.578H127.683H125.431V102.586C125.422 103.079 125.67 103.317 126.156 103.317ZM132.706 103.317H134.804H136.203C136.689 103.317 136.937 103.071 136.937 102.586V100.578H132.732V101.913C132.74 102.552 132.723 103.011 132.706 103.317ZM132.74 98.5779H134.839H136.937V96.5698C136.937 96.0847 136.689 95.838 136.203 95.838H132.732V98.5779H132.74Z" fill="#0569AA"/>
<path d="M76.1148 66.3456C75.3983 65.6308 75.5604 65.0011 76.6009 64.4651C79.3047 62.7718 81.0617 59.9978 81.8635 56.1432H79.245C78.7844 56.1432 78.4176 56.007 78.1447 55.7262C77.8632 55.4539 77.7268 55.088 77.7268 54.6285V54.552C77.3344 55.054 76.9848 55.4624 76.6777 55.7688C76.0892 56.3219 75.5092 56.3474 74.9378 55.8453C74.5795 55.522 74.4004 55.2072 74.409 54.9179C74.4175 54.6285 74.6051 54.3137 74.9804 53.9904C76.5157 52.5098 77.7439 50.6463 78.6736 48.3999C78.955 47.6511 79.4668 47.3618 80.2174 47.5234C81.0532 47.7191 81.3005 48.2297 80.9764 49.0636C80.2088 50.8675 79.2706 52.5183 78.1618 54.0159H85.1131H92.0815C90.2903 52.0843 88.9171 49.7784 87.9704 47.1065H82.8358C82.1364 47.1065 81.7867 46.7576 81.7867 46.0599C81.7867 45.3621 82.1364 45.0132 82.8358 45.0132H88.3116C88.721 45.0132 89.0792 45.1239 89.3863 45.3536C89.6933 45.5834 89.915 45.8982 90.043 46.3066C91.203 49.3954 92.9088 51.7865 95.1776 53.4798C95.6211 53.7691 95.877 54.0584 95.9623 54.3307C96.0476 54.637 95.9282 54.9944 95.6211 55.4029C95.3397 55.7773 95.0582 55.973 94.7682 55.99C94.4782 56.007 94.1285 55.8709 93.7447 55.573C93.3012 55.2327 92.7894 54.7477 92.2009 54.135C92.2009 54.2031 92.2009 54.3477 92.1924 54.5775C92.1838 54.8072 92.1753 54.9604 92.1583 55.037C91.9792 58.6618 91.7744 61.2656 91.5441 62.8483C91.2968 64.4395 90.9642 65.4776 90.5377 65.9456C90.0942 66.4987 89.4374 66.8221 88.5589 66.9242C87.8083 66.9582 87.0919 66.9667 86.4095 66.9497C85.531 66.9157 85.0022 66.5328 84.8402 65.801V65.7755L84.8146 65.7244C84.4905 65.0267 84.7805 64.7118 85.6931 64.7969C86.2475 64.8139 86.8872 64.8224 87.6036 64.8224C88.0472 64.8224 88.3713 64.7288 88.5845 64.5331C88.8745 64.2268 89.1218 63.4355 89.3095 62.1676C89.4971 60.8997 89.6762 58.8916 89.8383 56.1432H84.2858C83.7996 58.5853 83.0235 60.6445 81.9658 62.3293C80.9082 64.0141 79.5179 65.3926 77.8036 66.4647C77.1553 66.8476 76.5924 66.8051 76.1148 66.3456Z" fill="#0569AA"/>
<path d="M100.235 66.0563C100.073 65.9286 99.954 65.6819 99.8687 65.3245C99.7834 64.9671 99.8005 64.6948 99.9199 64.5076C100.039 64.3204 100.261 64.1928 100.602 64.1332C101.549 63.9715 102.496 63.8014 103.442 63.6227V56.7133H100.875C100.218 56.7133 99.8943 56.3814 99.8943 55.7092C99.8943 55.0625 100.218 54.7307 100.875 54.7307H103.442V52.5098H102.12C101.813 52.5098 101.566 52.4247 101.387 52.2375C101.208 52.0588 101.114 51.812 101.114 51.5057L101.088 51.4546C100.602 51.9141 100.142 51.9141 99.7152 51.4802C99.229 50.9611 99.2802 50.4166 99.8858 49.8464C101.123 48.5956 102.163 47.1235 102.99 45.4302C103.084 45.2005 103.272 45.0048 103.545 44.8431C103.818 44.6814 104.099 44.5963 104.415 44.5963H104.492C105.012 44.5963 105.472 44.7665 105.865 45.1069C107.101 46.213 108.108 47.2341 108.876 48.1786C109.072 48.4254 109.157 48.6467 109.149 48.8594C109.114 49.0551 108.995 49.2848 108.782 49.5401C108.475 49.8975 108.202 50.0847 107.971 50.1017C107.724 50.1187 107.477 49.9485 107.212 49.5912C106.317 48.4169 105.455 47.4554 104.619 46.6895C103.937 47.8978 103.17 49.0211 102.317 50.0847C102.035 50.408 102.095 50.5697 102.487 50.5697H104.909H106.991C107.63 50.5697 107.946 50.8846 107.946 51.5227C107.946 52.1779 107.63 52.5013 106.991 52.5013H105.404V54.7221H107.707C108.355 54.7221 108.688 55.0455 108.688 55.7007C108.688 56.3644 108.364 56.7048 107.707 56.7048H105.404V63.2483C105.959 63.1547 106.786 62.9845 107.903 62.7633C108.569 62.6356 108.927 62.9079 108.978 63.5972C109.029 64.1673 108.765 64.5161 108.193 64.6438C105.831 65.1798 103.425 65.6819 100.977 66.1584C100.645 66.2179 100.398 66.1839 100.235 66.0563ZM101.071 61.8102C101.037 61.5805 100.978 61.2146 100.901 60.7126C100.884 60.619 100.875 60.5424 100.875 60.4913C100.781 59.9893 100.662 59.4617 100.534 58.9086C100.389 58.4236 100.56 58.1173 101.063 57.9896C101.558 57.8705 101.873 58.0407 102.001 58.5172C102.308 59.6574 102.53 60.687 102.658 61.6145C102.709 62.0059 102.496 62.2697 102.018 62.3974C101.438 62.542 101.122 62.3463 101.071 61.8102ZM106.743 62.0059C106.257 61.8783 106.078 61.589 106.206 61.155C106.479 60.1339 106.684 59.232 106.82 58.4747C106.914 57.9045 107.264 57.6918 107.844 57.8365C108.381 57.9811 108.577 58.3215 108.432 58.8576C108.381 59.0022 108.313 59.232 108.227 59.5383C108.134 59.8446 108.065 60.0829 108.023 60.2446C107.954 60.4743 107.861 60.7977 107.733 61.2231C107.681 61.3848 107.647 61.5039 107.639 61.589C107.494 61.9974 107.204 62.1336 106.743 62.0059ZM109.097 66.4987C108.492 66.4987 108.193 66.2009 108.193 65.5968C108.193 64.9926 108.492 64.6948 109.097 64.6948H113.967V63.1121H110.249C109.694 63.1121 109.413 62.8313 109.413 62.2612C109.413 61.7081 109.686 61.4273 110.249 61.4273H113.967V60.1084H111.178C110.709 60.1084 110.326 59.9637 110.027 59.6659C109.728 59.3681 109.584 58.9937 109.584 58.5172V54.4669C109.584 53.9989 109.728 53.616 110.027 53.3181C110.326 53.0203 110.701 52.8757 111.178 52.8757H119.128C119.597 52.8757 119.981 53.0203 120.279 53.3181C120.578 53.616 120.723 53.9904 120.723 54.4669V58.5172C120.723 58.9937 120.578 59.3681 120.279 59.6659C119.981 59.9637 119.605 60.1084 119.128 60.1084H116.049V61.4273H119.964C120.518 61.4273 120.799 61.7081 120.799 62.2612C120.799 62.8313 120.518 63.1121 119.964 63.1121H116.049V64.6948H120.791C121.396 64.6948 121.695 64.9926 121.695 65.5968C121.695 66.2009 121.396 66.4987 120.791 66.4987H114.948H109.097ZM109.362 51.8801C108.773 51.8801 108.483 51.5908 108.483 51.0037C108.483 50.4165 108.773 50.1272 109.362 50.1272H111.613C111.52 49.7018 111.358 49.2338 111.153 48.7147C111.068 48.519 111.068 48.3488 111.144 48.2042C111.221 48.0595 111.358 47.9574 111.571 47.9149L111.648 47.8893H109.984C109.43 47.8893 109.149 47.6171 109.149 47.0555C109.149 46.5024 109.421 46.2216 109.984 46.2216H113.925V45.7621C113.925 45.0643 114.283 44.7155 115 44.7155C115.699 44.7155 116.049 45.0643 116.049 45.7621V46.2216H120.305C120.859 46.2216 121.141 46.5024 121.141 47.0555C121.141 47.6085 120.859 47.8893 120.305 47.8893H118.616L119.034 48.0085C119.23 48.0595 119.29 48.1701 119.204 48.3488C118.88 49.0125 118.565 49.6082 118.275 50.1272H120.748C121.337 50.1272 121.627 50.4165 121.627 51.0037C121.627 51.5908 121.337 51.8801 120.748 51.8801H115.051H109.362ZM111.392 55.7858H113.959V54.3222H112.663H111.955C111.579 54.3222 111.392 54.5094 111.392 54.8838V55.7858ZM111.98 58.6619H113.959V57.1728H112.663H111.392V58.0747C111.392 58.4661 111.588 58.6619 111.98 58.6619ZM113.225 50.1187H116.526L116.356 50.0677C116.748 49.3359 117.064 48.6041 117.311 47.8723H115.034H112.756C113.149 48.5871 113.413 49.2253 113.567 49.7784C113.601 49.94 113.507 50.0506 113.294 50.0932L113.225 50.1187ZM116.04 55.7858H117.43H118.846V54.9093C118.846 54.5179 118.65 54.3222 118.258 54.3222H116.032V55.7858H116.04ZM116.04 58.6619H117.43H118.266C118.659 58.6619 118.855 58.4661 118.855 58.0747V57.1728H116.04V58.6619Z" fill="#0569AA"/>
<path d="M57.4614 71.0085C55.4741 71.0085 53.7256 70.3873 52.2757 69.1705C50.5783 67.8005 49.6913 65.869 49.6913 63.5715V47.2681C48.0878 47.0383 46.6293 46.3746 45.3499 45.294L45.2817 45.2344C43.6185 43.7368 42.7314 41.8223 42.7314 39.712C42.7314 37.2784 43.8317 35.1426 45.9128 33.5344L51.4654 29.2543C53.1883 27.9269 55.3461 27.2632 57.8878 27.2632C62.6557 27.2632 65.5045 30.3605 65.5045 35.5426V63.58C65.5045 65.9115 64.5577 67.8601 62.7581 69.2216C61.274 70.4043 59.4999 71.0085 57.4614 71.0085Z" fill="#0569AA"/>
<path d="M62.6983 63.5631C62.6983 65.0267 62.144 66.1754 61.0266 67.0093C60.0458 67.8092 58.8602 68.2091 57.4699 68.2091C56.1479 68.2091 55.0135 67.8092 54.0667 67.0093C53.0177 66.1754 52.4974 65.0267 52.4974 63.5631V44.3496C51.9004 44.4857 51.4142 44.5623 51.0303 44.5623C49.5633 44.5623 48.2754 44.0943 47.1581 43.1498C46.0749 42.1798 45.5375 41.031 45.5375 39.7036C45.5375 38.1379 46.2369 36.819 47.6272 35.7384L53.1712 31.4583C54.3909 30.5223 55.9603 30.0458 57.8793 30.0458C61.0863 30.0458 62.6898 31.8752 62.6898 35.5256V63.5631H62.6983Z" fill="white" stroke="#0569AA" stroke-width="2" stroke-miterlimit="10"/>
</svg>
