<svg width="164" height="120" viewBox="0 0 164 120" fill="none" xmlns="http://www.w3.org/2000/svg">
<mask id="mask0_17_4973" style="mask-type:luminance" maskUnits="userSpaceOnUse" x="0" y="26" width="86" height="86">
<path d="M43.12 111.51C66.6142 111.51 85.66 92.4642 85.66 68.97C85.66 45.4758 66.6142 26.4299 43.12 26.4299C19.6258 26.4299 0.580017 45.4758 0.580017 68.97C0.580017 92.4642 19.6258 111.51 43.12 111.51Z" fill="white"/>
</mask>
<g mask="url(#mask0_17_4973)">
<path d="M1.32001 27.6599C2.68415 27.6599 3.78998 26.5541 3.78998 25.1899C3.78998 23.8258 2.68415 22.72 1.32001 22.72C-0.044136 22.72 -1.15002 23.8258 -1.15002 25.1899C-1.15002 26.5541 -0.044136 27.6599 1.32001 27.6599Z" fill="#E59816"/>
<path d="M-0.140015 76.6399C1.22413 76.6399 2.33002 75.5341 2.33002 74.1699C2.33002 72.8058 1.22413 71.7 -0.140015 71.7C-1.50416 71.7 -2.60999 72.8058 -2.60999 74.1699C-2.60999 75.5341 -1.50416 76.6399 -0.140015 76.6399Z" fill="#E59816"/>
<path d="M3.15002 65.24C4.51417 65.24 5.62 64.1342 5.62 62.77C5.62 61.4059 4.51417 60.3 3.15002 60.3C1.78588 60.3 0.679993 61.4059 0.679993 62.77C0.679993 64.1342 1.78588 65.24 3.15002 65.24Z" fill="#E59816"/>
<path d="M6.44 53.8401C7.80415 53.8401 8.90997 52.7343 8.90997 51.3701C8.90997 50.006 7.80415 48.8999 6.44 48.8999C5.07586 48.8999 3.96997 50.006 3.96997 51.3701C3.96997 52.7343 5.07586 53.8401 6.44 53.8401Z" fill="#E59816"/>
<path d="M9.73999 42.45C11.1041 42.45 12.21 41.3441 12.21 39.98C12.21 38.6158 11.1041 37.51 9.73999 37.51C8.37585 37.51 7.27002 38.6158 7.27002 39.98C7.27002 41.3441 8.37585 42.45 9.73999 42.45Z" fill="#E59816"/>
<path d="M13.03 31.05C14.3941 31.05 15.5 29.9442 15.5 28.5801C15.5 27.2159 14.3941 26.1101 13.03 26.1101C11.6658 26.1101 10.56 27.2159 10.56 28.5801C10.56 29.9442 11.6658 31.05 13.03 31.05Z" fill="#E59816"/>
<path d="M1.69 114.22C3.05415 114.22 4.15997 113.114 4.15997 111.75C4.15997 110.386 3.05415 109.28 1.69 109.28C0.325859 109.28 -0.780029 110.386 -0.780029 111.75C-0.780029 113.114 0.325859 114.22 1.69 114.22Z" fill="#E59816"/>
<path d="M4.97998 102.82C6.34412 102.82 7.45001 101.714 7.45001 100.35C7.45001 98.986 6.34412 97.8799 4.97998 97.8799C3.61584 97.8799 2.51001 98.986 2.51001 100.35C2.51001 101.714 3.61584 102.82 4.97998 102.82Z" fill="#E59816"/>
<path d="M8.27002 91.4199C9.63416 91.4199 10.74 90.3141 10.74 88.95C10.74 87.5858 9.63416 86.48 8.27002 86.48C6.90588 86.48 5.79999 87.5858 5.79999 88.95C5.79999 90.3141 6.90588 91.4199 8.27002 91.4199Z" fill="#E59816"/>
<path d="M11.57 80.02C12.9342 80.02 14.04 78.9142 14.04 77.55C14.04 76.1859 12.9342 75.0801 11.57 75.0801C10.2059 75.0801 9.09998 76.1859 9.09998 77.55C9.09998 78.9142 10.2059 80.02 11.57 80.02Z" fill="#E59816"/>
<path d="M14.86 68.6201C16.2241 68.6201 17.33 67.514 17.33 66.1499C17.33 64.7858 16.2241 63.6799 14.86 63.6799C13.4958 63.6799 12.39 64.7858 12.39 66.1499C12.39 67.514 13.4958 68.6201 14.86 68.6201Z" fill="#E59816"/>
<path d="M18.16 57.23C19.5241 57.23 20.63 56.1242 20.63 54.76C20.63 53.3959 19.5241 52.29 18.16 52.29C16.7958 52.29 15.69 53.3959 15.69 54.76C15.69 56.1242 16.7958 57.23 18.16 57.23Z" fill="#E59816"/>
<path d="M21.45 45.8301C22.8142 45.8301 23.92 44.7243 23.92 43.3601C23.92 41.996 22.8142 40.8899 21.45 40.8899C20.0859 40.8899 18.98 41.996 18.98 43.3601C18.98 44.7243 20.0859 45.8301 21.45 45.8301Z" fill="#E59816"/>
<path d="M24.74 34.4299C26.1041 34.4299 27.21 33.3241 27.21 31.96C27.21 30.5958 26.1041 29.49 24.74 29.49C23.3758 29.49 22.27 30.5958 22.27 31.96C22.27 33.3241 23.3758 34.4299 24.74 34.4299Z" fill="#E59816"/>
<path d="M16.69 106.2C18.0541 106.2 19.16 105.094 19.16 103.73C19.16 102.366 18.0541 101.26 16.69 101.26C15.3259 101.26 14.22 102.366 14.22 103.73C14.22 105.094 15.3259 106.2 16.69 106.2Z" fill="#E59816"/>
<path d="M19.99 94.8C21.3541 94.8 22.46 93.6942 22.46 92.3301C22.46 90.9659 21.3541 89.8601 19.99 89.8601C18.6258 89.8601 17.52 90.9659 17.52 92.3301C17.52 93.6942 18.6258 94.8 19.99 94.8Z" fill="#E59816"/>
<path d="M23.28 83.4099C24.6441 83.4099 25.75 82.3041 25.75 80.9399C25.75 79.5758 24.6441 78.47 23.28 78.47C21.9158 78.47 20.81 79.5758 20.81 80.9399C20.81 82.3041 21.9158 83.4099 23.28 83.4099Z" fill="#E59816"/>
<path d="M26.57 72.01C27.9342 72.01 29.04 70.9042 29.04 69.54C29.04 68.1759 27.9342 67.0701 26.57 67.0701C25.2059 67.0701 24.1 68.1759 24.1 69.54C24.1 70.9042 25.2059 72.01 26.57 72.01Z" fill="#E59816"/>
<path d="M29.87 60.6101C31.2341 60.6101 32.34 59.504 32.34 58.1399C32.34 56.7757 31.2341 55.6699 29.87 55.6699C28.5059 55.6699 27.4 56.7757 27.4 58.1399C27.4 59.504 28.5059 60.6101 29.87 60.6101Z" fill="#E59816"/>
<path d="M33.16 49.21C34.5241 49.21 35.63 48.1041 35.63 46.74C35.63 45.3758 34.5241 44.27 33.16 44.27C31.7958 44.27 30.69 45.3758 30.69 46.74C30.69 48.1041 31.7958 49.21 33.16 49.21Z" fill="#E59816"/>
<path d="M36.45 37.8201C37.8142 37.8201 38.92 36.7142 38.92 35.3501C38.92 33.986 37.8142 32.8799 36.45 32.8799C35.0859 32.8799 33.98 33.986 33.98 35.3501C33.98 36.7142 35.0859 37.8201 36.45 37.8201Z" fill="#E59816"/>
<path d="M28.4 109.59C29.7642 109.59 30.87 108.484 30.87 107.12C30.87 105.756 29.7642 104.65 28.4 104.65C27.0359 104.65 25.93 105.756 25.93 107.12C25.93 108.484 27.0359 109.59 28.4 109.59Z" fill="#E59816"/>
<path d="M31.7 98.1899C33.0642 98.1899 34.17 97.0841 34.17 95.72C34.17 94.3558 33.0642 93.25 31.7 93.25C30.3359 93.25 29.23 94.3558 29.23 95.72C29.23 97.0841 30.3359 98.1899 31.7 98.1899Z" fill="#E59816"/>
<path d="M34.99 86.79C36.3541 86.79 37.46 85.6842 37.46 84.3201C37.46 82.9559 36.3541 81.8501 34.99 81.8501C33.6258 81.8501 32.52 82.9559 32.52 84.3201C32.52 85.6842 33.6258 86.79 34.99 86.79Z" fill="#E59816"/>
<path d="M38.28 75.3899C39.6441 75.3899 40.75 74.2841 40.75 72.9199C40.75 71.5558 39.6441 70.45 38.28 70.45C36.9158 70.45 35.81 71.5558 35.81 72.9199C35.81 74.2841 36.9158 75.3899 38.28 75.3899Z" fill="#E59816"/>
<path d="M41.58 63.99C42.9442 63.99 44.05 62.8842 44.05 61.52C44.05 60.1559 42.9442 59.05 41.58 59.05C40.2159 59.05 39.11 60.1559 39.11 61.52C39.11 62.8842 40.2159 63.99 41.58 63.99Z" fill="#E59816"/>
<path d="M44.87 52.6001C46.2341 52.6001 47.34 51.494 47.34 50.1299C47.34 48.7657 46.2341 47.6599 44.87 47.6599C43.5059 47.6599 42.4 48.7657 42.4 50.1299C42.4 51.494 43.5059 52.6001 44.87 52.6001Z" fill="#E59816"/>
<path d="M48.16 41.2C49.5241 41.2 50.63 40.0941 50.63 38.73C50.63 37.3658 49.5241 36.26 48.16 36.26C46.7958 36.26 45.69 37.3658 45.69 38.73C45.69 40.0941 46.7958 41.2 48.16 41.2Z" fill="#E59816"/>
<path d="M51.46 29.8C52.8242 29.8 53.93 28.6942 53.93 27.3301C53.93 25.9659 52.8242 24.8601 51.46 24.8601C50.0959 24.8601 48.99 25.9659 48.99 27.3301C48.99 28.6942 50.0959 29.8 51.46 29.8Z" fill="#E59816"/>
<path d="M40.11 112.97C41.4741 112.97 42.58 111.864 42.58 110.5C42.58 109.136 41.4741 108.03 40.11 108.03C38.7458 108.03 37.64 109.136 37.64 110.5C37.64 111.864 38.7458 112.97 40.11 112.97Z" fill="#E59816"/>
<path d="M43.41 101.57C44.7741 101.57 45.88 100.464 45.88 99.1001C45.88 97.736 44.7741 96.6299 43.41 96.6299C42.0458 96.6299 40.94 97.736 40.94 99.1001C40.94 100.464 42.0458 101.57 43.41 101.57Z" fill="#E59816"/>
<path d="M46.7 90.1699C48.0642 90.1699 49.17 89.0641 49.17 87.7C49.17 86.3358 48.0642 85.23 46.7 85.23C45.3359 85.23 44.23 86.3358 44.23 87.7C44.23 89.0641 45.3359 90.1699 46.7 90.1699Z" fill="#E59816"/>
<path d="M49.99 78.78C51.3541 78.78 52.46 77.6742 52.46 76.3101C52.46 74.9459 51.3541 73.8401 49.99 73.8401C48.6258 73.8401 47.52 74.9459 47.52 76.3101C47.52 77.6742 48.6258 78.78 49.99 78.78Z" fill="#E59816"/>
<path d="M53.29 67.3799C54.6541 67.3799 55.76 66.2741 55.76 64.9099C55.76 63.5458 54.6541 62.4399 53.29 62.4399C51.9258 62.4399 50.82 63.5458 50.82 64.9099C50.82 66.2741 51.9258 67.3799 53.29 67.3799Z" fill="#E59816"/>
<path d="M56.58 55.98C57.9442 55.98 59.05 54.8742 59.05 53.51C59.05 52.1459 57.9442 51.04 56.58 51.04C55.2159 51.04 54.11 52.1459 54.11 53.51C54.11 54.8742 55.2159 55.98 56.58 55.98Z" fill="#E59816"/>
<path d="M59.87 44.5801C61.2341 44.5801 62.34 43.4743 62.34 42.1101C62.34 40.746 61.2341 39.6399 59.87 39.6399C58.5059 39.6399 57.4 40.746 57.4 42.1101C57.4 43.4743 58.5059 44.5801 59.87 44.5801Z" fill="#E59816"/>
<path d="M63.17 33.1899C64.5341 33.1899 65.64 32.0841 65.64 30.72C65.64 29.3558 64.5341 28.25 63.17 28.25C61.8058 28.25 60.7 29.3558 60.7 30.72C60.7 32.0841 61.8058 33.1899 63.17 33.1899Z" fill="#E59816"/>
<path d="M51.82 116.35C53.1842 116.35 54.29 115.244 54.29 113.88C54.29 112.516 53.1842 111.41 51.82 111.41C50.4559 111.41 49.35 112.516 49.35 113.88C49.35 115.244 50.4559 116.35 51.82 116.35Z" fill="#E59816"/>
<path d="M55.12 104.96C56.4841 104.96 57.59 103.854 57.59 102.49C57.59 101.126 56.4841 100.02 55.12 100.02C53.7559 100.02 52.65 101.126 52.65 102.49C52.65 103.854 53.7559 104.96 55.12 104.96Z" fill="#E59816"/>
<path d="M58.41 93.5601C59.7741 93.5601 60.88 92.4542 60.88 91.0901C60.88 89.7259 59.7741 88.6201 58.41 88.6201C57.0458 88.6201 55.94 89.7259 55.94 91.0901C55.94 92.4542 57.0458 93.5601 58.41 93.5601Z" fill="#E59816"/>
<path d="M61.7 82.1599C63.0642 82.1599 64.17 81.0541 64.17 79.6899C64.17 78.3258 63.0642 77.22 61.7 77.22C60.3359 77.22 59.23 78.3258 59.23 79.6899C59.23 81.0541 60.3359 82.1599 61.7 82.1599Z" fill="#E59816"/>
<path d="M65 70.76C66.3641 70.76 67.47 69.6542 67.47 68.29C67.47 66.9259 66.3641 65.8201 65 65.8201C63.6359 65.8201 62.53 66.9259 62.53 68.29C62.53 69.6542 63.6359 70.76 65 70.76Z" fill="#E59816"/>
<path d="M68.29 59.3601C69.6541 59.3601 70.76 58.254 70.76 56.8899C70.76 55.5257 69.6541 54.4199 68.29 54.4199C66.9258 54.4199 65.82 55.5257 65.82 56.8899C65.82 58.254 66.9258 59.3601 68.29 59.3601Z" fill="#E59816"/>
<path d="M71.59 47.97C72.9542 47.97 74.06 46.8641 74.06 45.5C74.06 44.1359 72.9542 43.03 71.59 43.03C70.2259 43.03 69.12 44.1359 69.12 45.5C69.12 46.8641 70.2259 47.97 71.59 47.97Z" fill="#E59816"/>
<path d="M74.88 36.5701C76.2441 36.5701 77.35 35.4642 77.35 34.1001C77.35 32.736 76.2441 31.6299 74.88 31.6299C73.5159 31.6299 72.41 32.736 72.41 34.1001C72.41 35.4642 73.5159 36.5701 74.88 36.5701Z" fill="#E59816"/>
<path d="M66.83 108.34C68.1942 108.34 69.3 107.234 69.3 105.87C69.3 104.506 68.1942 103.4 66.83 103.4C65.4659 103.4 64.36 104.506 64.36 105.87C64.36 107.234 65.4659 108.34 66.83 108.34Z" fill="#E59816"/>
<path d="M70.12 96.9399C71.4841 96.9399 72.59 95.8341 72.59 94.47C72.59 93.1058 71.4841 92 70.12 92C68.7559 92 67.65 93.1058 67.65 94.47C67.65 95.8341 68.7559 96.9399 70.12 96.9399Z" fill="#E59816"/>
<path d="M73.42 85.54C74.7841 85.54 75.89 84.4342 75.89 83.0701C75.89 81.7059 74.7841 80.6001 73.42 80.6001C72.0558 80.6001 70.95 81.7059 70.95 83.0701C70.95 84.4342 72.0558 85.54 73.42 85.54Z" fill="#E59816"/>
<path d="M76.71 74.1499C78.0742 74.1499 79.18 73.0441 79.18 71.6799C79.18 70.3158 78.0742 69.21 76.71 69.21C75.3459 69.21 74.24 70.3158 74.24 71.6799C74.24 73.0441 75.3459 74.1499 76.71 74.1499Z" fill="#E59816"/>
<path d="M80 62.75C81.3641 62.75 82.47 61.6442 82.47 60.28C82.47 58.9159 81.3641 57.8101 80 57.8101C78.6359 57.8101 77.53 58.9159 77.53 60.28C77.53 61.6442 78.6359 62.75 80 62.75Z" fill="#E59816"/>
<path d="M83.3 51.3501C84.6641 51.3501 85.77 50.244 85.77 48.8799C85.77 47.5157 84.6641 46.4099 83.3 46.4099C81.9358 46.4099 80.83 47.5157 80.83 48.8799C80.83 50.244 81.9358 51.3501 83.3 51.3501Z" fill="#E59816"/>
<path d="M86.59 39.95C87.9542 39.95 89.06 38.8441 89.06 37.48C89.06 36.1158 87.9542 35.01 86.59 35.01C85.2259 35.01 84.12 36.1158 84.12 37.48C84.12 38.8441 85.2259 39.95 86.59 39.95Z" fill="#E59816"/>
<path d="M78.54 111.72C79.9041 111.72 81.01 110.614 81.01 109.25C81.01 107.886 79.9041 106.78 78.54 106.78C77.1758 106.78 76.07 107.886 76.07 109.25C76.07 110.614 77.1758 111.72 78.54 111.72Z" fill="#E59816"/>
<path d="M81.83 100.33C83.1942 100.33 84.3 99.2243 84.3 97.8601C84.3 96.496 83.1942 95.3899 81.83 95.3899C80.4659 95.3899 79.36 96.496 79.36 97.8601C79.36 99.2243 80.4659 100.33 81.83 100.33Z" fill="#E59816"/>
<path d="M85.13 88.9299C86.4941 88.9299 87.6 87.8241 87.6 86.46C87.6 85.0958 86.4941 83.99 85.13 83.99C83.7659 83.99 82.66 85.0958 82.66 86.46C82.66 87.8241 83.7659 88.9299 85.13 88.9299Z" fill="#E59816"/>
</g>
<path d="M136.86 86.9299L138.07 113.22L160.84 100.57L136.86 86.9299Z" fill="white"/>
<path d="M146.53 98.6399H38.88C33.32 98.6399 28.81 94.1301 28.81 88.5701V14.3501C28.81 8.7901 33.32 4.28003 38.88 4.28003H146.53C152.09 4.28003 156.6 8.7901 156.6 14.3501V88.5701C156.6 94.1301 152.09 98.6399 146.53 98.6399Z" fill="white"/>
<path d="M115.74 33.25L93.11 20.7L70.48 33.25" stroke="#0569AA" stroke-width="4" stroke-miterlimit="10" stroke-linecap="round" stroke-linejoin="round"/>
<path d="M111.25 55.6899V30.76" stroke="#0569AA" stroke-width="4" stroke-miterlimit="10" stroke-linecap="round" stroke-linejoin="round"/>
<path d="M74.97 30.76V55.6899" stroke="#0569AA" stroke-width="4" stroke-miterlimit="10" stroke-linecap="round" stroke-linejoin="round"/>
<path d="M81.22 55.6899V43.28C81.22 40.83 83.21 38.8401 85.66 38.8401C88.12 38.8401 90.1 40.83 90.1 43.28V55.6899" stroke="#0569AA" stroke-width="4" stroke-miterlimit="10" stroke-linecap="round" stroke-linejoin="round"/>
<path d="M105.47 55.6899V43.28C105.47 40.83 103.48 38.8401 101.02 38.8401C98.56 38.8401 96.58 40.83 96.58 43.28V55.6899" stroke="#0569AA" stroke-width="4" stroke-miterlimit="10" stroke-linecap="round" stroke-linejoin="round"/>
<path d="M70.48 57.55V56.3501C70.48 55.9801 71.49 55.6799 72.73 55.6799H93.11H113.49C114.73 55.6799 115.74 55.9801 115.74 56.3501V57.55" stroke="#0569AA" stroke-width="4" stroke-miterlimit="10" stroke-linecap="round" stroke-linejoin="round"/>
<path d="M68.37 61.96H117.86" stroke="#0569AA" stroke-width="4" stroke-miterlimit="10" stroke-linecap="round" stroke-linejoin="round"/>
<path d="M120.17 84.99H66.05C63.99 84.99 62.33 83.32 62.33 81.27V73.8101C62.33 71.7501 64 70.0901 66.05 70.0901H120.17C122.23 70.0901 123.89 71.7601 123.89 73.8101V81.27C123.89 83.32 122.23 84.99 120.17 84.99Z" stroke="#0569AA" stroke-width="4" stroke-miterlimit="10" stroke-linecap="round" stroke-linejoin="round"/>
<path d="M71.58 77.4C71.58 77.62 71.4 77.8002 71.18 77.8002C70.96 77.8002 70.78 77.62 70.78 77.4C70.78 77.18 70.96 77.0001 71.18 77.0001C71.4 77.0001 71.58 77.18 71.58 77.4Z" stroke="#0569AA" stroke-width="4" stroke-miterlimit="10" stroke-linecap="round" stroke-linejoin="round" stroke-dasharray="8 8"/>
<path d="M82.11 77.4C82.11 77.62 81.93 77.8002 81.71 77.8002C81.49 77.8002 81.31 77.62 81.31 77.4C81.31 77.18 81.49 77.0001 81.71 77.0001C81.93 77.0001 82.11 77.18 82.11 77.4Z" stroke="#0569AA" stroke-width="4" stroke-miterlimit="10" stroke-linecap="round" stroke-linejoin="round" stroke-dasharray="8 8"/>
<path d="M93.11 77.4C93.11 77.62 92.93 77.8002 92.71 77.8002C92.49 77.8002 92.31 77.62 92.31 77.4C92.31 77.18 92.49 77.0001 92.71 77.0001C92.93 77.0001 93.11 77.18 93.11 77.4Z" stroke="#0569AA" stroke-width="4" stroke-miterlimit="10" stroke-linecap="round" stroke-linejoin="round" stroke-dasharray="8 8"/>
<path d="M115.11 77.4C115.11 77.62 114.93 77.8002 114.71 77.8002C114.49 77.8002 114.31 77.62 114.31 77.4C114.31 77.18 114.49 77.0001 114.71 77.0001C114.93 77.0001 115.11 77.18 115.11 77.4Z" stroke="#0569AA" stroke-width="4" stroke-miterlimit="10" stroke-linecap="round" stroke-linejoin="round" stroke-dasharray="8 8"/>
<path d="M104.11 77.4C104.11 77.62 103.93 77.8002 103.71 77.8002C103.49 77.8002 103.31 77.62 103.31 77.4C103.31 77.18 103.49 77.0001 103.71 77.0001C103.93 77.0001 104.11 77.18 104.11 77.4Z" stroke="#0569AA" stroke-width="4" stroke-miterlimit="10" stroke-linecap="round" stroke-linejoin="round" stroke-dasharray="8 8"/>
<path d="M123.89 99.8999H37.19C31.82 99.8999 27.47 95.5499 27.47 90.1799V12.75C27.47 7.38 31.82 3.03003 37.19 3.03003C40.9 3.03003 151.61 3.03003 148.23 3.03003C153.6 3.03003 157.95 7.38 157.95 12.75V86.3101" stroke="#0569AA" stroke-width="6" stroke-miterlimit="10" stroke-linecap="round" stroke-linejoin="round"/>
<path d="M59.43 99.8999L53.5 114.89H92.71H113.55" stroke="#0569AA" stroke-width="6" stroke-miterlimit="10" stroke-linecap="round" stroke-linejoin="round"/>
<path d="M37.43 10.8899H72.33L34.66 48.5601V13.6599C34.66 12.1299 35.91 10.8899 37.43 10.8899Z" fill="#E59816"/>
<path d="M155.86 103.78L160.84 100.57L136.86 85.9199V114.49L143.11 111.07" stroke="#0569AA" stroke-width="5" stroke-miterlimit="10" stroke-linecap="round" stroke-linejoin="round"/>
<path d="M149.58 107.53L155.37 117.28" stroke="#0569AA" stroke-width="5" stroke-miterlimit="10" stroke-linecap="round" stroke-linejoin="round"/>
</svg>
