<svg width="170" height="116" viewBox="0 0 170 116" fill="none" xmlns="http://www.w3.org/2000/svg">
<mask id="mask0_17_4975" style="mask-type:luminance" maskUnits="userSpaceOnUse" x="0" y="18" width="85" height="86">
<path d="M42.37 103.06C65.6101 103.06 84.45 84.2201 84.45 60.98C84.45 37.7398 65.6101 18.8999 42.37 18.8999C19.1299 18.8999 0.289978 37.7398 0.289978 60.98C0.289978 84.2201 19.1299 103.06 42.37 103.06Z" fill="white"/>
</mask>
<g mask="url(#mask0_17_4975)">
<path d="M0.809998 55.1599C2.17414 55.1599 3.27997 54.0541 3.27997 52.6899C3.27997 51.3258 2.17414 50.22 0.809998 50.22C-0.554146 50.22 -1.65997 51.3258 -1.65997 52.6899C-1.65997 54.0541 -0.554146 55.1599 0.809998 55.1599Z" fill="#E59816"/>
<path d="M4.09998 43.77C5.46412 43.77 6.57001 42.6642 6.57001 41.3C6.57001 39.9359 5.46412 38.8301 4.09998 38.8301C2.73583 38.8301 1.63 39.9359 1.63 41.3C1.63 42.6642 2.73583 43.77 4.09998 43.77Z" fill="#E59816"/>
<path d="M7.40002 32.3701C8.76417 32.3701 9.87 31.264 9.87 29.8999C9.87 28.5358 8.76417 27.4299 7.40002 27.4299C6.03588 27.4299 4.92999 28.5358 4.92999 29.8999C4.92999 31.264 6.03588 32.3701 7.40002 32.3701Z" fill="#E59816"/>
<path d="M10.69 20.97C12.0541 20.97 13.16 19.8641 13.16 18.5C13.16 17.1359 12.0541 16.03 10.69 16.03C9.32586 16.03 8.21997 17.1359 8.21997 18.5C8.21997 19.8641 9.32586 20.97 10.69 20.97Z" fill="#E59816"/>
<path d="M-0.650024 104.14C0.714119 104.14 1.82001 103.034 1.82001 101.67C1.82001 100.306 0.714119 99.2 -0.650024 99.2C-2.01417 99.2 -3.12 100.306 -3.12 101.67C-3.12 103.034 -2.01417 104.14 -0.650024 104.14Z" fill="#E59816"/>
<path d="M2.64001 92.74C4.00416 92.74 5.10999 91.6342 5.10999 90.27C5.10999 88.9059 4.00416 87.8 2.64001 87.8C1.27587 87.8 0.169983 88.9059 0.169983 90.27C0.169983 91.6342 1.27587 92.74 2.64001 92.74Z" fill="#E59816"/>
<path d="M5.92999 81.3401C7.29414 81.3401 8.40002 80.2343 8.40002 78.8701C8.40002 77.506 7.29414 76.3999 5.92999 76.3999C4.56585 76.3999 3.46002 77.506 3.46002 78.8701C3.46002 80.2343 4.56585 81.3401 5.92999 81.3401Z" fill="#E59816"/>
<path d="M9.22998 69.9399C10.5941 69.9399 11.7 68.8341 11.7 67.47C11.7 66.1058 10.5941 65 9.22998 65C7.86584 65 6.76001 66.1058 6.76001 67.47C6.76001 68.8341 7.86584 69.9399 9.22998 69.9399Z" fill="#E59816"/>
<path d="M12.52 58.55C13.8842 58.55 14.99 57.4442 14.99 56.0801C14.99 54.7159 13.8842 53.6101 12.52 53.6101C11.1559 53.6101 10.05 54.7159 10.05 56.0801C10.05 57.4442 11.1559 58.55 12.52 58.55Z" fill="#E59816"/>
<path d="M15.82 47.1499C17.1842 47.1499 18.29 46.0441 18.29 44.6799C18.29 43.3158 17.1842 42.21 15.82 42.21C14.4559 42.21 13.35 43.3158 13.35 44.6799C13.35 46.0441 14.4559 47.1499 15.82 47.1499Z" fill="#E59816"/>
<path d="M19.11 35.75C20.4741 35.75 21.58 34.6442 21.58 33.28C21.58 31.9159 20.4741 30.8101 19.11 30.8101C17.7458 30.8101 16.64 31.9159 16.64 33.28C16.64 34.6442 17.7458 35.75 19.11 35.75Z" fill="#E59816"/>
<path d="M22.4 24.3501C23.7642 24.3501 24.87 23.244 24.87 21.8799C24.87 20.5157 23.7642 19.4099 22.4 19.4099C21.0359 19.4099 19.93 20.5157 19.93 21.8799C19.93 23.244 21.0359 24.3501 22.4 24.3501Z" fill="#E59816"/>
<path d="M11.06 107.52C12.4241 107.52 13.53 106.414 13.53 105.05C13.53 103.686 12.4241 102.58 11.06 102.58C9.69585 102.58 8.59003 103.686 8.59003 105.05C8.59003 106.414 9.69585 107.52 11.06 107.52Z" fill="#E59816"/>
<path d="M14.35 96.1201C15.7141 96.1201 16.82 95.014 16.82 93.6499C16.82 92.2858 15.7141 91.1799 14.35 91.1799C12.9858 91.1799 11.88 92.2858 11.88 93.6499C11.88 95.014 12.9858 96.1201 14.35 96.1201Z" fill="#E59816"/>
<path d="M17.65 84.73C19.0142 84.73 20.12 83.6242 20.12 82.26C20.12 80.8959 19.0142 79.79 17.65 79.79C16.2859 79.79 15.18 80.8959 15.18 82.26C15.18 83.6242 16.2859 84.73 17.65 84.73Z" fill="#E59816"/>
<path d="M20.94 73.3301C22.3041 73.3301 23.41 72.2243 23.41 70.8601C23.41 69.496 22.3041 68.3899 20.94 68.3899C19.5759 68.3899 18.47 69.496 18.47 70.8601C18.47 72.2243 19.5759 73.3301 20.94 73.3301Z" fill="#E59816"/>
<path d="M24.23 61.9299C25.5941 61.9299 26.7 60.8241 26.7 59.46C26.7 58.0958 25.5941 56.99 24.23 56.99C22.8658 56.99 21.76 58.0958 21.76 59.46C21.76 60.8241 22.8658 61.9299 24.23 61.9299Z" fill="#E59816"/>
<path d="M27.53 50.53C28.8941 50.53 30 49.4242 30 48.0601C30 46.6959 28.8941 45.5901 27.53 45.5901C26.1658 45.5901 25.06 46.6959 25.06 48.0601C25.06 49.4242 26.1658 50.53 27.53 50.53Z" fill="#E59816"/>
<path d="M30.82 39.1399C32.1842 39.1399 33.29 38.0341 33.29 36.6699C33.29 35.3058 32.1842 34.2 30.82 34.2C29.4559 34.2 28.35 35.3058 28.35 36.6699C28.35 38.0341 29.4559 39.1399 30.82 39.1399Z" fill="#E59816"/>
<path d="M34.11 27.74C35.4741 27.74 36.58 26.6342 36.58 25.27C36.58 23.9059 35.4741 22.8 34.11 22.8C32.7458 22.8 31.64 23.9059 31.64 25.27C31.64 26.6342 32.7458 27.74 34.11 27.74Z" fill="#E59816"/>
<path d="M26.06 99.51C27.4241 99.51 28.53 98.4042 28.53 97.04C28.53 95.6759 27.4241 94.5701 26.06 94.5701C24.6959 94.5701 23.59 95.6759 23.59 97.04C23.59 98.4042 24.6959 99.51 26.06 99.51Z" fill="#E59816"/>
<path d="M29.36 88.1101C30.7241 88.1101 31.83 87.004 31.83 85.6399C31.83 84.2757 30.7241 83.1699 29.36 83.1699C27.9958 83.1699 26.89 84.2757 26.89 85.6399C26.89 87.004 27.9958 88.1101 29.36 88.1101Z" fill="#E59816"/>
<path d="M32.65 76.71C34.0142 76.71 35.12 75.6041 35.12 74.24C35.12 72.8758 34.0142 71.77 32.65 71.77C31.2859 71.77 30.18 72.8758 30.18 74.24C30.18 75.6041 31.2859 76.71 32.65 76.71Z" fill="#E59816"/>
<path d="M35.94 65.3101C37.3041 65.3101 38.41 64.2042 38.41 62.8401C38.41 61.4759 37.3041 60.3701 35.94 60.3701C34.5759 60.3701 33.47 61.4759 33.47 62.8401C33.47 64.2042 34.5759 65.3101 35.94 65.3101Z" fill="#E59816"/>
<path d="M39.24 53.9199C40.6041 53.9199 41.71 52.8141 41.71 51.45C41.71 50.0858 40.6041 48.98 39.24 48.98C37.8758 48.98 36.77 50.0858 36.77 51.45C36.77 52.8141 37.8758 53.9199 39.24 53.9199Z" fill="#E59816"/>
<path d="M42.53 42.52C43.8941 42.52 45 41.4142 45 40.05C45 38.6859 43.8941 37.5801 42.53 37.5801C41.1658 37.5801 40.06 38.6859 40.06 40.05C40.06 41.4142 41.1658 42.52 42.53 42.52Z" fill="#E59816"/>
<path d="M45.82 31.1201C47.1842 31.1201 48.29 30.014 48.29 28.6499C48.29 27.2858 47.1842 26.1799 45.82 26.1799C44.4559 26.1799 43.35 27.2858 43.35 28.6499C43.35 30.014 44.4559 31.1201 45.82 31.1201Z" fill="#E59816"/>
<path d="M49.12 19.72C50.4841 19.72 51.59 18.6141 51.59 17.25C51.59 15.8859 50.4841 14.78 49.12 14.78C47.7559 14.78 46.65 15.8859 46.65 17.25C46.65 18.6141 47.7559 19.72 49.12 19.72Z" fill="#E59816"/>
<path d="M37.77 102.89C39.1342 102.89 40.24 101.784 40.24 100.42C40.24 99.0558 39.1342 97.95 37.77 97.95C36.4059 97.95 35.3 99.0558 35.3 100.42C35.3 101.784 36.4059 102.89 37.77 102.89Z" fill="#E59816"/>
<path d="M41.07 91.49C42.4342 91.49 43.54 90.3842 43.54 89.02C43.54 87.6559 42.4342 86.55 41.07 86.55C39.7059 86.55 38.6 87.6559 38.6 89.02C38.6 90.3842 39.7059 91.49 41.07 91.49Z" fill="#E59816"/>
<path d="M44.36 80.1001C45.7241 80.1001 46.83 78.994 46.83 77.6299C46.83 76.2657 45.7241 75.1599 44.36 75.1599C42.9958 75.1599 41.89 76.2657 41.89 77.6299C41.89 78.994 42.9958 80.1001 44.36 80.1001Z" fill="#E59816"/>
<path d="M47.65 68.7C49.0142 68.7 50.12 67.5941 50.12 66.23C50.12 64.8658 49.0142 63.76 47.65 63.76C46.2859 63.76 45.18 64.8658 45.18 66.23C45.18 67.5941 46.2859 68.7 47.65 68.7Z" fill="#E59816"/>
<path d="M50.95 57.3C52.3142 57.3 53.42 56.1942 53.42 54.8301C53.42 53.4659 52.3142 52.3601 50.95 52.3601C49.5859 52.3601 48.48 53.4659 48.48 54.8301C48.48 56.1942 49.5859 57.3 50.95 57.3Z" fill="#E59816"/>
<path d="M54.24 45.8999C55.6041 45.8999 56.71 44.7941 56.71 43.4299C56.71 42.0658 55.6041 40.96 54.24 40.96C52.8758 40.96 51.77 42.0658 51.77 43.4299C51.77 44.7941 52.8758 45.8999 54.24 45.8999Z" fill="#E59816"/>
<path d="M57.53 34.51C58.8941 34.51 60 33.4042 60 32.04C60 30.6759 58.8941 29.5701 57.53 29.5701C56.1658 29.5701 55.06 30.6759 55.06 32.04C55.06 33.4042 56.1658 34.51 57.53 34.51Z" fill="#E59816"/>
<path d="M60.83 23.1101C62.1942 23.1101 63.3 22.004 63.3 20.6399C63.3 19.2757 62.1942 18.1699 60.83 18.1699C59.4659 18.1699 58.36 19.2757 58.36 20.6399C58.36 22.004 59.4659 23.1101 60.83 23.1101Z" fill="#E59816"/>
<path d="M49.48 106.28C50.8441 106.28 51.95 105.174 51.95 103.81C51.95 102.446 50.8441 101.34 49.48 101.34C48.1158 101.34 47.01 102.446 47.01 103.81C47.01 105.174 48.1158 106.28 49.48 106.28Z" fill="#E59816"/>
<path d="M52.78 94.8799C54.1441 94.8799 55.25 93.7741 55.25 92.4099C55.25 91.0458 54.1441 89.9399 52.78 89.9399C51.4158 89.9399 50.31 91.0458 50.31 92.4099C50.31 93.7741 51.4158 94.8799 52.78 94.8799Z" fill="#E59816"/>
<path d="M56.07 83.48C57.4342 83.48 58.54 82.3742 58.54 81.01C58.54 79.6459 57.4342 78.54 56.07 78.54C54.7059 78.54 53.6 79.6459 53.6 81.01C53.6 82.3742 54.7059 83.48 56.07 83.48Z" fill="#E59816"/>
<path d="M59.36 72.0801C60.7241 72.0801 61.83 70.9743 61.83 69.6101C61.83 68.246 60.7241 67.1399 59.36 67.1399C57.9958 67.1399 56.89 68.246 56.89 69.6101C56.89 70.9743 57.9958 72.0801 59.36 72.0801Z" fill="#E59816"/>
<path d="M62.66 60.6899C64.0241 60.6899 65.13 59.5841 65.13 58.22C65.13 56.8558 64.0241 55.75 62.66 55.75C61.2958 55.75 60.19 56.8558 60.19 58.22C60.19 59.5841 61.2958 60.6899 62.66 60.6899Z" fill="#E59816"/>
<path d="M65.95 49.29C67.3142 49.29 68.42 48.1842 68.42 46.8201C68.42 45.4559 67.3142 44.3501 65.95 44.3501C64.5859 44.3501 63.48 45.4559 63.48 46.8201C63.48 48.1842 64.5859 49.29 65.95 49.29Z" fill="#E59816"/>
<path d="M69.25 37.8899C70.6141 37.8899 71.72 36.7841 71.72 35.4199C71.72 34.0558 70.6141 32.95 69.25 32.95C67.8859 32.95 66.78 34.0558 66.78 35.4199C66.78 36.7841 67.8859 37.8899 69.25 37.8899Z" fill="#E59816"/>
<path d="M72.54 26.49C73.9041 26.49 75.01 25.3842 75.01 24.02C75.01 22.6559 73.9041 21.55 72.54 21.55C71.1758 21.55 70.07 22.6559 70.07 24.02C70.07 25.3842 71.1758 26.49 72.54 26.49Z" fill="#E59816"/>
<path d="M64.49 98.26C65.8541 98.26 66.96 97.1542 66.96 95.79C66.96 94.4259 65.8541 93.3201 64.49 93.3201C63.1258 93.3201 62.02 94.4259 62.02 95.79C62.02 97.1542 63.1258 98.26 64.49 98.26Z" fill="#E59816"/>
<path d="M67.78 86.8601C69.1441 86.8601 70.25 85.754 70.25 84.3899C70.25 83.0257 69.1441 81.9199 67.78 81.9199C66.4158 81.9199 65.31 83.0257 65.31 84.3899C65.31 85.754 66.4158 86.8601 67.78 86.8601Z" fill="#E59816"/>
<path d="M71.08 75.47C72.4442 75.47 73.55 74.3641 73.55 73C73.55 71.6359 72.4442 70.53 71.08 70.53C69.7159 70.53 68.61 71.6359 68.61 73C68.61 74.3641 69.7159 75.47 71.08 75.47Z" fill="#E59816"/>
<path d="M74.37 64.0701C75.7341 64.0701 76.84 62.9642 76.84 61.6001C76.84 60.236 75.7341 59.1299 74.37 59.1299C73.0059 59.1299 71.9 60.236 71.9 61.6001C71.9 62.9642 73.0059 64.0701 74.37 64.0701Z" fill="#E59816"/>
<path d="M77.66 52.6699C79.0241 52.6699 80.13 51.5641 80.13 50.2C80.13 48.8358 79.0241 47.73 77.66 47.73C76.2958 47.73 75.19 48.8358 75.19 50.2C75.19 51.5641 76.2958 52.6699 77.66 52.6699Z" fill="#E59816"/>
<path d="M80.96 41.27C82.3242 41.27 83.43 40.1642 83.43 38.8C83.43 37.4359 82.3242 36.3301 80.96 36.3301C79.5959 36.3301 78.49 37.4359 78.49 38.8C78.49 40.1642 79.5959 41.27 80.96 41.27Z" fill="#E59816"/>
<path d="M84.25 29.8799C85.6141 29.8799 86.72 28.7741 86.72 27.4099C86.72 26.0458 85.6141 24.9399 84.25 24.9399C82.8859 24.9399 81.78 26.0458 81.78 27.4099C81.78 28.7741 82.8859 29.8799 84.25 29.8799Z" fill="#E59816"/>
<path d="M76.2 101.65C77.5642 101.65 78.67 100.544 78.67 99.1799C78.67 97.8158 77.5642 96.71 76.2 96.71C74.8359 96.71 73.73 97.8158 73.73 99.1799C73.73 100.544 74.8359 101.65 76.2 101.65Z" fill="#E59816"/>
<path d="M79.49 90.25C80.8541 90.25 81.96 89.1442 81.96 87.78C81.96 86.4159 80.8541 85.3101 79.49 85.3101C78.1258 85.3101 77.02 86.4159 77.02 87.78C77.02 89.1442 78.1258 90.25 79.49 90.25Z" fill="#E59816"/>
<path d="M82.79 78.8501C84.1541 78.8501 85.26 77.744 85.26 76.3799C85.26 75.0157 84.1541 73.9099 82.79 73.9099C81.4258 73.9099 80.32 75.0157 80.32 76.3799C80.32 77.744 81.4258 78.8501 82.79 78.8501Z" fill="#E59816"/>
<path d="M86.08 67.45C87.4442 67.45 88.55 66.3441 88.55 64.98C88.55 63.6158 87.4442 62.51 86.08 62.51C84.7159 62.51 83.61 63.6158 83.61 64.98C83.61 66.3441 84.7159 67.45 86.08 67.45Z" fill="#E59816"/>
</g>
<path d="M41.3 14.3999V111.42H118.59V17.6299L130.29 3.8999H51.79C46 3.8999 41.3 8.5999 41.3 14.3999Z" fill="white"/>
<path d="M161.18 67.78H146.02C142.08 67.78 138.89 70.9699 138.89 74.9099V104.42C138.89 108.36 142.08 111.55 146.02 111.55H161.18C165.12 111.55 168.31 108.36 168.31 104.42V74.9099C168.3 70.9699 165.11 67.78 161.18 67.78Z" fill="white"/>
<path d="M152.92 66.6699H159.42C164.11 66.6699 167.92 70.4699 167.92 75.1699V104.15C167.92 108.84 164.11 112.65 159.42 112.65H146.74C142.05 112.65 138.24 108.85 138.24 104.15V75.1699C138.24 70.4799 142.04 66.6699 146.74 66.6699H151.22" stroke="#0569AA" stroke-width="4" stroke-miterlimit="10" stroke-linecap="round" stroke-linejoin="round"/>
<path d="M157.42 84.1299C157.42 86.5299 155.47 88.48 153.07 88.48C150.67 88.48 148.72 86.5299 148.72 84.1299C148.72 81.7299 150.67 79.78 153.07 79.78C155.48 79.78 157.42 81.7299 157.42 84.1299Z" stroke="#0569AA" stroke-width="4" stroke-miterlimit="10" stroke-linecap="round" stroke-linejoin="round"/>
<path d="M153.08 78.6799V20.05C153.08 11.13 145.85 3.8999 136.93 3.8999C128.01 3.8999 120.78 11.13 120.78 20.05V112.65H40.57V17.6699C40.57 10.0699 46.73 3.8999 54.34 3.8999H80.73" stroke="#0569AA" stroke-width="6.4" stroke-miterlimit="10" stroke-linecap="round" stroke-linejoin="round"/>
<path d="M90.45 4.27002C90.6544 4.27002 90.82 4.10425 90.82 3.8999C90.82 3.69556 90.6544 3.53003 90.45 3.53003C90.2457 3.53003 90.08 3.69556 90.08 3.8999C90.08 4.10425 90.2457 4.27002 90.45 4.27002Z" fill="#0569AA" stroke="#0569AA" stroke-width="5" stroke-miterlimit="10" stroke-linecap="round" stroke-linejoin="round" stroke-dasharray="10 10"/>
<path d="M99.04 4.27002C99.2443 4.27002 99.41 4.10425 99.41 3.8999C99.41 3.69556 99.2443 3.53003 99.04 3.53003C98.8356 3.53003 98.67 3.69556 98.67 3.8999C98.67 4.10425 98.8356 4.27002 99.04 4.27002Z" fill="#0569AA" stroke="#0569AA" stroke-width="5" stroke-miterlimit="10" stroke-linecap="round" stroke-linejoin="round" stroke-dasharray="10 10"/>
<path d="M107.99 3.8999C107.99 4.0999 107.83 4.27002 107.62 4.27002C107.42 4.27002 107.25 4.1099 107.25 3.8999C107.25 3.6999 107.41 3.53003 107.62 3.53003C107.83 3.53003 107.99 3.6899 107.99 3.8999Z" fill="#0569AA" stroke="#0569AA" stroke-width="5" stroke-miterlimit="10" stroke-linecap="round" stroke-linejoin="round" stroke-dasharray="10 10"/>
<path d="M116.21 4.27002C116.414 4.27002 116.58 4.10425 116.58 3.8999C116.58 3.69556 116.414 3.53003 116.21 3.53003C116.006 3.53003 115.84 3.69556 115.84 3.8999C115.84 4.10425 116.006 4.27002 116.21 4.27002Z" fill="#0569AA" stroke="#0569AA" stroke-width="5" stroke-miterlimit="10" stroke-linecap="round" stroke-linejoin="round" stroke-dasharray="10 10"/>
<path d="M74.73 54.29C74.73 57.42 77.27 59.96 80.4 59.96C83.53 59.96 86.07 57.42 86.07 54.29C86.07 51.16 83.75 49.7201 80.4 48.6201C77.43 47.6501 74.73 46.08 74.73 42.95C74.73 39.82 77.27 37.28 80.4 37.28C83.53 37.28 86.07 39.82 86.07 42.95" stroke="#0569AA" stroke-width="5" stroke-miterlimit="10" stroke-linecap="round" stroke-linejoin="round"/>
<path d="M80.4 34.1299V37.3301" stroke="#0569AA" stroke-width="5" stroke-miterlimit="10" stroke-linecap="round" stroke-linejoin="round"/>
<path d="M80.4 59.95V63.1499" stroke="#0569AA" stroke-width="5" stroke-miterlimit="10" stroke-linecap="round" stroke-linejoin="round"/>
<path d="M80.4 70.1499C92.2907 70.1499 101.93 60.5108 101.93 48.6201C101.93 36.7294 92.2907 27.0901 80.4 27.0901C68.5093 27.0901 58.87 36.7294 58.87 48.6201C58.87 60.5108 68.5093 70.1499 80.4 70.1499Z" stroke="#0569AA" stroke-width="5" stroke-miterlimit="10" stroke-linecap="round" stroke-linejoin="round"/>
<path d="M61.53 86.0701L54.38 93.22" stroke="#0569AA" stroke-width="4" stroke-miterlimit="10" stroke-linecap="round" stroke-linejoin="round"/>
<path d="M54.38 86.0701L61.53 93.22" stroke="#0569AA" stroke-width="4" stroke-miterlimit="10" stroke-linecap="round" stroke-linejoin="round"/>
<path d="M76.77 86.1001L69.62 93.24" stroke="#0569AA" stroke-width="4" stroke-miterlimit="10" stroke-linecap="round" stroke-linejoin="round"/>
<path d="M69.62 86.1001L76.77 93.24" stroke="#0569AA" stroke-width="4" stroke-miterlimit="10" stroke-linecap="round" stroke-linejoin="round"/>
<path d="M92.01 86.1001L84.87 93.24" stroke="#0569AA" stroke-width="4" stroke-miterlimit="10" stroke-linecap="round" stroke-linejoin="round"/>
<path d="M84.87 86.1001L92.01 93.24" stroke="#0569AA" stroke-width="4" stroke-miterlimit="10" stroke-linecap="round" stroke-linejoin="round"/>
<path d="M107.26 86.1001L100.11 93.24" stroke="#0569AA" stroke-width="4" stroke-miterlimit="10" stroke-linecap="round" stroke-linejoin="round"/>
<path d="M100.11 86.1001L107.26 93.24" stroke="#0569AA" stroke-width="4" stroke-miterlimit="10" stroke-linecap="round" stroke-linejoin="round"/>
<path d="M142.53 94.4199V104.75C142.53 106.47 143.93 107.87 145.65 107.87H160.51C162.23 107.87 163.63 106.47 163.63 104.75V94.4199C160.29 95.7399 156.75 96.46 153.08 96.46C149.41 96.46 145.87 95.7399 142.53 94.4199Z" fill="#E59816"/>
</svg>
