<svg width="137" height="119" viewBox="0 0 137 119" fill="none" xmlns="http://www.w3.org/2000/svg">
<mask id="mask0_17_4976" style="mask-type:luminance" maskUnits="userSpaceOnUse" x="0" y="44" width="65" height="65">
<path d="M32.3599 108.17C49.9005 108.17 64.1199 93.9505 64.1199 76.4099C64.1199 58.8694 49.9005 44.6499 32.3599 44.6499C14.8194 44.6499 0.599915 58.8694 0.599915 76.4099C0.599915 93.9505 14.8194 108.17 32.3599 108.17Z" fill="white"/>
</mask>
<g mask="url(#mask0_17_4976)">
<path d="M1.37982 73.78C2.74397 73.78 3.84991 72.6742 3.84991 71.3101C3.84991 69.9459 2.74397 68.8401 1.37982 68.8401C0.0156784 68.8401 -1.09015 69.9459 -1.09015 71.3101C-1.09015 72.6742 0.0156784 73.78 1.37982 73.78Z" fill="#E59816"/>
<path d="M4.67987 62.3799C6.04401 62.3799 7.14984 61.2741 7.14984 59.9099C7.14984 58.5458 6.04401 57.4399 4.67987 57.4399C3.31573 57.4399 2.2099 58.5458 2.2099 59.9099C2.2099 61.2741 3.31573 62.3799 4.67987 62.3799Z" fill="#E59816"/>
<path d="M7.96991 50.98C9.33405 50.98 10.4399 49.8742 10.4399 48.51C10.4399 47.1459 9.33405 46.04 7.96991 46.04C6.60577 46.04 5.49982 47.1459 5.49982 48.51C5.49982 49.8742 6.60577 50.98 7.96991 50.98Z" fill="#E59816"/>
<path d="M3.2099 111.35C4.57404 111.35 5.67987 110.244 5.67987 108.88C5.67987 107.516 4.57404 106.41 3.2099 106.41C1.84576 106.41 0.739929 107.516 0.739929 108.88C0.739929 110.244 1.84576 111.35 3.2099 111.35Z" fill="#E59816"/>
<path d="M6.50983 99.96C7.87397 99.96 8.97992 98.8541 8.97992 97.49C8.97992 96.1258 7.87397 95.02 6.50983 95.02C5.14568 95.02 4.03986 96.1258 4.03986 97.49C4.03986 98.8541 5.14568 99.96 6.50983 99.96Z" fill="#E59816"/>
<path d="M9.79987 88.5601C11.164 88.5601 12.2698 87.4542 12.2698 86.0901C12.2698 84.7259 11.164 83.6201 9.79987 83.6201C8.43572 83.6201 7.3299 84.7259 7.3299 86.0901C7.3299 87.4542 8.43572 88.5601 9.79987 88.5601Z" fill="#E59816"/>
<path d="M13.0899 77.1599C14.454 77.1599 15.5599 76.0541 15.5599 74.6899C15.5599 73.3258 14.454 72.22 13.0899 72.22C11.7258 72.22 10.6199 73.3258 10.6199 74.6899C10.6199 76.0541 11.7258 77.1599 13.0899 77.1599Z" fill="#E59816"/>
<path d="M16.3898 65.76C17.754 65.76 18.8599 64.6542 18.8599 63.29C18.8599 61.9259 17.754 60.8201 16.3898 60.8201C15.0257 60.8201 13.9199 61.9259 13.9199 63.29C13.9199 64.6542 15.0257 65.76 16.3898 65.76Z" fill="#E59816"/>
<path d="M19.6799 54.3601C21.044 54.3601 22.1498 53.254 22.1498 51.8899C22.1498 50.5257 21.044 49.4199 19.6799 49.4199C18.3157 49.4199 17.2099 50.5257 17.2099 51.8899C17.2099 53.254 18.3157 54.3601 19.6799 54.3601Z" fill="#E59816"/>
<path d="M18.2199 103.34C19.5841 103.34 20.6899 102.234 20.6899 100.87C20.6899 99.506 19.5841 98.3999 18.2199 98.3999C16.8558 98.3999 15.7498 99.506 15.7498 100.87C15.7498 102.234 16.8558 103.34 18.2199 103.34Z" fill="#E59816"/>
<path d="M21.5098 91.9399C22.874 91.9399 23.9799 90.8341 23.9799 89.47C23.9799 88.1058 22.874 87 21.5098 87C20.1457 87 19.0399 88.1058 19.0399 89.47C19.0399 90.8341 20.1457 91.9399 21.5098 91.9399Z" fill="#E59816"/>
<path d="M24.7999 80.54C26.164 80.54 27.2698 79.4342 27.2698 78.0701C27.2698 76.7059 26.164 75.6001 24.7999 75.6001C23.4357 75.6001 22.3299 76.7059 22.3299 78.0701C22.3299 79.4342 23.4357 80.54 24.7999 80.54Z" fill="#E59816"/>
<path d="M28.0999 69.1499C29.4641 69.1499 30.5699 68.0441 30.5699 66.6799C30.5699 65.3158 29.4641 64.21 28.0999 64.21C26.7358 64.21 25.6298 65.3158 25.6298 66.6799C25.6298 68.0441 26.7358 69.1499 28.0999 69.1499Z" fill="#E59816"/>
<path d="M31.3898 57.75C32.754 57.75 33.8599 56.6442 33.8599 55.28C33.8599 53.9159 32.754 52.8101 31.3898 52.8101C30.0257 52.8101 28.9199 53.9159 28.9199 55.28C28.9199 56.6442 30.0257 57.75 31.3898 57.75Z" fill="#E59816"/>
<path d="M34.6799 46.3501C36.044 46.3501 37.1498 45.244 37.1498 43.8799C37.1498 42.5157 36.044 41.4099 34.6799 41.4099C33.3157 41.4099 32.2099 42.5157 32.2099 43.8799C32.2099 45.244 33.3157 46.3501 34.6799 46.3501Z" fill="#E59816"/>
<path d="M29.9299 106.72C31.294 106.72 32.3998 105.614 32.3998 104.25C32.3998 102.886 31.294 101.78 29.9299 101.78C28.5657 101.78 27.4599 102.886 27.4599 104.25C27.4599 105.614 28.5657 106.72 29.9299 106.72Z" fill="#E59816"/>
<path d="M33.2199 95.3301C34.5841 95.3301 35.6899 94.2243 35.6899 92.8601C35.6899 91.496 34.5841 90.3899 33.2199 90.3899C31.8558 90.3899 30.7498 91.496 30.7498 92.8601C30.7498 94.2243 31.8558 95.3301 33.2199 95.3301Z" fill="#E59816"/>
<path d="M36.5098 83.9299C37.874 83.9299 38.9799 82.8241 38.9799 81.46C38.9799 80.0958 37.874 78.99 36.5098 78.99C35.1457 78.99 34.0399 80.0958 34.0399 81.46C34.0399 82.8241 35.1457 83.9299 36.5098 83.9299Z" fill="#E59816"/>
<path d="M39.8099 72.53C41.174 72.53 42.2798 71.4242 42.2798 70.0601C42.2798 68.6959 41.174 67.5901 39.8099 67.5901C38.4457 67.5901 37.3399 68.6959 37.3399 70.0601C37.3399 71.4242 38.4457 72.53 39.8099 72.53Z" fill="#E59816"/>
<path d="M43.0999 61.1299C44.4641 61.1299 45.5699 60.0241 45.5699 58.6599C45.5699 57.2958 44.4641 56.1899 43.0999 56.1899C41.7358 56.1899 40.6298 57.2958 40.6298 58.6599C40.6298 60.0241 41.7358 61.1299 43.0999 61.1299Z" fill="#E59816"/>
<path d="M46.3898 49.73C47.754 49.73 48.8599 48.6242 48.8599 47.26C48.8599 45.8959 47.754 44.79 46.3898 44.79C45.0257 44.79 43.9199 45.8959 43.9199 47.26C43.9199 48.6242 45.0257 49.73 46.3898 49.73Z" fill="#E59816"/>
<path d="M41.6398 110.11C43.004 110.11 44.1099 109.004 44.1099 107.64C44.1099 106.276 43.004 105.17 41.6398 105.17C40.2757 105.17 39.1699 106.276 39.1699 107.64C39.1699 109.004 40.2757 110.11 41.6398 110.11Z" fill="#E59816"/>
<path d="M44.9299 98.71C46.294 98.71 47.3998 97.6041 47.3998 96.24C47.3998 94.8758 46.294 93.77 44.9299 93.77C43.5657 93.77 42.4599 94.8758 42.4599 96.24C42.4599 97.6041 43.5657 98.71 44.9299 98.71Z" fill="#E59816"/>
<path d="M48.2299 87.3101C49.5941 87.3101 50.6999 86.2042 50.6999 84.8401C50.6999 83.4759 49.5941 82.3701 48.2299 82.3701C46.8658 82.3701 45.7598 83.4759 45.7598 84.8401C45.7598 86.2042 46.8658 87.3101 48.2299 87.3101Z" fill="#E59816"/>
<path d="M51.5198 75.9099C52.884 75.9099 53.9899 74.8041 53.9899 73.4399C53.9899 72.0758 52.884 70.97 51.5198 70.97C50.1557 70.97 49.0499 72.0758 49.0499 73.4399C49.0499 74.8041 50.1557 75.9099 51.5198 75.9099Z" fill="#E59816"/>
<path d="M54.8099 64.52C56.174 64.52 57.2798 63.4142 57.2798 62.05C57.2798 60.6859 56.174 59.5801 54.8099 59.5801C53.4457 59.5801 52.3399 60.6859 52.3399 62.05C52.3399 63.4142 53.4457 64.52 54.8099 64.52Z" fill="#E59816"/>
<path d="M58.1099 53.1201C59.4741 53.1201 60.5799 52.014 60.5799 50.6499C60.5799 49.2858 59.4741 48.1799 58.1099 48.1799C56.7458 48.1799 55.6398 49.2858 55.6398 50.6499C55.6398 52.014 56.7458 53.1201 58.1099 53.1201Z" fill="#E59816"/>
<path d="M56.6398 102.09C58.004 102.09 59.1099 100.984 59.1099 99.6201C59.1099 98.256 58.004 97.1499 56.6398 97.1499C55.2757 97.1499 54.1699 98.256 54.1699 99.6201C54.1699 100.984 55.2757 102.09 56.6398 102.09Z" fill="#E59816"/>
<path d="M59.9399 90.7C61.304 90.7 62.4099 89.5941 62.4099 88.23C62.4099 86.8658 61.304 85.76 59.9399 85.76C58.5757 85.76 57.4699 86.8658 57.4699 88.23C57.4699 89.5941 58.5757 90.7 59.9399 90.7Z" fill="#E59816"/>
<path d="M63.2299 79.3C64.5941 79.3 65.6999 78.1942 65.6999 76.8301C65.6999 75.4659 64.5941 74.3601 63.2299 74.3601C61.8658 74.3601 60.7598 75.4659 60.7598 76.8301C60.7598 78.1942 61.8658 79.3 63.2299 79.3Z" fill="#E59816"/>
<path d="M66.5198 67.8999C67.884 67.8999 68.9899 66.7941 68.9899 65.4299C68.9899 64.0658 67.884 62.96 66.5198 62.96C65.1557 62.96 64.0499 64.0658 64.0499 65.4299C64.0499 66.7941 65.1557 67.8999 66.5198 67.8999Z" fill="#E59816"/>
</g>
<path d="M62.5198 97.75C87.3285 97.75 107.44 77.6387 107.44 52.8301C107.44 28.0214 87.3285 7.90991 62.5198 7.90991C37.7112 7.90991 17.5999 28.0214 17.5999 52.8301C17.5999 77.6387 37.7112 97.75 62.5198 97.75Z" fill="white"/>
<path d="M108.85 116.67C122.895 116.67 134.28 105.285 134.28 91.24C134.28 77.1954 122.895 65.8101 108.85 65.8101C94.8053 65.8101 83.4199 77.1954 83.4199 91.24C83.4199 105.285 94.8053 116.67 108.85 116.67Z" fill="white"/>
<path d="M115.62 25.6699V38.6399H125.2L109.53 57.1299L93.8599 38.6399H103.44V25.6699H115.62Z" fill="white"/>
<path d="M49.9499 62.3301C52.8299 66.1301 57.3898 68.5901 62.5198 68.5901C71.2198 68.5901 78.2798 61.5301 78.2798 52.8301C78.2798 44.1301 71.2198 37.0701 62.5198 37.0701" stroke="#0569AA" stroke-width="6.4" stroke-miterlimit="10" stroke-linecap="round" stroke-linejoin="round"/>
<path d="M47.3699 74.1202C47.9699 73.2202 49.1898 72.9301 50.1298 73.4901C58.9298 78.7001 70.0499 77.7201 77.7999 71.0401C78.6599 70.3001 79.9599 70.3901 80.7099 71.2601C81.4499 72.1201 81.3599 73.43 80.4899 74.17C71.3999 82 58.3598 83.1601 48.0298 77.0401C47.0498 76.4601 46.7299 75.1901 47.3099 74.2201C47.3299 74.1901 47.3499 74.1602 47.3699 74.1202Z" fill="#E59816"/>
<path d="M63.7299 52.8301C63.7299 53.5001 63.1898 54.04 62.5198 54.04C61.8498 54.04 61.3099 53.5001 61.3099 52.8301C61.3099 52.1601 61.8498 51.6201 62.5198 51.6201C63.1898 51.6201 63.7299 52.1601 63.7299 52.8301Z" stroke="#0569AA" stroke-width="6.4" stroke-miterlimit="10" stroke-linecap="round" stroke-linejoin="round"/>
<path d="M62.5198 23.1201V52.8301L39.0599 70.5701" stroke="#0569AA" stroke-width="6.4" stroke-miterlimit="10" stroke-linecap="round" stroke-linejoin="round"/>
<path d="M75.7598 96.8501C71.5698 98.1101 67.1198 98.79 62.5198 98.79C37.1398 98.79 16.5599 78.2101 16.5599 52.8301C16.5599 27.4501 37.1398 6.87012 62.5198 6.87012C74.5998 6.87012 85.5899 11.5299 93.7899 19.1499" stroke="#0569AA" stroke-width="6.4" stroke-miterlimit="10" stroke-linecap="round" stroke-linejoin="round"/>
<path d="M16.5599 52.8301H22.7798" stroke="#0569AA" stroke-width="6.4" stroke-miterlimit="10" stroke-linecap="round" stroke-linejoin="round"/>
<path d="M62.5198 6.87012V13.0901" stroke="#0569AA" stroke-width="6.4" stroke-miterlimit="10" stroke-linecap="round" stroke-linejoin="round"/>
<path d="M62.5198 92.5701V98.78" stroke="#0569AA" stroke-width="6.4" stroke-miterlimit="10" stroke-linecap="round" stroke-linejoin="round"/>
<path d="M103.02 97.75C103.02 101.35 105.94 104.26 109.54 104.26C113.14 104.26 116.06 101.34 116.06 97.75C116.06 94.15 113.39 92.49 109.54 91.23C106.12 90.11 103.02 88.31 103.02 84.72C103.02 81.12 105.94 78.21 109.54 78.21C113.14 78.21 116.06 81.13 116.06 84.72" stroke="#0569AA" stroke-width="5" stroke-miterlimit="10" stroke-linecap="round" stroke-linejoin="round"/>
<path d="M109.53 74.5801V78.25" stroke="#0569AA" stroke-width="5" stroke-miterlimit="10" stroke-linecap="round" stroke-linejoin="round"/>
<path d="M109.53 104.27V107.94" stroke="#0569AA" stroke-width="5" stroke-miterlimit="10" stroke-linecap="round" stroke-linejoin="round"/>
<path d="M109.53 115.99C123.199 115.99 134.28 104.909 134.28 91.24C134.28 77.5709 123.199 66.49 109.53 66.49C95.8608 66.49 84.7798 77.5709 84.7798 91.24C84.7798 104.909 95.8608 115.99 109.53 115.99Z" stroke="#0569AA" stroke-width="5" stroke-miterlimit="10" stroke-linecap="round" stroke-linejoin="round"/>
<path d="M115.62 26.46V38.6399H125.2L109.53 57.1299L93.8599 38.6399H103.44V26.46" stroke="#0569AA" stroke-width="6" stroke-miterlimit="10" stroke-linecap="round" stroke-linejoin="round"/>
<path d="M39.0599 20.28C39.0599 29.55 31.5498 37.0601 22.2798 37.0601C13.0098 37.0601 5.49982 29.55 5.49982 20.28C5.49982 11.01 13.0098 3.5 22.2798 3.5C31.5498 3.5 39.0599 11.02 39.0599 20.28Z" fill="white" stroke="#0569AA" stroke-width="6" stroke-miterlimit="10" stroke-linecap="round" stroke-linejoin="round"/>
<path d="M15.7999 20.1001L20.8499 25.1599L28.7698 17.25" stroke="#0569AA" stroke-width="6" stroke-miterlimit="10" stroke-linecap="round" stroke-linejoin="round"/>
</svg>
