<?xml version="1.0" encoding="UTF-8"?>
<svg id="Layer_2" data-name="Layer 2" xmlns="http://www.w3.org/2000/svg" viewBox="0 0 100 100">
  <defs>
    <style>
      .cls-1 {
        fill: none;
      }

      .cls-2 {
        fill: #e59816;
      }

      .cls-3 {
        fill: #0569aa;
      }
    </style>
  </defs>
  <g id="BG">
    <g>
      <path class="cls-1" d="M56.35,0H0V56.35C0,25.28,25.28,0,56.35,0Z"/>
      <path class="cls-1" d="M83.48,5c-1.38,0-2.5-1.12-2.5-2.5s1.12-2.5,2.5-2.5h-27.13c1.38,0,2.5,1.12,2.5,2.5s-1.12,2.5-2.5,2.5C28.04,5,5,28.04,5,56.35c0,1.38-1.12,2.5-2.5,2.5s-2.5-1.12-2.5-2.5v22.79c0-1.38,1.12-2.5,2.5-2.5s2.5,1.12,2.5,2.5v20.86H100V5h-16.52Z"/>
      <path class="cls-2" d="M2.5,58.85c1.38,0,2.5-1.12,2.5-2.5C5,28.04,28.04,5,56.35,5c1.38,0,2.5-1.12,2.5-2.5s-1.12-2.5-2.5-2.5C25.28,0,0,25.28,0,56.35c0,1.38,1.12,2.5,2.5,2.5Z"/>
      <path class="cls-3" d="M2.5,76.64c-1.38,0-2.5,1.12-2.5,2.5v20.86H5v-20.86c0-1.38-1.12-2.5-2.5-2.5Z"/>
      <path class="cls-3" d="M80.98,2.5c0,1.38,1.12,2.5,2.5,2.5h16.52V0h-16.52c-1.38,0-2.5,1.12-2.5,2.5Z"/>
    </g>
  </g>
</svg>