<svg width="723" height="92" viewBox="0 0 723 92" fill="none" xmlns="http://www.w3.org/2000/svg">
<path d="M3.1187 49.9946C1.62632 48.3683 1.32977 46.742 2.23859 45.1157C3.02305 43.7477 4.58235 42.4849 6.92615 41.3082C11.1546 38.5722 14.1776 35.3865 16.0048 31.7417H4.4867C1.49238 31.7417 0 30.211 0 27.1593C0 24.165 1.49238 22.6726 4.4867 22.6726H6.43825C4.94587 21.7638 3.57789 20.9506 2.34381 20.2331C1.43499 19.774 0.908826 19.1139 0.784462 18.2337C0.65053 17.3536 0.947076 16.5309 1.66457 15.7465C4.26666 12.5608 6.44784 8.75332 8.19851 4.33359C9.24127 1.08097 11.3841 -0.191369 14.6368 0.52612C18.1477 1.24361 19.3531 3.26214 18.2434 6.57215C18.2434 6.63912 18.2147 6.75392 18.1477 6.91655C18.0808 7.07918 18.0138 7.22268 17.9564 7.35662H29.8571H37.3668C40.3611 7.35662 41.8535 8.85856 41.8535 11.8433C41.8535 14.8376 40.3611 16.33 37.3668 16.33H29.3692V20.721C29.3692 21.5629 29.3406 22.2134 29.2736 22.6726H39.615C42.6093 22.6726 44.1017 24.165 44.1017 27.1593C44.1017 30.2206 42.6093 31.7417 39.615 31.7417H28.2021C31.5217 33.6263 35.4249 35.8361 39.9116 38.3808C41.6718 39.4236 42.5136 40.4663 42.4466 41.4995C42.3797 42.4753 41.5379 43.7094 39.9116 45.2113C38.6105 46.3784 37.4433 47.0194 36.4006 47.1151C35.3578 47.2107 34.1908 46.742 32.8897 45.6992C30.6798 43.939 27.6568 41.7291 23.8111 39.0601C20.8168 43.3554 16.5884 47.1246 11.1259 50.3773C7.73932 52.2714 5.07027 52.1375 3.1187 49.9946ZM10.7337 22.6726H18.3486C18.4155 22.156 18.4443 21.4385 18.4443 20.5297V16.33H13.5653C12.8478 17.5641 12.1304 18.6738 11.4224 19.6496C11.2885 19.8409 11.0781 20.1566 10.7911 20.5775C10.4945 20.9985 10.2553 21.3046 10.0544 21.5055C9.4613 22.2804 9.69092 22.6726 10.7337 22.6726ZM19.1235 87.9545C17.2389 87.9545 15.7082 87.371 14.5411 86.1943C13.374 85.0272 12.7809 83.4966 12.7809 81.612V56.3372C12.7809 54.4526 13.3644 52.922 14.5411 51.7548C15.7082 50.5877 17.2389 49.9946 19.1235 49.9946H44.3026H69.4816C71.3662 49.9946 72.8969 50.5782 74.064 51.7548C75.2311 52.9315 75.8242 54.4526 75.8242 56.3372V81.612C75.8242 83.4966 75.2407 85.0272 74.064 86.1943C72.8969 87.3614 71.3662 87.9545 69.4816 87.9545H19.1235ZM24.0981 64.5357H44.006H64.0096V61.417C64.0096 59.8577 63.2252 59.0732 61.6658 59.0732H26.4419C24.8825 59.0732 24.0981 59.8577 24.0981 61.417V64.5357ZM26.4419 78.6846H61.6658C63.2252 78.6846 64.0096 77.9001 64.0096 76.3408V72.9255H44.006H24.0981V76.3408C24.0981 77.9001 24.8825 78.6846 26.4419 78.6846ZM53.7639 44.1399C51.8793 44.1399 50.3486 43.5563 49.1815 42.3797C48.0144 41.2125 47.4212 39.6819 47.4212 37.7973V13.4983C47.4212 11.6137 48.0048 10.0831 49.1815 8.91596C50.3486 7.74885 51.8793 7.15571 53.7639 7.15571H77.7663C79.6509 7.15571 81.1815 7.73928 82.3486 8.91596C83.5157 10.0831 84.1088 11.6137 84.1088 13.4983V37.7973C84.1088 39.6819 83.5253 41.2125 82.3486 42.3797C81.1719 43.5468 79.6509 44.1399 77.7663 44.1399H65.7603H53.7639ZM60.403 33.8941H70.3522C71.9116 33.8941 72.696 33.1097 72.696 31.5503V19.7453C72.696 18.1859 71.9116 17.4015 70.3522 17.4015H60.403C58.8437 17.4015 58.0592 18.1859 58.0592 19.7453V25.6956V31.5503C58.0592 33.1097 58.8341 33.8941 60.403 33.8941Z" fill="#0569AA"/>
<path d="M117.381 87.2657C115.497 87.2657 113.966 86.6822 112.799 85.5055C111.632 84.3288 111.039 82.8078 111.039 80.9231V9.88216C111.039 7.99755 111.622 6.4669 112.799 5.29979C113.966 4.13267 115.497 3.53955 117.381 3.53955H152.117H188.03C191.474 3.53955 193.205 5.26153 193.205 8.71504C193.205 12.159 191.483 13.8905 188.03 13.8905H153.686L158.077 15.1629C159.244 15.4881 160.048 16.0717 160.469 16.9231C160.89 17.765 160.871 18.7408 160.421 19.8505C159.512 21.936 158.795 23.4953 158.278 24.5381H166.467C166.859 23.6292 167.347 22.2899 167.931 20.5393C168.122 20.0227 168.256 19.6591 168.323 19.4678C169.232 16.1482 171.384 14.8472 174.761 15.5647C178.597 16.4065 179.602 18.7216 177.784 22.4908C177.717 22.6822 177.574 23.0074 177.344 23.4666C177.115 23.9258 176.933 24.2798 176.808 24.5381H186.958C189.752 24.5381 191.158 25.9348 191.158 28.7378C191.158 31.5312 189.761 32.9375 186.958 32.9375H175.546V37.7207H184.911C187.446 37.7207 188.719 38.9931 188.719 41.5282C188.719 44.0633 187.446 45.3357 184.911 45.3357H175.546V50.2146H184.911C187.446 50.2146 188.719 51.487 188.719 54.0221C188.719 56.5572 187.446 57.8296 184.911 57.8296H175.546V62.8998H188.231C191.024 62.8998 192.431 64.2965 192.431 67.0995C192.431 69.8929 191.034 71.2992 188.231 71.2992H153.198C151.314 71.2992 149.783 70.7157 148.616 69.539C147.449 68.3623 146.856 66.8412 146.856 64.9566V42.4179C146.722 42.6092 146.502 42.8771 146.176 43.2024C145.593 43.9198 145.134 44.4364 144.808 44.7617C144.349 45.2878 143.833 45.5461 143.249 45.5461C142.723 45.5461 142.302 45.2878 141.977 44.7617C140.159 42.3605 138.753 40.6003 137.777 39.4905L135.146 42.5136C134.496 43.298 133.75 43.7189 132.898 43.7859C132.056 43.8529 131.339 43.6233 130.755 43.1067C128.019 40.8298 125.197 38.907 122.27 37.3476V74.5231C122.27 76.0825 123.054 76.8669 124.613 76.8669H190.479C193.923 76.8669 195.654 78.5889 195.654 82.0424C195.654 85.5533 193.932 87.3136 190.479 87.3136H117.381V87.2657ZM138.169 37.1085C144.215 31.1198 148.999 23.3805 152.509 13.881H137.385H124.604C123.045 13.881 122.26 14.6654 122.26 16.2248V35.7405L124.996 32.8131C126.489 31.1868 128.22 30.8615 130.172 31.8373C133.807 33.9228 136.476 35.6831 138.169 37.1085ZM127.828 70.0938C125.417 67.9509 125.092 65.6358 126.852 63.1677C127.244 62.6511 127.79 61.8379 128.507 60.7282C129.091 59.8194 129.55 59.1306 129.875 58.681C130.009 58.4896 130.2 58.1931 130.459 57.8009C131.693 55.9163 132.602 54.4526 133.195 53.4098C135.079 50.3485 137.289 50.0902 139.834 52.6254C141.594 54.3856 141.919 56.3659 140.81 58.5757C139.576 60.7856 137.653 64.2391 135.051 68.9171C133.032 72.2367 130.621 72.629 127.828 70.0938ZM133.874 25.5999C132.898 24.8155 131.827 24.0406 130.65 23.2561C127.589 21.4385 127.302 19.2573 129.77 16.7222C131.329 15.0289 133.051 14.675 134.945 15.6508C136.639 16.5596 137.873 17.2771 138.657 17.7937C139.116 18.052 139.729 18.4442 140.513 18.9608C142.924 20.8454 143.019 22.9022 140.81 25.1121C138.59 27.4559 136.285 27.6185 133.874 25.5999ZM156.901 37.7016H161.292H165.683V32.9183H156.901V37.7016ZM156.901 50.1859H161.292H165.683V45.307H156.901V50.1859ZM159.149 62.8711H161.292H165.683V57.8009H156.901V60.6326C156.901 62.1249 157.647 62.8711 159.149 62.8711Z" fill="#0569AA"/>
<path d="M291.664 88.0502C286.202 84.5393 281.38 80.1769 277.219 74.9728C272.923 79.8517 267.528 84.214 261.023 88.0502C259.071 89.0929 257.263 89.3991 255.608 88.9781C253.953 88.5572 252.661 87.4666 251.753 85.7064C251.102 84.5967 250.098 83.133 248.73 81.3154V85.5151C248.73 89.2269 246.874 91.0732 243.171 91.0732C239.402 91.0732 237.508 89.2173 237.508 85.5151V66.1907C236.207 66.5829 234.255 67.1952 231.653 68.0466C227.358 69.4816 224.172 70.486 222.087 71.0696C218.509 72.1793 216.069 70.7443 214.768 66.7742C213.467 62.9381 214.73 60.5656 218.576 59.6472C218.643 59.6472 218.71 59.6472 218.767 59.6472V16.8083C218.767 13.1635 220.623 11.3458 224.325 11.3458C227.97 11.3458 229.788 13.1635 229.788 16.8083V57.0068L237.498 55.1509V6.17033C237.498 2.45852 239.383 0.612183 243.162 0.612183C246.874 0.612183 248.72 2.46809 248.72 6.17033V36.4197C254.642 28.6134 259.1 18.559 262.084 6.266C263.06 2.0376 265.471 0.31562 269.307 1.09051C273.277 1.87496 274.77 4.24746 273.794 8.21756C273.076 11.2119 272.196 14.2636 271.163 17.3919H287.56H298.59C302.235 17.3919 304.053 19.2765 304.053 23.0552C304.053 26.6331 302.293 28.4221 298.782 28.4221H298.59C295.472 43.3841 290.851 55.6484 284.738 65.2053C288.45 69.8929 292.774 73.8248 297.72 77.0104C300.255 78.3784 301.785 79.8038 302.302 81.3058C302.819 82.8651 302.273 84.6923 300.647 86.7683C298.361 89.7052 295.366 90.1261 291.664 88.0502ZM251.064 79.5551C258.612 75.9772 265.117 71.127 270.58 65.014C266.743 58.3174 263.491 50.0807 260.822 40.3228C260.563 40.715 260.171 41.2986 259.655 42.0831C258.813 43.3841 258.162 44.3312 257.703 44.9147C256.861 45.9575 255.885 46.5124 254.776 46.5698C253.666 46.6367 252.69 46.2158 251.848 45.2974C250.48 43.9294 249.437 42.9249 248.73 42.2744V61.4935V78.2732C248.73 79.8517 249.504 80.2726 251.064 79.5551ZM277.802 54.4813C281.705 47.4594 284.7 38.773 286.776 28.4316H277.697H268.724C271.067 38.8974 274.1 47.5838 277.802 54.4813Z" fill="#0569AA"/>
<path d="M380.451 84.0514C372.645 84.0514 366.235 81.5163 361.232 76.4364C355.961 71.2322 353.33 64.2391 353.33 55.457C353.33 46.9333 355.932 39.9114 361.136 34.382C366.082 29.2448 371.965 26.6714 378.796 26.6714C386.076 26.6714 391.768 29.1395 395.872 34.0854C399.708 38.773 401.631 45.0104 401.631 52.8167C401.631 53.9838 401.564 55.3518 401.44 56.9112C401.306 57.5617 400.914 58.1357 400.273 58.6236C399.622 59.1115 398.876 59.3602 398.025 59.3602H384.067H367.287C367.871 63.7799 369.536 67.1665 372.262 69.5103C374.864 71.8541 378.241 73.0212 382.412 73.0212C385.081 73.0212 387.616 72.5333 390.027 71.5575C393.146 69.9312 395.556 70.6774 397.25 73.8056C398.742 76.666 398.226 78.8472 395.69 80.3396C390.735 82.8077 385.655 84.0514 380.451 84.0514ZM367.087 49.8989H378.212H389.338C389.338 46.0627 388.496 43.1067 386.803 41.0212C385.043 38.8783 382.441 37.7972 378.997 37.7972C376.003 37.7972 373.439 38.8113 371.286 40.8203C369.009 43.0301 367.603 46.0532 367.087 49.8989Z" fill="#0569AA"/>
<path d="M422.802 86.4909C421.568 82.3964 423.615 80.4065 428.953 80.5405C429.278 80.5405 429.604 80.5405 429.929 80.5405C431.096 80.4735 431.689 79.8613 431.689 78.6846V57.8965L426.514 59.2645C422.735 60.1734 420.429 58.7767 419.588 55.0648C419.128 53.1802 419.195 51.7166 419.779 50.6738C420.362 49.6311 421.568 48.8849 423.386 48.4257C425.146 48.0334 427.91 47.3829 431.68 46.4741V29.1013H425.146C421.568 29.1013 419.779 27.3124 419.779 23.7345C419.779 20.1566 421.568 18.3677 425.146 18.3677H431.68V5.77812C431.68 2.00892 433.564 0.114746 437.343 0.114746C441.112 0.114746 443.006 1.99935 443.006 5.77812V18.3677H447.493C451.071 18.3677 452.86 20.1566 452.86 23.7345C452.86 27.3124 451.071 29.1013 447.493 29.1013H443.006V43.7381C443.523 43.6042 444.288 43.4128 445.302 43.1545C446.307 42.8962 447.072 42.6953 447.598 42.571C451.243 41.5952 453.319 43.0302 453.845 46.8663C454.238 50.052 452.898 52.0705 449.846 52.9124C449.005 53.1707 447.704 53.5629 445.943 54.0795C444.642 54.4048 443.666 54.6631 443.016 54.864V66.7647V78.5698C443.016 81.4971 442.71 83.7262 442.088 85.2568C441.466 86.7874 440.376 88.0024 438.816 88.9112C436.999 89.9539 434.234 90.5662 430.522 90.7671C426.217 90.9106 423.644 89.4756 422.802 86.4909ZM464.081 86.9788C462.197 86.9788 460.666 86.3952 459.499 85.2185C458.332 84.0514 457.739 82.5208 457.739 80.6361V53.0176C457.739 51.133 458.322 49.6024 459.499 48.4352C460.666 47.2681 462.197 46.675 464.081 46.675H481.158H498.33C500.214 46.675 501.745 47.2586 502.912 48.4352C504.079 49.6024 504.672 51.133 504.672 53.0176V80.6361C504.672 82.5208 504.089 84.0514 502.912 85.2185C501.745 86.3856 500.214 86.9788 498.33 86.9788H464.081ZM474.815 41.1169C468.118 41.1169 463.622 40.1124 461.345 38.0938C459.069 36.0753 457.93 32.2391 457.93 26.5757V5.7877C457.93 2.01849 459.843 0.124322 463.689 0.124322C467.458 0.124322 469.353 2.00892 469.353 5.7877V12.9148C478.326 10.6379 485.711 8.29413 491.499 5.89293C492.867 5.30937 494.101 5.14673 495.211 5.40503C496.187 5.73029 497.229 6.44779 498.33 7.54794C500.147 9.36558 500.96 10.8867 500.769 12.0825C500.578 13.2879 499.334 14.3115 497.057 15.1533C489.251 17.8224 480.01 20.2236 469.343 22.376V26.4705C469.343 28.2882 469.735 29.4457 470.51 29.9336C471.295 30.4215 473.084 30.6607 475.877 30.6607H492.657C494.675 30.6607 496.072 30.2397 496.856 29.3883C497.44 26.5949 498.349 24.5094 499.592 23.1414C501.085 21.4481 502.912 21.0272 505.055 21.869C506.547 22.4526 507.523 23.7919 507.982 25.8678C508.307 27.5611 508.307 29.417 507.982 31.426C507.006 35.0708 505.447 37.6059 503.295 39.0409C501.152 40.4089 497.899 41.0882 493.537 41.0882H484.171H474.815V41.1169ZM468.664 62.1919H480.957H493.25V58.5853C493.25 57.026 492.465 56.2415 490.906 56.2415H470.998C469.439 56.2415 468.654 57.026 468.654 58.5853V62.1919H468.664ZM471.008 77.7088H490.916C492.475 77.7088 493.259 76.9244 493.259 75.365V71.2705H480.966H468.673V75.365C468.664 76.9244 469.448 77.7088 471.008 77.7088Z" fill="#0569AA"/>
<path d="M552.294 87.0744C550.993 83.1713 552.945 81.2867 558.149 81.411C558.474 81.411 558.8 81.411 559.125 81.411C560.235 81.411 560.78 80.8562 560.78 79.756V65.7028H541.561C540.652 74.2266 538.892 81.3154 536.29 86.9788C535.448 88.5381 534.529 89.4661 533.554 89.7626C532.578 90.0592 531.372 89.7148 529.947 88.739C527.345 87.0457 526.828 84.7019 528.388 81.7172C531.449 74.7527 532.97 64.4113 532.97 50.6834V36.2379C531.927 35.1952 530.598 34.0281 528.971 32.727C527.929 31.8852 527.326 30.9094 527.163 29.7997C527.001 28.6899 527.307 27.6855 528.091 26.7766C532.444 20.9889 535.859 13.8331 538.337 5.30937C539.246 1.86542 541.36 0.468714 544.679 1.10967C548.123 1.82716 549.367 3.87439 548.391 7.26094C548.257 7.72013 548.066 8.33239 547.808 9.11684H557.757C559.9 9.11684 561.43 9.7865 562.339 11.1162C563.248 12.446 563.382 14.4167 562.731 17.0188C561.89 19.4869 560.742 22.156 559.316 25.0164H565.075C566.635 25.0164 567.869 25.4756 568.787 26.3844C569.696 27.2932 570.155 28.5273 570.155 30.0962V30.9763C573.924 29.2161 576.823 26.9106 578.842 24.0502C580.535 21.582 581.74 18.3868 582.448 14.4837H576.297C573.178 14.4837 571.609 12.8861 571.609 9.7004C571.609 6.58172 573.169 5.01281 576.297 5.01281H593.076H608.105C610.181 5.01281 611.712 5.79726 612.688 7.35661C613.798 9.11685 614.247 12.0442 614.056 16.1387C613.539 25.8965 612.496 31.6843 610.937 33.5115C609.502 35.2717 607.551 36.3432 605.082 36.7354C603.915 36.9267 602.385 37.032 600.5 37.032C597.047 37.032 595.095 35.5396 594.645 32.5453C594.645 32.4783 594.626 32.3635 594.598 32.2009C594.559 32.0382 594.511 31.9234 594.454 31.8565C593.937 30.5554 593.947 29.5605 594.502 28.8813C595.057 28.2021 596.176 27.9246 597.869 28.049C598.453 28.049 599.036 28.049 599.63 28.049C600.797 28.049 601.677 27.695 602.26 26.9775C602.978 26.0687 603.494 23.237 603.82 18.492C603.887 16.9327 603.753 15.8612 603.427 15.2681C603.102 14.7515 602.519 14.4837 601.667 14.4837H592.789C591.881 20.0131 590.379 24.5381 588.303 28.049C585.768 32.2104 582.19 35.597 577.569 38.1991L582.152 39.1748C583.386 39.4331 584.294 39.988 584.888 40.8299C585.471 41.6717 585.672 42.7145 585.471 43.9485C585.213 44.9913 585.012 45.7375 584.888 46.1967H589.575V42.8771C589.575 39.2323 591.393 37.4146 595.038 37.4146C598.682 37.4146 600.5 39.2323 600.5 42.8771V46.1967H610.162C613.415 46.1967 615.041 47.823 615.041 51.0756C615.041 54.3282 613.415 55.9545 610.162 55.9545H600.5V64.7366H611.913C615.233 64.7366 616.887 66.3916 616.887 69.7112C616.887 73.0308 615.233 74.6858 611.913 74.6858H600.5V85.3237C600.5 88.9686 598.673 90.7862 595.038 90.7862C591.393 90.7862 589.575 88.9686 589.575 85.3237V74.6762H576.699C573.379 74.6762 571.724 73.0212 571.724 69.7016C571.724 66.382 573.379 64.727 576.699 64.727H589.575V55.945H581.578C581.185 56.9877 580.535 58.4227 579.626 60.2403C579.042 61.1492 578.277 61.7327 577.33 62.0006C576.383 62.2589 575.493 62.1345 574.651 61.6083C573.417 60.8239 571.915 60.0777 570.165 59.3602V79.9474C570.165 82.3581 569.906 84.2427 569.38 85.6107C568.864 87.1701 567.916 88.3468 566.548 89.1217C564.788 90.0974 562.416 90.681 559.421 90.8819C555.576 91.0063 553.203 89.7339 552.294 87.0744ZM541.36 25.0164H549.654C550.238 23.7823 551.051 21.7351 552.093 18.8651C552.227 18.4059 552.323 18.0807 552.39 17.8893H544.679C544.22 19.0565 543.675 20.2618 543.024 21.4959C542.69 22.2804 542.144 23.4475 541.36 25.0164ZM542.144 57.1121H547.702V49.0092H542.24V50.6642C542.24 51.707 542.24 52.7497 542.24 53.7829C542.24 55.2275 542.202 56.3372 542.144 57.1121ZM542.24 40.8203H547.702V37.2137V33.5019H542.24V40.8203ZM555.317 40.8203H560.78V37.2137V35.0708C560.78 34.0281 560.263 33.5115 559.221 33.5115H555.317V40.8203ZM555.317 57.1121H560.78V49.0092H555.317V53.1037V57.1121ZM570.145 57.7052C573.398 52.6924 575.608 46.3498 576.785 38.6774C576.392 38.8687 576 39.0696 575.618 39.2609C575.158 39.5192 574.804 39.4523 574.546 39.0696C573.436 36.9841 571.973 34.9752 570.155 33.0236V45.4122V57.7052H570.145Z" fill="#0569AA"/>
<path d="M645.769 87.0744C644.602 83.1043 646.324 81.191 650.944 81.3154C651.078 81.3154 651.174 81.3154 651.241 81.3154C652.083 81.3154 652.513 80.8945 652.513 80.043V59.6568H638.661C635.475 59.6568 633.878 58.0592 633.878 54.8735C633.878 51.6879 635.475 50.0903 638.661 50.0903H657.593H676.525C679.711 50.0903 681.309 51.6879 681.309 54.8735C681.309 58.0592 679.711 59.6568 676.525 59.6568H663.256V80.3396C663.256 82.8747 662.998 84.7976 662.472 86.0987C661.955 87.591 660.913 88.7007 659.353 89.4182C657.536 90.327 655.288 90.8819 652.619 91.0732C648.83 91.1976 646.553 89.8679 645.769 87.0744ZM636.891 82.8747C635.265 82.0329 634.308 81.0858 634.012 80.043C633.715 79.0003 634.059 77.6993 635.035 76.1399C636.47 73.3465 637.637 70.1226 638.546 66.4777C639.264 63.1007 641.177 61.6945 644.305 62.278C647.491 62.8616 648.725 64.7462 648.017 67.9414C647.5 70.2182 646.745 72.629 645.769 75.1641C645.051 77.0487 644.209 78.9716 643.234 80.9232C641.674 83.5922 639.56 84.2427 636.891 82.8747ZM642.067 31.646C638.948 31.646 637.379 30.0867 637.379 26.9584C637.379 23.8397 638.938 22.2708 642.067 22.2708H652.408V17.2962H639.819C636.7 17.2962 635.131 15.6986 635.131 12.513C635.131 9.39429 636.69 7.82539 639.819 7.82539H652.408V5.96948C652.408 2.3916 654.197 0.602661 657.775 0.602661C661.353 0.602661 663.142 2.3916 663.142 5.96948V7.82539H675.435C678.553 7.82539 680.122 9.38472 680.122 12.513C680.122 15.6986 678.563 17.2962 675.435 17.2962H663.142V22.2708H673.292C676.41 22.2708 677.979 23.8302 677.979 26.9584C677.979 30.0771 676.42 31.646 673.292 31.646H657.679H642.067ZM712.811 86.29C709.367 82.3199 706.468 77.374 704.125 71.4619C702.24 66.7743 700.968 62.2876 700.317 57.9922C699.667 62.2876 698.232 66.8125 696.022 71.5575C693.353 77.4123 689.976 82.3581 685.872 86.3857C684.178 87.8206 682.552 88.5668 680.993 88.6338C679.299 88.7008 677.932 87.8876 676.898 86.1943C675.856 84.568 675.664 82.8747 676.315 81.1241C676.898 79.4978 678.037 78.0054 679.73 76.6374C685.192 71.2418 689.23 64.4114 691.832 56.1459C693.716 50.0998 694.663 44.1782 694.663 38.3904V28.1447H692.903C691.535 33.0236 689.909 37.4146 688.024 41.3178C687.115 43.011 685.814 44.006 684.121 44.293C682.428 44.5895 680.773 44.0538 679.146 42.6858C678.754 42.3605 678.171 41.9396 677.386 41.4134V43.8529C677.386 45.02 676.803 45.6131 675.626 45.6131H642.641C639.522 45.6131 637.953 44.0538 637.953 40.9255C637.953 37.8069 639.512 36.2379 642.641 36.2379H657.67H677.377C681.146 29.0822 683.978 19.066 685.862 6.17994C686.12 4.22837 686.819 2.76469 687.957 1.7889C689.096 0.813115 690.607 0.459159 692.492 0.717455C696.261 1.17665 697.887 3.34825 697.371 7.25139C696.586 11.939 695.936 15.3829 695.419 17.5928H716.886C718.972 17.5928 720.531 18.2242 721.574 19.4965C722.617 20.7689 723.009 22.5674 722.741 24.9112C721.698 32.5261 720.694 38.4765 719.718 42.7719C719.393 44.2643 718.771 45.1826 717.862 45.5079C717.02 45.7662 715.777 45.6418 714.15 45.1157C711.29 44.2069 710.085 42.5136 710.544 40.0454C710.611 39.7202 710.678 39.2323 710.735 38.5817C711.252 35.1378 711.577 32.4974 711.711 30.6798C711.902 28.9865 711.223 28.1447 709.664 28.1447H705.76V38.3904C705.76 43.8529 706.669 49.6119 708.496 55.658C710.898 63.7226 714.514 70.4574 719.326 75.8529C720.952 77.3548 722.024 78.9716 722.55 80.7318C723.009 82.6164 722.684 84.3767 721.574 86.003C719.249 89.4469 716.322 89.5426 712.811 86.29ZM669.676 73.9014C669.609 73.71 669.494 73.3943 669.331 72.9734C669.169 72.5525 669.054 72.2368 668.987 72.0454C668.595 71.0696 668.202 70.0939 667.82 69.1181C666.519 66.1907 667.36 64.1052 670.355 62.8711C672.89 61.7614 674.841 62.4502 676.209 64.9184C677.185 66.803 678.132 68.9841 679.041 71.4523C679.5 72.7534 679.462 73.8248 678.945 74.6762C678.486 75.4607 677.577 76.1399 676.209 76.7235C672.899 78.2254 670.718 77.2783 669.676 73.9014Z" fill="#0569AA"/>
</svg>
