<svg width="53" height="60" viewBox="0 0 53 60" fill="none" xmlns="http://www.w3.org/2000/svg">
<path d="M33.6393 33.7409C33.6393 41.0194 27.7425 46.9162 20.464 46.9162C17.5924 46.9162 12.2825 50.2033 10.1153 48.641C6.80112 46.248 7.28876 38.1478 7.28876 33.75C7.28876 26.4715 13.1855 20.5747 20.464 20.5747C27.7425 20.5747 33.6393 26.4715 33.6393 33.7409Z" fill="#F9D44F"/>
<path d="M30.1266 19.9696C30.0995 19.9516 30.0813 19.9335 30.0542 19.9245C26.406 17.387 21.9902 16.4027 17.5924 17.1612C13.1676 17.9288 9.32061 20.367 6.73793 24.0243C3.36057 28.8194 2.74648 35.1407 5.1305 40.5318L5.2027 40.6762C5.2027 40.6853 5.50977 41.2813 5.58201 42.2024C5.62717 42.7532 5.46458 43.1144 5.42846 43.1777C4.697 44.2974 4.98595 45.8326 6.08766 46.6001L6.26833 46.3383L6.15093 46.555L6.11477 46.6092C6.11477 46.6092 6.11478 46.6092 6.12381 46.6092L6.13285 46.6182C6.6837 46.9885 7.34297 47.1239 7.99316 47.0065C8.65237 46.8891 9.23024 46.5098 9.60951 45.959C9.80818 45.6791 10.7745 44.1439 10.5939 41.8141C10.4675 40.0712 9.91662 38.8431 9.68183 38.3645C8.02927 34.5717 8.47169 30.2823 10.8557 26.9049C12.6618 24.3403 15.3619 22.6336 18.4593 22.1008C21.5567 21.559 24.6722 22.2543 27.2368 24.0694C29.8014 25.8755 31.5082 28.5756 32.041 31.673C32.5738 34.7704 31.8784 37.8859 30.0723 40.4505C27.6883 43.8278 23.8052 45.6881 19.6784 45.4082C19.1546 45.3359 17.8092 45.2456 16.1295 45.7061C13.8719 46.3292 12.7611 47.756 12.5534 48.036C11.7497 49.1467 11.9935 50.709 13.0952 51.5127C13.1223 51.5307 13.1404 51.5488 13.1675 51.5668C13.3752 51.7113 13.61 51.8287 13.8538 51.901C14.8562 52.208 15.9488 51.8648 16.59 51.034C16.6351 50.9889 16.9061 50.709 17.466 50.5464C18.36 50.3026 19.0192 50.3839 19.0644 50.3929L19.2269 50.4109C25.0785 50.8354 30.8038 48.1263 34.1812 43.3402C39.5091 35.7908 37.694 25.3066 30.1266 19.9696Z" fill="#0569AA"/>
<path d="M12.9689 54.0774L3.99271 47.729C3.6315 47.4672 3.13483 47.404 2.63816 47.5575C2.13246 47.711 1.67196 48.0632 1.3288 48.5418C-0.982966 51.8288 -0.206391 56.2266 3.09872 58.5655C3.11678 58.5745 3.12585 58.5835 3.14391 58.5926C3.93858 59.1434 4.81453 59.5317 5.74466 59.7394C6.5303 59.911 7.34294 59.9561 8.13761 59.8568C10.1514 59.613 11.9123 58.5474 13.1043 56.8587C13.7996 55.8744 13.7455 54.6192 12.9689 54.0774Z" fill="#0569AA"/>
<path d="M19.9132 10.4697C19.9223 10.4787 19.9313 10.4787 19.9313 10.4877C20.5183 10.8851 21.2226 11.0386 21.9179 10.9031C22.1979 10.849 22.4598 10.7587 22.7036 10.6232C23.0648 10.4245 23.3809 10.1356 23.6156 9.79242C24.013 9.20545 24.1666 8.50107 24.0311 7.80573L22.9655 2.16177C22.6946 0.725941 21.3038 -0.231272 19.859 0.0486683C18.4232 0.319579 17.475 1.71929 17.7459 3.15511L18.8115 8.79908C18.956 9.47635 19.3443 10.0724 19.9132 10.4697Z" fill="#0569AA"/>
<path d="M52.1245 21.884C52.0162 21.2339 51.6549 20.665 51.1041 20.2857C51.0951 20.2766 51.086 20.2767 51.086 20.2676C50.5081 19.8703 49.7766 19.7348 49.0723 19.8793L43.4734 21.0352C42.7961 21.1797 42.2001 21.568 41.7938 22.1279C41.3784 22.7058 41.2158 23.3921 41.3332 24.0604C41.4416 24.7105 41.8028 25.2795 42.3536 25.6678C42.3627 25.6768 42.3717 25.6768 42.3717 25.6858C42.9497 26.0832 43.6811 26.2186 44.3855 26.0741L49.9843 24.9183C50.2553 24.8641 50.5081 24.7647 50.7519 24.6383C51.7543 24.0784 52.3051 22.9767 52.1245 21.884Z" fill="#0569AA"/>
<path d="M37.6307 16.3845C37.7752 16.5561 37.9468 16.7006 38.1274 16.827C38.6963 17.2243 39.4006 17.3869 40.096 17.2695L40.1412 17.2604C40.4121 17.2063 40.674 17.1159 40.9178 16.9805C41.0803 16.8902 41.2338 16.7818 41.3783 16.6644L45.7309 12.9168C46.2727 12.4563 46.5978 11.8061 46.643 11.1017C46.6972 10.3974 46.4714 9.71107 46.0109 9.16925C45.5504 8.63646 44.9002 8.30233 44.1958 8.25717C43.4914 8.20299 42.8051 8.42876 42.2633 8.88931L37.9107 12.6369C37.3689 13.0974 37.0438 13.7476 36.9986 14.452C36.9444 15.1654 37.1702 15.8517 37.6307 16.3845Z" fill="#0569AA"/>
<path d="M28.8892 8.15795C28.6545 8.8262 28.6906 9.54863 29.0066 10.1898C29.2053 10.6052 29.5034 10.9573 29.8736 11.2192C30.0723 11.3547 30.289 11.4631 30.5148 11.5443C30.9572 11.6978 31.4268 11.734 31.8874 11.6437C32.1583 11.5895 32.4202 11.4992 32.664 11.3637C33.2419 11.0477 33.6844 10.5329 33.9011 9.90984L35.7975 4.49163C36.0323 3.82339 35.9871 3.10096 35.6801 2.4598C35.3731 1.81865 34.8313 1.34004 34.1631 1.10525C32.7814 0.626643 31.2643 1.3581 30.7767 2.73974L28.8892 8.15795Z" fill="#0569AA"/>
</svg>
