<svg xmlns="http://www.w3.org/2000/svg" viewBox="0 0 145.5 42.9"><title>sinopac-logo</title><g id="圖層_2" data-name="圖層 2"><g id="header_footer" data-name="header/footer"><path d="M51.8,39a3.1,3.1,0,0,1-1.1,2.7,4,4,0,0,1-3,1h-4V31.1h4.1a4,4,0,0,1,2.5.6,2.1,2.1,0,0,1,.7,1.7,2.5,2.5,0,0,1-.4,1.6,2.6,2.6,0,0,1-1.4.7,3,3,0,0,1,1.9,1A3.3,3.3,0,0,1,51.8,39Zm-3.2-5a1.8,1.8,0,0,0-.4-1,1.6,1.6,0,0,0-1.1-.3h-.9v2.6h.9a1.6,1.6,0,0,0,1.1-.3A1.3,1.3,0,0,0,48.6,34Zm.7,4.9a1.8,1.8,0,0,0-.6-1.5,2,2,0,0,0-1.6-.6h-.9V41h1a2.3,2.3,0,0,0,1.6-.5A2.5,2.5,0,0,0,49.3,38.9Z" fill="#231815"/><path d="M61,42.7H58.7V41.5a2,2,0,0,1-.9.9,2.9,2.9,0,0,1-4.6-2.6v-.2a2.9,2.9,0,0,1,1-2.2,4,4,0,0,1,2.7-.8h1.1l.7.4v-.9a.9.9,0,0,0-.4-.8,2.1,2.1,0,0,0-1.2-.3l-1.4.2a4.3,4.3,0,0,0-1.2.5V34.2l1.4-.4,1.8-.2a3.4,3.4,0,0,1,2.5.8,3.2,3.2,0,0,1,.9,2.5Zm-2.4-3v-.2a1.7,1.7,0,0,0-.4-1.3,1.6,1.6,0,0,0-1.1-.4,2.1,2.1,0,0,0-1.1.4,2.2,2.2,0,0,0-.4,1.3v.2a1.4,1.4,0,0,0,.5,1.2,1.5,1.5,0,0,0,1,.3,2,2,0,0,0,1.1-.3A1.6,1.6,0,0,0,58.6,39.7Z" fill="#231815"/><path d="M70.8,42.7H68.4V36.5a.9.9,0,0,0-.3-.7,1.2,1.2,0,0,0-.9-.3l-.9.2-.7.6v6.4H63.2V33.8h2.3v1.4a2.6,2.6,0,0,1,1-1.1,3.6,3.6,0,0,1,1.9-.5,2.4,2.4,0,0,1,1.7.7,3.4,3.4,0,0,1,.6,2.2Z" fill="#231815"/><path d="M81.3,42.7H78.4l-2.8-3.6v3.6H73.1V31.1h2.5v6.3l2.9-3.6h2.3l-3.4,4Z" fill="#231815"/><path d="M93.4,39.2a3,3,0,0,1-1.2,2.7,5.5,5.5,0,0,1-3.4.9H86.7a3.9,3.9,0,0,1-1.4-.4v-2a3.2,3.2,0,0,0,1.3.5,6.5,6.5,0,0,0,1.9.2,3.4,3.4,0,0,0,1.7-.3c.4-.2.5-.6.5-1.1a1.2,1.2,0,0,0-.3-.9,7.7,7.7,0,0,0-2-1.1,5,5,0,0,1-2-1.3,3.1,3.1,0,0,1-.7-2.2,3,3,0,0,1,1.1-2.3,5.3,5.3,0,0,1,3.2-.9l1.7.2,1.1.2v1.8l-1.3-.3H90.1a2.8,2.8,0,0,0-1.5.3.9.9,0,0,0-.4.8,1.5,1.5,0,0,0,.3,1l2,.9a6.1,6.1,0,0,1,2.3,1.4A3.7,3.7,0,0,1,93.4,39.2Z" fill="#231815"/><path d="M97.6,31.9a1.4,1.4,0,0,1-1.3,1.3,1.3,1.3,0,0,1-.9-.4,1.2,1.2,0,0,1-.4-.9,1.3,1.3,0,0,1,.4-1,1.2,1.2,0,0,1,.9-.3,1.6,1.6,0,0,1,.9.3A1.8,1.8,0,0,1,97.6,31.9Zm-.1,10.8H95V33.8h2.5Z" fill="#231815"/><path d="M107.4,42.7H105V36.5a.9.9,0,0,0-.3-.7,1.2,1.2,0,0,0-.9-.3l-.9.2-.7.6v6.4H99.8V33.8h2.3v1.4a2.6,2.6,0,0,1,1-1.1,3.6,3.6,0,0,1,1.9-.5,2.4,2.4,0,0,1,1.7.7,3.4,3.4,0,0,1,.6,2.2Z" fill="#231815"/><path d="M118.2,38.5a4.4,4.4,0,1,1-8.8,0V38a4.2,4.2,0,0,1,1.2-3.2,4.1,4.1,0,0,1,3.2-1.2,4.5,4.5,0,0,1,3.3,1.2,4.8,4.8,0,0,1,1.1,3.2Zm-2.5-.2h0a4.9,4.9,0,0,0-.5-2.5,2,2,0,0,0-1.4-.6,1.7,1.7,0,0,0-1.4.7,4.3,4.3,0,0,0-.5,2.4h0a4.7,4.7,0,0,0,.5,2.5,1.8,1.8,0,0,0,1.4.6,2,2,0,0,0,1.4-.6A4.4,4.4,0,0,0,115.7,38.3Z" fill="#231815"/><path d="M127.9,35a2.7,2.7,0,0,1-.9,2.2,4,4,0,0,1-2.6.8h-1.6v4.7h-2.6V31.1h4.3a3.1,3.1,0,0,1,2.6.9,3.2,3.2,0,0,1,.8,2.1Zm-2.7.2V34.1a1.1,1.1,0,0,0-.4-1,1.7,1.7,0,0,0-1.2-.3h-.8v3.6h.9a2,2,0,0,0,1.1-.3A1.3,1.3,0,0,0,125.2,35.2Z" fill="#231815"/><path d="M136.6,42.7h-2.3V41.5a1.8,1.8,0,0,1-1,.9,2.4,2.4,0,0,1-1.5.4,2.8,2.8,0,0,1-3-3v-.2a2.6,2.6,0,0,1,1-2.2,4,4,0,0,1,2.7-.8h1a1.5,1.5,0,0,1,.8.4v-.9a1,1,0,0,0-.5-.8,1.6,1.6,0,0,0-1.1-.3l-1.5.2-1.1.5V34.2l1.4-.4,1.8-.2a3.6,3.6,0,0,1,2.5.8,3.2,3.2,0,0,1,.8,2.5Zm-2.3-3v-.2a1.7,1.7,0,0,0-.4-1.3,1.6,1.6,0,0,0-1.1-.4,1.8,1.8,0,0,0-1.1.4,1.7,1.7,0,0,0-.4,1.3v.2c0,.6.1,1,.4,1.2a2,2,0,0,0,1.1.3,1.7,1.7,0,0,0,1-.3A1.7,1.7,0,0,0,134.3,39.7Z" fill="#231815"/><path d="M145.5,42.2l-.8.4a4,4,0,0,1-1.5.3,5.4,5.4,0,0,1-3.5-1.1,4.5,4.5,0,0,1-1.2-3.4V38a4.4,4.4,0,0,1,1.2-3.2,4.9,4.9,0,0,1,3.4-1.2l1.5.2a1.3,1.3,0,0,1,.9.5v1.5l-.8-.5-1.2-.2a2.2,2.2,0,0,0-1.8.8,3.8,3.8,0,0,0-.5,2.2v.2a3.9,3.9,0,0,0,.4,2.2,1.9,1.9,0,0,0,1.6.7l1.4-.2c.5-.2.8-.3.9-.5Z" fill="#231815"/><path d="M44.6,12.6h8l.6.7c-.5,3.7-3.2,7.1-7.9,10.1l-1.5-1.7a26.8,26.8,0,0,0,4.1-2.6,14.3,14.3,0,0,0,2.2-2.6,10.2,10.2,0,0,0,.9-1.6v-.2H44.6ZM56.5,15v7.6a2.9,2.9,0,0,1-.9,2.2,3.8,3.8,0,0,1-2.4.6,15,15,0,0,1-3.7-.5V22.8c2.3.6,3.8.8,4.5.5a2.2,2.2,0,0,0,.6-1.4V10.6c0-.2-.2-.3-.4-.3H45.2v-2H55.9c.4,0,.7.2.6.7v.8a32.3,32.3,0,0,0,3.2,6.9,26.6,26.6,0,0,0,6.1,5.9L64,24A28.6,28.6,0,0,1,56.5,15ZM47.8,6l.3-2.1,5.8.6a59.9,59.9,0,0,1,7.2,1.2l-.5,2A70.8,70.8,0,0,0,47.8,6ZM64.1,8l1.4,1.4A30.5,30.5,0,0,1,60.7,14l-1.3-1.5A29.5,29.5,0,0,0,64.1,8Z" fill="#231815"/><path d="M76.6,23.6l-.3-.6-.4-.9H73c-.2,0-.2-.1-.2-.2V18.1c0-.1,0-.2.2-.2H89.8a.2.2,0,0,1,.2.2v3.8a.2.2,0,0,1-.2.2H86.7l-.4,1.1a.8.8,0,0,0-.2.4h6.2v1.6H70.4V23.6ZM71,15.4H91.8V17H71Zm14.3-3.7H83.1V10.3h2.2V9.2H83.1V7.7h2.2V6.5H83.1V5.1h2.2V3.8h1.6V5.1h1.9V6.5H86.9V7.7h1.8V9.2H86.9v1.1h1.8v1.4H86.9v1.2h2.5c.1,0,.2-.1.2-.3V4.1h1.9v9.6c0,.5-.3.7-.8.7H72c-.5,0-.7-.2-.7-.7V4.1h1.8v8.5a.3.3,0,0,0,.3.3h2.5V11.7H73.8V10.3h2.1V9.1h-2V7.6h2V6.5H73.8V5.1h2.1V3.8h1.6V5.1h1.8V6.5H77.5V7.6h1.8V9.1H77.5v1.2h1.9v1.4H77.5v1.2h2.8V3.8h1.8v9.1h3.2Zm3,7.7H74.4v1H88.3a.1.1,0,0,1,.1-.1v-1Zm-9.7,4.2h5.5l.7-1.5H77.9A8.5,8.5,0,0,0,78.6,23.6Z" fill="#231815"/><path d="M102.7,5.5a18.3,18.3,0,0,1-4,3.7L96.9,8.1a14.1,14.1,0,0,0,5-4.5h1.8c0,.1-.1.3-.1.4h0a26.9,26.9,0,0,0,3.2,2.7L105.3,8A30.7,30.7,0,0,1,102.7,5.5ZM97.1,17.2l1.8-.6a21.3,21.3,0,0,1,1.2,4.4l-1.8.5A15.1,15.1,0,0,0,97.1,17.2Zm3.9,5.3v-7H97.5V13.7H101V11.3H98.5V9.5h6.9v1.8h-2.5v2.4h3.2v1.8h-3.2v6.6l2.9-.8.4,1.8A81.7,81.7,0,0,1,97.8,25l-.2-1.9Zm3.5-5.8,1.6.5c-.3,1.1-.6,2.2-1,3.4l-1.6-.7A18.9,18.9,0,0,0,104.5,16.7Zm9.5,2.1a25.7,25.7,0,0,0,3.3-3l1.2,1.4a23.8,23.8,0,0,1-3.6,3.2A15.9,15.9,0,0,0,119,24l-1.7,1.4a13.5,13.5,0,0,1-3.2-3,11.3,11.3,0,0,1-2.8-7.3h-2.1v7.7l3.3-1.2.6,1.8a30.5,30.5,0,0,1-6.8,2.1l-.5-1.8,1.5-.4V4.9c0-.4.2-.6.5-.6h9.1a.5.5,0,0,1,.6.6v9.6a.5.5,0,0,1-.6.6h-3.7A12,12,0,0,0,114,18.8Zm-4.8-10h6.4V6.6a.5.5,0,0,0-.5-.5h-5.4c-.4,0-.5.2-.5.5Zm6.4,1.8h-6.4v2.7h5.9a.5.5,0,0,0,.5-.5Z" fill="#231815"/><path d="M126.9,16.3l-1.6,1.5-1.6-1.3a17.7,17.7,0,0,0,5.1-6.8l1.8.9a21.3,21.3,0,0,1-1.8,3.1V25.4h-1.9Zm1-12.4,1.9.7a17.4,17.4,0,0,1-4.2,6.5l-1.7-1.2A15.1,15.1,0,0,0,127.9,3.9Zm11.9,8.5h-8.3v-2h14v2h-3.7V22.9a2.6,2.6,0,0,1-1,2q-2,1.2-6.9-.3v-2l3.5.8a2.8,2.8,0,0,0,2.2-.4c.2-.1.2-.3.2-.7Zm-7.6-7.5h12.3v2H132.2Z" fill="#231815"/><path d="M32.8,16.4A16.4,16.4,0,1,1,16.4,0,16.5,16.5,0,0,1,32.8,16.4Z" fill="#e62310"/><rect x="18.2" y="5.9" width="4.1" height="4.09" fill="#fff"/><polygon points="3.6 17.3 3.6 20.9 7.3 20.9 7.3 24.6 10.9 24.6 10.9 17.3 3.6 17.3" fill="#fff"/><polygon points="4.5 10 4.5 13.6 14.6 13.6 14.6 24.6 18.2 24.6 18.2 10 4.5 10" fill="#fff"/><polygon points="21.8 13.6 21.8 24.6 25.5 24.6 25.5 17.3 30 17.3 30 13.6 21.8 13.6" fill="#fff"/></g></g></svg>