<svg width="41" height="41" viewBox="0 0 41 41" fill="none" xmlns="http://www.w3.org/2000/svg">
<path d="M20.67 40.29C31.6107 40.29 40.48 31.4207 40.48 20.48C40.48 9.53922 31.6107 0.669922 20.67 0.669922C9.72922 0.669922 0.859985 9.53922 0.859985 20.48C0.859985 31.4207 9.72922 40.29 20.67 40.29Z" fill="#0569AA"/>
<path d="M13.78 33.9099C13.09 33.9099 12.53 33.7 12.11 33.28C11.69 32.86 11.48 32.3101 11.48 31.6101V31.5C11.48 30.59 11.96 29.69 12.92 28.8C16.25 25.72 18.69 23.1501 20.25 21.1001C22.07 18.6801 22.99 16.6099 22.99 14.8799C22.99 13.6499 22.67 12.69 22.03 12.01C21.39 11.33 20.51 10.99 19.4 10.99C18.51 10.99 17.62 11.2701 16.74 11.8401C15.41 13.0501 14.14 13.0501 12.93 11.8401C12.34 11.2501 12.07 10.64 12.13 10.03C12.19 9.41003 12.53 8.82 13.15 8.25C15.2 6.65 17.58 5.84009 20.29 5.84009C22.98 5.84009 25.16 6.62996 26.82 8.20996C28.48 9.78996 29.32 11.89 29.32 14.5C29.32 18.4 26.56 23.13 21.03 28.71C22.86 28.46 24.35 28.3401 25.51 28.3401H27.8C29.65 28.3401 30.57 29.2601 30.57 31.1101C30.57 32.9601 29.65 33.8899 27.8 33.8899H21.03H13.78V33.9099Z" fill="white"/>
</svg>
