<svg width="41" height="41" viewBox="0 0 41 41" fill="none" xmlns="http://www.w3.org/2000/svg">
<path d="M20.7899 40.4199C31.7306 40.4199 40.5999 31.5509 40.5999 20.6101C40.5999 9.66935 31.7306 0.800049 20.7899 0.800049C9.8491 0.800049 0.979919 9.66935 0.979919 20.6101C0.979919 31.5509 9.8491 40.4199 20.7899 40.4199Z" fill="#0569AA"/>
<path d="M20.2699 35.6699C17.1399 35.6699 14.46 34.8399 12.24 33.1899C11.67 32.6999 11.3799 32.1899 11.3499 31.6699C11.3299 31.1799 11.5499 30.61 12.0199 29.97C13.0999 28.44 14.4099 28.2599 15.9399 29.4099C17.0999 30.0299 18.2199 30.3401 19.3099 30.3401C20.6699 30.3401 21.73 29.98 22.49 29.27C23.25 28.53 23.6399 27.46 23.6399 26.05C23.6399 24.69 23.2699 23.6301 22.5299 22.8701C21.7899 22.1601 20.82 21.8 19.61 21.8C18.82 21.8 18.0899 21.9199 17.4299 22.1699C16.3199 22.8099 15.2699 22.82 14.2799 22.21L14.1699 22.1399C13.2799 21.5499 12.8599 20.7199 12.9099 19.6599L13.4299 9.96997C13.4799 9.25997 13.7299 8.69002 14.1699 8.27002C14.6099 7.85002 15.18 7.63989 15.87 7.63989H21.2699H26.2699C28.0999 7.63989 29.0099 8.54988 29.0099 10.3799C29.0099 12.2099 28.0999 13.1201 26.2699 13.1201H19.1999L18.7899 17.78C19.6999 17.41 20.6499 17.22 21.6399 17.22C24.1299 17.22 26.1399 17.9201 27.6699 19.3301C29.3699 20.8801 30.2199 23.0799 30.2199 25.9199C30.2199 28.8999 29.2199 31.3099 27.2199 33.1299C25.3499 34.8199 23.0299 35.6699 20.2699 35.6699Z" fill="white"/>
</svg>
