<svg width="114" height="88" viewBox="0 0 114 88" fill="none" xmlns="http://www.w3.org/2000/svg">
<mask id="mask0_15_2772" style="mask-type:luminance" maskUnits="userSpaceOnUse" x="46" y="10" width="68" height="67">
<path d="M79.9271 76.6071C98.3182 76.6071 113.227 61.6982 113.227 43.3071C113.227 24.916 98.3182 10.0071 79.9271 10.0071C61.5361 10.0071 46.6271 24.916 46.6271 43.3071C46.6271 61.6982 61.5361 76.6071 79.9271 76.6071Z" fill="white"/>
</mask>
<g mask="url(#mask0_15_2772)">
<path d="M46.9972 19.827C47.9637 19.827 48.7472 19.0435 48.7472 18.077C48.7472 17.1105 47.9637 16.327 46.9972 16.327C46.0307 16.327 45.2472 17.1105 45.2472 18.077C45.2472 19.0435 46.0307 19.827 46.9972 19.827Z" fill="#0569AA"/>
<path d="M54.4072 15.837C55.3737 15.837 56.1572 15.0535 56.1572 14.087C56.1572 13.1205 55.3737 12.337 54.4072 12.337C53.4407 12.337 52.6572 13.1205 52.6572 14.087C52.6572 15.0535 53.4407 15.837 54.4072 15.837Z" fill="#0569AA"/>
<path d="M61.8171 11.837C62.7836 11.837 63.5671 11.0535 63.5671 10.087C63.5671 9.12054 62.7836 8.33704 61.8171 8.33704C60.8506 8.33704 60.0671 9.12054 60.0671 10.087C60.0671 11.0535 60.8506 11.837 61.8171 11.837Z" fill="#0569AA"/>
<path d="M51.1072 27.437C52.0737 27.437 52.8572 26.6535 52.8572 25.687C52.8572 24.7205 52.0737 23.937 51.1072 23.937C50.1407 23.937 49.3572 24.7205 49.3572 25.687C49.3572 26.6535 50.1407 27.437 51.1072 27.437Z" fill="#0569AA"/>
<path d="M58.5071 23.447C59.4736 23.447 60.2571 22.6635 60.2571 21.697C60.2571 20.7305 59.4736 19.947 58.5071 19.947C57.5406 19.947 56.7571 20.7305 56.7571 21.697C56.7571 22.6635 57.5406 23.447 58.5071 23.447Z" fill="#0569AA"/>
<path d="M65.9172 19.447C66.8837 19.447 67.6672 18.6635 67.6672 17.697C67.6672 16.7305 66.8837 15.947 65.9172 15.947C64.9507 15.947 64.1672 16.7305 64.1672 17.697C64.1672 18.6635 64.9507 19.447 65.9172 19.447Z" fill="#0569AA"/>
<path d="M73.3271 15.457C74.2936 15.457 75.0771 14.6735 75.0771 13.707C75.0771 12.7405 74.2936 11.957 73.3271 11.957C72.3607 11.957 71.5771 12.7405 71.5771 13.707C71.5771 14.6735 72.3607 15.457 73.3271 15.457Z" fill="#0569AA"/>
<path d="M80.7372 11.457C81.7037 11.457 82.4872 10.6735 82.4872 9.70703C82.4872 8.74053 81.7037 7.95703 80.7372 7.95703C79.7707 7.95703 78.9872 8.74053 78.9872 9.70703C78.9872 10.6735 79.7707 11.457 80.7372 11.457Z" fill="#0569AA"/>
<path d="M47.7972 39.047C48.7637 39.047 49.5472 38.2635 49.5472 37.297C49.5472 36.3305 48.7637 35.547 47.7972 35.547C46.8307 35.547 46.0472 36.3305 46.0472 37.297C46.0472 38.2635 46.8307 39.047 47.7972 39.047Z" fill="#0569AA"/>
<path d="M55.2072 35.047C56.1737 35.047 56.9572 34.2635 56.9572 33.297C56.9572 32.3305 56.1737 31.547 55.2072 31.547C54.2407 31.547 53.4572 32.3305 53.4572 33.297C53.4572 34.2635 54.2407 35.047 55.2072 35.047Z" fill="#0569AA"/>
<path d="M62.6172 31.057C63.5837 31.057 64.3672 30.2735 64.3672 29.307C64.3672 28.3405 63.5837 27.557 62.6172 27.557C61.6507 27.557 60.8672 28.3405 60.8672 29.307C60.8672 30.2735 61.6507 31.057 62.6172 31.057Z" fill="#0569AA"/>
<path d="M70.0272 27.057C70.9937 27.057 71.7772 26.2735 71.7772 25.307C71.7772 24.3405 70.9937 23.557 70.0272 23.557C69.0607 23.557 68.2772 24.3405 68.2772 25.307C68.2772 26.2735 69.0607 27.057 70.0272 27.057Z" fill="#0569AA"/>
<path d="M77.4272 23.067C78.3937 23.067 79.1772 22.2835 79.1772 21.317C79.1772 20.3505 78.3937 19.567 77.4272 19.567C76.4607 19.567 75.6772 20.3505 75.6772 21.317C75.6772 22.2835 76.4607 23.067 77.4272 23.067Z" fill="#0569AA"/>
<path d="M84.8372 19.077C85.8037 19.077 86.5872 18.2935 86.5872 17.327C86.5872 16.3605 85.8037 15.577 84.8372 15.577C83.8707 15.577 83.0872 16.3605 83.0872 17.327C83.0872 18.2935 83.8707 19.077 84.8372 19.077Z" fill="#0569AA"/>
<path d="M92.2472 15.077C93.2137 15.077 93.9972 14.2935 93.9972 13.327C93.9972 12.3605 93.2137 11.577 92.2472 11.577C91.2807 11.577 90.4972 12.3605 90.4972 13.327C90.4972 14.2935 91.2807 15.077 92.2472 15.077Z" fill="#0569AA"/>
<path d="M99.6572 11.087C100.624 11.087 101.407 10.3035 101.407 9.33704C101.407 8.37054 100.624 7.58704 99.6572 7.58704C98.6907 7.58704 97.9072 8.37054 97.9072 9.33704C97.9072 10.3035 98.6907 11.087 99.6572 11.087Z" fill="#0569AA"/>
<path d="M51.9072 46.657C52.8737 46.657 53.6572 45.8735 53.6572 44.907C53.6572 43.9405 52.8737 43.157 51.9072 43.157C50.9407 43.157 50.1572 43.9405 50.1572 44.907C50.1572 45.8735 50.9407 46.657 51.9072 46.657Z" fill="#0569AA"/>
<path d="M59.3171 42.657C60.2836 42.657 61.0671 41.8735 61.0671 40.907C61.0671 39.9405 60.2836 39.157 59.3171 39.157C58.3506 39.157 57.5671 39.9405 57.5671 40.907C57.5671 41.8735 58.3506 42.657 59.3171 42.657Z" fill="#0569AA"/>
<path d="M66.7172 38.667C67.6837 38.667 68.4672 37.8835 68.4672 36.917C68.4672 35.9505 67.6837 35.167 66.7172 35.167C65.7507 35.167 64.9672 35.9505 64.9672 36.917C64.9672 37.8835 65.7507 38.667 66.7172 38.667Z" fill="#0569AA"/>
<path d="M74.1272 34.677C75.0937 34.677 75.8772 33.8935 75.8772 32.927C75.8772 31.9605 75.0937 31.177 74.1272 31.177C73.1607 31.177 72.3772 31.9605 72.3772 32.927C72.3772 33.8935 73.1607 34.677 74.1272 34.677Z" fill="#0569AA"/>
<path d="M81.5372 30.677C82.5037 30.677 83.2872 29.8935 83.2872 28.927C83.2872 27.9605 82.5037 27.177 81.5372 27.177C80.5707 27.177 79.7872 27.9605 79.7872 28.927C79.7872 29.8935 80.5707 30.677 81.5372 30.677Z" fill="#0569AA"/>
<path d="M88.9471 26.687C89.9136 26.687 90.6971 25.9035 90.6971 24.937C90.6971 23.9705 89.9136 23.187 88.9471 23.187C87.9806 23.187 87.1971 23.9705 87.1971 24.937C87.1971 25.9035 87.9806 26.687 88.9471 26.687Z" fill="#0569AA"/>
<path d="M96.3472 22.687C97.3137 22.687 98.0972 21.9035 98.0972 20.937C98.0972 19.9705 97.3137 19.187 96.3472 19.187C95.3807 19.187 94.5972 19.9705 94.5972 20.937C94.5972 21.9035 95.3807 22.687 96.3472 22.687Z" fill="#0569AA"/>
<path d="M103.757 18.697C104.724 18.697 105.507 17.9135 105.507 16.947C105.507 15.9805 104.724 15.197 103.757 15.197C102.791 15.197 102.007 15.9805 102.007 16.947C102.007 17.9135 102.791 18.697 103.757 18.697Z" fill="#0569AA"/>
<path d="M111.167 14.697C112.134 14.697 112.917 13.9135 112.917 12.947C112.917 11.9805 112.134 11.197 111.167 11.197C110.201 11.197 109.417 11.9805 109.417 12.947C109.417 13.9135 110.201 14.697 111.167 14.697Z" fill="#0569AA"/>
<path d="M48.5972 58.257C49.5637 58.257 50.3472 57.4735 50.3472 56.507C50.3472 55.5405 49.5637 54.757 48.5972 54.757C47.6307 54.757 46.8472 55.5405 46.8472 56.507C46.8472 57.4735 47.6307 58.257 48.5972 58.257Z" fill="#0569AA"/>
<path d="M56.0071 54.267C56.9736 54.267 57.7571 53.4835 57.7571 52.517C57.7571 51.5505 56.9736 50.767 56.0071 50.767C55.0406 50.767 54.2571 51.5505 54.2571 52.517C54.2571 53.4835 55.0406 54.267 56.0071 54.267Z" fill="#0569AA"/>
<path d="M63.4172 50.277C64.3837 50.277 65.1672 49.4935 65.1672 48.527C65.1672 47.5605 64.3837 46.777 63.4172 46.777C62.4507 46.777 61.6672 47.5605 61.6672 48.527C61.6672 49.4935 62.4507 50.277 63.4172 50.277Z" fill="#0569AA"/>
<path d="M70.8271 46.277C71.7936 46.277 72.5771 45.4935 72.5771 44.527C72.5771 43.5605 71.7936 42.777 70.8271 42.777C69.8607 42.777 69.0771 43.5605 69.0771 44.527C69.0771 45.4935 69.8607 46.277 70.8271 46.277Z" fill="#0569AA"/>
<path d="M78.2372 42.287C79.2037 42.287 79.9872 41.5035 79.9872 40.537C79.9872 39.5705 79.2037 38.787 78.2372 38.787C77.2707 38.787 76.4872 39.5705 76.4872 40.537C76.4872 41.5035 77.2707 42.287 78.2372 42.287Z" fill="#0569AA"/>
<path d="M85.6371 38.287C86.6036 38.287 87.3871 37.5035 87.3871 36.537C87.3871 35.5705 86.6036 34.787 85.6371 34.787C84.6706 34.787 83.8871 35.5705 83.8871 36.537C83.8871 37.5035 84.6706 38.287 85.6371 38.287Z" fill="#0569AA"/>
<path d="M93.0472 34.297C94.0137 34.297 94.7972 33.5135 94.7972 32.547C94.7972 31.5805 94.0137 30.797 93.0472 30.797C92.0807 30.797 91.2972 31.5805 91.2972 32.547C91.2972 33.5135 92.0807 34.297 93.0472 34.297Z" fill="#0569AA"/>
<path d="M100.457 30.297C101.424 30.297 102.207 29.5135 102.207 28.547C102.207 27.5805 101.424 26.797 100.457 26.797C99.4907 26.797 98.7072 27.5805 98.7072 28.547C98.7072 29.5135 99.4907 30.297 100.457 30.297Z" fill="#0569AA"/>
<path d="M107.867 26.307C108.834 26.307 109.617 25.5235 109.617 24.557C109.617 23.5905 108.834 22.807 107.867 22.807C106.901 22.807 106.117 23.5905 106.117 24.557C106.117 25.5235 106.901 26.307 107.867 26.307Z" fill="#0569AA"/>
<path d="M45.2972 69.867C46.2637 69.867 47.0472 69.0835 47.0472 68.117C47.0472 67.1505 46.2637 66.367 45.2972 66.367C44.3307 66.367 43.5472 67.1505 43.5472 68.117C43.5472 69.0835 44.3307 69.867 45.2972 69.867Z" fill="#0569AA"/>
<path d="M52.7072 65.877C53.6737 65.877 54.4572 65.0935 54.4572 64.127C54.4572 63.1605 53.6737 62.377 52.7072 62.377C51.7407 62.377 50.9572 63.1605 50.9572 64.127C50.9572 65.0935 51.7407 65.877 52.7072 65.877Z" fill="#0569AA"/>
<path d="M60.1172 61.877C61.0837 61.877 61.8672 61.0935 61.8672 60.127C61.8672 59.1605 61.0837 58.377 60.1172 58.377C59.1507 58.377 58.3672 59.1605 58.3672 60.127C58.3672 61.0935 59.1507 61.877 60.1172 61.877Z" fill="#0569AA"/>
<path d="M67.5172 57.887C68.4836 57.887 69.2672 57.1035 69.2672 56.137C69.2672 55.1705 68.4836 54.387 67.5172 54.387C66.5507 54.387 65.7672 55.1705 65.7672 56.137C65.7672 57.1035 66.5507 57.887 67.5172 57.887Z" fill="#0569AA"/>
<path d="M74.9272 53.887C75.8937 53.887 76.6772 53.1035 76.6772 52.137C76.6772 51.1705 75.8937 50.387 74.9272 50.387C73.9607 50.387 73.1772 51.1705 73.1772 52.137C73.1772 53.1035 73.9607 53.887 74.9272 53.887Z" fill="#0569AA"/>
<path d="M82.3372 49.897C83.3037 49.897 84.0872 49.1135 84.0872 48.147C84.0872 47.1805 83.3037 46.397 82.3372 46.397C81.3707 46.397 80.5872 47.1805 80.5872 48.147C80.5872 49.1135 81.3707 49.897 82.3372 49.897Z" fill="#0569AA"/>
<path d="M89.7472 45.897C90.7137 45.897 91.4972 45.1135 91.4972 44.147C91.4972 43.1805 90.7137 42.397 89.7472 42.397C88.7807 42.397 87.9972 43.1805 87.9972 44.147C87.9972 45.1135 88.7807 45.897 89.7472 45.897Z" fill="#0569AA"/>
<path d="M97.1472 41.907C98.1137 41.907 98.8972 41.1235 98.8972 40.157C98.8972 39.1905 98.1137 38.407 97.1472 38.407C96.1807 38.407 95.3972 39.1905 95.3972 40.157C95.3972 41.1235 96.1807 41.907 97.1472 41.907Z" fill="#0569AA"/>
<path d="M104.557 37.907C105.524 37.907 106.307 37.1235 106.307 36.157C106.307 35.1905 105.524 34.407 104.557 34.407C103.591 34.407 102.807 35.1905 102.807 36.157C102.807 37.1235 103.591 37.907 104.557 37.907Z" fill="#0569AA"/>
<path d="M111.967 33.917C112.934 33.917 113.717 33.1335 113.717 32.167C113.717 31.2005 112.934 30.417 111.967 30.417C111.001 30.417 110.217 31.2005 110.217 32.167C110.217 33.1335 111.001 33.917 111.967 33.917Z" fill="#0569AA"/>
<path d="M49.4072 77.477C50.3737 77.477 51.1572 76.6935 51.1572 75.727C51.1572 74.7605 50.3737 73.977 49.4072 73.977C48.4407 73.977 47.6572 74.7605 47.6572 75.727C47.6572 76.6935 48.4407 77.477 49.4072 77.477Z" fill="#0569AA"/>
<path d="M56.8071 73.487C57.7736 73.487 58.5571 72.7035 58.5571 71.737C58.5571 70.7705 57.7736 69.987 56.8071 69.987C55.8406 69.987 55.0571 70.7705 55.0571 71.737C55.0571 72.7035 55.8406 73.487 56.8071 73.487Z" fill="#0569AA"/>
<path d="M64.2172 69.487C65.1837 69.487 65.9672 68.7035 65.9672 67.737C65.9672 66.7705 65.1837 65.987 64.2172 65.987C63.2507 65.987 62.4672 66.7705 62.4672 67.737C62.4672 68.7035 63.2507 69.487 64.2172 69.487Z" fill="#0569AA"/>
<path d="M71.6272 65.497C72.5937 65.497 73.3772 64.7135 73.3772 63.747C73.3772 62.7805 72.5937 61.997 71.6272 61.997C70.6607 61.997 69.8772 62.7805 69.8772 63.747C69.8772 64.7135 70.6607 65.497 71.6272 65.497Z" fill="#0569AA"/>
<path d="M79.0372 61.497C80.0037 61.497 80.7872 60.7135 80.7872 59.747C80.7872 58.7805 80.0037 57.997 79.0372 57.997C78.0707 57.997 77.2872 58.7805 77.2872 59.747C77.2872 60.7135 78.0707 61.497 79.0372 61.497Z" fill="#0569AA"/>
<path d="M86.4371 57.507C87.4036 57.507 88.1871 56.7235 88.1871 55.757C88.1871 54.7905 87.4036 54.007 86.4371 54.007C85.4706 54.007 84.6871 54.7905 84.6871 55.757C84.6871 56.7235 85.4706 57.507 86.4371 57.507Z" fill="#0569AA"/>
<path d="M93.8472 53.507C94.8137 53.507 95.5972 52.7235 95.5972 51.757C95.5972 50.7905 94.8137 50.007 93.8472 50.007C92.8807 50.007 92.0972 50.7905 92.0972 51.757C92.0972 52.7235 92.8807 53.507 93.8472 53.507Z" fill="#0569AA"/>
<path d="M101.257 49.517C102.224 49.517 103.007 48.7335 103.007 47.767C103.007 46.8005 102.224 46.017 101.257 46.017C100.291 46.017 99.5071 46.8005 99.5071 47.767C99.5071 48.7335 100.291 49.517 101.257 49.517Z" fill="#0569AA"/>
<path d="M108.667 45.517C109.634 45.517 110.417 44.7335 110.417 43.767C110.417 42.8005 109.634 42.017 108.667 42.017C107.701 42.017 106.917 42.8005 106.917 43.767C106.917 44.7335 107.701 45.517 108.667 45.517Z" fill="#0569AA"/>
<path d="M68.3271 77.097C69.2936 77.097 70.0771 76.3135 70.0771 75.347C70.0771 74.3805 69.2936 73.597 68.3271 73.597C67.3607 73.597 66.5771 74.3805 66.5771 75.347C66.5771 76.3135 67.3607 77.097 68.3271 77.097Z" fill="#0569AA"/>
<path d="M75.7272 73.107C76.6937 73.107 77.4772 72.3235 77.4772 71.357C77.4772 70.3905 76.6937 69.607 75.7272 69.607C74.7607 69.607 73.9772 70.3905 73.9772 71.357C73.9772 72.3235 74.7607 73.107 75.7272 73.107Z" fill="#0569AA"/>
<path d="M83.1371 69.107C84.1036 69.107 84.8871 68.3235 84.8871 67.357C84.8871 66.3905 84.1036 65.607 83.1371 65.607C82.1706 65.607 81.3871 66.3905 81.3871 67.357C81.3871 68.3235 82.1706 69.107 83.1371 69.107Z" fill="#0569AA"/>
<path d="M90.5472 65.117C91.5137 65.117 92.2972 64.3335 92.2972 63.367C92.2972 62.4005 91.5137 61.617 90.5472 61.617C89.5807 61.617 88.7972 62.4005 88.7972 63.367C88.7972 64.3335 89.5807 65.117 90.5472 65.117Z" fill="#0569AA"/>
<path d="M97.9572 61.117C98.9237 61.117 99.7072 60.3335 99.7072 59.367C99.7072 58.4005 98.9237 57.617 97.9572 57.617C96.9907 57.617 96.2072 58.4005 96.2072 59.367C96.2072 60.3335 96.9907 61.117 97.9572 61.117Z" fill="#0569AA"/>
<path d="M105.357 57.127C106.324 57.127 107.107 56.3435 107.107 55.377C107.107 54.4105 106.324 53.627 105.357 53.627C104.391 53.627 103.607 54.4105 103.607 55.377C103.607 56.3435 104.391 57.127 105.357 57.127Z" fill="#0569AA"/>
<path d="M112.767 53.137C113.734 53.137 114.517 52.3535 114.517 51.387C114.517 50.4205 113.734 49.637 112.767 49.637C111.801 49.637 111.017 50.4205 111.017 51.387C111.017 52.3535 111.801 53.137 112.767 53.137Z" fill="#0569AA"/>
<path d="M87.2372 76.717C88.2037 76.717 88.9872 75.9335 88.9872 74.967C88.9872 74.0005 88.2037 73.217 87.2372 73.217C86.2707 73.217 85.4872 74.0005 85.4872 74.967C85.4872 75.9335 86.2707 76.717 87.2372 76.717Z" fill="#0569AA"/>
<path d="M94.6472 72.727C95.6137 72.727 96.3972 71.9435 96.3972 70.977C96.3972 70.0105 95.6137 69.227 94.6472 69.227C93.6807 69.227 92.8972 70.0105 92.8972 70.977C92.8972 71.9435 93.6807 72.727 94.6472 72.727Z" fill="#0569AA"/>
<path d="M102.057 68.737C103.024 68.737 103.807 67.9535 103.807 66.987C103.807 66.0205 103.024 65.237 102.057 65.237C101.091 65.237 100.307 66.0205 100.307 66.987C100.307 67.9535 101.091 68.737 102.057 68.737Z" fill="#0569AA"/>
<path d="M109.467 64.737C110.434 64.737 111.217 63.9535 111.217 62.987C111.217 62.0205 110.434 61.237 109.467 61.237C108.501 61.237 107.717 62.0205 107.717 62.987C107.717 63.9535 108.501 64.737 109.467 64.737Z" fill="#0569AA"/>
<path d="M106.157 76.347C107.124 76.347 107.907 75.5635 107.907 74.597C107.907 73.6305 107.124 72.847 106.157 72.847C105.191 72.847 104.407 73.6305 104.407 74.597C104.407 75.5635 105.191 76.347 106.157 76.347Z" fill="#0569AA"/>
<path d="M113.567 72.347C114.534 72.347 115.317 71.5635 115.317 70.597C115.317 69.6305 114.534 68.847 113.567 68.847C112.601 68.847 111.817 69.6305 111.817 70.597C111.817 71.5635 112.601 72.347 113.567 72.347Z" fill="#0569AA"/>
</g>
<path d="M1.26715 48.2671L66.7672 1.26709L90.5172 34.3571C93.1672 38.0471 92.3172 43.1871 88.6272 45.8271L36.4872 83.2471C32.7972 85.8971 27.6572 85.0471 25.0172 81.3571L1.26715 48.2671Z" fill="#F9D44F"/>
<path d="M92.0971 45.4071L34.9671 86.3971C31.9071 88.5971 27.6271 87.8871 25.4271 84.8271L0.517132 50.1171C-0.372868 48.8871 -0.0828786 47.1571 1.14712 46.2671L64.9071 0.517127C66.1371 -0.372873 67.8671 -0.0828686 68.7571 1.14713L93.6671 35.8571C95.8671 38.9271 95.1671 43.2071 92.0971 45.4071ZM3.61712 48.6471L28.1671 82.8671C29.2771 84.4171 31.4471 84.7771 33.0071 83.6671L90.1371 42.6771C91.6871 41.5671 92.0471 39.3971 90.9371 37.8371L66.3871 3.61713L3.61712 48.6471Z" fill="#0569AA"/>
<path d="M11.8193 62.9563L77.3231 15.9548L72.2451 8.87797L6.74139 55.8794L11.8193 62.9563Z" fill="white"/>
<path d="M78.2971 17.3371L12.7971 64.3371C12.0371 64.8771 10.9871 64.7071 10.4471 63.9471L5.36709 56.8671C4.82709 56.1071 4.99709 55.0571 5.75709 54.5171L71.2571 7.51711C72.0171 6.97711 73.0671 7.14713 73.6071 7.90713L78.6871 14.9871C79.2271 15.7471 79.0571 16.7971 78.2971 17.3371ZM12.2071 60.6171L74.9671 15.5771L71.8571 11.2371L9.0971 56.2771L12.2071 60.6171Z" fill="#0569AA"/>
<path d="M47.9971 49.2571L50.6871 47.3271C51.2171 46.9471 52.0771 46.4171 52.8971 46.5271C53.1471 46.5571 53.7371 46.6971 54.2371 47.3871C54.4071 47.6171 54.6171 47.9671 54.5871 48.4271C54.5771 48.6571 54.4871 48.9471 54.3271 49.1971L54.3571 49.2571C54.6571 49.1471 54.9471 49.1171 55.2671 49.1571C55.7871 49.2371 56.1771 49.4571 56.4871 49.9071C56.8371 50.3871 56.9771 50.9271 56.7971 51.5771C56.5771 52.3671 55.9871 52.8771 55.5571 53.1871L52.4171 55.4371L47.9971 49.2571ZM51.7771 50.1471L52.1271 49.8971C52.2571 49.8071 52.4271 49.6271 52.4571 49.4571C52.4771 49.3571 52.4671 49.2171 52.3471 49.0471C52.2171 48.8671 52.0671 48.8271 51.9771 48.8271C51.7871 48.8171 51.5771 48.9571 51.4971 49.0171L51.1471 49.2671L51.7771 50.1471ZM53.4371 52.4571L53.8871 52.1271C54.0171 52.0371 54.2071 51.8871 54.2871 51.6871C54.3471 51.5371 54.3471 51.3171 54.1971 51.1171C54.0871 50.9571 53.9271 50.8771 53.7671 50.8671C53.5371 50.8571 53.3071 51.0071 53.1871 51.0871L52.7071 51.4371L53.4371 52.4571Z" fill="#0569AA"/>
<path d="M60.9872 48.1271L61.3671 49.0171L58.9971 50.7171L56.7072 43.0071L59.1871 41.2271L65.8172 45.8171L63.4371 47.5271L62.6871 46.9071L60.9872 48.1271ZM59.4971 44.1371L59.4171 44.1971C59.5971 44.4671 59.7072 44.7071 59.8172 44.9671L60.3671 46.3671L61.2672 45.7271L60.1272 44.7471C59.8872 44.5471 59.6871 44.3371 59.4971 44.1371Z" fill="#0569AA"/>
<path d="M67.3671 44.7171L62.9371 38.5471L65.0771 37.0171L68.1871 38.3171C68.6871 38.5171 69.0071 38.6571 69.5571 38.9871L69.6171 38.9371C69.2471 38.6171 68.6971 38.0671 68.3771 37.6171L66.9671 35.6571L69.1171 34.1171L73.5471 40.2871L71.3971 41.8271L68.1171 40.4971C67.8171 40.3771 67.4171 40.1671 67.1171 39.9971L67.0571 40.0471C67.3571 40.3371 67.8171 40.8071 68.0171 41.0871L69.5271 43.1871L67.3671 44.7171Z" fill="#0569AA"/>
<path d="M75.7071 38.7371L71.2771 32.5671L73.4271 31.0271L74.8071 32.9471C75.0071 33.2271 75.1571 33.4571 75.3171 33.7571L75.3671 33.7271C75.2471 33.2871 75.2271 33.0871 75.1971 32.7971L74.8271 30.0371L77.2571 28.2971L77.5071 32.7071L81.8971 34.3271L79.3071 36.1871L76.7571 35.0171C76.5171 34.9071 76.2471 34.7671 76.0371 34.6371L75.9871 34.6671C76.1771 34.8571 76.3071 35.0171 76.4471 35.2171L77.8771 37.2071L75.7071 38.7371Z" fill="#0569AA"/>
</svg>
