<svg width="44" height="92" viewBox="0 0 44 92" fill="none" xmlns="http://www.w3.org/2000/svg">
<path d="M22.3792 87.9709C32.2688 87.9709 40.2858 79.9539 40.2858 70.0643C40.2858 60.1748 32.2688 52.1577 22.3792 52.1577C12.4897 52.1577 4.47263 60.1748 4.47263 70.0643C4.47263 79.9539 12.4897 87.9709 22.3792 87.9709Z" fill="#FAE06A"/>
<path d="M13.7282 50.2504C2.80371 55.0102 -2.20296 67.7909 2.56531 78.7153C7.33359 89.6398 20.1058 94.6465 31.0303 89.8782C32.2819 89.3333 33.4654 88.6776 34.5723 87.9198C38.14 85.4931 40.8904 82.0616 42.4997 77.9575C44.6028 72.5847 44.4921 66.7095 42.1846 61.4133C37.4163 50.4888 24.6526 45.4822 13.7282 50.2504ZM38.089 63.2014C41.8695 71.8695 37.9101 81.9935 29.2336 85.7741C20.5655 89.5546 10.4415 85.5868 6.65245 76.9187C3.30614 69.2469 6.03087 60.4256 12.715 55.8787C13.575 55.2912 14.5115 54.7718 15.4992 54.3375C24.1758 50.5655 34.3084 54.5419 38.089 63.2014Z" fill="#E59816"/>
<path d="M27.2838 82.3937C26.2876 82.7939 25.5978 82.5044 25.2147 81.5252L24.6612 80.1373C23.2137 80.5204 21.7918 80.6056 20.3783 80.3927C19.2288 80.1117 18.769 79.3795 18.9989 78.1959C19.1352 77.5573 19.4417 77.089 19.927 76.7995C20.4038 76.527 20.9743 76.4589 21.647 76.5781C22.5751 76.6121 23.401 76.4844 24.1247 76.1949C25.6233 75.5989 26.1172 74.6793 25.6319 73.4532C25.4275 72.9338 24.9337 72.5591 24.1673 72.3463C23.699 72.2015 22.8646 72.0823 21.6555 71.9801C21.2128 71.9461 20.8806 71.912 20.6507 71.8864C19.2288 71.7417 18.1133 71.4607 17.3044 71.0605C16.1719 70.5241 15.3716 69.6726 14.9033 68.5146C14.3328 67.0841 14.2392 65.7473 14.6308 64.4871C15.0225 63.2269 15.8484 62.1796 17.1171 61.3451L16.5126 59.838C16.1209 58.8674 16.4189 58.1777 17.4151 57.7775C18.3858 57.3858 19.0755 57.6753 19.4587 58.6545L20.0462 60.119C21.2724 59.821 22.4899 59.838 23.699 60.1786C24.7463 60.5618 25.087 61.3111 24.7208 62.435C24.5165 63.0055 24.1929 63.4057 23.7416 63.6441C23.2903 63.8825 22.7624 63.9337 22.1579 63.7804C21.5448 63.7548 20.9658 63.8485 20.4293 64.0613C19.067 64.6063 18.6243 65.4578 19.0841 66.6158C19.2714 67.0841 19.7141 67.4077 20.4038 67.5779C20.838 67.6972 21.6214 67.7908 22.7453 67.8675C24.5675 67.9782 25.8959 68.1825 26.7388 68.489C28.2034 69.034 29.2251 70.0132 29.7956 71.4352C30.3661 72.8571 30.4768 74.194 30.1192 75.4457C29.736 76.791 28.8845 77.9149 27.5477 78.8175L28.1607 80.3501C28.5524 81.3208 28.263 82.002 27.2838 82.3937Z" fill="#E59816"/>
<path d="M28.9355 12.6068V8.29834" stroke="#0569AA" stroke-width="4" stroke-miterlimit="10" stroke-linecap="round" stroke-linejoin="round"/>
<path d="M28.9355 36.312V20.5937" stroke="#0569AA" stroke-width="4" stroke-miterlimit="10" stroke-linecap="round" stroke-linejoin="round"/>
<path d="M21.6639 32.2675V14.2076" stroke="#0569AA" stroke-width="4" stroke-miterlimit="10" stroke-linecap="round" stroke-linejoin="round"/>
<path d="M14.3923 40.7822V2.75519" stroke="#0569AA" stroke-width="4" stroke-miterlimit="10" stroke-linecap="round" stroke-linejoin="round"/>
</svg>
