<svg width="93" height="103" viewBox="0 0 93 103" fill="none" xmlns="http://www.w3.org/2000/svg">
<mask id="mask0_15_5210" style="mask-type:luminance" maskUnits="userSpaceOnUse" x="0" y="12" width="90" height="91">
<path d="M44.8999 102.566C69.6975 102.566 89.7999 82.4634 89.7999 57.6659C89.7999 32.8683 69.6975 12.7659 44.8999 12.7659C20.1023 12.7659 0 32.8683 0 57.6659C0 82.4634 20.1023 102.566 44.8999 102.566Z" fill="white"/>
</mask>
<g mask="url(#mask0_15_5210)">
<path d="M86.85 14.2759C87.8165 14.2759 88.6 13.4924 88.6 12.5259C88.6 11.5594 87.8165 10.7759 86.85 10.7759C85.8835 10.7759 85.1 11.5594 85.1 12.5259C85.1 13.4924 85.8835 14.2759 86.85 14.2759Z" fill="#0569AA"/>
<path d="M35.63 12.9659C36.5965 12.9659 37.38 12.1824 37.38 11.2159C37.38 10.2494 36.5965 9.46594 35.63 9.46594C34.6635 9.46594 33.88 10.2494 33.88 11.2159C33.88 12.1824 34.6635 12.9659 35.63 12.9659Z" fill="#0569AA"/>
<path d="M43.89 14.5959C44.8565 14.5959 45.64 13.8124 45.64 12.8459C45.64 11.8794 44.8565 11.0959 43.89 11.0959C42.9235 11.0959 42.14 11.8794 42.14 12.8459C42.14 13.8124 42.9235 14.5959 43.89 14.5959Z" fill="#0569AA"/>
<path d="M52.14 16.2358C53.1065 16.2358 53.89 15.4523 53.89 14.4858C53.89 13.5193 53.1065 12.7358 52.14 12.7358C51.1735 12.7358 50.39 13.5193 50.39 14.4858C50.39 15.4523 51.1735 16.2358 52.14 16.2358Z" fill="#0569AA"/>
<path d="M60.3999 17.8658C61.3664 17.8658 62.1499 17.0823 62.1499 16.1158C62.1499 15.1493 61.3664 14.3658 60.3999 14.3658C59.4334 14.3658 58.6499 15.1493 58.6499 16.1158C58.6499 17.0823 59.4334 17.8658 60.3999 17.8658Z" fill="#0569AA"/>
<path d="M68.6599 19.4958C69.6264 19.4958 70.4099 18.7123 70.4099 17.7458C70.4099 16.7794 69.6264 15.9958 68.6599 15.9958C67.6934 15.9958 66.9099 16.7794 66.9099 17.7458C66.9099 18.7123 67.6934 19.4958 68.6599 19.4958Z" fill="#0569AA"/>
<path d="M76.9099 21.1259C77.8764 21.1259 78.6599 20.3424 78.6599 19.3759C78.6599 18.4094 77.8764 17.6259 76.9099 17.6259C75.9434 17.6259 75.1599 18.4094 75.1599 19.3759C75.1599 20.3424 75.9434 21.1259 76.9099 21.1259Z" fill="#0569AA"/>
<path d="M85.1699 22.7659C86.1364 22.7659 86.9199 21.9824 86.9199 21.0159C86.9199 20.0494 86.1364 19.2659 85.1699 19.2659C84.2034 19.2659 83.4199 20.0494 83.4199 21.0159C83.4199 21.9824 84.2034 22.7659 85.1699 22.7659Z" fill="#0569AA"/>
<path d="M0.929932 14.9159C1.89643 14.9159 2.67993 14.1324 2.67993 13.1659C2.67993 12.1994 1.89643 11.4159 0.929932 11.4159C-0.0365667 11.4159 -0.820068 12.1994 -0.820068 13.1659C-0.820068 14.1324 -0.0365667 14.9159 0.929932 14.9159Z" fill="#0569AA"/>
<path d="M9.18994 16.5459C10.1564 16.5459 10.9399 15.7624 10.9399 14.7959C10.9399 13.8294 10.1564 13.0459 9.18994 13.0459C8.22344 13.0459 7.43994 13.8294 7.43994 14.7959C7.43994 15.7624 8.22344 16.5459 9.18994 16.5459Z" fill="#0569AA"/>
<path d="M17.4399 18.1859C18.4064 18.1859 19.1899 17.4024 19.1899 16.4359C19.1899 15.4694 18.4064 14.6859 17.4399 14.6859C16.4734 14.6859 15.6899 15.4694 15.6899 16.4359C15.6899 17.4024 16.4734 18.1859 17.4399 18.1859Z" fill="#0569AA"/>
<path d="M25.7 19.8159C26.6664 19.8159 27.45 19.0324 27.45 18.0659C27.45 17.0994 26.6664 16.3159 25.7 16.3159C24.7335 16.3159 23.95 17.0994 23.95 18.0659C23.95 19.0324 24.7335 19.8159 25.7 19.8159Z" fill="#0569AA"/>
<path d="M33.95 21.4459C34.9164 21.4459 35.7 20.6624 35.7 19.6959C35.7 18.7294 34.9164 17.9459 33.95 17.9459C32.9835 17.9459 32.2 18.7294 32.2 19.6959C32.2 20.6624 32.9835 21.4459 33.95 21.4459Z" fill="#0569AA"/>
<path d="M42.21 23.0859C43.1765 23.0859 43.96 22.3024 43.96 21.3359C43.96 20.3694 43.1765 19.5859 42.21 19.5859C41.2435 19.5859 40.46 20.3694 40.46 21.3359C40.46 22.3024 41.2435 23.0859 42.21 23.0859Z" fill="#0569AA"/>
<path d="M50.47 24.7159C51.4365 24.7159 52.22 23.9324 52.22 22.9659C52.22 21.9994 51.4365 21.2159 50.47 21.2159C49.5035 21.2159 48.72 21.9994 48.72 22.9659C48.72 23.9324 49.5035 24.7159 50.47 24.7159Z" fill="#0569AA"/>
<path d="M58.72 26.3459C59.6865 26.3459 60.47 25.5624 60.47 24.5959C60.47 23.6294 59.6865 22.8459 58.72 22.8459C57.7535 22.8459 56.97 23.6294 56.97 24.5959C56.97 25.5624 57.7535 26.3459 58.72 26.3459Z" fill="#0569AA"/>
<path d="M66.98 27.9758C67.9465 27.9758 68.73 27.1923 68.73 26.2258C68.73 25.2593 67.9465 24.4758 66.98 24.4758C66.0135 24.4758 65.23 25.2593 65.23 26.2258C65.23 27.1923 66.0135 27.9758 66.98 27.9758Z" fill="#0569AA"/>
<path d="M75.23 29.6158C76.1965 29.6158 76.98 28.8323 76.98 27.8658C76.98 26.8993 76.1965 26.1158 75.23 26.1158C74.2635 26.1158 73.48 26.8993 73.48 27.8658C73.48 28.8323 74.2635 29.6158 75.23 29.6158Z" fill="#0569AA"/>
<path d="M83.49 31.2458C84.4565 31.2458 85.24 30.4623 85.24 29.4958C85.24 28.5294 84.4565 27.7458 83.49 27.7458C82.5235 27.7458 81.74 28.5294 81.74 29.4958C81.74 30.4623 82.5235 31.2458 83.49 31.2458Z" fill="#0569AA"/>
<path d="M-0.75 23.3959C0.216498 23.3959 1 22.6124 1 21.6459C1 20.6794 0.216498 19.8959 -0.75 19.8959C-1.7165 19.8959 -2.5 20.6794 -2.5 21.6459C-2.5 22.6124 -1.7165 23.3959 -0.75 23.3959Z" fill="#0569AA"/>
<path d="M7.51001 25.0359C8.47651 25.0359 9.26001 24.2524 9.26001 23.2859C9.26001 22.3194 8.47651 21.5359 7.51001 21.5359C6.54351 21.5359 5.76001 22.3194 5.76001 23.2859C5.76001 24.2524 6.54351 25.0359 7.51001 25.0359Z" fill="#0569AA"/>
<path d="M15.76 26.6659C16.7265 26.6659 17.51 25.8824 17.51 24.9159C17.51 23.9494 16.7265 23.1659 15.76 23.1659C14.7935 23.1659 14.01 23.9494 14.01 24.9159C14.01 25.8824 14.7935 26.6659 15.76 26.6659Z" fill="#0569AA"/>
<path d="M24.0199 28.2959C24.9864 28.2959 25.7699 27.5124 25.7699 26.5459C25.7699 25.5794 24.9864 24.7959 24.0199 24.7959C23.0534 24.7959 22.2699 25.5794 22.2699 26.5459C22.2699 27.5124 23.0534 28.2959 24.0199 28.2959Z" fill="#0569AA"/>
<path d="M32.2799 29.9259C33.2464 29.9259 34.0299 29.1424 34.0299 28.1759C34.0299 27.2094 33.2464 26.4259 32.2799 26.4259C31.3134 26.4259 30.5299 27.2094 30.5299 28.1759C30.5299 29.1424 31.3134 29.9259 32.2799 29.9259Z" fill="#0569AA"/>
<path d="M40.5299 31.5659C41.4964 31.5659 42.2799 30.7824 42.2799 29.8159C42.2799 28.8494 41.4964 28.0659 40.5299 28.0659C39.5634 28.0659 38.7799 28.8494 38.7799 29.8159C38.7799 30.7824 39.5634 31.5659 40.5299 31.5659Z" fill="#0569AA"/>
<path d="M48.7899 33.1959C49.7564 33.1959 50.5399 32.4124 50.5399 31.4459C50.5399 30.4794 49.7564 29.6959 48.7899 29.6959C47.8234 29.6959 47.0399 30.4794 47.0399 31.4459C47.0399 32.4124 47.8234 33.1959 48.7899 33.1959Z" fill="#0569AA"/>
<path d="M57.0399 34.8259C58.0064 34.8259 58.7899 34.0424 58.7899 33.0759C58.7899 32.1094 58.0064 31.3259 57.0399 31.3259C56.0734 31.3259 55.2899 32.1094 55.2899 33.0759C55.2899 34.0424 56.0734 34.8259 57.0399 34.8259Z" fill="#0569AA"/>
<path d="M65.2999 36.4659C66.2664 36.4659 67.0499 35.6824 67.0499 34.7159C67.0499 33.7494 66.2664 32.9659 65.2999 32.9659C64.3334 32.9659 63.5499 33.7494 63.5499 34.7159C63.5499 35.6824 64.3334 36.4659 65.2999 36.4659Z" fill="#0569AA"/>
<path d="M73.5599 38.0959C74.5264 38.0959 75.3099 37.3124 75.3099 36.3459C75.3099 35.3794 74.5264 34.5959 73.5599 34.5959C72.5934 34.5959 71.8099 35.3794 71.8099 36.3459C71.8099 37.3124 72.5934 38.0959 73.5599 38.0959Z" fill="#0569AA"/>
<path d="M81.8099 39.7258C82.7764 39.7258 83.5599 38.9423 83.5599 37.9758C83.5599 37.0093 82.7764 36.2258 81.8099 36.2258C80.8434 36.2258 80.0599 37.0093 80.0599 37.9758C80.0599 38.9423 80.8434 39.7258 81.8099 39.7258Z" fill="#0569AA"/>
<path d="M90.0699 41.3658C91.0364 41.3658 91.8199 40.5823 91.8199 39.6158C91.8199 38.6493 91.0364 37.8658 90.0699 37.8658C89.1034 37.8658 88.3199 38.6493 88.3199 39.6158C88.3199 40.5823 89.1034 41.3658 90.0699 41.3658Z" fill="#0569AA"/>
<path d="M5.82996 33.5159C6.79645 33.5159 7.57996 32.7324 7.57996 31.7659C7.57996 30.7994 6.79645 30.0159 5.82996 30.0159C4.86346 30.0159 4.07996 30.7994 4.07996 31.7659C4.07996 32.7324 4.86346 33.5159 5.82996 33.5159Z" fill="#0569AA"/>
<path d="M14.09 35.1459C15.0565 35.1459 15.84 34.3624 15.84 33.3959C15.84 32.4294 15.0565 31.6459 14.09 31.6459C13.1235 31.6459 12.34 32.4294 12.34 33.3959C12.34 34.3624 13.1235 35.1459 14.09 35.1459Z" fill="#0569AA"/>
<path d="M22.34 36.7759C23.3065 36.7759 24.09 35.9924 24.09 35.0259C24.09 34.0594 23.3065 33.2759 22.34 33.2759C21.3735 33.2759 20.59 34.0594 20.59 35.0259C20.59 35.9924 21.3735 36.7759 22.34 36.7759Z" fill="#0569AA"/>
<path d="M30.6 38.4159C31.5665 38.4159 32.35 37.6324 32.35 36.6659C32.35 35.6994 31.5665 34.9159 30.6 34.9159C29.6335 34.9159 28.85 35.6994 28.85 36.6659C28.85 37.6324 29.6335 38.4159 30.6 38.4159Z" fill="#0569AA"/>
<path d="M38.85 40.0459C39.8165 40.0459 40.6 39.2624 40.6 38.2959C40.6 37.3294 39.8165 36.5459 38.85 36.5459C37.8835 36.5459 37.1 37.3294 37.1 38.2959C37.1 39.2624 37.8835 40.0459 38.85 40.0459Z" fill="#0569AA"/>
<path d="M47.11 41.6759C48.0765 41.6759 48.86 40.8924 48.86 39.9259C48.86 38.9594 48.0765 38.1759 47.11 38.1759C46.1435 38.1759 45.36 38.9594 45.36 39.9259C45.36 40.8924 46.1435 41.6759 47.11 41.6759Z" fill="#0569AA"/>
<path d="M55.37 43.3159C56.3365 43.3159 57.12 42.5324 57.12 41.5659C57.12 40.5994 56.3365 39.8159 55.37 39.8159C54.4035 39.8159 53.62 40.5994 53.62 41.5659C53.62 42.5324 54.4035 43.3159 55.37 43.3159Z" fill="#0569AA"/>
<path d="M63.62 44.9459C64.5865 44.9459 65.37 44.1624 65.37 43.1959C65.37 42.2294 64.5865 41.4459 63.62 41.4459C62.6535 41.4459 61.87 42.2294 61.87 43.1959C61.87 44.1624 62.6535 44.9459 63.62 44.9459Z" fill="#0569AA"/>
<path d="M71.88 46.5759C72.8465 46.5759 73.63 45.7924 73.63 44.8259C73.63 43.8594 72.8465 43.0759 71.88 43.0759C70.9135 43.0759 70.13 43.8594 70.13 44.8259C70.13 45.7924 70.9135 46.5759 71.88 46.5759Z" fill="#0569AA"/>
<path d="M80.13 48.2159C81.0965 48.2159 81.88 47.4324 81.88 46.4659C81.88 45.4994 81.0965 44.7159 80.13 44.7159C79.1635 44.7159 78.38 45.4994 78.38 46.4659C78.38 47.4324 79.1635 48.2159 80.13 48.2159Z" fill="#0569AA"/>
<path d="M88.39 49.8459C89.3565 49.8459 90.14 49.0624 90.14 48.0959C90.14 47.1294 89.3565 46.3459 88.39 46.3459C87.4235 46.3459 86.64 47.1294 86.64 48.0959C86.64 49.0624 87.4235 49.8459 88.39 49.8459Z" fill="#0569AA"/>
<path d="M4.1499 41.9958C5.1164 41.9958 5.8999 41.2123 5.8999 40.2458C5.8999 39.2794 5.1164 38.4958 4.1499 38.4958C3.1834 38.4958 2.3999 39.2794 2.3999 40.2458C2.3999 41.2123 3.1834 41.9958 4.1499 41.9958Z" fill="#0569AA"/>
<path d="M12.4099 43.6259C13.3764 43.6259 14.1599 42.8424 14.1599 41.8759C14.1599 40.9094 13.3764 40.1259 12.4099 40.1259C11.4434 40.1259 10.6599 40.9094 10.6599 41.8759C10.6599 42.8424 11.4434 43.6259 12.4099 43.6259Z" fill="#0569AA"/>
<path d="M20.6599 45.2659C21.6264 45.2659 22.4099 44.4824 22.4099 43.5159C22.4099 42.5494 21.6264 41.7659 20.6599 41.7659C19.6934 41.7659 18.9099 42.5494 18.9099 43.5159C18.9099 44.4824 19.6934 45.2659 20.6599 45.2659Z" fill="#0569AA"/>
<path d="M28.9199 46.8959C29.8864 46.8959 30.6699 46.1124 30.6699 45.1459C30.6699 44.1794 29.8864 43.3959 28.9199 43.3959C27.9534 43.3959 27.1699 44.1794 27.1699 45.1459C27.1699 46.1124 27.9534 46.8959 28.9199 46.8959Z" fill="#0569AA"/>
<path d="M37.1799 48.5259C38.1464 48.5259 38.9299 47.7424 38.9299 46.7759C38.9299 45.8094 38.1464 45.0259 37.1799 45.0259C36.2134 45.0259 35.4299 45.8094 35.4299 46.7759C35.4299 47.7424 36.2134 48.5259 37.1799 48.5259Z" fill="#0569AA"/>
<path d="M45.4299 50.1659C46.3964 50.1659 47.1799 49.3824 47.1799 48.4159C47.1799 47.4494 46.3964 46.6659 45.4299 46.6659C44.4634 46.6659 43.6799 47.4494 43.6799 48.4159C43.6799 49.3824 44.4634 50.1659 45.4299 50.1659Z" fill="#0569AA"/>
<path d="M53.6899 51.7959C54.6564 51.7959 55.4399 51.0124 55.4399 50.0459C55.4399 49.0794 54.6564 48.2959 53.6899 48.2959C52.7234 48.2959 51.9399 49.0794 51.9399 50.0459C51.9399 51.0124 52.7234 51.7959 53.6899 51.7959Z" fill="#0569AA"/>
<path d="M61.9399 53.4259C62.9064 53.4259 63.6899 52.6424 63.6899 51.6759C63.6899 50.7094 62.9064 49.9259 61.9399 49.9259C60.9734 49.9259 60.1899 50.7094 60.1899 51.6759C60.1899 52.6424 60.9734 53.4259 61.9399 53.4259Z" fill="#0569AA"/>
<path d="M70.2 55.0659C71.1664 55.0659 71.95 54.2824 71.95 53.3159C71.95 52.3494 71.1664 51.5659 70.2 51.5659C69.2335 51.5659 68.45 52.3494 68.45 53.3159C68.45 54.2824 69.2335 55.0659 70.2 55.0659Z" fill="#0569AA"/>
<path d="M78.46 56.6959C79.4265 56.6959 80.21 55.9124 80.21 54.9459C80.21 53.9794 79.4265 53.1959 78.46 53.1959C77.4935 53.1959 76.71 53.9794 76.71 54.9459C76.71 55.9124 77.4935 56.6959 78.46 56.6959Z" fill="#0569AA"/>
<path d="M86.71 58.3259C87.6765 58.3259 88.46 57.5424 88.46 56.5759C88.46 55.6094 87.6765 54.8259 86.71 54.8259C85.7435 54.8259 84.96 55.6094 84.96 56.5759C84.96 57.5424 85.7435 58.3259 86.71 58.3259Z" fill="#0569AA"/>
<path d="M2.46997 50.4758C3.43647 50.4758 4.21997 49.6923 4.21997 48.7258C4.21997 47.7593 3.43647 46.9758 2.46997 46.9758C1.50347 46.9758 0.719971 47.7593 0.719971 48.7258C0.719971 49.6923 1.50347 50.4758 2.46997 50.4758Z" fill="#0569AA"/>
<path d="M10.73 52.1158C11.6965 52.1158 12.48 51.3323 12.48 50.3658C12.48 49.3993 11.6965 48.6158 10.73 48.6158C9.76348 48.6158 8.97998 49.3993 8.97998 50.3658C8.97998 51.3323 9.76348 52.1158 10.73 52.1158Z" fill="#0569AA"/>
<path d="M18.99 53.7458C19.9565 53.7458 20.74 52.9623 20.74 51.9958C20.74 51.0294 19.9565 50.2458 18.99 50.2458C18.0235 50.2458 17.24 51.0294 17.24 51.9958C17.24 52.9623 18.0235 53.7458 18.99 53.7458Z" fill="#0569AA"/>
<path d="M27.24 55.3759C28.2065 55.3759 28.99 54.5924 28.99 53.6259C28.99 52.6594 28.2065 51.8759 27.24 51.8759C26.2735 51.8759 25.49 52.6594 25.49 53.6259C25.49 54.5924 26.2735 55.3759 27.24 55.3759Z" fill="#0569AA"/>
<path d="M35.5 57.0159C36.4665 57.0159 37.25 56.2324 37.25 55.2659C37.25 54.2994 36.4665 53.5159 35.5 53.5159C34.5335 53.5159 33.75 54.2994 33.75 55.2659C33.75 56.2324 34.5335 57.0159 35.5 57.0159Z" fill="#0569AA"/>
<path d="M43.75 58.6459C44.7165 58.6459 45.5 57.8624 45.5 56.8959C45.5 55.9294 44.7165 55.1459 43.75 55.1459C42.7835 55.1459 42 55.9294 42 56.8959C42 57.8624 42.7835 58.6459 43.75 58.6459Z" fill="#0569AA"/>
<path d="M52.01 60.2759C52.9765 60.2759 53.76 59.4924 53.76 58.5259C53.76 57.5594 52.9765 56.7759 52.01 56.7759C51.0435 56.7759 50.26 57.5594 50.26 58.5259C50.26 59.4924 51.0435 60.2759 52.01 60.2759Z" fill="#0569AA"/>
<path d="M60.2699 61.9159C61.2364 61.9159 62.0199 61.1324 62.0199 60.1659C62.0199 59.1994 61.2364 58.4159 60.2699 58.4159C59.3034 58.4159 58.5199 59.1994 58.5199 60.1659C58.5199 61.1324 59.3034 61.9159 60.2699 61.9159Z" fill="#0569AA"/>
<path d="M68.5199 63.5459C69.4864 63.5459 70.2699 62.7624 70.2699 61.7959C70.2699 60.8294 69.4864 60.0459 68.5199 60.0459C67.5534 60.0459 66.7699 60.8294 66.7699 61.7959C66.7699 62.7624 67.5534 63.5459 68.5199 63.5459Z" fill="#0569AA"/>
<path d="M76.7799 65.1759C77.7464 65.1759 78.5299 64.3924 78.5299 63.4259C78.5299 62.4594 77.7464 61.6759 76.7799 61.6759C75.8134 61.6759 75.0299 62.4594 75.0299 63.4259C75.0299 64.3924 75.8134 65.1759 76.7799 65.1759Z" fill="#0569AA"/>
<path d="M85.0299 66.8059C85.9964 66.8059 86.7799 66.0224 86.7799 65.0559C86.7799 64.0894 85.9964 63.3059 85.0299 63.3059C84.0634 63.3059 83.2799 64.0894 83.2799 65.0559C83.2799 66.0224 84.0634 66.8059 85.0299 66.8059Z" fill="#0569AA"/>
<path d="M0.799927 58.9659C1.76643 58.9659 2.54993 58.1824 2.54993 57.2159C2.54993 56.2494 1.76643 55.4659 0.799927 55.4659C-0.166572 55.4659 -0.950073 56.2494 -0.950073 57.2159C-0.950073 58.1824 -0.166572 58.9659 0.799927 58.9659Z" fill="#0569AA"/>
<path d="M9.04993 60.5959C10.0164 60.5959 10.7999 59.8124 10.7999 58.8459C10.7999 57.8794 10.0164 57.0959 9.04993 57.0959C8.08343 57.0959 7.29993 57.8794 7.29993 58.8459C7.29993 59.8124 8.08343 60.5959 9.04993 60.5959Z" fill="#0569AA"/>
<path d="M17.3099 62.2258C18.2764 62.2258 19.0599 61.4423 19.0599 60.4758C19.0599 59.5093 18.2764 58.7258 17.3099 58.7258C16.3434 58.7258 15.5599 59.5093 15.5599 60.4758C15.5599 61.4423 16.3434 62.2258 17.3099 62.2258Z" fill="#0569AA"/>
<path d="M25.5599 63.8658C26.5264 63.8658 27.3099 63.0823 27.3099 62.1158C27.3099 61.1493 26.5264 60.3658 25.5599 60.3658C24.5934 60.3658 23.8099 61.1493 23.8099 62.1158C23.8099 63.0823 24.5934 63.8658 25.5599 63.8658Z" fill="#0569AA"/>
<path d="M33.8199 65.4958C34.7864 65.4958 35.5699 64.7123 35.5699 63.7458C35.5699 62.7794 34.7864 61.9958 33.8199 61.9958C32.8534 61.9958 32.0699 62.7794 32.0699 63.7458C32.0699 64.7123 32.8534 65.4958 33.8199 65.4958Z" fill="#0569AA"/>
<path d="M42.08 67.1259C43.0465 67.1259 43.83 66.3424 43.83 65.3759C43.83 64.4094 43.0465 63.6259 42.08 63.6259C41.1135 63.6259 40.33 64.4094 40.33 65.3759C40.33 66.3424 41.1135 67.1259 42.08 67.1259Z" fill="#0569AA"/>
<path d="M50.33 68.7559C51.2965 68.7559 52.08 67.9724 52.08 67.0059C52.08 66.0394 51.2965 65.2559 50.33 65.2559C49.3635 65.2559 48.58 66.0394 48.58 67.0059C48.58 67.9724 49.3635 68.7559 50.33 68.7559Z" fill="#0569AA"/>
<path d="M58.59 70.3959C59.5565 70.3959 60.34 69.6124 60.34 68.6459C60.34 67.6794 59.5565 66.8959 58.59 66.8959C57.6235 66.8959 56.84 67.6794 56.84 68.6459C56.84 69.6124 57.6235 70.3959 58.59 70.3959Z" fill="#0569AA"/>
<path d="M66.84 72.0259C67.8065 72.0259 68.59 71.2424 68.59 70.2759C68.59 69.3094 67.8065 68.5259 66.84 68.5259C65.8735 68.5259 65.09 69.3094 65.09 70.2759C65.09 71.2424 65.8735 72.0259 66.84 72.0259Z" fill="#0569AA"/>
<path d="M75.1 73.6559C76.0665 73.6559 76.85 72.8724 76.85 71.9059C76.85 70.9394 76.0665 70.1559 75.1 70.1559C74.1335 70.1559 73.35 70.9394 73.35 71.9059C73.35 72.8724 74.1335 73.6559 75.1 73.6559Z" fill="#0569AA"/>
<path d="M83.36 75.2959C84.3265 75.2959 85.11 74.5124 85.11 73.5459C85.11 72.5794 84.3265 71.7959 83.36 71.7959C82.3935 71.7959 81.61 72.5794 81.61 73.5459C81.61 74.5124 82.3935 75.2959 83.36 75.2959Z" fill="#0569AA"/>
<path d="M-0.880005 67.4459C0.0864935 67.4459 0.869995 66.6624 0.869995 65.6959C0.869995 64.7294 0.0864935 63.9459 -0.880005 63.9459C-1.8465 63.9459 -2.63 64.7294 -2.63 65.6959C-2.63 66.6624 -1.8465 67.4459 -0.880005 67.4459Z" fill="#0569AA"/>
<path d="M7.37 69.0759C8.33649 69.0759 9.12 68.2924 9.12 67.3259C9.12 66.3594 8.33649 65.5759 7.37 65.5759C6.4035 65.5759 5.62 66.3594 5.62 67.3259C5.62 68.2924 6.4035 69.0759 7.37 69.0759Z" fill="#0569AA"/>
<path d="M15.63 70.7159C16.5965 70.7159 17.38 69.9324 17.38 68.9659C17.38 67.9994 16.5965 67.2159 15.63 67.2159C14.6635 67.2159 13.88 67.9994 13.88 68.9659C13.88 69.9324 14.6635 70.7159 15.63 70.7159Z" fill="#0569AA"/>
<path d="M23.89 72.3459C24.8565 72.3459 25.64 71.5624 25.64 70.5959C25.64 69.6294 24.8565 68.8459 23.89 68.8459C22.9235 68.8459 22.14 69.6294 22.14 70.5959C22.14 71.5624 22.9235 72.3459 23.89 72.3459Z" fill="#0569AA"/>
<path d="M32.14 73.9758C33.1065 73.9758 33.89 73.1923 33.89 72.2258C33.89 71.2593 33.1065 70.4758 32.14 70.4758C31.1735 70.4758 30.39 71.2593 30.39 72.2258C30.39 73.1923 31.1735 73.9758 32.14 73.9758Z" fill="#0569AA"/>
<path d="M40.3999 75.6058C41.3664 75.6058 42.1499 74.8223 42.1499 73.8558C42.1499 72.8893 41.3664 72.1058 40.3999 72.1058C39.4334 72.1058 38.6499 72.8893 38.6499 73.8558C38.6499 74.8223 39.4334 75.6058 40.3999 75.6058Z" fill="#0569AA"/>
<path d="M48.6499 77.2458C49.6164 77.2458 50.3999 76.4623 50.3999 75.4958C50.3999 74.5294 49.6164 73.7458 48.6499 73.7458C47.6834 73.7458 46.8999 74.5294 46.8999 75.4958C46.8999 76.4623 47.6834 77.2458 48.6499 77.2458Z" fill="#0569AA"/>
<path d="M56.9099 78.8759C57.8764 78.8759 58.6599 78.0924 58.6599 77.1259C58.6599 76.1594 57.8764 75.3759 56.9099 75.3759C55.9434 75.3759 55.1599 76.1594 55.1599 77.1259C55.1599 78.0924 55.9434 78.8759 56.9099 78.8759Z" fill="#0569AA"/>
<path d="M65.1699 80.5059C66.1364 80.5059 66.9199 79.7224 66.9199 78.7559C66.9199 77.7894 66.1364 77.0059 65.1699 77.0059C64.2034 77.0059 63.4199 77.7894 63.4199 78.7559C63.4199 79.7224 64.2034 80.5059 65.1699 80.5059Z" fill="#0569AA"/>
<path d="M73.4199 82.1459C74.3864 82.1459 75.1699 81.3624 75.1699 80.3959C75.1699 79.4294 74.3864 78.6459 73.4199 78.6459C72.4534 78.6459 71.6699 79.4294 71.6699 80.3959C71.6699 81.3624 72.4534 82.1459 73.4199 82.1459Z" fill="#0569AA"/>
<path d="M81.6799 83.7759C82.6464 83.7759 83.4299 82.9924 83.4299 82.0259C83.4299 81.0594 82.6464 80.2759 81.6799 80.2759C80.7134 80.2759 79.9299 81.0594 79.9299 82.0259C79.9299 82.9924 80.7134 83.7759 81.6799 83.7759Z" fill="#0569AA"/>
<path d="M89.9299 85.4059C90.8964 85.4059 91.6799 84.6224 91.6799 83.6559C91.6799 82.6894 90.8964 81.9059 89.9299 81.9059C88.9634 81.9059 88.1799 82.6894 88.1799 83.6559C88.1799 84.6224 88.9634 85.4059 89.9299 85.4059Z" fill="#0569AA"/>
<path d="M5.69995 77.5559C6.66645 77.5559 7.44995 76.7724 7.44995 75.8059C7.44995 74.8394 6.66645 74.0559 5.69995 74.0559C4.73345 74.0559 3.94995 74.8394 3.94995 75.8059C3.94995 76.7724 4.73345 77.5559 5.69995 77.5559Z" fill="#0569AA"/>
<path d="M13.95 79.1959C14.9164 79.1959 15.7 78.4124 15.7 77.4459C15.7 76.4794 14.9164 75.6959 13.95 75.6959C12.9835 75.6959 12.2 76.4794 12.2 77.4459C12.2 78.4124 12.9835 79.1959 13.95 79.1959Z" fill="#0569AA"/>
<path d="M22.21 80.8259C23.1765 80.8259 23.96 80.0424 23.96 79.0759C23.96 78.1094 23.1765 77.3259 22.21 77.3259C21.2435 77.3259 20.46 78.1094 20.46 79.0759C20.46 80.0424 21.2435 80.8259 22.21 80.8259Z" fill="#0569AA"/>
<path d="M30.46 82.4559C31.4265 82.4559 32.21 81.6724 32.21 80.7059C32.21 79.7394 31.4265 78.9559 30.46 78.9559C29.4935 78.9559 28.71 79.7394 28.71 80.7059C28.71 81.6724 29.4935 82.4559 30.46 82.4559Z" fill="#0569AA"/>
<path d="M38.72 84.0959C39.6865 84.0959 40.47 83.3124 40.47 82.3459C40.47 81.3794 39.6865 80.5959 38.72 80.5959C37.7535 80.5959 36.97 81.3794 36.97 82.3459C36.97 83.3124 37.7535 84.0959 38.72 84.0959Z" fill="#0569AA"/>
<path d="M46.98 85.7258C47.9465 85.7258 48.73 84.9423 48.73 83.9758C48.73 83.0093 47.9465 82.2258 46.98 82.2258C46.0135 82.2258 45.23 83.0093 45.23 83.9758C45.23 84.9423 46.0135 85.7258 46.98 85.7258Z" fill="#0569AA"/>
<path d="M55.23 87.3558C56.1965 87.3558 56.98 86.5723 56.98 85.6058C56.98 84.6393 56.1965 83.8558 55.23 83.8558C54.2635 83.8558 53.48 84.6393 53.48 85.6058C53.48 86.5723 54.2635 87.3558 55.23 87.3558Z" fill="#0569AA"/>
<path d="M63.49 88.9958C64.4565 88.9958 65.24 88.2123 65.24 87.2458C65.24 86.2794 64.4565 85.4958 63.49 85.4958C62.5235 85.4958 61.74 86.2794 61.74 87.2458C61.74 88.2123 62.5235 88.9958 63.49 88.9958Z" fill="#0569AA"/>
<path d="M71.74 90.6259C72.7065 90.6259 73.49 89.8424 73.49 88.8759C73.49 87.9094 72.7065 87.1259 71.74 87.1259C70.7735 87.1259 69.99 87.9094 69.99 88.8759C69.99 89.8424 70.7735 90.6259 71.74 90.6259Z" fill="#0569AA"/>
<path d="M80 92.2559C80.9665 92.2559 81.75 91.4724 81.75 90.5059C81.75 89.5394 80.9665 88.7559 80 88.7559C79.0335 88.7559 78.25 89.5394 78.25 90.5059C78.25 91.4724 79.0335 92.2559 80 92.2559Z" fill="#0569AA"/>
<path d="M88.26 93.8959C89.2265 93.8959 90.01 93.1124 90.01 92.1459C90.01 91.1794 89.2265 90.3959 88.26 90.3959C87.2935 90.3959 86.51 91.1794 86.51 92.1459C86.51 93.1124 87.2935 93.8959 88.26 93.8959Z" fill="#0569AA"/>
<path d="M4.0199 86.0459C4.9864 86.0459 5.7699 85.2624 5.7699 84.2959C5.7699 83.3294 4.9864 82.5459 4.0199 82.5459C3.0534 82.5459 2.2699 83.3294 2.2699 84.2959C2.2699 85.2624 3.0534 86.0459 4.0199 86.0459Z" fill="#0569AA"/>
<path d="M12.2799 87.6759C13.2464 87.6759 14.0299 86.8924 14.0299 85.9259C14.0299 84.9594 13.2464 84.1759 12.2799 84.1759C11.3134 84.1759 10.5299 84.9594 10.5299 85.9259C10.5299 86.8924 11.3134 87.6759 12.2799 87.6759Z" fill="#0569AA"/>
<path d="M20.5299 89.3059C21.4964 89.3059 22.2799 88.5224 22.2799 87.5559C22.2799 86.5894 21.4964 85.8059 20.5299 85.8059C19.5634 85.8059 18.7799 86.5894 18.7799 87.5559C18.7799 88.5224 19.5634 89.3059 20.5299 89.3059Z" fill="#0569AA"/>
<path d="M28.7899 90.9459C29.7564 90.9459 30.5399 90.1624 30.5399 89.1959C30.5399 88.2294 29.7564 87.4459 28.7899 87.4459C27.8234 87.4459 27.0399 88.2294 27.0399 89.1959C27.0399 90.1624 27.8234 90.9459 28.7899 90.9459Z" fill="#0569AA"/>
<path d="M37.0399 92.5759C38.0064 92.5759 38.7899 91.7924 38.7899 90.8259C38.7899 89.8594 38.0064 89.0759 37.0399 89.0759C36.0734 89.0759 35.2899 89.8594 35.2899 90.8259C35.2899 91.7924 36.0734 92.5759 37.0399 92.5759Z" fill="#0569AA"/>
<path d="M45.2999 94.2059C46.2664 94.2059 47.0499 93.4224 47.0499 92.4559C47.0499 91.4894 46.2664 90.7059 45.2999 90.7059C44.3334 90.7059 43.5499 91.4894 43.5499 92.4559C43.5499 93.4224 44.3334 94.2059 45.2999 94.2059Z" fill="#0569AA"/>
<path d="M53.5499 95.8459C54.5164 95.8459 55.2999 95.0624 55.2999 94.0959C55.2999 93.1294 54.5164 92.3459 53.5499 92.3459C52.5834 92.3459 51.7999 93.1294 51.7999 94.0959C51.7999 95.0624 52.5834 95.8459 53.5499 95.8459Z" fill="#0569AA"/>
<path d="M61.8099 97.4758C62.7764 97.4758 63.5599 96.6923 63.5599 95.7258C63.5599 94.7593 62.7764 93.9758 61.8099 93.9758C60.8434 93.9758 60.0599 94.7593 60.0599 95.7258C60.0599 96.6923 60.8434 97.4758 61.8099 97.4758Z" fill="#0569AA"/>
<path d="M70.0699 99.1058C71.0364 99.1058 71.8199 98.3223 71.8199 97.3558C71.8199 96.3893 71.0364 95.6058 70.0699 95.6058C69.1034 95.6058 68.3199 96.3893 68.3199 97.3558C68.3199 98.3223 69.1034 99.1058 70.0699 99.1058Z" fill="#0569AA"/>
<path d="M78.3199 100.736C79.2864 100.736 80.0699 99.9523 80.0699 98.9858C80.0699 98.0193 79.2864 97.2358 78.3199 97.2358C77.3534 97.2358 76.5699 98.0193 76.5699 98.9858C76.5699 99.9523 77.3534 100.736 78.3199 100.736Z" fill="#0569AA"/>
<path d="M86.58 102.376C87.5465 102.376 88.33 101.592 88.33 100.626C88.33 99.6594 87.5465 98.8759 86.58 98.8759C85.6135 98.8759 84.83 99.6594 84.83 100.626C84.83 101.592 85.6135 102.376 86.58 102.376Z" fill="#0569AA"/>
<path d="M2.33997 94.5259C3.30646 94.5259 4.08997 93.7424 4.08997 92.7759C4.08997 91.8094 3.30646 91.0259 2.33997 91.0259C1.37347 91.0259 0.589966 91.8094 0.589966 92.7759C0.589966 93.7424 1.37347 94.5259 2.33997 94.5259Z" fill="#0569AA"/>
<path d="M10.6 96.1559C11.5665 96.1559 12.35 95.3724 12.35 94.4059C12.35 93.4394 11.5665 92.6559 10.6 92.6559C9.63348 92.6559 8.84998 93.4394 8.84998 94.4059C8.84998 95.3724 9.63348 96.1559 10.6 96.1559Z" fill="#0569AA"/>
<path d="M18.85 97.7959C19.8165 97.7959 20.6 97.0124 20.6 96.0459C20.6 95.0794 19.8165 94.2959 18.85 94.2959C17.8835 94.2959 17.1 95.0794 17.1 96.0459C17.1 97.0124 17.8835 97.7959 18.85 97.7959Z" fill="#0569AA"/>
<path d="M27.11 99.4259C28.0765 99.4259 28.86 98.6424 28.86 97.6759C28.86 96.7094 28.0765 95.9259 27.11 95.9259C26.1435 95.9259 25.36 96.7094 25.36 97.6759C25.36 98.6424 26.1435 99.4259 27.11 99.4259Z" fill="#0569AA"/>
<path d="M35.37 101.056C36.3365 101.056 37.12 100.272 37.12 99.3059C37.12 98.3394 36.3365 97.5559 35.37 97.5559C34.4035 97.5559 33.62 98.3394 33.62 99.3059C33.62 100.272 34.4035 101.056 35.37 101.056Z" fill="#0569AA"/>
<path d="M43.62 102.696C44.5865 102.696 45.37 101.912 45.37 100.946C45.37 99.9794 44.5865 99.1959 43.62 99.1959C42.6535 99.1959 41.87 99.9794 41.87 100.946C41.87 101.912 42.6535 102.696 43.62 102.696Z" fill="#0569AA"/>
<path d="M51.88 104.326C52.8465 104.326 53.63 103.542 53.63 102.576C53.63 101.609 52.8465 100.826 51.88 100.826C50.9135 100.826 50.13 101.609 50.13 102.576C50.13 103.542 50.9135 104.326 51.88 104.326Z" fill="#0569AA"/>
<path d="M60.13 105.956C61.0965 105.956 61.88 105.172 61.88 104.206C61.88 103.239 61.0965 102.456 60.13 102.456C59.1635 102.456 58.38 103.239 58.38 104.206C58.38 105.172 59.1635 105.956 60.13 105.956Z" fill="#0569AA"/>
<path d="M0.659912 103.006C1.62641 103.006 2.40991 102.222 2.40991 101.256C2.40991 100.289 1.62641 99.5059 0.659912 99.5059C-0.306586 99.5059 -1.09009 100.289 -1.09009 101.256C-1.09009 102.222 -0.306586 103.006 0.659912 103.006Z" fill="#0569AA"/>
<path d="M8.91992 104.646C9.88642 104.646 10.6699 103.862 10.6699 102.896C10.6699 101.929 9.88642 101.146 8.91992 101.146C7.95342 101.146 7.16992 101.929 7.16992 102.896C7.16992 103.862 7.95342 104.646 8.91992 104.646Z" fill="#0569AA"/>
</g>
<path d="M63.83 89.486L26.13 80.396C20.46 79.026 16.97 73.316 18.33 67.646L32.25 9.91597C33.62 4.24597 39.33 0.755986 45 2.11599L82.7 11.206C88.37 12.576 91.86 18.286 90.5 23.956L76.58 81.686C75.21 87.366 69.5 90.856 63.83 89.486Z" fill="#F9D44F"/>
<path d="M64.3299 91.2959L24.86 81.7859C18.8 80.3259 15.0599 74.2059 16.5199 68.1559L30.86 8.65593C32.32 2.59593 38.44 -1.14409 44.49 0.315914L83.96 9.82591C90.02 11.2859 93.7599 17.4059 92.2999 23.4559L77.96 82.9559C76.5 89.0159 70.3899 92.7559 64.3299 91.2959ZM43.73 3.50592C39.43 2.46592 35.0999 5.12591 34.0599 9.4159L19.72 68.9159C18.68 73.2159 21.34 77.5459 25.63 78.5859L65.1 88.0959C69.4 89.1359 73.7299 86.4759 74.7699 82.1859L89.11 22.6859C90.15 18.3859 87.4899 14.0459 83.1999 13.0159L43.73 3.50592Z" fill="#0569AA"/>
<path d="M84.1318 24.5832L37.7579 13.4071L34.855 25.4527L81.2288 36.6288L84.1318 24.5832Z" fill="white"/>
<path d="M80.7699 38.2559L34.3999 27.0759C33.5199 26.8659 32.98 25.976 33.19 25.096L36.09 13.0459C36.3 12.1659 37.19 11.6259 38.07 11.8359L84.4399 23.0159C85.32 23.2259 85.8599 24.1159 85.6499 24.9959L82.75 37.0459C82.54 37.9259 81.6499 38.4659 80.7699 38.2559ZM36.76 24.2759L79.9399 34.686L82.07 25.8359L38.89 15.4259L36.76 24.2759Z" fill="#0569AA"/>
<path d="M30.7799 71.6358L28.07 70.9858C26.86 70.6958 26.1199 69.4758 26.4099 68.2658L26.75 66.8658C27.04 65.6558 28.26 64.9158 29.47 65.2058L32.18 65.8558C33.39 66.1458 34.13 67.3658 33.84 68.5758L33.5 69.9758C33.21 71.1858 31.9899 71.9258 30.7799 71.6358Z" fill="white"/>
<path d="M30.7799 72.4858L27.6899 71.7458C26.1499 71.3758 25.1899 69.8158 25.5699 68.2758L26 66.4958C26.37 64.9558 27.93 63.9959 29.47 64.3759L32.5599 65.1158C34.0999 65.4858 35.0599 67.0458 34.6799 68.5858L34.25 70.3658C33.88 71.9058 32.3199 72.8558 30.7799 72.4858ZM29.09 65.9558C28.43 65.7958 27.76 66.2058 27.6 66.8658L27.1699 68.6458C27.0099 69.3058 27.42 69.9758 28.08 70.1358L31.1699 70.8759C31.8299 71.0359 32.4999 70.6259 32.6599 69.9659L33.09 68.1859C33.25 67.5259 32.8399 66.8558 32.1799 66.6958L29.09 65.9558Z" fill="#0569AA"/>
<path d="M42.6499 74.4959L39.94 73.8459C38.73 73.5559 37.9899 72.3359 38.2799 71.1259L38.62 69.7258C38.91 68.5158 40.13 67.7758 41.34 68.0658L44.05 68.7159C45.26 69.0059 46 70.2259 45.71 71.4359L45.37 72.8358C45.08 74.0458 43.8599 74.7959 42.6499 74.4959Z" fill="white"/>
<path d="M42.6499 75.3459L39.5599 74.6058C38.0199 74.2358 37.0599 72.6758 37.4399 71.1358L37.87 69.3558C38.24 67.8158 39.8 66.8558 41.34 67.2358L44.4299 67.9758C45.9699 68.3458 46.9299 69.9058 46.5499 71.4458L46.12 73.2258C45.75 74.7658 44.1899 75.7159 42.6499 75.3459ZM40.95 68.8158C40.29 68.6558 39.62 69.0658 39.46 69.7258L39.0299 71.5058C38.8699 72.1658 39.2799 72.8358 39.9399 72.9958L43.0299 73.7358C43.6899 73.8958 44.3599 73.4858 44.5199 72.8258L44.95 71.0458C45.11 70.3858 44.6999 69.7158 44.0399 69.5558L40.95 68.8158Z" fill="#0569AA"/>
<path d="M73.7699 49.6059L71.06 48.9559C69.85 48.6659 69.1099 47.4459 69.3999 46.2359L69.74 44.8359C70.03 43.6259 71.25 42.8859 72.46 43.1759L75.17 43.8259C76.38 44.1159 77.12 45.3359 76.83 46.5459L76.49 47.9459C76.2 49.1459 74.9799 49.8959 73.7699 49.6059Z" fill="white"/>
<path d="M73.7699 50.4459L70.6799 49.7059C69.1399 49.3359 68.1799 47.7759 68.5599 46.2359L68.99 44.4559C69.36 42.9159 70.92 41.9559 72.46 42.3359L75.5499 43.0759C77.0899 43.4459 78.0499 45.0059 77.6699 46.5459L77.24 48.3259C76.87 49.8659 75.3099 50.8159 73.7699 50.4459ZM72.08 43.9159C71.42 43.7559 70.75 44.1659 70.59 44.8259L70.1599 46.6059C69.9999 47.2659 70.4099 47.9359 71.0699 48.0959L74.1599 48.8359C74.8199 48.9959 75.4899 48.5859 75.6499 47.9259L76.08 46.1459C76.24 45.4859 75.8299 44.8159 75.1699 44.6559L72.08 43.9159Z" fill="#0569AA"/>
<path d="M71.31 59.8059L68.6 59.1559C67.39 58.8659 66.65 57.6459 66.94 56.4359L67.2799 55.0359C67.5699 53.8259 68.79 53.0859 70 53.3759L72.71 54.0259C73.92 54.3159 74.66 55.5359 74.37 56.7459L74.0299 58.1459C73.7399 59.3559 72.52 60.0959 71.31 59.8059Z" fill="white"/>
<path d="M71.3099 60.6559L68.22 59.9159C66.68 59.5459 65.72 57.9859 66.1 56.4459L66.5299 54.6659C66.8999 53.1259 68.46 52.1659 70 52.5459L73.09 53.2859C74.63 53.6559 75.59 55.2159 75.21 56.7559L74.7799 58.5359C74.4099 60.0759 72.8499 61.0259 71.3099 60.6559ZM69.62 54.1259C68.96 53.9659 68.29 54.3759 68.13 55.0359L67.7 56.8159C67.54 57.4759 67.95 58.1459 68.61 58.3059L71.7 59.0459C72.36 59.2059 73.0299 58.7959 73.1899 58.1359L73.62 56.3559C73.78 55.6959 73.37 55.0259 72.71 54.8659L69.62 54.1259Z" fill="#0569AA"/>
<path d="M66.45 80.2358L63.62 79.5558C62.45 79.2758 61.72 78.0958 62.01 76.9158L64.23 67.7058C64.51 66.5358 65.69 65.8058 66.87 66.0958L69.7 66.7758C70.87 67.0558 71.6 68.2358 71.31 69.4158L69.09 78.6258C68.81 79.7958 67.63 80.5158 66.45 80.2358Z" fill="white"/>
<path d="M66.44 81.0759L63.24 80.3059C61.73 79.9459 60.7899 78.4159 61.1599 76.9059L63.47 67.3359C63.83 65.8259 65.36 64.8859 66.87 65.2559L70.07 66.0259C71.58 66.3859 72.5199 67.9159 72.1499 69.4259L69.84 78.9959C69.48 80.5159 67.96 81.4459 66.44 81.0759ZM66.49 66.8459C65.86 66.6959 65.22 67.0859 65.07 67.7159L62.76 77.2859C62.61 77.9159 63 78.5559 63.63 78.7059L66.83 79.4759C67.46 79.6259 68.1 79.2359 68.25 78.6059L70.56 69.0359C70.71 68.4059 70.32 67.7659 69.69 67.6159L66.49 66.8459Z" fill="#0569AA"/>
<path d="M54.5199 77.3658L51.81 76.7158C50.6 76.4258 49.8599 75.2058 50.1499 73.9958L50.49 72.5958C50.78 71.3858 52 70.6458 53.21 70.9358L55.92 71.5858C57.13 71.8758 57.87 73.0958 57.58 74.3058L57.24 75.7058C56.95 76.9058 55.7299 77.6558 54.5199 77.3658Z" fill="white"/>
<path d="M54.5199 78.2058L51.4299 77.4658C49.8899 77.0958 48.9299 75.5358 49.3099 73.9958L49.74 72.2158C50.11 70.6758 51.67 69.7158 53.21 70.0958L56.2999 70.8358C57.8399 71.2058 58.7999 72.7658 58.4199 74.3058L57.99 76.0858C57.62 77.6258 56.0599 78.5758 54.5199 78.2058ZM52.8199 71.6758C52.1599 71.5158 51.49 71.9258 51.33 72.5858L50.8999 74.3658C50.7399 75.0258 51.1499 75.6958 51.8099 75.8558L54.8999 76.5958C55.5599 76.7558 56.23 76.3458 56.39 75.6858L56.8199 73.9058C56.9799 73.2458 56.5699 72.5758 55.9099 72.4158L52.8199 71.6758Z" fill="#0569AA"/>
<path d="M38.1599 41.0158L35.45 40.3658C34.24 40.0758 33.4999 38.8558 33.7899 37.6458L34.13 36.2459C34.42 35.0359 35.64 34.2958 36.85 34.5858L39.56 35.2358C40.77 35.5258 41.51 36.7458 41.22 37.9558L40.88 39.3558C40.59 40.5658 39.3699 41.3058 38.1599 41.0158Z" fill="white"/>
<path d="M38.1599 41.8659L35.0699 41.1259C33.5299 40.7559 32.57 39.1959 32.95 37.6559L33.38 35.8759C33.75 34.3359 35.31 33.3759 36.85 33.7559L39.9399 34.4959C41.4799 34.8659 42.4399 36.4259 42.0599 37.9659L41.63 39.7459C41.26 41.2859 39.6999 42.2359 38.1599 41.8659ZM36.47 35.3359C35.81 35.1759 35.14 35.5859 34.98 36.2459L34.5499 38.0259C34.3899 38.6859 34.8 39.3559 35.46 39.5159L38.5499 40.2559C39.2099 40.4159 39.8799 40.0059 40.0399 39.3459L40.47 37.5659C40.63 36.9059 40.2199 36.2359 39.5599 36.0759L36.47 35.3359Z" fill="#0569AA"/>
<path d="M50.0299 43.8759L47.32 43.2258C46.11 42.9358 45.3699 41.7158 45.6599 40.5058L46 39.1058C46.29 37.8958 47.51 37.1558 48.72 37.4458L51.43 38.0959C52.64 38.3859 53.38 39.6058 53.09 40.8158L52.75 42.2159C52.46 43.4259 51.2399 44.1659 50.0299 43.8759Z" fill="white"/>
<path d="M50.0299 44.7258L46.9399 43.9858C45.3999 43.6158 44.4399 42.0558 44.8199 40.5158L45.25 38.7358C45.62 37.1958 47.18 36.2358 48.72 36.6158L51.8099 37.3558C53.3499 37.7258 54.3099 39.2858 53.9299 40.8258L53.5 42.6058C53.13 44.1458 51.5699 45.0958 50.0299 44.7258ZM48.34 38.1958C47.68 38.0358 47.01 38.4458 46.85 39.1058L46.4199 40.8858C46.2599 41.5458 46.67 42.2159 47.33 42.3759L50.4199 43.1158C51.0799 43.2758 51.7499 42.8658 51.9099 42.2058L52.34 40.4258C52.5 39.7658 52.0899 39.0959 51.4299 38.9359L48.34 38.1958Z" fill="#0569AA"/>
<path d="M61.8999 46.7358L59.19 46.0858C57.98 45.7958 57.2399 44.5758 57.5299 43.3658L57.87 41.9658C58.16 40.7558 59.38 40.0158 60.59 40.3058L63.3 40.9558C64.51 41.2458 65.25 42.4658 64.96 43.6758L64.62 45.0758C64.33 46.2858 63.1099 47.0358 61.8999 46.7358Z" fill="white"/>
<path d="M61.8999 47.5858L58.8099 46.8459C57.2699 46.4759 56.3099 44.9159 56.6899 43.3759L57.12 41.5959C57.49 40.0559 59.05 39.0958 60.59 39.4758L63.6799 40.2158C65.2199 40.5858 66.1799 42.1459 65.7999 43.6859L65.37 45.4658C65 47.0058 63.4399 47.9558 61.8999 47.5858ZM60.21 41.0558C59.55 40.8958 58.88 41.3058 58.72 41.9658L58.2899 43.7458C58.1299 44.4058 58.54 45.0758 59.2 45.2358L62.2899 45.9758C62.9499 46.1358 63.6199 45.7258 63.7799 45.0658L64.21 43.2858C64.37 42.6258 63.9599 41.9558 63.2999 41.7958L60.21 41.0558Z" fill="#0569AA"/>
<path d="M35.7 51.2259L32.99 50.5759C31.78 50.2859 31.04 49.0659 31.33 47.8559L31.67 46.4559C31.96 45.2459 33.18 44.5059 34.39 44.7959L37.1 45.4459C38.31 45.7359 39.05 46.9559 38.76 48.1659L38.42 49.5659C38.13 50.7759 36.91 51.5159 35.7 51.2259Z" fill="white"/>
<path d="M35.7 52.0659L32.61 51.3259C31.07 50.9559 30.11 49.3959 30.49 47.8559L30.9199 46.0759C31.2899 44.5359 32.85 43.5759 34.39 43.9559L37.48 44.6959C39.02 45.0659 39.98 46.6259 39.6 48.1659L39.1699 49.9459C38.7999 51.4859 37.24 52.4359 35.7 52.0659ZM34.01 45.5459C33.35 45.3859 32.6799 45.7959 32.5199 46.4559L32.09 48.2359C31.93 48.8959 32.34 49.5659 33 49.7259L36.09 50.4659C36.75 50.6259 37.42 50.2159 37.58 49.5559L38.01 47.7759C38.17 47.1159 37.76 46.4459 37.1 46.2859L34.01 45.5459Z" fill="#0569AA"/>
<path d="M47.57 54.0858L44.86 53.4358C43.65 53.1458 42.91 51.9258 43.2 50.7158L43.5399 49.3158C43.8299 48.1058 45.05 47.3658 46.26 47.6558L48.97 48.3058C50.18 48.5958 50.92 49.8158 50.63 51.0258L50.2899 52.4258C49.9999 53.6358 48.78 54.3758 47.57 54.0858Z" fill="white"/>
<path d="M47.5699 54.9258L44.48 54.1858C42.94 53.8158 41.98 52.2558 42.36 50.7158L42.7899 48.9358C43.1599 47.3958 44.72 46.4358 46.26 46.8158L49.35 47.5558C50.89 47.9258 51.85 49.4858 51.47 51.0258L51.0399 52.8058C50.6699 54.3458 49.1099 55.3058 47.5699 54.9258ZM45.88 48.4058C45.22 48.2458 44.55 48.6558 44.39 49.3158L43.96 51.0958C43.8 51.7558 44.21 52.4258 44.87 52.5858L47.96 53.3258C48.62 53.4858 49.29 53.0758 49.45 52.4158L49.88 50.6358C50.04 49.9758 49.63 49.3058 48.97 49.1458L45.88 48.4058Z" fill="#0569AA"/>
<path d="M59.44 56.9459L56.73 56.2959C55.52 56.0059 54.78 54.7859 55.07 53.5759L55.4099 52.1759C55.6999 50.9659 56.92 50.2259 58.13 50.5159L60.84 51.1659C62.05 51.4559 62.79 52.6759 62.5 53.8859L62.1599 55.2859C61.8699 56.4959 60.65 57.2359 59.44 56.9459Z" fill="white"/>
<path d="M59.4399 57.7959L56.35 57.0559C54.81 56.6859 53.85 55.1259 54.23 53.5859L54.6599 51.8059C55.0299 50.2659 56.59 49.3059 58.13 49.6859L61.22 50.4259C62.76 50.7959 63.72 52.3559 63.34 53.8959L62.9099 55.6759C62.5399 57.2059 60.9799 58.1659 59.4399 57.7959ZM57.75 51.2659C57.09 51.1059 56.42 51.5159 56.26 52.1759L55.83 53.9559C55.67 54.6159 56.08 55.2859 56.74 55.4459L59.83 56.1859C60.49 56.3459 61.1599 55.9359 61.3199 55.2759L61.75 53.4959C61.91 52.8359 61.5 52.1659 60.84 52.0059L57.75 51.2659Z" fill="#0569AA"/>
<path d="M33.24 61.4359L30.5299 60.7859C29.3199 60.4959 28.58 59.2759 28.87 58.0659L29.21 56.6659C29.5 55.4559 30.72 54.7159 31.93 55.0059L34.6401 55.6559C35.8501 55.9459 36.59 57.1659 36.3 58.3759L35.96 59.7759C35.67 60.9759 34.45 61.7259 33.24 61.4359Z" fill="white"/>
<path d="M33.24 62.2759L30.1499 61.5359C28.6099 61.1659 27.6499 59.6059 28.0299 58.0659L28.46 56.2859C28.83 54.7459 30.3899 53.7859 31.9299 54.1659L35.0199 54.9059C36.5599 55.2759 37.52 56.8359 37.14 58.3759L36.71 60.1559C36.34 61.6959 34.78 62.6459 33.24 62.2759ZM31.5499 55.7459C30.8899 55.5859 30.2199 55.9959 30.0599 56.6559L29.63 58.4359C29.47 59.0959 29.8799 59.7659 30.5399 59.9259L33.63 60.6659C34.29 60.8259 34.96 60.4159 35.12 59.7559L35.5499 57.9759C35.7099 57.3159 35.3 56.6459 34.64 56.4859L31.5499 55.7459Z" fill="#0569AA"/>
<path d="M45.11 64.2959L42.3999 63.6459C41.1899 63.3559 40.45 62.1359 40.74 60.9259L41.08 59.5259C41.37 58.3159 42.59 57.5759 43.8 57.8659L46.51 58.5159C47.72 58.8059 48.46 60.0259 48.17 61.2359L47.83 62.6359C47.54 63.8459 46.32 64.5859 45.11 64.2959Z" fill="white"/>
<path d="M45.11 65.1359L42.0199 64.3959C40.4799 64.0259 39.5199 62.4659 39.8999 60.9259L40.33 59.1459C40.7 57.6059 42.2599 56.6459 43.7999 57.0259L46.89 57.7659C48.43 58.1359 49.39 59.6959 49.01 61.2359L48.58 63.0159C48.21 64.5559 46.65 65.5059 45.11 65.1359ZM43.4099 58.6159C42.7499 58.4559 42.0799 58.8659 41.9199 59.5259L41.49 61.3059C41.33 61.9659 41.7399 62.6359 42.3999 62.7959L45.49 63.5359C46.15 63.6959 46.82 63.2859 46.98 62.6259L47.4099 60.8459C47.5699 60.1859 47.16 59.5159 46.5 59.3559L43.4099 58.6159Z" fill="#0569AA"/>
<path d="M56.98 67.1559L54.2699 66.5059C53.0599 66.2159 52.32 64.9959 52.61 63.7859L52.95 62.3859C53.24 61.1759 54.46 60.4359 55.67 60.7259L58.38 61.3759C59.59 61.6659 60.33 62.8859 60.04 64.0959L59.7 65.4959C59.41 66.7059 58.19 67.4459 56.98 67.1559Z" fill="white"/>
<path d="M56.98 67.9959L53.89 67.2559C52.35 66.8859 51.3899 65.3259 51.7699 63.7859L52.1999 62.0059C52.5699 60.4659 54.1299 59.5059 55.6699 59.8859L58.76 60.6259C60.3 60.9959 61.26 62.5559 60.88 64.0959L60.4499 65.8759C60.0799 67.4159 58.52 68.3659 56.98 67.9959ZM55.2799 61.4759C54.6199 61.3159 53.9499 61.7259 53.7899 62.3859L53.36 64.1659C53.2 64.8259 53.6099 65.4959 54.2699 65.6559L57.36 66.3959C58.02 66.5559 58.69 66.1459 58.85 65.4859L59.2799 63.7059C59.4399 63.0459 59.03 62.3759 58.37 62.2159L55.2799 61.4759Z" fill="#0569AA"/>
</svg>
