<svg width="40" height="41" viewBox="0 0 40 41" fill="none" xmlns="http://www.w3.org/2000/svg">
<path d="M19.9199 40.29C30.8606 40.29 39.7299 31.4207 39.7299 20.48C39.7299 9.53922 30.8606 0.669922 19.9199 0.669922C8.9791 0.669922 0.109924 9.53922 0.109924 20.48C0.109924 31.4207 8.9791 40.29 19.9199 40.29Z" fill="#0569AA"/>
<path d="M19.7999 35.1299C16.5199 35.1299 13.8499 34.2999 11.8099 32.6499C10.8499 31.7399 10.8099 30.6599 11.6999 29.4299C12.2399 28.6899 12.8699 28.2699 13.5699 28.1699C14.2699 28.0699 14.9899 28.3101 15.7399 28.8701C16.8199 29.4901 17.9598 29.8 19.1398 29.8C20.4498 29.8 21.4699 29.53 22.2099 28.99C22.9699 28.45 23.3599 27.6699 23.3599 26.6599C23.3599 25.7499 23.1499 25.03 22.7299 24.51C22.2599 23.92 21.4398 23.49 20.2498 23.21C19.3598 23.14 18.5199 22.8699 17.7299 22.3999C16.7899 21.8599 16.3199 21.24 16.3199 20.55C16.3199 19.86 16.7299 19.24 17.5399 18.7C18.2599 18.23 19.0399 17.9501 19.9099 17.8501C21.6399 17.3101 22.4998 16.2299 22.4998 14.6299C22.4998 12.6799 21.4499 11.71 19.3599 11.71C18.4199 11.71 17.5499 11.9299 16.7299 12.3799C16.0099 12.8999 15.3099 13.1301 14.6199 13.0601C13.9299 13.0001 13.3098 12.64 12.7698 11.97C11.6798 10.61 11.8599 9.41988 13.2899 8.37988C15.3099 7.16988 17.4298 6.57007 19.6498 6.57007C22.5598 6.57007 24.8399 7.22003 26.4899 8.53003C28.2199 9.86003 29.0799 11.7399 29.0799 14.1499C29.0799 17.0099 27.5998 19.03 24.6398 20.22V20.3999C26.2698 20.8899 27.5399 21.68 28.4499 22.77C29.4599 23.95 29.9699 25.4001 29.9699 27.1001C29.9699 29.5701 28.9599 31.5501 26.9399 33.0601C25.0199 34.4401 22.6399 35.1299 19.7999 35.1299Z" fill="white"/>
</svg>
