<svg width="977" height="66" viewBox="0 0 977 66" fill="none" xmlns="http://www.w3.org/2000/svg">
<path d="M943.613 66H33.3867C15.2264 66 0.5 51.2228 0.5 33C0.5 14.7772 15.2264 0 33.3867 0L943.613 0C961.774 0 976.5 14.7772 976.5 33C976.49 51.2228 961.774 66 943.613 66Z" fill="#FFFEF5"/>
<path d="M408.208 41.4287C407.177 41.4287 406.666 40.9264 406.666 39.9118V35.4415H402.462C401.491 35.4415 401 34.9493 401 33.9749C401 33.0005 401.491 32.5083 402.462 32.5083H406.666V28.0378C406.666 27.0232 407.177 26.5209 408.208 26.5209C409.219 26.5209 409.72 27.0232 409.72 28.0378V32.5083H413.924C414.896 32.5083 415.386 33.0005 415.386 33.9749C415.386 34.9493 414.896 35.4415 413.924 35.4415H412.553H409.72V39.9118C409.72 40.9264 409.219 41.4287 408.208 41.4287Z" fill="#0569AA"/>
<path d="M433.356 32.8797C432.705 32.4679 431.925 32.0459 431.034 31.614C429.952 31.1117 429.732 30.3784 430.393 29.4241C430.863 28.731 431.474 28.5098 432.245 28.781C432.725 28.9719 433.326 29.2331 434.037 29.5646C434.638 29.866 435.068 30.0872 435.328 30.2379C436.109 30.7401 436.229 31.4432 435.669 32.3171C435.328 32.8395 434.998 33.1511 434.658 33.2415C434.267 33.342 433.837 33.2213 433.356 32.8797ZM431.864 45.4267C431.394 45.055 431.124 44.6835 431.054 44.3118C430.984 43.9502 431.104 43.5282 431.414 43.0561C431.895 42.3429 432.465 41.4386 433.126 40.3536C433.186 40.2632 433.266 40.1227 433.376 39.9318C434.067 38.7464 434.568 37.8524 434.888 37.2296C435.489 36.0643 436.269 35.9235 437.24 36.8075C437.911 37.4303 438.041 38.1437 437.631 38.9473C436.53 41.067 435.429 43.0862 434.327 44.9948C433.677 46.0697 432.856 46.2103 431.864 45.4267ZM435.118 25.3958C434.578 25.0241 433.837 24.582 432.906 24.0697C431.784 23.5473 431.574 22.7939 432.265 21.8195C432.766 21.1063 433.406 20.9153 434.167 21.2569C434.798 21.5181 435.378 21.7994 435.909 22.1008C436.299 22.2917 436.72 22.5327 437.17 22.8341C437.581 23.1154 437.801 23.4267 437.841 23.7582C437.861 24.0797 437.721 24.4515 437.421 24.8835C437.07 25.3857 436.71 25.687 436.36 25.7875C435.999 25.8879 435.589 25.7574 435.118 25.3958ZM439.103 46.0195C438.051 46.0195 437.531 45.4971 437.531 44.4423C437.531 43.3875 438.051 42.865 439.103 42.865H444.789V37.7218H441.065C440.014 37.7218 439.493 37.1994 439.493 36.1446C439.493 35.0998 440.014 34.5673 441.065 34.5673H444.789V29.9566H440.084C439.023 29.9566 438.482 29.424 438.482 28.3492C438.482 27.2843 439.013 26.742 440.084 26.742H446.701C445.64 25.8278 444.398 24.9638 442.997 24.1501C441.856 23.4972 441.716 22.6735 442.576 21.679C443.177 20.9657 443.908 20.8148 444.759 21.2267C446.401 22.1107 447.792 22.9848 448.934 23.8387C449.254 24.0999 449.414 24.4515 449.434 24.8835C449.454 25.3154 449.294 25.7273 448.954 26.1191L448.453 26.742H453.248C454.31 26.742 454.85 27.2743 454.85 28.3492C454.85 29.414 454.32 29.9566 453.248 29.9566H448.233V34.5673H452.267C453.308 34.5673 453.839 35.0898 453.839 36.1446C453.839 37.1994 453.318 37.7218 452.267 37.7218H448.233V42.865H453.839C454.89 42.865 455.411 43.3875 455.411 44.4423C455.411 45.487 454.89 46.0195 453.839 46.0195H446.471H439.103Z" fill="#0569AA"/>
<path d="M461.838 45.7081C460.777 44.9949 460.757 44.2112 461.778 43.3473C462.359 42.7144 462.849 42.0013 463.259 41.2077C463.65 40.3036 464.311 40.0222 465.252 40.3638C466.163 40.6852 466.443 41.288 466.093 42.1922C465.852 42.7547 465.542 43.3273 465.172 43.9099C464.761 44.5428 464.291 45.1154 463.77 45.6277C463.129 46.1501 462.489 46.1702 461.838 45.7081ZM462.589 29.2535C461.728 29.2535 461.297 28.8215 461.297 27.9576C461.297 27.0936 461.728 26.6616 462.589 26.6616H467.244C467.114 26.1694 466.884 25.5464 466.543 24.7729L466.683 24.7428H463.96C463.099 24.7428 462.669 24.311 462.669 23.4471C462.669 22.5832 463.099 22.1512 463.96 22.1512H471.609V22.0908C471.609 21.6187 471.759 21.267 472.059 21.0259C472.36 20.7848 472.75 20.6644 473.241 20.6644C473.721 20.6644 474.122 20.7848 474.422 21.0259C474.722 21.267 474.873 21.6287 474.873 22.0908V22.1512H482.551C483.412 22.1512 483.842 22.5832 483.842 23.4471C483.842 24.311 483.412 24.7428 482.551 24.7428H479.948L480.228 24.8031C480.299 24.8232 480.319 24.8736 480.289 24.9439C480.098 25.2653 479.828 25.6973 479.478 26.2398C479.347 26.4307 479.257 26.5712 479.197 26.6616H484.043C484.904 26.6616 485.334 27.0936 485.334 27.9576C485.334 28.8215 484.904 29.2535 484.043 29.2535H473.311H462.589ZM471.729 46.6322C469.987 46.6322 468.826 46.3912 468.225 45.8989C467.644 45.4067 467.354 44.4925 467.354 43.1464V41.5692C467.354 41.1372 467.484 40.806 467.735 40.5548C467.985 40.3137 468.315 40.1931 468.726 40.1931H470.347L470.097 40.0825C470.037 40.0624 470.027 40.0324 470.067 40.0023L471.158 38.9374H466.033C465.492 38.9374 465.052 38.7666 464.711 38.4351C464.371 38.1036 464.211 37.6615 464.211 37.109V32.2471C464.211 31.7046 464.381 31.2625 464.711 30.921C465.041 30.5794 465.482 30.4187 466.033 30.4187H473.401H480.799C481.34 30.4187 481.78 30.5895 482.121 30.921C482.461 31.2525 482.621 31.7046 482.621 32.2471V37.109C482.621 37.6515 482.451 38.0935 482.121 38.4351C481.79 38.7766 481.35 38.9374 480.799 38.9374H473.591C474.022 39.1483 474.592 39.4496 475.303 39.8615C476.084 40.3839 476.134 41.0169 475.443 41.7502C475.103 42.1018 474.802 42.3026 474.522 42.3427C474.222 42.403 473.891 42.2826 473.541 42.0013C472.64 41.3785 471.649 40.8158 470.568 40.3135V43.1263C470.568 43.498 470.648 43.7391 470.818 43.8295C470.988 43.9199 471.389 43.9702 472.019 43.9702H475.864C476.104 43.9702 476.314 43.94 476.484 43.8898C476.965 42.4131 477.766 41.8708 478.867 42.2826C479.638 42.5639 479.878 43.3776 479.598 44.7337C479.337 45.4671 478.937 45.9693 478.396 46.2506C477.906 46.5118 477.175 46.6423 476.184 46.6423H471.729V46.6322ZM467.354 33.6634H479.347V32.9603C479.347 32.6187 479.177 32.458 478.847 32.458H473.351H468.025C467.574 32.458 467.354 32.6789 467.354 33.131V33.6634ZM467.885 36.878H478.677C479.127 36.878 479.347 36.657 479.347 36.205V35.6122H473.351H467.354V36.3455C467.354 36.6971 467.534 36.878 467.885 36.878ZM470.157 26.6616H476.324L476.044 26.6013C475.984 26.5812 475.974 26.5412 475.984 26.4909C476.044 26.3403 476.144 26.0989 476.294 25.7574C476.504 25.3053 476.644 24.9738 476.745 24.7428H473.301H469.857C469.987 25.024 470.147 25.4361 470.337 25.9786C470.397 26.1494 470.438 26.2698 470.478 26.3401C470.518 26.4908 470.438 26.5812 470.257 26.6214L470.157 26.6616ZM483.712 45.7081C483.362 45.6478 483.052 45.3967 482.771 44.9446C482.731 44.9045 482.691 44.8442 482.631 44.7438C482.261 44.2415 481.96 43.8496 481.73 43.5884C481.47 43.2669 481.039 42.7948 480.439 42.1519C479.618 41.3483 479.718 40.6551 480.749 40.0724C481.44 39.7007 482.06 39.7511 482.601 40.2434C483.812 41.3685 484.804 42.4433 485.574 43.478C485.835 43.8899 485.915 44.2516 485.795 44.5429C485.685 44.8242 485.404 45.0952 484.954 45.3564C484.473 45.6477 484.063 45.7583 483.712 45.7081Z" fill="#0569AA"/>
<path d="M498.889 46.0195C498.439 44.9346 498.979 44.4122 500.511 44.4423C500.882 44.4423 501.262 44.4423 501.632 44.4423C501.893 44.4222 502.073 44.362 502.183 44.2616C502.283 44.1611 502.333 43.9803 502.333 43.7392V42.8651H495.105C494.304 42.8651 493.904 42.4633 493.904 41.6597C493.904 40.856 494.304 40.4542 495.105 40.4542H502.333V39.1281H492.602C491.761 39.1281 491.341 38.6961 491.341 37.8322C491.341 36.9884 491.761 36.5665 492.602 36.5665H496.837H502.333V35.361H495.245C494.494 35.361 494.124 34.9895 494.124 34.236C494.124 33.4826 494.494 33.1108 495.245 33.1108H502.333V31.8752H496.617C496.076 31.8752 495.636 31.7044 495.295 31.3729C494.955 31.0414 494.795 30.5994 494.795 30.0468V28.1383C494.795 27.5958 494.965 27.1537 495.295 26.8122C495.626 26.4706 496.066 26.3099 496.617 26.3099H502.333V25.1548H493.283C492.402 25.1548 491.962 24.7127 491.962 23.8287C491.962 22.9446 492.402 22.5026 493.283 22.5026H502.333V22.3319C502.333 21.2269 502.894 20.6744 504.015 20.6744C505.116 20.6744 505.667 21.2269 505.667 22.3319V22.5026H514.977C515.858 22.5026 516.289 22.9446 516.289 23.8287C516.289 24.7127 515.848 25.1548 514.977 25.1548H505.667V26.3099H511.754C512.294 26.3099 512.735 26.4807 513.075 26.8122C513.416 27.1437 513.576 27.5958 513.576 28.1383V30.0468C513.576 30.5893 513.406 31.0314 513.075 31.3729C512.745 31.7145 512.294 31.8752 511.754 31.8752H505.667V33.1108H512.194C512.735 33.1108 513.175 33.2816 513.516 33.6131C513.856 33.9446 514.016 34.3867 514.016 34.9392V36.5665H515.638C516.479 36.5665 516.899 36.9884 516.899 37.8322C516.899 38.6961 516.479 39.1281 515.638 39.1281H514.016V41.097C514.016 41.6194 513.856 42.0514 513.536 42.3729C513.215 42.7044 512.785 42.8651 512.244 42.8651H505.657V43.7392C505.657 44.5629 505.547 45.1758 505.337 45.5776C505.126 45.9794 504.746 46.3009 504.205 46.552C503.515 46.8132 502.423 46.9638 500.922 47.004C499.85 47.0341 499.17 46.7127 498.889 46.0195ZM498.559 29.7557H502.343V28.4095H500.161H498.649C498.199 28.4095 497.978 28.6305 497.978 29.0825V29.1629C497.968 29.5648 498.159 29.7557 498.559 29.7557ZM505.677 29.7557H507.919H509.521C509.972 29.7557 510.192 29.5346 510.192 29.0825V29.0023C510.192 28.6105 509.992 28.4095 509.601 28.4095H505.677V29.7557ZM505.677 36.5665H510.693V35.8633C510.693 35.5218 510.522 35.361 510.192 35.361H508.17H505.677V36.5665ZM505.677 40.4442H508.17H510.022C510.472 40.4442 510.693 40.2232 510.693 39.7712V39.1281H505.677V40.4442Z" fill="#0569AA"/>
<path d="M523.136 41.4589C522.836 41.3082 522.576 40.9666 522.356 40.4141C522.115 39.8314 522.065 39.3694 522.205 39.0178C522.346 38.6763 522.706 38.4151 523.287 38.2443C524.188 37.9831 524.908 37.7519 525.469 37.5711V26.772H523.957C522.926 26.772 522.416 26.2599 522.416 25.2252C522.416 24.1905 522.926 23.6781 523.957 23.6781H527.151H530.344C531.376 23.6781 531.886 24.1905 531.886 25.2252C531.886 26.2599 531.376 26.772 530.344 26.772H528.803V36.5366L530.705 35.9136C531.716 35.5721 532.317 35.9439 532.527 37.0087C532.697 37.8525 532.357 38.4452 531.516 38.7767C529.574 39.5302 527.201 40.404 524.398 41.4186C523.877 41.6195 523.457 41.6296 523.136 41.4589ZM531.015 46.0397C530.194 45.1055 530.435 44.3921 531.746 43.8999C533.618 43.1163 535.1 42.2825 536.201 41.3985H534.719C534.309 41.3985 533.989 41.2781 533.748 41.0471C533.508 40.816 533.398 40.4843 533.398 40.0724V28.3694C533.398 27.8269 533.568 27.3848 533.898 27.0433C534.229 26.7017 534.669 26.541 535.22 26.541H537.743C537.813 26.1994 537.913 25.7072 538.023 25.0543C538.063 24.8433 538.093 24.7027 538.103 24.6023H533.648C532.717 24.6023 532.247 24.1302 532.247 23.196C532.247 22.2617 532.717 21.7894 533.648 21.7894H540.095H546.543C547.474 21.7894 547.944 22.2617 547.944 23.196C547.944 24.1302 547.474 24.6023 546.543 24.6023H541.837C541.747 24.9036 541.587 25.3558 541.357 25.9485C541.267 26.2096 541.187 26.4104 541.137 26.541H545.121C545.662 26.541 546.102 26.7118 546.442 27.0433C546.783 27.3848 546.943 27.8269 546.943 28.3694V39.5601C546.943 40.1026 546.773 40.5446 546.442 40.8862C546.102 41.2277 545.662 41.3885 545.121 41.3885H536.401L537.773 42.3729C538.123 42.614 538.313 42.8954 538.323 43.2068C538.333 43.5182 538.183 43.7794 537.863 44.0105C536.461 44.9246 534.819 45.7685 532.927 46.5118C532.136 46.763 531.506 46.6023 531.015 46.0397ZM536.421 30.8003H543.709V29.7055C543.709 29.2535 543.489 29.0323 543.039 29.0323H540.065H537.092C536.641 29.0323 536.421 29.2535 536.421 29.7055V30.8003ZM536.421 34.8488H543.709V33.0505H540.065H536.421V34.8488ZM537.102 38.9575H543.049C543.499 38.9575 543.719 38.7366 543.719 38.2845V37.1593H540.075H536.431V38.2845C536.421 38.7265 536.652 38.9575 537.102 38.9575ZM544.891 46.2104C544.31 45.7584 543.389 45.1155 542.118 44.2717C541.016 43.5986 540.986 42.8853 542.038 42.1318C542.618 41.6999 543.199 41.6397 543.78 41.9611C543.84 42.0013 543.92 42.0414 544.03 42.1017C544.851 42.5939 545.461 42.9556 545.852 43.1967C546.132 43.3675 546.533 43.6187 547.053 43.9602C547.984 44.6534 547.964 45.3665 546.973 46.0998C546.583 46.4012 546.232 46.5621 545.932 46.5822C545.592 46.6124 545.241 46.4917 544.891 46.2104Z" fill="#0569AA"/>
<path d="M569.198 41.4287C568.167 41.4287 567.656 40.9264 567.656 39.9118V35.4415H563.451C562.48 35.4415 561.99 34.9493 561.99 33.9749C561.99 33.0005 562.47 32.5083 563.451 32.5083H567.656V28.0378C567.656 27.0232 568.167 26.5209 569.198 26.5209C570.209 26.5209 570.71 27.0232 570.71 28.0378V32.5083H574.914C575.885 32.5083 576.376 33.0005 576.376 33.9749C576.376 34.9493 575.885 35.4415 574.914 35.4415H573.543H570.71V39.9118C570.71 40.9264 570.199 41.4287 569.198 41.4287Z" fill="#0569AA"/>
</svg>
