<svg width="176" height="235" viewBox="0 0 176 235" fill="none" xmlns="http://www.w3.org/2000/svg">
<path d="M57.1848 84.035C57.1848 84.035 59.0169 105.427 61.3455 111.376C63.674 117.324 71.5981 125.43 79.7027 125.177L78.8994 135.485C78.8994 135.485 88.6377 137.227 98.2315 131.64L97.6268 120.276C97.6268 120.276 113.529 115.077 116.697 99.0458C119.883 83.024 83.6648 30.2651 57.1848 84.035Z" fill="white"/>
<path d="M123.087 109.841C124.73 95.336 127.888 55.6291 104.964 50.8451C104.964 50.8451 90.6954 40.2483 71.7064 50.6015C52.7083 60.9547 52.4827 78.9351 52.564 89.9292C52.6993 109.706 58.3581 138.166 47.3474 137.453C47.3474 137.453 51.7156 146.235 70.136 139.529L79.4861 134.384L79.2424 125.123C79.2424 125.123 65.1721 124.509 62.0855 110.455C59.2696 97.6467 58.3942 88.1239 58.3942 88.1239C58.3942 88.1239 58.1234 84.0079 57.9158 83.4663C57.7083 82.9247 64.2426 71.5245 64.8382 71.1093C65.4429 70.7031 71.2281 83.5295 76.6974 75.478C76.6974 75.478 80.1269 81.3 84.6035 75.8391C84.6035 75.8391 90.6413 83.8455 98.5564 78.3484L102.582 80.8307L100.65 118.57L97.5004 120.772L97.699 131.207C97.699 131.207 125.289 153.204 133.764 139.529C133.764 139.547 120.334 134.194 123.087 109.841ZM110.822 107.35L110.957 92.4746C110.957 92.4746 116.21 91.2921 116.056 97.5745C115.858 106.195 110.822 107.35 110.822 107.35Z" fill="white"/>
<path d="M73.9447 131.884L68.7101 135.106C68.7101 135.106 65.8851 139.565 57.1217 142.679C51.8238 144.565 49.2788 149.178 45.2084 157.554L33.7103 186.7L25.2717 171.888C25.2717 171.888 18.3494 183.081 7.31155 185.717C7.31155 185.717 35.6327 262.305 56.0748 212.868L58.7282 231.814H122.897L125.054 225.469C125.054 225.469 131.02 232.392 138.34 225.225C141.58 222.057 155.415 201.287 155.578 196.142C155.758 190.555 142.275 179.046 142.275 179.046C142.275 179.046 138.529 139.863 117.879 137.669C117.879 137.669 109.405 136.406 104.712 131.468L99.1341 130.114C99.116 130.123 85.2894 139.375 73.9447 131.884Z" fill="#97D5EE"/>
<path d="M74.8374 132.515C74.8024 132.48 74.8112 132.488 74.8374 132.515V132.515Z" fill="#231815"/>
<path d="M124.811 139.276C122.527 137.994 121.047 140.747 123.195 141.677C126.417 142.706 128.809 145.36 130.957 147.851C132.852 150.171 134.549 152.689 135.785 155.424C137.329 160.064 138.024 164.947 138.953 169.74C139.152 170.886 139.35 172.042 139.504 173.197C139.594 173.766 139.54 174.398 139.982 174.822C140.767 175.688 142.455 175.038 142.374 173.829C141.589 167.763 140.379 161.734 138.881 155.812C136.562 149.494 131.056 142.056 124.811 139.276Z" fill="#231815"/>
<path d="M115.316 137.769C115.524 137.065 115.073 136.207 114.341 136.045C111.968 135.675 109.495 135.052 107.564 133.535C110.767 125.863 111.065 117.342 111.553 109.137C115.154 107.007 116.733 102.665 116.787 98.6395C117.112 95.4172 115.388 91.6261 111.733 91.6713C111.697 88.0878 111.616 84.4953 111.616 80.9118C111.58 79.1427 108.953 79.1156 108.899 80.9118C108.971 92.2128 109.36 103.532 108.511 114.806C108.051 120.474 107.464 126.242 105.452 131.604C104.17 131.432 103.457 133.039 104.269 133.987C102.582 135.711 104.703 137.85 106.183 136C107.762 137.155 109.639 137.859 111.526 138.337C112.753 138.545 114.793 139.448 115.316 137.769ZM113.385 95.2547C113.403 95.2727 113.412 95.2998 113.43 95.3178C113.376 95.2456 113.304 95.1464 113.385 95.2547ZM112.257 94.4333C114.54 95.3359 114.134 98.2243 113.953 100.219C113.683 102.16 113.024 104.118 111.67 105.572C111.769 101.826 111.778 98.0709 111.751 94.3249C111.923 94.343 112.094 94.3791 112.257 94.4333Z" fill="#231815"/>
<path d="M58.1415 222.246C55.461 207.533 54.4142 192.595 53.3763 177.701C53.2951 175.86 50.6235 175.86 50.5784 177.701C51.4358 189.995 52.3023 202.307 54.0622 214.52C51.0478 220.17 45.2626 230.577 37.6634 228.917C35.8132 228.637 33.8547 228.249 32.4287 226.958C29.9558 224.927 27.6363 222.688 25.6417 220.179C22.528 216.099 20.4072 211.369 17.9252 206.892C14.6852 200.745 11.6346 194.499 8.89098 188.118C8.23214 187.007 8.11477 184.715 6.36388 185.085C5.68699 185.256 5.20874 186.041 5.43437 186.718C6.81522 190.031 8.25922 193.308 9.7935 196.557C12.8531 203.065 16.2014 209.438 19.6761 215.72C21.2735 218.753 23.1778 221.614 25.5244 224.115C27.7356 226.371 29.9829 228.79 32.7807 230.325C34.1616 230.947 35.6147 231.29 37.1128 231.498C45.3619 233.267 51.0117 225.017 54.721 218.861C55.4972 223.609 56.4358 228.33 57.6271 232.996C58.1506 234.757 60.7589 234.035 60.3257 232.256C59.4773 228.935 58.7643 225.604 58.1415 222.246Z" fill="#231815"/>
<path d="M66.2551 137.128C66.2642 137.119 66.2642 137.11 66.2732 137.11C66.2281 137.164 66.2011 137.2 66.192 137.209C66.2101 137.182 66.2371 137.155 66.2551 137.128Z" fill="#231815"/>
<path d="M68.4844 135.214C66.9863 134.935 66.914 136.171 66.2732 137.11C66.2912 137.092 66.3094 137.065 66.3364 137.038C66.3094 137.065 66.1739 137.254 66.192 137.209C66.1469 137.254 66.1108 137.308 66.0656 137.354C66.4086 133.581 66.1108 129.78 65.5241 126.053C65.2714 124.924 63.5837 124.699 63.0422 125.728C62.6812 126.396 63.0151 127.145 63.0603 127.858C63.5386 131.586 63.71 135.404 63.1144 139.123C61.3454 139.755 59.4863 140.116 57.7263 140.784C53.5386 142.345 50.3798 145.811 47.8617 149.386C40.9304 160.326 38.4755 173.387 33.4485 185.211C30.9305 180.906 28.4576 176.582 26.084 172.195C25.6327 171.184 24.8746 169.884 23.584 170.616C22.9252 171.04 22.7085 171.843 23.0785 172.529C26.111 178.198 29.3421 183.767 32.6002 189.309C35.4341 194.147 38.3131 198.958 41.0026 203.869C42.1308 205.927 43.2229 208.012 44.2247 210.142C44.5044 211.126 45.4521 211.956 46.4719 211.36C47.1398 210.972 47.3293 210.115 46.9773 209.447C46.0206 207.362 44.9737 205.322 43.8817 203.3C41.1741 198.281 38.2409 193.389 35.3618 188.47C38.1867 180.211 41.3095 172.051 44.1254 163.783C46.9052 156.137 50.434 147.526 58.0783 143.636H58.0693C59.4502 143.067 60.9032 142.724 62.3292 142.309C61.905 143.636 61.2913 144.9 60.497 146.046C60.1812 146.551 59.6397 146.958 59.6487 147.607C59.6487 147.941 59.7931 148.339 60.0458 148.564C62.5277 150.74 65.0999 142.869 65.4609 141.145C67.1667 140.576 71.4808 136.487 68.4844 135.214ZM55.452 145.224C55.461 145.224 55.461 145.215 55.47 145.215C55.5964 145.107 55.5242 145.179 55.452 145.224Z" fill="#231815"/>
<path d="M58.0784 143.645C58.2858 143.609 58.2859 143.591 58.2227 143.6C58.1776 143.618 58.1235 143.636 58.0784 143.645Z" fill="#231815"/>
<path d="M125.542 224.16C125.551 224.169 125.551 224.178 125.56 224.178C125.542 224.151 125.515 224.124 125.497 224.097C125.506 224.124 125.524 224.142 125.542 224.16Z" fill="#231815"/>
<path d="M157.491 195.781C157.229 194.653 155.469 194.373 154.928 195.447C153.159 199.166 151.544 202.957 149.603 206.585C147.545 210.395 145.298 214.113 142.961 217.751C141.544 219.899 140.018 222.029 138.033 223.699C136.724 224.683 135.424 225.703 133.926 226.389C131.029 227.608 127.392 226.804 125.551 224.178C125.695 224.385 125.343 223.907 125.488 224.097C123.701 221.65 122.762 218.717 121.86 215.855C121.643 215.16 120.876 214.637 120.136 214.881C119.432 215.106 118.926 215.855 119.161 216.605C120.118 219.592 121.092 222.616 122.861 225.243C121.851 227.454 121.923 230.126 121.237 232.473C120.804 234.26 123.403 234.973 123.935 233.213C124.369 231.372 124.639 229.494 125.018 227.635C133.367 234.062 142.374 224.665 146.39 217.589C150.379 211.415 153.764 204.898 156.724 198.182C157.013 197.397 157.699 196.657 157.491 195.781Z" fill="#231815"/>
<path d="M125.686 203.354C126.363 203.715 127.203 203.526 127.6 202.849C129.116 200.312 130.758 197.848 132.428 195.411C134.766 192.053 137.094 188.668 139.72 185.527C141.011 184.236 139.017 182.259 137.744 183.55C134.08 187.928 130.885 192.694 127.708 197.433C126.842 198.751 125.993 200.087 125.181 201.44C124.811 202.072 125.018 203.002 125.686 203.354Z" fill="#231815"/>
<path d="M120.271 209.203C118.358 199.545 118.268 189.652 117.536 179.867C117.509 178.035 114.748 178.044 114.739 179.867C115.47 189.914 115.614 200.041 117.573 209.952C118.078 211.703 120.686 211.008 120.271 209.203Z" fill="#231815"/>
<path d="M91.4716 121.548C91.2281 121.648 91.2731 121.63 91.3453 121.602C91.3904 121.575 91.4355 121.566 91.4716 121.548Z" fill="#231815"/>
<path d="M92.9879 47.2076C93.0871 47.2166 93.1863 47.2346 92.9879 47.2076V47.2076Z" fill="#231815"/>
<path d="M105.75 52.7948C109.703 53.5621 112.807 56.4686 115.28 59.4834C119.865 65.1429 121.941 72.3459 122.925 79.4586C123.917 86.8241 123.674 94.2889 122.789 101.654C121.327 112.188 119.802 123.868 125.009 133.635C126.95 136.857 129.702 140.63 133.764 140.91C134.477 140.937 135.154 140.269 135.118 139.556C135.036 138.021 133.592 138.346 132.573 137.913C132.582 137.913 132.591 137.913 132.6 137.922C131.092 137.2 129.946 135.918 128.899 134.646C128.908 134.655 128.908 134.664 128.917 134.673C127.861 133.292 126.995 131.757 126.318 130.159C126.318 130.168 126.327 130.178 126.327 130.187C123.538 123.435 124.044 115.934 124.522 108.803C124.883 105.554 125.533 102.349 125.777 99.0819C126.661 90.5159 126.471 81.7603 124.549 73.3388C122.374 64.0146 117.121 53.86 107.609 50.4661C104.567 49.1843 103.954 52.1991 105.75 52.7948ZM115.623 59.9256C115.587 59.8805 115.506 59.7722 115.515 59.7812C115.56 59.8263 115.596 59.8715 115.623 59.9256Z" fill="#231815"/>
<path d="M77.4014 101.826C78.9537 102.729 80.3616 100.427 78.8183 99.488C77.275 98.5854 75.8581 100.878 77.4014 101.826Z" fill="#231815"/>
<path d="M96.9771 93.1155C97.1485 92.5198 96.7695 91.8247 96.1648 91.6803C95.3796 91.5088 94.7208 92.1588 93.9898 92.3483C93.8454 92.24 93.701 92.1316 93.5475 92.0233C94.1432 91.4997 95.0005 90.8409 94.459 89.9563C93.5113 88.5392 92.0403 90.0827 91.3724 90.9853C89.4862 90.4167 87.4374 90.6152 85.9212 92.0865C84.6847 93.3502 86.562 95.2367 87.8435 94.0091C88.6648 93.2238 89.9284 93.3051 90.9212 93.6842C91.0204 93.7203 91.3633 93.9008 90.9753 93.6932C91.8056 94.0453 92.5637 94.5778 93.1413 95.2728C93.9356 96.1664 95.5601 95.4263 95.4428 94.2709C96.0204 94.0001 96.8056 93.8196 96.9771 93.1155Z" fill="#231815"/>
<path d="M69.5765 93.4675C69.8111 93.3863 69.7569 93.4043 69.6667 93.4314C69.6306 93.4494 69.6036 93.4585 69.5765 93.4675Z" fill="#231815"/>
<path d="M70.5241 93.1967C71.9411 93.0071 72.2841 93.982 73.349 94.0993C74.4772 94.1535 75.1992 92.5468 74.3057 91.7796C73.0512 90.6964 71.3274 90.236 69.7028 90.5971C69.1523 90.0104 69.053 88.9543 68.2046 88.7106C67.6089 88.5301 66.9231 88.9183 66.7696 89.523C66.5981 90.2632 67.1757 90.913 67.5096 91.5268C67.3472 91.6352 67.1937 91.7525 67.0403 91.8789C66.3003 91.3373 65.3707 90.2451 64.4591 91.1477C63.3761 92.3392 65.0729 93.332 65.9483 93.9368C66.2461 95.0741 67.8346 95.2547 68.4212 94.2438C68.1324 94.6319 68.4392 94.2348 68.5295 94.1535C68.6378 94.0542 68.7371 93.9639 68.8544 93.8646C68.8363 93.8827 68.8184 93.8917 68.8093 93.9098C69.044 93.7473 69.2967 93.6029 69.5584 93.4766C69.5403 93.4856 69.5223 93.4855 69.5043 93.4945C69.8473 93.3591 70.1812 93.2508 70.5241 93.1967Z" fill="#231815"/>
<path d="M68.8093 93.9098C68.7281 93.9729 68.6199 94.0902 68.8273 93.9008C68.8183 93.9008 68.8093 93.9098 68.8093 93.9098Z" fill="#231815"/>
<path d="M84.4953 110.41C84.4592 110.509 84.396 110.627 84.4682 110.455C83.8996 111.737 83.1776 112.955 82.2299 113.993C81.0567 115.248 82.8436 117.026 84.08 115.844C85.6414 114.02 87.0313 111.89 87.4645 109.507C87.5096 107.16 84.6847 107.467 83.0602 107.269C80.6324 107.178 75.3797 106.42 73.7191 108.406C72.6271 110.184 77.0675 115.401 78.3852 116.719C79.6036 117.911 81.4177 116.096 80.2354 114.869C78.7553 113.398 77.4916 111.701 76.5259 109.841C79.2245 109.471 81.9682 109.778 84.6667 110.013C84.6035 110.148 84.5494 110.274 84.4953 110.41ZM85.3076 110.085C85.4249 110.112 85.4429 110.175 85.2895 110.085C85.2985 110.085 85.2985 110.085 85.3076 110.085Z" fill="#231815"/>
<path d="M51.1469 133.12C50.9755 133.499 51.1018 133.237 51.1469 133.12V133.12Z" fill="#231815"/>
<path d="M47.3474 138.816C56.5983 138.049 54.9376 125.24 54.9196 118.606C54.7391 115.095 54.7029 111.583 54.4412 108.072C54.0892 103.884 53.4214 99.7137 53.304 95.5075C53.2228 82.1304 53.9267 66.6953 64.3328 56.9469C69.7209 52.2171 76.3996 48.6698 83.4573 47.3068C86.5981 46.8104 89.8291 46.8465 92.9789 47.1985C92.9519 47.1985 92.9157 47.1895 92.8796 47.1805C95.0546 47.4873 97.2478 48.047 99.1251 49.2114C100.154 49.7259 101.255 51.3596 102.428 50.2133C102.898 49.6988 102.997 48.7871 102.428 48.2907C97.8525 44.3371 91.3905 43.967 85.6143 44.3191C79.1252 44.7975 73.0693 47.6047 67.6361 51.0437C60.8311 55.1417 55.9214 61.8482 53.5568 69.3852C49.351 82.6629 50.4521 96.7891 51.8781 110.419C52.0315 114.733 52.2571 119.048 52.3203 123.372C52.3113 126.639 52.3112 130.015 51.138 133.111C51.147 133.093 51.156 133.066 51.1651 133.048C50.5513 134.682 49.1615 136.072 47.3293 136.099C45.5604 136.162 45.5694 138.78 47.3474 138.816ZM97.5276 48.39C97.2297 48.2726 97.4283 48.3448 97.5276 48.39V48.39ZM61.2192 60.3769C61.2372 60.3499 61.2643 60.3228 61.2824 60.2957C61.3817 60.1603 61.2462 60.3499 61.2101 60.395C61.2101 60.386 61.2101 60.3769 61.2192 60.3769ZM48.6922 135.828C48.6831 135.837 48.6741 135.837 48.6651 135.846C48.6651 135.837 48.6831 135.828 48.6922 135.828Z" fill="#231815"/>
<path d="M128.89 134.627C128.899 134.627 128.899 134.627 128.89 134.627C128.701 134.339 128.836 134.555 128.89 134.627Z" fill="#231815"/>
<path d="M132.618 137.922C132.717 137.967 132.906 137.994 132.599 137.913C132.609 137.913 132.618 137.913 132.618 137.922Z" fill="#231815"/>
<path d="M126.336 130.196C126.381 130.295 126.48 130.493 126.327 130.169C126.336 130.178 126.336 130.187 126.336 130.196Z" fill="#231815"/>
<path d="M104.441 82.1846C106.002 82.311 106.372 79.8919 104.847 79.5308C104.45 79.4586 104.062 79.3503 103.683 79.1969C101.589 78.2762 100.28 76.2633 99.4138 74.2233C98.9174 72.9597 98.394 71.678 98.1593 70.3331C98.0871 69.3492 98.5654 67.9772 97.2387 67.6342C93.5925 67.3634 96.3542 73.9165 97.0852 75.6315C98.078 77.8971 99.5852 79.9551 101.724 81.2368C101.634 93.4314 101.011 105.644 99.4138 117.739C98.1322 116.855 96.977 118.272 96.0113 118.985C94.6124 120.014 93.069 120.844 91.4716 121.53C91.4896 121.521 91.4987 121.521 91.5168 121.512C87.6088 123.083 83.3399 124.166 79.1071 123.742C71.932 122.74 65.3797 118.29 62.7985 111.376C62.4194 110.401 62.1035 109.408 61.8598 108.388C61.6883 107.693 60.8761 107.215 60.1902 107.44C59.4682 107.675 59.0621 108.37 59.2426 109.11C61.183 118.001 68.7822 124.798 77.6991 126.242C77.9789 128.76 78.6377 131.36 78.1684 133.905C76.9952 133.635 75.7948 133.265 74.8471 132.488C74.8742 132.506 74.9103 132.543 74.9825 132.606C73.6378 131.044 71.4266 132.867 72.7623 134.393C74.414 135.81 76.4807 136.496 78.6016 136.821C83.7821 137.579 89.1341 136.794 94.0618 135.079C93.3488 135.918 92.5727 136.704 91.7153 137.399C91.625 137.471 91.273 137.706 91.6521 137.453C90.6051 138.22 89.4138 139.014 88.0691 138.951C88.0149 138.969 87.8705 138.924 87.7983 138.933C87.8163 138.933 87.8435 138.933 87.8615 138.933C85.903 137.913 84.4409 140.413 86.4987 141.352C91.6882 143.004 96.5257 137.002 98.7279 132.967C99.4319 132.479 100.443 132.154 100.731 131.27C100.93 130.602 100.56 129.88 99.9101 129.618C103.565 114.138 104.116 98.0619 104.441 82.1846ZM80.9391 134.294C81.3453 131.721 80.9482 129.103 80.524 126.558C86.2009 126.558 91.9499 124.852 96.7242 121.792C96.6069 123.399 96.6069 125.015 96.7513 126.612C96.8686 128.147 97.4012 129.446 96.6701 130.918C91.8507 133.391 86.3362 134.546 80.9391 134.294Z" fill="#231815"/>
<path d="M88.051 138.969C88.06 138.96 88.0149 138.951 87.8435 138.951C87.9157 138.96 87.9878 138.969 88.051 138.969Z" fill="#231815"/>
<path d="M72.7262 75.7758C72.6811 75.8029 72.6541 75.83 72.636 75.839C72.6631 75.821 72.6901 75.8029 72.7262 75.7758Z" fill="#231815"/>
<path d="M72.5096 75.9112C72.4826 75.9203 72.4465 75.9474 72.3833 75.9744C72.4284 75.9564 72.4645 75.9293 72.5096 75.9112Z" fill="#231815"/>
<path d="M97.7171 78.5741C97.1215 76.832 95.2352 77.9783 93.9626 78.0685C91.5529 78.3935 88.9987 77.9241 87.0673 76.3897C86.4717 75.9113 85.9301 75.3606 85.4428 74.7649C85.0727 74.2504 84.6846 73.6818 83.9807 73.6998C82.9969 73.6547 82.7352 74.6837 82.1756 75.2704C81.3092 76.2633 79.7659 76.8681 78.5836 76.0738C77.7714 75.5683 76.9772 74.9996 76.3635 74.2595C75.8671 73.5013 75.6144 72.2918 74.4411 72.4903C72.6812 72.716 73.692 74.8822 72.7172 75.7849C72.7443 75.7668 72.7714 75.7488 72.8165 75.7217C72.7804 75.7398 72.5819 75.8932 72.627 75.8481C72.5909 75.8752 72.5458 75.8932 72.5006 75.9203C72.627 75.8751 72.3382 76.0015 72.3021 76.0196C72.3292 76.0015 72.3562 75.9925 72.3743 75.9835C71.8418 76.2002 71.192 76.1008 70.6866 75.9203C67.3382 73.6186 67.1307 67.7243 68.2317 64.1589C68.4393 63.482 67.988 62.6516 67.284 62.4891C64.7119 61.8121 64.8563 68.2027 64.9827 69.8004C61.156 71.4251 58.1235 77.563 56.6344 81.309C56.2463 82.7351 54.2066 86.8421 56.8419 86.9595C57.0585 91.6622 57.4015 96.3559 58.1776 101.004C58.2318 101.32 58.5387 101.663 58.8004 101.817C59.8293 102.431 61.0838 101.429 60.795 100.282C60.091 96.058 59.8022 91.7706 59.5856 87.5011C59.36 86.2645 59.9014 83.9899 58.8455 83.2136C60.2534 79.2872 62.239 75.2433 65.4971 72.5354C66.0747 74.5663 66.9863 76.5521 68.7101 77.8519C70.6415 79.3593 73.8815 79.1518 75.2353 76.9854C77.8616 79.5309 81.3544 80.0634 84.0259 77.2652C86.1378 79.603 89.2605 80.9118 92.3922 80.8848C93.8182 80.7674 98.3218 80.8126 97.7171 78.5741ZM59.5495 81.291C59.5585 81.2278 59.5946 81.1646 59.6216 81.1104C59.6036 81.1465 59.5495 81.282 59.5495 81.291ZM70.8671 75.9835C70.831 75.9835 70.7949 75.9654 70.7498 75.9383C70.7769 75.9564 70.831 75.9745 70.8671 75.9835ZM72.8346 75.6946C72.8526 75.6856 72.8797 75.6495 72.9067 75.6134C72.8887 75.6585 72.8616 75.6856 72.8346 75.6946Z" fill="#231815"/>
<path d="M118.827 133.644C118.827 133.608 118.818 133.571 118.809 133.562C118.818 133.571 118.827 133.599 118.827 133.644Z" fill="#231815"/>
<path d="M117.726 122.271C117.04 122.298 116.634 122.785 116.562 123.435C115.804 130.241 116.111 137.57 119.802 143.546C120.74 145.071 121.878 146.479 123.213 147.68C124.314 148.727 125.93 147.12 124.865 146.028C123.006 144.511 121.138 141.47 120.479 139.791C119.666 137.823 119.116 135.765 118.836 133.653C118.836 133.698 118.836 133.716 118.818 133.617C118.818 133.599 118.818 133.59 118.809 133.571C118.376 130.214 118.52 126.802 118.89 123.444C118.953 122.821 118.304 122.243 117.726 122.271Z" fill="#231815"/>
<path d="M22.7627 156.408C22.7627 156.408 14.5498 155.74 14.5498 155.903C14.5498 156.065 14.5498 162.781 14.5498 162.781L20.9035 165.01L22.7627 156.408Z" fill="white"/>
<path d="M37.8168 156.038L21.1742 156.11C18.0244 156.128 15.1273 153.565 14.7031 150.387L10.1183 116.421C9.69416 113.253 11.8963 110.663 15.037 110.654L31.6796 110.581C34.8294 110.563 37.7265 113.127 38.1507 116.304L42.7355 150.27C43.1687 153.447 40.9666 156.029 37.8168 156.038Z" fill="white"/>
<path d="M21.1562 157.419C17.3927 157.419 13.9271 154.35 13.4127 150.568L8.82778 116.602C8.56604 114.67 9.08961 112.847 10.29 111.466C11.4723 110.112 13.1599 109.363 15.0371 109.354L31.6797 109.282C31.6887 109.282 31.6978 109.282 31.7068 109.282C35.4703 109.282 38.9359 112.351 39.4504 116.133L44.0351 150.099C44.2969 152.03 43.7734 153.854 42.5731 155.235C41.3908 156.589 39.703 157.338 37.8258 157.347L21.1833 157.419C21.1743 157.419 21.1653 157.419 21.1562 157.419ZM31.7068 111.899C31.6978 111.899 31.6887 111.899 31.6887 111.899L15.0462 111.972C13.927 111.981 12.9343 112.405 12.2574 113.19C11.5534 113.993 11.2557 115.086 11.4181 116.259L16.0029 150.225C16.3458 152.761 18.6563 154.81 21.1562 154.81C21.1653 154.81 21.1653 154.81 21.1743 154.81L37.8169 154.738C38.936 154.729 39.9287 154.305 40.6056 153.52C41.3096 152.716 41.6074 151.624 41.4449 150.451L36.8601 116.485C36.5172 113.948 34.2068 111.899 31.7068 111.899Z" fill="#231815"/>
<path d="M4.44149 139.998L11.2104 121.765C11.2104 121.765 13.8729 117.938 15.6237 122.595L13.6292 132.416L20.4974 128.833C20.4974 128.833 25.4432 128.923 22.871 132.497L16.8421 136.135L15.0642 139.998L21.7248 136.703C21.7248 136.703 25.6959 137.056 23.611 140.44L14.7122 146.741L21.075 145.071C21.075 145.071 24.7573 146.1 22.0497 148.6L15.6237 152.121L16.8421 160.163L20.2177 162.979L23.611 173.08C23.611 173.08 18.548 181.366 12.8531 183.731L4.92889 153.474C4.92889 153.474 4.27005 151.976 5.38015 149.53C5.38015 149.53 3.79169 146.605 5.01912 144.069C5.01912 144.069 3.8368 141.632 4.44149 139.998Z" fill="white"/>
<path d="M6.75198 135.982C6.98664 136.036 7.23929 136.027 7.48297 135.963C4.69418 138.175 7.39275 140.287 8.75555 138.671C9.82053 137.471 12.3386 135.467 13.7465 133.851C14.64 133.301 15.723 133.075 16.5262 132.38C17.4919 131.721 18.5931 131.252 19.64 130.737C20.3079 130.394 21.0209 129.997 21.7971 130.051H21.806C21.8511 130.069 21.9414 130.16 21.8692 130.114C22.88 131.107 21.2013 131.838 20.4793 132.308C19.1436 133.147 17.7627 133.896 16.427 134.727C14.3963 136.153 13.1599 138.437 11.6347 140.332C11.0029 140.802 10.1183 141.117 9.86564 141.93C9.4956 143.049 10.9126 144.195 11.9234 143.509C15.2086 141.289 18.8728 139.52 22.4829 137.949C22.9973 138.626 22.9883 139.258 22.3024 139.8C21.4901 140.675 20.4974 141.352 19.4865 141.984C17.0678 143.528 14.4865 144.809 12.1039 146.416C10.5786 147.409 11.5895 150.207 13.4757 149.25C15.1905 148.239 19.6941 146.145 21.5984 146.335C21.6887 146.524 21.7429 146.723 21.7971 146.921C21.2646 147.535 20.5877 147.905 19.8656 148.239C18.6202 148.907 17.4288 149.665 16.2104 150.378C15.4252 150.983 14.0985 151.11 13.7827 152.157C13.5841 152.843 13.9993 153.646 14.6852 153.854C15.3621 155.812 15.5787 157.906 15.3621 159.964C15.326 160.705 16.0299 161.391 16.7609 161.364C19.4595 161.364 17.9071 154.549 17.3385 152.978C18.8819 152.112 20.3349 151.101 21.9233 150.333C22.9702 149.738 24.1075 148.889 24.5768 147.743C24.8385 146.073 24.0081 143.834 22.1399 143.582C23.5027 142.553 25.0732 141.415 25.6147 139.727C25.9847 137.796 24.7482 135.223 22.6002 135.142C21.2825 135.097 20.1453 135.909 18.9991 136.442C21.4721 134.826 26.2555 133.201 24.7122 129.41C22.9613 125.195 18.3674 128.201 15.6328 129.618C16.0028 128.372 16.2104 127.091 16.3548 125.809C16.4812 124.509 17.0498 123.092 16.4541 121.846C15.7682 119.066 11.6075 118.443 10.2447 121.016C9.61297 121.991 9.3422 123.155 8.99022 124.247C8.47578 125.809 7.88015 127.343 7.32961 128.887C6.69785 130.638 6.13822 132.407 5.79526 134.239C5.58768 134.98 6.01192 135.792 6.75198 135.982ZM22.6905 139.375C22.7176 139.339 22.7356 139.312 22.7356 139.312C22.7266 139.33 22.7086 139.357 22.6905 139.375ZM21.779 130.033C21.788 130.033 21.788 130.033 21.779 130.033V130.033ZM21.9143 130.142C21.9233 130.151 21.9324 130.169 21.9414 130.187C21.9324 130.169 21.9143 130.151 21.9143 130.142ZM21.9504 130.187C21.9594 130.196 21.9685 130.205 21.9775 130.214C22.1039 130.358 22.0046 130.268 21.9504 130.187ZM21.7699 130.015C21.7519 130.006 21.7428 129.988 21.7157 129.97C21.7338 129.988 21.7519 129.997 21.7699 130.015ZM13.8006 133.788C13.945 133.599 14.0353 133.481 13.8006 133.788V133.788ZM12.9433 122.144C12.9342 122.153 12.9162 122.153 12.9071 122.162C12.9703 122.108 13.0335 122.072 12.9433 122.144ZM11.752 124.762C12.0588 123.886 12.2123 122.893 12.8621 122.198C12.835 122.216 12.7899 122.243 12.7538 122.27C12.7989 122.243 12.835 122.216 12.8801 122.18C12.8801 122.18 12.88 122.18 12.8891 122.18C14.3872 122.081 13.8187 123.967 13.6833 124.879C13.5389 127.109 12.7176 129.203 12.3927 131.387C11.0209 132.506 9.87474 133.914 8.47583 135.025C9.12565 131.477 10.6509 128.192 11.752 124.762Z" fill="#231815"/>
<path d="M12.8621 122.189C12.8621 122.199 12.8621 122.199 12.8621 122.189C12.8621 122.189 12.8713 122.189 12.8713 122.18C12.8713 122.189 12.8713 122.189 12.8621 122.189Z" fill="#231815"/>
<path d="M21.7971 130.051C21.8332 130.087 21.8512 130.105 21.8692 130.114C21.8421 130.096 21.8241 130.06 21.7971 130.051Z" fill="#231815"/>
<path d="M25.001 170.616C24.7122 170.462 24.3602 170.408 24.0263 170.462C23.1779 168.359 20.8674 163.331 22.501 161.427C23.214 160.307 23.7735 159.098 24.2067 157.852C24.4504 157.157 23.936 156.291 23.2321 156.128C21.2736 155.722 21.2646 158.52 20.3079 159.658C18.918 161.318 18.909 163.512 19.4235 165.516C19.965 168.061 20.8855 170.534 22.1039 172.845C19.8566 176.266 16.8782 179.191 13.566 181.573C11.5263 174.732 10.5787 167.628 8.55706 160.786C7.9253 158.258 6.86035 155.848 6.32786 153.303C6.22858 152.22 6.1924 151.046 6.69781 150.063C6.77002 149.936 7.07692 149.548 6.74298 149.972C7.93431 148.736 6.14734 147.716 6.08416 146.425C5.99391 145.613 6.14731 144.773 6.61662 144.096C6.67979 143.997 6.90542 143.717 6.61662 144.087C7.32961 143.347 7.04081 142.092 6.05706 141.776C6.12926 141.803 6.20145 141.84 6.27366 141.867C6.15633 141.803 6.02095 141.749 5.93069 141.659C5.96679 141.731 5.8044 141.515 5.7683 141.488C5.79538 141.515 5.81338 141.533 5.83143 141.551C5.34407 140.946 6.03898 140.296 5.80433 139.637C5.71407 139.312 5.4614 138.96 5.16357 138.798C2.43796 137.742 2.33865 142.147 3.78269 143.455C2.96139 145.206 3.11479 147.391 4.08951 149.043C2.90721 151.669 3.55704 154.684 4.54981 157.257C5.24475 159.387 5.8766 161.544 6.44519 163.719C8.22316 170.137 9.07148 176.79 11.1383 183.126C9.64007 183.974 8.03353 184.669 6.34582 185.021C4.5859 185.536 5.29895 188.136 7.08595 187.72C8.63828 187.395 10.1364 186.791 11.5534 186.078C15.9577 183.776 19.7934 180.418 22.8801 176.546C23.8638 175.291 24.7934 173.982 25.4974 172.538C25.8765 171.879 25.6688 170.977 25.001 170.616Z" fill="#231815"/>
<path d="M5.86753 141.596C5.88557 141.614 5.89452 141.623 5.91256 141.641C5.89452 141.623 5.86748 141.587 5.81335 141.533C5.83139 141.56 5.84949 141.578 5.86753 141.596Z" fill="#231815"/>
<path d="M166.561 164.315L158.412 161.932L144.775 161.075L146.399 170.291L139.558 185.554C139.558 185.554 144.197 193.759 150.605 195.014L160.325 171.726C160.325 171.717 165.036 167.041 166.561 164.315Z" fill="white"/>
<path d="M161.092 169.289C160.28 170.11 159.612 171.085 158.998 172.06C158.366 173.071 157.798 174.118 157.256 175.183C156.561 176.546 155.948 177.936 155.397 179.362C154.125 182.711 152.978 186.105 151.769 189.481C151.218 191.024 150.668 192.577 150.036 194.093C150.081 193.985 150.127 193.867 150.181 193.759C150.099 193.94 150.027 194.12 149.937 194.301C149.775 194.653 149.693 194.996 149.793 195.384C149.883 195.709 150.135 196.061 150.433 196.223C151.056 196.548 152.022 196.431 152.347 195.718C153.276 193.741 153.962 191.638 154.693 189.58C155.614 186.998 156.507 184.417 157.446 181.844C157.834 180.77 158.231 179.696 158.673 178.64C158.628 178.748 158.583 178.866 158.529 178.974C158.908 178.071 159.35 177.196 159.801 176.329C160.451 175.075 161.137 173.829 161.931 172.665C162.04 172.511 162.148 172.358 162.256 172.204C162.31 172.132 162.356 172.069 162.41 171.997C162.509 171.861 162.202 172.258 162.311 172.132C162.347 172.087 162.374 172.051 162.41 172.006C162.617 171.753 162.825 171.509 163.06 171.274C163.574 170.751 163.619 169.803 163.06 169.298C162.518 168.783 161.643 168.738 161.092 169.289Z" fill="#231815"/>
<path d="M143.421 171.347C142.915 173.892 142.085 176.383 141.164 178.802C140.894 179.506 140.614 180.201 140.325 180.897C140.37 180.788 140.415 180.671 140.47 180.563C139.892 181.926 139.278 183.288 138.538 184.57C138.168 185.202 138.376 186.132 139.044 186.484C139.711 186.836 140.569 186.655 140.957 185.978C141.868 184.417 142.59 182.738 143.267 181.059C144.053 179.145 144.747 177.196 145.334 175.219C145.641 174.19 145.912 173.143 146.119 172.087C146.192 171.717 146.173 171.347 145.975 171.004C145.803 170.715 145.469 170.435 145.136 170.363C144.45 170.209 143.574 170.579 143.421 171.347Z" fill="#231815"/>
<path d="M138.033 185.753C138.006 185.735 137.78 185.536 137.906 185.662C137.933 185.69 137.97 185.726 138.006 185.753C138.024 185.771 138.069 185.843 138.096 185.852C138.06 185.843 137.879 185.545 138.015 185.744C138.114 185.888 138.195 186.051 138.267 186.213C138.222 186.105 138.177 185.987 138.123 185.879C138.421 186.601 138.592 187.377 139.035 188.036C139.558 188.813 140.253 189.508 140.894 190.185C142.085 191.421 143.358 192.586 144.702 193.651C147.248 195.655 150.497 197.658 153.881 197.018C154.711 196.864 155.469 196.458 156.101 195.907C156.787 195.312 157.238 194.463 157.509 193.606C157.735 192.911 157.247 192.044 156.534 191.881C155.767 191.71 155.045 192.116 154.811 192.856C154.765 193.01 154.711 193.163 154.648 193.308C154.693 193.199 154.739 193.082 154.793 192.974C154.711 193.163 154.612 193.353 154.495 193.533C154.459 193.588 154.423 193.633 154.395 193.678C154.287 193.831 154.495 193.533 154.504 193.533C154.486 193.533 154.314 193.75 154.296 193.768C154.233 193.831 154.161 193.894 154.089 193.958C153.998 194.03 153.863 194.084 154.215 193.858C154.179 193.885 154.143 193.912 154.098 193.94C153.935 194.048 153.764 194.138 153.592 194.219C153.701 194.174 153.818 194.129 153.926 194.075C153.61 194.21 153.285 194.292 152.951 194.346C153.078 194.328 153.195 194.31 153.322 194.292C152.834 194.355 152.356 194.346 151.868 194.283C151.995 194.301 152.112 194.319 152.238 194.337C151.426 194.228 150.641 193.985 149.892 193.669C150 193.714 150.118 193.759 150.226 193.813C149.495 193.497 148.8 193.118 148.132 192.694C147.798 192.477 147.464 192.252 147.148 192.017C146.995 191.909 146.85 191.791 146.697 191.683C147.049 191.945 146.742 191.719 146.67 191.656C146.589 191.593 146.507 191.52 146.417 191.457C145.081 190.383 143.827 189.21 142.654 187.964C142.32 187.612 141.995 187.251 141.67 186.881C141.598 186.791 141.526 186.709 141.444 186.619C141.372 186.538 141.363 186.439 141.526 186.727C141.498 186.682 141.471 186.646 141.444 186.61C141.327 186.43 141.237 186.24 141.147 186.051C141.192 186.159 141.237 186.276 141.291 186.384C141.074 185.87 140.921 185.337 140.695 184.823C140.425 184.209 140 183.758 139.468 183.361C139.197 183.153 138.701 183.135 138.385 183.216C138.06 183.306 137.708 183.559 137.545 183.857C137.374 184.182 137.284 184.579 137.401 184.94C137.509 185.283 137.717 185.518 138.033 185.753Z" fill="#231815"/>
<path d="M142.825 160.461C142.726 162.158 142.897 163.882 143.303 165.534C143.71 167.167 144.459 168.648 145.108 170.182C145.063 170.074 145.018 169.957 144.964 169.848C145.253 170.543 145.506 171.256 145.614 172.006C145.596 171.879 145.578 171.762 145.56 171.636C145.614 172.051 145.623 172.475 145.569 172.89C145.587 172.764 145.605 172.646 145.623 172.52C145.614 172.601 145.596 172.683 145.578 172.755C145.506 173.125 145.524 173.495 145.722 173.838C145.894 174.127 146.228 174.407 146.562 174.479C147.257 174.632 148.132 174.271 148.285 173.504C148.52 172.285 148.385 171.076 147.979 169.911C147.599 168.819 147.076 167.799 146.625 166.734C146.67 166.842 146.715 166.96 146.769 167.068C146.237 165.795 145.876 164.469 145.686 163.097C145.704 163.223 145.722 163.34 145.74 163.467C145.605 162.474 145.569 161.463 145.632 160.461C145.677 159.73 144.955 159.026 144.233 159.062C143.43 159.098 142.87 159.676 142.825 160.461Z" fill="#231815"/>
<path d="M167.888 147.553L122.934 145.468C122.934 145.468 112.374 152.355 111.327 157.329C110.28 162.302 116.697 161.355 116.697 161.355L152.32 161.589C152.32 161.589 154.287 161.869 156.95 158.295C159.612 154.738 167.888 147.553 167.888 147.553Z" fill="white"/>
<path d="M123.556 145.567L167.888 147.553C168.186 147.571 168.448 147.337 168.475 147.039L169.946 125.502C170.045 124.076 168.953 122.803 167.509 122.659L128.313 118.606C126.571 118.425 125.045 119.554 124.919 121.124L122.943 144.945C122.907 145.27 123.186 145.549 123.556 145.567Z" fill="white"/>
<mask id="mask0_15_62253" style="mask-type:luminance" maskUnits="userSpaceOnUse" x="111" y="119" width="60" height="44">
<path d="M168.069 123.426L128.872 119.373C127.13 119.193 125.605 120.321 125.479 121.891L123.502 145.712C123.484 145.947 123.619 146.163 123.836 146.263L123.493 146.244C123.493 146.244 112.934 153.132 111.887 158.105C110.84 163.079 117.257 162.131 117.257 162.131L152.879 162.365C152.879 162.365 154.847 162.645 157.509 159.071C160.172 155.505 168.448 148.32 168.448 148.32C168.746 148.338 169.007 148.104 169.034 147.806L170.505 126.269C170.596 124.852 169.513 123.57 168.069 123.426Z" fill="white"/>
</mask>
<g mask="url(#mask0_15_62253)">
<path d="M111.3 121.711C111.708 121.711 112.039 121.379 112.039 120.971C112.039 120.562 111.708 120.23 111.3 120.23C110.891 120.23 110.56 120.562 110.56 120.971C110.56 121.379 110.891 121.711 111.3 121.711Z" fill="#E59816"/>
<path d="M114.54 120.213C114.948 120.213 115.279 119.881 115.279 119.472C115.279 119.064 114.948 118.732 114.54 118.732C114.131 118.732 113.8 119.064 113.8 119.472C113.8 119.881 114.131 120.213 114.54 120.213Z" fill="#E59816"/>
<path d="M112.843 125.042C113.251 125.042 113.583 124.71 113.583 124.301C113.583 123.893 113.251 123.561 112.843 123.561C112.434 123.561 112.103 123.893 112.103 124.301C112.103 124.71 112.434 125.042 112.843 125.042Z" fill="#E59816"/>
<path d="M116.083 123.543C116.492 123.543 116.823 123.212 116.823 122.803C116.823 122.394 116.492 122.063 116.083 122.063C115.675 122.063 115.343 122.394 115.343 122.803C115.343 123.212 115.675 123.543 116.083 123.543Z" fill="#E59816"/>
<path d="M119.323 122.045C119.732 122.045 120.063 121.713 120.063 121.305C120.063 120.896 119.732 120.564 119.323 120.564C118.915 120.564 118.583 120.896 118.583 121.305C118.583 121.713 118.915 122.045 119.323 122.045Z" fill="#E59816"/>
<path d="M122.563 120.547C122.972 120.547 123.303 120.215 123.303 119.806C123.303 119.398 122.972 119.066 122.563 119.066C122.155 119.066 121.823 119.398 121.823 119.806C121.823 120.215 122.155 120.547 122.563 120.547Z" fill="#E59816"/>
<path d="M111.137 129.871C111.546 129.871 111.877 129.539 111.877 129.131C111.877 128.722 111.546 128.39 111.137 128.39C110.729 128.39 110.397 128.722 110.397 129.131C110.397 129.539 110.729 129.871 111.137 129.871Z" fill="#E59816"/>
<path d="M114.377 128.372C114.786 128.372 115.117 128.041 115.117 127.632C115.117 127.223 114.786 126.892 114.377 126.892C113.969 126.892 113.638 127.223 113.638 127.632C113.638 128.041 113.969 128.372 114.377 128.372Z" fill="#E59816"/>
<path d="M117.626 126.874C118.035 126.874 118.366 126.543 118.366 126.134C118.366 125.725 118.035 125.394 117.626 125.394C117.218 125.394 116.887 125.725 116.887 126.134C116.887 126.543 117.218 126.874 117.626 126.874Z" fill="#E59816"/>
<path d="M120.866 125.376C121.275 125.376 121.606 125.044 121.606 124.635C121.606 124.227 121.275 123.895 120.866 123.895C120.458 123.895 120.127 124.227 120.127 124.635C120.127 125.044 120.458 125.376 120.866 125.376Z" fill="#E59816"/>
<path d="M124.106 123.877C124.515 123.877 124.846 123.546 124.846 123.137C124.846 122.728 124.515 122.397 124.106 122.397C123.698 122.397 123.367 122.728 123.367 123.137C123.367 123.546 123.698 123.877 124.106 123.877Z" fill="#E59816"/>
<path d="M127.346 122.379C127.755 122.379 128.086 122.047 128.086 121.639C128.086 121.23 127.755 120.899 127.346 120.899C126.938 120.899 126.607 121.23 126.607 121.639C126.607 122.047 126.938 122.379 127.346 122.379Z" fill="#E59816"/>
<path d="M130.586 120.88C130.995 120.88 131.326 120.549 131.326 120.14C131.326 119.731 130.995 119.4 130.586 119.4C130.178 119.4 129.847 119.731 129.847 120.14C129.847 120.549 130.178 120.88 130.586 120.88Z" fill="#E59816"/>
<path d="M133.826 119.382C134.235 119.382 134.566 119.051 134.566 118.642C134.566 118.233 134.235 117.902 133.826 117.902C133.418 117.902 133.087 118.233 133.087 118.642C133.087 119.051 133.418 119.382 133.826 119.382Z" fill="#E59816"/>
<path d="M112.68 133.201C113.089 133.201 113.42 132.87 113.42 132.461C113.42 132.052 113.089 131.721 112.68 131.721C112.272 131.721 111.941 132.052 111.941 132.461C111.941 132.87 112.272 133.201 112.68 133.201Z" fill="#E59816"/>
<path d="M115.921 131.703C116.329 131.703 116.66 131.372 116.66 130.963C116.66 130.554 116.329 130.223 115.921 130.223C115.512 130.223 115.181 130.554 115.181 130.963C115.181 131.372 115.512 131.703 115.921 131.703Z" fill="#E59816"/>
<path d="M119.161 130.205C119.569 130.205 119.9 129.873 119.9 129.465C119.9 129.056 119.569 128.724 119.161 128.724C118.752 128.724 118.421 129.056 118.421 129.465C118.421 129.873 118.752 130.205 119.161 130.205Z" fill="#E59816"/>
<path d="M122.401 128.706C122.809 128.706 123.14 128.375 123.14 127.966C123.14 127.557 122.809 127.226 122.401 127.226C121.992 127.226 121.661 127.557 121.661 127.966C121.661 128.375 121.992 128.706 122.401 128.706Z" fill="#E59816"/>
<path d="M125.641 127.208C126.049 127.208 126.38 126.876 126.38 126.468C126.38 126.059 126.049 125.728 125.641 125.728C125.232 125.728 124.901 126.059 124.901 126.468C124.901 126.876 125.232 127.208 125.641 127.208Z" fill="#E59816"/>
<path d="M128.881 125.71C129.289 125.71 129.62 125.378 129.62 124.969C129.62 124.561 129.289 124.229 128.881 124.229C128.472 124.229 128.141 124.561 128.141 124.969C128.141 125.378 128.472 125.71 128.881 125.71Z" fill="#E59816"/>
<path d="M132.13 124.211C132.538 124.211 132.869 123.88 132.869 123.471C132.869 123.062 132.538 122.731 132.13 122.731C131.721 122.731 131.39 123.062 131.39 123.471C131.39 123.88 131.721 124.211 132.13 124.211Z" fill="#E59816"/>
<path d="M135.37 122.713C135.778 122.713 136.109 122.381 136.109 121.973C136.109 121.564 135.778 121.233 135.37 121.233C134.961 121.233 134.63 121.564 134.63 121.973C134.63 122.381 134.961 122.713 135.37 122.713Z" fill="#E59816"/>
<path d="M138.61 121.223C139.018 121.223 139.35 120.892 139.35 120.483C139.35 120.074 139.018 119.743 138.61 119.743C138.201 119.743 137.87 120.074 137.87 120.483C137.87 120.892 138.201 121.223 138.61 121.223Z" fill="#E59816"/>
<path d="M141.85 119.725C142.258 119.725 142.59 119.394 142.59 118.985C142.59 118.576 142.258 118.245 141.85 118.245C141.441 118.245 141.11 118.576 141.11 118.985C141.11 119.394 141.441 119.725 141.85 119.725Z" fill="#E59816"/>
<path d="M114.215 136.532C114.623 136.532 114.954 136.201 114.954 135.792C114.954 135.383 114.623 135.052 114.215 135.052C113.806 135.052 113.475 135.383 113.475 135.792C113.475 136.201 113.806 136.532 114.215 136.532Z" fill="#E59816"/>
<path d="M117.455 135.034C117.863 135.034 118.194 134.702 118.194 134.294C118.194 133.885 117.863 133.553 117.455 133.553C117.046 133.553 116.715 133.885 116.715 134.294C116.715 134.702 117.046 135.034 117.455 135.034Z" fill="#E59816"/>
<path d="M120.704 133.535C121.112 133.535 121.443 133.204 121.443 132.795C121.443 132.386 121.112 132.055 120.704 132.055C120.295 132.055 119.964 132.386 119.964 132.795C119.964 133.204 120.295 133.535 120.704 133.535Z" fill="#E59816"/>
<path d="M123.944 132.037C124.352 132.037 124.684 131.706 124.684 131.297C124.684 130.888 124.352 130.557 123.944 130.557C123.535 130.557 123.204 130.888 123.204 131.297C123.204 131.706 123.535 132.037 123.944 132.037Z" fill="#E59816"/>
<path d="M127.184 130.539C127.592 130.539 127.924 130.207 127.924 129.798C127.924 129.39 127.592 129.058 127.184 129.058C126.775 129.058 126.444 129.39 126.444 129.798C126.444 130.207 126.775 130.539 127.184 130.539Z" fill="#E59816"/>
<path d="M130.424 129.04C130.833 129.04 131.164 128.709 131.164 128.3C131.164 127.891 130.833 127.56 130.424 127.56C130.016 127.56 129.684 127.891 129.684 128.3C129.684 128.709 130.016 129.04 130.424 129.04Z" fill="#E59816"/>
<path d="M133.664 127.542C134.073 127.542 134.404 127.21 134.404 126.802C134.404 126.393 134.073 126.062 133.664 126.062C133.256 126.062 132.924 126.393 132.924 126.802C132.924 127.21 133.256 127.542 133.664 127.542Z" fill="#E59816"/>
<path d="M136.904 126.043C137.313 126.043 137.644 125.712 137.644 125.303C137.644 124.894 137.313 124.563 136.904 124.563C136.496 124.563 136.164 124.894 136.164 125.303C136.164 125.712 136.496 126.043 136.904 126.043Z" fill="#E59816"/>
<path d="M140.144 124.554C140.553 124.554 140.884 124.223 140.884 123.814C140.884 123.405 140.553 123.074 140.144 123.074C139.736 123.074 139.405 123.405 139.405 123.814C139.405 124.223 139.736 124.554 140.144 124.554Z" fill="#E59816"/>
<path d="M143.393 123.056C143.802 123.056 144.133 122.724 144.133 122.316C144.133 121.907 143.802 121.576 143.393 121.576C142.985 121.576 142.654 121.907 142.654 122.316C142.654 122.724 142.985 123.056 143.393 123.056Z" fill="#E59816"/>
<path d="M146.633 121.557C147.042 121.557 147.373 121.226 147.373 120.817C147.373 120.408 147.042 120.077 146.633 120.077C146.225 120.077 145.894 120.408 145.894 120.817C145.894 121.226 146.225 121.557 146.633 121.557Z" fill="#E59816"/>
<path d="M149.873 120.059C150.282 120.059 150.613 119.728 150.613 119.319C150.613 118.91 150.282 118.579 149.873 118.579C149.465 118.579 149.134 118.91 149.134 119.319C149.134 119.728 149.465 120.059 149.873 120.059Z" fill="#E59816"/>
<path d="M112.518 141.361C112.926 141.361 113.258 141.03 113.258 140.621C113.258 140.212 112.926 139.881 112.518 139.881C112.109 139.881 111.778 140.212 111.778 140.621C111.778 141.03 112.109 141.361 112.518 141.361Z" fill="#E59816"/>
<path d="M115.758 139.863C116.167 139.863 116.498 139.531 116.498 139.123C116.498 138.714 116.167 138.383 115.758 138.383C115.35 138.383 115.018 138.714 115.018 139.123C115.018 139.531 115.35 139.863 115.758 139.863Z" fill="#E59816"/>
<path d="M118.998 138.364C119.407 138.364 119.738 138.033 119.738 137.624C119.738 137.215 119.407 136.884 118.998 136.884C118.59 136.884 118.258 137.215 118.258 137.624C118.258 138.033 118.59 138.364 118.998 138.364Z" fill="#E59816"/>
<path d="M122.238 136.866C122.647 136.866 122.978 136.535 122.978 136.126C122.978 135.717 122.647 135.386 122.238 135.386C121.83 135.386 121.499 135.717 121.499 136.126C121.499 136.535 121.83 136.866 122.238 136.866Z" fill="#E59816"/>
<path d="M125.478 135.368C125.887 135.368 126.218 135.036 126.218 134.628C126.218 134.219 125.887 133.887 125.478 133.887C125.07 133.887 124.739 134.219 124.739 134.628C124.739 135.036 125.07 135.368 125.478 135.368Z" fill="#E59816"/>
<path d="M128.718 133.869C129.127 133.869 129.458 133.538 129.458 133.129C129.458 132.72 129.127 132.389 128.718 132.389C128.31 132.389 127.979 132.72 127.979 133.129C127.979 133.538 128.31 133.869 128.718 133.869Z" fill="#E59816"/>
<path d="M131.967 132.371C132.376 132.371 132.707 132.04 132.707 131.631C132.707 131.222 132.376 130.891 131.967 130.891C131.559 130.891 131.228 131.222 131.228 131.631C131.228 132.04 131.559 132.371 131.967 132.371Z" fill="#E59816"/>
<path d="M135.207 130.873C135.616 130.873 135.947 130.541 135.947 130.132C135.947 129.724 135.616 129.392 135.207 129.392C134.799 129.392 134.468 129.724 134.468 130.132C134.468 130.541 134.799 130.873 135.207 130.873Z" fill="#E59816"/>
<path d="M138.447 129.374C138.856 129.374 139.187 129.043 139.187 128.634C139.187 128.225 138.856 127.894 138.447 127.894C138.039 127.894 137.708 128.225 137.708 128.634C137.708 129.043 138.039 129.374 138.447 129.374Z" fill="#E59816"/>
<path d="M141.687 127.876C142.096 127.876 142.427 127.544 142.427 127.136C142.427 126.727 142.096 126.396 141.687 126.396C141.279 126.396 140.948 126.727 140.948 127.136C140.948 127.544 141.279 127.876 141.687 127.876Z" fill="#E59816"/>
<path d="M144.928 126.387C145.336 126.387 145.667 126.055 145.667 125.646C145.667 125.238 145.336 124.906 144.928 124.906C144.519 124.906 144.188 125.238 144.188 125.646C144.188 126.055 144.519 126.387 144.928 126.387Z" fill="#E59816"/>
<path d="M148.168 124.888C148.576 124.888 148.907 124.557 148.907 124.148C148.907 123.739 148.576 123.408 148.168 123.408C147.759 123.408 147.428 123.739 147.428 124.148C147.428 124.557 147.759 124.888 148.168 124.888Z" fill="#E59816"/>
<path d="M151.408 123.39C151.816 123.39 152.147 123.058 152.147 122.65C152.147 122.241 151.816 121.909 151.408 121.909C150.999 121.909 150.668 122.241 150.668 122.65C150.668 123.058 150.999 123.39 151.408 123.39Z" fill="#E59816"/>
<path d="M154.657 121.891C155.065 121.891 155.396 121.56 155.396 121.151C155.396 120.742 155.065 120.411 154.657 120.411C154.248 120.411 153.917 120.742 153.917 121.151C153.917 121.56 154.248 121.891 154.657 121.891Z" fill="#E59816"/>
<path d="M157.897 120.393C158.305 120.393 158.636 120.062 158.636 119.653C158.636 119.244 158.305 118.913 157.897 118.913C157.488 118.913 157.157 119.244 157.157 119.653C157.157 120.062 157.488 120.393 157.897 120.393Z" fill="#E59816"/>
<path d="M114.052 144.692C114.461 144.692 114.792 144.36 114.792 143.952C114.792 143.543 114.461 143.212 114.052 143.212C113.644 143.212 113.313 143.543 113.313 143.952C113.313 144.36 113.644 144.692 114.052 144.692Z" fill="#E59816"/>
<path d="M117.292 143.194C117.701 143.194 118.032 142.862 118.032 142.453C118.032 142.045 117.701 141.713 117.292 141.713C116.884 141.713 116.553 142.045 116.553 142.453C116.553 142.862 116.884 143.194 117.292 143.194Z" fill="#E59816"/>
<path d="M120.541 141.695C120.95 141.695 121.281 141.364 121.281 140.955C121.281 140.546 120.95 140.215 120.541 140.215C120.133 140.215 119.802 140.546 119.802 140.955C119.802 141.364 120.133 141.695 120.541 141.695Z" fill="#E59816"/>
<path d="M123.782 140.197C124.19 140.197 124.521 139.865 124.521 139.457C124.521 139.048 124.19 138.716 123.782 138.716C123.373 138.716 123.042 139.048 123.042 139.457C123.042 139.865 123.373 140.197 123.782 140.197Z" fill="#E59816"/>
<path d="M127.022 138.698C127.43 138.698 127.761 138.367 127.761 137.958C127.761 137.549 127.43 137.218 127.022 137.218C126.613 137.218 126.282 137.549 126.282 137.958C126.282 138.367 126.613 138.698 127.022 138.698Z" fill="#E59816"/>
<path d="M130.262 137.2C130.67 137.2 131.001 136.869 131.001 136.46C131.001 136.051 130.67 135.72 130.262 135.72C129.853 135.72 129.522 136.051 129.522 136.46C129.522 136.869 129.853 137.2 130.262 137.2Z" fill="#E59816"/>
<path d="M133.502 135.702C133.91 135.702 134.241 135.37 134.241 134.962C134.241 134.553 133.91 134.221 133.502 134.221C133.093 134.221 132.762 134.553 132.762 134.962C132.762 135.37 133.093 135.702 133.502 135.702Z" fill="#E59816"/>
<path d="M136.742 134.203C137.15 134.203 137.481 133.872 137.481 133.463C137.481 133.054 137.15 132.723 136.742 132.723C136.333 132.723 136.002 133.054 136.002 133.463C136.002 133.872 136.333 134.203 136.742 134.203Z" fill="#E59816"/>
<path d="M139.982 132.705C140.39 132.705 140.721 132.373 140.721 131.965C140.721 131.556 140.39 131.225 139.982 131.225C139.573 131.225 139.242 131.556 139.242 131.965C139.242 132.373 139.573 132.705 139.982 132.705Z" fill="#E59816"/>
<path d="M143.231 131.207C143.639 131.207 143.97 130.875 143.97 130.466C143.97 130.058 143.639 129.726 143.231 129.726C142.822 129.726 142.491 130.058 142.491 130.466C142.491 130.875 142.822 131.207 143.231 131.207Z" fill="#E59816"/>
<path d="M146.471 129.717C146.879 129.717 147.211 129.386 147.211 128.977C147.211 128.568 146.879 128.237 146.471 128.237C146.062 128.237 145.731 128.568 145.731 128.977C145.731 129.386 146.062 129.717 146.471 129.717Z" fill="#E59816"/>
<path d="M149.711 128.219C150.119 128.219 150.451 127.887 150.451 127.479C150.451 127.07 150.119 126.739 149.711 126.739C149.302 126.739 148.971 127.07 148.971 127.479C148.971 127.887 149.302 128.219 149.711 128.219Z" fill="#E59816"/>
<path d="M152.951 126.72C153.359 126.72 153.691 126.389 153.691 125.98C153.691 125.571 153.359 125.24 152.951 125.24C152.542 125.24 152.211 125.571 152.211 125.98C152.211 126.389 152.542 126.72 152.951 126.72Z" fill="#E59816"/>
<path d="M156.191 125.222C156.599 125.222 156.931 124.891 156.931 124.482C156.931 124.073 156.599 123.742 156.191 123.742C155.782 123.742 155.451 124.073 155.451 124.482C155.451 124.891 155.782 125.222 156.191 125.222Z" fill="#E59816"/>
<path d="M159.431 123.724C159.84 123.724 160.171 123.392 160.171 122.984C160.171 122.575 159.84 122.243 159.431 122.243C159.023 122.243 158.691 122.575 158.691 122.984C158.691 123.392 159.023 123.724 159.431 123.724Z" fill="#E59816"/>
<path d="M162.671 122.225C163.08 122.225 163.411 121.894 163.411 121.485C163.411 121.076 163.08 120.745 162.671 120.745C162.263 120.745 161.931 121.076 161.931 121.485C161.931 121.894 162.263 122.225 162.671 122.225Z" fill="#E59816"/>
<path d="M165.911 120.727C166.32 120.727 166.651 120.396 166.651 119.987C166.651 119.578 166.32 119.247 165.911 119.247C165.503 119.247 165.172 119.578 165.172 119.987C165.172 120.396 165.503 120.727 165.911 120.727Z" fill="#E59816"/>
<path d="M112.356 149.521C112.764 149.521 113.095 149.19 113.095 148.781C113.095 148.372 112.764 148.041 112.356 148.041C111.947 148.041 111.616 148.372 111.616 148.781C111.616 149.19 111.947 149.521 112.356 149.521Z" fill="#E59816"/>
<path d="M115.596 148.023C116.004 148.023 116.335 147.691 116.335 147.282C116.335 146.874 116.004 146.542 115.596 146.542C115.187 146.542 114.856 146.874 114.856 147.282C114.856 147.691 115.187 148.023 115.596 148.023Z" fill="#E59816"/>
<path d="M118.836 146.524C119.244 146.524 119.575 146.193 119.575 145.784C119.575 145.375 119.244 145.044 118.836 145.044C118.427 145.044 118.096 145.375 118.096 145.784C118.096 146.193 118.427 146.524 118.836 146.524Z" fill="#E59816"/>
<path d="M122.076 145.026C122.484 145.026 122.815 144.694 122.815 144.286C122.815 143.877 122.484 143.546 122.076 143.546C121.667 143.546 121.336 143.877 121.336 144.286C121.336 144.694 121.667 145.026 122.076 145.026Z" fill="#E59816"/>
<path d="M125.316 143.528C125.724 143.528 126.055 143.196 126.055 142.787C126.055 142.379 125.724 142.047 125.316 142.047C124.907 142.047 124.576 142.379 124.576 142.787C124.576 143.196 124.907 143.528 125.316 143.528Z" fill="#E59816"/>
<path d="M128.556 142.029C128.964 142.029 129.295 141.698 129.295 141.289C129.295 140.88 128.964 140.549 128.556 140.549C128.147 140.549 127.816 140.88 127.816 141.289C127.816 141.698 128.147 142.029 128.556 142.029Z" fill="#E59816"/>
<path d="M131.805 140.531C132.213 140.531 132.545 140.199 132.545 139.791C132.545 139.382 132.213 139.05 131.805 139.05C131.396 139.05 131.065 139.382 131.065 139.791C131.065 140.199 131.396 140.531 131.805 140.531Z" fill="#E59816"/>
<path d="M135.045 139.032C135.453 139.032 135.785 138.701 135.785 138.292C135.785 137.883 135.453 137.552 135.045 137.552C134.636 137.552 134.305 137.883 134.305 138.292C134.305 138.701 134.636 139.032 135.045 139.032Z" fill="#E59816"/>
<path d="M138.285 137.534C138.693 137.534 139.025 137.203 139.025 136.794C139.025 136.385 138.693 136.054 138.285 136.054C137.876 136.054 137.545 136.385 137.545 136.794C137.545 137.203 137.876 137.534 138.285 137.534Z" fill="#E59816"/>
<path d="M141.525 136.036C141.934 136.036 142.265 135.704 142.265 135.295C142.265 134.887 141.934 134.555 141.525 134.555C141.117 134.555 140.785 134.887 140.785 135.295C140.785 135.704 141.117 136.036 141.525 136.036Z" fill="#E59816"/>
<path d="M144.765 134.537C145.174 134.537 145.505 134.206 145.505 133.797C145.505 133.388 145.174 133.057 144.765 133.057C144.357 133.057 144.025 133.388 144.025 133.797C144.025 134.206 144.357 134.537 144.765 134.537Z" fill="#E59816"/>
<path d="M148.005 133.048C148.414 133.048 148.745 132.717 148.745 132.308C148.745 131.899 148.414 131.568 148.005 131.568C147.597 131.568 147.265 131.899 147.265 132.308C147.265 132.717 147.597 133.048 148.005 133.048Z" fill="#E59816"/>
<path d="M151.245 131.55C151.654 131.55 151.985 131.218 151.985 130.809C151.985 130.401 151.654 130.069 151.245 130.069C150.837 130.069 150.506 130.401 150.506 130.809C150.506 131.218 150.837 131.55 151.245 131.55Z" fill="#E59816"/>
<path d="M154.485 130.051C154.894 130.051 155.225 129.72 155.225 129.311C155.225 128.902 154.894 128.571 154.485 128.571C154.077 128.571 153.746 128.902 153.746 129.311C153.746 129.72 154.077 130.051 154.485 130.051Z" fill="#E59816"/>
<path d="M157.734 128.553C158.143 128.553 158.474 128.221 158.474 127.813C158.474 127.404 158.143 127.073 157.734 127.073C157.326 127.073 156.995 127.404 156.995 127.813C156.995 128.221 157.326 128.553 157.734 128.553Z" fill="#E59816"/>
<path d="M160.974 127.054C161.383 127.054 161.714 126.723 161.714 126.314C161.714 125.906 161.383 125.574 160.974 125.574C160.566 125.574 160.235 125.906 160.235 126.314C160.235 126.723 160.566 127.054 160.974 127.054Z" fill="#E59816"/>
<path d="M164.214 125.556C164.623 125.556 164.954 125.225 164.954 124.816C164.954 124.407 164.623 124.076 164.214 124.076C163.806 124.076 163.475 124.407 163.475 124.816C163.475 125.225 163.806 125.556 164.214 125.556Z" fill="#E59816"/>
<path d="M167.454 124.058C167.863 124.058 168.194 123.726 168.194 123.318C168.194 122.909 167.863 122.577 167.454 122.577C167.046 122.577 166.715 122.909 166.715 123.318C166.715 123.726 167.046 124.058 167.454 124.058Z" fill="#E59816"/>
<path d="M170.695 122.559C171.103 122.559 171.434 122.228 171.434 121.819C171.434 121.41 171.103 121.079 170.695 121.079C170.286 121.079 169.955 121.41 169.955 121.819C169.955 122.228 170.286 122.559 170.695 122.559Z" fill="#E59816"/>
<path d="M113.89 152.852C114.298 152.852 114.63 152.52 114.63 152.112C114.63 151.703 114.298 151.371 113.89 151.371C113.481 151.371 113.15 151.703 113.15 152.112C113.15 152.52 113.481 152.852 113.89 152.852Z" fill="#E59816"/>
<path d="M117.13 151.353C117.538 151.353 117.87 151.022 117.87 150.613C117.87 150.204 117.538 149.873 117.13 149.873C116.721 149.873 116.39 150.204 116.39 150.613C116.39 151.022 116.721 151.353 117.13 151.353Z" fill="#E59816"/>
<path d="M120.379 149.855C120.787 149.855 121.119 149.524 121.119 149.115C121.119 148.706 120.787 148.375 120.379 148.375C119.97 148.375 119.639 148.706 119.639 149.115C119.639 149.524 119.97 149.855 120.379 149.855Z" fill="#E59816"/>
<path d="M123.619 148.357C124.028 148.357 124.359 148.025 124.359 147.616C124.359 147.208 124.028 146.876 123.619 146.876C123.211 146.876 122.879 147.208 122.879 147.616C122.879 148.025 123.211 148.357 123.619 148.357Z" fill="#E59816"/>
<path d="M126.859 146.858C127.268 146.858 127.599 146.527 127.599 146.118C127.599 145.709 127.268 145.378 126.859 145.378C126.451 145.378 126.119 145.709 126.119 146.118C126.119 146.527 126.451 146.858 126.859 146.858Z" fill="#E59816"/>
<path d="M130.099 145.36C130.508 145.36 130.839 145.028 130.839 144.62C130.839 144.211 130.508 143.88 130.099 143.88C129.691 143.88 129.359 144.211 129.359 144.62C129.359 145.028 129.691 145.36 130.099 145.36Z" fill="#E59816"/>
<path d="M133.339 143.861C133.748 143.861 134.079 143.53 134.079 143.121C134.079 142.713 133.748 142.381 133.339 142.381C132.931 142.381 132.599 142.713 132.599 143.121C132.599 143.53 132.931 143.861 133.339 143.861Z" fill="#E59816"/>
<path d="M136.579 142.363C136.988 142.363 137.319 142.032 137.319 141.623C137.319 141.214 136.988 140.883 136.579 140.883C136.171 140.883 135.84 141.214 135.84 141.623C135.84 142.032 136.171 142.363 136.579 142.363Z" fill="#E59816"/>
<path d="M139.819 140.865C140.228 140.865 140.559 140.533 140.559 140.125C140.559 139.716 140.228 139.384 139.819 139.384C139.411 139.384 139.08 139.716 139.08 140.125C139.08 140.533 139.411 140.865 139.819 140.865Z" fill="#E59816"/>
<path d="M143.059 139.366C143.468 139.366 143.799 139.035 143.799 138.626C143.799 138.217 143.468 137.886 143.059 137.886C142.651 137.886 142.32 138.217 142.32 138.626C142.32 139.035 142.651 139.366 143.059 139.366Z" fill="#E59816"/>
<path d="M146.308 137.868C146.717 137.868 147.048 137.537 147.048 137.128C147.048 136.719 146.717 136.388 146.308 136.388C145.9 136.388 145.569 136.719 145.569 137.128C145.569 137.537 145.9 137.868 146.308 137.868Z" fill="#E59816"/>
<path d="M149.548 136.379C149.957 136.379 150.288 136.047 150.288 135.639C150.288 135.23 149.957 134.898 149.548 134.898C149.14 134.898 148.809 135.23 148.809 135.639C148.809 136.047 149.14 136.379 149.548 136.379Z" fill="#E59816"/>
<path d="M152.788 134.88C153.197 134.88 153.528 134.549 153.528 134.14C153.528 133.731 153.197 133.4 152.788 133.4C152.38 133.4 152.049 133.731 152.049 134.14C152.049 134.549 152.38 134.88 152.788 134.88Z" fill="#E59816"/>
<path d="M156.029 133.382C156.437 133.382 156.768 133.05 156.768 132.642C156.768 132.233 156.437 131.902 156.029 131.902C155.62 131.902 155.289 132.233 155.289 132.642C155.289 133.05 155.62 133.382 156.029 133.382Z" fill="#E59816"/>
<path d="M159.269 131.884C159.677 131.884 160.008 131.552 160.008 131.143C160.008 130.735 159.677 130.403 159.269 130.403C158.86 130.403 158.529 130.735 158.529 131.143C158.529 131.552 158.86 131.884 159.269 131.884Z" fill="#E59816"/>
<path d="M162.509 130.385C162.917 130.385 163.248 130.054 163.248 129.645C163.248 129.236 162.917 128.905 162.509 128.905C162.1 128.905 161.769 129.236 161.769 129.645C161.769 130.054 162.1 130.385 162.509 130.385Z" fill="#E59816"/>
<path d="M165.749 128.887C166.157 128.887 166.488 128.555 166.488 128.147C166.488 127.738 166.157 127.406 165.749 127.406C165.34 127.406 165.009 127.738 165.009 128.147C165.009 128.555 165.34 128.887 165.749 128.887Z" fill="#E59816"/>
<path d="M168.998 127.388C169.406 127.388 169.737 127.057 169.737 126.648C169.737 126.24 169.406 125.908 168.998 125.908C168.589 125.908 168.258 126.24 168.258 126.648C168.258 127.057 168.589 127.388 168.998 127.388Z" fill="#E59816"/>
<path d="M112.193 157.681C112.602 157.681 112.933 157.349 112.933 156.941C112.933 156.532 112.602 156.201 112.193 156.201C111.785 156.201 111.453 156.532 111.453 156.941C111.453 157.349 111.785 157.681 112.193 157.681Z" fill="#E59816"/>
<path d="M115.433 156.182C115.842 156.182 116.173 155.851 116.173 155.442C116.173 155.033 115.842 154.702 115.433 154.702C115.025 154.702 114.693 155.033 114.693 155.442C114.693 155.851 115.025 156.182 115.433 156.182Z" fill="#E59816"/>
<path d="M118.673 154.684C119.082 154.684 119.413 154.353 119.413 153.944C119.413 153.535 119.082 153.204 118.673 153.204C118.265 153.204 117.934 153.535 117.934 153.944C117.934 154.353 118.265 154.684 118.673 154.684Z" fill="#E59816"/>
<path d="M121.913 153.186C122.322 153.186 122.653 152.854 122.653 152.446C122.653 152.037 122.322 151.705 121.913 151.705C121.505 151.705 121.174 152.037 121.174 152.446C121.174 152.854 121.505 153.186 121.913 153.186Z" fill="#E59816"/>
<path d="M125.153 151.687C125.562 151.687 125.893 151.356 125.893 150.947C125.893 150.538 125.562 150.207 125.153 150.207C124.745 150.207 124.414 150.538 124.414 150.947C124.414 151.356 124.745 151.687 125.153 151.687Z" fill="#E59816"/>
<path d="M128.393 150.189C128.802 150.189 129.133 149.857 129.133 149.449C129.133 149.04 128.802 148.709 128.393 148.709C127.985 148.709 127.654 149.04 127.654 149.449C127.654 149.857 127.985 150.189 128.393 150.189Z" fill="#E59816"/>
<path d="M131.633 148.691C132.042 148.691 132.373 148.359 132.373 147.95C132.373 147.542 132.042 147.21 131.633 147.21C131.225 147.21 130.894 147.542 130.894 147.95C130.894 148.359 131.225 148.691 131.633 148.691Z" fill="#E59816"/>
<path d="M134.882 147.192C135.291 147.192 135.622 146.861 135.622 146.452C135.622 146.043 135.291 145.712 134.882 145.712C134.474 145.712 134.143 146.043 134.143 146.452C134.143 146.861 134.474 147.192 134.882 147.192Z" fill="#E59816"/>
<path d="M138.122 145.694C138.531 145.694 138.862 145.362 138.862 144.954C138.862 144.545 138.531 144.214 138.122 144.214C137.714 144.214 137.383 144.545 137.383 144.954C137.383 145.362 137.714 145.694 138.122 145.694Z" fill="#E59816"/>
<path d="M141.363 144.195C141.771 144.195 142.102 143.864 142.102 143.455C142.102 143.047 141.771 142.715 141.363 142.715C140.954 142.715 140.623 143.047 140.623 143.455C140.623 143.864 140.954 144.195 141.363 144.195Z" fill="#E59816"/>
<path d="M144.603 142.697C145.011 142.697 145.342 142.366 145.342 141.957C145.342 141.548 145.011 141.217 144.603 141.217C144.194 141.217 143.863 141.548 143.863 141.957C143.863 142.366 144.194 142.697 144.603 142.697Z" fill="#E59816"/>
<path d="M147.843 141.199C148.251 141.199 148.582 140.867 148.582 140.459C148.582 140.05 148.251 139.718 147.843 139.718C147.434 139.718 147.103 140.05 147.103 140.459C147.103 140.867 147.434 141.199 147.843 141.199Z" fill="#E59816"/>
<path d="M151.083 139.709C151.491 139.709 151.822 139.378 151.822 138.969C151.822 138.56 151.491 138.229 151.083 138.229C150.674 138.229 150.343 138.56 150.343 138.969C150.343 139.378 150.674 139.709 151.083 139.709Z" fill="#E59816"/>
<path d="M154.323 138.211C154.731 138.211 155.062 137.88 155.062 137.471C155.062 137.062 154.731 136.731 154.323 136.731C153.914 136.731 153.583 137.062 153.583 137.471C153.583 137.88 153.914 138.211 154.323 138.211Z" fill="#E59816"/>
<path d="M157.572 136.713C157.98 136.713 158.311 136.381 158.311 135.972C158.311 135.564 157.98 135.232 157.572 135.232C157.163 135.232 156.832 135.564 156.832 135.972C156.832 136.381 157.163 136.713 157.572 136.713Z" fill="#E59816"/>
<path d="M160.812 135.214C161.22 135.214 161.552 134.883 161.552 134.474C161.552 134.065 161.22 133.734 160.812 133.734C160.403 133.734 160.072 134.065 160.072 134.474C160.072 134.883 160.403 135.214 160.812 135.214Z" fill="#E59816"/>
<path d="M164.052 133.716C164.46 133.716 164.792 133.384 164.792 132.976C164.792 132.567 164.46 132.236 164.052 132.236C163.644 132.236 163.312 132.567 163.312 132.976C163.312 133.384 163.644 133.716 164.052 133.716Z" fill="#E59816"/>
<path d="M167.292 132.217C167.701 132.217 168.032 131.886 168.032 131.477C168.032 131.069 167.701 130.737 167.292 130.737C166.884 130.737 166.552 131.069 166.552 131.477C166.552 131.886 166.884 132.217 167.292 132.217Z" fill="#E59816"/>
<path d="M170.532 130.719C170.941 130.719 171.272 130.388 171.272 129.979C171.272 129.57 170.941 129.239 170.532 129.239C170.124 129.239 169.792 129.57 169.792 129.979C169.792 130.388 170.124 130.719 170.532 130.719Z" fill="#E59816"/>
<path d="M113.727 161.011C114.136 161.011 114.467 160.68 114.467 160.271C114.467 159.863 114.136 159.531 113.727 159.531C113.319 159.531 112.988 159.863 112.988 160.271C112.988 160.68 113.319 161.011 113.727 161.011Z" fill="#E59816"/>
<path d="M116.967 159.513C117.376 159.513 117.707 159.182 117.707 158.773C117.707 158.364 117.376 158.033 116.967 158.033C116.559 158.033 116.228 158.364 116.228 158.773C116.228 159.182 116.559 159.513 116.967 159.513Z" fill="#E59816"/>
<path d="M120.207 158.015C120.616 158.015 120.947 157.683 120.947 157.275C120.947 156.866 120.616 156.534 120.207 156.534C119.799 156.534 119.468 156.866 119.468 157.275C119.468 157.683 119.799 158.015 120.207 158.015Z" fill="#E59816"/>
<path d="M123.456 156.516C123.865 156.516 124.196 156.185 124.196 155.776C124.196 155.367 123.865 155.036 123.456 155.036C123.048 155.036 122.717 155.367 122.717 155.776C122.717 156.185 123.048 156.516 123.456 156.516Z" fill="#E59816"/>
<path d="M126.697 155.018C127.105 155.018 127.436 154.687 127.436 154.278C127.436 153.869 127.105 153.538 126.697 153.538C126.288 153.538 125.957 153.869 125.957 154.278C125.957 154.687 126.288 155.018 126.697 155.018Z" fill="#E59816"/>
<path d="M129.937 153.52C130.345 153.52 130.676 153.188 130.676 152.779C130.676 152.371 130.345 152.039 129.937 152.039C129.528 152.039 129.197 152.371 129.197 152.779C129.197 153.188 129.528 153.52 129.937 153.52Z" fill="#E59816"/>
<path d="M133.177 152.021C133.585 152.021 133.916 151.69 133.916 151.281C133.916 150.872 133.585 150.541 133.177 150.541C132.768 150.541 132.437 150.872 132.437 151.281C132.437 151.69 132.768 152.021 133.177 152.021Z" fill="#E59816"/>
<path d="M136.417 150.523C136.825 150.523 137.156 150.192 137.156 149.783C137.156 149.374 136.825 149.043 136.417 149.043C136.008 149.043 135.677 149.374 135.677 149.783C135.677 150.192 136.008 150.523 136.417 150.523Z" fill="#E59816"/>
<path d="M139.657 149.025C140.065 149.025 140.396 148.693 140.396 148.284C140.396 147.876 140.065 147.544 139.657 147.544C139.248 147.544 138.917 147.876 138.917 148.284C138.917 148.693 139.248 149.025 139.657 149.025Z" fill="#E59816"/>
<path d="M142.897 147.526C143.305 147.526 143.637 147.195 143.637 146.786C143.637 146.377 143.305 146.046 142.897 146.046C142.488 146.046 142.157 146.377 142.157 146.786C142.157 147.195 142.488 147.526 142.897 147.526Z" fill="#E59816"/>
<path d="M146.146 146.028C146.554 146.028 146.886 145.696 146.886 145.288C146.886 144.879 146.554 144.547 146.146 144.547C145.737 144.547 145.406 144.879 145.406 145.288C145.406 145.696 145.737 146.028 146.146 146.028Z" fill="#E59816"/>
<path d="M149.386 144.529C149.795 144.529 150.126 144.198 150.126 143.789C150.126 143.381 149.795 143.049 149.386 143.049C148.978 143.049 148.646 143.381 148.646 143.789C148.646 144.198 148.978 144.529 149.386 144.529Z" fill="#E59816"/>
<path d="M152.626 143.04C153.035 143.04 153.366 142.709 153.366 142.3C153.366 141.891 153.035 141.56 152.626 141.56C152.218 141.56 151.886 141.891 151.886 142.3C151.886 142.709 152.218 143.04 152.626 143.04Z" fill="#E59816"/>
<path d="M155.866 141.542C156.275 141.542 156.606 141.21 156.606 140.802C156.606 140.393 156.275 140.061 155.866 140.061C155.458 140.061 155.126 140.393 155.126 140.802C155.126 141.21 155.458 141.542 155.866 141.542Z" fill="#E59816"/>
<path d="M159.106 140.043C159.515 140.043 159.846 139.712 159.846 139.303C159.846 138.894 159.515 138.563 159.106 138.563C158.698 138.563 158.366 138.894 158.366 139.303C158.366 139.712 158.698 140.043 159.106 140.043Z" fill="#E59816"/>
<path d="M162.346 138.545C162.755 138.545 163.086 138.214 163.086 137.805C163.086 137.396 162.755 137.065 162.346 137.065C161.938 137.065 161.607 137.396 161.607 137.805C161.607 138.214 161.938 138.545 162.346 138.545Z" fill="#E59816"/>
<path d="M165.586 137.047C165.995 137.047 166.326 136.715 166.326 136.306C166.326 135.898 165.995 135.566 165.586 135.566C165.178 135.566 164.847 135.898 164.847 136.306C164.847 136.715 165.178 137.047 165.586 137.047Z" fill="#E59816"/>
<path d="M168.826 135.548C169.235 135.548 169.566 135.217 169.566 134.808C169.566 134.399 169.235 134.068 168.826 134.068C168.418 134.068 168.087 134.399 168.087 134.808C168.087 135.217 168.418 135.548 168.826 135.548Z" fill="#E59816"/>
<path d="M118.511 162.844C118.919 162.844 119.25 162.512 119.25 162.104C119.25 161.695 118.919 161.364 118.511 161.364C118.102 161.364 117.771 161.695 117.771 162.104C117.771 162.512 118.102 162.844 118.511 162.844Z" fill="#E59816"/>
<path d="M121.751 161.345C122.159 161.345 122.49 161.014 122.49 160.605C122.49 160.197 122.159 159.865 121.751 159.865C121.342 159.865 121.011 160.197 121.011 160.605C121.011 161.014 121.342 161.345 121.751 161.345Z" fill="#E59816"/>
<path d="M124.991 159.847C125.399 159.847 125.73 159.516 125.73 159.107C125.73 158.698 125.399 158.367 124.991 158.367C124.582 158.367 124.251 158.698 124.251 159.107C124.251 159.516 124.582 159.847 124.991 159.847Z" fill="#E59816"/>
<path d="M128.231 158.349C128.639 158.349 128.971 158.017 128.971 157.609C128.971 157.2 128.639 156.868 128.231 156.868C127.822 156.868 127.491 157.2 127.491 157.609C127.491 158.017 127.822 158.349 128.231 158.349Z" fill="#E59816"/>
<path d="M131.471 156.85C131.879 156.85 132.211 156.519 132.211 156.11C132.211 155.701 131.879 155.37 131.471 155.37C131.062 155.37 130.731 155.701 130.731 156.11C130.731 156.519 131.062 156.85 131.471 156.85Z" fill="#E59816"/>
<path d="M134.72 155.352C135.129 155.352 135.46 155.021 135.46 154.612C135.46 154.203 135.129 153.872 134.72 153.872C134.312 153.872 133.98 154.203 133.98 154.612C133.98 155.021 134.312 155.352 134.72 155.352Z" fill="#E59816"/>
<path d="M137.96 153.854C138.369 153.854 138.7 153.522 138.7 153.113C138.7 152.705 138.369 152.373 137.96 152.373C137.552 152.373 137.22 152.705 137.22 153.113C137.22 153.522 137.552 153.854 137.96 153.854Z" fill="#E59816"/>
<path d="M141.2 152.355C141.609 152.355 141.94 152.024 141.94 151.615C141.94 151.206 141.609 150.875 141.2 150.875C140.792 150.875 140.461 151.206 140.461 151.615C140.461 152.024 140.792 152.355 141.2 152.355Z" fill="#E59816"/>
<path d="M144.44 150.857C144.849 150.857 145.18 150.526 145.18 150.117C145.18 149.708 144.849 149.377 144.44 149.377C144.032 149.377 143.701 149.708 143.701 150.117C143.701 150.526 144.032 150.857 144.44 150.857Z" fill="#E59816"/>
<path d="M147.68 149.358C148.089 149.358 148.42 149.027 148.42 148.618C148.42 148.21 148.089 147.878 147.68 147.878C147.272 147.878 146.941 148.21 146.941 148.618C146.941 149.027 147.272 149.358 147.68 149.358Z" fill="#E59816"/>
<path d="M150.92 147.86C151.329 147.86 151.66 147.529 151.66 147.12C151.66 146.711 151.329 146.38 150.92 146.38C150.512 146.38 150.181 146.711 150.181 147.12C150.181 147.529 150.512 147.86 150.92 147.86Z" fill="#E59816"/>
<path d="M154.16 146.362C154.569 146.362 154.9 146.03 154.9 145.622C154.9 145.213 154.569 144.881 154.16 144.881C153.752 144.881 153.421 145.213 153.421 145.622C153.421 146.03 153.752 146.362 154.16 146.362Z" fill="#E59816"/>
<path d="M157.4 144.872C157.809 144.872 158.14 144.541 158.14 144.132C158.14 143.724 157.809 143.392 157.4 143.392C156.992 143.392 156.661 143.724 156.661 144.132C156.661 144.541 156.992 144.872 157.4 144.872Z" fill="#E59816"/>
<path d="M160.65 143.374C161.058 143.374 161.389 143.043 161.389 142.634C161.389 142.225 161.058 141.894 160.65 141.894C160.241 141.894 159.91 142.225 159.91 142.634C159.91 143.043 160.241 143.374 160.65 143.374Z" fill="#E59816"/>
<path d="M163.89 141.876C164.298 141.876 164.629 141.544 164.629 141.135C164.629 140.727 164.298 140.395 163.89 140.395C163.481 140.395 163.15 140.727 163.15 141.135C163.15 141.544 163.481 141.876 163.89 141.876Z" fill="#E59816"/>
<path d="M167.129 140.377C167.538 140.377 167.869 140.046 167.869 139.637C167.869 139.228 167.538 138.897 167.129 138.897C166.721 138.897 166.39 139.228 166.39 139.637C166.39 140.046 166.721 140.377 167.129 140.377Z" fill="#E59816"/>
<path d="M170.37 138.879C170.778 138.879 171.109 138.548 171.109 138.139C171.109 137.73 170.778 137.399 170.37 137.399C169.961 137.399 169.63 137.73 169.63 138.139C169.63 138.548 169.961 138.879 170.37 138.879Z" fill="#E59816"/>
<path d="M126.534 163.178C126.943 163.178 127.274 162.846 127.274 162.438C127.274 162.029 126.943 161.698 126.534 161.698C126.126 161.698 125.795 162.029 125.795 162.438C125.795 162.846 126.126 163.178 126.534 163.178Z" fill="#E59816"/>
<path d="M129.774 161.679C130.183 161.679 130.514 161.348 130.514 160.939C130.514 160.531 130.183 160.199 129.774 160.199C129.366 160.199 129.035 160.531 129.035 160.939C129.035 161.348 129.366 161.679 129.774 161.679Z" fill="#E59816"/>
<path d="M133.014 160.181C133.423 160.181 133.754 159.85 133.754 159.441C133.754 159.032 133.423 158.701 133.014 158.701C132.606 158.701 132.275 159.032 132.275 159.441C132.275 159.85 132.606 160.181 133.014 160.181Z" fill="#E59816"/>
<path d="M136.254 158.683C136.663 158.683 136.994 158.351 136.994 157.943C136.994 157.534 136.663 157.202 136.254 157.202C135.846 157.202 135.515 157.534 135.515 157.943C135.515 158.351 135.846 158.683 136.254 158.683Z" fill="#E59816"/>
<path d="M139.494 157.184C139.903 157.184 140.234 156.853 140.234 156.444C140.234 156.035 139.903 155.704 139.494 155.704C139.086 155.704 138.755 156.035 138.755 156.444C138.755 156.853 139.086 157.184 139.494 157.184Z" fill="#E59816"/>
<path d="M142.734 155.686C143.143 155.686 143.474 155.355 143.474 154.946C143.474 154.537 143.143 154.206 142.734 154.206C142.326 154.206 141.995 154.537 141.995 154.946C141.995 155.355 142.326 155.686 142.734 155.686Z" fill="#E59816"/>
<path d="M145.984 154.188C146.392 154.188 146.723 153.856 146.723 153.447C146.723 153.039 146.392 152.707 145.984 152.707C145.575 152.707 145.244 153.039 145.244 153.447C145.244 153.856 145.575 154.188 145.984 154.188Z" fill="#E59816"/>
<path d="M149.224 152.689C149.632 152.689 149.963 152.358 149.963 151.949C149.963 151.54 149.632 151.209 149.224 151.209C148.815 151.209 148.484 151.54 148.484 151.949C148.484 152.358 148.815 152.689 149.224 152.689Z" fill="#E59816"/>
<path d="M152.464 151.191C152.872 151.191 153.203 150.86 153.203 150.451C153.203 150.042 152.872 149.711 152.464 149.711C152.055 149.711 151.724 150.042 151.724 150.451C151.724 150.86 152.055 151.191 152.464 151.191Z" fill="#E59816"/>
<path d="M155.704 149.692C156.112 149.692 156.443 149.361 156.443 148.952C156.443 148.544 156.112 148.212 155.704 148.212C155.295 148.212 154.964 148.544 154.964 148.952C154.964 149.361 155.295 149.692 155.704 149.692Z" fill="#E59816"/>
<path d="M158.944 148.203C159.352 148.203 159.683 147.872 159.683 147.463C159.683 147.054 159.352 146.723 158.944 146.723C158.535 146.723 158.204 147.054 158.204 147.463C158.204 147.872 158.535 148.203 158.944 148.203Z" fill="#E59816"/>
<path d="M162.184 146.705C162.592 146.705 162.923 146.373 162.923 145.965C162.923 145.556 162.592 145.224 162.184 145.224C161.775 145.224 161.444 145.556 161.444 145.965C161.444 146.373 161.775 146.705 162.184 146.705Z" fill="#E59816"/>
<path d="M165.424 145.206C165.832 145.206 166.163 144.875 166.163 144.466C166.163 144.058 165.832 143.726 165.424 143.726C165.015 143.726 164.684 144.058 164.684 144.466C164.684 144.875 165.015 145.206 165.424 145.206Z" fill="#E59816"/>
<path d="M168.664 143.708C169.072 143.708 169.403 143.377 169.403 142.968C169.403 142.559 169.072 142.228 168.664 142.228C168.255 142.228 167.924 142.559 167.924 142.968C167.924 143.377 168.255 143.708 168.664 143.708Z" fill="#E59816"/>
<path d="M134.558 163.512C134.966 163.512 135.297 163.18 135.297 162.772C135.297 162.363 134.966 162.031 134.558 162.031C134.149 162.031 133.818 162.363 133.818 162.772C133.818 163.18 134.149 163.512 134.558 163.512Z" fill="#E59816"/>
<path d="M137.798 162.013C138.206 162.013 138.537 161.682 138.537 161.273C138.537 160.865 138.206 160.533 137.798 160.533C137.389 160.533 137.058 160.865 137.058 161.273C137.058 161.682 137.389 162.013 137.798 162.013Z" fill="#E59816"/>
<path d="M141.038 160.515C141.446 160.515 141.777 160.184 141.777 159.775C141.777 159.366 141.446 159.035 141.038 159.035C140.629 159.035 140.298 159.366 140.298 159.775C140.298 160.184 140.629 160.515 141.038 160.515Z" fill="#E59816"/>
<path d="M144.278 159.017C144.686 159.017 145.017 158.685 145.017 158.276C145.017 157.868 144.686 157.536 144.278 157.536C143.869 157.536 143.538 157.868 143.538 158.276C143.538 158.685 143.869 159.017 144.278 159.017Z" fill="#E59816"/>
<path d="M147.518 157.518C147.926 157.518 148.258 157.187 148.258 156.778C148.258 156.369 147.926 156.038 147.518 156.038C147.109 156.038 146.778 156.369 146.778 156.778C146.778 157.187 147.109 157.518 147.518 157.518Z" fill="#E59816"/>
<path d="M150.758 156.02C151.166 156.02 151.497 155.689 151.497 155.28C151.497 154.871 151.166 154.54 150.758 154.54C150.349 154.54 150.018 154.871 150.018 155.28C150.018 155.689 150.349 156.02 150.758 156.02Z" fill="#E59816"/>
<path d="M153.998 154.522C154.406 154.522 154.738 154.19 154.738 153.781C154.738 153.373 154.406 153.041 153.998 153.041C153.589 153.041 153.258 153.373 153.258 153.781C153.258 154.19 153.589 154.522 153.998 154.522Z" fill="#E59816"/>
<path d="M157.238 153.023C157.646 153.023 157.978 152.692 157.978 152.283C157.978 151.874 157.646 151.543 157.238 151.543C156.829 151.543 156.498 151.874 156.498 152.283C156.498 152.692 156.829 153.023 157.238 153.023Z" fill="#E59816"/>
<path d="M160.487 151.534C160.895 151.534 161.227 151.203 161.227 150.794C161.227 150.385 160.895 150.054 160.487 150.054C160.078 150.054 159.747 150.385 159.747 150.794C159.747 151.203 160.078 151.534 160.487 151.534Z" fill="#E59816"/>
<path d="M163.727 150.035C164.135 150.035 164.467 149.704 164.467 149.295C164.467 148.887 164.135 148.555 163.727 148.555C163.319 148.555 162.987 148.887 162.987 149.295C162.987 149.704 163.319 150.035 163.727 150.035Z" fill="#E59816"/>
<path d="M166.967 148.537C167.376 148.537 167.707 148.206 167.707 147.797C167.707 147.388 167.376 147.057 166.967 147.057C166.559 147.057 166.227 147.388 166.227 147.797C166.227 148.206 166.559 148.537 166.967 148.537Z" fill="#E59816"/>
<path d="M170.207 147.039C170.616 147.039 170.947 146.707 170.947 146.299C170.947 145.89 170.616 145.558 170.207 145.558C169.799 145.558 169.468 145.89 169.468 146.299C169.468 146.707 169.799 147.039 170.207 147.039Z" fill="#E59816"/>
<path d="M142.572 163.846C142.98 163.846 143.312 163.514 143.312 163.106C143.312 162.697 142.98 162.365 142.572 162.365C142.163 162.365 141.832 162.697 141.832 163.106C141.832 163.514 142.163 163.846 142.572 163.846Z" fill="#E59816"/>
<path d="M145.812 162.347C146.22 162.347 146.552 162.016 146.552 161.607C146.552 161.198 146.22 160.867 145.812 160.867C145.403 160.867 145.072 161.198 145.072 161.607C145.072 162.016 145.403 162.347 145.812 162.347Z" fill="#E59816"/>
<path d="M149.061 160.849C149.47 160.849 149.801 160.518 149.801 160.109C149.801 159.7 149.47 159.369 149.061 159.369C148.653 159.369 148.321 159.7 148.321 160.109C148.321 160.518 148.653 160.849 149.061 160.849Z" fill="#E59816"/>
<path d="M152.301 159.351C152.71 159.351 153.041 159.019 153.041 158.61C153.041 158.202 152.71 157.87 152.301 157.87C151.893 157.87 151.561 158.202 151.561 158.61C151.561 159.019 151.893 159.351 152.301 159.351Z" fill="#E59816"/>
<path d="M155.541 157.852C155.95 157.852 156.281 157.521 156.281 157.112C156.281 156.703 155.95 156.372 155.541 156.372C155.133 156.372 154.802 156.703 154.802 157.112C154.802 157.521 155.133 157.852 155.541 157.852Z" fill="#E59816"/>
<path d="M158.781 156.354C159.19 156.354 159.521 156.023 159.521 155.614C159.521 155.205 159.19 154.874 158.781 154.874C158.373 154.874 158.042 155.205 158.042 155.614C158.042 156.023 158.373 156.354 158.781 156.354Z" fill="#E59816"/>
<path d="M162.021 154.856C162.43 154.856 162.761 154.524 162.761 154.115C162.761 153.707 162.43 153.375 162.021 153.375C161.613 153.375 161.282 153.707 161.282 154.115C161.282 154.524 161.613 154.856 162.021 154.856Z" fill="#E59816"/>
<path d="M165.261 153.366C165.67 153.366 166.001 153.035 166.001 152.626C166.001 152.217 165.67 151.886 165.261 151.886C164.853 151.886 164.522 152.217 164.522 152.626C164.522 153.035 164.853 153.366 165.261 153.366Z" fill="#E59816"/>
<path d="M168.501 151.868C168.91 151.868 169.241 151.536 169.241 151.128C169.241 150.719 168.91 150.387 168.501 150.387C168.093 150.387 167.762 150.719 167.762 151.128C167.762 151.536 168.093 151.868 168.501 151.868Z" fill="#E59816"/>
<path d="M153.835 162.681C154.244 162.681 154.575 162.35 154.575 161.941C154.575 161.532 154.244 161.201 153.835 161.201C153.427 161.201 153.096 161.532 153.096 161.941C153.096 162.35 153.427 162.681 153.835 162.681Z" fill="#E59816"/>
<path d="M157.075 161.183C157.484 161.183 157.815 160.852 157.815 160.443C157.815 160.034 157.484 159.703 157.075 159.703C156.667 159.703 156.336 160.034 156.336 160.443C156.336 160.852 156.667 161.183 157.075 161.183Z" fill="#E59816"/>
<path d="M160.325 159.685C160.733 159.685 161.064 159.353 161.064 158.944C161.064 158.536 160.733 158.204 160.325 158.204C159.916 158.204 159.585 158.536 159.585 158.944C159.585 159.353 159.916 159.685 160.325 159.685Z" fill="#E59816"/>
<path d="M163.565 158.195C163.973 158.195 164.304 157.864 164.304 157.455C164.304 157.046 163.973 156.715 163.565 156.715C163.156 156.715 162.825 157.046 162.825 157.455C162.825 157.864 163.156 158.195 163.565 158.195Z" fill="#E59816"/>
<path d="M166.805 156.697C167.213 156.697 167.544 156.366 167.544 155.957C167.544 155.548 167.213 155.217 166.805 155.217C166.396 155.217 166.065 155.548 166.065 155.957C166.065 156.366 166.396 156.697 166.805 156.697Z" fill="#E59816"/>
<path d="M170.045 155.199C170.453 155.199 170.784 154.867 170.784 154.458C170.784 154.05 170.453 153.718 170.045 153.718C169.636 153.718 169.305 154.05 169.305 154.458C169.305 154.867 169.636 155.199 170.045 155.199Z" fill="#E59816"/>
<path d="M161.859 163.015C162.267 163.015 162.598 162.684 162.598 162.275C162.598 161.866 162.267 161.535 161.859 161.535C161.45 161.535 161.119 161.866 161.119 162.275C161.119 162.684 161.45 163.015 161.859 163.015Z" fill="#E59816"/>
<path d="M165.099 161.517C165.507 161.517 165.839 161.186 165.839 160.777C165.839 160.368 165.507 160.037 165.099 160.037C164.69 160.037 164.359 160.368 164.359 160.777C164.359 161.186 164.69 161.517 165.099 161.517Z" fill="#E59816"/>
<path d="M168.339 160.028C168.747 160.028 169.079 159.696 169.079 159.287C169.079 158.879 168.747 158.547 168.339 158.547C167.93 158.547 167.599 158.879 167.599 159.287C167.599 159.696 167.93 160.028 168.339 160.028Z" fill="#E59816"/>
<path d="M169.882 163.358C170.291 163.358 170.622 163.027 170.622 162.618C170.622 162.209 170.291 161.878 169.882 161.878C169.474 161.878 169.143 162.209 169.143 162.618C169.143 163.027 169.474 163.358 169.882 163.358Z" fill="#E59816"/>
</g>
<path d="M167.906 148.862C167.879 148.862 167.852 148.862 167.825 148.862L123.493 146.876C122.952 146.849 122.437 146.614 122.094 146.208C121.751 145.82 121.589 145.333 121.634 144.827L123.61 121.007C123.701 119.951 124.206 118.985 125.045 118.29C125.966 117.532 127.202 117.171 128.439 117.297L167.635 121.35C169.765 121.566 171.39 123.471 171.246 125.583L169.774 147.12C169.711 148.104 168.881 148.862 167.906 148.862ZM124.296 144.295L167.211 146.217L168.628 125.412C168.673 124.681 168.105 124.031 167.356 123.949L128.159 119.897C127.609 119.842 127.085 119.987 126.697 120.303C126.49 120.474 126.237 120.772 126.201 121.223L124.296 144.295Z" fill="#231815"/>
<path d="M123.322 140.269L168.755 142.814L169.061 138.419L123.728 135.395L123.322 140.269Z" fill="white"/>
<path d="M169.63 143.798L122.32 141.145L122.879 134.402L170.063 137.543L169.63 143.798ZM124.333 139.384L167.888 141.831L168.06 139.285L124.576 136.388L124.333 139.384Z" fill="#231815"/>
<path d="M152.184 162.907C152.166 162.907 152.157 162.907 152.139 162.907L112.41 162.375C110.993 162.356 109.901 161.21 109.477 160.145C109.089 159.17 109.197 158.213 109.757 157.518C110.298 156.372 113.159 150.857 119.333 147.562C119.973 147.219 120.759 147.463 121.101 148.104C121.444 148.745 121.201 149.53 120.56 149.873C114.621 153.041 112.085 158.71 112.058 158.773L111.95 159.008L111.86 159.089C111.914 159.342 112.239 159.739 112.437 159.766L152.166 160.298C152.175 160.298 152.175 160.298 152.184 160.298C152.997 160.298 154.062 159.658 155.109 158.547C155.65 157.816 160.117 151.886 164.242 149.674C164.874 149.331 165.668 149.575 166.011 150.207C166.354 150.839 166.11 151.633 165.478 151.976C161.697 153.998 157.211 160.091 157.166 160.154L157.067 160.271C155.966 161.472 154.206 162.907 152.184 162.907ZM111.769 159.179C111.769 159.188 111.769 159.188 111.769 159.179V159.179Z" fill="#231815"/>
<path d="M157.816 162.068L165.776 165.498C165.776 165.498 168.701 165.823 168.538 162.068C168.502 161.309 171.2 160.957 169.495 157.455C169.495 157.455 173.538 155.876 170.984 152.039C170.984 152.039 172.121 146.669 169.233 143.717C166.345 140.765 163.204 137.778 163.204 137.778C163.204 137.778 158.755 136.081 160.253 140.513L164.838 145.874L163.466 147.472L155.497 143.825C155.497 143.825 151.399 142.995 152.681 146.822L160.758 153.285L153.34 151.326C153.34 151.326 150.325 152.193 152.509 154.946L155.488 156.408L152.067 156.724C152.067 156.724 150.84 157.437 151.571 158.313C152.293 159.215 157.816 162.068 157.816 162.068Z" fill="white"/>
<path d="M162.527 139.014C162.41 138.942 162.455 138.969 162.527 139.014V139.014Z" fill="#231815"/>
<path d="M167.644 144.25C167.545 144.141 167.581 144.187 167.644 144.25V144.25Z" fill="#231815"/>
<path d="M153.421 153.908C153.303 153.79 153.267 153.772 153.285 153.79C153.33 153.835 153.376 153.872 153.421 153.908Z" fill="#231815"/>
<path d="M166.047 163.9C166.029 163.918 166.011 163.936 165.984 163.963C166.011 163.945 166.029 163.918 166.047 163.9Z" fill="#231815"/>
<path d="M172.681 152.996C172.5 152.409 172.283 151.859 171.904 151.398C172.879 149.476 172.157 147.255 171.354 145.396C170.794 143.509 169.504 142.011 168.141 140.639C166.282 138.933 164.341 135.828 161.579 135.855C159.486 135.918 157.69 137.985 158.376 140.07C159.495 142.39 161.426 144.204 163.141 146.091C160.271 144.629 156.968 141.785 153.592 142.471C152.383 142.95 151.408 144.06 151.074 145.315C150.623 147.49 152.572 148.925 154.161 149.999C150.975 149.16 148.818 153.511 151.183 155.65C149.368 156.968 150.298 159.685 151.959 160.705C153.087 161.454 154.35 162.004 155.569 162.573C154.603 163.241 153.764 164.053 152.879 164.812C151.589 166.102 153.529 168.043 154.856 166.788C155.876 165.913 156.832 164.911 158.078 164.351C158.809 164.153 159.666 163.909 160.108 163.232C161.101 161.165 158.087 160.867 156.859 160.1C155.749 159.468 153.61 158.872 153.015 157.762C153.863 157.491 154.811 158.06 155.668 158.204C156.264 158.358 156.85 158.52 157.437 158.692C158.7 159.062 159.946 159.504 161.191 159.964C161.516 160.082 161.986 159.992 162.274 159.82C163.339 159.224 163.105 157.563 161.94 157.238C159.152 156.02 156.047 155.487 153.421 153.908C153.43 153.917 153.448 153.926 153.457 153.944C152.96 153.601 152.834 153.24 153.222 152.743C154.766 152.825 156.246 153.42 157.726 153.827C159.459 154.494 161.399 154.702 163.024 155.596C164.603 156.498 165.993 154.133 164.44 153.177C161.435 151.353 158.421 149.53 155.524 147.526C154.955 147.012 153.258 146.335 154.116 145.459C154.296 145.242 154.513 145.044 154.811 145.134C158.24 145.883 160.975 148.366 164.134 149.765C165.505 150.55 166.895 148.79 165.894 147.607C166.733 147.192 166.877 146.037 166.236 145.378C165.361 144.304 164.386 143.329 163.439 142.309C162.545 141.352 161.751 140.314 161.056 139.204C161.056 139.105 161.083 139.014 161.11 138.915C161.598 138.482 162.193 138.707 162.635 139.086C162.59 139.05 162.545 139.032 162.518 139.014C164.377 140.648 166.083 142.471 167.717 144.331C167.681 144.295 167.654 144.268 167.635 144.25C168.628 145.649 169.621 147.968 169.549 149.692C167.987 149.241 167.067 151.407 168.448 152.247C168.782 152.455 169.125 152.662 169.44 152.897C169.422 152.879 169.395 152.861 169.368 152.834C169.395 152.861 169.621 153.041 169.549 152.978C169.937 153.249 169.973 153.772 170.09 154.197C170.181 155.054 169.007 155.162 168.403 155.388C167.861 155.532 167.473 156.011 167.401 156.553C167.256 157.365 167.942 157.789 168.403 158.322C168.98 158.944 168.592 160.289 167.617 159.91C167.663 159.928 167.708 159.946 167.753 159.964C166.282 159.269 165.072 161.372 166.327 162.347C166.462 162.862 166.408 163.485 166.047 163.891C166.074 163.873 166.083 163.864 166.092 163.864C166.074 163.9 166.029 163.927 165.984 163.954L165.993 163.945C161.931 164.766 164.305 167.402 160.632 169.586C157.572 171.608 155.551 169.225 154.793 171.374C154.477 173.919 158.159 173.396 159.729 173.007C162.654 172.186 165.199 169.875 165.912 166.888C168.024 166.617 169.404 164.586 169.17 162.528C171.209 161.824 172.067 159.215 171.047 157.356C172.663 156.589 173.258 154.639 172.681 152.996ZM152.906 157.852C152.897 157.852 152.897 157.861 152.897 157.861C152.897 157.852 152.906 157.852 152.906 157.852ZM162.202 140.865C162.175 140.82 162.184 140.829 162.202 140.865V140.865ZM166.399 162.402C166.399 162.411 166.399 162.411 166.399 162.402V162.402ZM168.285 159.901C168.285 159.901 168.294 159.901 168.303 159.892C168.303 159.892 168.294 159.892 168.285 159.901ZM165.966 163.981C165.948 163.999 165.93 164.017 165.912 164.035C165.939 164.017 165.948 163.999 165.966 163.981ZM166.489 162.456C166.579 162.51 166.607 162.555 166.489 162.456V162.456Z" fill="#231815"/>
<path d="M169.468 152.915C169.459 152.906 169.45 152.906 169.441 152.897C169.495 152.942 169.522 152.969 169.54 152.987C169.522 152.96 169.504 152.942 169.468 152.915Z" fill="#231815"/>
<path d="M87.9699 12.1493C86.6793 12.1493 85.6414 11.1022 85.6414 9.8205V2.79799C85.6414 1.50723 86.6883 0.469238 87.9699 0.469238C89.2605 0.469238 90.2983 1.51625 90.2983 2.79799V9.8205C90.2983 11.1113 89.2605 12.1493 87.9699 12.1493Z" fill="#231815"/>
<path d="M58.7281 16.0487C57.6993 16.0487 56.7607 15.3626 56.4809 14.3246L54.6668 7.54581C54.3329 6.30018 55.073 5.02744 56.3094 4.69346C57.5549 4.35949 58.8274 5.09971 59.1613 6.33631L60.9754 13.1151C61.3093 14.3607 60.5693 15.6335 59.3329 15.9674C59.1253 16.0306 58.9267 16.0487 58.7281 16.0487Z" fill="#231815"/>
<path d="M31.4902 27.3857C30.6869 27.3857 29.9017 26.9706 29.4685 26.2214L25.9577 20.1377C25.3169 19.0274 25.6959 17.6012 26.806 16.9513C27.9161 16.3105 29.3421 16.6895 29.992 17.7998L33.5028 23.8835C34.1436 24.9937 33.7644 26.4199 32.6543 27.0698C32.2843 27.2864 31.8873 27.3857 31.4902 27.3857Z" fill="#231815"/>
<path d="M8.11485 45.3843C7.51919 45.3843 6.92346 45.1586 6.4722 44.6983L1.50834 39.7338C0.59679 38.8221 0.59679 37.3508 1.50834 36.4392C2.41988 35.5275 3.89101 35.5275 4.80256 36.4392L9.76643 41.4037C10.678 42.3153 10.678 43.7866 9.76643 44.6983C9.30614 45.1586 8.71052 45.3843 8.11485 45.3843Z" fill="#231815"/>
<path d="M167.933 45.1315C167.338 45.1315 166.742 44.9059 166.291 44.4455C165.379 43.5339 165.379 42.0625 166.291 41.1509L171.255 36.1864C172.166 35.2747 173.637 35.2747 174.549 36.1864C175.46 37.0981 175.46 38.5694 174.549 39.481L169.585 44.4455C169.125 44.8968 168.529 45.1315 167.933 45.1315Z" fill="#231815"/>
<path d="M144.495 27.2053C144.098 27.2053 143.701 27.106 143.33 26.8894C142.22 26.2485 141.832 24.8223 142.482 23.703L145.993 17.6193C146.634 16.5091 148.06 16.1209 149.179 16.7708C150.298 17.4207 150.677 18.8378 150.027 19.9571L146.516 26.0408C146.083 26.79 145.298 27.2053 144.495 27.2053Z" fill="#231815"/>
<path d="M117.23 15.9585C117.031 15.9585 116.823 15.9313 116.625 15.8771C115.379 15.5432 114.648 14.2705 114.973 13.0249L116.787 6.24613C117.121 5.00049 118.403 4.2693 119.639 4.60327C120.885 4.93725 121.616 6.20999 121.291 7.45563L119.477 14.2344C119.197 15.2724 118.258 15.9585 117.23 15.9585Z" fill="#231815"/>
</svg>
