<svg width="165" height="165" viewBox="0 0 165 165" fill="none" xmlns="http://www.w3.org/2000/svg">
<path d="M86.1716 165C129.165 165 164.018 130.229 164.018 87.3374C164.018 44.4456 129.165 9.67487 86.1716 9.67487C43.1783 9.67487 8.32533 44.4456 8.32533 87.3374C8.32533 130.229 43.1783 165 86.1716 165Z" fill="#F9D44F" fill-opacity="0.6"/>
<path d="M77.8641 155.325C120.857 155.325 155.71 120.554 155.71 77.6626C155.71 34.7707 120.857 0 77.8641 0C34.8708 0 0.0178223 34.7707 0.0178223 77.6626C0.0178223 120.554 34.8708 155.325 77.8641 155.325Z" fill="white"/>
<path d="M26.3049 115.145C25.1449 115.145 24.4199 114.788 24.1129 114.081C23.8655 113.494 23.9509 113.06 24.3603 112.771C24.7014 112.507 25.2558 112.388 26.0064 112.405C27.4905 112.448 28.4628 112.448 28.9319 112.405C29.256 112.405 29.4863 112.346 29.6143 112.227C29.7422 112.107 29.8104 111.878 29.8104 111.554V105.632H19.0551C18.1424 105.632 17.6819 105.164 17.6819 104.237C17.6819 103.326 18.1424 102.867 19.0551 102.867H23.7461H29.8104V98.5524H21.1021C20.2065 98.5524 19.763 98.0929 19.763 97.1824C19.763 96.289 20.2065 95.8465 21.1021 95.8465H29.8104V91.7111C27.1066 91.9578 24.3432 92.1365 21.5286 92.2557C20.6756 92.2727 20.1554 91.9323 19.9762 91.2261C19.8312 90.724 19.8739 90.3582 20.0957 90.1454C20.3174 89.9327 20.7012 89.8051 21.2556 89.7625C29.1963 89.3371 35.1582 88.6053 39.1414 87.5757C39.4655 87.4991 39.747 87.5076 39.9943 87.6097C40.1734 87.6948 40.4037 87.882 40.6682 88.1883C41.1117 88.6988 41.3163 89.1073 41.2652 89.4221C41.214 89.737 40.8729 89.9752 40.2417 90.1369C38.2885 90.5794 35.8065 90.9963 32.7786 91.3792V95.8465H41.794C42.6896 95.8465 43.1331 96.289 43.1331 97.1824C43.1331 98.0929 42.6896 98.5524 41.794 98.5524H32.7786V102.867H43.4743C44.3869 102.867 44.8474 103.326 44.8474 104.237C44.8474 105.164 44.3869 105.632 43.4743 105.632H32.7786V111.588C32.7786 112.499 32.6421 113.188 32.3692 113.639C32.0962 114.099 31.6357 114.43 30.9875 114.66C30.0919 114.984 28.531 115.145 26.3049 115.145Z" fill="#0569AA"/>
<path d="M49.6409 112.312C49.2741 112.15 49.0524 111.963 48.9671 111.75C48.8818 111.537 48.9159 111.248 49.0609 110.882C49.53 109.563 49.8968 107.921 50.1612 105.955C50.2636 105.104 50.6985 104.764 51.4747 104.926C52.2082 105.045 52.5238 105.47 52.4214 106.202C52.3191 106.976 52.1229 108.006 51.8414 109.299C51.5941 110.269 51.3553 111.095 51.1079 111.759C50.8179 112.482 50.3232 112.661 49.6409 112.312ZM54.6049 115.205C53.8117 115.205 53.4193 114.813 53.4193 114.022V102.866C52.1826 102.926 51.1677 102.986 50.3744 103.045C49.6239 103.105 49.2059 102.756 49.1292 101.982C49.0439 101.131 49.4021 100.697 50.1953 100.671C50.2977 100.671 50.4341 100.663 50.6047 100.654C50.7753 100.646 50.9032 100.637 50.9885 100.637C51.577 99.8287 52.1058 99.0459 52.5749 98.2971C52.0291 97.3866 51.0909 96.2039 49.7688 94.7403C49.5215 94.4935 49.4106 94.2127 49.4191 93.8894C49.4276 93.5661 49.5471 93.2597 49.7688 92.9789C49.948 92.7322 50.1782 92.5875 50.4426 92.5365C50.707 92.4854 50.9544 92.5705 51.1762 92.7917C51.9097 91.3963 52.5664 89.9412 53.1549 88.4436C53.2999 88.0352 53.4961 87.7799 53.752 87.6693C54.0079 87.5586 54.332 87.5756 54.7414 87.7118C55.5943 88.0181 55.8076 88.5968 55.3811 89.4477C54.1614 91.6941 53.2403 93.3193 52.6091 94.3063C53.1976 94.9786 53.6582 95.5317 53.9823 95.9741C54.8352 94.5191 55.5687 93.1406 56.1743 91.8387C56.4984 91.1495 57.0358 90.9708 57.7863 91.2941C58.5796 91.6345 58.7586 92.1876 58.3322 92.9364C56.4643 96.0762 54.8267 98.6035 53.4279 100.501L56.8396 100.348C56.6946 99.9819 56.4728 99.4459 56.1658 98.7396C56.1487 98.68 56.1231 98.6375 56.1061 98.6205C55.7819 97.9482 55.9696 97.4973 56.686 97.2505C57.2746 97.0293 57.7096 97.208 57.9996 97.7951C58.8525 99.5395 59.458 101.088 59.8248 102.441C59.9442 102.952 59.7139 103.326 59.1254 103.564C58.3322 103.871 57.846 103.615 57.6669 102.807C57.6669 102.764 57.6584 102.722 57.6498 102.671C57.6413 102.62 57.6243 102.586 57.6072 102.569L55.8076 102.688V108.951V113.996C55.7905 114.805 55.3981 115.205 54.6049 115.205ZM57.4963 109.036C57.4537 108.814 57.3769 108.466 57.249 108.006C57.2063 107.887 57.1807 107.793 57.1551 107.734C56.9504 107.002 56.7884 106.466 56.669 106.125C56.4216 105.453 56.6519 105.028 57.3428 104.849C57.9484 104.67 58.3663 104.883 58.588 105.487C58.9719 106.645 59.2789 107.708 59.5007 108.678C59.5604 108.959 59.5348 109.18 59.4239 109.333C59.3131 109.487 59.0998 109.623 58.8013 109.742C58.0763 109.997 57.6413 109.759 57.4963 109.036ZM59.2363 114.66C58.426 113.911 58.5881 113.375 59.7224 113.052C61.633 112.405 63.0915 111.758 64.1065 111.103H62.5201C62.1106 111.103 61.7865 110.976 61.5306 110.72C61.2748 110.465 61.1468 110.142 61.1468 109.733V103.93C61.1468 103.343 61.3259 102.867 61.6927 102.501C62.0594 102.135 62.5371 101.956 63.1256 101.956H68.0641H73.0025C73.591 101.956 74.0686 102.135 74.4354 102.501C74.8021 102.867 74.9812 103.343 74.9812 103.93V109.129C74.9812 109.716 74.8021 110.193 74.4354 110.559C74.0686 110.925 73.591 111.103 73.0025 111.103H71.4757C72.9598 111.75 74.316 112.388 75.5612 113.018C76.09 113.299 76.3288 113.571 76.2947 113.835C76.2521 114.099 75.9706 114.396 75.4418 114.72C75.1177 114.924 74.8533 115.035 74.6486 115.052C74.3842 115.069 74.1198 114.992 73.8554 114.805C73.0622 114.32 72.0301 113.75 70.7507 113.103C70.2219 112.839 69.932 112.533 69.8808 112.192C69.8296 111.852 70.0172 111.503 70.4437 111.163L70.5034 111.103H64.9253L65.8976 111.707C66.1449 111.852 66.2644 112.014 66.2814 112.21C66.2899 112.405 66.1962 112.558 65.9915 112.678C64.4306 113.588 62.6224 114.362 60.5668 114.983C60.0892 115.128 59.6371 115.018 59.2363 114.66ZM61.7012 93.8043C61.1298 93.8043 60.8483 93.515 60.8483 92.9194C60.8483 92.3492 61.1298 92.0684 61.7012 92.0684H66.4861V90.8857H60.3366C59.731 90.8857 59.4239 90.5794 59.4239 89.9752C59.4239 89.3711 59.731 89.0648 60.3366 89.0648H66.4861V88.6989C66.4861 87.7884 66.9467 87.3289 67.8594 87.3289C68.772 87.3289 69.2325 87.7884 69.2325 88.6989V89.0648H75.476C76.0815 89.0648 76.3886 89.3711 76.3886 89.9752C76.3886 90.5794 76.0815 90.8857 75.476 90.8857H69.2325V92.0684H74.5036C75.0751 92.0684 75.3565 92.3492 75.3565 92.9194C75.3565 93.5065 75.0751 93.8043 74.5036 93.8043H68.1067H61.7012ZM62.1874 100.799C61.5989 100.799 61.1213 100.62 60.7545 100.254C60.3877 99.8883 60.2086 99.4118 60.2086 98.8247V96.8165C60.2086 96.2294 60.3877 95.7529 60.7545 95.387C61.1213 95.0211 61.5989 94.8424 62.1874 94.8424H73.9151C74.5036 94.8424 74.9812 95.0211 75.348 95.387C75.7147 95.7529 75.8939 96.2294 75.8939 96.8165V98.8247C75.8939 99.4118 75.7147 99.8883 75.348 100.254C74.9812 100.62 74.5036 100.799 73.9151 100.799H68.0384H62.1874ZM63.1 99.3097H67.9702H72.8745C73.3436 99.3097 73.5739 99.0799 73.5739 98.6119V98.5184H73.4801H71.0407C70.0855 98.5184 69.4543 98.4077 69.1558 98.1865C68.8487 97.9653 68.6952 97.4887 68.6952 96.757V96.3656H67.1088C66.9467 96.9953 66.6397 97.5058 66.1961 97.8972C65.7526 98.2886 65.1129 98.612 64.2771 98.8587C63.6715 98.9779 63.2535 98.9098 63.0318 98.646C62.6053 98.1355 62.8953 97.7866 63.9188 97.5824C64.6097 97.3186 65.0703 96.9102 65.2921 96.3656H63.1C62.6139 96.3656 62.3665 96.6123 62.3665 97.0974V98.5864C62.3665 99.063 62.6139 99.3097 63.1 99.3097ZM63.6203 104.594H72.4225V103.922C72.4225 103.598 72.2604 103.437 71.9363 103.437H68.0043H64.3453C63.8591 103.437 63.6118 103.683 63.6118 104.168V104.594H63.6203ZM63.6203 107.121H72.4225V105.904H68.0043H63.6203V107.121ZM64.1406 109.64H71.6975C72.1837 109.64 72.431 109.393 72.431 108.908V108.389H68.0129H63.6288V109.121C63.6203 109.47 63.7909 109.64 64.1406 109.64ZM71.3307 97.3611H73.1901C73.3948 97.3611 73.5227 97.3526 73.5824 97.3271V96.7484C73.5824 96.4847 73.4545 96.3571 73.1901 96.3571H70.7252V96.8165C70.7252 97.0378 70.7678 97.1909 70.8446 97.276C70.9384 97.3356 71.1004 97.3611 71.3307 97.3611Z" fill="#0569AA"/>
<path d="M86.9562 110.678C86.3677 110.678 85.8901 110.499 85.5233 110.133C85.1566 109.767 84.9775 109.291 84.9775 108.704V101.377C84.406 101.539 83.9625 101.65 83.6384 101.709C82.9049 101.871 82.359 101.658 81.9922 101.071C81.7108 100.603 81.7449 100.212 82.1116 99.8883C82.3931 99.6075 82.8707 99.3948 83.5445 99.2501C85.7963 98.7225 87.4509 97.9823 88.5086 97.0292H85.0372L85.0031 97.0888C84.9178 97.2675 84.7301 97.3611 84.4231 97.3611C83.8346 97.3186 83.391 97.1909 83.084 96.9697C82.7343 96.6889 82.6575 96.323 82.8367 95.872C83.1608 95.0211 83.4252 94.2893 83.6299 93.6852C83.7749 93.2172 84.0393 92.8427 84.4231 92.5449C84.8069 92.2556 85.259 92.1025 85.7622 92.1025H89.9926V90.6134H83.7492C83.1607 90.6134 82.8622 90.324 82.8622 89.7284C82.8622 89.1413 83.1522 88.8435 83.7492 88.8435H89.9926V88.5712C89.9926 87.7373 90.4191 87.3289 91.272 87.3289C92.1079 87.3289 92.5173 87.7458 92.5173 88.5712V88.8435H96.6028V88.6308C96.6028 87.7628 97.0463 87.3204 97.9419 87.3204C98.8119 87.3204 99.2554 87.7543 99.2554 88.6308V88.8435H103.827C104.416 88.8435 104.893 89.0222 105.26 89.3881C105.627 89.754 105.806 90.2305 105.806 90.8176V91.8812C105.806 92.4684 105.627 92.9449 105.26 93.3108C104.893 93.6767 104.416 93.8554 103.827 93.8554H99.2554V95.2849H105.686C107.051 95.2849 107.614 96.2294 107.392 98.1099C107.29 98.7396 107.111 99.1906 106.846 99.4799C106.48 99.8458 105.942 100.05 105.234 100.084C105.089 100.084 104.97 100.093 104.868 100.118C104.723 100.118 104.654 100.178 104.654 100.297V108.687C104.654 109.274 104.475 109.75 104.109 110.116C103.742 110.482 103.264 110.661 102.676 110.661H94.8202H86.9562V110.678ZM82.5381 114.66C82.0264 114.15 81.8643 113.758 82.0519 113.477C82.1969 113.197 82.6405 112.975 83.391 112.805C85.8901 112.261 87.886 111.648 89.3956 110.984C89.7795 110.823 90.2144 110.84 90.7091 111.044C91.8862 111.588 91.9459 112.141 90.8883 112.686C89.8903 113.128 88.9521 113.52 88.0565 113.843C86.8198 114.311 85.5319 114.728 84.1842 115.086C83.5531 115.264 83.0072 115.12 82.5381 114.66ZM85.6769 95.2934H87.6556H89.6685C89.8306 94.8679 89.933 94.3914 89.9756 93.8639H86.1716L85.6769 95.2934ZM87.7154 102.526H94.752H101.823V100.977H87.7154V102.526ZM87.7154 105.751H94.752H101.823V104.168H87.7154V105.751ZM88.4148 108.976H94.752H101.089C101.575 108.976 101.823 108.729 101.823 108.244V107.393H87.7154V108.278C87.7154 108.738 87.9542 108.976 88.4148 108.976ZM89.9074 99.2501H93.2593H96.6113V97.0292H91.7667C91.3829 97.8376 90.7603 98.5779 89.9074 99.2501ZM92.3467 95.2934H94.479H96.6113V93.8639H92.5002C92.5002 94.3149 92.4491 94.7914 92.3467 95.2934ZM92.5258 92.1025H96.6113V90.6134H94.5728H92.5344V92.1025H92.5258ZM104.322 114.958C102.778 114.269 100.944 113.571 98.8119 112.865C98.1807 112.66 97.814 112.405 97.7031 112.09C97.5922 111.776 97.7969 111.444 98.3257 111.103C98.7522 110.839 99.1957 110.78 99.6648 110.925C100.603 111.205 102.01 111.665 103.895 112.295C104.381 112.456 105.072 112.703 105.968 113.026C106.718 113.333 107.077 113.622 107.051 113.911C107.017 114.192 106.616 114.515 105.848 114.881C105.277 115.128 104.765 115.162 104.322 114.958ZM99.2639 92.1025H101.243H102.522C103.008 92.1025 103.256 91.8557 103.256 91.3707V91.2516C103.256 90.8261 103.042 90.6134 102.616 90.6134H99.2639V92.1025ZM99.2639 99.2501H102.403C102.386 99.1735 102.343 99.0629 102.3 98.9268C102.249 98.7991 102.215 98.697 102.198 98.6375C102.096 98.4333 102.207 98.3396 102.531 98.3652C102.633 98.3652 102.787 98.3737 102.991 98.3992C103.494 98.4162 103.827 98.4333 103.964 98.4333C104.271 98.4333 104.484 98.3652 104.603 98.2205C104.706 98.1184 104.782 97.9482 104.851 97.7014C104.927 97.259 104.799 97.0292 104.458 97.0292H102.113H99.281V99.2501H99.2639Z" fill="#0569AA"/>
<path d="M117.235 115.171C116.339 115.171 115.896 114.728 115.896 113.835V98.8502C115.546 99.3607 115.137 99.9053 114.651 100.492C114.182 101.02 113.772 101.275 113.414 101.25C113.056 101.233 112.714 100.918 112.39 100.305C112.169 99.8968 112.075 99.5394 112.117 99.2076C112.16 98.8842 112.339 98.5524 112.663 98.2035C114.958 95.6337 116.877 92.4684 118.421 88.7243C118.745 87.8734 119.333 87.5671 120.186 87.8139C121.124 88.0947 121.406 88.6733 121.039 89.5498C120.246 91.4132 119.427 93.1151 118.574 94.6552V104.926V113.826C118.574 114.728 118.131 115.171 117.235 115.171ZM137.313 114.141C135.684 114.141 134.319 112.814 133.202 110.159C132.187 107.768 131.411 104.466 130.89 100.254H124.954V107.181C125.807 107.061 127.12 106.849 128.886 106.542C129.312 106.483 129.637 106.432 129.858 106.389C130.796 106.228 131.274 106.602 131.291 107.512C131.308 108.287 130.933 108.746 130.165 108.908C129.108 109.087 127.547 109.367 125.474 109.725C123.845 110.031 122.668 110.244 121.926 110.38C121.184 110.516 120.723 110.142 120.544 109.274C120.34 108.38 120.698 107.853 121.61 107.691L122.216 107.598V92.128C122.216 91.5579 122.387 91.158 122.719 90.9112C123.052 90.6644 123.495 90.6304 124.041 90.7921L124.135 90.8261C129.005 90.222 132.92 89.4562 135.863 88.5457C136.187 88.4266 136.468 88.418 136.716 88.5116C136.92 88.5712 137.159 88.7414 137.449 89.0307C137.918 89.5157 138.123 89.9156 138.072 90.2134C138.021 90.5198 137.68 90.7581 137.048 90.9453C135.667 91.2941 134.37 91.5834 133.151 91.8302C133.168 93.8554 133.261 95.8125 133.423 97.693H136.741H138.814C139.667 97.693 140.093 98.1184 140.093 98.9693C140.093 99.8202 139.667 100.246 138.814 100.246H133.696C134.106 103.488 134.66 106.142 135.368 108.21C136.102 110.32 136.827 111.367 137.56 111.367C137.867 111.367 138.089 110.984 138.234 110.21C138.319 109.436 138.481 108.857 138.72 108.448C139.044 107.963 139.454 107.878 139.94 108.202C140.204 108.38 140.375 108.746 140.46 109.299C140.52 109.725 140.52 110.159 140.46 110.61C140.213 111.946 139.854 112.882 139.36 113.409C138.908 113.894 138.225 114.141 137.313 114.141ZM122.446 114.532C121.611 114.532 121.201 114.116 121.201 113.29C121.201 112.439 121.619 112.014 122.446 112.014H132.374C133.21 112.014 133.62 112.439 133.62 113.29C133.62 114.124 133.202 114.532 132.374 114.532H127.41H122.446ZM124.945 97.693H127.777H130.643C130.498 96.1528 130.396 94.3744 130.336 92.3407C128.511 92.6045 126.711 92.8513 124.945 93.0725V97.693Z" fill="#0569AA"/>
<path d="M78.5635 67.1284C77.8471 67.1284 77.4888 66.771 77.4888 66.0563V54.8072C77.2415 55.1986 76.9174 55.6496 76.508 56.1772C76.1327 56.6197 75.8086 56.8239 75.5271 56.7983C75.2457 56.7728 74.9812 56.5176 74.7168 56.0325C74.5377 55.6922 74.4609 55.3944 74.4865 55.1391C74.5121 54.8838 74.6571 54.62 74.913 54.3477C76.7553 52.2204 78.1712 49.3784 79.1691 45.8301C79.3823 45.0303 79.8429 44.7239 80.5593 44.8941C81.2758 45.0643 81.5402 45.5153 81.3441 46.2471C80.8835 47.7957 80.3206 49.3274 79.6297 50.859V59.0107V66.0648C79.6382 66.771 79.28 67.1284 78.5635 67.1284ZM84.3378 65.5712C83.8601 65.5712 83.4849 65.4266 83.1864 65.1288C82.8964 64.8395 82.7428 64.4565 82.7428 63.98V53.0458C82.7428 52.5778 82.8878 52.1949 83.1864 51.8971C83.4849 51.5993 83.8601 51.4546 84.3378 51.4546H86.3677C86.581 50.5782 86.8027 49.4124 87.0245 47.9659H82.7684C82.069 47.9659 81.7194 47.6085 81.7194 46.8938C81.7194 46.196 82.069 45.8471 82.7684 45.8471H88.7133H94.6837C95.3831 45.8471 95.7329 46.196 95.7329 46.8938C95.7329 47.6085 95.3831 47.9659 94.6837 47.9659H89.5492C89.1739 49.4975 88.8583 50.6633 88.5939 51.4546H93.1656C93.6347 51.4546 94.0185 51.5993 94.317 51.8971C94.6155 52.1949 94.7605 52.5693 94.7605 53.0458V63.98C94.7605 64.448 94.6155 64.8309 94.317 65.1288C94.027 65.4181 93.6432 65.5712 93.1656 65.5712H84.3378ZM84.8751 57.4876H88.7133H92.5514V54.1435C92.5514 53.7521 92.3553 53.5564 91.9629 53.5564H85.4551C85.0628 53.5564 84.8666 53.7521 84.8666 54.1435V57.4876H84.8751ZM85.4636 63.4695H91.9715C92.3638 63.4695 92.56 63.2738 92.56 62.8823V59.5383H88.7218H84.8837V62.8823C84.8751 63.2738 85.0713 63.4695 85.4636 63.4695Z" fill="#0569AA"/>
<path d="M100.731 66.1753C100.45 65.818 100.424 65.4606 100.637 65.1032C100.833 64.8139 101.183 64.5501 101.686 64.3203C103.29 63.3758 104.433 62.0824 105.132 60.4402C105.635 59.2064 105.976 57.4875 106.164 55.2922H101.422C100.688 55.2922 100.322 54.9263 100.322 54.1945C100.322 53.4627 100.688 53.0968 101.422 53.0968H110.966H120.527C121.261 53.0968 121.628 53.4627 121.628 54.1945C121.628 54.9263 121.261 55.2922 120.527 55.2922H115.026V63.4184C115.026 63.8609 115.086 64.1417 115.214 64.2608C115.333 64.3799 115.614 64.448 116.058 64.448H118.796C119.086 64.448 119.299 64.3629 119.436 64.1757C119.581 63.98 119.683 63.6141 119.751 63.078C119.802 62.3973 119.93 61.8272 120.144 61.3677C120.416 60.7976 120.775 60.6104 121.218 60.8061C121.474 60.9167 121.67 61.2316 121.781 61.7336C121.883 62.125 121.909 62.5334 121.883 62.9504C121.738 64.3374 121.448 65.2819 121.031 65.8094C120.604 66.3285 119.922 66.5923 118.975 66.5923H115.742C114.557 66.5923 113.747 66.371 113.337 65.9201C112.919 65.4691 112.715 64.6437 112.715 63.4439V55.2922H108.578C108.331 58.0406 107.87 60.1764 107.188 61.6825C106.275 63.6992 104.774 65.2563 102.684 66.3455C101.78 66.7539 101.132 66.6944 100.731 66.1753ZM103.563 48.604C102.829 48.604 102.462 48.2382 102.462 47.5064C102.462 46.7746 102.829 46.4087 103.563 46.4087H110.975H118.386C119.12 46.4087 119.487 46.7746 119.487 47.5064C119.487 48.2382 119.12 48.604 118.386 48.604H103.563Z" fill="#0569AA"/>
<path d="M48.9074 70.3277C43.3549 70.3277 40.037 67.256 40.037 62.0995C40.037 59.1979 41.3249 56.041 43.986 52.4501C44.2504 52.1013 44.856 51.3525 46.9286 48.9529C44.7025 48.8082 42.7578 47.8978 41.2908 46.281C39.8323 44.6728 39.0902 42.7072 39.0902 40.4268C39.0902 36.3679 40.5744 33.0834 43.4999 30.6498C46.2548 28.3183 49.965 27.1356 54.5026 27.1356C59.0316 27.1356 62.6139 28.3609 65.1726 30.7775C67.7655 33.2366 69.079 36.5126 69.079 40.5374C69.079 43.5071 68.2261 46.247 66.5373 48.6636C65.7185 49.8549 64.1406 51.5226 61.6074 53.9052C61.471 54.0328 61.3345 54.1605 61.198 54.2881H61.6757C64.7632 54.2881 66.597 55.5645 67.6034 56.6451C68.9937 58.0832 69.7102 59.9977 69.7102 62.3122C69.7102 64.5671 69.0022 66.4731 67.6034 67.9707C66.5458 69.0684 64.695 70.3277 61.6757 70.3277H48.9074Z" fill="#0569AA"/>
<path d="M66.904 62.3122C66.904 63.8438 66.452 65.0947 65.5394 66.0732C64.6012 67.0433 63.3047 67.5368 61.6671 67.5368H48.8988C44.8475 67.5368 42.826 65.7244 42.826 62.108C42.826 59.8446 43.9604 57.1812 46.2292 54.1179C46.7495 53.4202 48.8648 50.9696 52.5579 46.7576C54.8608 44.2133 56.0122 42.3754 56.0122 41.2266C56.0122 40.3928 55.5602 39.9758 54.6475 39.9758C53.8458 39.9758 53.1976 40.5119 52.7114 41.5925C52.012 43.2944 51.56 44.2899 51.3553 44.5707C50.5194 45.6514 49.24 46.1874 47.5342 46.1874C45.8283 46.1874 44.4295 45.6003 43.3463 44.409C42.3654 43.3284 41.8793 42.0095 41.8793 40.4438C41.8793 37.2444 43.0137 34.7002 45.2825 32.8197C47.5512 30.9051 50.6217 29.9521 54.494 29.9521C58.298 29.9521 61.2065 30.9136 63.2365 32.8197C65.2579 34.7342 66.2729 37.3124 66.2729 40.5459C66.2729 42.9455 65.5906 45.1238 64.2344 47.0724C63.535 48.085 62.0168 49.6847 59.6798 51.8715C57.5475 53.8541 56.0378 55.5985 55.1252 57.0961H61.6671C63.3389 57.0961 64.6353 57.5811 65.5394 58.5597C66.452 59.4957 66.904 60.7465 66.904 62.3122Z" fill="white" stroke="#0569AA" stroke-width="2" stroke-miterlimit="10"/>
</svg>
