<svg width="165" height="165" viewBox="0 0 165 165" fill="none" xmlns="http://www.w3.org/2000/svg">
<path d="M86.1894 165C129.183 165 164.036 130.229 164.036 87.3374C164.036 44.4456 129.183 9.67487 86.1894 9.67487C43.1961 9.67487 8.34322 44.4456 8.34322 87.3374C8.34322 130.229 43.1961 165 86.1894 165Z" fill="#F9D44F" fill-opacity="0.6"/>
<path d="M77.882 155.325C120.875 155.325 155.728 120.554 155.728 77.6626C155.728 34.7707 120.875 0 77.882 0C34.8887 0 0.0357666 34.7707 0.0357666 77.6626C0.0357666 120.554 34.8887 155.325 77.882 155.325Z" fill="white"/>
<path d="M21.8108 114.26C20.7788 113.35 20.8983 112.507 22.1776 111.741C26.8261 108.687 30.016 103.751 31.7474 96.9442C32.0289 95.8465 32.643 95.387 33.5727 95.5487L33.6665 95.5827C33.4618 94.4085 33.3339 93.2002 33.2742 91.9663H27.551C26.5957 91.9663 26.1181 91.4898 26.1181 90.5368C26.1181 89.5838 26.5957 89.1073 27.551 89.1073H31.0821H34.0673C34.6132 89.1073 35.0995 89.2604 35.5259 89.5668C35.8927 89.8476 36.0718 90.1454 36.0718 90.4518C36.2765 99.4884 39.5175 106.364 45.7865 111.086C46.4347 111.529 46.8954 111.997 47.1598 112.482C47.4669 113.086 47.4071 113.614 46.9806 114.065C46.3068 114.771 45.4454 114.779 44.3878 114.099C39.4153 110.55 36.0888 105.581 34.4256 99.1736C32.353 105.981 28.8987 111.061 24.0711 114.396C23.2779 114.907 22.5273 114.864 21.8108 114.26Z" fill="#0569AA"/>
<path d="M57.8554 115.23C57.0451 115.23 56.6358 114.839 56.6358 114.047V105.351V95.4721H55.5696C55.0835 95.4721 54.8361 95.7189 54.8361 96.2039V107.963C54.8361 108.653 54.4864 108.993 53.804 108.993C53.0961 108.993 52.7379 108.653 52.7379 107.963V94.9275C52.7379 94.3404 52.917 93.8639 53.2838 93.498C53.6505 93.1321 54.1282 92.9534 54.7167 92.9534H56.6358V88.5457C56.6358 87.7543 57.0451 87.3629 57.8554 87.3629C58.6486 87.3629 59.041 87.7543 59.041 88.5457V92.9534H61.1136C61.7022 92.9534 62.1627 93.1236 62.4954 93.4554C62.828 93.7873 62.9986 94.2468 62.9986 94.8339V106.049C62.9986 107.121 62.7683 107.844 62.2992 108.21C62.0348 108.414 61.7277 108.542 61.3865 108.602C60.5165 108.661 59.9536 108.321 59.7148 107.572C59.4675 106.704 59.8086 106.287 60.7212 106.33C60.8833 106.313 60.9686 106.202 60.9686 105.998V96.2123C60.9686 95.7273 60.7213 95.4806 60.2351 95.4806H59.0495V114.047C59.041 114.839 58.6401 115.23 57.8554 115.23ZM77.0718 114.566C73.7369 112.558 71.4595 108.814 70.2143 103.326H67.9285V111.588C69.5917 111.308 70.854 111.086 71.7069 110.933C72.5598 110.78 73.0204 111.137 73.0801 112.014C73.1398 112.72 72.7986 113.154 72.0481 113.324C71.6216 113.401 70.9819 113.52 70.129 113.656C67.3485 114.158 65.3697 114.507 64.1927 114.686C63.5018 114.83 63.0668 114.49 62.8791 113.682C62.6744 112.814 62.9986 112.312 63.8515 112.192C63.8941 112.192 63.9538 112.184 64.0306 112.158C64.5764 112.099 65.0029 112.039 65.31 111.98V103.317H64.5168C63.7406 103.317 63.3568 102.926 63.3568 102.135C63.3568 101.36 63.7406 100.977 64.5168 100.977H65.3356V90.5198C65.3356 89.9327 65.5147 89.4561 65.8814 89.0902C66.2482 88.7243 66.7258 88.5457 67.3143 88.5457H71.8263H77.1912C77.9674 88.5457 78.3512 88.9286 78.3512 89.7029C78.3512 90.4943 77.9674 90.8857 77.1912 90.8857H68.7216C68.2355 90.8857 67.9881 91.1324 67.9881 91.6175V92.7747H76.27C76.9779 92.7747 77.3361 93.1321 77.3361 93.8383C77.3361 94.5701 76.9779 94.936 76.27 94.936H67.9881V96.8846H76.27C76.9779 96.8846 77.3361 97.242 77.3361 97.9482C77.3361 98.6545 76.9779 99.0119 76.27 99.0119H67.9881V100.986H78.3768C79.1444 100.986 79.5368 101.369 79.5368 102.143C79.5368 102.935 79.153 103.326 78.3768 103.326H72.6536C73.0374 104.747 73.4895 105.972 73.9928 107.002C75.0504 106.236 76.0398 105.436 76.978 104.602C77.4812 104.1 78.0441 104.117 78.6497 104.662C79.2808 105.266 79.2808 105.845 78.6497 106.398C77.6774 107.206 76.5174 108.057 75.1783 108.951C76.0483 110.167 77.0974 111.163 78.317 111.929C78.9226 112.235 79.298 112.558 79.4429 112.899C79.5879 113.265 79.4771 113.699 79.1103 114.209C78.59 114.89 77.9077 115.009 77.0718 114.566Z" fill="#0569AA"/>
<path d="M84.4496 101.377C83.7417 101.131 83.4858 100.705 83.6905 100.101C84.117 98.646 84.4838 96.6889 84.7908 94.2383C84.8505 93.5491 85.2513 93.2597 85.9763 93.3533C86.6075 93.4384 86.9146 93.7788 86.889 94.3829C86.8037 95.353 86.6672 96.4677 86.4625 97.727C86.1811 99.148 85.9507 100.169 85.7887 100.799C85.601 101.428 85.1576 101.616 84.4496 101.377ZM88.8933 115.205C87.9807 115.205 87.5201 114.745 87.5201 113.835V101.284V88.6989C87.5201 87.7884 87.9807 87.3289 88.8933 87.3289C89.806 87.3289 90.2665 87.7884 90.2665 88.6989V92.9194L91.1792 92.528C91.6824 92.3493 92.0662 92.4854 92.305 92.9534C93.0982 94.5106 93.6612 95.8806 94.0109 97.0548C94.1729 97.5654 93.9511 97.9567 93.337 98.2375C92.9276 98.4162 92.6291 98.4928 92.4244 98.4503C92.1771 98.3652 91.998 98.1355 91.8786 97.7526C91.4947 96.4932 90.9574 95.1402 90.2665 93.6767V113.826C90.2665 114.745 89.806 115.205 88.8933 115.205ZM92.6718 114.439C92.2624 113.996 92.1856 113.537 92.4244 113.069C92.6036 112.661 93.0044 112.286 93.61 111.946C96.6123 109.904 98.4717 107.13 99.1882 103.649H93.9767C93.0812 103.649 92.6377 103.207 92.6377 102.313C92.6377 101.42 93.0812 100.977 93.9767 100.977H99.5805C99.6572 99.9479 99.6999 98.8162 99.6999 97.6079V94.6638H95.4693C94.5994 94.6638 94.1559 94.2298 94.1559 93.3533C94.1559 92.4769 94.5908 92.0429 95.4693 92.0429H99.6999V88.7329C99.6999 87.8054 100.177 87.3374 101.133 87.3374C102.071 87.3374 102.532 87.8054 102.532 88.7329V92.0429H107.129C107.717 92.0429 108.195 92.2216 108.562 92.5875C108.929 92.9534 109.108 93.4299 109.108 94.0171V100.977H110.02C110.916 100.977 111.359 101.42 111.359 102.313C111.359 103.207 110.916 103.649 110.02 103.649H107.461H103.564C104.962 107.359 107.061 110.048 109.841 111.733C110.515 112.056 110.916 112.405 111.061 112.763C111.206 113.145 111.069 113.614 110.668 114.158C110.361 114.567 110.02 114.796 109.636 114.856C109.287 114.898 108.877 114.788 108.391 114.524C105.346 112.703 103.069 109.733 101.568 105.623C100.408 109.333 98.1988 112.278 94.9236 114.464C93.9683 115.06 93.2177 115.052 92.6718 114.439ZM102.387 100.977H104.365H106.378V95.387C106.378 94.902 106.131 94.6552 105.645 94.6552H102.54V97.5994C102.54 98.8842 102.489 100.007 102.387 100.977Z" fill="#0569AA"/>
<path d="M115.829 113.35C115.419 112.516 115.598 111.852 116.349 111.342C117.628 110.406 118.643 109.631 119.394 109.002V104.534C119.394 104.049 119.147 103.803 118.66 103.803H117.014C116.144 103.803 115.701 103.369 115.701 102.492C115.701 101.624 116.136 101.182 117.014 101.182H118.899H120.605C121.074 101.182 121.441 101.318 121.705 101.573C121.97 101.837 122.098 102.203 122.098 102.671V108.78C123.437 110.788 125.833 111.852 129.288 111.971C133.143 112.09 137.211 112.048 141.476 111.852C142.124 111.835 142.542 111.937 142.721 112.175C142.9 112.405 142.892 112.839 142.687 113.469C142.568 113.877 142.406 114.167 142.201 114.337C141.996 114.507 141.698 114.609 141.288 114.626C136.478 114.788 132.478 114.805 129.288 114.686C127.335 114.584 125.705 114.269 124.383 113.741C123.002 113.171 121.842 112.312 120.912 111.154C120.366 111.665 119.522 112.414 118.387 113.401C118.242 113.545 118.132 113.648 118.055 113.707C117.091 114.524 116.349 114.405 115.829 113.35ZM119.88 98.1865C119.658 97.9822 119.292 97.7014 118.78 97.3356C118.695 97.276 118.635 97.2335 118.601 97.2165C118.072 96.8336 117.586 96.5102 117.142 96.2464C116.23 95.7359 116.144 95.1147 116.895 94.3659C117.381 93.8809 117.918 93.7873 118.507 94.0936C119.803 94.7998 120.946 95.5487 121.919 96.34C122.226 96.6208 122.362 96.9016 122.345 97.1569C122.328 97.4207 122.149 97.7185 121.825 98.0418C121.159 98.7396 120.503 98.7906 119.88 98.1865ZM120.878 92.2301C120.17 91.5834 119.3 90.9112 118.285 90.222C117.859 89.9582 117.628 89.6604 117.586 89.3285C117.543 88.9967 117.705 88.6648 118.072 88.3414C118.558 87.899 119.078 87.8139 119.624 88.0947C120.332 88.5031 120.972 88.9116 121.543 89.337C122.115 89.7199 122.558 90.0688 122.882 90.3666C123.454 90.9367 123.411 91.5238 122.763 92.128C122.396 92.4684 122.081 92.6556 121.816 92.6726C121.518 92.7236 121.202 92.5705 120.878 92.2301ZM132.972 110.95C132.06 110.95 131.599 110.491 131.599 109.58V104.415C130.055 106.525 128.23 108.244 126.115 109.58C125.706 109.801 125.364 109.904 125.083 109.869C124.801 109.835 124.511 109.648 124.23 109.308C123.863 108.84 123.727 108.457 123.821 108.151C123.914 107.844 124.23 107.555 124.776 107.266C127.053 105.989 128.87 104.407 130.226 102.526H126.874C126.286 102.526 125.808 102.347 125.441 101.982C125.074 101.616 124.895 101.139 124.895 100.552V96.6634C124.895 96.0762 125.074 95.5997 125.441 95.2338C125.808 94.8679 126.286 94.6892 126.874 94.6892H131.599V92.5279H125.168C124.375 92.5279 123.983 92.1365 123.983 91.3452C123.983 90.5538 124.375 90.1624 125.168 90.1624H131.599V88.7329C131.599 87.8224 132.06 87.3629 132.972 87.3629C133.885 87.3629 134.346 87.8224 134.346 88.7329V90.1624H141.348C142.141 90.1624 142.534 90.5538 142.534 91.3452C142.534 92.1365 142.141 92.5279 141.348 92.5279H138.423H134.337V94.6892H139.455C140.043 94.6892 140.521 94.8679 140.888 95.2338C141.254 95.5997 141.433 96.0762 141.433 96.6634V100.552C141.433 101.139 141.254 101.616 140.888 101.982C140.521 102.347 140.043 102.526 139.455 102.526H135.463C137.007 104.347 138.917 105.879 141.186 107.113C141.775 107.393 142.116 107.691 142.21 108.006C142.303 108.321 142.141 108.712 141.74 109.18C141.433 109.546 141.143 109.75 140.853 109.784C140.572 109.827 140.222 109.725 139.821 109.478C137.851 108.202 136.026 106.559 134.337 104.551V109.563C134.346 110.491 133.894 110.95 132.972 110.95ZM128.256 100.314H131.608V96.9442H129.569H128.256C127.77 96.9442 127.522 97.1909 127.522 97.6759V99.5905C127.522 100.067 127.77 100.314 128.256 100.314ZM134.346 100.314H136.538H137.996C138.482 100.314 138.73 100.067 138.73 99.582V97.6674C138.73 97.1824 138.482 96.9357 137.996 96.9357H134.337V100.314H134.346Z" fill="#0569AA"/>
<path d="M81.0889 66.3455C80.3724 65.6307 80.5345 65.0011 81.5751 64.465C84.2789 62.7717 86.0358 59.9977 86.8376 56.1431H84.2192C83.7586 56.1431 83.3918 56.007 83.1189 55.7262C82.8374 55.4539 82.7009 55.088 82.7009 54.6285V54.5519C82.3086 55.0539 81.9589 55.4624 81.6518 55.7687C81.0633 56.3218 80.4833 56.3473 79.9119 55.8453C79.5536 55.5219 79.3745 55.2071 79.383 54.9178C79.3916 54.6285 79.5793 54.3136 79.9545 53.9903C81.4898 52.5097 82.718 50.6462 83.6477 48.3998C83.9291 47.651 84.4409 47.3617 85.1915 47.5234C86.0274 47.7191 86.2747 48.2296 85.9506 49.0635C85.183 50.8675 84.2447 52.5182 83.1359 54.0158H90.0873H97.0557C95.2646 52.0843 93.8913 49.7783 92.9445 47.1064H87.8099C87.1105 47.1064 86.7609 46.7576 86.7609 46.0598C86.7609 45.3621 87.1105 45.0132 87.8099 45.0132H93.2857C93.6951 45.0132 94.0534 45.1238 94.3604 45.3536C94.6675 45.5833 94.8893 45.8981 95.0172 46.3066C96.1772 49.3954 97.8915 51.7864 100.152 53.4798C100.595 53.7691 100.851 54.0584 100.936 54.3307C101.022 54.637 100.902 54.9944 100.595 55.4028C100.314 55.7772 100.032 55.9729 99.7423 55.9899C99.4523 56.007 99.1027 55.8708 98.7189 55.573C98.2753 55.2326 97.7635 54.7476 97.175 54.1349C97.175 54.203 97.175 54.3477 97.1665 54.5774C97.1579 54.8072 97.1495 54.9603 97.1324 55.0369C96.9533 58.6618 96.7486 61.2656 96.5183 62.8483C96.271 64.4395 95.9383 65.4776 95.5119 65.9456C95.0683 66.4987 94.4116 66.822 93.5331 66.9241C92.7825 66.9582 92.0661 66.9667 91.3837 66.9496C90.5052 66.9156 89.9849 66.5327 89.8143 65.8009V65.7754L89.7888 65.7244C89.4647 65.0266 89.7546 64.7118 90.6672 64.7968C91.2216 64.8139 91.8614 64.8224 92.5778 64.8224C93.0214 64.8224 93.3454 64.7288 93.5586 64.5331C93.8486 64.2267 94.0961 63.4354 94.2837 62.1675C94.4713 60.8997 94.6504 58.8915 94.8125 56.1431H89.26C88.7738 58.5852 87.9976 60.6444 86.9399 62.3292C85.8823 64.014 84.492 65.3925 82.7777 66.4646C82.1209 66.8476 81.558 66.805 81.0889 66.3455Z" fill="#0569AA"/>
<path d="M105.21 66.0562C105.048 65.9286 104.928 65.6818 104.843 65.3244C104.757 64.9671 104.775 64.6947 104.894 64.5075C105.005 64.3203 105.235 64.1927 105.576 64.1331C106.523 63.9715 107.47 63.8013 108.417 63.6226V56.7132H105.849C105.201 56.7132 104.868 56.3814 104.868 55.7091C104.868 55.0624 105.193 54.7306 105.849 54.7306H108.417V52.5097H107.094C106.787 52.5097 106.54 52.4246 106.361 52.2374C106.182 52.0587 106.088 51.812 106.088 51.5056L106.062 51.4546C105.576 51.9141 105.116 51.9141 104.689 51.4801C104.203 50.9611 104.254 50.4165 104.86 49.8464C106.097 48.5955 107.137 47.1235 107.964 45.4302C108.067 45.2004 108.246 45.0047 108.519 44.843C108.792 44.6814 109.073 44.5963 109.389 44.5963H109.466C109.986 44.5963 110.446 44.7664 110.839 45.1068C112.076 46.213 113.082 47.2341 113.85 48.1786C114.046 48.4253 114.131 48.6466 114.123 48.8593C114.088 49.055 113.969 49.2848 113.756 49.54C113.449 49.8974 113.176 50.0846 112.946 50.1016C112.698 50.1187 112.451 49.9485 112.187 49.5911C111.291 48.4168 110.421 47.4553 109.594 46.6895C108.911 47.8978 108.144 49.021 107.291 50.0846C107.009 50.408 107.069 50.5696 107.461 50.5696H109.884H111.965C112.604 50.5696 112.92 50.8845 112.92 51.5227C112.92 52.1779 112.604 52.5012 111.965 52.5012H110.378V54.7221H112.681C113.329 54.7221 113.662 55.0454 113.662 55.7006C113.662 56.3643 113.338 56.7047 112.681 56.7047H110.378V63.2482C110.933 63.1546 111.76 62.9844 112.877 62.7632C113.543 62.6356 113.909 62.9079 113.952 63.5971C114.003 64.1672 113.739 64.5161 113.167 64.6437C110.805 65.1798 108.4 65.6818 105.952 66.1583C105.619 66.2179 105.372 66.1838 105.21 66.0562ZM106.037 61.8102C106.003 61.5804 105.943 61.2145 105.866 60.7125C105.849 60.6189 105.841 60.5423 105.841 60.4912C105.747 59.9892 105.627 59.4617 105.5 58.9086C105.355 58.4235 105.525 58.1172 106.028 57.9896C106.523 57.8704 106.839 58.0406 106.967 58.5172C107.274 59.6574 107.495 60.687 107.623 61.6145C107.674 62.0059 107.461 62.2697 106.984 62.3973C106.404 62.542 106.088 62.3462 106.037 61.8102ZM111.717 62.0059C111.231 61.8782 111.052 61.5889 111.18 61.155C111.453 60.1339 111.658 59.2319 111.794 58.4746C111.888 57.9045 112.238 57.6918 112.818 57.8364C113.355 57.9811 113.551 58.3214 113.406 58.8575C113.355 59.0022 113.287 59.2319 113.201 59.5382C113.108 59.8446 113.039 60.0828 112.997 60.2445C112.929 60.4742 112.835 60.7976 112.707 61.223C112.656 61.3847 112.622 61.5038 112.613 61.5889C112.468 61.9974 112.169 62.1335 111.717 62.0059ZM114.063 66.4987C113.457 66.4987 113.159 66.2009 113.159 65.5967C113.159 64.9926 113.457 64.6947 114.063 64.6947H118.933V63.1121H115.214C114.66 63.1121 114.387 62.8313 114.387 62.2612C114.387 61.7081 114.668 61.4273 115.214 61.4273H118.933V60.1084H116.144C115.666 60.1084 115.291 59.9637 114.993 59.6659C114.703 59.3766 114.549 58.9937 114.549 58.5172V54.4668C114.549 53.9988 114.694 53.6159 114.993 53.3181C115.283 53.0288 115.666 52.8756 116.144 52.8756H124.093C124.562 52.8756 124.946 53.0203 125.245 53.3181C125.535 53.6074 125.688 53.9903 125.688 54.4668V58.5172C125.688 58.9937 125.543 59.368 125.245 59.6659C124.955 59.9552 124.571 60.1084 124.093 60.1084H121.014V61.4273H124.929C125.484 61.4273 125.765 61.7081 125.765 62.2612C125.765 62.8313 125.484 63.1121 124.929 63.1121H121.014V64.6947H125.756C126.362 64.6947 126.661 64.9926 126.661 65.5967C126.661 66.2009 126.362 66.4987 125.756 66.4987H119.905H114.063ZM114.336 51.88C113.747 51.88 113.457 51.5907 113.457 51.0036C113.457 50.4165 113.747 50.1272 114.336 50.1272H116.588C116.494 49.7017 116.332 49.2337 116.127 48.7147C116.042 48.5189 116.042 48.3488 116.118 48.2041C116.195 48.0594 116.332 47.9573 116.545 47.9148L116.622 47.8893H114.959C114.404 47.8893 114.131 47.617 114.131 47.0554C114.131 46.5023 114.413 46.2215 114.959 46.2215H118.899V45.762C118.899 45.0642 119.257 44.7154 119.974 44.7154C120.673 44.7154 121.023 45.0642 121.023 45.762V46.2215H125.279C125.833 46.2215 126.115 46.5023 126.115 47.0554C126.115 47.6085 125.833 47.8893 125.279 47.8893H123.59L124.008 48.0084C124.204 48.0595 124.264 48.1701 124.179 48.3488C123.854 49.0125 123.539 49.6081 123.249 50.1272H125.722C126.311 50.1272 126.601 50.4165 126.601 51.0036C126.601 51.5907 126.311 51.88 125.722 51.88H120.025H114.336ZM116.366 55.7857H118.933V54.3221H117.637H116.929C116.553 54.3221 116.366 54.5094 116.366 54.8838V55.7857ZM116.946 58.6618H118.925V57.1727H117.628H116.357V58.0747C116.366 58.4661 116.562 58.6618 116.946 58.6618ZM118.2 50.1187H121.5L121.33 50.0676C121.722 49.3358 122.038 48.604 122.285 47.8723H120.008H117.731C118.123 48.587 118.387 49.2252 118.541 49.7783C118.575 49.94 118.481 50.0506 118.268 50.0931L118.2 50.1187ZM121.014 55.7857H122.405H123.82V54.9093C123.82 54.5179 123.624 54.3221 123.232 54.3221H121.006V55.7857H121.014ZM121.014 58.6618H122.405H123.24C123.633 58.6618 123.829 58.4661 123.829 58.0747V57.1727H121.014V58.6618Z" fill="#0569AA"/>
<path d="M58.9727 70.9574C54.563 70.9574 50.8954 69.8002 48.0552 67.5197C44.9932 65.001 43.4494 61.6995 43.4494 57.6662C43.4494 55.5815 44.1574 53.7861 45.5135 52.4671C46.6308 51.2929 48.0808 50.5611 49.8208 50.2888C49.727 49.8123 49.6758 49.3103 49.6758 48.7912C49.6758 48.1871 49.7354 47.617 49.8463 47.0809C46.3237 46.23 44.2938 43.4475 44.2938 39.2865C44.2938 35.4149 45.8718 32.2325 48.857 30.0797C51.5266 28.1396 55.0066 27.144 59.1859 27.144C63.4249 27.144 66.9475 28.5055 69.6427 31.2029C72.1759 33.8237 73.4467 37.0401 73.4467 40.8012C73.4467 43.6687 72.8582 46.1704 71.6982 48.2466C72.3891 48.9869 72.9094 49.6677 73.2762 50.2973C74.1462 51.7439 74.5982 53.5138 74.5982 55.5219C74.5982 59.9551 73.3103 63.597 70.7685 66.3455C67.9624 69.4088 63.9878 70.9574 58.9727 70.9574Z" fill="#0569AA"/>
<path d="M71.792 55.5304C71.792 59.2574 70.76 62.2271 68.7044 64.4565C66.4357 66.9241 63.1946 68.1665 58.9727 68.1665C55.2027 68.1665 52.1493 67.2305 49.8123 65.3499C47.4411 63.4014 46.2555 60.8401 46.2555 57.6747C46.2555 56.3133 46.6734 55.2411 47.5093 54.4413C48.4134 53.4712 49.7269 52.9777 51.4327 52.9777C53.3518 52.9777 54.708 53.4627 55.5183 54.4413C55.5865 54.5434 56.0215 55.4368 56.8233 57.1046C57.2753 58.0832 58.0259 58.5682 59.075 58.5682C60.6785 58.5682 61.4802 57.7343 61.4802 56.0665C61.4802 54.9518 60.9941 54.169 60.0132 53.718C59.6635 53.5819 58.6144 53.3861 56.8744 53.1479C55.4415 52.9351 54.4351 52.5608 53.838 51.9992C52.9339 51.1993 52.4734 50.1357 52.4734 48.8167C52.4734 46.5533 53.5737 45.1834 55.7742 44.6899C56.9939 44.4431 58.2306 44.2048 59.4929 43.9581C60.2606 43.6092 60.6444 42.6221 60.6444 40.9799C60.6444 40.0779 60.107 39.6184 59.0238 39.6184C58.2561 39.6184 57.7529 40.0694 57.5055 40.9799C57.1217 42.1967 56.772 42.9795 56.4565 43.3284C55.6888 44.1623 54.3071 44.5792 52.3198 44.5792C48.8314 44.5792 47.0828 42.8263 47.0828 39.3036C47.0828 36.3084 48.2172 33.9939 50.486 32.3601C52.6865 30.7604 55.578 29.9606 59.1688 29.9606C62.6573 29.9606 65.4804 31.0412 67.6468 33.194C69.6341 35.2447 70.632 37.789 70.632 40.8182C70.632 44.0942 69.7621 46.681 68.0136 48.5955C69.4124 49.8464 70.3506 50.893 70.8367 51.7269C71.4764 52.7565 71.792 54.0328 71.792 55.5304Z" fill="white" stroke="#0569AA" stroke-width="2" stroke-miterlimit="10"/>
</svg>
