<svg width="159" height="138" viewBox="0 0 159 138" fill="none" xmlns="http://www.w3.org/2000/svg">
<mask id="mask0_17_4974" style="mask-type:luminance" maskUnits="userSpaceOnUse" x="58" y="0" width="101" height="101">
<path d="M108.66 100.7C136.241 100.7 158.6 78.3411 158.6 50.76C158.6 23.1789 136.241 0.820068 108.66 0.820068C81.0788 0.820068 58.7199 23.1789 58.7199 50.76C58.7199 78.3411 81.0788 100.7 108.66 100.7Z" fill="white"/>
</mask>
<g mask="url(#mask0_17_4974)">
<path d="M56.9998 9.47998C58.364 9.47998 59.4699 8.37415 59.4699 7.01001C59.4699 5.64587 58.364 4.54004 56.9998 4.54004C55.6357 4.54004 54.5298 5.64587 54.5298 7.01001C54.5298 8.37415 55.6357 9.47998 56.9998 9.47998Z" fill="#E59816"/>
<path d="M58.8299 47.05C60.194 47.05 61.2999 45.9442 61.2999 44.5801C61.2999 43.2159 60.194 42.1101 58.8299 42.1101C57.4658 42.1101 56.3599 43.2159 56.3599 44.5801C56.3599 45.9442 57.4658 47.05 58.8299 47.05Z" fill="#E59816"/>
<path d="M62.1298 35.6599C63.494 35.6599 64.5999 34.5541 64.5999 33.1899C64.5999 31.8258 63.494 30.72 62.1298 30.72C60.7657 30.72 59.6599 31.8258 59.6599 33.1899C59.6599 34.5541 60.7657 35.6599 62.1298 35.6599Z" fill="#E59816"/>
<path d="M65.4199 24.26C66.784 24.26 67.8898 23.1542 67.8898 21.79C67.8898 20.4259 66.784 19.3201 65.4199 19.3201C64.0557 19.3201 62.9499 20.4259 62.9499 21.79C62.9499 23.1542 64.0557 24.26 65.4199 24.26Z" fill="#E59816"/>
<path d="M68.7099 12.8601C70.074 12.8601 71.1799 11.754 71.1799 10.3899C71.1799 9.02575 70.074 7.91992 68.7099 7.91992C67.3458 7.91992 66.2399 9.02575 66.2399 10.3899C66.2399 11.754 67.3458 12.8601 68.7099 12.8601Z" fill="#E59816"/>
<path d="M72.0098 1.45996C73.374 1.45996 74.4799 0.354134 74.4799 -1.01001C74.4799 -2.37415 73.374 -3.47998 72.0098 -3.47998C70.6457 -3.47998 69.5399 -2.37415 69.5399 -1.01001C69.5399 0.354134 70.6457 1.45996 72.0098 1.45996Z" fill="#E59816"/>
<path d="M57.3699 96.03C58.7341 96.03 59.8399 94.9242 59.8399 93.5601C59.8399 92.1959 58.7341 91.0901 57.3699 91.0901C56.0058 91.0901 54.8998 92.1959 54.8998 93.5601C54.8998 94.9242 56.0058 96.03 57.3699 96.03Z" fill="#E59816"/>
<path d="M60.6599 84.6298C62.024 84.6298 63.1298 83.524 63.1298 82.1599C63.1298 80.7957 62.024 79.6899 60.6599 79.6899C59.2957 79.6899 58.1899 80.7957 58.1899 82.1599C58.1899 83.524 59.2957 84.6298 60.6599 84.6298Z" fill="#E59816"/>
<path d="M63.9599 73.23C65.324 73.23 66.4299 72.1242 66.4299 70.76C66.4299 69.3959 65.324 68.29 63.9599 68.29C62.5958 68.29 61.4899 69.3959 61.4899 70.76C61.4899 72.1242 62.5958 73.23 63.9599 73.23Z" fill="#E59816"/>
<path d="M67.2498 61.8301C68.614 61.8301 69.7199 60.7243 69.7199 59.3601C69.7199 57.996 68.614 56.8899 67.2498 56.8899C65.8857 56.8899 64.7798 57.996 64.7798 59.3601C64.7798 60.7243 65.8857 61.8301 67.2498 61.8301Z" fill="#E59816"/>
<path d="M70.5399 50.4399C71.904 50.4399 73.0098 49.3341 73.0098 47.97C73.0098 46.6058 71.904 45.5 70.5399 45.5C69.1757 45.5 68.0699 46.6058 68.0699 47.97C68.0699 49.3341 69.1757 50.4399 70.5399 50.4399Z" fill="#E59816"/>
<path d="M73.8399 39.04C75.204 39.04 76.3099 37.9342 76.3099 36.5701C76.3099 35.2059 75.204 34.1001 73.8399 34.1001C72.4758 34.1001 71.3699 35.2059 71.3699 36.5701C71.3699 37.9342 72.4758 39.04 73.8399 39.04Z" fill="#E59816"/>
<path d="M77.1298 27.6399C78.494 27.6399 79.5999 26.5341 79.5999 25.1699C79.5999 23.8058 78.494 22.7 77.1298 22.7C75.7657 22.7 74.6599 23.8058 74.6599 25.1699C74.6599 26.5341 75.7657 27.6399 77.1298 27.6399Z" fill="#E59816"/>
<path d="M80.4199 16.24C81.784 16.24 82.8898 15.1342 82.8898 13.77C82.8898 12.4059 81.784 11.3 80.4199 11.3C79.0557 11.3 77.9499 12.4059 77.9499 13.77C77.9499 15.1342 79.0557 16.24 80.4199 16.24Z" fill="#E59816"/>
<path d="M83.7199 4.8501C85.0841 4.8501 86.1899 3.74403 86.1899 2.37988C86.1899 1.01574 85.0841 -0.0900879 83.7199 -0.0900879C82.3558 -0.0900879 81.2498 1.01574 81.2498 2.37988C81.2498 3.74403 82.3558 4.8501 83.7199 4.8501Z" fill="#E59816"/>
<path d="M69.0799 99.4099C70.444 99.4099 71.5499 98.3041 71.5499 96.9399C71.5499 95.5758 70.444 94.47 69.0799 94.47C67.7158 94.47 66.6099 95.5758 66.6099 96.9399C66.6099 98.3041 67.7158 99.4099 69.0799 99.4099Z" fill="#E59816"/>
<path d="M72.3699 88.01C73.7341 88.01 74.8399 86.9042 74.8399 85.54C74.8399 84.1759 73.7341 83.0701 72.3699 83.0701C71.0058 83.0701 69.8998 84.1759 69.8998 85.54C69.8998 86.9042 71.0058 88.01 72.3699 88.01Z" fill="#E59816"/>
<path d="M75.6699 76.6201C77.034 76.6201 78.1398 75.514 78.1398 74.1499C78.1398 72.7858 77.034 71.6799 75.6699 71.6799C74.3057 71.6799 73.1999 72.7858 73.1999 74.1499C73.1999 75.514 74.3057 76.6201 75.6699 76.6201Z" fill="#E59816"/>
<path d="M78.9599 65.22C80.324 65.22 81.4299 64.1141 81.4299 62.75C81.4299 61.3859 80.324 60.28 78.9599 60.28C77.5958 60.28 76.4899 61.3859 76.4899 62.75C76.4899 64.1141 77.5958 65.22 78.9599 65.22Z" fill="#E59816"/>
<path d="M82.2498 53.8201C83.614 53.8201 84.7199 52.7142 84.7199 51.3501C84.7199 49.986 83.614 48.8799 82.2498 48.8799C80.8857 48.8799 79.7798 49.986 79.7798 51.3501C79.7798 52.7142 80.8857 53.8201 82.2498 53.8201Z" fill="#E59816"/>
<path d="M85.5499 42.4199C86.914 42.4199 88.0198 41.3141 88.0198 39.95C88.0198 38.5858 86.914 37.48 85.5499 37.48C84.1857 37.48 83.0799 38.5858 83.0799 39.95C83.0799 41.3141 84.1857 42.4199 85.5499 42.4199Z" fill="#E59816"/>
<path d="M88.8399 31.02C90.204 31.02 91.3099 29.9142 91.3099 28.55C91.3099 27.1859 90.204 26.0801 88.8399 26.0801C87.4758 26.0801 86.3699 27.1859 86.3699 28.55C86.3699 29.9142 87.4758 31.02 88.8399 31.02Z" fill="#E59816"/>
<path d="M92.1298 19.6299C93.494 19.6299 94.5999 18.5241 94.5999 17.1599C94.5999 15.7958 93.494 14.6899 92.1298 14.6899C90.7657 14.6899 89.6599 15.7958 89.6599 17.1599C89.6599 18.5241 90.7657 19.6299 92.1298 19.6299Z" fill="#E59816"/>
<path d="M95.4299 8.22998C96.794 8.22998 97.8998 7.12415 97.8998 5.76001C97.8998 4.39587 96.794 3.29004 95.4299 3.29004C94.0657 3.29004 92.9599 4.39587 92.9599 5.76001C92.9599 7.12415 94.0657 8.22998 95.4299 8.22998Z" fill="#E59816"/>
<path d="M80.7899 102.8C82.154 102.8 83.2598 101.694 83.2598 100.33C83.2598 98.9659 82.154 97.8601 80.7899 97.8601C79.4257 97.8601 78.3199 98.9659 78.3199 100.33C78.3199 101.694 79.4257 102.8 80.7899 102.8Z" fill="#E59816"/>
<path d="M84.0799 91.3999C85.444 91.3999 86.5499 90.2941 86.5499 88.9299C86.5499 87.5658 85.444 86.46 84.0799 86.46C82.7158 86.46 81.6099 87.5658 81.6099 88.9299C81.6099 90.2941 82.7158 91.3999 84.0799 91.3999Z" fill="#E59816"/>
<path d="M87.3798 79.9999C88.744 79.9999 89.8499 78.8941 89.8499 77.53C89.8499 76.1658 88.744 75.06 87.3798 75.06C86.0157 75.06 84.9099 76.1658 84.9099 77.53C84.9099 78.8941 86.0157 79.9999 87.3798 79.9999Z" fill="#E59816"/>
<path d="M90.6699 68.6001C92.034 68.6001 93.1398 67.494 93.1398 66.1299C93.1398 64.7657 92.034 63.6599 90.6699 63.6599C89.3057 63.6599 88.1999 64.7657 88.1999 66.1299C88.1999 67.494 89.3057 68.6001 90.6699 68.6001Z" fill="#E59816"/>
<path d="M93.9599 57.2C95.324 57.2 96.4299 56.0941 96.4299 54.73C96.4299 53.3658 95.324 52.26 93.9599 52.26C92.5958 52.26 91.4899 53.3658 91.4899 54.73C91.4899 56.0941 92.5958 57.2 93.9599 57.2Z" fill="#E59816"/>
<path d="M97.2598 45.8101C98.624 45.8101 99.7299 44.7042 99.7299 43.3401C99.7299 41.9759 98.624 40.8701 97.2598 40.8701C95.8957 40.8701 94.7899 41.9759 94.7899 43.3401C94.7899 44.7042 95.8957 45.8101 97.2598 45.8101Z" fill="#E59816"/>
<path d="M100.55 34.4099C101.914 34.4099 103.02 33.3041 103.02 31.9399C103.02 30.5758 101.914 29.47 100.55 29.47C99.1857 29.47 98.0799 30.5758 98.0799 31.9399C98.0799 33.3041 99.1857 34.4099 100.55 34.4099Z" fill="#E59816"/>
<path d="M103.84 23.01C105.204 23.01 106.31 21.9042 106.31 20.54C106.31 19.1759 105.204 18.0701 103.84 18.0701C102.476 18.0701 101.37 19.1759 101.37 20.54C101.37 21.9042 102.476 23.01 103.84 23.01Z" fill="#E59816"/>
<path d="M107.14 11.6101C108.504 11.6101 109.61 10.504 109.61 9.13989C109.61 7.77575 108.504 6.66992 107.14 6.66992C105.776 6.66992 104.67 7.77575 104.67 9.13989C104.67 10.504 105.776 11.6101 107.14 11.6101Z" fill="#E59816"/>
<path d="M95.7899 94.78C97.154 94.78 98.2598 93.6742 98.2598 92.3101C98.2598 90.9459 97.154 89.8401 95.7899 89.8401C94.4257 89.8401 93.3199 90.9459 93.3199 92.3101C93.3199 93.6742 94.4257 94.78 95.7899 94.78Z" fill="#E59816"/>
<path d="M99.0899 83.3798C100.454 83.3798 101.56 82.274 101.56 80.9099C101.56 79.5457 100.454 78.4399 99.0899 78.4399C97.7258 78.4399 96.6199 79.5457 96.6199 80.9099C96.6199 82.274 97.7258 83.3798 99.0899 83.3798Z" fill="#E59816"/>
<path d="M102.38 71.99C103.744 71.99 104.85 70.8842 104.85 69.52C104.85 68.1559 103.744 67.05 102.38 67.05C101.016 67.05 99.9099 68.1559 99.9099 69.52C99.9099 70.8842 101.016 71.99 102.38 71.99Z" fill="#E59816"/>
<path d="M105.67 60.5901C107.034 60.5901 108.14 59.4843 108.14 58.1201C108.14 56.756 107.034 55.6499 105.67 55.6499C104.306 55.6499 103.2 56.756 103.2 58.1201C103.2 59.4843 104.306 60.5901 105.67 60.5901Z" fill="#E59816"/>
<path d="M108.97 49.1899C110.334 49.1899 111.44 48.0841 111.44 46.72C111.44 45.3558 110.334 44.25 108.97 44.25C107.606 44.25 106.5 45.3558 106.5 46.72C106.5 48.0841 107.606 49.1899 108.97 49.1899Z" fill="#E59816"/>
<path d="M112.26 37.79C113.624 37.79 114.73 36.6842 114.73 35.3201C114.73 33.9559 113.624 32.8501 112.26 32.8501C110.896 32.8501 109.79 33.9559 109.79 35.3201C109.79 36.6842 110.896 37.79 112.26 37.79Z" fill="#E59816"/>
<path d="M115.56 26.3999C116.924 26.3999 118.03 25.2941 118.03 23.9299C118.03 22.5658 116.924 21.46 115.56 21.46C114.196 21.46 113.09 22.5658 113.09 23.9299C113.09 25.2941 114.196 26.3999 115.56 26.3999Z" fill="#E59816"/>
<path d="M118.85 15C120.214 15 121.32 13.8942 121.32 12.53C121.32 11.1659 120.214 10.0601 118.85 10.0601C117.486 10.0601 116.38 11.1659 116.38 12.53C116.38 13.8942 117.486 15 118.85 15Z" fill="#E59816"/>
<path d="M122.14 3.6001C123.504 3.6001 124.61 2.49403 124.61 1.12988C124.61 -0.234261 123.504 -1.34009 122.14 -1.34009C120.776 -1.34009 119.67 -0.234261 119.67 1.12988C119.67 2.49403 120.776 3.6001 122.14 3.6001Z" fill="#E59816"/>
<path d="M107.51 98.1699C108.874 98.1699 109.98 97.0641 109.98 95.7C109.98 94.3358 108.874 93.23 107.51 93.23C106.146 93.23 105.04 94.3358 105.04 95.7C105.04 97.0641 106.146 98.1699 107.51 98.1699Z" fill="#E59816"/>
<path d="M110.8 86.77C112.164 86.77 113.27 85.6642 113.27 84.3C113.27 82.9359 112.164 81.8301 110.8 81.8301C109.436 81.8301 108.33 82.9359 108.33 84.3C108.33 85.6642 109.436 86.77 110.8 86.77Z" fill="#E59816"/>
<path d="M114.09 75.3701C115.454 75.3701 116.56 74.264 116.56 72.8999C116.56 71.5358 115.454 70.4299 114.09 70.4299C112.726 70.4299 111.62 71.5358 111.62 72.8999C111.62 74.264 112.726 75.3701 114.09 75.3701Z" fill="#E59816"/>
<path d="M117.39 63.97C118.754 63.97 119.86 62.8641 119.86 61.5C119.86 60.1359 118.754 59.03 117.39 59.03C116.026 59.03 114.92 60.1359 114.92 61.5C114.92 62.8641 116.026 63.97 117.39 63.97Z" fill="#E59816"/>
<path d="M120.68 52.5701C122.044 52.5701 123.15 51.4642 123.15 50.1001C123.15 48.736 122.044 47.6299 120.68 47.6299C119.316 47.6299 118.21 48.736 118.21 50.1001C118.21 51.4642 119.316 52.5701 120.68 52.5701Z" fill="#E59816"/>
<path d="M123.97 41.1799C125.334 41.1799 126.44 40.0741 126.44 38.71C126.44 37.3458 125.334 36.24 123.97 36.24C122.606 36.24 121.5 37.3458 121.5 38.71C121.5 40.0741 122.606 41.1799 123.97 41.1799Z" fill="#E59816"/>
<path d="M127.27 29.78C128.634 29.78 129.74 28.6742 129.74 27.3101C129.74 25.9459 128.634 24.8401 127.27 24.8401C125.906 24.8401 124.8 25.9459 124.8 27.3101C124.8 28.6742 125.906 29.78 127.27 29.78Z" fill="#E59816"/>
<path d="M130.56 18.3799C131.924 18.3799 133.03 17.2741 133.03 15.9099C133.03 14.5458 131.924 13.4399 130.56 13.4399C129.196 13.4399 128.09 14.5458 128.09 15.9099C128.09 17.2741 129.196 18.3799 130.56 18.3799Z" fill="#E59816"/>
<path d="M133.85 6.97998C135.214 6.97998 136.32 5.87415 136.32 4.51001C136.32 3.14587 135.214 2.04004 133.85 2.04004C132.486 2.04004 131.38 3.14587 131.38 4.51001C131.38 5.87415 132.486 6.97998 133.85 6.97998Z" fill="#E59816"/>
<path d="M119.22 101.55C120.584 101.55 121.69 100.444 121.69 99.0801C121.69 97.7159 120.584 96.6101 119.22 96.6101C117.856 96.6101 116.75 97.7159 116.75 99.0801C116.75 100.444 117.856 101.55 119.22 101.55Z" fill="#E59816"/>
<path d="M122.51 90.1499C123.874 90.1499 124.98 89.0441 124.98 87.6799C124.98 86.3158 123.874 85.21 122.51 85.21C121.146 85.21 120.04 86.3158 120.04 87.6799C120.04 89.0441 121.146 90.1499 122.51 90.1499Z" fill="#E59816"/>
<path d="M125.8 78.75C127.164 78.75 128.27 77.6442 128.27 76.28C128.27 74.9159 127.164 73.8101 125.8 73.8101C124.436 73.8101 123.33 74.9159 123.33 76.28C123.33 77.6442 124.436 78.75 125.8 78.75Z" fill="#E59816"/>
<path d="M129.1 67.3601C130.464 67.3601 131.57 66.254 131.57 64.8899C131.57 63.5257 130.464 62.4199 129.1 62.4199C127.736 62.4199 126.63 63.5257 126.63 64.8899C126.63 66.254 127.736 67.3601 129.1 67.3601Z" fill="#E59816"/>
<path d="M132.39 55.96C133.754 55.96 134.86 54.8541 134.86 53.49C134.86 52.1258 133.754 51.02 132.39 51.02C131.026 51.02 129.92 52.1258 129.92 53.49C129.92 54.8541 131.026 55.96 132.39 55.96Z" fill="#E59816"/>
<path d="M135.68 44.5601C137.044 44.5601 138.15 43.4542 138.15 42.0901C138.15 40.7259 137.044 39.6201 135.68 39.6201C134.316 39.6201 133.21 40.7259 133.21 42.0901C133.21 43.4542 134.316 44.5601 135.68 44.5601Z" fill="#E59816"/>
<path d="M138.98 33.1599C140.344 33.1599 141.45 32.0541 141.45 30.6899C141.45 29.3258 140.344 28.22 138.98 28.22C137.616 28.22 136.51 29.3258 136.51 30.6899C136.51 32.0541 137.616 33.1599 138.98 33.1599Z" fill="#E59816"/>
<path d="M142.27 21.77C143.634 21.77 144.74 20.6642 144.74 19.3C144.74 17.9359 143.634 16.8301 142.27 16.8301C140.906 16.8301 139.8 17.9359 139.8 19.3C139.8 20.6642 140.906 21.77 142.27 21.77Z" fill="#E59816"/>
<path d="M145.56 10.3701C146.924 10.3701 148.03 9.26405 148.03 7.8999C148.03 6.53576 146.924 5.42993 145.56 5.42993C144.196 5.42993 143.09 6.53576 143.09 7.8999C143.09 9.26405 144.196 10.3701 145.56 10.3701Z" fill="#E59816"/>
<path d="M130.93 104.93C132.294 104.93 133.4 103.824 133.4 102.46C133.4 101.096 132.294 99.99 130.93 99.99C129.566 99.99 128.46 101.096 128.46 102.46C128.46 103.824 129.566 104.93 130.93 104.93Z" fill="#E59816"/>
<path d="M134.22 93.54C135.584 93.54 136.69 92.4342 136.69 91.0701C136.69 89.7059 135.584 88.6001 134.22 88.6001C132.856 88.6001 131.75 89.7059 131.75 91.0701C131.75 92.4342 132.856 93.54 134.22 93.54Z" fill="#E59816"/>
<path d="M137.51 82.1398C138.874 82.1398 139.98 81.034 139.98 79.6699C139.98 78.3057 138.874 77.1999 137.51 77.1999C136.146 77.1999 135.04 78.3057 135.04 79.6699C135.04 81.034 136.146 82.1398 137.51 82.1398Z" fill="#E59816"/>
<path d="M140.81 70.74C142.174 70.74 143.28 69.6342 143.28 68.27C143.28 66.9059 142.174 65.8 140.81 65.8C139.446 65.8 138.34 66.9059 138.34 68.27C138.34 69.6342 139.446 70.74 140.81 70.74Z" fill="#E59816"/>
<path d="M144.1 59.3401C145.464 59.3401 146.57 58.2343 146.57 56.8701C146.57 55.506 145.464 54.3999 144.1 54.3999C142.736 54.3999 141.63 55.506 141.63 56.8701C141.63 58.2343 142.736 59.3401 144.1 59.3401Z" fill="#E59816"/>
<path d="M147.39 47.9399C148.754 47.9399 149.86 46.8341 149.86 45.47C149.86 44.1058 148.754 43 147.39 43C146.026 43 144.92 44.1058 144.92 45.47C144.92 46.8341 146.026 47.9399 147.39 47.9399Z" fill="#E59816"/>
<path d="M150.69 36.55C152.054 36.55 153.16 35.4442 153.16 34.0801C153.16 32.7159 152.054 31.6101 150.69 31.6101C149.326 31.6101 148.22 32.7159 148.22 34.0801C148.22 35.4442 149.326 36.55 150.69 36.55Z" fill="#E59816"/>
<path d="M153.98 25.1499C155.344 25.1499 156.45 24.0441 156.45 22.6799C156.45 21.3158 155.344 20.21 153.98 20.21C152.616 20.21 151.51 21.3158 151.51 22.6799C151.51 24.0441 152.616 25.1499 153.98 25.1499Z" fill="#E59816"/>
<path d="M157.27 13.75C158.634 13.75 159.74 12.6442 159.74 11.28C159.74 9.91589 158.634 8.81006 157.27 8.81006C155.906 8.81006 154.8 9.91589 154.8 11.28C154.8 12.6442 155.906 13.75 157.27 13.75Z" fill="#E59816"/>
<path d="M160.57 2.3501C161.934 2.3501 163.04 1.24403 163.04 -0.120117C163.04 -1.48426 161.934 -2.59009 160.57 -2.59009C159.206 -2.59009 158.1 -1.48426 158.1 -0.120117C158.1 1.24403 159.206 2.3501 160.57 2.3501Z" fill="#E59816"/>
<path d="M145.93 96.9199C147.294 96.9199 148.4 95.8141 148.4 94.45C148.4 93.0858 147.294 91.98 145.93 91.98C144.566 91.98 143.46 93.0858 143.46 94.45C143.46 95.8141 144.566 96.9199 145.93 96.9199Z" fill="#E59816"/>
<path d="M149.22 85.52C150.584 85.52 151.69 84.4142 151.69 83.05C151.69 81.6859 150.584 80.5801 149.22 80.5801C147.856 80.5801 146.75 81.6859 146.75 83.05C146.75 84.4142 147.856 85.52 149.22 85.52Z" fill="#E59816"/>
<path d="M152.52 74.1201C153.884 74.1201 154.99 73.014 154.99 71.6499C154.99 70.2858 153.884 69.1799 152.52 69.1799C151.156 69.1799 150.05 70.2858 150.05 71.6499C150.05 73.014 151.156 74.1201 152.52 74.1201Z" fill="#E59816"/>
<path d="M155.81 62.73C157.174 62.73 158.28 61.6242 158.28 60.26C158.28 58.8959 157.174 57.79 155.81 57.79C154.446 57.79 153.34 58.8959 153.34 60.26C153.34 61.6242 154.446 62.73 155.81 62.73Z" fill="#E59816"/>
<path d="M159.1 51.3301C160.464 51.3301 161.57 50.2243 161.57 48.8601C161.57 47.496 160.464 46.3899 159.1 46.3899C157.736 46.3899 156.63 47.496 156.63 48.8601C156.63 50.2243 157.736 51.3301 159.1 51.3301Z" fill="#E59816"/>
<path d="M157.64 100.3C159.004 100.3 160.11 99.1942 160.11 97.8301C160.11 96.4659 159.004 95.3601 157.64 95.3601C156.276 95.3601 155.17 96.4659 155.17 97.8301C155.17 99.1942 156.276 100.3 157.64 100.3Z" fill="#E59816"/>
<path d="M160.94 88.9099C162.304 88.9099 163.41 87.8041 163.41 86.4399C163.41 85.0758 162.304 83.97 160.94 83.97C159.576 83.97 158.47 85.0758 158.47 86.4399C158.47 87.8041 159.576 88.9099 160.94 88.9099Z" fill="#E59816"/>
</g>
<path d="M113.9 24.4199H9.3399C6.2199 24.4199 3.68988 26.9501 3.68988 30.0701V101.8C3.68988 104.92 6.2199 107.45 9.3399 107.45H21.8499V134.19C21.8499 135.13 22.6099 135.89 23.5499 135.89H103.56C104.5 135.89 105.26 135.13 105.26 134.19V107.45H113.9C117.02 107.45 119.55 104.92 119.55 101.8V30.0701C119.55 26.9501 117.02 24.4199 113.9 24.4199Z" fill="white"/>
<path d="M105.15 107.19H114.18C117.12 107.19 119.51 104.81 119.51 101.86V29.8601C119.51 26.8601 117.07 24.4199 114.07 24.4199H9.14984C6.14984 24.4199 3.7099 26.8601 3.7099 29.8601V101.86C3.7099 104.8 6.08986 107.19 9.03986 107.19H20.8099" stroke="#0569AA" stroke-width="6" stroke-miterlimit="10" stroke-linecap="round" stroke-linejoin="round"/>
<path d="M17.3199 35.3501C17.3199 34.8201 16.8899 34.3999 16.3699 34.3999C15.8399 34.3999 15.4199 34.8301 15.4199 35.3501C15.4199 35.8701 15.8499 36.3 16.3699 36.3C16.8999 36.31 17.3199 35.8801 17.3199 35.3501Z" stroke="#0569AA" stroke-width="4" stroke-miterlimit="10" stroke-linecap="round" stroke-linejoin="round" stroke-dasharray="8 8"/>
<path d="M27.2299 36.3C27.7546 36.3 28.1799 35.8748 28.1799 35.3501C28.1799 34.8254 27.7546 34.3999 27.2299 34.3999C26.7052 34.3999 26.2798 34.8254 26.2798 35.3501C26.2798 35.8748 26.7052 36.3 27.2299 36.3Z" stroke="#0569AA" stroke-width="4" stroke-miterlimit="10" stroke-linecap="round" stroke-linejoin="round" stroke-dasharray="8 8"/>
<path d="M39.0399 35.3501C39.0399 34.8201 38.6099 34.3999 38.0899 34.3999C37.5599 34.3999 37.1398 34.8301 37.1398 35.3501C37.1398 35.8701 37.5699 36.3 38.0899 36.3C38.6199 36.31 39.0399 35.8801 39.0399 35.3501Z" stroke="#0569AA" stroke-width="4" stroke-miterlimit="10" stroke-linecap="round" stroke-linejoin="round" stroke-dasharray="8 8"/>
<path d="M19.6999 46.0801H101.85" stroke="#0569AA" stroke-width="4" stroke-miterlimit="10" stroke-linecap="round" stroke-linejoin="round"/>
<path d="M55.8699 54.03V62.6001H45.2899L62.6099 83.04L79.9299 62.6001H69.3399V54.03H55.8699Z" fill="#E59816"/>
<path d="M22.7798 72.9099V134.88H104.4V91.3501H46.3898" stroke="#0569AA" stroke-width="5" stroke-miterlimit="10" stroke-linecap="round" stroke-linejoin="round"/>
<path d="M74.7399 101.76C80.9999 108.02 80.9999 118.17 74.7399 124.42" stroke="#0569AA" stroke-width="4" stroke-miterlimit="10" stroke-linecap="round" stroke-linejoin="round"/>
<path d="M52.0699 124.43C45.8099 118.17 45.8099 108.02 52.0699 101.76" stroke="#0569AA" stroke-width="4" stroke-miterlimit="10" stroke-linecap="round" stroke-linejoin="round"/>
<path d="M38.4599 112.01C38.4599 112.51 38.0499 112.92 37.5499 112.92C37.0499 112.92 36.6398 112.51 36.6398 112.01C36.6398 111.51 37.0499 111.1 37.5499 111.1C38.0499 111.1 38.4599 111.51 38.4599 112.01Z" stroke="#0569AA" stroke-width="4" stroke-miterlimit="10" stroke-linecap="round" stroke-linejoin="round" stroke-dasharray="8 8"/>
<path d="M90.1699 112.01C90.1699 112.51 89.7598 112.92 89.2598 112.92C88.7598 112.92 88.3499 112.51 88.3499 112.01C88.3499 111.51 88.7598 111.1 89.2598 111.1C89.7598 111.1 90.1699 111.51 90.1699 112.01Z" stroke="#0569AA" stroke-width="4" stroke-miterlimit="10" stroke-linecap="round" stroke-linejoin="round" stroke-dasharray="8 8"/>
<path d="M67.8299 108.68C67.8299 106.24 65.8498 104.25 63.3998 104.25C60.9598 104.25 58.9699 106.23 58.9699 108.68C58.9699 111.12 60.7798 112.25 63.3998 113.11C65.7198 113.87 67.8299 115.09 67.8299 117.54C67.8299 119.98 65.8498 121.97 63.3998 121.97C60.9598 121.97 58.9699 119.99 58.9699 117.54" stroke="#0569AA" stroke-width="4" stroke-miterlimit="10" stroke-linecap="round" stroke-linejoin="round"/>
<path d="M63.3998 124.43V121.93" stroke="#0569AA" stroke-width="4" stroke-miterlimit="10" stroke-linecap="round" stroke-linejoin="round"/>
<path d="M63.3998 104.26V101.76" stroke="#0569AA" stroke-width="4" stroke-miterlimit="10" stroke-linecap="round" stroke-linejoin="round"/>
<path d="M31.2199 78.45V91.1699" stroke="#0569AA" stroke-width="5" stroke-miterlimit="10" stroke-linecap="round" stroke-linejoin="round"/>
<path d="M39.6498 91.1699V84.0701" stroke="#0569AA" stroke-width="5" stroke-miterlimit="10" stroke-linecap="round" stroke-linejoin="round"/>
</svg>
