<svg width="587" height="164" viewBox="0 0 587 164" fill="none" xmlns="http://www.w3.org/2000/svg">
<path d="M539.618 70.4584H363.68C363.68 31.5517 332.142 0 293.23 0C254.318 0 222.78 31.5417 222.78 70.4584H46.8613C21.1868 70.4584 0.375122 91.2726 0.375122 116.95C0.375122 142.628 21.1868 163.442 46.8613 163.442H539.618C565.293 163.442 586.105 142.628 586.105 116.95C586.105 91.2726 565.293 70.4584 539.618 70.4584Z" fill="#F9EBB2"/>
<path d="M340.236 64.5743H246.233V70.6985H340.236V64.5743Z" fill="#BA7827"/>
<mask id="mask0_20_42" style="mask-type:luminance" maskUnits="userSpaceOnUse" x="248" y="19" width="91" height="52">
<path d="M338.395 19.5934H248.094V70.6885H338.395V19.5934Z" fill="white"/>
</mask>
<g mask="url(#mask0_20_42)">
<path d="M293.24 83.9376C307.685 83.9376 319.395 72.2263 319.395 57.7797C319.395 43.333 307.685 31.6218 293.24 31.6218C278.795 31.6218 267.085 43.333 267.085 57.7797C267.085 72.2263 278.795 83.9376 293.24 83.9376Z" fill="#FAE06A"/>
<path d="M299.063 26.7283C281.964 23.4961 265.404 34.8339 262.192 51.9556C258.981 69.0774 270.297 85.6187 287.417 88.8209C289.378 89.1912 291.349 89.3713 293.31 89.3713C299.614 89.3713 305.767 87.48 311.07 83.8475C318.034 79.0842 322.727 71.8893 324.277 63.6036C327.499 46.4819 316.183 29.9405 299.063 26.7283ZM317.864 62.3928C315.312 75.9721 302.215 84.9483 288.627 82.3965C275.05 79.8448 266.075 66.7258 268.626 53.1564C270.887 41.1382 281.423 32.7224 293.24 32.7224C294.771 32.7224 296.312 32.8625 297.873 33.1527C311.44 35.6945 320.405 48.8135 317.864 62.3928Z" fill="#E59816"/>
<path d="M289.038 76.7027C287.517 76.3724 286.916 75.4518 287.247 73.9508L287.717 71.8193C285.656 71.0988 283.865 70.028 282.334 68.6071C281.183 67.3262 281.223 66.0654 282.474 64.8245C283.154 64.1641 283.915 63.8538 284.745 63.9038C285.546 63.9739 286.296 64.3542 287.006 65.0446C288.097 65.8552 289.208 66.3756 290.318 66.6257C292.62 67.1261 293.97 66.4356 294.381 64.5543C294.561 63.7538 294.271 62.9032 293.52 62.0126C293.07 61.4522 292.159 60.6216 290.778 59.5008C290.268 59.0906 289.898 58.7803 289.648 58.5602C288.047 57.2093 286.926 55.9584 286.286 54.8176C285.355 53.2366 285.095 51.5554 285.486 49.7641C285.966 47.5726 286.956 45.8715 288.467 44.6707C289.978 43.4698 291.839 42.8894 294.05 42.9094L294.561 40.5878C294.891 39.0868 295.811 38.5064 297.342 38.8366C298.843 39.1669 299.423 40.0775 299.093 41.5785L298.603 43.8301C300.334 44.4805 301.785 45.5012 302.965 46.9022C303.916 48.2231 303.716 49.4039 302.345 50.4646C301.635 50.985 300.914 51.2052 300.174 51.1251C299.433 51.045 298.753 50.6648 298.153 49.9943C297.432 49.454 296.662 49.0937 295.831 48.9136C293.74 48.4532 292.499 49.1137 292.109 50.8949C291.949 51.6154 292.219 52.3659 292.92 53.1464C293.35 53.6468 294.21 54.4073 295.511 55.418C297.622 57.0391 299.053 58.3901 299.824 59.4508C301.144 61.3121 301.575 63.3335 301.094 65.515C300.614 67.6965 299.654 69.3976 298.193 70.6285C296.632 71.9394 294.681 72.5898 292.319 72.5898L291.799 74.9515C291.449 76.4425 290.538 77.0329 289.038 76.7027Z" fill="#E59816"/>
</g>
<path d="M68.8237 143.518C63.3006 143.518 58.6679 141.657 55.0459 137.985C51.3138 134.302 49.4027 129.339 49.4027 123.285C49.4027 117.441 51.2638 112.497 54.9158 108.615C58.5379 104.842 62.9003 102.951 67.9231 102.951C73.2461 102.951 77.6986 104.932 80.8004 108.675C83.602 112.087 85.0028 116.51 85.0028 121.854C85.0028 122.624 84.9627 123.485 84.8827 124.475C84.8727 124.656 84.8427 124.836 84.8026 125.016C84.5025 126.487 83.682 127.778 82.4113 128.728C81.961 129.059 81.4908 129.339 80.9905 129.549C81.3807 130.009 81.7409 130.53 82.0511 131.11C84.0322 134.903 82.9916 138.795 79.4796 140.867C79.3896 140.927 79.2896 140.977 79.1995 141.017C75.8576 142.678 72.3657 143.518 68.8237 143.518Z" fill="white"/>
<path d="M68.8237 138.895C64.5613 138.895 61.0693 137.514 58.3377 134.742C55.4661 131.901 54.0253 128.088 54.0253 123.295C54.0253 118.641 55.4461 114.809 58.2877 111.797C60.9792 108.995 64.191 107.594 67.9231 107.594C71.8954 107.594 75.0071 108.945 77.2384 111.637C79.3295 114.188 80.3802 117.601 80.3802 121.854C80.3802 122.494 80.3401 123.235 80.2701 124.095C80.2001 124.445 79.9899 124.756 79.6297 125.026C79.2795 125.296 78.8693 125.426 78.409 125.426H70.7947H61.6396C61.9598 127.838 62.8603 129.689 64.3511 130.96C65.7719 132.241 67.613 132.881 69.8843 132.881C71.3351 132.881 72.7258 132.611 74.0366 132.081C75.7375 131.19 77.0483 131.6 77.9788 133.301C78.7992 134.863 78.5091 136.053 77.1283 136.864C74.4268 138.215 71.6553 138.895 68.8237 138.895ZM61.5295 120.263H67.5929H73.6563C73.6563 118.171 73.1961 116.55 72.2756 115.419C71.315 114.248 69.8943 113.658 68.0132 113.658C66.3823 113.658 64.9815 114.208 63.8108 115.309C62.5701 116.51 61.8097 118.161 61.5295 120.263Z" fill="#0569AA"/>
<path d="M101.162 147.201C96.9295 147.201 93.7977 145.06 92.7871 141.477C91.8366 138.335 92.9372 136.173 93.6776 135.173C94.5881 133.952 95.8489 133.121 97.4598 132.681V130.109C94.218 129.829 91.7665 127.588 90.9761 124.105C90.4558 121.964 90.6559 120.032 91.5564 118.411C92.2268 117.23 93.6076 115.669 96.4392 114.959C96.4792 114.949 97.1196 114.809 97.4598 114.729V113.478C93.5376 113.038 90.9661 110.136 90.9661 105.983C90.9661 101.83 93.5376 98.9279 97.4598 98.4876V96.196C97.4598 91.5829 100.561 88.4807 105.174 88.4807C108.636 88.4807 111.248 90.2219 112.338 93.0438C113.429 90.2219 116.06 88.4807 119.552 88.4807C123.414 88.4807 126.216 90.6522 127.026 94.0646C129.288 93.3741 131.259 92.6736 132.95 91.9732C134 91.5229 135.101 91.2827 136.172 91.2827C136.722 91.2827 137.272 91.3427 137.802 91.4728C137.943 91.5028 138.083 91.5429 138.213 91.5929C139.443 92.0032 140.594 92.7537 141.725 93.8844C143.826 95.9859 144.706 98.1674 144.356 100.379C144.326 100.539 144.296 100.699 144.256 100.869C145.597 101.51 147.538 102.961 148.248 106.183C148.258 106.223 148.268 106.263 148.268 106.303C148.548 107.754 148.559 109.315 148.288 110.946C148.268 111.106 148.228 111.256 148.188 111.406C147.538 113.828 146.487 115.749 145.037 117.16C146.017 118.521 146.537 120.162 146.537 121.974V137.044C146.537 139.306 145.737 141.307 144.226 142.818C142.715 144.329 140.714 145.13 138.453 145.13H119.772C117.511 145.13 115.51 144.329 113.999 142.818C113.299 142.118 112.748 141.317 112.368 140.426C112.278 140.737 112.178 141.027 112.068 141.307C111.348 143.088 110.057 144.559 108.326 145.57C106.645 146.531 104.494 147.061 101.712 147.211C101.442 147.201 101.302 147.201 101.162 147.201Z" fill="white"/>
<path d="M97.2396 140.226C96.5692 137.995 97.6799 136.904 100.592 136.984C100.772 136.984 100.942 136.984 101.122 136.984C101.762 136.944 102.082 136.614 102.082 135.973V124.635L99.2608 125.376C97.1996 125.876 95.9389 125.106 95.4786 123.084C95.2285 122.054 95.2685 121.253 95.5887 120.693C95.9089 120.122 96.5693 119.722 97.5598 119.472C98.5203 119.262 100.021 118.902 102.082 118.411V108.935H98.5204C96.5693 108.935 95.5887 107.964 95.5887 106.003C95.5887 104.051 96.5693 103.071 98.5204 103.071H102.082V96.206C102.082 94.1446 103.113 93.1139 105.174 93.1139C107.235 93.1139 108.266 94.1446 108.266 96.206V103.071H110.717C112.668 103.071 113.649 104.051 113.649 106.003C113.649 107.954 112.668 108.935 110.717 108.935H108.266V116.92C108.546 116.85 108.966 116.74 109.517 116.6C110.067 116.46 110.487 116.35 110.767 116.28C112.758 115.749 113.889 116.53 114.179 118.621C114.389 120.363 113.669 121.463 111.998 121.924C111.538 122.064 110.827 122.284 109.867 122.564C109.156 122.744 108.626 122.884 108.266 122.984V129.479V135.923C108.266 137.524 108.096 138.735 107.756 139.566C107.415 140.396 106.825 141.067 105.975 141.567C104.984 142.138 103.473 142.468 101.452 142.578C99.1007 142.638 97.6999 141.857 97.2396 140.226ZM119.762 140.486C118.732 140.486 117.901 140.166 117.261 139.526C116.621 138.885 116.3 138.055 116.3 137.024V121.954C116.3 120.923 116.621 120.092 117.261 119.452C117.901 118.812 118.732 118.491 119.762 118.491H129.078H138.443C139.473 118.491 140.304 118.812 140.944 119.452C141.585 120.092 141.905 120.923 141.905 121.954V137.024C141.905 138.055 141.585 138.885 140.944 139.526C140.304 140.166 139.473 140.486 138.443 140.486H119.762ZM125.616 115.469C121.964 115.469 119.512 114.919 118.271 113.818C117.031 112.717 116.41 110.626 116.41 107.534V96.196C116.41 94.1346 117.461 93.1039 119.552 93.1039C121.613 93.1039 122.644 94.1346 122.644 96.196V100.079C127.537 98.8378 131.569 97.5569 134.731 96.246C135.471 95.9258 136.152 95.8358 136.752 95.9759C137.282 96.156 137.852 96.5463 138.453 97.1467C139.443 98.1373 139.894 98.9679 139.784 99.6183C139.674 100.279 139.003 100.839 137.762 101.299C133.5 102.75 128.467 104.071 122.644 105.242V107.474C122.644 108.464 122.854 109.095 123.284 109.365C123.715 109.635 124.685 109.765 126.216 109.765H135.371C136.472 109.765 137.232 109.535 137.662 109.075C137.983 107.554 138.483 106.413 139.153 105.673C139.974 104.752 140.964 104.522 142.135 104.982C142.955 105.302 143.486 106.033 143.736 107.164C143.916 108.084 143.916 109.095 143.736 110.196C143.206 112.187 142.355 113.568 141.184 114.348C140.014 115.089 138.243 115.469 135.861 115.469H130.748H125.616ZM122.264 126.967H128.967H135.671V124.996C135.671 124.145 135.241 123.715 134.391 123.715H123.534C122.684 123.715 122.254 124.145 122.254 124.996V126.967H122.264ZM123.534 135.433H134.391C135.241 135.433 135.671 135.003 135.671 134.152V131.921H128.967H122.264V134.152C122.264 135.003 122.684 135.433 123.534 135.433Z" fill="#0569AA"/>
<path d="M176.804 147.251C171.251 147.251 169.39 143.659 168.84 142.077C168.79 142.198 168.74 142.308 168.68 142.428C168.64 142.518 168.59 142.618 168.54 142.698C167.479 144.659 166.048 145.92 164.307 146.441C163.757 146.601 163.177 146.691 162.596 146.691C161.196 146.691 159.785 146.21 158.404 145.27C155.102 143.128 154.132 139.336 155.973 135.643C157.343 132.451 158.034 127.417 158.034 120.683V114.869C157.894 114.749 157.744 114.629 157.584 114.509C156.083 113.288 155.172 111.727 154.912 109.965C154.642 108.104 155.152 106.273 156.363 104.782C158.364 102.1 159.965 98.6877 161.146 94.645C162.066 91.1626 164.798 88.931 168.24 88.931C168.79 88.931 169.36 88.9911 169.941 89.1011C172.792 89.6915 174.223 91.2126 174.933 92.3834C175.103 92.6636 175.274 92.9938 175.424 93.3741H176.184C177.865 93.3741 179.176 93.7844 180.176 94.3448C181.397 92.3534 183.588 91.1326 186.3 91.1326H203.65C206.361 91.1326 208.702 92.3934 210.073 94.5849C211.214 96.3962 211.674 98.7678 211.514 102.05C211.084 110.035 210.123 112.657 208.702 114.318C208.652 114.378 208.602 114.439 208.552 114.499C210.733 115.679 212.054 117.961 212.054 120.893C212.054 122.674 211.564 124.215 210.693 125.416C212.194 126.707 213.065 128.668 213.065 131.06C213.065 135.453 210.113 138.405 205.721 138.405H204.12V139.576C204.12 144.129 201.058 147.191 196.505 147.191C191.953 147.191 188.891 144.129 188.891 139.576V138.405H187.48C187.38 139.496 187.17 140.446 186.86 141.297C186.21 143.188 184.959 144.699 183.258 145.68C181.627 146.581 179.716 147.081 177.375 147.241C177.325 147.241 177.275 147.251 177.225 147.251C177.095 147.251 176.944 147.251 176.804 147.251ZM171.251 134.042C171.571 133.842 171.902 133.662 172.262 133.512H171.351C171.321 133.692 171.291 133.862 171.251 134.042Z" fill="white"/>
<path d="M173.202 140.546C172.492 138.415 173.553 137.384 176.394 137.454C176.574 137.454 176.744 137.454 176.924 137.454C177.525 137.454 177.825 137.154 177.825 136.554V128.888H167.339C166.839 133.542 165.888 137.404 164.467 140.496C164.007 141.347 163.507 141.857 162.977 142.017C162.446 142.178 161.786 141.987 161.006 141.457C159.585 140.536 159.305 139.256 160.155 137.624C161.826 133.832 162.656 128.188 162.656 120.693V112.817C162.086 112.247 161.356 111.607 160.475 110.906C159.905 110.446 159.575 109.915 159.495 109.305C159.405 108.705 159.575 108.154 160.005 107.654C162.386 104.492 164.247 100.589 165.598 95.9459C166.098 94.0646 167.249 93.3041 169.06 93.6543C170.941 94.0446 171.611 95.1653 171.081 97.0066C171.011 97.2568 170.901 97.597 170.761 98.0173H176.194C177.365 98.0173 178.195 98.3775 178.695 99.108C179.196 99.8385 179.266 100.909 178.906 102.33C178.445 103.681 177.825 105.132 177.045 106.693H180.176C181.027 106.693 181.697 106.943 182.197 107.434C182.698 107.934 182.938 108.605 182.938 109.455V109.935C184.999 108.975 186.57 107.714 187.67 106.153C188.591 104.802 189.251 103.061 189.642 100.939H186.29C184.589 100.939 183.738 100.069 183.738 98.3275C183.738 96.6263 184.589 95.7758 186.29 95.7758H195.445H203.639C204.77 95.7758 205.611 96.206 206.141 97.0566C206.741 98.0173 206.991 99.6084 206.881 101.85C206.601 107.174 206.031 110.336 205.18 111.326C204.4 112.287 203.339 112.867 201.989 113.088C201.348 113.198 200.518 113.248 199.487 113.248C197.606 113.248 196.545 112.427 196.295 110.796C196.295 110.766 196.285 110.696 196.265 110.606C196.245 110.516 196.215 110.456 196.185 110.416C195.905 109.705 195.905 109.165 196.215 108.795C196.515 108.424 197.126 108.274 198.056 108.344C198.377 108.344 198.697 108.344 199.017 108.344C199.657 108.344 200.138 108.154 200.458 107.764C200.848 107.264 201.128 105.723 201.308 103.131C201.338 102.28 201.268 101.69 201.098 101.37C200.918 101.089 200.598 100.939 200.138 100.939H195.295C194.794 103.961 193.984 106.423 192.843 108.344C191.463 110.616 189.512 112.457 186.99 113.878L189.492 114.409C190.162 114.549 190.662 114.849 190.982 115.309C191.303 115.769 191.413 116.34 191.303 117.01C191.162 117.581 191.052 117.991 190.982 118.231H193.534V116.42C193.534 114.429 194.524 113.438 196.515 113.438C198.507 113.438 199.497 114.429 199.497 116.42V118.231H204.77C206.541 118.231 207.432 119.122 207.432 120.893C207.432 122.664 206.541 123.555 204.77 123.555H199.497V128.348H205.721C207.532 128.348 208.432 129.249 208.432 131.06C208.432 132.871 207.532 133.772 205.721 133.772H199.497V139.576C199.497 141.567 198.507 142.558 196.515 142.558C194.524 142.558 193.534 141.567 193.534 139.576V133.772H186.51C184.699 133.772 183.798 132.871 183.798 131.06C183.798 129.249 184.699 128.348 186.51 128.348H193.534V123.555H189.171C188.961 124.125 188.601 124.906 188.111 125.896C187.791 126.397 187.37 126.717 186.86 126.857C186.35 126.997 185.859 126.927 185.399 126.647C184.729 126.217 183.908 125.816 182.948 125.426V136.654C182.948 137.965 182.808 138.995 182.518 139.746C182.237 140.597 181.717 141.237 180.977 141.667C180.016 142.198 178.725 142.518 177.095 142.628C174.993 142.688 173.693 141.997 173.202 140.546ZM167.239 106.683H171.762C172.082 106.013 172.522 104.892 173.092 103.331C173.162 103.081 173.212 102.901 173.252 102.801H169.05C168.8 103.441 168.5 104.101 168.149 104.772C167.959 105.192 167.659 105.833 167.239 106.683ZM167.659 124.195H170.691V119.772H167.709V120.673C167.709 121.243 167.709 121.814 167.709 122.374C167.719 123.165 167.699 123.775 167.659 124.195ZM167.719 115.309H170.701V113.338V111.316H167.719V115.309ZM174.853 115.309H177.835V113.338V112.167C177.835 111.597 177.555 111.316 176.984 111.316H174.853V115.309ZM174.853 124.195H177.835V119.772H174.853V122.004V124.195ZM182.938 124.515C184.709 121.784 185.92 118.321 186.56 114.138C186.35 114.248 186.13 114.349 185.92 114.459C185.669 114.599 185.479 114.569 185.329 114.349C184.729 113.208 183.928 112.107 182.938 111.046V117.811V124.515Z" fill="#0569AA"/>
<path d="M232.976 147.361C229.584 147.361 226.943 145.85 225.622 143.248C224.601 143.188 223.571 142.888 222.56 142.378C220.479 141.297 219.168 139.816 218.648 137.965C218.298 136.714 218.188 134.732 219.608 132.331C220.129 131.29 220.579 130.069 220.949 128.708C219.338 127.437 218.398 125.436 218.398 122.964C218.398 120.543 219.308 118.571 220.859 117.3C220.709 116.69 220.629 116.039 220.629 115.349C220.629 114.038 220.919 112.837 221.439 111.827C220.719 110.696 220.309 109.305 220.309 107.744C220.309 106.683 220.499 105.692 220.839 104.822C219.719 103.561 219.078 101.86 219.078 99.8684C219.078 95.6354 222.03 92.6834 226.262 92.6834H229.274C230.455 90.2317 232.886 88.7407 236.058 88.7407C239.229 88.7407 241.661 90.2317 242.842 92.6834H245.693C246.384 92.6834 247.034 92.7635 247.654 92.9136C248.205 91.8029 248.915 91.0223 249.525 90.5019C250.856 89.3612 252.537 88.7608 254.388 88.7608C254.798 88.7608 255.218 88.7907 255.639 88.8508C258.4 89.181 260.011 90.562 260.852 91.6528C261.712 92.7535 262.643 94.6948 262.252 97.6168C262.242 97.6668 262.202 97.9371 262.192 98.0171H268.316C270.827 98.0171 272.998 98.9878 274.449 100.749C275.4 101.92 276.46 103.971 276.11 107.153C276.11 107.193 276.1 107.233 276.1 107.273C275.51 111.606 274.95 114.919 274.379 117.41C273.679 120.623 271.588 121.813 270.407 122.234C270.347 122.254 270.287 122.274 270.227 122.294C269.637 122.474 268.996 122.574 268.336 122.574C269.426 126.016 270.987 128.918 272.989 131.21C274.389 132.551 275.35 134.092 275.85 135.783C275.87 135.863 275.89 135.933 275.91 136.013C276.47 138.325 276.05 140.596 274.709 142.568C272.648 145.6 270.037 146.05 268.656 146.05C266.675 146.05 264.754 145.199 262.943 143.528C262.823 143.418 262.703 143.298 262.593 143.168C261.272 141.657 260.081 139.916 259.021 137.985C257.74 140.036 256.279 141.877 254.638 143.488C254.558 143.568 254.468 143.648 254.378 143.728C252.657 145.189 250.816 145.96 248.915 146.04C248.855 146.04 248.685 146.05 248.625 146.05C246.153 146.05 243.952 144.769 242.561 142.538C241.791 144.059 240.54 145.25 238.909 146.01C237.388 146.761 235.597 147.211 233.566 147.361C233.506 147.361 233.446 147.371 233.386 147.371C233.256 147.351 233.116 147.361 232.976 147.361Z" fill="white"/>
<path d="M229.514 140.546C228.874 138.385 229.814 137.334 232.336 137.404C232.406 137.404 232.456 137.404 232.496 137.404C232.956 137.404 233.186 137.174 233.186 136.714V125.586H225.632C223.891 125.586 223.02 124.716 223.02 122.974C223.02 121.233 223.891 120.363 225.632 120.363H235.958H246.283C248.024 120.363 248.895 121.233 248.895 122.974C248.895 124.716 248.024 125.586 246.283 125.586H239.049V136.874C239.049 138.255 238.909 139.306 238.619 140.016C238.339 140.837 237.769 141.437 236.918 141.827C235.928 142.328 234.697 142.628 233.246 142.728C231.185 142.798 229.944 142.067 229.514 140.546ZM224.671 138.255C223.781 137.795 223.261 137.284 223.1 136.714C222.94 136.143 223.13 135.433 223.661 134.582C224.441 133.061 225.082 131.3 225.582 129.309C225.972 127.467 227.023 126.697 228.724 127.017C230.465 127.337 231.135 128.368 230.745 130.109C230.465 131.35 230.054 132.661 229.524 134.052C229.134 135.083 228.674 136.123 228.143 137.194C227.283 138.645 226.122 138.995 224.671 138.255ZM227.493 110.306C225.792 110.306 224.941 109.455 224.941 107.754C224.941 106.053 225.792 105.202 227.493 105.202H233.136V102.49H226.272C224.571 102.49 223.721 101.62 223.721 99.8785C223.721 98.1773 224.571 97.3268 226.272 97.3268H233.136V96.3161C233.136 94.3647 234.117 93.3841 236.068 93.3841C238.019 93.3841 238.999 94.3647 238.999 96.3161V97.3268H245.703C247.404 97.3268 248.255 98.1773 248.255 99.8785C248.255 101.62 247.404 102.49 245.703 102.49H238.999V105.202H244.532C246.233 105.202 247.084 106.053 247.084 107.754C247.084 109.455 246.233 110.306 244.532 110.306H236.018H227.493ZM266.085 140.116C264.204 137.955 262.623 135.253 261.352 132.021C260.321 129.469 259.631 127.017 259.281 124.676C258.921 127.017 258.14 129.489 256.939 132.071C255.489 135.263 253.638 137.965 251.406 140.166C250.486 140.947 249.595 141.357 248.745 141.387C247.824 141.427 247.074 140.977 246.514 140.056C245.943 139.165 245.843 138.245 246.193 137.284C246.514 136.394 247.134 135.583 248.054 134.832C251.036 131.89 253.237 128.158 254.658 123.655C255.689 120.353 256.199 117.12 256.199 113.968V108.374H255.239C254.498 111.036 253.608 113.428 252.577 115.559C252.077 116.48 251.366 117.02 250.446 117.18C249.525 117.341 248.615 117.05 247.734 116.3C247.524 116.12 247.204 115.89 246.774 115.609V116.94C246.774 117.581 246.454 117.901 245.813 117.901H227.823C226.122 117.901 225.272 117.05 225.272 115.349C225.272 113.648 226.122 112.797 227.823 112.797H236.018H246.774C248.835 108.895 250.376 103.431 251.406 96.3961C251.546 95.3354 251.927 94.5348 252.547 94.0045C253.167 93.4741 253.998 93.274 255.018 93.4141C257.08 93.6643 257.96 94.8551 257.68 96.9766C257.25 99.5283 256.899 101.41 256.619 102.62H268.326C269.456 102.62 270.317 102.971 270.877 103.661C271.448 104.352 271.658 105.342 271.518 106.613C270.947 110.766 270.397 114.018 269.867 116.36C269.687 117.18 269.356 117.671 268.856 117.851C268.396 117.991 267.716 117.921 266.835 117.641C265.274 117.14 264.614 116.22 264.864 114.869C264.904 114.689 264.934 114.428 264.974 114.068C265.254 112.187 265.434 110.746 265.504 109.755C265.614 108.835 265.234 108.374 264.384 108.374H262.252V113.968C262.252 116.95 262.753 120.092 263.743 123.395C265.054 127.798 267.025 131.47 269.647 134.412C270.537 135.233 271.117 136.113 271.408 137.074C271.658 138.105 271.478 139.065 270.877 139.946C269.597 141.837 267.996 141.887 266.085 140.116ZM242.551 133.351C242.511 133.241 242.451 133.081 242.361 132.841C242.271 132.611 242.211 132.441 242.171 132.341C241.961 131.81 241.741 131.28 241.531 130.74C240.82 129.139 241.281 128.008 242.912 127.327C244.292 126.727 245.363 127.097 246.103 128.448C246.634 129.479 247.154 130.67 247.644 132.011C247.894 132.721 247.874 133.311 247.594 133.772C247.344 134.202 246.854 134.572 246.103 134.893C244.312 135.713 243.122 135.203 242.551 133.351Z" fill="#0569AA"/>
<path d="M325.808 147.351C321.196 147.351 318.094 144.269 318.094 139.686V135.493C317.083 135.813 316.233 136.073 315.572 136.263C314.812 136.493 313.962 136.634 313.131 136.634C309.799 136.634 307.108 134.492 305.927 130.91C304.956 128.038 305.577 125.926 306.277 124.665C306.607 124.065 307.118 123.365 307.878 122.734V102.21C307.878 97.6569 310.96 94.5948 315.542 94.5948C316.503 94.5948 317.393 94.7348 318.204 94.985C318.774 91.1924 321.696 88.7407 325.818 88.7407C329.01 88.7407 331.471 90.2317 332.672 92.6834C334.033 90.2918 336.324 88.9109 339.166 88.9109C339.766 88.9109 340.386 88.9709 341.007 89.101C343.918 89.6713 345.449 91.2324 346.22 92.4333C346.92 93.534 347.62 95.3453 347.18 97.897H356.055C360.608 97.897 363.659 100.999 363.659 105.612C363.659 108.694 362.259 111.086 359.947 112.297C358.497 118.301 356.565 123.575 354.184 128.038C355.335 129.178 356.596 130.189 357.946 131.07C360.298 132.381 361.778 133.942 362.449 135.863C363.019 137.584 363.189 140.186 360.828 143.218C359.227 145.27 357.016 146.4 354.594 146.4C353.094 146.4 351.553 145.96 350.012 145.099C349.932 145.049 349.852 145.009 349.772 144.959C347.791 143.688 345.93 142.217 344.219 140.576C342.337 142.187 340.226 143.678 337.915 145.049C337.855 145.079 337.795 145.119 337.735 145.149C336.304 145.91 334.853 146.3 333.412 146.3C332.752 146.3 332.102 146.22 331.461 146.06C331.201 145.99 330.941 145.91 330.691 145.82C329.4 146.801 327.739 147.351 325.808 147.351ZM333.462 128.998C334.023 128.568 334.563 128.118 335.093 127.647C334.523 126.457 333.983 125.196 333.462 123.875V128.998Z" fill="white"/>
<path d="M352.263 141.077C349.281 139.155 346.66 136.784 344.389 133.942C342.047 136.604 339.096 138.975 335.554 141.077C334.493 141.647 333.503 141.817 332.602 141.577C331.702 141.347 331.001 140.757 330.501 139.796C330.151 139.196 329.6 138.395 328.85 137.404V139.696C328.85 141.717 327.839 142.728 325.818 142.728C323.757 142.728 322.726 141.717 322.726 139.696V129.159C322.016 129.369 320.955 129.709 319.535 130.169C317.193 130.95 315.452 131.5 314.322 131.82C312.371 132.421 311.04 131.64 310.33 129.479C309.619 127.387 310.309 126.087 312.401 125.596C312.441 125.596 312.471 125.596 312.511 125.596V102.23C312.511 100.239 313.521 99.2481 315.542 99.2481C317.534 99.2481 318.524 100.239 318.524 102.23V124.165L322.726 123.155V96.4262C322.726 94.4048 323.757 93.3941 325.818 93.3941C327.839 93.3941 328.85 94.4048 328.85 96.4262V112.928C332.082 108.665 334.513 103.181 336.144 96.4762C336.674 94.1646 337.985 93.224 340.086 93.6543C342.247 94.0846 343.068 95.3755 342.538 97.537C342.147 99.1681 341.667 100.839 341.097 102.54H350.042H356.055C358.046 102.54 359.037 103.571 359.037 105.632C359.037 107.584 358.076 108.564 356.165 108.564H356.055C354.354 116.73 351.833 123.415 348.501 128.638C350.522 131.19 352.883 133.341 355.585 135.083C356.966 135.823 357.806 136.614 358.086 137.424C358.367 138.275 358.066 139.266 357.186 140.406C355.915 141.977 354.284 142.208 352.263 141.077ZM330.121 136.444C334.233 134.492 337.785 131.85 340.767 128.508C338.675 124.856 336.894 120.363 335.444 115.039C335.304 115.249 335.093 115.569 334.803 116C334.343 116.71 333.983 117.22 333.743 117.541C333.282 118.111 332.752 118.411 332.142 118.441C331.541 118.471 331.001 118.241 330.541 117.751C329.79 117.01 329.23 116.46 328.84 116.1V126.587V135.743C328.84 136.604 329.26 136.834 330.121 136.444ZM344.699 122.764C346.83 118.932 348.461 114.188 349.592 108.554H344.639H339.746C341.027 114.258 342.678 119.002 344.699 122.764Z" fill="#0569AA"/>
<path d="M379.779 142.778C377.517 142.778 375.526 141.977 374.005 140.466C372.484 138.945 371.684 136.954 371.684 134.692V102.22C371.684 99.9586 372.484 97.9572 373.995 96.4462C375.516 94.9352 377.507 94.1346 379.769 94.1346H397.228C401.941 94.1346 405.103 97.2968 405.103 102.01C405.103 106.753 401.941 109.935 397.228 109.935H396.478C400.24 110.626 402.661 113.578 402.661 117.711C402.661 122.454 399.48 125.636 394.737 125.636H388.824V126.917H397.769C402.511 126.917 405.693 130.099 405.693 134.843C405.693 139.586 402.511 142.768 397.769 142.768H379.779V142.778Z" fill="white"/>
<path d="M379.779 138.145C378.748 138.145 377.918 137.825 377.277 137.184C376.637 136.544 376.317 135.713 376.317 134.682V102.21C376.317 101.179 376.637 100.349 377.277 99.7084C377.918 99.068 378.748 98.7477 379.779 98.7477H397.238C399.4 98.7477 400.49 99.8285 400.49 101.99C400.49 104.191 399.41 105.292 397.238 105.292H384.201V114.398H394.737C396.938 114.398 398.039 115.499 398.039 117.701C398.039 119.902 396.938 121.003 394.737 121.003H384.201V131.54H397.779C399.98 131.54 401.081 132.641 401.081 134.843C401.081 137.044 399.98 138.145 397.779 138.145H388.674H379.779Z" fill="#0569AA"/>
<path d="M443.865 142.778C441.964 142.778 440.183 142.178 438.712 141.057C437.261 139.956 436.22 138.425 435.7 136.624L434.629 132.661H428.916L427.936 136.183C426.835 140.296 423.633 142.768 419.381 142.768C415.499 142.768 413.478 141.127 412.467 139.746C411.446 138.365 410.486 135.923 411.666 132.171L422.002 99.9886C422.623 98.1874 423.683 96.7464 425.094 95.7157C426.535 94.665 428.256 94.1146 430.087 94.1146H433.709C435.56 94.1146 437.301 94.695 438.762 95.7957C440.162 96.8664 441.163 98.2474 441.753 99.9386L452.329 132.841C453.48 136.384 452.269 138.765 451.449 139.866C450.458 141.187 448.557 142.768 445.095 142.768H443.865V142.778Z" fill="white"/>
<path d="M419.381 138.145C416.219 138.145 415.118 136.624 416.079 133.562L426.405 101.41C426.685 100.589 427.155 99.9486 427.816 99.4683C428.476 98.9879 429.226 98.7477 430.077 98.7477H433.699C434.549 98.7477 435.3 98.9979 435.96 99.4882C436.621 99.9886 437.081 100.639 437.371 101.46L447.907 134.252C448.297 135.463 448.237 136.404 447.717 137.104C447.196 137.795 446.326 138.145 445.085 138.145H443.865C442.974 138.145 442.194 137.885 441.523 137.374C440.853 136.864 440.383 136.173 440.142 135.323L438.171 128.028H431.788H425.404L423.483 134.953C422.913 137.084 421.542 138.145 419.381 138.145ZM427.095 121.914H431.778H436.46L435.29 117.601C434.789 115.93 434.079 113.338 433.159 109.825C432.588 107.554 432.148 105.853 431.828 104.712H431.618C430.627 108.975 429.506 113.268 428.266 117.591L427.095 121.914Z" fill="#0569AA"/>
<path d="M476.223 143.518C471.09 143.518 466.287 142.057 461.955 139.176C461.825 139.085 461.705 138.995 461.585 138.895C459.243 136.974 458.593 134.873 458.463 133.442C458.333 132.021 458.573 129.849 460.494 127.548C462.695 124.896 465.167 124.335 466.858 124.335C468.599 124.335 470.329 124.926 471.98 126.097C473.561 126.987 475.042 127.437 476.393 127.437C476.653 127.437 476.873 127.427 477.073 127.417C476.643 127.217 476.083 126.957 475.342 126.647C475.172 126.577 475.012 126.507 474.872 126.447L469.689 124.245C460.764 120.553 458.883 114.128 458.883 109.385C458.883 104.782 460.774 100.739 464.356 97.7071C467.758 94.8251 472.06 93.364 477.143 93.364C481.816 93.364 486.108 94.695 489.901 97.3268C490.031 97.4168 490.151 97.5169 490.271 97.617C493.663 100.529 494.023 104.822 491.161 108.324C488.99 110.986 486.569 111.547 484.918 111.547C484.227 111.547 483.537 111.446 482.857 111.256L484.597 111.987C487.829 113.338 490.371 115.109 492.132 117.26C494.283 119.932 495.364 123.185 495.364 126.947C495.364 131.6 493.492 135.693 489.95 138.785C486.439 141.927 481.816 143.518 476.223 143.518ZM480.955 110.476C480.775 110.376 480.595 110.266 480.415 110.146C479.915 109.895 479.385 109.705 478.844 109.585C478.864 109.595 478.884 109.595 478.904 109.605C479.154 109.705 479.345 109.785 479.475 109.845L480.955 110.476Z" fill="white"/>
<path d="M476.223 138.895C472 138.895 468.098 137.704 464.516 135.333C462.745 133.882 462.585 132.281 464.036 130.54C465.597 128.658 467.408 128.478 469.469 130.009C471.85 131.39 474.152 132.081 476.393 132.081C478.414 132.081 479.965 131.68 481.045 130.88C482.126 130.079 482.666 128.969 482.666 127.558C482.666 126.277 482.146 125.236 481.126 124.415C480.485 123.915 479.155 123.245 477.133 122.394C476.953 122.324 476.833 122.274 476.763 122.234L471.49 120.002C466.167 117.801 463.506 114.268 463.506 109.405C463.506 106.143 464.786 103.421 467.338 101.259C469.889 99.098 473.161 98.0173 477.133 98.0173C480.855 98.0173 484.227 99.068 487.249 101.159C488.74 102.44 488.85 103.861 487.569 105.422C486.148 107.164 484.548 107.414 482.777 106.163C481.036 105.242 479.155 104.782 477.133 104.782C475.392 104.782 474.012 105.152 472.981 105.903C471.95 106.643 471.44 107.664 471.44 108.935C471.44 110.146 472.011 111.156 473.141 111.967C473.852 112.497 475.212 113.158 477.243 113.938C477.424 114.008 477.544 114.058 477.614 114.098L482.777 116.28C485.328 117.341 487.249 118.661 488.53 120.223C489.981 122.034 490.711 124.285 490.711 126.987C490.711 130.319 489.43 133.111 486.879 135.343C484.207 137.704 480.665 138.895 476.223 138.895Z" fill="#0569AA"/>
<path d="M517.906 142.778C512.703 142.778 509.341 139.416 509.341 134.212V124.766L499.676 104.362C498.105 100.899 499.076 98.4576 499.796 97.3068C500.536 96.116 502.338 94.1346 506.15 94.1346H508.601C511.683 94.1346 514.184 95.7657 515.475 98.6077C515.495 98.6677 518.026 104.842 518.026 104.842L520.218 99.4983C520.848 97.8872 521.949 96.5262 523.409 95.5656C524.85 94.6149 526.461 94.1346 528.192 94.1346H529.793C533.565 94.1346 535.376 96.066 536.116 97.2268C536.867 98.4076 537.877 100.889 536.196 104.352L526.491 124.776V134.222C526.471 139.416 523.109 142.778 517.906 142.778Z" fill="white"/>
<path d="M517.906 138.145C515.285 138.145 513.964 136.834 513.964 134.202V123.715L503.848 102.37C503.348 101.269 503.308 100.389 503.718 99.7384C504.129 99.078 504.929 98.7578 506.14 98.7578H506.3H508.591C509.832 98.7578 510.722 99.3482 511.253 100.519L514.444 108.344C515.795 111.897 516.926 114.809 517.856 117.07H518.066C518.316 116.43 518.707 115.489 519.237 114.248C520.298 111.627 521.078 109.655 521.578 108.344L524.51 101.209C524.79 100.459 525.27 99.8685 525.951 99.4282C526.621 98.9879 527.372 98.7578 528.182 98.7578H529.783C530.994 98.7578 531.794 99.078 532.204 99.7185C532.615 100.359 532.555 101.229 532.014 102.33L521.849 123.735V134.222C521.839 136.834 520.528 138.145 517.906 138.145Z" fill="#0569AA"/>
</svg>
