<svg width="115" height="125" viewBox="0 0 115 125" fill="none" xmlns="http://www.w3.org/2000/svg">
<mask id="mask0_15_93" style="mask-type:luminance" maskUnits="userSpaceOnUse" x="0" y="0" width="115" height="125">
<path d="M49.2 124.87C59.52 109.56 114.04 9.73999 114.04 9.73999L105.54 0.439941L0.48999 84.3101L49.2 124.87Z" fill="white"/>
</mask>
<g mask="url(#mask0_15_93)">
<path d="M28.55 2.84004C26.23 3.65004 23.69 2.42005 22.89 0.100047C22.09 -2.21995 23.31 -4.75011 25.63 -5.56011C27.95 -6.37011 30.49 -5.14012 31.29 -2.82012C32.1 -0.500119 30.87 2.04004 28.55 2.84004Z" fill="#0569AA"/>
<path d="M45.91 4.1999C43.59 5.0099 41.06 3.77991 40.25 1.45991C39.44 -0.86009 40.67 -3.39 42.99 -4.2C45.31 -5.01 47.84 -3.78001 48.65 -1.46001C49.46 0.859988 48.23 3.3999 45.91 4.1999Z" fill="#0569AA"/>
<path d="M61.57 5.98993C59.25 6.78993 56.71 5.56994 55.91 3.24994C55.11 0.919939 56.33 -1.60997 58.66 -2.40997C60.98 -3.20997 63.51 -1.98998 64.32 0.330017C65.12 2.64002 63.9 5.17993 61.57 5.98993Z" fill="#0569AA"/>
<path d="M78.4 7.24995C76.08 8.04995 73.55 6.81995 72.74 4.49995C71.94 2.17995 73.16 -0.349963 75.48 -1.15996C77.8 -1.96996 80.34 -0.739973 81.14 1.58003C81.95 3.91003 80.73 6.44995 78.4 7.24995Z" fill="#0569AA"/>
<path d="M92.86 8.20004C90.48 8.80005 88.06 7.36008 87.45 4.99008C86.85 2.61008 88.29 0.190171 90.67 -0.419829C93.05 -1.01983 95.47 0.420142 96.07 2.80014C96.69 5.18014 95.24 7.60004 92.86 8.20004Z" fill="#0569AA"/>
<path d="M109.8 10.2501C107.42 10.8601 105 9.41011 104.4 7.03011C103.8 4.65011 105.24 2.22996 107.62 1.62996C110 1.02996 112.42 2.47018 113.02 4.85018C113.62 7.23018 112.18 9.65008 109.8 10.2501Z" fill="#0569AA"/>
<path d="M25 17.56C22.68 18.37 20.14 17.14 19.34 14.82C18.53 12.5 19.76 9.9598 22.08 9.1598C24.4 8.3598 26.93 9.58979 27.74 11.8998C28.54 14.2198 27.32 16.75 25 17.56Z" fill="#0569AA"/>
<path d="M42.36 18.92C40.04 19.73 37.51 18.5 36.7 16.18C35.9 13.87 37.12 11.3301 39.44 10.5201C41.76 9.71007 44.3 10.9501 45.1 13.2701C45.91 15.5801 44.68 18.11 42.36 18.92Z" fill="#0569AA"/>
<path d="M58.03 20.6999C55.71 21.5099 53.17 20.2799 52.37 17.9599C51.57 15.6399 52.79 13.11 55.12 12.3C57.44 11.5 59.97 12.72 60.77 15.04C61.57 17.36 60.35 19.8999 58.03 20.6999Z" fill="#0569AA"/>
<path d="M74.85 21.9699C72.53 22.7699 69.99 21.5499 69.19 19.2299C68.38 16.9099 69.61 14.37 71.93 13.57C74.26 12.76 76.79 14 77.6 16.31C78.4 18.62 77.18 21.1599 74.85 21.9699Z" fill="#0569AA"/>
<path d="M89.31 22.9198C86.92 23.5198 84.51 22.0798 83.9 19.7098C83.3 17.3198 84.73 14.8999 87.12 14.2999C89.51 13.6999 91.92 15.1399 92.52 17.5099C93.13 19.8899 91.69 22.3098 89.31 22.9198Z" fill="#0569AA"/>
<path d="M106.25 24.9601C103.87 25.5601 101.45 24.1201 100.85 21.7401C100.24 19.3601 101.69 16.9402 104.06 16.3402C106.44 15.7402 108.87 17.1802 109.47 19.5602C110.07 21.9402 108.63 24.3601 106.25 24.9601Z" fill="#0569AA"/>
<path d="M21.45 32.2699C19.14 33.0799 16.59 31.85 15.79 29.53C14.99 27.21 16.21 24.6798 18.54 23.8798C20.86 23.0698 23.39 24.3 24.2 26.62C24.99 28.93 23.77 31.4699 21.45 32.2699Z" fill="#0569AA"/>
<path d="M38.81 33.6299C36.49 34.4399 33.96 33.2099 33.15 30.8899C32.35 28.5799 33.57 26.04 35.89 25.23C38.21 24.42 40.74 25.66 41.55 27.98C42.36 30.29 41.13 32.8199 38.81 33.6299Z" fill="#0569AA"/>
<path d="M54.47 35.4199C52.15 36.2299 49.61 34.9999 48.81 32.6799C48.01 30.3599 49.24 27.83 51.56 27.02C53.88 26.22 56.42 27.4399 57.21 29.7599C58.02 32.0699 56.8 34.6099 54.47 35.4199Z" fill="#0569AA"/>
<path d="M71.31 36.6798C68.98 37.4798 66.45 36.2498 65.65 33.9398C64.85 31.6198 66.07 29.0799 68.39 28.2799C70.71 27.4699 73.25 28.7099 74.06 31.0199C74.85 33.3399 73.62 35.8698 71.31 36.6798Z" fill="#0569AA"/>
<path d="M85.76 37.63C83.38 38.23 80.96 36.79 80.36 34.41C79.76 32.03 81.2 29.6101 83.58 29.0101C85.96 28.4101 88.38 29.8501 88.99 32.2301C89.58 34.6101 88.14 37.02 85.76 37.63Z" fill="#0569AA"/>
<path d="M102.7 39.67C100.32 40.27 97.9 38.84 97.3 36.46C96.69 34.08 98.14 31.6601 100.52 31.0501C102.9 30.4501 105.32 31.8901 105.92 34.2801C106.52 36.6601 105.08 39.08 102.7 39.67Z" fill="#0569AA"/>
<path d="M116.3 41.6801C114.1 40.6001 113.19 37.9301 114.28 35.7301C115.37 33.5301 118.04 32.6201 120.24 33.7101C122.45 34.8001 123.35 37.47 122.26 39.67C121.18 41.86 118.5 42.7701 116.3 41.6801Z" fill="#0569AA"/>
<path d="M17.9 46.9899C15.58 47.7999 13.04 46.5699 12.23 44.2499C11.42 41.9299 12.65 39.4 14.98 38.59C17.3 37.78 19.83 39.01 20.64 41.33C21.44 43.64 20.22 46.1799 17.9 46.9899Z" fill="#0569AA"/>
<path d="M35.26 48.34C32.94 49.15 30.41 47.91 29.6 45.6C28.8 43.28 30.02 40.7499 32.34 39.9399C34.66 39.1299 37.19 40.3599 38 42.6799C38.81 45.0099 37.58 47.54 35.26 48.34Z" fill="#0569AA"/>
<path d="M50.93 50.1298C48.61 50.9398 46.07 49.7098 45.27 47.3898C44.46 45.0598 45.69 42.5299 48.01 41.7299C50.33 40.9199 52.86 42.1499 53.67 44.4699C54.47 46.7899 53.24 49.3198 50.93 50.1298Z" fill="#0569AA"/>
<path d="M67.76 51.3898C65.43 52.1898 62.9 50.9699 62.09 48.6499C61.29 46.3199 62.51 43.7999 64.83 42.9899C67.16 42.1799 69.69 43.4099 70.5 45.7299C71.3 48.0499 70.08 50.5898 67.76 51.3898Z" fill="#0569AA"/>
<path d="M82.21 52.3401C79.82 52.9401 77.41 51.5099 76.8 49.1299C76.2 46.7399 77.64 44.33 80.02 43.73C82.4 43.12 84.82 44.57 85.42 46.94C86.03 49.32 84.59 51.7401 82.21 52.3401Z" fill="#0569AA"/>
<path d="M99.15 54.39C96.77 55 94.35 53.56 93.75 51.18C93.14 48.8 94.59 46.3801 96.97 45.7801C99.35 45.1801 101.77 46.6201 102.37 49.0001C102.97 51.3701 101.53 53.79 99.15 54.39Z" fill="#0569AA"/>
<path d="M112.75 56.39C110.55 55.3 109.64 52.64 110.73 50.43C111.82 48.24 114.49 47.33 116.69 48.41C118.89 49.5 119.8 52.1802 118.71 54.3702C117.62 56.5802 114.96 57.49 112.75 56.39Z" fill="#0569AA"/>
<path d="M14.35 61.6999C12.03 62.5099 9.48999 61.2799 8.67999 58.9599C7.87999 56.6399 9.10001 54.1 11.42 53.3C13.74 52.5 16.28 53.72 17.08 56.04C17.89 58.35 16.67 60.8899 14.35 61.6999Z" fill="#0569AA"/>
<path d="M31.71 63.06C29.39 63.87 26.86 62.63 26.05 60.32C25.25 58.01 26.47 55.4699 28.79 54.6599C31.11 53.8499 33.64 55.0799 34.45 57.3999C35.26 59.7099 34.03 62.26 31.71 63.06Z" fill="#0569AA"/>
<path d="M47.37 64.85C45.05 65.66 42.52 64.42 41.71 62.1C40.91 59.78 42.13 57.2498 44.45 56.4398C46.77 55.6298 49.3 56.8698 50.11 59.1798C50.92 61.5098 49.69 64.04 47.37 64.85Z" fill="#0569AA"/>
<path d="M64.2 66.1C61.88 66.91 59.34 65.6801 58.54 63.3601C57.74 61.0401 58.96 58.5099 61.28 57.7099C63.6 56.8999 66.14 58.1299 66.94 60.4499C67.75 62.7599 66.53 65.3 64.2 66.1Z" fill="#0569AA"/>
<path d="M78.66 67.0602C76.27 67.6702 73.86 66.2202 73.26 63.8502C72.66 61.4602 74.09 59.04 76.48 58.44C78.86 57.84 81.28 59.28 81.88 61.66C82.48 64.03 81.04 66.4502 78.66 67.0602Z" fill="#0569AA"/>
<path d="M95.6 69.1002C93.22 69.7002 90.8001 68.27 90.2001 65.88C89.5901 63.5 91.0401 61.0801 93.4201 60.4801C95.8001 59.8801 98.22 61.32 98.82 63.7C99.42 66.08 97.98 68.5102 95.6 69.1002Z" fill="#0569AA"/>
<path d="M109.21 71.1102C107.01 70.0302 106.11 67.35 107.19 65.15C108.28 62.95 110.95 62.04 113.15 63.13C115.35 64.22 116.26 66.8902 115.17 69.0902C114.07 71.2902 111.4 72.2002 109.21 71.1102Z" fill="#0569AA"/>
<path d="M10.8 76.4099C8.47997 77.2199 5.93999 75.9899 5.12999 73.6699C4.32999 71.3499 5.55999 68.82 7.87999 68.01C10.2 67.2 12.73 68.4299 13.54 70.7499C14.34 73.0699 13.12 75.6099 10.8 76.4099Z" fill="#0569AA"/>
<path d="M28.16 77.78C25.84 78.58 23.31 77.35 22.5 75.04C21.7 72.72 22.92 70.1898 25.24 69.3798C27.56 68.5698 30.09 69.8 30.9 72.12C31.71 74.43 30.48 76.97 28.16 77.78Z" fill="#0569AA"/>
<path d="M43.8299 79.56C41.5099 80.37 38.97 79.13 38.16 76.82C37.36 74.5 38.59 71.9699 40.91 71.1599C43.23 70.3499 45.76 71.5799 46.56 73.8999C47.37 76.2199 46.1499 78.75 43.8299 79.56Z" fill="#0569AA"/>
<path d="M60.66 80.82C58.33 81.63 55.8 80.41 55 78.08C54.19 75.76 55.42 73.2199 57.74 72.4199C60.06 71.6099 62.6 72.8399 63.4 75.1599C64.2 77.4799 62.97 80.01 60.66 80.82Z" fill="#0569AA"/>
<path d="M75.11 81.7701C72.73 82.3701 70.31 80.9401 69.71 78.5501C69.1 76.1701 70.54 73.75 72.93 73.14C75.31 72.54 77.73 73.9802 78.34 76.3602C78.93 78.7402 77.5 81.1701 75.11 81.7701Z" fill="#0569AA"/>
<path d="M92.05 83.8202C89.67 84.4202 87.25 82.9902 86.64 80.6102C86.03 78.2302 87.48 75.81 89.86 75.2C92.23 74.6 94.66 76.04 95.26 78.42C95.88 80.8 94.43 83.2202 92.05 83.8202Z" fill="#0569AA"/>
<path d="M105.66 85.8202C103.46 84.7302 102.55 82.0602 103.64 79.8602C104.73 77.6702 107.4 76.7602 109.6 77.8402C111.8 78.9302 112.7 81.6101 111.62 83.8001C110.52 86.0101 107.86 86.9102 105.66 85.8202Z" fill="#0569AA"/>
<path d="M7.25004 91.1298C4.93004 91.9398 2.39004 90.7098 1.59004 88.3898C0.780037 86.0698 2.01003 83.5299 4.33003 82.7299C6.65003 81.9199 9.18003 83.1499 9.99003 85.4699C10.79 87.7799 9.56004 90.3298 7.25004 91.1298Z" fill="#0569AA"/>
<path d="M24.61 92.4899C22.29 93.2899 19.76 92.0699 18.95 89.7499C18.15 87.4299 19.37 84.9 21.7 84.09C24.02 83.28 26.55 84.52 27.36 86.83C28.16 89.15 26.93 91.6799 24.61 92.4899Z" fill="#0569AA"/>
<path d="M40.27 94.28C37.95 95.08 35.42 93.85 34.61 91.54C33.8 89.22 35.03 86.6898 37.35 85.8798C39.67 85.0698 42.2 86.3 43.01 88.62C43.82 90.93 42.59 93.47 40.27 94.28Z" fill="#0569AA"/>
<path d="M57.11 95.53C54.79 96.34 52.25 95.11 51.45 92.79C50.65 90.48 51.87 87.9398 54.19 87.1398C56.51 86.3298 59.05 87.5598 59.85 89.8798C60.65 92.1898 59.42 94.73 57.11 95.53Z" fill="#0569AA"/>
<path d="M71.56 96.4801C69.17 97.0801 66.76 95.6501 66.16 93.2601C65.56 90.8801 66.99 88.4702 69.38 87.8602C71.76 87.2602 74.18 88.7002 74.79 91.0802C75.38 93.4702 73.95 95.8801 71.56 96.4801Z" fill="#0569AA"/>
<path d="M88.5 98.53C86.12 99.13 83.7 97.7001 83.09 95.3201C82.48 92.9401 83.93 90.5199 86.31 89.9099C88.69 89.2999 91.11 90.7499 91.72 93.1299C92.32 95.5099 90.88 97.93 88.5 98.53Z" fill="#0569AA"/>
<path d="M102.11 100.54C99.91 99.45 99 96.79 100.09 94.58C101.18 92.38 103.84 91.48 106.05 92.57C108.25 93.66 109.16 96.33 108.07 98.53C106.98 100.72 104.31 101.63 102.11 100.54Z" fill="#0569AA"/>
<path d="M3.69999 105.84C1.37999 106.65 -1.16001 105.42 -1.96001 103.1C-2.77001 100.78 -1.54002 98.2399 0.779979 97.4399C3.09998 96.6399 5.63998 97.8599 6.43998 100.18C7.23998 102.5 6.01999 105.04 3.69999 105.84Z" fill="#0569AA"/>
<path d="M21.06 107.2C18.74 108 16.21 106.77 15.4 104.46C14.6 102.14 15.82 99.6101 18.15 98.8001C20.47 98.0001 23 99.2301 23.81 101.55C24.61 103.86 23.38 106.4 21.06 107.2Z" fill="#0569AA"/>
<path d="M36.7301 108.99C34.4101 109.8 31.88 108.56 31.07 106.25C30.26 103.93 31.49 101.4 33.82 100.59C36.14 99.7901 38.6701 101.02 39.4801 103.34C40.2701 105.65 39.0401 108.18 36.7301 108.99Z" fill="#0569AA"/>
<path d="M53.56 110.25C51.23 111.06 48.7 109.83 47.89 107.51C47.09 105.19 48.31 102.65 50.63 101.85C52.95 101.05 55.49 102.27 56.29 104.59C57.1 106.91 55.87 109.44 53.56 110.25Z" fill="#0569AA"/>
<path d="M68.02 111.2C65.63 111.8 63.22 110.36 62.61 107.98C62 105.6 63.44 103.19 65.83 102.58C68.21 101.97 70.63 103.42 71.24 105.8C71.84 108.18 70.4 110.59 68.02 111.2Z" fill="#0569AA"/>
<path d="M84.9501 113.25C82.5701 113.85 80.15 112.42 79.55 110.04C78.94 107.66 80.38 105.24 82.77 104.63C85.15 104.03 87.5701 105.47 88.1701 107.84C88.7701 110.22 87.3301 112.65 84.9501 113.25Z" fill="#0569AA"/>
<path d="M98.56 115.25C96.36 114.16 95.46 111.5 96.54 109.29C97.63 107.09 100.3 106.18 102.5 107.27C104.7 108.36 105.61 111.03 104.52 113.23C103.43 115.44 100.76 116.34 98.56 115.25Z" fill="#0569AA"/>
<path d="M-0.399994 119.08C-2.71999 119.89 -5.25 118.66 -6.06 116.34C-6.86 114.02 -5.64001 111.48 -3.32001 110.68C-1.00001 109.87 1.54 111.1 2.34 113.42C3.15 115.74 1.93001 118.28 -0.399994 119.08Z" fill="#0569AA"/>
<path d="M16.96 120.44C14.64 121.25 12.11 120.01 11.3 117.7C10.5 115.38 11.72 112.85 14.04 112.03C16.36 111.22 18.89 112.45 19.7 114.77C20.52 117.1 19.29 119.63 16.96 120.44Z" fill="#0569AA"/>
<path d="M32.63 122.22C30.31 123.03 27.77 121.8 26.97 119.48C26.16 117.16 27.39 114.63 29.71 113.82C32.03 113.01 34.56 114.25 35.37 116.56C36.18 118.88 34.95 121.42 32.63 122.22Z" fill="#0569AA"/>
<path d="M49.46 123.48C47.13 124.29 44.6 123.06 43.79 120.74C42.99 118.42 44.21 115.88 46.54 115.07C48.86 114.27 51.39 115.49 52.2 117.82C53.01 120.14 51.78 122.68 49.46 123.48Z" fill="#0569AA"/>
<path d="M63.92 124.44C61.53 125.04 59.12 123.6 58.51 121.22C57.91 118.84 59.35 116.42 61.73 115.82C64.11 115.22 66.53 116.65 67.13 119.04C67.74 121.42 66.3 123.83 63.92 124.44Z" fill="#0569AA"/>
<path d="M80.85 126.49C78.47 127.09 76.05 125.66 75.45 123.27C74.85 120.88 76.29 118.47 78.67 117.86C81.05 117.26 83.47 118.7 84.07 121.08C84.68 123.46 83.24 125.88 80.85 126.49Z" fill="#0569AA"/>
<path d="M94.46 128.48C92.26 127.4 91.35 124.73 92.44 122.53C93.53 120.33 96.2 119.43 98.39 120.51C100.6 121.6 101.5 124.28 100.41 126.47C99.33 128.67 96.66 129.58 94.46 128.48Z" fill="#0569AA"/>
</g>
</svg>
