<svg width="44" height="91" viewBox="0 0 44 91" fill="none" xmlns="http://www.w3.org/2000/svg">
<path d="M21.6188 40.3321C31.5083 40.3321 39.5254 32.315 39.5254 22.4255C39.5254 12.536 31.5083 4.51892 21.6188 4.51892C11.7293 4.51892 3.71222 12.536 3.71222 22.4255C3.71222 32.315 11.7293 40.3321 21.6188 40.3321Z" fill="#FAE06A"/>
<path d="M12.9678 2.6117C2.04334 7.37146 -2.96334 20.1522 1.80494 31.0766C6.57321 42.0011 19.3454 47.0078 30.2698 42.2395C31.5215 41.6945 32.7051 41.0389 33.812 40.2811C37.3797 37.8544 40.13 34.4229 41.7393 30.3188C43.8424 24.946 43.7317 19.0708 41.4242 13.7746C36.6559 2.85012 23.8923 -2.15658 12.9678 2.6117ZM37.3286 15.5627C41.1091 24.2307 37.1498 34.3548 28.4732 38.1354C19.8052 41.9159 9.6811 37.948 5.89202 29.28C2.54571 21.6082 5.27044 12.7869 11.9545 8.23998C12.8145 7.65246 13.7512 7.13306 14.7389 6.69881C23.4155 2.92676 33.548 6.90316 37.3286 15.5627Z" fill="#E59816"/>
<path d="M26.5234 34.7549C25.5271 35.1551 24.8374 34.8656 24.4543 33.8864L23.9008 32.4985C22.4533 32.8817 21.0313 32.9668 19.6179 32.754C18.4684 32.473 18.0086 31.7407 18.2385 30.5571C18.3747 29.9185 18.6812 29.4502 19.1666 29.1607C19.6434 28.8882 20.2139 28.8201 20.8866 28.9393C21.8147 28.9734 22.6406 28.8457 23.3644 28.5561C24.863 27.9601 25.3568 27.0405 24.8715 25.8144C24.6586 25.295 24.1733 24.9203 23.4069 24.7075C22.9386 24.5627 22.1042 24.4435 20.8951 24.3413C20.4523 24.3073 20.1202 24.2732 19.8903 24.2477C18.4684 24.1029 17.3529 23.8219 16.544 23.4217C15.4116 22.8853 14.6112 22.0338 14.1429 20.8758C13.5724 19.4453 13.4787 18.1085 13.8704 16.8483C14.2621 15.5881 15.088 14.5408 16.3567 13.7064L15.7522 12.1993C15.3605 11.2286 15.6585 10.5389 16.6547 10.1387C17.6254 9.747 18.3151 10.0365 18.6983 11.0157L19.2858 12.4802C20.5119 12.1822 21.7295 12.1993 22.9386 12.5398C23.986 12.923 24.3265 13.6723 23.9604 14.7963C23.756 15.3668 23.4325 15.767 22.9812 16.0054C22.5299 16.2438 22.002 16.2949 21.3975 16.1416C20.7844 16.1161 20.2054 16.2097 19.6689 16.4226C18.3066 16.9675 17.8638 17.819 18.3236 18.977C18.5109 19.4453 18.9537 19.7689 19.6434 19.9392C20.0777 20.0584 20.861 20.1521 21.985 20.2287C23.8071 20.3394 25.1354 20.5438 25.9784 20.8503C27.4429 21.3952 28.4647 22.3744 29.0352 23.7964C29.6057 25.2184 29.7079 26.5552 29.3588 27.8068C28.9756 29.1522 28.1241 30.2761 26.7873 31.1787L27.4004 32.7114C27.7921 33.6821 27.5026 34.3632 26.5234 34.7549Z" fill="#E59816"/>
<path d="M14.3557 79.0316V83.3316" stroke="#0569AA" stroke-width="4" stroke-miterlimit="10" stroke-linecap="round" stroke-linejoin="round"/>
<path d="M14.3557 55.3265V71.0448" stroke="#0569AA" stroke-width="4" stroke-miterlimit="10" stroke-linecap="round" stroke-linejoin="round"/>
<path d="M21.6188 59.371V77.4309" stroke="#0569AA" stroke-width="4" stroke-miterlimit="10" stroke-linecap="round" stroke-linejoin="round"/>
<path d="M28.8904 50.8563V88.8833" stroke="#0569AA" stroke-width="4" stroke-miterlimit="10" stroke-linecap="round" stroke-linejoin="round"/>
</svg>
