<svg width="118" height="107" viewBox="0 0 118 107" fill="none" xmlns="http://www.w3.org/2000/svg">
<mask id="mask0_15_338" style="mask-type:luminance" maskUnits="userSpaceOnUse" x="12" y="0" width="106" height="106">
<path d="M64.57 105.14C93.6036 105.14 117.14 81.6036 117.14 52.57C117.14 23.5364 93.6036 0 64.57 0C35.5364 0 12 23.5364 12 52.57C12 81.6036 35.5364 105.14 64.57 105.14Z" fill="white"/>
</mask>
<g mask="url(#mask0_15_338)">
<path d="M118.12 1.53003C119.086 1.53003 119.87 0.746528 119.87 -0.219971C119.87 -1.18647 119.086 -1.96997 118.12 -1.96997C117.153 -1.96997 116.37 -1.18647 116.37 -0.219971C116.37 0.746528 117.153 1.53003 118.12 1.53003Z" fill="#0569AA"/>
<path d="M66.91 0.209961C67.8765 0.209961 68.66 -0.573541 68.66 -1.54004C68.66 -2.50654 67.8765 -3.29004 66.91 -3.29004C65.9435 -3.29004 65.16 -2.50654 65.16 -1.54004C65.16 -0.573541 65.9435 0.209961 66.91 0.209961Z" fill="#0569AA"/>
<path d="M75.16 1.83997C76.1265 1.83997 76.91 1.05646 76.91 0.0899658C76.91 -0.876532 76.1265 -1.66003 75.16 -1.66003C74.1935 -1.66003 73.41 -0.876532 73.41 0.0899658C73.41 1.05646 74.1935 1.83997 75.16 1.83997Z" fill="#0569AA"/>
<path d="M83.42 3.47998C84.3865 3.47998 85.17 2.69648 85.17 1.72998C85.17 0.763482 84.3865 -0.0200195 83.42 -0.0200195C82.4535 -0.0200195 81.67 0.763482 81.67 1.72998C81.67 2.69648 82.4535 3.47998 83.42 3.47998Z" fill="#0569AA"/>
<path d="M91.68 5.10999C92.6465 5.10999 93.43 4.32648 93.43 3.35999C93.43 2.39349 92.6465 1.60999 91.68 1.60999C90.7135 1.60999 89.93 2.39349 89.93 3.35999C89.93 4.32648 90.7135 5.10999 91.68 5.10999Z" fill="#0569AA"/>
<path d="M99.93 6.73999C100.896 6.73999 101.68 5.95649 101.68 4.98999C101.68 4.02349 100.896 3.23999 99.93 3.23999C98.9635 3.23999 98.18 4.02349 98.18 4.98999C98.18 5.95649 98.9635 6.73999 99.93 6.73999Z" fill="#0569AA"/>
<path d="M108.19 8.37C109.156 8.37 109.94 7.58649 109.94 6.62C109.94 5.6535 109.156 4.87 108.19 4.87C107.223 4.87 106.44 5.6535 106.44 6.62C106.44 7.58649 107.223 8.37 108.19 8.37Z" fill="#0569AA"/>
<path d="M116.44 10.01C117.406 10.01 118.19 9.22651 118.19 8.26001C118.19 7.29351 117.406 6.51001 116.44 6.51001C115.473 6.51001 114.69 7.29351 114.69 8.26001C114.69 9.22651 115.473 10.01 116.44 10.01Z" fill="#0569AA"/>
<path d="M23.95 0.530029C24.9164 0.530029 25.7 -0.253472 25.7 -1.21997C25.7 -2.18647 24.9164 -2.96997 23.95 -2.96997C22.9835 -2.96997 22.2 -2.18647 22.2 -1.21997C22.2 -0.253472 22.9835 0.530029 23.95 0.530029Z" fill="#0569AA"/>
<path d="M32.21 2.16003C33.1765 2.16003 33.96 1.37653 33.96 0.410034C33.96 -0.556464 33.1765 -1.33997 32.21 -1.33997C31.2435 -1.33997 30.46 -0.556464 30.46 0.410034C30.46 1.37653 31.2435 2.16003 32.21 2.16003Z" fill="#0569AA"/>
<path d="M40.46 3.79004C41.4265 3.79004 42.21 3.00654 42.21 2.04004C42.21 1.07354 41.4265 0.290039 40.46 0.290039C39.4935 0.290039 38.71 1.07354 38.71 2.04004C38.71 3.00654 39.4935 3.79004 40.46 3.79004Z" fill="#0569AA"/>
<path d="M48.72 5.42993C49.6865 5.42993 50.47 4.64643 50.47 3.67993C50.47 2.71343 49.6865 1.92993 48.72 1.92993C47.7535 1.92993 46.97 2.71343 46.97 3.67993C46.97 4.64643 47.7535 5.42993 48.72 5.42993Z" fill="#0569AA"/>
<path d="M56.97 7.05994C57.9365 7.05994 58.72 6.27643 58.72 5.30994C58.72 4.34344 57.9365 3.55994 56.97 3.55994C56.0035 3.55994 55.22 4.34344 55.22 5.30994C55.22 6.27643 56.0035 7.05994 56.97 7.05994Z" fill="#0569AA"/>
<path d="M65.23 8.68994C66.1965 8.68994 66.98 7.90644 66.98 6.93994C66.98 5.97344 66.1965 5.18994 65.23 5.18994C64.2635 5.18994 63.48 5.97344 63.48 6.93994C63.48 7.90644 64.2635 8.68994 65.23 8.68994Z" fill="#0569AA"/>
<path d="M73.49 10.33C74.4565 10.33 75.24 9.54645 75.24 8.57996C75.24 7.61346 74.4565 6.82996 73.49 6.82996C72.5235 6.82996 71.74 7.61346 71.74 8.57996C71.74 9.54645 72.5235 10.33 73.49 10.33Z" fill="#0569AA"/>
<path d="M81.74 11.96C82.7065 11.96 83.49 11.1765 83.49 10.21C83.49 9.24346 82.7065 8.45996 81.74 8.45996C80.7735 8.45996 79.99 9.24346 79.99 10.21C79.99 11.1765 80.7735 11.96 81.74 11.96Z" fill="#0569AA"/>
<path d="M90 13.59C90.9665 13.59 91.75 12.8065 91.75 11.84C91.75 10.8735 90.9665 10.09 90 10.09C89.0335 10.09 88.25 10.8735 88.25 11.84C88.25 12.8065 89.0335 13.59 90 13.59Z" fill="#0569AA"/>
<path d="M98.25 15.22C99.2165 15.22 100 14.4365 100 13.47C100 12.5035 99.2165 11.72 98.25 11.72C97.2835 11.72 96.5 12.5035 96.5 13.47C96.5 14.4365 97.2835 15.22 98.25 15.22Z" fill="#0569AA"/>
<path d="M106.51 16.86C107.476 16.86 108.26 16.0765 108.26 15.11C108.26 14.1435 107.476 13.36 106.51 13.36C105.543 13.36 104.76 14.1435 104.76 15.11C104.76 16.0765 105.543 16.86 106.51 16.86Z" fill="#0569AA"/>
<path d="M114.77 18.49C115.736 18.49 116.52 17.7065 116.52 16.74C116.52 15.7735 115.736 14.99 114.77 14.99C113.803 14.99 113.02 15.7735 113.02 16.74C113.02 17.7065 113.803 18.49 114.77 18.49Z" fill="#0569AA"/>
<path d="M14.02 7.38C14.9865 7.38 15.77 6.5965 15.77 5.63C15.77 4.66351 14.9865 3.88 14.02 3.88C13.0535 3.88 12.27 4.66351 12.27 5.63C12.27 6.5965 13.0535 7.38 14.02 7.38Z" fill="#0569AA"/>
<path d="M22.27 9.01001C23.2365 9.01001 24.02 8.22651 24.02 7.26001C24.02 6.29351 23.2365 5.51001 22.27 5.51001C21.3035 5.51001 20.52 6.29351 20.52 7.26001C20.52 8.22651 21.3035 9.01001 22.27 9.01001Z" fill="#0569AA"/>
<path d="M30.53 10.64C31.4965 10.64 32.28 9.85651 32.28 8.89001C32.28 7.92352 31.4965 7.14001 30.53 7.14001C29.5635 7.14001 28.78 7.92352 28.78 8.89001C28.78 9.85651 29.5635 10.64 30.53 10.64Z" fill="#0569AA"/>
<path d="M38.78 12.28C39.7465 12.28 40.53 11.4965 40.53 10.53C40.53 9.56353 39.7465 8.78003 38.78 8.78003C37.8135 8.78003 37.03 9.56353 37.03 10.53C37.03 11.4965 37.8135 12.28 38.78 12.28Z" fill="#0569AA"/>
<path d="M47.04 13.91C48.0065 13.91 48.79 13.1265 48.79 12.16C48.79 11.1935 48.0065 10.41 47.04 10.41C46.0735 10.41 45.29 11.1935 45.29 12.16C45.29 13.1265 46.0735 13.91 47.04 13.91Z" fill="#0569AA"/>
<path d="M55.3 15.54C56.2665 15.54 57.05 14.7565 57.05 13.79C57.05 12.8235 56.2665 12.04 55.3 12.04C54.3335 12.04 53.55 12.8235 53.55 13.79C53.55 14.7565 54.3335 15.54 55.3 15.54Z" fill="#0569AA"/>
<path d="M63.55 17.1801C64.5165 17.1801 65.3 16.3966 65.3 15.4301C65.3 14.4636 64.5165 13.6801 63.55 13.6801C62.5835 13.6801 61.8 14.4636 61.8 15.4301C61.8 16.3966 62.5835 17.1801 63.55 17.1801Z" fill="#0569AA"/>
<path d="M71.8099 18.8099C72.7764 18.8099 73.5599 18.0264 73.5599 17.0599C73.5599 16.0934 72.7764 15.3099 71.8099 15.3099C70.8434 15.3099 70.0599 16.0934 70.0599 17.0599C70.0599 18.0264 70.8434 18.8099 71.8099 18.8099Z" fill="#0569AA"/>
<path d="M80.0599 20.4399C81.0264 20.4399 81.8099 19.6564 81.8099 18.6899C81.8099 17.7234 81.0264 16.9399 80.0599 16.9399C79.0934 16.9399 78.3099 17.7234 78.3099 18.6899C78.3099 19.6564 79.0934 20.4399 80.0599 20.4399Z" fill="#0569AA"/>
<path d="M88.32 22.0699C89.2865 22.0699 90.07 21.2864 90.07 20.3199C90.07 19.3534 89.2865 18.5699 88.32 18.5699C87.3535 18.5699 86.57 19.3534 86.57 20.3199C86.57 21.2864 87.3535 22.0699 88.32 22.0699Z" fill="#0569AA"/>
<path d="M96.58 23.71C97.5465 23.71 98.33 22.9265 98.33 21.96C98.33 20.9935 97.5465 20.21 96.58 20.21C95.6135 20.21 94.83 20.9935 94.83 21.96C94.83 22.9265 95.6135 23.71 96.58 23.71Z" fill="#0569AA"/>
<path d="M104.83 25.34C105.796 25.34 106.58 24.5565 106.58 23.59C106.58 22.6235 105.796 21.84 104.83 21.84C103.863 21.84 103.08 22.6235 103.08 23.59C103.08 24.5565 103.863 25.34 104.83 25.34Z" fill="#0569AA"/>
<path d="M113.09 26.97C114.056 26.97 114.84 26.1865 114.84 25.22C114.84 24.2535 114.056 23.47 113.09 23.47C112.123 23.47 111.34 24.2535 111.34 25.22C111.34 26.1865 112.123 26.97 113.09 26.97Z" fill="#0569AA"/>
<path d="M12.34 15.86C13.3065 15.86 14.09 15.0765 14.09 14.11C14.09 13.1435 13.3065 12.36 12.34 12.36C11.3735 12.36 10.59 13.1435 10.59 14.11C10.59 15.0765 11.3735 15.86 12.34 15.86Z" fill="#0569AA"/>
<path d="M20.59 17.49C21.5565 17.49 22.34 16.7065 22.34 15.74C22.34 14.7735 21.5565 13.99 20.59 13.99C19.6235 13.99 18.84 14.7735 18.84 15.74C18.84 16.7065 19.6235 17.49 20.59 17.49Z" fill="#0569AA"/>
<path d="M28.85 19.13C29.8165 19.13 30.6 18.3465 30.6 17.38C30.6 16.4135 29.8165 15.63 28.85 15.63C27.8835 15.63 27.1 16.4135 27.1 17.38C27.1 18.3465 27.8835 19.13 28.85 19.13Z" fill="#0569AA"/>
<path d="M37.11 20.76C38.0765 20.76 38.86 19.9765 38.86 19.01C38.86 18.0435 38.0765 17.26 37.11 17.26C36.1435 17.26 35.36 18.0435 35.36 19.01C35.36 19.9765 36.1435 20.76 37.11 20.76Z" fill="#0569AA"/>
<path d="M45.36 22.39C46.3265 22.39 47.11 21.6065 47.11 20.64C47.11 19.6735 46.3265 18.89 45.36 18.89C44.3935 18.89 43.61 19.6735 43.61 20.64C43.61 21.6065 44.3935 22.39 45.36 22.39Z" fill="#0569AA"/>
<path d="M53.62 24.02C54.5865 24.02 55.37 23.2365 55.37 22.27C55.37 21.3035 54.5865 20.52 53.62 20.52C52.6535 20.52 51.87 21.3035 51.87 22.27C51.87 23.2365 52.6535 24.02 53.62 24.02Z" fill="#0569AA"/>
<path d="M61.87 25.66C62.8365 25.66 63.62 24.8765 63.62 23.91C63.62 22.9435 62.8365 22.16 61.87 22.16C60.9035 22.16 60.12 22.9435 60.12 23.91C60.12 24.8765 60.9035 25.66 61.87 25.66Z" fill="#0569AA"/>
<path d="M70.13 27.29C71.0965 27.29 71.88 26.5065 71.88 25.54C71.88 24.5735 71.0965 23.79 70.13 23.79C69.1635 23.79 68.38 24.5735 68.38 25.54C68.38 26.5065 69.1635 27.29 70.13 27.29Z" fill="#0569AA"/>
<path d="M78.39 28.92C79.3565 28.92 80.14 28.1365 80.14 27.17C80.14 26.2035 79.3565 25.42 78.39 25.42C77.4235 25.42 76.64 26.2035 76.64 27.17C76.64 28.1365 77.4235 28.92 78.39 28.92Z" fill="#0569AA"/>
<path d="M86.64 30.5599C87.6065 30.5599 88.39 29.7764 88.39 28.8099C88.39 27.8434 87.6065 27.0599 86.64 27.0599C85.6735 27.0599 84.89 27.8434 84.89 28.8099C84.89 29.7764 85.6735 30.5599 86.64 30.5599Z" fill="#0569AA"/>
<path d="M94.9 32.1899C95.8665 32.1899 96.65 31.4064 96.65 30.4399C96.65 29.4734 95.8665 28.6899 94.9 28.6899C93.9335 28.6899 93.15 29.4734 93.15 30.4399C93.15 31.4064 93.9335 32.1899 94.9 32.1899Z" fill="#0569AA"/>
<path d="M103.15 33.8199C104.116 33.8199 104.9 33.0364 104.9 32.0699C104.9 31.1034 104.116 30.3199 103.15 30.3199C102.183 30.3199 101.4 31.1034 101.4 32.0699C101.4 33.0364 102.183 33.8199 103.15 33.8199Z" fill="#0569AA"/>
<path d="M111.41 35.46C112.376 35.46 113.16 34.6765 113.16 33.71C113.16 32.7435 112.376 31.96 111.41 31.96C110.443 31.96 109.66 32.7435 109.66 33.71C109.66 34.6765 110.443 35.46 111.41 35.46Z" fill="#0569AA"/>
<path d="M10.66 24.34C11.6265 24.34 12.41 23.5565 12.41 22.59C12.41 21.6235 11.6265 20.84 10.66 20.84C9.69347 20.84 8.90997 21.6235 8.90997 22.59C8.90997 23.5565 9.69347 24.34 10.66 24.34Z" fill="#0569AA"/>
<path d="M18.92 25.98C19.8865 25.98 20.67 25.1965 20.67 24.23C20.67 23.2635 19.8865 22.48 18.92 22.48C17.9535 22.48 17.17 23.2635 17.17 24.23C17.17 25.1965 17.9535 25.98 18.92 25.98Z" fill="#0569AA"/>
<path d="M27.17 27.61C28.1365 27.61 28.92 26.8265 28.92 25.86C28.92 24.8935 28.1365 24.11 27.17 24.11C26.2035 24.11 25.42 24.8935 25.42 25.86C25.42 26.8265 26.2035 27.61 27.17 27.61Z" fill="#0569AA"/>
<path d="M35.43 29.24C36.3965 29.24 37.18 28.4565 37.18 27.49C37.18 26.5235 36.3965 25.74 35.43 25.74C34.4635 25.74 33.68 26.5235 33.68 27.49C33.68 28.4565 34.4635 29.24 35.43 29.24Z" fill="#0569AA"/>
<path d="M43.68 30.87C44.6465 30.87 45.43 30.0865 45.43 29.12C45.43 28.1535 44.6465 27.37 43.68 27.37C42.7135 27.37 41.93 28.1535 41.93 29.12C41.93 30.0865 42.7135 30.87 43.68 30.87Z" fill="#0569AA"/>
<path d="M51.9399 32.51C52.9064 32.51 53.6899 31.7265 53.6899 30.76C53.6899 29.7935 52.9064 29.01 51.9399 29.01C50.9734 29.01 50.1899 29.7935 50.1899 30.76C50.1899 31.7265 50.9734 32.51 51.9399 32.51Z" fill="#0569AA"/>
<path d="M60.2 34.14C61.1664 34.14 61.95 33.3565 61.95 32.39C61.95 31.4235 61.1664 30.64 60.2 30.64C59.2335 30.64 58.45 31.4235 58.45 32.39C58.45 33.3565 59.2335 34.14 60.2 34.14Z" fill="#0569AA"/>
<path d="M68.45 35.77C69.4164 35.77 70.2 34.9865 70.2 34.02C70.2 33.0535 69.4164 32.27 68.45 32.27C67.4835 32.27 66.7 33.0535 66.7 34.02C66.7 34.9865 67.4835 35.77 68.45 35.77Z" fill="#0569AA"/>
<path d="M76.71 37.41C77.6765 37.41 78.46 36.6265 78.46 35.66C78.46 34.6935 77.6765 33.91 76.71 33.91C75.7435 33.91 74.96 34.6935 74.96 35.66C74.96 36.6265 75.7435 37.41 76.71 37.41Z" fill="#0569AA"/>
<path d="M84.96 39.04C85.9265 39.04 86.71 38.2565 86.71 37.29C86.71 36.3235 85.9265 35.54 84.96 35.54C83.9935 35.54 83.21 36.3235 83.21 37.29C83.21 38.2565 83.9935 39.04 84.96 39.04Z" fill="#0569AA"/>
<path d="M93.22 40.6699C94.1865 40.6699 94.97 39.8864 94.97 38.9199C94.97 37.9534 94.1865 37.1699 93.22 37.1699C92.2535 37.1699 91.47 37.9534 91.47 38.9199C91.47 39.8864 92.2535 40.6699 93.22 40.6699Z" fill="#0569AA"/>
<path d="M101.48 42.3101C102.446 42.3101 103.23 41.5266 103.23 40.5601C103.23 39.5936 102.446 38.8101 101.48 38.8101C100.513 38.8101 99.73 39.5936 99.73 40.5601C99.73 41.5266 100.513 42.3101 101.48 42.3101Z" fill="#0569AA"/>
<path d="M109.73 43.9399C110.696 43.9399 111.48 43.1564 111.48 42.1899C111.48 41.2234 110.696 40.4399 109.73 40.4399C108.763 40.4399 107.98 41.2234 107.98 42.1899C107.98 43.1564 108.763 43.9399 109.73 43.9399Z" fill="#0569AA"/>
<path d="M117.99 45.5701C118.956 45.5701 119.74 44.7866 119.74 43.8201C119.74 42.8536 118.956 42.0701 117.99 42.0701C117.023 42.0701 116.24 42.8536 116.24 43.8201C116.24 44.7866 117.023 45.5701 117.99 45.5701Z" fill="#0569AA"/>
<path d="M17.24 34.46C18.2065 34.46 18.99 33.6765 18.99 32.71C18.99 31.7435 18.2065 30.96 17.24 30.96C16.2735 30.96 15.49 31.7435 15.49 32.71C15.49 33.6765 16.2735 34.46 17.24 34.46Z" fill="#0569AA"/>
<path d="M25.49 36.09C26.4565 36.09 27.24 35.3065 27.24 34.34C27.24 33.3735 26.4565 32.59 25.49 32.59C24.5235 32.59 23.74 33.3735 23.74 34.34C23.74 35.3065 24.5235 36.09 25.49 36.09Z" fill="#0569AA"/>
<path d="M33.75 37.72C34.7165 37.72 35.5 36.9365 35.5 35.97C35.5 35.0035 34.7165 34.22 33.75 34.22C32.7835 34.22 32 35.0035 32 35.97C32 36.9365 32.7835 37.72 33.75 37.72Z" fill="#0569AA"/>
<path d="M42.01 39.36C42.9765 39.36 43.76 38.5765 43.76 37.61C43.76 36.6435 42.9765 35.86 42.01 35.86C41.0435 35.86 40.26 36.6435 40.26 37.61C40.26 38.5765 41.0435 39.36 42.01 39.36Z" fill="#0569AA"/>
<path d="M50.26 40.99C51.2265 40.99 52.01 40.2065 52.01 39.24C52.01 38.2735 51.2265 37.49 50.26 37.49C49.2935 37.49 48.51 38.2735 48.51 39.24C48.51 40.2065 49.2935 40.99 50.26 40.99Z" fill="#0569AA"/>
<path d="M58.52 42.62C59.4865 42.62 60.27 41.8365 60.27 40.87C60.27 39.9035 59.4865 39.12 58.52 39.12C57.5535 39.12 56.77 39.9035 56.77 40.87C56.77 41.8365 57.5535 42.62 58.52 42.62Z" fill="#0569AA"/>
<path d="M66.77 44.26C67.7365 44.26 68.52 43.4765 68.52 42.51C68.52 41.5435 67.7365 40.76 66.77 40.76C65.8035 40.76 65.02 41.5435 65.02 42.51C65.02 43.4765 65.8035 44.26 66.77 44.26Z" fill="#0569AA"/>
<path d="M75.03 45.89C75.9965 45.89 76.78 45.1065 76.78 44.14C76.78 43.1735 75.9965 42.39 75.03 42.39C74.0635 42.39 73.28 43.1735 73.28 44.14C73.28 45.1065 74.0635 45.89 75.03 45.89Z" fill="#0569AA"/>
<path d="M83.29 47.52C84.2565 47.52 85.04 46.7365 85.04 45.77C85.04 44.8035 84.2565 44.02 83.29 44.02C82.3235 44.02 81.54 44.8035 81.54 45.77C81.54 46.7365 82.3235 47.52 83.29 47.52Z" fill="#0569AA"/>
<path d="M91.54 49.16C92.5065 49.16 93.29 48.3765 93.29 47.41C93.29 46.4435 92.5065 45.66 91.54 45.66C90.5735 45.66 89.79 46.4435 89.79 47.41C89.79 48.3765 90.5735 49.16 91.54 49.16Z" fill="#0569AA"/>
<path d="M99.8 50.79C100.766 50.79 101.55 50.0065 101.55 49.04C101.55 48.0735 100.766 47.29 99.8 47.29C98.8335 47.29 98.05 48.0735 98.05 49.04C98.05 50.0065 98.8335 50.79 99.8 50.79Z" fill="#0569AA"/>
<path d="M108.05 52.4199C109.016 52.4199 109.8 51.6364 109.8 50.6699C109.8 49.7034 109.016 48.9199 108.05 48.9199C107.083 48.9199 106.3 49.7034 106.3 50.6699C106.3 51.6364 107.083 52.4199 108.05 52.4199Z" fill="#0569AA"/>
<path d="M116.31 54.05C117.276 54.05 118.06 53.2665 118.06 52.3C118.06 51.3336 117.276 50.55 116.31 50.55C115.343 50.55 114.56 51.3336 114.56 52.3C114.56 53.2665 115.343 54.05 116.31 54.05Z" fill="#0569AA"/>
<path d="M15.5599 42.9399C16.5264 42.9399 17.3099 42.1564 17.3099 41.1899C17.3099 40.2234 16.5264 39.4399 15.5599 39.4399C14.5934 39.4399 13.8099 40.2234 13.8099 41.1899C13.8099 42.1564 14.5934 42.9399 15.5599 42.9399Z" fill="#0569AA"/>
<path d="M23.8199 44.5701C24.7864 44.5701 25.5699 43.7866 25.5699 42.8201C25.5699 41.8536 24.7864 41.0701 23.8199 41.0701C22.8534 41.0701 22.0699 41.8536 22.0699 42.8201C22.0699 43.7866 22.8534 44.5701 23.8199 44.5701Z" fill="#0569AA"/>
<path d="M32.0699 46.21C33.0364 46.21 33.8199 45.4265 33.8199 44.46C33.8199 43.4935 33.0364 42.71 32.0699 42.71C31.1034 42.71 30.3199 43.4935 30.3199 44.46C30.3199 45.4265 31.1034 46.21 32.0699 46.21Z" fill="#0569AA"/>
<path d="M40.33 47.84C41.2965 47.84 42.08 47.0565 42.08 46.09C42.08 45.1235 41.2965 44.34 40.33 44.34C39.3635 44.34 38.58 45.1235 38.58 46.09C38.58 47.0565 39.3635 47.84 40.33 47.84Z" fill="#0569AA"/>
<path d="M48.58 49.47C49.5465 49.47 50.33 48.6865 50.33 47.72C50.33 46.7535 49.5465 45.97 48.58 45.97C47.6135 45.97 46.83 46.7535 46.83 47.72C46.83 48.6865 47.6135 49.47 48.58 49.47Z" fill="#0569AA"/>
<path d="M56.84 51.11C57.8065 51.11 58.59 50.3265 58.59 49.36C58.59 48.3935 57.8065 47.61 56.84 47.61C55.8735 47.61 55.09 48.3935 55.09 49.36C55.09 50.3265 55.8735 51.11 56.84 51.11Z" fill="#0569AA"/>
<path d="M65.1 52.74C66.0665 52.74 66.85 51.9565 66.85 50.99C66.85 50.0235 66.0665 49.24 65.1 49.24C64.1335 49.24 63.35 50.0235 63.35 50.99C63.35 51.9565 64.1335 52.74 65.1 52.74Z" fill="#0569AA"/>
<path d="M73.35 54.37C74.3165 54.37 75.1 53.5865 75.1 52.62C75.1 51.6535 74.3165 50.87 73.35 50.87C72.3835 50.87 71.6 51.6535 71.6 52.62C71.6 53.5865 72.3835 54.37 73.35 54.37Z" fill="#0569AA"/>
<path d="M81.61 56C82.5765 56 83.36 55.2165 83.36 54.25C83.36 53.2835 82.5765 52.5 81.61 52.5C80.6435 52.5 79.86 53.2835 79.86 54.25C79.86 55.2165 80.6435 56 81.61 56Z" fill="#0569AA"/>
<path d="M89.86 57.64C90.8265 57.64 91.61 56.8565 91.61 55.89C91.61 54.9235 90.8265 54.14 89.86 54.14C88.8935 54.14 88.11 54.9235 88.11 55.89C88.11 56.8565 88.8935 57.64 89.86 57.64Z" fill="#0569AA"/>
<path d="M98.12 59.27C99.0865 59.27 99.87 58.4865 99.87 57.52C99.87 56.5535 99.0865 55.77 98.12 55.77C97.1535 55.77 96.37 56.5535 96.37 57.52C96.37 58.4865 97.1535 59.27 98.12 59.27Z" fill="#0569AA"/>
<path d="M106.38 60.9C107.346 60.9 108.13 60.1165 108.13 59.15C108.13 58.1835 107.346 57.4 106.38 57.4C105.413 57.4 104.63 58.1835 104.63 59.15C104.63 60.1165 105.413 60.9 106.38 60.9Z" fill="#0569AA"/>
<path d="M114.63 62.54C115.596 62.54 116.38 61.7565 116.38 60.79C116.38 59.8235 115.596 59.04 114.63 59.04C113.663 59.04 112.88 59.8235 112.88 60.79C112.88 61.7565 113.663 62.54 114.63 62.54Z" fill="#0569AA"/>
<path d="M13.88 51.4199C14.8465 51.4199 15.63 50.6364 15.63 49.6699C15.63 48.7034 14.8465 47.9199 13.88 47.9199C12.9135 47.9199 12.13 48.7034 12.13 49.6699C12.13 50.6364 12.9135 51.4199 13.88 51.4199Z" fill="#0569AA"/>
<path d="M22.14 53.0601C23.1065 53.0601 23.89 52.2766 23.89 51.3101C23.89 50.3436 23.1065 49.5601 22.14 49.5601C21.1735 49.5601 20.39 50.3436 20.39 51.3101C20.39 52.2766 21.1735 53.0601 22.14 53.0601Z" fill="#0569AA"/>
<path d="M30.39 54.6899C31.3565 54.6899 32.14 53.9064 32.14 52.9399C32.14 51.9734 31.3565 51.1899 30.39 51.1899C29.4235 51.1899 28.64 51.9734 28.64 52.9399C28.64 53.9064 29.4235 54.6899 30.39 54.6899Z" fill="#0569AA"/>
<path d="M38.65 56.3201C39.6165 56.3201 40.4 55.5366 40.4 54.5701C40.4 53.6036 39.6165 52.8201 38.65 52.8201C37.6835 52.8201 36.9 53.6036 36.9 54.5701C36.9 55.5366 37.6835 56.3201 38.65 56.3201Z" fill="#0569AA"/>
<path d="M46.91 57.96C47.8765 57.96 48.66 57.1765 48.66 56.21C48.66 55.2435 47.8765 54.46 46.91 54.46C45.9435 54.46 45.16 55.2435 45.16 56.21C45.16 57.1765 45.9435 57.96 46.91 57.96Z" fill="#0569AA"/>
<path d="M55.16 59.59C56.1265 59.59 56.91 58.8065 56.91 57.84C56.91 56.8735 56.1265 56.09 55.16 56.09C54.1935 56.09 53.41 56.8735 53.41 57.84C53.41 58.8065 54.1935 59.59 55.16 59.59Z" fill="#0569AA"/>
<path d="M63.42 61.22C64.3865 61.22 65.17 60.4365 65.17 59.47C65.17 58.5035 64.3865 57.72 63.42 57.72C62.4535 57.72 61.67 58.5035 61.67 59.47C61.67 60.4365 62.4535 61.22 63.42 61.22Z" fill="#0569AA"/>
<path d="M71.67 62.85C72.6365 62.85 73.42 62.0665 73.42 61.1C73.42 60.1335 72.6365 59.35 71.67 59.35C70.7035 59.35 69.92 60.1335 69.92 61.1C69.92 62.0665 70.7035 62.85 71.67 62.85Z" fill="#0569AA"/>
<path d="M79.93 64.49C80.8965 64.49 81.68 63.7065 81.68 62.74C81.68 61.7735 80.8965 60.99 79.93 60.99C78.9635 60.99 78.18 61.7735 78.18 62.74C78.18 63.7065 78.9635 64.49 79.93 64.49Z" fill="#0569AA"/>
<path d="M88.19 66.12C89.1565 66.12 89.94 65.3365 89.94 64.37C89.94 63.4035 89.1565 62.62 88.19 62.62C87.2235 62.62 86.44 63.4035 86.44 64.37C86.44 65.3365 87.2235 66.12 88.19 66.12Z" fill="#0569AA"/>
<path d="M96.44 67.75C97.4065 67.75 98.19 66.9665 98.19 66C98.19 65.0335 97.4065 64.25 96.44 64.25C95.4735 64.25 94.69 65.0335 94.69 66C94.69 66.9665 95.4735 67.75 96.44 67.75Z" fill="#0569AA"/>
<path d="M104.7 69.39C105.666 69.39 106.45 68.6065 106.45 67.64C106.45 66.6735 105.666 65.89 104.7 65.89C103.733 65.89 102.95 66.6735 102.95 67.64C102.95 68.6065 103.733 69.39 104.7 69.39Z" fill="#0569AA"/>
<path d="M112.95 71.02C113.916 71.02 114.7 70.2365 114.7 69.27C114.7 68.3035 113.916 67.52 112.95 67.52C111.983 67.52 111.2 68.3035 111.2 69.27C111.2 70.2365 111.983 71.02 112.95 71.02Z" fill="#0569AA"/>
<path d="M12.2 59.91C13.1664 59.91 13.95 59.1265 13.95 58.16C13.95 57.1935 13.1664 56.41 12.2 56.41C11.2335 56.41 10.45 57.1935 10.45 58.16C10.45 59.1265 11.2335 59.91 12.2 59.91Z" fill="#0569AA"/>
<path d="M20.46 61.54C21.4265 61.54 22.21 60.7565 22.21 59.79C22.21 58.8235 21.4265 58.04 20.46 58.04C19.4935 58.04 18.71 58.8235 18.71 59.79C18.71 60.7565 19.4935 61.54 20.46 61.54Z" fill="#0569AA"/>
<path d="M28.72 63.1699C29.6865 63.1699 30.47 62.3864 30.47 61.4199C30.47 60.4534 29.6865 59.6699 28.72 59.6699C27.7535 59.6699 26.97 60.4534 26.97 61.4199C26.97 62.3864 27.7535 63.1699 28.72 63.1699Z" fill="#0569AA"/>
<path d="M36.97 64.8101C37.9365 64.8101 38.72 64.0266 38.72 63.0601C38.72 62.0936 37.9365 61.3101 36.97 61.3101C36.0035 61.3101 35.22 62.0936 35.22 63.0601C35.22 64.0266 36.0035 64.8101 36.97 64.8101Z" fill="#0569AA"/>
<path d="M45.23 66.4399C46.1965 66.4399 46.98 65.6564 46.98 64.6899C46.98 63.7234 46.1965 62.9399 45.23 62.9399C44.2635 62.9399 43.48 63.7234 43.48 64.6899C43.48 65.6564 44.2635 66.4399 45.23 66.4399Z" fill="#0569AA"/>
<path d="M53.48 68.0701C54.4465 68.0701 55.23 67.2866 55.23 66.3201C55.23 65.3536 54.4465 64.5701 53.48 64.5701C52.5135 64.5701 51.73 65.3536 51.73 66.3201C51.73 67.2866 52.5135 68.0701 53.48 68.0701Z" fill="#0569AA"/>
<path d="M61.74 69.7C62.7065 69.7 63.49 68.9164 63.49 67.95C63.49 66.9835 62.7065 66.2 61.74 66.2C60.7735 66.2 59.99 66.9835 59.99 67.95C59.99 68.9164 60.7735 69.7 61.74 69.7Z" fill="#0569AA"/>
<path d="M70 71.34C70.9665 71.34 71.75 70.5565 71.75 69.59C71.75 68.6235 70.9665 67.84 70 67.84C69.0335 67.84 68.25 68.6235 68.25 69.59C68.25 70.5565 69.0335 71.34 70 71.34Z" fill="#0569AA"/>
<path d="M78.25 72.97C79.2165 72.97 80 72.1865 80 71.22C80 70.2535 79.2165 69.47 78.25 69.47C77.2835 69.47 76.5 70.2535 76.5 71.22C76.5 72.1865 77.2835 72.97 78.25 72.97Z" fill="#0569AA"/>
<path d="M86.51 74.6C87.4765 74.6 88.26 73.8165 88.26 72.85C88.26 71.8835 87.4765 71.1 86.51 71.1C85.5435 71.1 84.76 71.8835 84.76 72.85C84.76 73.8165 85.5435 74.6 86.51 74.6Z" fill="#0569AA"/>
<path d="M94.76 76.24C95.7265 76.24 96.51 75.4565 96.51 74.49C96.51 73.5235 95.7265 72.74 94.76 72.74C93.7935 72.74 93.01 73.5235 93.01 74.49C93.01 75.4565 93.7935 76.24 94.76 76.24Z" fill="#0569AA"/>
<path d="M103.02 77.87C103.986 77.87 104.77 77.0865 104.77 76.12C104.77 75.1535 103.986 74.37 103.02 74.37C102.053 74.37 101.27 75.1535 101.27 76.12C101.27 77.0865 102.053 77.87 103.02 77.87Z" fill="#0569AA"/>
<path d="M111.28 79.5C112.246 79.5 113.03 78.7165 113.03 77.75C113.03 76.7835 112.246 76 111.28 76C110.313 76 109.53 76.7835 109.53 77.75C109.53 78.7165 110.313 79.5 111.28 79.5Z" fill="#0569AA"/>
<path d="M10.53 68.39C11.4965 68.39 12.28 67.6065 12.28 66.64C12.28 65.6735 11.4965 64.89 10.53 64.89C9.56347 64.89 8.77997 65.6735 8.77997 66.64C8.77997 67.6065 9.56347 68.39 10.53 68.39Z" fill="#0569AA"/>
<path d="M18.78 70.02C19.7465 70.02 20.53 69.2365 20.53 68.27C20.53 67.3035 19.7465 66.52 18.78 66.52C17.8135 66.52 17.03 67.3035 17.03 68.27C17.03 69.2365 17.8135 70.02 18.78 70.02Z" fill="#0569AA"/>
<path d="M27.04 71.65C28.0065 71.65 28.79 70.8665 28.79 69.9C28.79 68.9335 28.0065 68.15 27.04 68.15C26.0735 68.15 25.29 68.9335 25.29 69.9C25.29 70.8665 26.0735 71.65 27.04 71.65Z" fill="#0569AA"/>
<path d="M35.29 73.29C36.2565 73.29 37.04 72.5065 37.04 71.54C37.04 70.5735 36.2565 69.79 35.29 69.79C34.3235 69.79 33.54 70.5735 33.54 71.54C33.54 72.5065 34.3235 73.29 35.29 73.29Z" fill="#0569AA"/>
<path d="M43.55 74.9199C44.5165 74.9199 45.3 74.1364 45.3 73.1699C45.3 72.2034 44.5165 71.4199 43.55 71.4199C42.5835 71.4199 41.8 72.2034 41.8 73.1699C41.8 74.1364 42.5835 74.9199 43.55 74.9199Z" fill="#0569AA"/>
<path d="M51.8099 76.55C52.7764 76.55 53.5599 75.7665 53.5599 74.8C53.5599 73.8336 52.7764 73.05 51.8099 73.05C50.8434 73.05 50.0599 73.8336 50.0599 74.8C50.0599 75.7665 50.8434 76.55 51.8099 76.55Z" fill="#0569AA"/>
<path d="M60.0599 78.1899C61.0264 78.1899 61.8099 77.4064 61.8099 76.4399C61.8099 75.4734 61.0264 74.6899 60.0599 74.6899C59.0934 74.6899 58.3099 75.4734 58.3099 76.4399C58.3099 77.4064 59.0934 78.1899 60.0599 78.1899Z" fill="#0569AA"/>
<path d="M68.3199 79.8201C69.2864 79.8201 70.0699 79.0366 70.0699 78.0701C70.0699 77.1036 69.2864 76.3201 68.3199 76.3201C67.3534 76.3201 66.5699 77.1036 66.5699 78.0701C66.5699 79.0366 67.3534 79.8201 68.3199 79.8201Z" fill="#0569AA"/>
<path d="M76.5699 81.45C77.5364 81.45 78.3199 80.6664 78.3199 79.7C78.3199 78.7335 77.5364 77.95 76.5699 77.95C75.6034 77.95 74.8199 78.7335 74.8199 79.7C74.8199 80.6664 75.6034 81.45 76.5699 81.45Z" fill="#0569AA"/>
<path d="M84.83 83.09C85.7965 83.09 86.58 82.3065 86.58 81.34C86.58 80.3735 85.7965 79.59 84.83 79.59C83.8635 79.59 83.08 80.3735 83.08 81.34C83.08 82.3065 83.8635 83.09 84.83 83.09Z" fill="#0569AA"/>
<path d="M93.09 84.72C94.0565 84.72 94.84 83.9365 94.84 82.97C94.84 82.0035 94.0565 81.22 93.09 81.22C92.1235 81.22 91.34 82.0035 91.34 82.97C91.34 83.9365 92.1235 84.72 93.09 84.72Z" fill="#0569AA"/>
<path d="M101.34 86.35C102.306 86.35 103.09 85.5665 103.09 84.6C103.09 83.6335 102.306 82.85 101.34 82.85C100.373 82.85 99.59 83.6335 99.59 84.6C99.59 85.5665 100.373 86.35 101.34 86.35Z" fill="#0569AA"/>
<path d="M109.6 87.99C110.566 87.99 111.35 87.2065 111.35 86.24C111.35 85.2735 110.566 84.49 109.6 84.49C108.633 84.49 107.85 85.2735 107.85 86.24C107.85 87.2065 108.633 87.99 109.6 87.99Z" fill="#0569AA"/>
<path d="M117.85 89.62C118.816 89.62 119.6 88.8365 119.6 87.87C119.6 86.9035 118.816 86.12 117.85 86.12C116.883 86.12 116.1 86.9035 116.1 87.87C116.1 88.8365 116.883 89.62 117.85 89.62Z" fill="#0569AA"/>
<path d="M17.1 78.5C18.0665 78.5 18.85 77.7165 18.85 76.75C18.85 75.7835 18.0665 75 17.1 75C16.1335 75 15.35 75.7835 15.35 76.75C15.35 77.7165 16.1335 78.5 17.1 78.5Z" fill="#0569AA"/>
<path d="M25.36 80.14C26.3265 80.14 27.11 79.3565 27.11 78.39C27.11 77.4235 26.3265 76.64 25.36 76.64C24.3935 76.64 23.61 77.4235 23.61 78.39C23.61 79.3565 24.3935 80.14 25.36 80.14Z" fill="#0569AA"/>
<path d="M33.62 81.77C34.5865 81.77 35.37 80.9865 35.37 80.02C35.37 79.0535 34.5865 78.27 33.62 78.27C32.6535 78.27 31.87 79.0535 31.87 80.02C31.87 80.9865 32.6535 81.77 33.62 81.77Z" fill="#0569AA"/>
<path d="M41.87 83.4C42.8365 83.4 43.62 82.6165 43.62 81.65C43.62 80.6835 42.8365 79.9 41.87 79.9C40.9035 79.9 40.12 80.6835 40.12 81.65C40.12 82.6165 40.9035 83.4 41.87 83.4Z" fill="#0569AA"/>
<path d="M50.13 85.04C51.0965 85.04 51.88 84.2565 51.88 83.29C51.88 82.3235 51.0965 81.54 50.13 81.54C49.1635 81.54 48.38 82.3235 48.38 83.29C48.38 84.2565 49.1635 85.04 50.13 85.04Z" fill="#0569AA"/>
<path d="M58.38 86.67C59.3465 86.67 60.13 85.8865 60.13 84.92C60.13 83.9535 59.3465 83.17 58.38 83.17C57.4135 83.17 56.63 83.9535 56.63 84.92C56.63 85.8865 57.4135 86.67 58.38 86.67Z" fill="#0569AA"/>
<path d="M66.64 88.3C67.6065 88.3 68.39 87.5165 68.39 86.55C68.39 85.5836 67.6065 84.8 66.64 84.8C65.6735 84.8 64.89 85.5836 64.89 86.55C64.89 87.5165 65.6735 88.3 66.64 88.3Z" fill="#0569AA"/>
<path d="M74.9 89.9399C75.8665 89.9399 76.65 89.1564 76.65 88.1899C76.65 87.2234 75.8665 86.4399 74.9 86.4399C73.9335 86.4399 73.15 87.2234 73.15 88.1899C73.15 89.1564 73.9335 89.9399 74.9 89.9399Z" fill="#0569AA"/>
<path d="M83.15 91.5701C84.1165 91.5701 84.9 90.7866 84.9 89.8201C84.9 88.8536 84.1165 88.0701 83.15 88.0701C82.1835 88.0701 81.4 88.8536 81.4 89.8201C81.4 90.7866 82.1835 91.5701 83.15 91.5701Z" fill="#0569AA"/>
<path d="M91.41 93.2C92.3765 93.2 93.16 92.4164 93.16 91.45C93.16 90.4835 92.3765 89.7 91.41 89.7C90.4435 89.7 89.66 90.4835 89.66 91.45C89.66 92.4164 90.4435 93.2 91.41 93.2Z" fill="#0569AA"/>
<path d="M99.66 94.83C100.626 94.83 101.41 94.0465 101.41 93.08C101.41 92.1135 100.626 91.33 99.66 91.33C98.6935 91.33 97.91 92.1135 97.91 93.08C97.91 94.0465 98.6935 94.83 99.66 94.83Z" fill="#0569AA"/>
<path d="M107.92 96.47C108.886 96.47 109.67 95.6865 109.67 94.72C109.67 93.7535 108.886 92.97 107.92 92.97C106.953 92.97 106.17 93.7535 106.17 94.72C106.17 95.6865 106.953 96.47 107.92 96.47Z" fill="#0569AA"/>
<path d="M116.18 98.1C117.146 98.1 117.93 97.3165 117.93 96.35C117.93 95.3835 117.146 94.6 116.18 94.6C115.213 94.6 114.43 95.3835 114.43 96.35C114.43 97.3165 115.213 98.1 116.18 98.1Z" fill="#0569AA"/>
<path d="M15.43 86.99C16.3965 86.99 17.18 86.2065 17.18 85.24C17.18 84.2735 16.3965 83.49 15.43 83.49C14.4635 83.49 13.68 84.2735 13.68 85.24C13.68 86.2065 14.4635 86.99 15.43 86.99Z" fill="#0569AA"/>
<path d="M23.68 88.62C24.6465 88.62 25.43 87.8365 25.43 86.87C25.43 85.9035 24.6465 85.12 23.68 85.12C22.7135 85.12 21.93 85.9035 21.93 86.87C21.93 87.8365 22.7135 88.62 23.68 88.62Z" fill="#0569AA"/>
<path d="M31.9399 90.25C32.9064 90.25 33.6899 89.4665 33.6899 88.5C33.6899 87.5335 32.9064 86.75 31.9399 86.75C30.9734 86.75 30.1899 87.5335 30.1899 88.5C30.1899 89.4665 30.9734 90.25 31.9399 90.25Z" fill="#0569AA"/>
<path d="M40.1899 91.89C41.1564 91.89 41.9399 91.1065 41.9399 90.14C41.9399 89.1735 41.1564 88.39 40.1899 88.39C39.2234 88.39 38.4399 89.1735 38.4399 90.14C38.4399 91.1065 39.2234 91.89 40.1899 91.89Z" fill="#0569AA"/>
<path d="M48.45 93.52C49.4164 93.52 50.2 92.7365 50.2 91.77C50.2 90.8035 49.4164 90.02 48.45 90.02C47.4835 90.02 46.7 90.8035 46.7 91.77C46.7 92.7365 47.4835 93.52 48.45 93.52Z" fill="#0569AA"/>
<path d="M56.71 95.15C57.6765 95.15 58.46 94.3665 58.46 93.4C58.46 92.4335 57.6765 91.65 56.71 91.65C55.7435 91.65 54.96 92.4335 54.96 93.4C54.96 94.3665 55.7435 95.15 56.71 95.15Z" fill="#0569AA"/>
<path d="M64.96 96.79C65.9265 96.79 66.71 96.0065 66.71 95.04C66.71 94.0735 65.9265 93.29 64.96 93.29C63.9935 93.29 63.21 94.0735 63.21 95.04C63.21 96.0065 63.9935 96.79 64.96 96.79Z" fill="#0569AA"/>
<path d="M73.22 98.42C74.1865 98.42 74.97 97.6365 74.97 96.67C74.97 95.7035 74.1865 94.92 73.22 94.92C72.2535 94.92 71.47 95.7035 71.47 96.67C71.47 97.6365 72.2535 98.42 73.22 98.42Z" fill="#0569AA"/>
<path d="M81.47 100.05C82.4365 100.05 83.22 99.2665 83.22 98.3C83.22 97.3336 82.4365 96.55 81.47 96.55C80.5035 96.55 79.72 97.3336 79.72 98.3C79.72 99.2665 80.5035 100.05 81.47 100.05Z" fill="#0569AA"/>
<path d="M89.73 101.68C90.6965 101.68 91.48 100.896 91.48 99.9299C91.48 98.9634 90.6965 98.1799 89.73 98.1799C88.7635 98.1799 87.98 98.9634 87.98 99.9299C87.98 100.896 88.7635 101.68 89.73 101.68Z" fill="#0569AA"/>
<path d="M97.99 103.32C98.9565 103.32 99.74 102.537 99.74 101.57C99.74 100.604 98.9565 99.8201 97.99 99.8201C97.0235 99.8201 96.24 100.604 96.24 101.57C96.24 102.537 97.0235 103.32 97.99 103.32Z" fill="#0569AA"/>
<path d="M106.24 104.95C107.206 104.95 107.99 104.166 107.99 103.2C107.99 102.233 107.206 101.45 106.24 101.45C105.273 101.45 104.49 102.233 104.49 103.2C104.49 104.166 105.273 104.95 106.24 104.95Z" fill="#0569AA"/>
<path d="M114.5 106.58C115.466 106.58 116.25 105.796 116.25 104.83C116.25 103.863 115.466 103.08 114.5 103.08C113.533 103.08 112.75 103.863 112.75 104.83C112.75 105.796 113.533 106.58 114.5 106.58Z" fill="#0569AA"/>
<path d="M13.75 95.47C14.7165 95.47 15.5 94.6865 15.5 93.72C15.5 92.7535 14.7165 91.97 13.75 91.97C12.7835 91.97 12 92.7535 12 93.72C12 94.6865 12.7835 95.47 13.75 95.47Z" fill="#0569AA"/>
<path d="M22 97.1C22.9665 97.1 23.75 96.3165 23.75 95.35C23.75 94.3835 22.9665 93.6 22 93.6C21.0335 93.6 20.25 94.3835 20.25 95.35C20.25 96.3165 21.0335 97.1 22 97.1Z" fill="#0569AA"/>
<path d="M30.26 98.74C31.2265 98.74 32.01 97.9565 32.01 96.99C32.01 96.0235 31.2265 95.24 30.26 95.24C29.2935 95.24 28.51 96.0235 28.51 96.99C28.51 97.9565 29.2935 98.74 30.26 98.74Z" fill="#0569AA"/>
<path d="M38.52 100.37C39.4865 100.37 40.27 99.5865 40.27 98.62C40.27 97.6535 39.4865 96.87 38.52 96.87C37.5535 96.87 36.77 97.6535 36.77 98.62C36.77 99.5865 37.5535 100.37 38.52 100.37Z" fill="#0569AA"/>
<path d="M46.77 102C47.7365 102 48.52 101.216 48.52 100.25C48.52 99.2835 47.7365 98.5 46.77 98.5C45.8035 98.5 45.02 99.2835 45.02 100.25C45.02 101.216 45.8035 102 46.77 102Z" fill="#0569AA"/>
<path d="M55.03 103.64C55.9965 103.64 56.78 102.857 56.78 101.89C56.78 100.924 55.9965 100.14 55.03 100.14C54.0635 100.14 53.28 100.924 53.28 101.89C53.28 102.857 54.0635 103.64 55.03 103.64Z" fill="#0569AA"/>
<path d="M63.28 105.27C64.2465 105.27 65.03 104.487 65.03 103.52C65.03 102.554 64.2465 101.77 63.28 101.77C62.3135 101.77 61.53 102.554 61.53 103.52C61.53 104.487 62.3135 105.27 63.28 105.27Z" fill="#0569AA"/>
<path d="M71.54 106.9C72.5065 106.9 73.29 106.117 73.29 105.15C73.29 104.184 72.5065 103.4 71.54 103.4C70.5735 103.4 69.79 104.184 69.79 105.15C69.79 106.117 70.5735 106.9 71.54 106.9Z" fill="#0569AA"/>
<path d="M79.8 108.53C80.7665 108.53 81.55 107.747 81.55 106.78C81.55 105.814 80.7665 105.03 79.8 105.03C78.8335 105.03 78.05 105.814 78.05 106.78C78.05 107.747 78.8335 108.53 79.8 108.53Z" fill="#0569AA"/>
<path d="M12.0699 103.95C13.0364 103.95 13.8199 103.166 13.8199 102.2C13.8199 101.233 13.0364 100.45 12.0699 100.45C11.1034 100.45 10.3199 101.233 10.3199 102.2C10.3199 103.166 11.1034 103.95 12.0699 103.95Z" fill="#0569AA"/>
<path d="M20.33 105.59C21.2965 105.59 22.08 104.806 22.08 103.84C22.08 102.873 21.2965 102.09 20.33 102.09C19.3635 102.09 18.58 102.873 18.58 103.84C18.58 104.806 19.3635 105.59 20.33 105.59Z" fill="#0569AA"/>
<path d="M28.58 107.22C29.5465 107.22 30.33 106.436 30.33 105.47C30.33 104.503 29.5465 103.72 28.58 103.72C27.6135 103.72 26.83 104.503 26.83 105.47C26.83 106.436 27.6135 107.22 28.58 107.22Z" fill="#0569AA"/>
</g>
<path d="M1.87094 48.6793C1.61094 50.8093 0.240936 68.1993 23.9309 80.4493C24.6109 80.7993 25.0309 81.4993 25.0309 82.2693L24.9909 88.7693C24.9909 89.6093 25.5009 90.3593 26.2709 90.6693L30.5009 92.3493C31.5509 92.7693 32.7309 92.2493 33.1409 91.2093L34.5609 87.6493C34.9809 86.5793 36.2109 86.0793 37.2609 86.5293C40.9909 88.1493 49.4009 91.7093 55.6009 93.5893C56.7409 93.9393 57.3409 95.1893 56.9009 96.2993L55.4009 100.049C54.9809 101.099 55.4909 102.279 56.5409 102.699L61.5509 104.689C62.0009 104.869 62.5109 104.879 62.9709 104.719C67.7409 103.059 94.2209 92.6993 93.3909 67.1493C92.6109 43.1393 54.2309 33.9693 43.1309 31.8193C41.5709 31.5193 40.3709 30.2793 40.1209 28.7093C39.8509 27.0793 39.0409 24.9893 36.8109 23.3993C33.7209 21.1893 34.5709 25.3593 34.1809 28.0993C34.0109 29.2793 32.8609 30.0693 31.7009 29.7893C28.6709 29.0593 20.5509 28.3993 13.4009 39.1493C13.0009 39.7593 12.3009 40.1093 11.5709 40.0593L6.43094 39.7493C5.51094 39.6893 4.67092 40.2593 4.38092 41.1293L1.96094 48.2893C1.92094 48.4093 1.89094 48.5393 1.87094 48.6793Z" fill="white"/>
<path d="M60.9109 106.319L55.9009 104.329C54.9609 103.949 54.2209 103.229 53.8109 102.299C53.4109 101.369 53.4009 100.329 53.7709 99.3893L55.2709 95.6393C55.3109 95.5493 55.2909 95.4693 55.2609 95.4193C55.2409 95.3693 55.1809 95.2992 55.0909 95.2692C48.7209 93.3292 40.0109 89.6393 36.5609 88.1393C36.4509 88.0893 36.3909 88.1193 36.3409 88.1393C36.2909 88.1593 36.2209 88.1993 36.1909 88.2893L34.7709 91.8493C34.0009 93.7893 31.7909 94.7493 29.8409 93.9793L25.6109 92.2992C24.1509 91.7192 23.2109 90.3292 23.2209 88.7492L23.2609 82.2492C23.2609 82.1492 23.2009 82.0492 23.1109 81.9992C-1.69908 69.1692 -0.149084 50.5392 0.110916 48.4492C0.140916 48.1992 0.200899 47.9493 0.280899 47.7093L2.70091 40.5492C3.25091 38.9292 4.8209 37.8692 6.5309 37.9792L11.6709 38.2892C11.7709 38.2992 11.8709 38.2492 11.9209 38.1592C19.6509 26.5392 28.6009 27.2293 32.1009 28.0693C32.2009 28.0893 32.2709 28.0592 32.3109 28.0292C32.3609 27.9992 32.4109 27.9392 32.4309 27.8392C32.5109 27.2892 32.5309 26.5992 32.5509 25.9392C32.6109 24.0292 32.6709 22.0592 34.2809 21.2592C35.8009 20.5092 37.3209 21.5892 37.8209 21.9492C40.5909 23.9292 41.5409 26.5592 41.8409 28.4092C41.9809 29.2492 42.6309 29.9192 43.4509 30.0792C55.3709 32.3892 94.3109 41.8792 95.1309 67.0792C96.0009 93.7192 68.9609 104.479 63.5309 106.369C62.7009 106.679 61.7609 106.659 60.9109 106.319ZM56.4309 92.0192C57.3109 92.3692 58.0409 93.0492 58.4509 93.9092C58.9109 94.8692 58.9509 95.9792 58.5509 96.9592L57.0509 100.709C57.0109 100.799 57.0309 100.869 57.0509 100.919C57.0709 100.969 57.1109 101.029 57.2009 101.069L62.2109 103.059C62.2709 103.079 62.3409 103.089 62.4009 103.059C67.4209 101.319 92.4209 91.3893 91.6409 67.2093C90.9109 44.6193 54.0809 35.7392 42.8109 33.5492C40.5409 33.1092 38.7709 31.2792 38.4009 28.9992C38.1409 27.3992 37.3809 26.0792 36.1309 25.0792C36.1109 25.4192 36.1009 25.7693 36.0909 26.0693C36.0709 26.8293 36.0409 27.6092 35.9309 28.3592C35.7809 29.4092 35.1909 30.3593 34.3009 30.9593C33.4209 31.5593 32.3209 31.7592 31.2909 31.5092C28.5209 30.8492 21.3709 30.3592 14.8609 40.1292C14.1109 41.2592 12.8109 41.9093 11.4609 41.8193L6.32091 41.5092C6.20091 41.4992 6.08091 41.5792 6.04091 41.6992L3.62093 48.8592C3.61093 48.8792 3.61092 48.8892 3.61092 48.9092C3.38092 50.7492 2.05091 67.1692 24.7309 78.8992C26.0009 79.5592 26.7909 80.8593 26.7809 82.2893L26.7409 88.7893C26.7409 88.8993 26.8109 89.0092 26.9209 89.0492L31.1509 90.7293C31.2909 90.7893 31.4509 90.7193 31.5109 90.5693L32.9309 87.0093C33.3109 86.0493 34.0509 85.2992 35.0109 84.8992C35.9709 84.4992 37.0109 84.5092 37.9709 84.9292C41.3709 86.4092 49.9309 90.0393 56.1309 91.9193C56.2309 91.9393 56.3309 91.9792 56.4309 92.0192Z" fill="#0569AA"/>
<path d="M18.4209 42.4292C17.7209 42.1492 17.3809 41.3592 17.6609 40.6592L17.8609 40.1492C18.1409 39.4492 18.9309 39.1092 19.6309 39.3892C20.3309 39.6692 20.6709 40.4592 20.3909 41.1592L20.1909 41.6692C19.9209 42.3692 19.1209 42.7092 18.4209 42.4292Z" fill="#0569AA"/>
<path d="M7.82097 49.7092C6.92097 49.3492 6.48098 48.3292 6.83098 47.4292L7.79097 45.0092C8.15097 44.1092 9.17097 43.6692 10.071 44.0192C10.971 44.3792 11.411 45.3992 11.061 46.2992L10.101 48.7192C9.74097 49.6292 8.72097 50.0692 7.82097 49.7092Z" fill="#0569AA"/>
<path d="M89.0809 63.7993C89.2209 63.6993 89.3609 63.6093 89.5009 63.5193C89.5609 63.4793 89.7609 63.3693 89.4909 63.5293C89.5509 63.4993 89.611 63.4593 89.681 63.4293C90.061 63.2293 90.451 63.0293 90.841 62.8493C91.631 62.4893 92.4509 62.1693 93.2809 61.8893C94.1909 61.5793 94.6009 61.4493 95.5109 61.2393C96.1509 61.0893 96.7809 60.9693 97.4409 60.9293C97.5909 60.9193 97.7409 60.9093 97.8909 60.9093C97.9409 60.9093 98.2309 60.8993 98.0209 60.9093C97.8209 60.9093 98.061 60.9093 98.091 60.9093C98.501 60.9093 98.9109 60.9093 99.3209 60.9293C99.6609 60.9493 100.001 60.9693 100.341 61.0093C100.481 61.0293 100.621 61.0493 100.761 61.0693C100.831 61.0793 100.911 61.0993 100.981 61.1093C101.191 61.1393 100.631 60.9793 100.891 61.0893C101.371 61.2993 101.881 61.4393 102.361 61.6593C102.721 61.8293 102.151 61.4793 102.481 61.7393C102.591 61.8293 102.701 61.9093 102.811 61.9993C102.501 61.7493 102.851 62.0793 102.931 62.1793C102.981 62.2493 103.041 62.4293 102.931 62.1793C102.971 62.2693 103.011 62.3593 103.051 62.4493C103.171 62.7093 103.101 62.5893 103.081 62.5093C103.111 62.6193 103.131 62.7393 103.151 62.8593C103.191 63.0993 103.211 63.2093 103.191 63.3793C103.181 63.4693 103.171 63.5493 103.161 63.6393C103.131 63.9193 103.241 63.4393 103.161 63.6893C103.131 63.7893 103.091 63.8893 103.051 63.9793C102.961 64.1993 103.271 63.7193 103.011 64.0493C102.951 64.1293 102.691 64.4393 102.801 64.3393C102.951 64.1893 102.731 64.3893 102.691 64.4193C102.621 64.4793 102.551 64.5293 102.471 64.5793C102.421 64.6193 102.361 64.6593 102.301 64.6893C102.591 64.5093 102.391 64.6393 102.321 64.6593C102.241 64.6893 102.171 64.7293 102.091 64.7593C102.041 64.7793 101.711 64.8993 101.961 64.8193C102.191 64.7393 101.761 64.8493 101.701 64.8693C101.661 64.8793 101.611 64.8693 101.571 64.8793C101.341 64.9393 101.701 64.8493 101.741 64.8793C101.591 64.7693 101.151 64.9593 101.011 64.7993C101.021 64.8093 101.391 64.9193 101.161 64.8293C101.101 64.8093 101.031 64.7893 100.971 64.7693C100.901 64.7393 100.641 64.6793 100.601 64.6093C100.591 64.5793 100.911 64.8293 100.761 64.6993C100.711 64.6593 100.641 64.6193 100.591 64.5893C100.531 64.5493 100.481 64.4993 100.431 64.4593C100.291 64.3593 100.301 64.2293 100.471 64.5093C100.421 64.4193 100.311 64.2793 100.231 64.2093C100.081 64.0793 100.341 64.4793 100.271 64.2893C100.251 64.2193 100.211 64.1493 100.171 64.0793C100.141 64.0293 100.131 63.9693 100.111 63.9093C100.241 64.1993 100.141 64.0693 100.131 63.9593C100.121 63.8793 100.111 63.7793 100.091 63.6993C100.031 63.4093 100.061 63.8293 100.081 63.6393C100.091 63.4593 100.101 63.2793 100.121 63.1093C100.181 62.5793 100.011 63.2993 100.101 63.1493C100.141 63.0793 100.161 62.9793 100.201 62.8993C100.211 62.8693 100.231 62.8393 100.251 62.7993C100.361 62.5393 100.221 62.9093 100.161 62.9493C100.301 62.8593 100.421 62.5293 100.521 62.3893C100.691 62.1493 100.871 61.9193 101.051 61.6993C101.441 61.2193 101.851 60.7693 102.261 60.3193C102.391 60.1793 102.521 60.0393 102.651 59.9093C102.741 59.8193 103.051 59.4993 102.801 59.7493C103.071 59.4793 103.351 59.1993 103.631 58.9293C104.151 58.4293 104.671 57.9393 105.191 57.4493C105.901 56.7893 106.631 56.1493 107.341 55.4893C107.991 54.8793 108.211 53.9193 107.621 53.1693C107.111 52.5193 105.961 52.2793 105.301 52.8893C103.401 54.6693 101.451 56.3793 99.6609 58.2793C98.7309 59.2693 97.791 60.3093 97.181 61.5493C96.431 63.0693 96.7009 65.1493 97.7809 66.4493C98.8209 67.6993 100.531 68.3193 102.141 68.1293C104.271 67.8793 106.051 66.1593 106.411 64.0693C106.811 61.7493 105.581 59.5593 103.511 58.5593C102.141 57.8993 100.671 57.6493 99.1609 57.6093C98.2109 57.5893 97.2309 57.5893 96.2809 57.7093C95.2309 57.8393 94.2009 58.1493 93.1909 58.4493C91.0609 59.0793 88.881 59.8993 87.061 61.1893C86.331 61.6993 86.2509 62.8293 86.7809 63.5093C87.3409 64.2493 88.3509 64.3193 89.0809 63.7993Z" fill="#0569AA"/>
<path d="M67.1309 49.4292C61.5509 45.3392 54.8809 44.5392 54.8209 44.5292L55.3209 40.1592C55.6409 40.1992 63.2209 41.1092 69.7309 45.8792L67.1309 49.4292Z" fill="#0569AA"/>
</svg>
