<svg width="92" height="88" viewBox="0 0 92 88" fill="none" xmlns="http://www.w3.org/2000/svg">
<mask id="mask0_15_7690" style="mask-type:luminance" maskUnits="userSpaceOnUse" x="0" y="21" width="67" height="67">
<path d="M33.3 87.9475C51.6911 87.9475 66.6 73.0386 66.6 54.6475C66.6 36.2565 51.6911 21.3475 33.3 21.3475C14.909 21.3475 0 36.2565 0 54.6475C0 73.0386 14.909 87.9475 33.3 87.9475Z" fill="white"/>
</mask>
<g mask="url(#mask0_15_7690)">
<path d="M2.28003 23.0076C3.24653 23.0076 4.03003 22.2241 4.03003 21.2576C4.03003 20.2911 3.24653 19.5076 2.28003 19.5076C1.31353 19.5076 0.530029 20.2911 0.530029 21.2576C0.530029 22.2241 1.31353 23.0076 2.28003 23.0076Z" fill="#0569AA"/>
<path d="M10.59 21.6975C11.5565 21.6975 12.34 20.914 12.34 19.9475C12.34 18.981 11.5565 18.1975 10.59 18.1975C9.62347 18.1975 8.83997 18.981 8.83997 19.9475C8.83997 20.914 9.62347 21.6975 10.59 21.6975Z" fill="#0569AA"/>
<path d="M3.63 31.5475C4.5965 31.5475 5.38 30.764 5.38 29.7975C5.38 28.831 4.5965 28.0475 3.63 28.0475C2.66351 28.0475 1.88 28.831 1.88 29.7975C1.88 30.764 2.66351 31.5475 3.63 31.5475Z" fill="#0569AA"/>
<path d="M11.9401 30.2375C12.9066 30.2375 13.6901 29.454 13.6901 28.4875C13.6901 27.5211 12.9066 26.7375 11.9401 26.7375C10.9736 26.7375 10.1901 27.5211 10.1901 28.4875C10.1901 29.454 10.9736 30.2375 11.9401 30.2375Z" fill="#0569AA"/>
<path d="M20.25 28.9175C21.2165 28.9175 22 28.134 22 27.1675C22 26.201 21.2165 25.4175 20.25 25.4175C19.2835 25.4175 18.5 26.201 18.5 27.1675C18.5 28.134 19.2835 28.9175 20.25 28.9175Z" fill="#0569AA"/>
<path d="M28.5699 27.5975C29.5364 27.5975 30.3199 26.814 30.3199 25.8475C30.3199 24.881 29.5364 24.0975 28.5699 24.0975C27.6034 24.0975 26.8199 24.881 26.8199 25.8475C26.8199 26.814 27.6034 27.5975 28.5699 27.5975Z" fill="#0569AA"/>
<path d="M36.88 26.2876C37.8465 26.2876 38.63 25.5041 38.63 24.5376C38.63 23.5711 37.8465 22.7876 36.88 22.7876C35.9135 22.7876 35.13 23.5711 35.13 24.5376C35.13 25.5041 35.9135 26.2876 36.88 26.2876Z" fill="#0569AA"/>
<path d="M45.1901 24.9675C46.1566 24.9675 46.9401 24.184 46.9401 23.2175C46.9401 22.251 46.1566 21.4675 45.1901 21.4675C44.2236 21.4675 43.4401 22.251 43.4401 23.2175C43.4401 24.184 44.2236 24.9675 45.1901 24.9675Z" fill="#0569AA"/>
<path d="M53.5 23.6575C54.4665 23.6575 55.25 22.874 55.25 21.9075C55.25 20.941 54.4665 20.1575 53.5 20.1575C52.5335 20.1575 51.75 20.941 51.75 21.9075C51.75 22.874 52.5335 23.6575 53.5 23.6575Z" fill="#0569AA"/>
<path d="M61.8199 22.3375C62.7864 22.3375 63.5699 21.554 63.5699 20.5875C63.5699 19.621 62.7864 18.8375 61.8199 18.8375C60.8534 18.8375 60.0699 19.621 60.0699 20.5875C60.0699 21.554 60.8534 22.3375 61.8199 22.3375Z" fill="#0569AA"/>
<path d="M4.97998 40.0875C5.94648 40.0875 6.72998 39.304 6.72998 38.3375C6.72998 37.371 5.94648 36.5875 4.97998 36.5875C4.01348 36.5875 3.22998 37.371 3.22998 38.3375C3.22998 39.304 4.01348 40.0875 4.97998 40.0875Z" fill="#0569AA"/>
<path d="M13.29 38.7776C14.2565 38.7776 15.04 37.9941 15.04 37.0276C15.04 36.0611 14.2565 35.2776 13.29 35.2776C12.3235 35.2776 11.54 36.0611 11.54 37.0276C11.54 37.9941 12.3235 38.7776 13.29 38.7776Z" fill="#0569AA"/>
<path d="M21.61 37.4575C22.5765 37.4575 23.36 36.674 23.36 35.7075C23.36 34.741 22.5765 33.9575 21.61 33.9575C20.6435 33.9575 19.86 34.741 19.86 35.7075C19.86 36.674 20.6435 37.4575 21.61 37.4575Z" fill="#0569AA"/>
<path d="M29.92 36.1376C30.8865 36.1376 31.67 35.3541 31.67 34.3876C31.67 33.4211 30.8865 32.6376 29.92 32.6376C28.9535 32.6376 28.17 33.4211 28.17 34.3876C28.17 35.3541 28.9535 36.1376 29.92 36.1376Z" fill="#0569AA"/>
<path d="M38.23 34.8275C39.1965 34.8275 39.98 34.044 39.98 33.0775C39.98 32.111 39.1965 31.3275 38.23 31.3275C37.2635 31.3275 36.48 32.111 36.48 33.0775C36.48 34.044 37.2635 34.8275 38.23 34.8275Z" fill="#0569AA"/>
<path d="M46.54 33.5076C47.5065 33.5076 48.29 32.7241 48.29 31.7576C48.29 30.7911 47.5065 30.0076 46.54 30.0076C45.5735 30.0076 44.79 30.7911 44.79 31.7576C44.79 32.7241 45.5735 33.5076 46.54 33.5076Z" fill="#0569AA"/>
<path d="M54.86 32.1975C55.8265 32.1975 56.61 31.414 56.61 30.4475C56.61 29.481 55.8265 28.6975 54.86 28.6975C53.8935 28.6975 53.11 29.481 53.11 30.4475C53.11 31.414 53.8935 32.1975 54.86 32.1975Z" fill="#0569AA"/>
<path d="M63.17 30.8776C64.1365 30.8776 64.92 30.0941 64.92 29.1276C64.92 28.1611 64.1365 27.3776 63.17 27.3776C62.2035 27.3776 61.42 28.1611 61.42 29.1276C61.42 30.0941 62.2035 30.8776 63.17 30.8776Z" fill="#0569AA"/>
<path d="M6.32996 48.6276C7.29645 48.6276 8.07996 47.8441 8.07996 46.8776C8.07996 45.9111 7.29645 45.1276 6.32996 45.1276C5.36346 45.1276 4.57996 45.9111 4.57996 46.8776C4.57996 47.8441 5.36346 48.6276 6.32996 48.6276Z" fill="#0569AA"/>
<path d="M14.65 47.3175C15.6165 47.3175 16.4 46.534 16.4 45.5675C16.4 44.601 15.6165 43.8175 14.65 43.8175C13.6835 43.8175 12.9 44.601 12.9 45.5675C12.9 46.534 13.6835 47.3175 14.65 47.3175Z" fill="#0569AA"/>
<path d="M22.96 45.9976C23.9265 45.9976 24.71 45.2141 24.71 44.2476C24.71 43.2811 23.9265 42.4976 22.96 42.4976C21.9935 42.4976 21.21 43.2811 21.21 44.2476C21.21 45.2141 21.9935 45.9976 22.96 45.9976Z" fill="#0569AA"/>
<path d="M31.27 44.6875C32.2365 44.6875 33.02 43.904 33.02 42.9375C33.02 41.971 32.2365 41.1875 31.27 41.1875C30.3035 41.1875 29.52 41.971 29.52 42.9375C29.52 43.904 30.3035 44.6875 31.27 44.6875Z" fill="#0569AA"/>
<path d="M39.58 43.3676C40.5465 43.3676 41.33 42.5841 41.33 41.6176C41.33 40.6511 40.5465 39.8676 39.58 39.8676C38.6135 39.8676 37.83 40.6511 37.83 41.6176C37.83 42.5841 38.6135 43.3676 39.58 43.3676Z" fill="#0569AA"/>
<path d="M47.9 42.0475C48.8665 42.0475 49.65 41.264 49.65 40.2975C49.65 39.331 48.8665 38.5475 47.9 38.5475C46.9335 38.5475 46.15 39.331 46.15 40.2975C46.15 41.264 46.9335 42.0475 47.9 42.0475Z" fill="#0569AA"/>
<path d="M56.21 40.7375C57.1765 40.7375 57.96 39.954 57.96 38.9875C57.96 38.0211 57.1765 37.2375 56.21 37.2375C55.2435 37.2375 54.46 38.0211 54.46 38.9875C54.46 39.954 55.2435 40.7375 56.21 40.7375Z" fill="#0569AA"/>
<path d="M64.52 39.4175C65.4865 39.4175 66.27 38.634 66.27 37.6675C66.27 36.701 65.4865 35.9175 64.52 35.9175C63.5535 35.9175 62.77 36.701 62.77 37.6675C62.77 38.634 63.5535 39.4175 64.52 39.4175Z" fill="#0569AA"/>
<path d="M-0.630005 58.4875C0.336493 58.4875 1.12 57.704 1.12 56.7375C1.12 55.7711 0.336493 54.9875 -0.630005 54.9875C-1.5965 54.9875 -2.38 55.7711 -2.38 56.7375C-2.38 57.704 -1.5965 58.4875 -0.630005 58.4875Z" fill="#0569AA"/>
<path d="M7.69006 57.1675C8.65656 57.1675 9.44006 56.384 9.44006 55.4175C9.44006 54.451 8.65656 53.6675 7.69006 53.6675C6.72357 53.6675 5.94006 54.451 5.94006 55.4175C5.94006 56.384 6.72357 57.1675 7.69006 57.1675Z" fill="#0569AA"/>
<path d="M16 55.8575C16.9665 55.8575 17.75 55.074 17.75 54.1075C17.75 53.141 16.9665 52.3575 16 52.3575C15.0335 52.3575 14.25 53.141 14.25 54.1075C14.25 55.074 15.0335 55.8575 16 55.8575Z" fill="#0569AA"/>
<path d="M24.3101 54.5376C25.2766 54.5376 26.0601 53.7541 26.0601 52.7876C26.0601 51.8211 25.2766 51.0376 24.3101 51.0376C23.3436 51.0376 22.5601 51.8211 22.5601 52.7876C22.5601 53.7541 23.3436 54.5376 24.3101 54.5376Z" fill="#0569AA"/>
<path d="M32.62 53.2275C33.5865 53.2275 34.37 52.444 34.37 51.4775C34.37 50.511 33.5865 49.7275 32.62 49.7275C31.6535 49.7275 30.87 50.511 30.87 51.4775C30.87 52.444 31.6535 53.2275 32.62 53.2275Z" fill="#0569AA"/>
<path d="M40.9401 51.9075C41.9066 51.9075 42.6901 51.124 42.6901 50.1575C42.6901 49.191 41.9066 48.4075 40.9401 48.4075C39.9736 48.4075 39.1901 49.191 39.1901 50.1575C39.1901 51.124 39.9736 51.9075 40.9401 51.9075Z" fill="#0569AA"/>
<path d="M49.25 50.5875C50.2165 50.5875 51 49.804 51 48.8375C51 47.871 50.2165 47.0875 49.25 47.0875C48.2835 47.0875 47.5 47.871 47.5 48.8375C47.5 49.804 48.2835 50.5875 49.25 50.5875Z" fill="#0569AA"/>
<path d="M57.5601 49.2776C58.5266 49.2776 59.3101 48.4941 59.3101 47.5276C59.3101 46.5611 58.5266 45.7776 57.5601 45.7776C56.5936 45.7776 55.8101 46.5611 55.8101 47.5276C55.8101 48.4941 56.5936 49.2776 57.5601 49.2776Z" fill="#0569AA"/>
<path d="M65.87 47.9575C66.8365 47.9575 67.62 47.174 67.62 46.2075C67.62 45.241 66.8365 44.4575 65.87 44.4575C64.9035 44.4575 64.12 45.241 64.12 46.2075C64.12 47.174 64.9035 47.9575 65.87 47.9575Z" fill="#0569AA"/>
<path d="M0.72998 67.0276C1.69648 67.0276 2.47998 66.2441 2.47998 65.2776C2.47998 64.3111 1.69648 63.5276 0.72998 63.5276C-0.236518 63.5276 -1.02002 64.3111 -1.02002 65.2776C-1.02002 66.2441 -0.236518 67.0276 0.72998 67.0276Z" fill="#0569AA"/>
<path d="M9.04004 65.7175C10.0065 65.7175 10.79 64.934 10.79 63.9675C10.79 63.001 10.0065 62.2175 9.04004 62.2175C8.07354 62.2175 7.29004 63.001 7.29004 63.9675C7.29004 64.934 8.07354 65.7175 9.04004 65.7175Z" fill="#0569AA"/>
<path d="M17.35 64.3976C18.3165 64.3976 19.1 63.6141 19.1 62.6476C19.1 61.6811 18.3165 60.8976 17.35 60.8976C16.3835 60.8976 15.6 61.6811 15.6 62.6476C15.6 63.6141 16.3835 64.3976 17.35 64.3976Z" fill="#0569AA"/>
<path d="M25.66 63.0775C26.6265 63.0775 27.41 62.294 27.41 61.3275C27.41 60.361 26.6265 59.5775 25.66 59.5775C24.6935 59.5775 23.91 60.361 23.91 61.3275C23.91 62.294 24.6935 63.0775 25.66 63.0775Z" fill="#0569AA"/>
<path d="M33.97 61.7676C34.9365 61.7676 35.72 60.9841 35.72 60.0176C35.72 59.0511 34.9365 58.2676 33.97 58.2676C33.0035 58.2676 32.22 59.0511 32.22 60.0176C32.22 60.9841 33.0035 61.7676 33.97 61.7676Z" fill="#0569AA"/>
<path d="M42.29 60.4475C43.2565 60.4475 44.04 59.664 44.04 58.6975C44.04 57.731 43.2565 56.9475 42.29 56.9475C41.3235 56.9475 40.54 57.731 40.54 58.6975C40.54 59.664 41.3235 60.4475 42.29 60.4475Z" fill="#0569AA"/>
<path d="M50.6 59.1276C51.5665 59.1276 52.35 58.3441 52.35 57.3776C52.35 56.4111 51.5665 55.6276 50.6 55.6276C49.6335 55.6276 48.85 56.4111 48.85 57.3776C48.85 58.3441 49.6335 59.1276 50.6 59.1276Z" fill="#0569AA"/>
<path d="M58.91 57.8175C59.8765 57.8175 60.66 57.034 60.66 56.0675C60.66 55.101 59.8765 54.3175 58.91 54.3175C57.9435 54.3175 57.16 55.101 57.16 56.0675C57.16 57.034 57.9435 57.8175 58.91 57.8175Z" fill="#0569AA"/>
<path d="M67.22 56.4976C68.1865 56.4976 68.97 55.7141 68.97 54.7476C68.97 53.7811 68.1865 52.9976 67.22 52.9976C66.2535 52.9976 65.47 53.7811 65.47 54.7476C65.47 55.7141 66.2535 56.4976 67.22 56.4976Z" fill="#0569AA"/>
<path d="M2.07996 75.5675C3.04645 75.5675 3.82996 74.784 3.82996 73.8175C3.82996 72.851 3.04645 72.0675 2.07996 72.0675C1.11346 72.0675 0.329956 72.851 0.329956 73.8175C0.329956 74.784 1.11346 75.5675 2.07996 75.5675Z" fill="#0569AA"/>
<path d="M10.39 74.2576C11.3565 74.2576 12.14 73.4741 12.14 72.5076C12.14 71.5411 11.3565 70.7576 10.39 70.7576C9.42352 70.7576 8.64001 71.5411 8.64001 72.5076C8.64001 73.4741 9.42352 74.2576 10.39 74.2576Z" fill="#0569AA"/>
<path d="M18.7 72.9375C19.6664 72.9375 20.45 72.154 20.45 71.1875C20.45 70.221 19.6664 69.4375 18.7 69.4375C17.7335 69.4375 16.95 70.221 16.95 71.1875C16.95 72.154 17.7335 72.9375 18.7 72.9375Z" fill="#0569AA"/>
<path d="M27.01 71.6175C27.9765 71.6175 28.76 70.8341 28.76 69.8676C28.76 68.9011 27.9765 68.1176 27.01 68.1176C26.0435 68.1176 25.26 68.9011 25.26 69.8676C25.26 70.8341 26.0435 71.6175 27.01 71.6175Z" fill="#0569AA"/>
<path d="M35.33 70.3075C36.2965 70.3075 37.08 69.524 37.08 68.5575C37.08 67.591 36.2965 66.8075 35.33 66.8075C34.3635 66.8075 33.58 67.591 33.58 68.5575C33.58 69.524 34.3635 70.3075 35.33 70.3075Z" fill="#0569AA"/>
<path d="M43.64 68.9875C44.6065 68.9875 45.39 68.204 45.39 67.2375C45.39 66.2711 44.6065 65.4875 43.64 65.4875C42.6735 65.4875 41.89 66.2711 41.89 67.2375C41.89 68.204 42.6735 68.9875 43.64 68.9875Z" fill="#0569AA"/>
<path d="M51.95 67.6775C52.9164 67.6775 53.7 66.894 53.7 65.9275C53.7 64.961 52.9164 64.1775 51.95 64.1775C50.9835 64.1775 50.2 64.961 50.2 65.9275C50.2 66.894 50.9835 67.6775 51.95 67.6775Z" fill="#0569AA"/>
<path d="M60.26 66.3575C61.2265 66.3575 62.01 65.574 62.01 64.6075C62.01 63.641 61.2265 62.8575 60.26 62.8575C59.2935 62.8575 58.51 63.641 58.51 64.6075C58.51 65.574 59.2935 66.3575 60.26 66.3575Z" fill="#0569AA"/>
<path d="M3.43005 84.1075C4.39655 84.1075 5.18005 83.324 5.18005 82.3575C5.18005 81.391 4.39655 80.6075 3.43005 80.6075C2.46356 80.6075 1.68005 81.391 1.68005 82.3575C1.68005 83.324 2.46356 84.1075 3.43005 84.1075Z" fill="#0569AA"/>
<path d="M11.74 82.7976C12.7065 82.7976 13.49 82.0141 13.49 81.0476C13.49 80.0811 12.7065 79.2976 11.74 79.2976C10.7735 79.2976 9.98999 80.0811 9.98999 81.0476C9.98999 82.0141 10.7735 82.7976 11.74 82.7976Z" fill="#0569AA"/>
<path d="M20.05 81.4775C21.0165 81.4775 21.8 80.694 21.8 79.7275C21.8 78.761 21.0165 77.9775 20.05 77.9775C19.0836 77.9775 18.3 78.761 18.3 79.7275C18.3 80.694 19.0836 81.4775 20.05 81.4775Z" fill="#0569AA"/>
<path d="M28.37 80.1575C29.3365 80.1575 30.12 79.374 30.12 78.4075C30.12 77.441 29.3365 76.6575 28.37 76.6575C27.4035 76.6575 26.62 77.441 26.62 78.4075C26.62 79.374 27.4035 80.1575 28.37 80.1575Z" fill="#0569AA"/>
<path d="M36.6801 78.8475C37.6466 78.8475 38.4301 78.064 38.4301 77.0975C38.4301 76.131 37.6466 75.3475 36.6801 75.3475C35.7136 75.3475 34.9301 76.131 34.9301 77.0975C34.9301 78.064 35.7136 78.8475 36.6801 78.8475Z" fill="#0569AA"/>
<path d="M44.99 77.5275C45.9565 77.5275 46.74 76.744 46.74 75.7775C46.74 74.811 45.9565 74.0275 44.99 74.0275C44.0235 74.0275 43.24 74.811 43.24 75.7775C43.24 76.744 44.0235 77.5275 44.99 77.5275Z" fill="#0569AA"/>
<path d="M53.3 76.2175C54.2665 76.2175 55.05 75.434 55.05 74.4675C55.05 73.501 54.2665 72.7175 53.3 72.7175C52.3336 72.7175 51.55 73.501 51.55 74.4675C51.55 75.434 52.3336 76.2175 53.3 76.2175Z" fill="#0569AA"/>
<path d="M61.62 74.8975C62.5865 74.8975 63.37 74.114 63.37 73.1475C63.37 72.181 62.5865 71.3975 61.62 71.3975C60.6535 71.3975 59.87 72.181 59.87 73.1475C59.87 74.114 60.6535 74.8975 61.62 74.8975Z" fill="#0569AA"/>
<path d="M13.09 91.3375C14.0565 91.3375 14.84 90.554 14.84 89.5875C14.84 88.621 14.0565 87.8375 13.09 87.8375C12.1235 87.8375 11.34 88.621 11.34 89.5875C11.34 90.554 12.1235 91.3375 13.09 91.3375Z" fill="#0569AA"/>
<path d="M21.41 90.0176C22.3765 90.0176 23.16 89.2341 23.16 88.2676C23.16 87.3011 22.3765 86.5176 21.41 86.5176C20.4435 86.5176 19.66 87.3011 19.66 88.2676C19.66 89.2341 20.4435 90.0176 21.41 90.0176Z" fill="#0569AA"/>
<path d="M29.72 88.6975C30.6865 88.6975 31.47 87.914 31.47 86.9475C31.47 85.981 30.6865 85.1975 29.72 85.1975C28.7535 85.1975 27.97 85.981 27.97 86.9475C27.97 87.914 28.7535 88.6975 29.72 88.6975Z" fill="#0569AA"/>
<path d="M38.03 87.3876C38.9965 87.3876 39.78 86.6041 39.78 85.6376C39.78 84.6711 38.9965 83.8876 38.03 83.8876C37.0635 83.8876 36.28 84.6711 36.28 85.6376C36.28 86.6041 37.0635 87.3876 38.03 87.3876Z" fill="#0569AA"/>
<path d="M46.34 86.0675C47.3065 86.0675 48.09 85.284 48.09 84.3175C48.09 83.351 47.3065 82.5675 46.34 82.5675C45.3735 82.5675 44.59 83.351 44.59 84.3175C44.59 85.284 45.3735 86.0675 46.34 86.0675Z" fill="#0569AA"/>
<path d="M54.66 84.7576C55.6265 84.7576 56.41 83.9741 56.41 83.0076C56.41 82.0411 55.6265 81.2576 54.66 81.2576C53.6935 81.2576 52.91 82.0411 52.91 83.0076C52.91 83.9741 53.6935 84.7576 54.66 84.7576Z" fill="#0569AA"/>
<path d="M62.97 83.4375C63.9365 83.4375 64.72 82.654 64.72 81.6875C64.72 80.721 63.9365 79.9375 62.97 79.9375C62.0035 79.9375 61.22 80.721 61.22 81.6875C61.22 82.654 62.0035 83.4375 62.97 83.4375Z" fill="#0569AA"/>
</g>
<path d="M77.5 24.5775C77.5 24.5775 94.8 38.3575 87.44 55.8675C81.34 70.3875 61.9599 71.5775 56.8299 72.0075C55.9799 72.0775 55.1899 72.0975 54.3199 72.1475C49.1799 72.4375 29.63 72.8775 22.17 59.0175C13.17 42.2975 29.06 26.9175 29.06 26.9175C29.06 26.9175 52.12 8.39749 77.5 24.5775Z" fill="#F9D44F"/>
<path d="M52.36 6.62746C52.48 9.08746 50.58 11.1775 48.12 11.2975C45.66 11.4175 43.57 9.51746 43.45 7.05746C43.33 4.59746 45.2301 2.50747 47.6901 2.38747C50.1501 2.26747 52.24 4.16746 52.36 6.62746Z" fill="#EAF6FD"/>
<path d="M48.2099 13.2475C44.6799 13.4175 41.67 10.6875 41.5 7.14747C41.33 3.61747 44.0599 0.607459 47.5999 0.437459C51.1299 0.267459 54.14 2.99747 54.31 6.53747C54.47 10.0675 51.7399 13.0775 48.2099 13.2475ZM47.78 4.33747C46.39 4.40747 45.32 5.58746 45.39 6.96746C45.46 8.35746 46.64 9.42747 48.02 9.35747C49.41 9.28747 50.48 8.10747 50.41 6.72747C50.34 5.33747 49.16 4.26747 47.78 4.33747Z" fill="#0569AA"/>
<path d="M61.27 6.19754C61.39 8.65754 59.49 10.7475 57.03 10.8675C54.57 10.9875 52.48 9.08753 52.36 6.62753C52.24 4.16753 54.14 2.07753 56.6 1.95753C59.06 1.83753 61.15 3.73754 61.27 6.19754Z" fill="#EAF6FD"/>
<path d="M57.12 12.8175C53.59 12.9875 50.58 10.2575 50.41 6.71752C50.24 3.18752 52.97 0.177528 56.51 0.0075276C60.04 -0.162472 63.0499 2.56753 63.2199 6.10753C63.3899 9.63753 60.65 12.6475 57.12 12.8175ZM56.69 3.90752C55.3 3.97752 54.23 5.15753 54.3 6.53753C54.37 7.92753 55.55 8.99753 56.93 8.92753C58.32 8.85753 59.3899 7.67752 59.3199 6.29752C59.2599 4.90752 58.08 3.83752 56.69 3.90752Z" fill="#0569AA"/>
<path d="M31.95 19.3575C29.13 21.8175 33.52 27.9875 36.48 25.6875C42.02 21.3575 54.2601 13.3975 69.9001 23.5875C73.0801 25.6575 77.0201 19.9975 73.9401 17.7875C73.7801 17.6775 73.58 17.4975 73.58 17.4975C52.86 2.24752 32.09 19.2275 31.95 19.3575Z" fill="white"/>
<path d="M35.2601 28.1276C33.7101 28.1975 32.0801 27.4176 30.8001 25.8676C28.9201 23.5876 28.2301 20.0076 30.6701 17.8776C30.8801 17.6876 52.68 -0.31245 74.73 15.9075C74.78 15.9375 74.82 15.9776 74.87 16.0175C74.88 16.0276 74.99 16.1175 75.07 16.1875C77.29 17.7775 77.6401 20.7876 75.9001 23.3376C74.1301 25.9276 71.16 26.7176 68.83 25.2076C58.34 18.3776 48.1501 19.0276 37.6801 27.2076C36.9401 27.7876 36.1101 28.0875 35.2601 28.1276ZM33.22 20.8376C32.72 21.2976 33.1101 22.5576 33.8001 23.3976C34.0701 23.7176 34.8501 24.4876 35.2801 24.1476C47.0701 14.9476 59.07 14.2076 70.96 21.9476C71.76 22.4676 72.6701 21.1576 72.6801 21.1476C72.7201 21.0976 73.5301 19.8876 72.8001 19.3676C72.6301 19.2476 72.46 19.0976 72.36 19.0176C53.24 5.00755 33.88 20.2976 33.22 20.8376Z" fill="#0569AA"/>
<path d="M53.93 74.1175C45.96 74.4975 27.8799 73.7275 20.4499 59.9375C16.4699 52.5475 16.2099 44.5175 19.6999 36.7275C22.2999 30.9175 26.0399 27.3075 26.1999 27.1575C26.9799 26.4175 28.2099 26.4475 28.9499 27.2175C29.6899 27.9975 29.66 29.2275 28.89 29.9675C28.35 30.4875 15.71 42.9075 23.88 58.0875C30.26 69.9375 46.5199 70.5675 53.7299 70.2275C53.8899 70.2175 54.0499 70.2075 54.1999 70.2075C54.5299 70.1875 54.84 70.1775 55.15 70.1575C55.65 70.1375 56.14 70.1175 56.66 70.0675L57.13 70.0275C62.83 69.5575 80.17 68.1275 85.64 55.1075C92.32 39.2175 78.5699 28.0975 77.9799 27.6375C77.1399 26.9675 76.99 25.7475 77.66 24.9075C78.33 24.0675 79.55 23.9175 80.39 24.5775C80.56 24.7075 84.63 27.9375 87.76 33.4575C91.97 40.8775 92.4799 48.8775 89.2299 56.6175C82.8499 71.8075 63.7299 73.3875 57.4499 73.9075L56.9799 73.9475C56.3999 73.9975 55.8499 74.0175 55.3199 74.0475C55.0299 74.0575 54.73 74.0775 54.42 74.0875C54.27 74.0975 54.1 74.1075 53.93 74.1175Z" fill="#0569AA"/>
</svg>
