<svg width="77" height="83" viewBox="0 0 77 83" fill="none" xmlns="http://www.w3.org/2000/svg">
<mask id="mask0_15_9530" style="mask-type:luminance" maskUnits="userSpaceOnUse" x="4" y="0" width="73" height="73">
<path d="M40.9391 72.04C60.8324 72.04 76.9591 55.9133 76.9591 36.02C76.9591 16.1267 60.8324 0 40.9391 0C21.0458 0 4.91907 16.1267 4.91907 36.02C4.91907 55.9133 21.0458 72.04 40.9391 72.04Z" fill="white"/>
</mask>
<g mask="url(#mask0_15_9530)">
<path d="M5.38904 6.52002C6.35554 6.52002 7.13904 5.73652 7.13904 4.77002C7.13904 3.80352 6.35554 3.02002 5.38904 3.02002C4.42254 3.02002 3.63904 3.80352 3.63904 4.77002C3.63904 5.73652 4.42254 6.52002 5.38904 6.52002Z" fill="#0569AA"/>
<path d="M13.4191 4.01001C14.3856 4.01001 15.1691 3.22651 15.1691 2.26001C15.1691 1.29351 14.3856 0.51001 13.4191 0.51001C12.4526 0.51001 11.6691 1.29351 11.6691 2.26001C11.6691 3.22651 12.4526 4.01001 13.4191 4.01001Z" fill="#0569AA"/>
<path d="M21.4491 1.5C22.4156 1.5 23.1991 0.716498 23.1991 -0.25C23.1991 -1.2165 22.4156 -2 21.4491 -2C20.4826 -2 19.6991 -1.2165 19.6991 -0.25C19.6991 0.716498 20.4826 1.5 21.4491 1.5Z" fill="#0569AA"/>
<path d="M7.95911 14.77C8.9256 14.77 9.70911 13.9865 9.70911 13.02C9.70911 12.0535 8.9256 11.27 7.95911 11.27C6.99261 11.27 6.20911 12.0535 6.20911 13.02C6.20911 13.9865 6.99261 14.77 7.95911 14.77Z" fill="#0569AA"/>
<path d="M15.999 12.26C16.9655 12.26 17.749 11.4765 17.749 10.51C17.749 9.54351 16.9655 8.76001 15.999 8.76001C15.0325 8.76001 14.249 9.54351 14.249 10.51C14.249 11.4765 15.0325 12.26 15.999 12.26Z" fill="#0569AA"/>
<path d="M24.0291 9.75C24.9956 9.75 25.7791 8.9665 25.7791 8C25.7791 7.0335 24.9956 6.25 24.0291 6.25C23.0626 6.25 22.2791 7.0335 22.2791 8C22.2791 8.9665 23.0626 9.75 24.0291 9.75Z" fill="#0569AA"/>
<path d="M32.0591 7.23999C33.0256 7.23999 33.8091 6.45649 33.8091 5.48999C33.8091 4.52349 33.0256 3.73999 32.0591 3.73999C31.0926 3.73999 30.3091 4.52349 30.3091 5.48999C30.3091 6.45649 31.0926 7.23999 32.0591 7.23999Z" fill="#0569AA"/>
<path d="M40.099 4.72998C41.0655 4.72998 41.849 3.94648 41.849 2.97998C41.849 2.01348 41.0655 1.22998 40.099 1.22998C39.1325 1.22998 38.349 2.01348 38.349 2.97998C38.349 3.94648 39.1325 4.72998 40.099 4.72998Z" fill="#0569AA"/>
<path d="M48.129 2.22003C49.0955 2.22003 49.879 1.43653 49.879 0.470032C49.879 -0.496467 49.0955 -1.27997 48.129 -1.27997C47.1625 -1.27997 46.379 -0.496467 46.379 0.470032C46.379 1.43653 47.1625 2.22003 48.129 2.22003Z" fill="#0569AA"/>
<path d="M10.5391 23.03C11.5056 23.03 12.2891 22.2465 12.2891 21.28C12.2891 20.3135 11.5056 19.53 10.5391 19.53C9.57256 19.53 8.78906 20.3135 8.78906 21.28C8.78906 22.2465 9.57256 23.03 10.5391 23.03Z" fill="#0569AA"/>
<path d="M18.5791 20.52C19.5456 20.52 20.3291 19.7365 20.3291 18.77C20.3291 17.8035 19.5456 17.02 18.5791 17.02C17.6126 17.02 16.8291 17.8035 16.8291 18.77C16.8291 19.7365 17.6126 20.52 18.5791 20.52Z" fill="#0569AA"/>
<path d="M26.609 18.01C27.5755 18.01 28.359 17.2265 28.359 16.26C28.359 15.2935 27.5755 14.51 26.609 14.51C25.6425 14.51 24.859 15.2935 24.859 16.26C24.859 17.2265 25.6425 18.01 26.609 18.01Z" fill="#0569AA"/>
<path d="M34.639 15.5C35.6055 15.5 36.389 14.7165 36.389 13.75C36.389 12.7835 35.6055 12 34.639 12C33.6725 12 32.889 12.7835 32.889 13.75C32.889 14.7165 33.6725 15.5 34.639 15.5Z" fill="#0569AA"/>
<path d="M42.6791 12.99C43.6456 12.99 44.4291 12.2065 44.4291 11.24C44.4291 10.2735 43.6456 9.48999 42.6791 9.48999C41.7126 9.48999 40.9291 10.2735 40.9291 11.24C40.9291 12.2065 41.7126 12.99 42.6791 12.99Z" fill="#0569AA"/>
<path d="M50.7091 10.48C51.6756 10.48 52.4591 9.69648 52.4591 8.72998C52.4591 7.76348 51.6756 6.97998 50.7091 6.97998C49.7426 6.97998 48.9591 7.76348 48.9591 8.72998C48.9591 9.69648 49.7426 10.48 50.7091 10.48Z" fill="#0569AA"/>
<path d="M58.739 7.97003C59.7055 7.97003 60.489 7.18653 60.489 6.22003C60.489 5.25353 59.7055 4.47003 58.739 4.47003C57.7725 4.47003 56.989 5.25353 56.989 6.22003C56.989 7.18653 57.7725 7.97003 58.739 7.97003Z" fill="#0569AA"/>
<path d="M66.769 5.46002C67.7355 5.46002 68.519 4.67652 68.519 3.71002C68.519 2.74352 67.7355 1.96002 66.769 1.96002C65.8025 1.96002 65.019 2.74352 65.019 3.71002C65.019 4.67652 65.8025 5.46002 66.769 5.46002Z" fill="#0569AA"/>
<path d="M74.8091 2.95001C75.7756 2.95001 76.5591 2.16651 76.5591 1.20001C76.5591 0.233514 75.7756 -0.549988 74.8091 -0.549988C73.8426 -0.549988 73.0591 0.233514 73.0591 1.20001C73.0591 2.16651 73.8426 2.95001 74.8091 2.95001Z" fill="#0569AA"/>
<path d="M5.08911 33.79C6.05561 33.79 6.83911 33.0065 6.83911 32.04C6.83911 31.0735 6.05561 30.29 5.08911 30.29C4.12261 30.29 3.33911 31.0735 3.33911 32.04C3.33911 33.0065 4.12261 33.79 5.08911 33.79Z" fill="#0569AA"/>
<path d="M13.119 31.28C14.0855 31.28 14.869 30.4965 14.869 29.53C14.869 28.5635 14.0855 27.78 13.119 27.78C12.1525 27.78 11.369 28.5635 11.369 29.53C11.369 30.4965 12.1525 31.28 13.119 31.28Z" fill="#0569AA"/>
<path d="M21.1591 28.77C22.1256 28.77 22.9091 27.9865 22.9091 27.02C22.9091 26.0535 22.1256 25.27 21.1591 25.27C20.1926 25.27 19.4091 26.0535 19.4091 27.02C19.4091 27.9865 20.1926 28.77 21.1591 28.77Z" fill="#0569AA"/>
<path d="M29.1891 26.26C30.1556 26.26 30.9391 25.4765 30.9391 24.51C30.9391 23.5435 30.1556 22.76 29.1891 22.76C28.2226 22.76 27.4391 23.5435 27.4391 24.51C27.4391 25.4765 28.2226 26.26 29.1891 26.26Z" fill="#0569AA"/>
<path d="M37.219 23.75C38.1855 23.75 38.969 22.9665 38.969 22C38.969 21.0335 38.1855 20.25 37.219 20.25C36.2525 20.25 35.469 21.0335 35.469 22C35.469 22.9665 36.2525 23.75 37.219 23.75Z" fill="#0569AA"/>
<path d="M45.249 21.24C46.2155 21.24 46.999 20.4565 46.999 19.49C46.999 18.5235 46.2155 17.74 45.249 17.74C44.2825 17.74 43.499 18.5235 43.499 19.49C43.499 20.4565 44.2825 21.24 45.249 21.24Z" fill="#0569AA"/>
<path d="M53.2891 18.73C54.2556 18.73 55.0391 17.9465 55.0391 16.98C55.0391 16.0135 54.2556 15.23 53.2891 15.23C52.3226 15.23 51.5391 16.0135 51.5391 16.98C51.5391 17.9465 52.3226 18.73 53.2891 18.73Z" fill="#0569AA"/>
<path d="M61.3191 16.22C62.2856 16.22 63.0691 15.4365 63.0691 14.47C63.0691 13.5035 62.2856 12.72 61.3191 12.72C60.3526 12.72 59.5691 13.5035 59.5691 14.47C59.5691 15.4365 60.3526 16.22 61.3191 16.22Z" fill="#0569AA"/>
<path d="M69.349 13.71C70.3155 13.71 71.099 12.9265 71.099 11.96C71.099 10.9935 70.3155 10.21 69.349 10.21C68.3825 10.21 67.599 10.9935 67.599 11.96C67.599 12.9265 68.3825 13.71 69.349 13.71Z" fill="#0569AA"/>
<path d="M77.389 11.2C78.3555 11.2 79.139 10.4165 79.139 9.45001C79.139 8.48351 78.3555 7.70001 77.389 7.70001C76.4225 7.70001 75.639 8.48351 75.639 9.45001C75.639 10.4165 76.4225 11.2 77.389 11.2Z" fill="#0569AA"/>
<path d="M7.66907 42.05C8.63557 42.05 9.41907 41.2665 9.41907 40.3C9.41907 39.3336 8.63557 38.55 7.66907 38.55C6.70257 38.55 5.91907 39.3336 5.91907 40.3C5.91907 41.2665 6.70257 42.05 7.66907 42.05Z" fill="#0569AA"/>
<path d="M15.6991 39.54C16.6656 39.54 17.4491 38.7565 17.4491 37.79C17.4491 36.8235 16.6656 36.04 15.6991 36.04C14.7326 36.04 13.9491 36.8235 13.9491 37.79C13.9491 38.7565 14.7326 39.54 15.6991 39.54Z" fill="#0569AA"/>
<path d="M23.739 37.03C24.7055 37.03 25.489 36.2465 25.489 35.28C25.489 34.3135 24.7055 33.53 23.739 33.53C22.7725 33.53 21.989 34.3135 21.989 35.28C21.989 36.2465 22.7725 37.03 23.739 37.03Z" fill="#0569AA"/>
<path d="M31.769 34.51C32.7355 34.51 33.519 33.7265 33.519 32.76C33.519 31.7935 32.7355 31.01 31.769 31.01C30.8025 31.01 30.019 31.7935 30.019 32.76C30.019 33.7265 30.8025 34.51 31.769 34.51Z" fill="#0569AA"/>
<path d="M39.7991 32C40.7656 32 41.5491 31.2165 41.5491 30.25C41.5491 29.2835 40.7656 28.5 39.7991 28.5C38.8326 28.5 38.0491 29.2835 38.0491 30.25C38.0491 31.2165 38.8326 32 39.7991 32Z" fill="#0569AA"/>
<path d="M47.8291 29.49C48.7956 29.49 49.5791 28.7065 49.5791 27.74C49.5791 26.7735 48.7956 25.99 47.8291 25.99C46.8626 25.99 46.0791 26.7735 46.0791 27.74C46.0791 28.7065 46.8626 29.49 47.8291 29.49Z" fill="#0569AA"/>
<path d="M55.869 26.98C56.8355 26.98 57.619 26.1965 57.619 25.23C57.619 24.2635 56.8355 23.48 55.869 23.48C54.9025 23.48 54.119 24.2635 54.119 25.23C54.119 26.1965 54.9025 26.98 55.869 26.98Z" fill="#0569AA"/>
<path d="M63.899 24.47C64.8655 24.47 65.649 23.6865 65.649 22.72C65.649 21.7535 64.8655 20.97 63.899 20.97C62.9325 20.97 62.149 21.7535 62.149 22.72C62.149 23.6865 62.9325 24.47 63.899 24.47Z" fill="#0569AA"/>
<path d="M71.9291 21.96C72.8956 21.96 73.6791 21.1765 73.6791 20.21C73.6791 19.2435 72.8956 18.46 71.9291 18.46C70.9626 18.46 70.1791 19.2435 70.1791 20.21C70.1791 21.1765 70.9626 21.96 71.9291 21.96Z" fill="#0569AA"/>
<path d="M10.249 50.3C11.2155 50.3 11.999 49.5165 11.999 48.55C11.999 47.5836 11.2155 46.8 10.249 46.8C9.28253 46.8 8.49902 47.5836 8.49902 48.55C8.49902 49.5165 9.28253 50.3 10.249 50.3Z" fill="#0569AA"/>
<path d="M18.2791 47.79C19.2456 47.79 20.0291 47.0065 20.0291 46.04C20.0291 45.0735 19.2456 44.29 18.2791 44.29C17.3126 44.29 16.5291 45.0735 16.5291 46.04C16.5291 47.0065 17.3126 47.79 18.2791 47.79Z" fill="#0569AA"/>
<path d="M26.3091 45.28C27.2756 45.28 28.0591 44.4965 28.0591 43.53C28.0591 42.5635 27.2756 41.78 26.3091 41.78C25.3426 41.78 24.5591 42.5635 24.5591 43.53C24.5591 44.4965 25.3426 45.28 26.3091 45.28Z" fill="#0569AA"/>
<path d="M34.349 42.77C35.3155 42.77 36.099 41.9865 36.099 41.02C36.099 40.0535 35.3155 39.27 34.349 39.27C33.3825 39.27 32.599 40.0535 32.599 41.02C32.599 41.9865 33.3825 42.77 34.349 42.77Z" fill="#0569AA"/>
<path d="M42.379 40.26C43.3455 40.26 44.129 39.4765 44.129 38.51C44.129 37.5435 43.3455 36.76 42.379 36.76C41.4125 36.76 40.629 37.5435 40.629 38.51C40.629 39.4765 41.4125 40.26 42.379 40.26Z" fill="#0569AA"/>
<path d="M50.4091 37.75C51.3756 37.75 52.1591 36.9665 52.1591 36C52.1591 35.0335 51.3756 34.25 50.4091 34.25C49.4426 34.25 48.6591 35.0335 48.6591 36C48.6591 36.9665 49.4426 37.75 50.4091 37.75Z" fill="#0569AA"/>
<path d="M58.4491 35.24C59.4156 35.24 60.1991 34.4565 60.1991 33.49C60.1991 32.5235 59.4156 31.74 58.4491 31.74C57.4826 31.74 56.6991 32.5235 56.6991 33.49C56.6991 34.4565 57.4826 35.24 58.4491 35.24Z" fill="#0569AA"/>
<path d="M66.479 32.73C67.4455 32.73 68.229 31.9465 68.229 30.98C68.229 30.0135 67.4455 29.23 66.479 29.23C65.5125 29.23 64.729 30.0135 64.729 30.98C64.729 31.9465 65.5125 32.73 66.479 32.73Z" fill="#0569AA"/>
<path d="M74.509 30.22C75.4755 30.22 76.259 29.4365 76.259 28.47C76.259 27.5035 75.4755 26.72 74.509 26.72C73.5425 26.72 72.759 27.5035 72.759 28.47C72.759 29.4365 73.5425 30.22 74.509 30.22Z" fill="#0569AA"/>
<path d="M4.78906 61.06C5.75556 61.06 6.53906 60.2765 6.53906 59.31C6.53906 58.3435 5.75556 57.56 4.78906 57.56C3.82256 57.56 3.03906 58.3435 3.03906 59.31C3.03906 60.2765 3.82256 61.06 4.78906 61.06Z" fill="#0569AA"/>
<path d="M12.8291 58.55C13.7956 58.55 14.5791 57.7665 14.5791 56.8C14.5791 55.8336 13.7956 55.05 12.8291 55.05C11.8626 55.05 11.0791 55.8336 11.0791 56.8C11.0791 57.7665 11.8626 58.55 12.8291 58.55Z" fill="#0569AA"/>
<path d="M20.859 56.04C21.8255 56.04 22.609 55.2565 22.609 54.29C22.609 53.3235 21.8255 52.54 20.859 52.54C19.8925 52.54 19.109 53.3235 19.109 54.29C19.109 55.2565 19.8925 56.04 20.859 56.04Z" fill="#0569AA"/>
<path d="M28.889 53.53C29.8555 53.53 30.639 52.7465 30.639 51.78C30.639 50.8135 29.8555 50.03 28.889 50.03C27.9225 50.03 27.139 50.8135 27.139 51.78C27.139 52.7465 27.9225 53.53 28.889 53.53Z" fill="#0569AA"/>
<path d="M36.9291 51.02C37.8956 51.02 38.6791 50.2365 38.6791 49.27C38.6791 48.3035 37.8956 47.52 36.9291 47.52C35.9626 47.52 35.1791 48.3035 35.1791 49.27C35.1791 50.2365 35.9626 51.02 36.9291 51.02Z" fill="#0569AA"/>
<path d="M44.9591 48.51C45.9256 48.51 46.7091 47.7265 46.7091 46.76C46.7091 45.7935 45.9256 45.01 44.9591 45.01C43.9926 45.01 43.2091 45.7935 43.2091 46.76C43.2091 47.7265 43.9926 48.51 44.9591 48.51Z" fill="#0569AA"/>
<path d="M52.989 46C53.9555 46 54.739 45.2165 54.739 44.25C54.739 43.2835 53.9555 42.5 52.989 42.5C52.0225 42.5 51.239 43.2835 51.239 44.25C51.239 45.2165 52.0225 46 52.989 46Z" fill="#0569AA"/>
<path d="M61.019 43.4901C61.9855 43.4901 62.769 42.7065 62.769 41.7401C62.769 40.7736 61.9855 39.9901 61.019 39.9901C60.0525 39.9901 59.269 40.7736 59.269 41.7401C59.269 42.7065 60.0525 43.4901 61.019 43.4901Z" fill="#0569AA"/>
<path d="M69.0591 40.98C70.0256 40.98 70.8091 40.1965 70.8091 39.23C70.8091 38.2635 70.0256 37.48 69.0591 37.48C68.0926 37.48 67.3091 38.2635 67.3091 39.23C67.3091 40.1965 68.0926 40.98 69.0591 40.98Z" fill="#0569AA"/>
<path d="M77.0891 38.47C78.0556 38.47 78.8391 37.6865 78.8391 36.72C78.8391 35.7535 78.0556 34.97 77.0891 34.97C76.1226 34.97 75.3391 35.7535 75.3391 36.72C75.3391 37.6865 76.1226 38.47 77.0891 38.47Z" fill="#0569AA"/>
<path d="M7.36902 69.32C8.33552 69.32 9.11902 68.5365 9.11902 67.57C9.11902 66.6035 8.33552 65.82 7.36902 65.82C6.40252 65.82 5.61902 66.6035 5.61902 67.57C5.61902 68.5365 6.40252 69.32 7.36902 69.32Z" fill="#0569AA"/>
<path d="M15.4091 66.81C16.3756 66.81 17.1591 66.0265 17.1591 65.06C17.1591 64.0935 16.3756 63.31 15.4091 63.31C14.4426 63.31 13.6591 64.0935 13.6591 65.06C13.6591 66.0265 14.4426 66.81 15.4091 66.81Z" fill="#0569AA"/>
<path d="M23.4391 64.3C24.4056 64.3 25.1891 63.5165 25.1891 62.55C25.1891 61.5836 24.4056 60.8 23.4391 60.8C22.4726 60.8 21.6891 61.5836 21.6891 62.55C21.6891 63.5165 22.4726 64.3 23.4391 64.3Z" fill="#0569AA"/>
<path d="M31.469 61.79C32.4355 61.79 33.219 61.0065 33.219 60.04C33.219 59.0735 32.4355 58.29 31.469 58.29C30.5025 58.29 29.719 59.0735 29.719 60.04C29.719 61.0065 30.5025 61.79 31.469 61.79Z" fill="#0569AA"/>
<path d="M39.509 59.28C40.4755 59.28 41.259 58.4965 41.259 57.53C41.259 56.5635 40.4755 55.78 39.509 55.78C38.5425 55.78 37.759 56.5635 37.759 57.53C37.759 58.4965 38.5425 59.28 39.509 59.28Z" fill="#0569AA"/>
<path d="M47.5391 56.76C48.5056 56.76 49.2891 55.9765 49.2891 55.01C49.2891 54.0435 48.5056 53.26 47.5391 53.26C46.5726 53.26 45.7891 54.0435 45.7891 55.01C45.7891 55.9765 46.5726 56.76 47.5391 56.76Z" fill="#0569AA"/>
<path d="M55.5691 54.25C56.5356 54.25 57.3191 53.4665 57.3191 52.5C57.3191 51.5335 56.5356 50.75 55.5691 50.75C54.6026 50.75 53.8191 51.5335 53.8191 52.5C53.8191 53.4665 54.6026 54.25 55.5691 54.25Z" fill="#0569AA"/>
<path d="M63.599 51.7401C64.5655 51.7401 65.349 50.9565 65.349 49.9901C65.349 49.0236 64.5655 48.2401 63.599 48.2401C62.6325 48.2401 61.849 49.0236 61.849 49.9901C61.849 50.9565 62.6325 51.7401 63.599 51.7401Z" fill="#0569AA"/>
<path d="M71.639 49.23C72.6055 49.23 73.389 48.4465 73.389 47.48C73.389 46.5135 72.6055 45.73 71.639 45.73C70.6725 45.73 69.889 46.5135 69.889 47.48C69.889 48.4465 70.6725 49.23 71.639 49.23Z" fill="#0569AA"/>
<path d="M17.989 75.0599C18.9555 75.0599 19.739 74.2764 19.739 73.3099C19.739 72.3434 18.9555 71.5599 17.989 71.5599C17.0225 71.5599 16.239 72.3434 16.239 73.3099C16.239 74.2764 17.0225 75.0599 17.989 75.0599Z" fill="#0569AA"/>
<path d="M26.019 72.55C26.9855 72.55 27.769 71.7665 27.769 70.8C27.769 69.8336 26.9855 69.05 26.019 69.05C25.0525 69.05 24.269 69.8336 24.269 70.8C24.269 71.7665 25.0525 72.55 26.019 72.55Z" fill="#0569AA"/>
<path d="M34.0491 70.04C35.0156 70.04 35.7991 69.2565 35.7991 68.29C35.7991 67.3235 35.0156 66.54 34.0491 66.54C33.0826 66.54 32.2991 67.3235 32.2991 68.29C32.2991 69.2565 33.0826 70.04 34.0491 70.04Z" fill="#0569AA"/>
<path d="M42.0791 67.53C43.0456 67.53 43.8291 66.7465 43.8291 65.78C43.8291 64.8135 43.0456 64.03 42.0791 64.03C41.1126 64.03 40.3291 64.8135 40.3291 65.78C40.3291 66.7465 41.1126 67.53 42.0791 67.53Z" fill="#0569AA"/>
<path d="M50.119 65.02C51.0855 65.02 51.869 64.2365 51.869 63.27C51.869 62.3035 51.0855 61.52 50.119 61.52C49.1525 61.52 48.369 62.3035 48.369 63.27C48.369 64.2365 49.1525 65.02 50.119 65.02Z" fill="#0569AA"/>
<path d="M58.149 62.51C59.1155 62.51 59.899 61.7265 59.899 60.76C59.899 59.7935 59.1155 59.01 58.149 59.01C57.1825 59.01 56.399 59.7935 56.399 60.76C56.399 61.7265 57.1825 62.51 58.149 62.51Z" fill="#0569AA"/>
<path d="M66.1791 60C67.1456 60 67.9291 59.2165 67.9291 58.25C67.9291 57.2835 67.1456 56.5 66.1791 56.5C65.2126 56.5 64.4291 57.2835 64.4291 58.25C64.4291 59.2165 65.2126 60 66.1791 60Z" fill="#0569AA"/>
<path d="M74.219 57.4901C75.1855 57.4901 75.969 56.7065 75.969 55.7401C75.969 54.7736 75.1855 53.9901 74.219 53.9901C73.2525 53.9901 72.469 54.7736 72.469 55.7401C72.469 56.7065 73.2525 57.4901 74.219 57.4901Z" fill="#0569AA"/>
<path d="M52.6991 73.27C53.6656 73.27 54.4491 72.4865 54.4491 71.52C54.4491 70.5535 53.6656 69.77 52.6991 69.77C51.7326 69.77 50.9491 70.5535 50.9491 71.52C50.9491 72.4865 51.7326 73.27 52.6991 73.27Z" fill="#0569AA"/>
<path d="M60.729 70.76C61.6955 70.76 62.479 69.9765 62.479 69.01C62.479 68.0435 61.6955 67.26 60.729 67.26C59.7625 67.26 58.979 68.0435 58.979 69.01C58.979 69.9765 59.7625 70.76 60.729 70.76Z" fill="#0569AA"/>
<path d="M68.759 68.25C69.7255 68.25 70.509 67.4665 70.509 66.5C70.509 65.5335 69.7255 64.75 68.759 64.75C67.7925 64.75 67.009 65.5335 67.009 66.5C67.009 67.4665 67.7925 68.25 68.759 68.25Z" fill="#0569AA"/>
<path d="M76.7991 65.7401C77.7656 65.7401 78.5491 64.9565 78.5491 63.9901C78.5491 63.0236 77.7656 62.2401 76.7991 62.2401C75.8326 62.2401 75.0491 63.0236 75.0491 63.9901C75.0491 64.9565 75.8326 65.7401 76.7991 65.7401Z" fill="#0569AA"/>
</g>
<path d="M65.0891 63.32L20.8291 80.24C17.7491 81.42 14.299 79.88 13.119 76.8L2.32905 48.58C1.14905 45.5 2.68899 42.0499 5.76899 40.8699L50.029 23.95C53.109 22.77 56.559 24.31 57.739 27.39L68.529 55.61C69.709 58.69 68.1691 62.1399 65.0891 63.32Z" fill="white"/>
<path d="M66.2891 64.74L20.8891 82.1C17.2191 83.5 13.0991 81.66 11.6991 77.99L0.469018 48.6199C-0.930982 44.9599 0.909125 40.83 4.57912 39.43L49.979 22.07C53.639 20.67 57.7691 22.51 59.1691 26.18L70.3991 55.55C71.7991 59.22 69.9491 63.34 66.2891 64.74ZM5.83913 42.72C3.98913 43.43 3.05906 45.5099 3.75906 47.3699L14.989 76.74C15.699 78.59 17.7791 79.52 19.6391 78.82L65.0391 61.46C66.8891 60.75 67.819 58.6699 67.119 56.8099L55.8891 27.44C55.1791 25.59 53.099 24.66 51.239 25.36L5.83913 42.72Z" fill="#0569AA"/>
<path d="M59.619 32.29L4.20914 53.47C3.29914 53.82 2.28912 53.36 1.93912 52.46C1.58912 51.55 2.04913 50.54 2.94913 50.19L58.359 29.01C59.269 28.66 60.2791 29.12 60.6291 30.02C60.9791 30.92 60.529 31.95 59.619 32.29Z" fill="#0569AA"/>
<path d="M22.3291 67.27C19.8791 68.21 17.1291 66.98 16.1891 64.53C15.2491 62.08 16.4791 59.33 18.9291 58.39C21.3791 57.45 24.1291 58.68 25.0691 61.13C26.0091 63.59 24.7891 66.34 22.3291 67.27Z" fill="#F9D44F"/>
<path d="M56.9291 46.52L33.1491 55.61C32.2391 55.96 31.2291 55.5 30.8791 54.6C30.5291 53.69 30.9891 52.68 31.8891 52.33L55.6691 43.24C56.5791 42.89 57.5891 43.35 57.9391 44.25C58.2891 45.16 57.8291 46.17 56.9291 46.52Z" fill="#0569AA"/>
<path d="M59.469 53.18L35.6891 62.2699C34.7791 62.6199 33.7691 62.1599 33.4191 61.2599C33.0691 60.3599 33.5291 59.34 34.4291 58.99L58.2091 49.8999C59.1191 49.5499 60.129 50.0099 60.479 50.9099C60.829 51.8099 60.379 52.84 59.469 53.18Z" fill="#0569AA"/>
</svg>
