<svg width="41" height="41" viewBox="0 0 41 41" fill="none" xmlns="http://www.w3.org/2000/svg">
<path d="M20.41 40.29C31.3507 40.29 40.22 31.4207 40.22 20.48C40.22 9.53922 31.3507 0.669922 20.41 0.669922C9.46921 0.669922 0.600006 9.53922 0.600006 20.48C0.600006 31.4207 9.46921 40.29 20.41 40.29Z" fill="#0569AA"/>
<path d="M21.91 34.6101C19.71 34.6101 18.62 33.5101 18.62 31.3201V14.1101L16.21 15.1101C14.83 15.7001 13.73 15.33 12.92 14C12.01 12.45 12.3 11.29 13.81 10.52L20.36 7.04004H22.91C23.62 7.04004 24.19 7.2399 24.59 7.6499C25 8.0599 25.2 8.62008 25.2 9.33008V20.8401V31.3101C25.21 33.5101 24.11 34.6101 21.91 34.6101Z" fill="white"/>
</svg>
