<?xml version="1.0" encoding="utf-8"?>
<!-- Generator: Adobe Illustrator 24.0.0, SVG Export Plug-In . SVG Version: 6.00 Build 0)  -->
<svg version="1.1" id="characters_text.svg" xmlns="http://www.w3.org/2000/svg" xmlns:xlink="http://www.w3.org/1999/xlink"
	 x="0px" y="0px" width="356.9px" height="18.1px" viewBox="0 0 356.9 18.1" style="enable-background:new 0 0 356.9 18.1;"
	 xml:space="preserve">
<style type="text/css">
	.st0{fill:#FFFFFF;}
</style>
<g>
	<path class="st0" d="M76.8,2.8v2.5h-9.6c-0.6,1.2-1.3,2.4-2.1,3.5v8.7h-2.6v-5.9c-0.4,0.4-0.9,0.7-1.3,1c-0.3-0.7-0.8-1.9-1.2-2.6
		c1.8-1.1,3.2-2.9,4.3-4.8h-3.7V2.8h4.8c0.3-0.8,0.5-1.6,0.7-2.4l2.7,0.6c-0.2,0.6-0.4,1.1-0.6,1.7H76.8z M72.7,14.7h4v2.4H65.9
		v-2.4H70v-3.6h-3.5V8.7H70V6h2.6v2.7H76v2.4h-3.3V14.7z"/>
	<path class="st0" d="M92,12.5c0.2,1.1,0.4,2.4,0.4,3.3l-1.8,0.3c0-0.9-0.1-2.3-0.3-3.3c-0.2,1.6-0.5,3.1-1.4,4.1l-1.9-1
		c0.5-0.6,0.9-1.5,1.1-2.5c-2.1,0.5-4.3,1-6.1,1.4l-0.5-2.5c0.7-0.1,1.5-0.3,2.4-0.4V8.9H82V6.5h1.8V3.9h-1.9V1.4h6.3v2.4h-1.9v2.6
		H88v2.4h-1.7v2.6l1.5-0.3l0.2,2.1c0.1-0.4,0.1-0.8,0.2-1.2l2,0.5l0,0.2L92,12.5z M98.8,9.4c0,0,0,0.6,0,0.9
		c-0.2,4.1-0.3,5.8-0.8,6.4c-0.4,0.5-0.8,0.7-1.4,0.8c-0.5,0.1-1.2,0.1-2,0.1c0-0.7-0.3-1.7-0.6-2.3c0.6,0.1,1.1,0.1,1.4,0.1
		c0.2,0,0.4-0.1,0.6-0.2c0.1-0.2,0.2-0.5,0.3-1.2l-1.2,0.5c-0.1-0.6-0.5-1.4-0.8-2.1l1.4-0.5c0.3,0.4,0.6,1,0.8,1.5
		c0.1-0.5,0.1-1,0.1-1.7h-7.6V1.1h9.6v2.2h-3.2v0.6h2.5v2h-2.5v0.7h2.5v2h-2.5v0.8H98.8z M91.1,3.3v0.6h1.7V3.3H91.1z M92.8,5.9
		h-1.7v0.7h1.7V5.9z M91.1,9.4h1.7V8.6h-1.7V9.4z M93.8,12.3c0.3,0.9,0.6,2,0.7,2.8l-1.7,0.5c-0.1-0.8-0.3-1.9-0.6-2.8L93.8,12.3z"
		/>
	<path class="st0" d="M109.4,5.8h3v2.4h-3v0.7c0.9,0.7,2.5,2,3,2.4l-1.5,2.3c-0.4-0.5-0.9-1.1-1.5-1.7v5.8h-2.6V12
		c-0.7,1.4-1.5,2.6-2.3,3.5c-0.3-0.8-0.9-1.9-1.3-2.6c1.2-1.2,2.4-3,3.2-4.7h-2.7V5.8h3.2V4c-0.9,0.2-1.8,0.3-2.7,0.5
		c-0.1-0.6-0.5-1.5-0.8-2c2.6-0.4,5.4-1.1,7.1-1.9l1.8,2c-0.9,0.4-1.9,0.7-2.9,0.9V5.8z M115.8,12.9h-2.6V2.7h2.6V12.9z M119.7,0.8
		v13.6c0,1.5-0.3,2.2-1.1,2.6c-0.8,0.4-2.1,0.5-3.8,0.5c-0.1-0.8-0.5-2-0.9-2.7c1.1,0.1,2.3,0.1,2.7,0.1c0.3,0,0.5-0.1,0.5-0.5V0.8
		H119.7z"/>
	<path class="st0" d="M138.7,7.5c0,0.3,0,0.6,0,0.9c0.7,3.4,1.6,5.5,3.6,7.2c-0.6,0.5-1.3,1.3-1.6,2c-1.3-1.3-2.2-2.7-2.8-4.4
		c-0.6,1.5-1.4,3.1-2.8,4.4c-0.2-0.3-0.5-0.8-0.9-1.2c-0.5,0.1-1.3,0.1-2.1,0.1h-3.2c-2.6,0-3.5-1-3.5-3.9V3.3h-0.5V1.1h9.2v2.2
		h-6.4v9.6c0,1.2,0.2,1.6,1.1,1.6h3.4c0.6,0,1.4-0.1,1.9-0.2l0.1,0.5c1.9-2.4,2.2-5.4,2.2-7.3V6.5c-0.3,0.8-0.7,1.5-1.1,2
		c-0.4-0.4-1.5-1.1-2-1.4c1.2-1.5,1.9-4.1,2.2-6.8l2.4,0.4c-0.1,0.7-0.2,1.4-0.4,2.1h2.9l0.4-0.1l1.7,0.5c-0.4,1.9-1,4-1.6,5.5
		l-1.9-0.6c0.3-0.7,0.5-1.8,0.8-2.8h-2.8c-0.1,0.2-0.1,0.5-0.2,0.7h2.1V7.5z M128,9h2.8v4.6H128V9z M128.6,4h4.5v4.2h-4.5V4z
		 M129.2,12.1h0.5v-1.6h-0.5V12.1z M130.5,6.8h0.7V5.5h-0.7V6.8z M131.2,9h2.9v4.6h-2.9V9z M132.4,12.1h0.5v-1.6h-0.5V12.1z"/>
	<path class="st0" d="M156.4,11.8v3.1c0,1.2-0.2,1.9-1.2,2.3c-0.9,0.4-2,0.4-3.3,0.4c-0.1-0.8-0.6-1.9-1-2.6c0.8,0.1,2,0.1,2.3,0.1
		c0.3,0,0.4-0.1,0.4-0.3V12c-1.7,0.2-2.8,0.3-3.5,0.4l2.4,0.9c-1,1.4-2.7,2.8-3.9,3.7c-0.5-0.5-1.6-1.4-2.3-1.7
		c1.3-0.6,2.6-1.7,3.4-2.8c-0.6,0.1-1,0.2-1.3,0.3c-0.1-0.5-0.5-1.7-0.8-2.4c0.8-0.1,1.4-0.4,2.5-0.9c0.5-0.2,1.3-0.6,2.2-1.2
		c-2.3,0.2-2.9,0.3-3.3,0.5c-0.1-0.5-0.5-1.7-0.8-2.4c0.5-0.1,0.9-0.3,1.6-0.6c0.4-0.2,1.3-0.7,2.2-1.3c-1.5,0.2-2.9,0.4-4.3,0.5
		c-0.1-0.6-0.5-1.7-0.7-2.2c4.2-0.5,8.8-1.3,11.6-2.4l1.9,2.1c-1.5,0.6-3.3,1-5.1,1.4l0.8,0.5c-0.8,0.6-1.7,1.2-2.6,1.7l2.3-0.1
		c0.6-0.5,1.3-1,1.9-1.5l1.9,1.7c-1.6,1.3-3.5,2.4-5.3,3.4l3.7-0.3c-0.3-0.3-0.6-0.7-0.9-1l2.2-1.1c1.2,1.3,2.7,3,3.5,4.1l-2.2,1.4
		c-0.2-0.4-0.5-0.8-0.9-1.3L156.4,11.8z M159.2,12c1.3,0.9,3.1,2.2,4,3.2l-2.3,1.5c-0.8-1-2.5-2.4-3.8-3.3L159.2,12z"/>
	<path class="st0" d="M168.4,1.2h9.6v2.5h-4.9c-0.1,0.5-0.2,1-0.4,1.5h2.9l0.5-0.1l1.6,0.5c-0.8,6.4-3.3,10.1-7.7,12.2
		c-0.3-0.7-1-1.7-1.6-2.2c1.6-0.6,2.9-1.5,3.9-2.8c-0.6-0.6-1.4-1.4-2.1-2.1c-0.3,0.4-0.6,0.8-0.9,1.1c-0.3-0.6-1.1-1.8-1.5-2.4
		c1.2-1.4,2.1-3.4,2.6-5.7h-2.1V1.2z M171.9,7.6c-0.1,0.3-0.2,0.5-0.3,0.8c0.7,0.6,1.6,1.4,2.3,2c0.4-0.8,0.7-1.8,1-2.8H171.9z
		 M181.1,12.8h-2.6V2.3h2.6V12.8z M184.8,0.7v13.9c0,1.3-0.3,2-1,2.4c-0.8,0.4-1.9,0.5-3.4,0.5c-0.1-0.7-0.5-1.8-0.8-2.5
		c0.9,0,1.9,0,2.2,0c0.3,0,0.4-0.1,0.4-0.4V0.7H184.8z"/>
	<path class="st0" d="M203.8,13.4h-2.8l1.7,0.3c-0.3,0.5-0.5,0.9-0.7,1.3h4.3v2.2h-16V15h4.1c-0.1-0.4-0.3-0.9-0.6-1.3l1.3-0.4h-2.5
		V8.9c-0.5,0.3-1.1,0.6-1.6,0.9c-0.3-0.6-1.1-1.5-1.6-1.9c1-0.4,1.9-1,2.8-1.7c-0.5-0.5-1.2-1-1.7-1.3l1.4-1.4
		c0.6,0.3,1.4,0.8,1.8,1.3c0.4-0.5,0.8-1,1.1-1.5h-4V1.1h5.2l0.4-0.1l1.7,0.8c-0.1-0.2-0.2-0.4-0.3-0.6l2.3-0.7
		c0.2,0.6,0.5,1.1,0.8,1.6c0.6-0.5,1.1-1,1.5-1.5l2,1.4c-0.8,0.6-1.6,1.3-2.4,1.8c0.2,0.2,0.4,0.5,0.6,0.7c0.7-0.6,1.4-1.2,1.9-1.7
		l1.9,1.3c-0.7,0.6-1.5,1.3-2.3,1.8c0.8,0.6,1.8,1.2,2.9,1.6c-0.6,0.5-1.4,1.5-1.8,2.2c-0.6-0.3-1.1-0.6-1.6-0.9V13.4z M195.3,6.7
		c-0.5,0.5-1,1-1.5,1.4h9c-0.5-0.4-0.9-0.8-1.3-1.2v0.5h-6.2V6.7z M195.3,10.2v1.2h5.6v-1.2H195.3z M199.4,15
		c0.3-0.5,0.5-1.2,0.7-1.7h-3.7c0.3,0.5,0.5,1,0.6,1.4l-0.7,0.3H199.4z M200.1,5.2c-0.7-1-1.3-2.1-1.8-3.3c-0.4,1.2-1,2.3-1.7,3.3
		H200.1z"/>
	<path class="st0" d="M221.3,9.8c-0.1,0.2-0.2,0.4-0.4,0.6h7.1c0,0,0,0.6-0.1,0.9c-0.2,3.4-0.5,4.9-1,5.4c-0.4,0.5-0.8,0.6-1.3,0.7
		c-0.4,0.1-1.1,0.1-1.9,0.1c0-0.5-0.2-1.2-0.4-1.7c-0.5,0.7-1.1,1.4-1.7,1.9c-0.5-0.5-1.2-1.1-1.9-1.4c1.3-0.8,2.4-2.2,3.2-3.7h-0.6
		c-1,1.6-2.6,3.4-4.1,4.3c-0.4-0.5-1.1-1.2-1.7-1.5c1.2-0.6,2.5-1.7,3.4-2.8h-0.6c-0.6,0.6-1.2,1.2-1.9,1.6
		c-0.3-0.3-0.9-0.9-1.3-1.3c-1.4,0.7-2.8,1.4-4.1,2l-1-2.6c0.6-0.2,1.3-0.5,2.1-0.8V6.7h-1.7V4.2h1.7V0.7h2.4v3.5h1.5v2.5h-1.5v3.8
		l1.2-0.5l0.4,1.6c0.6-0.5,1.1-1,1.5-1.7H217V7.7h11.4v2.2H221.3z M227.2,7.2h-8.7V0.9h8.7V7.2z M224.8,2.7h-4v0.5h4V2.7z
		 M224.8,4.9h-4v0.5h4V4.9z M225.3,12.5c-0.4,1-1,2.1-1.6,3c0.4,0,0.6,0,0.8,0c0.2,0,0.4,0,0.5-0.2c0.2-0.2,0.4-1,0.6-2.8H225.3z"/>
	<path class="st0" d="M249.6,3.2c0,0,0,0.8,0,1.1c-0.2,8-0.4,10.9-1.2,11.9c-0.6,0.8-1.1,1-1.9,1.2c-0.7,0.1-1.8,0.1-2.9,0.1
		c0-0.7-0.4-1.8-0.9-2.5c1.2,0.1,2.2,0.1,2.7,0.1c0.4,0,0.6-0.1,0.8-0.3c0.5-0.6,0.7-3.2,0.9-9.1h-3.4c-0.5,1-1,1.9-1.5,2.7
		c-0.3-0.3-0.9-0.8-1.5-1.1v8.6H236V17h-2.4V3.4h2.1c0.2-0.9,0.3-2.1,0.4-2.9l2.9,0.4c-0.3,0.9-0.6,1.8-0.9,2.5h2.7v2.4
		c0.9-1.5,1.7-3.4,2.1-5.3l2.5,0.6c-0.2,0.7-0.4,1.4-0.7,2.1H249.6z M238.3,5.7H236v2.4h2.4V5.7z M238.3,13.5v-3.1H236v3.1H238.3z
		 M244.3,12.9c-0.5-1.1-1.5-2.9-2.4-4.2l2.1-1.2c0.8,1.2,2,2.9,2.5,4L244.3,12.9z"/>
	<path class="st0" d="M270.2,14.8c0,1.3-0.3,2-1.2,2.4c-0.9,0.4-2.2,0.4-4,0.4c-0.1-0.7-0.6-1.9-1-2.5c1.1,0.1,2.7,0.1,3.1,0.1
		c0.4,0,0.5-0.1,0.5-0.5v-1h-8.4c-0.5,1.5-1.4,2.9-2.9,3.9c-0.4-0.5-1.3-1.5-1.9-1.8c2.6-1.7,2.8-4.3,2.8-6.5V7
		c-0.2,0.2-0.4,0.3-0.7,0.5c-0.4-0.6-1.3-1.5-1.9-1.9c2.2-1.5,3.7-3.5,4.5-5.2l2.8,0.5c-0.1,0.2-0.2,0.4-0.3,0.6h3.1l0.4-0.1
		l1.8,1.2c-0.4,0.6-0.9,1.4-1.4,2.1h4.5V14.8z M260.4,3.6c-0.3,0.4-0.5,0.7-0.8,1h3.2c0.2-0.3,0.5-0.7,0.6-1H260.4z M259.8,10.3
		c0,0.4-0.1,0.8-0.1,1.2h2.7v-1.2H259.8z M259.8,8.1h2.6V6.9h-2.6V8.1z M267.6,6.9h-2.8v1.2h2.8V6.9z M267.6,11.5v-1.2h-2.8v1.2
		H267.6z"/>
	<path class="st0" d="M290.9,12.5c0.6,0.3,1.6,0.7,2.3,0.8c-0.4,3.1-1.3,4-4.5,4h-5.8c-3.7,0-4.8-0.7-4.8-3.6v-6
		c-0.3,0.2-0.5,0.4-0.8,0.6c-0.2-0.6-0.9-1.9-1.4-2.5c2.1-1.2,4.2-3.3,5.5-5.4l2.4,0.9c-0.1,0.2-0.2,0.4-0.3,0.6h3.8l0.5-0.1
		l1.7,1.3c-0.6,0.8-1.4,1.8-2.2,2.6h4.1v7H290.9z M281.8,4.1c-0.4,0.5-0.8,1-1.3,1.4h3.6c0.5-0.4,0.9-0.9,1.3-1.4H281.8z M280.6,9.5
		h2.9V7.9h-2.9V9.5z M288.5,14.9c1.7,0,2-0.3,2.2-2.4h-1.9V12h-8.2v1.6c0,1.1,0.3,1.3,2.2,1.3H288.5z M288.8,7.9h-2.7v1.6h2.7V7.9z"
		/>
</g>
</svg>
