<svg id="characters_title.svg" data-name="characters/title.svg" xmlns="http://www.w3.org/2000/svg" xmlns:xlink="http://www.w3.org/1999/xlink" width="423" height="71" viewBox="0 0 423 71">
  <defs>
    <style>
      .cls-1 {
        fill: #fff;
        fill-rule: evenodd;
        filter: url(#filter);
      }
    </style>
    <filter id="filter" x="1190" y="6348" width="423" height="71" filterUnits="userSpaceOnUse">
      <feGaussianBlur result="blur" stdDeviation="3.333" in="SourceAlpha"/>
      <feComposite result="composite"/>
      <feComposite result="composite-2"/>
      <feComposite result="composite-3"/>
      <feFlood result="flood" flood-opacity="0.16"/>
      <feComposite result="composite-4" operator="in" in2="composite-3"/>
      <feBlend result="blend" in2="SourceGraphic"/>
      <feBlend result="blend-2" in="SourceGraphic"/>
    </filter>
  </defs>
  <path id="CHARACTERS" class="cls-1" d="M1246.83,6377.68c-0.78-4.56-3.3-8.64-7.5-12.24a22.549,22.549,0,0,0-15.48-5.46c-12.72,0-22.86,10.62-22.86,22.38,0,6.72,2.04,12.36,6.84,17.04a23.413,23.413,0,0,0,39-10.8h-11.88c-2.34,4.98-6.18,7.5-10.68,7.5-7.02,0-11.94-6-11.94-13.2,0-6.9,4.8-12.96,11.88-12.96a11.6,11.6,0,0,1,10.74,7.74h11.88Zm42.53,27.54v-44.4h-11.34v16.68H1263.5v-16.68h-11.34v44.4h11.34v-17.76h14.52v17.76h11.34Zm47.93,0-17.64-44.4h-8.94l-17.82,44.4h12.18l2.34-6.42h15.42l2.16,6.42h12.3Zm-17.46-15.42h-9.3l4.56-15.18,0.18,0.06Zm55.22,15.42L1363,6390.1c6.83-1.2,11.03-6.96,11.03-13.98,0-6.3-3.36-11.52-8.15-13.68-2.34-1.02-5.88-1.62-10.5-1.62h-14.52v44.4h10.86v-14.34h0.12l10.26,14.34h12.95Zm-23.33-22.08v-12.36h4.32c4.26,0,7.14,2.16,7.14,6,0,4.26-2.76,6.36-7.26,6.36h-4.2Zm69.86,22.08-17.64-44.4H1395l-17.82,44.4h12.18l2.34-6.42h15.42l2.16,6.42h12.3Zm-17.46-15.42h-9.3l4.56-15.18,0.18,0.06Zm62.76-12.12c-0.78-4.56-3.3-8.64-7.5-12.24a22.541,22.541,0,0,0-15.47-5.46c-12.72,0-22.86,10.62-22.86,22.38,0,6.72,2.04,12.36,6.84,17.04a23.4,23.4,0,0,0,38.99-10.8H1455c-2.34,4.98-6.18,7.5-10.67,7.5-7.02,0-11.94-6-11.94-13.2,0-6.9,4.8-12.96,11.88-12.96a11.6,11.6,0,0,1,10.73,7.74h11.88Zm21.57,27.54v-34.44h8.7v-9.96h-28.8v9.96h8.76v34.44h11.34Zm36.86,0v-9.96h-13.8v-7.62h13.38v-9.96h-13.38v-6.9h13.8v-9.96h-24.66v44.4h24.66Zm41.4,0-12.06-15.12c6.84-1.2,11.04-6.96,11.04-13.98,0-6.3-3.36-11.52-8.16-13.68-2.34-1.02-5.88-1.62-10.5-1.62h-14.52v44.4h10.86v-14.34h0.12l10.26,14.34h12.96Zm-23.34-22.08v-12.36h4.32c4.26,0,7.14,2.16,7.14,6,0,4.26-2.76,6.36-7.26,6.36h-4.2Zm56.65-9.36c-0.06-5.94-2.34-9.48-7.08-11.94a16.884,16.884,0,0,0-7.86-1.86c-8.16,0-15.48,5.52-15.48,13.08,0,5.76,3.3,9.6,10.56,12.54,4.02,1.62,8.94,3.18,8.94,6.72a4.238,4.238,0,0,1-4.26,4.26c-2.82,0-4.62-2.4-4.68-6.06h-11.28v0.96c0,9.54,6.36,14.58,16.02,14.58,9.6,0,15.48-5.04,15.48-13.62,0-5.82-2.46-9.36-12.24-13.56-4.86-2.1-7.26-3.3-7.26-5.94a3.7,3.7,0,0,1,3.9-3.48c2.22,0,3.54,1.14,4.02,4.32h11.22Z" transform="translate(-1190 -6348)"/>
</svg>
